<svg preserveAspectRatio="none" width="100%" height="100%" overflow="visible" style="display: block;" viewBox="0 0 14 20.1658" fill="none" xmlns="http://www.w3.org/2000/svg">
<path id="Vector" d="M11 9.1658H3C2.20435 9.1658 1.44129 9.48187 0.87868 10.0445C0.316071 10.6071 0 11.3701 0 12.1658V17.1658C0 17.9614 0.316071 18.7245 0.87868 19.2871C1.44129 19.8497 2.20435 20.1658 3 20.1658H11C11.7956 20.1658 12.5587 19.8497 13.1213 19.2871C13.6839 18.7245 14 17.9614 14 17.1658V12.1658C14 11.3701 13.6839 10.6071 13.1213 10.0445C12.5587 9.48187 11.7956 9.1658 11 9.1658V9.1658ZM10.58 11.1658L7.7 14.0858C7.51307 14.269 7.26175 14.3717 7 14.3717C6.73825 14.3717 6.48693 14.269 6.3 14.0858L3.42 11.1658H10.58ZM12 17.1658C12 17.431 11.8946 17.6854 11.7071 17.8729C11.5196 18.0604 11.2652 18.1658 11 18.1658H3C2.73478 18.1658 2.48043 18.0604 2.29289 17.8729C2.10536 17.6854 2 17.431 2 17.1658V12.5758L4.88 15.4558C5.4425 16.0176 6.205 16.3332 7 16.3332C7.795 16.3332 8.5575 16.0176 9.12 15.4558L12 12.5758V17.1658ZM5.71 3.7058L6 3.4158V6.1658C6 6.43101 6.10536 6.68537 6.29289 6.8729C6.48043 7.06044 6.73478 7.1658 7 7.1658C7.26522 7.1658 7.51957 7.06044 7.70711 6.8729C7.89464 6.68537 8 6.43101 8 6.1658V3.4158L8.29 3.7058C8.38258 3.79904 8.49262 3.87313 8.61384 3.92384C8.73505 3.97455 8.86507 4.00089 8.99646 4.00135C9.12786 4.00182 9.25806 3.9764 9.37963 3.92654C9.5012 3.87669 9.61176 3.80338 9.705 3.7108C9.79824 3.61822 9.87233 3.50818 9.92304 3.38696C9.97375 3.26575 10.0001 3.13573 10.0006 3.00433C10.001 2.87294 9.9756 2.74274 9.92575 2.62117C9.87589 2.4996 9.80258 2.38904 9.71 2.2958L7.71 0.295798C7.61704 0.20207 7.50644 0.127676 7.38458 0.0769069C7.26272 0.0261382 7.13201 0 7 0C6.86799 0 6.73728 0.0261382 6.61542 0.0769069C6.49356 0.127676 6.38296 0.20207 6.29 0.295798L4.29 2.2958C4.10375 2.48316 3.99921 2.73661 3.99921 3.0008C3.99921 3.26498 4.10375 3.51844 4.29 3.7058C4.38296 3.79953 4.49356 3.87392 4.61542 3.92469C4.73728 3.97546 4.86799 4.0016 5 4.0016C5.13201 4.0016 5.26272 3.97546 5.38458 3.92469C5.50644 3.87392 5.61704 3.79953 5.71 3.7058V3.7058Z" fill="var(--fill-0, #1E1F26)"/>
</svg>
