<svg preserveAspectRatio="none" width="100%" height="100%" overflow="visible" style="display: block;" viewBox="0 0 17.0043 17.0043" fill="none" xmlns="http://www.w3.org/2000/svg">
<path id="Vector" d="M16.9243 0.62C16.8228 0.375651 16.6286 0.181475 16.3843 0.0799999C16.2641 0.028759 16.135 0.00157999 16.0043 0H12.0043C11.7391 0 11.4847 0.105357 11.2972 0.292893C11.1096 0.48043 11.0043 0.734784 11.0043 1C11.0043 1.26522 11.1096 1.51957 11.2972 1.70711C11.4847 1.89464 11.7391 2 12.0043 2H13.5943L11.1943 4.4C9.7772 3.33945 8.01096 2.8551 6.25112 3.04446C4.49128 3.23382 2.86851 4.08282 1.70949 5.42057C0.550462 6.75831 -0.0587559 8.48547 0.00447161 10.2543C0.0676992 12.0232 0.798678 13.7025 2.05026 14.954C3.30184 16.2056 4.98108 16.9366 6.74995 16.9998C8.51882 17.063 10.246 16.4538 11.5837 15.2948C12.9215 14.1358 13.7705 12.513 13.9598 10.7532C14.1492 8.99332 13.6648 7.22708 12.6043 5.81L15.0043 3.41V5C15.0043 5.26522 15.1096 5.51957 15.2972 5.70711C15.4847 5.89464 15.7391 6 16.0043 6C16.2695 6 16.5239 5.89464 16.7114 5.70711C16.8989 5.51957 17.0043 5.26522 17.0043 5V1C17.0027 0.869323 16.9755 0.740222 16.9243 0.62V0.62ZM10.5043 13.5C9.80907 14.2093 8.91838 14.6954 7.94578 14.8965C6.97318 15.0975 5.96273 15.0044 5.04328 14.6289C4.12382 14.2534 3.33702 13.6126 2.78318 12.7882C2.22935 11.9638 1.93357 10.9932 1.93357 10C1.93357 9.00683 2.22935 8.03617 2.78318 7.21176C3.33702 6.38736 4.12382 5.74657 5.04328 5.37109C5.96273 4.99562 6.97318 4.90247 7.94578 5.10353C8.91838 5.30459 9.80907 5.79074 10.5043 6.5V6.5C11.4204 7.43464 11.9336 8.69124 11.9336 10C11.9336 11.3088 11.4204 12.5654 10.5043 13.5V13.5Z" fill="var(--fill-0, #1E1F26)"/>
</svg>
