<svg preserveAspectRatio="none" width="100%" height="100%" overflow="visible" style="display: block;" viewBox="0 0 18 20" fill="none" xmlns="http://www.w3.org/2000/svg">
<path id="Vector" d="M17.89 9.24C17.8851 9.21356 17.8851 9.18644 17.89 9.16V8.97C17.89 8.74 17.83 8.51 17.79 8.28C17.7843 8.22682 17.7843 8.17318 17.79 8.12C17.74 7.87 17.67 7.63 17.6 7.39C17.1724 6.00973 16.4156 4.75416 15.3947 3.73154C14.3738 2.70892 13.1195 1.94992 11.74 1.52H11.66C11.44 1.45 11.21 1.39 10.98 1.34H10.8C10.6182 1.30357 10.4346 1.27686 10.25 1.26H10.01V1C10.01 0.734784 9.90464 0.48043 9.71711 0.292893C9.52957 0.105357 9.27522 0 9.01 0C8.74478 0 8.49043 0.105357 8.30289 0.292893C8.11536 0.48043 8.01 0.734784 8.01 1V1.06C7.67344 1.10047 7.33954 1.16057 7.01 1.24C6.79994 1.27921 6.5928 1.33266 6.39 1.4H6.26C6.01 1.48 5.78 1.57 5.54 1.66C4.3052 2.14891 3.195 2.90708 2.29025 3.8793C1.3855 4.85151 0.708995 6.01328 0.31 7.28C0.306545 7.30655 0.306545 7.33344 0.31 7.36C0.232703 7.5961 0.169262 7.83651 0.12 8.08V8.24C0.0666668 8.48 0.0266667 8.73 0 8.99C0 8.99 0 9.06 0 9.1C0 9.14 0 9.16 0 9.19C0 9.22 0 9.19 0 9.24C0 9.49 0 9.74 0 10C0 10.2652 0.105357 10.5196 0.292893 10.7071C0.48043 10.8946 0.734784 11 1 11H8V17C8 17.2652 7.89464 17.5196 7.70711 17.7071C7.51957 17.8946 7.26522 18 7 18C6.73478 18 6.48043 17.8946 6.29289 17.7071C6.10536 17.5196 6 17.2652 6 17C6 16.7348 5.89464 16.4804 5.70711 16.2929C5.51957 16.1054 5.26522 16 5 16C4.73478 16 4.48043 16.1054 4.29289 16.2929C4.10536 16.4804 4 16.7348 4 17C4 17.7956 4.31607 18.5587 4.87868 19.1213C5.44129 19.6839 6.20435 20 7 20C7.79565 20 8.55871 19.6839 9.12132 19.1213C9.68393 18.5587 10 17.7956 10 17V11H17C17.2652 11 17.5196 10.8946 17.7071 10.7071C17.8946 10.5196 18 10.2652 18 10C17.89 9.74 17.89 9.49 17.89 9.24ZM4.89 9H1.97C1.97 9 1.97 8.93 1.97 8.89C1.97 8.85 1.97 8.61 2.05 8.48C2.13 8.35 2.05 8.35 2.05 8.29C2.05 8.23 2.13 7.97 2.18 7.81V7.73C2.50005 6.82311 3.00353 5.99189 3.65904 5.2882C4.31456 4.58452 5.10804 4.02345 5.99 3.64C5.32 5.35076 4.94795 7.16363 4.89 9V9ZM6.89 9C7.08 5.09 8.33 3 8.89 3C9.45 3 10.68 5.09 10.89 9H6.89ZM12.89 9C12.832 7.16363 12.46 5.35076 11.79 3.64C12.6601 4.03569 13.4399 4.60538 14.0814 5.31396C14.7229 6.02254 15.2125 6.85499 15.52 7.76V7.76C15.5805 7.93352 15.6306 8.1105 15.67 8.29C15.6655 8.3399 15.6655 8.3901 15.67 8.44C15.67 8.58 15.73 8.73 15.75 8.87C15.77 9.01 15.75 8.94 15.75 8.98L12.89 9Z" fill="var(--fill-0, #1E1F26)"/>
</svg>
