<svg preserveAspectRatio="none" width="100%" height="100%" overflow="visible" style="display: block;" viewBox="0 0 20.0018 14" fill="none" xmlns="http://www.w3.org/2000/svg">
<path id="Vector" d="M1 2H19C19.2652 2 19.5196 1.89464 19.7071 1.70711C19.8946 1.51957 20 1.26522 20 1C20 0.734784 19.8946 0.48043 19.7071 0.292893C19.5196 0.105357 19.2652 0 19 0H1C0.734784 0 0.48043 0.105357 0.292893 0.292893C0.105357 0.48043 0 0.734784 0 1C0 1.26522 0.105357 1.51957 0.292893 1.70711C0.48043 1.89464 0.734784 2 1 2V2ZM1 6H11C11.2652 6 11.5196 5.89464 11.7071 5.70711C11.8946 5.51957 12 5.26522 12 5C12 4.73478 11.8946 4.48043 11.7071 4.29289C11.5196 4.10536 11.2652 4 11 4H1C0.734784 4 0.48043 4.10536 0.292893 4.29289C0.105357 4.48043 0 4.73478 0 5C0 5.26522 0.105357 5.51957 0.292893 5.70711C0.48043 5.89464 0.734784 6 1 6V6ZM19.77 4.69C19.6853 4.58947 19.5817 4.50661 19.465 4.44616C19.3483 4.38572 19.2208 4.34887 19.0899 4.33772C18.9589 4.32658 18.8271 4.34135 18.7018 4.38121C18.5766 4.42107 18.4604 4.48522 18.36 4.57L16.36 6.23C16.2468 6.32383 16.1556 6.44149 16.093 6.57458C16.0305 6.70768 15.998 6.85293 15.998 7C15.998 7.14707 16.0305 7.29232 16.093 7.42542C16.1556 7.55851 16.2468 7.67617 16.36 7.77L18.36 9.43C18.5385 9.58269 18.7651 9.66766 19 9.67C19.1469 9.67024 19.2921 9.6381 19.4252 9.57588C19.5582 9.51366 19.676 9.42288 19.77 9.31C19.8542 9.20895 19.9176 9.09229 19.9567 8.96668C19.9957 8.84108 20.0096 8.70901 19.9975 8.57803C19.9855 8.44705 19.9477 8.31974 19.8863 8.2034C19.825 8.08705 19.7413 7.98395 19.64 7.9L18.56 7L19.64 6.1C19.7413 6.01605 19.825 5.91295 19.8863 5.7966C19.9477 5.68026 19.9855 5.55295 19.9975 5.42197C20.0096 5.29099 19.9957 5.15892 19.9567 5.03332C19.9176 4.90771 19.8542 4.79105 19.77 4.69ZM19 12H1C0.734784 12 0.48043 12.1054 0.292893 12.2929C0.105357 12.4804 0 12.7348 0 13C0 13.2652 0.105357 13.5196 0.292893 13.7071C0.48043 13.8946 0.734784 14 1 14H19C19.2652 14 19.5196 13.8946 19.7071 13.7071C19.8946 13.5196 20 13.2652 20 13C20 12.7348 19.8946 12.4804 19.7071 12.2929C19.5196 12.1054 19.2652 12 19 12ZM1 10H11C11.2652 10 11.5196 9.89464 11.7071 9.70711C11.8946 9.51957 12 9.26522 12 9C12 8.73478 11.8946 8.48043 11.7071 8.29289C11.5196 8.10536 11.2652 8 11 8H1C0.734784 8 0.48043 8.10536 0.292893 8.29289C0.105357 8.48043 0 8.73478 0 9C0 9.26522 0.105357 9.51957 0.292893 9.70711C0.48043 9.89464 0.734784 10 1 10V10Z" fill="var(--fill-0, #1E1F26)"/>
</svg>
