<svg preserveAspectRatio="none" width="100%" height="100%" overflow="visible" style="display: block;" viewBox="0 0 22 20" fill="none" xmlns="http://www.w3.org/2000/svg">
<path id="Vector" d="M14 15C13.8022 15 13.6089 15.0586 13.4444 15.1685C13.28 15.2784 13.1518 15.4346 13.0761 15.6173C13.0004 15.8 12.9806 16.0011 13.0192 16.1951C13.0578 16.3891 13.153 16.5673 13.2929 16.7071C13.4327 16.847 13.6109 16.9422 13.8049 16.9808C13.9989 17.0194 14.2 16.9996 14.3827 16.9239C14.5654 16.8482 14.7216 16.72 14.8315 16.5556C14.9414 16.3911 15 16.1978 15 16C15 15.7348 14.8946 15.4804 14.7071 15.2929C14.5196 15.1054 14.2652 15 14 15ZM10 15H8C7.73478 15 7.48043 15.1054 7.29289 15.2929C7.10536 15.4804 7 15.7348 7 16C7 16.2652 7.10536 16.5196 7.29289 16.7071C7.48043 16.8946 7.73478 17 8 17H10C10.2652 17 10.5196 16.8946 10.7071 16.7071C10.8946 16.5196 11 16.2652 11 16C11 15.7348 10.8946 15.4804 10.7071 15.2929C10.5196 15.1054 10.2652 15 10 15ZM10 9H8C7.73478 9 7.48043 9.10536 7.29289 9.29289C7.10536 9.48043 7 9.73478 7 10C7 10.2652 7.10536 10.5196 7.29289 10.7071C7.48043 10.8946 7.73478 11 8 11H10C10.2652 11 10.5196 10.8946 10.7071 10.7071C10.8946 10.5196 11 10.2652 11 10C11 9.73478 10.8946 9.48043 10.7071 9.29289C10.5196 9.10536 10.2652 9 10 9ZM14 9C13.8022 9 13.6089 9.05865 13.4444 9.16853C13.28 9.27841 13.1518 9.43459 13.0761 9.61732C13.0004 9.80004 12.9806 10.0011 13.0192 10.1951C13.0578 10.3891 13.153 10.5673 13.2929 10.7071C13.4327 10.847 13.6109 10.9422 13.8049 10.9808C13.9989 11.0194 14.2 10.9996 14.3827 10.9239C14.5654 10.8482 14.7216 10.72 14.8315 10.5556C14.9414 10.3911 15 10.1978 15 10C15 9.73478 14.8946 9.48043 14.7071 9.29289C14.5196 9.10536 14.2652 9 14 9ZM22 6C22 5.20435 21.6839 4.44129 21.1213 3.87868C20.5587 3.31607 19.7956 3 19 3H18C18 2.20435 17.6839 1.44129 17.1213 0.87868C16.5587 0.316071 15.7956 0 15 0H7C6.20435 0 5.44129 0.316071 4.87868 0.87868C4.31607 1.44129 4 2.20435 4 3H3C2.20435 3 1.44129 3.31607 0.87868 3.87868C0.31607 4.44129 0 5.20435 0 6V8C0.00441061 8.74005 0.282211 9.45236 0.78 10C0.282211 10.5476 0.00441061 11.2599 0 12V14C0 14.7956 0.31607 15.5587 0.87868 16.1213C1.44129 16.6839 2.20435 17 3 17H4C4 17.7956 4.31607 18.5587 4.87868 19.1213C5.44129 19.6839 6.20435 20 7 20H15C15.7956 20 16.5587 19.6839 17.1213 19.1213C17.6839 18.5587 18 17.7956 18 17H19C19.7956 17 20.5587 16.6839 21.1213 16.1213C21.6839 15.5587 22 14.7956 22 14V12C21.9956 11.2599 21.7178 10.5476 21.22 10C21.7178 9.45236 21.9956 8.74005 22 8V6ZM4 15H3C2.73478 15 2.48043 14.8946 2.29289 14.7071C2.10536 14.5196 2 14.2652 2 14V12C2 11.7348 2.10536 11.4804 2.29289 11.2929C2.48043 11.1054 2.73478 11 3 11H4C4.00441 11.7401 4.28221 12.4524 4.78 13C4.28221 13.5476 4.00441 14.2599 4 15ZM4 9H3C2.73478 9 2.48043 8.89464 2.29289 8.70711C2.10536 8.51957 2 8.26522 2 8V6C2 5.73478 2.10536 5.48043 2.29289 5.29289C2.48043 5.10536 2.73478 5 3 5H4C4.00441 5.74005 4.28221 6.45236 4.78 7C4.28221 7.54764 4.00441 8.25995 4 9ZM16 17C16 17.2652 15.8946 17.5196 15.7071 17.7071C15.5196 17.8946 15.2652 18 15 18H7C6.73478 18 6.48043 17.8946 6.29289 17.7071C6.10536 17.5196 6 17.2652 6 17V15C6 14.7348 6.10536 14.4804 6.29289 14.2929C6.48043 14.1054 6.73478 14 7 14H15C15.2652 14 15.5196 14.1054 15.7071 14.2929C15.8946 14.4804 16 14.7348 16 15V17ZM16 11C16 11.2652 15.8946 11.5196 15.7071 11.7071C15.5196 11.8946 15.2652 12 15 12H7C6.73478 12 6.48043 11.8946 6.29289 11.7071C6.10536 11.5196 6 11.2652 6 11V9C6 8.73478 6.10536 8.48043 6.29289 8.29289C6.48043 8.10536 6.73478 8 7 8H15C15.2652 8 15.5196 8.10536 15.7071 8.29289C15.8946 8.48043 16 8.73478 16 9V11ZM16 5C16 5.26522 15.8946 5.51957 15.7071 5.70711C15.5196 5.89464 15.2652 6 15 6H7C6.73478 6 6.48043 5.89464 6.29289 5.70711C6.10536 5.51957 6 5.26522 6 5V3C6 2.73478 6.10536 2.48043 6.29289 2.29289C6.48043 2.10536 6.73478 2 7 2H15C15.2652 2 15.5196 2.10536 15.7071 2.29289C15.8946 2.48043 16 2.73478 16 3V5ZM20 14C20 14.2652 19.8946 14.5196 19.7071 14.7071C19.5196 14.8946 19.2652 15 19 15H18C17.9956 14.2599 17.7178 13.5476 17.22 13C17.7178 12.4524 17.9956 11.7401 18 11H19C19.2652 11 19.5196 11.1054 19.7071 11.2929C19.8946 11.4804 20 11.7348 20 12V14ZM20 8C20 8.26522 19.8946 8.51957 19.7071 8.70711C19.5196 8.89464 19.2652 9 19 9H18C17.9956 8.25995 17.7178 7.54764 17.22 7C17.7178 6.45236 17.9956 5.74005 18 5H19C19.2652 5 19.5196 5.10536 19.7071 5.29289C19.8946 5.48043 20 5.73478 20 6V8ZM14 3C13.8022 3 13.6089 3.05865 13.4444 3.16853C13.28 3.27841 13.1518 3.43459 13.0761 3.61732C13.0004 3.80004 12.9806 4.00111 13.0192 4.19509C13.0578 4.38907 13.153 4.56725 13.2929 4.70711C13.4327 4.84696 13.6109 4.9422 13.8049 4.98079C13.9989 5.01937 14.2 4.99957 14.3827 4.92388C14.5654 4.84819 14.7216 4.72002 14.8315 4.55557C14.9414 4.39112 15 4.19778 15 4C15 3.73478 14.8946 3.48043 14.7071 3.29289C14.5196 3.10536 14.2652 3 14 3ZM10 3H8C7.73478 3 7.48043 3.10536 7.29289 3.29289C7.10536 3.48043 7 3.73478 7 4C7 4.26522 7.10536 4.51957 7.29289 4.70711C7.48043 4.89464 7.73478 5 8 5H10C10.2652 5 10.5196 4.89464 10.7071 4.70711C10.8946 4.51957 11 4.26522 11 4C11 3.73478 10.8946 3.48043 10.7071 3.29289C10.5196 3.10536 10.2652 3 10 3Z" fill="var(--fill-0, #1E1F26)"/>
</svg>
