<svg preserveAspectRatio="none" width="100%" height="100%" overflow="visible" style="display: block;" viewBox="0 0 20 20" fill="none" xmlns="http://www.w3.org/2000/svg">
<path id="Vector" d="M12.66 11.56L8.47001 13.06C8.2498 13.1399 8.06462 13.2945 7.94677 13.497C7.82893 13.6994 7.78589 13.9368 7.82517 14.1678C7.86446 14.3987 7.98356 14.6085 8.16172 14.7606C8.33987 14.9127 8.56577 14.9974 8.8 15C8.91596 14.9999 9.03101 14.9796 9.14001 14.94L13.34 13.44C13.467 13.3981 13.5842 13.3312 13.6849 13.2431C13.7855 13.1551 13.8675 13.0478 13.926 12.9276C13.9844 12.8073 14.0182 12.6766 14.0252 12.5431C14.0323 12.4095 14.0125 12.276 13.967 12.1502C13.9215 12.0245 13.8513 11.9092 13.7604 11.8111C13.6696 11.7129 13.56 11.634 13.4382 11.579C13.3163 11.524 13.1847 11.4939 13.051 11.4907C12.9174 11.4874 12.7844 11.511 12.66 11.56V11.56ZM8.66 8.56C8.84626 8.37264 8.9508 8.11919 8.9508 7.855C8.9508 7.59081 8.84626 7.33736 8.66 7.15C8.08773 6.60699 7.3289 6.30428 6.54 6.30428C5.75111 6.30428 4.99228 6.60699 4.42 7.15C4.31532 7.23965 4.2303 7.34996 4.17028 7.47403C4.11026 7.59809 4.07653 7.73323 4.07121 7.87095C4.06589 8.00867 4.08909 8.146 4.13937 8.27432C4.18964 8.40265 4.2659 8.5192 4.36335 8.61665C4.46081 8.71411 4.57736 8.79036 4.70568 8.84064C4.83401 8.89091 4.97134 8.91412 5.10906 8.9088C5.24678 8.90348 5.38191 8.86975 5.50597 8.80973C5.63004 8.7497 5.74036 8.66468 5.83 8.56C5.92297 8.46627 6.03357 8.39188 6.15543 8.34111C6.27729 8.29034 6.40799 8.2642 6.54 8.2642C6.67202 8.2642 6.80272 8.29034 6.92458 8.34111C7.04644 8.39188 7.15704 8.46627 7.25 8.56C7.43737 8.74625 7.69082 8.85079 7.955 8.85079C8.21919 8.85079 8.47264 8.74625 8.66 8.56ZM15.66 7.15C15.0877 6.60699 14.3289 6.30428 13.54 6.30428C12.7511 6.30428 11.9923 6.60699 11.42 7.15C11.2562 7.3413 11.1706 7.58738 11.1803 7.83905C11.19 8.09073 11.2943 8.32947 11.4724 8.50756C11.6505 8.68566 11.8893 8.78999 12.141 8.79971C12.3926 8.80943 12.6387 8.72383 12.83 8.56C12.923 8.46627 13.0336 8.39188 13.1554 8.34111C13.2773 8.29034 13.408 8.2642 13.54 8.2642C13.672 8.2642 13.8027 8.29034 13.9246 8.34111C14.0464 8.39188 14.157 8.46627 14.25 8.56C14.4374 8.74625 14.6908 8.85079 14.955 8.85079C15.2192 8.85079 15.4726 8.74625 15.66 8.56C15.7527 8.46423 15.8253 8.3509 15.8736 8.22667C15.9218 8.10243 15.9448 7.96981 15.941 7.83658C15.9373 7.70335 15.907 7.57222 15.8519 7.45087C15.7967 7.32953 15.7179 7.22044 15.62 7.13L15.66 7.15ZM10 0C8.02219 0 6.08879 0.58649 4.4443 1.6853C2.79981 2.78412 1.51809 4.3459 0.761209 6.17317C0.00433283 8.00043 -0.193701 10.0111 0.192152 11.9509C0.578004 13.8907 1.53041 15.6725 2.92894 17.0711C4.32746 18.4696 6.10929 19.422 8.0491 19.8079C9.98891 20.1937 11.9996 19.9957 13.8268 19.2388C15.6541 18.4819 17.2159 17.2002 18.3147 15.5557C19.4135 13.9112 20 11.9778 20 10C20 8.68678 19.7413 7.38642 19.2388 6.17317C18.7363 4.95991 17.9997 3.85752 17.0711 2.92893C16.1425 2.00035 15.0401 1.26375 13.8268 0.761205C12.6136 0.258658 11.3132 0 10 0V0ZM10 18C8.41775 18 6.87104 17.5308 5.55544 16.6518C4.23985 15.7727 3.21447 14.5233 2.60897 13.0615C2.00347 11.5997 1.84504 9.99113 2.15372 8.43928C2.4624 6.88743 3.22433 5.46197 4.34315 4.34315C5.46197 3.22433 6.88743 2.4624 8.43928 2.15372C9.99113 1.84504 11.5997 2.00346 13.0615 2.60896C14.5233 3.21447 15.7727 4.23984 16.6518 5.55544C17.5308 6.87103 18 8.41775 18 10C18 12.1217 17.1572 14.1566 15.6569 15.6569C14.1566 17.1571 12.1217 18 10 18V18Z" fill="var(--fill-0, #1E1F26)"/>
</svg>
