<svg preserveAspectRatio="none" width="100%" height="100%" overflow="visible" style="display: block;" viewBox="0 0 18 17.9123" fill="none" xmlns="http://www.w3.org/2000/svg">
<path id="Vector" d="M8 15.9123H5C4.73478 15.9123 4.48043 16.0176 4.29289 16.2052C4.10536 16.3927 4 16.6471 4 16.9123C4 17.1775 4.10536 17.4319 4.29289 17.6194C4.48043 17.8069 4.73478 17.9123 5 17.9123H8C8.26522 17.9123 8.51957 17.8069 8.70711 17.6194C8.89464 17.4319 9 17.1775 9 16.9123C9 16.6471 8.89464 16.3927 8.70711 16.2052C8.51957 16.0176 8.26522 15.9123 8 15.9123ZM17 11.9123H15.84C16.4153 11.014 16.8094 10.0119 17 8.96229C17.0289 8.79109 17.0128 8.61532 16.9532 8.45225C16.8936 8.28918 16.7925 8.14445 16.66 8.03229C16.5256 7.91399 16.3619 7.83395 16.186 7.80053C16.0101 7.76711 15.8284 7.78153 15.66 7.84229C15.0417 8.05275 14.3932 8.16084 13.74 8.16229C12.1431 8.16237 10.6108 7.53215 9.47601 6.40862C8.34125 5.28509 7.69581 3.75908 7.68 2.16229C7.68909 1.82697 7.72251 1.49276 7.78 1.16229C7.80595 0.991774 7.78736 0.817447 7.72603 0.656242C7.66471 0.495036 7.56273 0.352434 7.43 0.242287C7.2946 0.125675 7.13043 0.0474728 6.95457 0.0158169C6.7787 -0.015839 6.59756 0.000207655 6.43 0.0622876C4.85902 0.604471 3.49405 1.61902 2.522 2.967C1.54995 4.31498 1.01835 5.93048 1 7.59229C1.00099 9.12418 1.44179 10.6236 2.27 11.9123H1C0.734784 11.9123 0.48043 12.0176 0.292893 12.2052C0.105357 12.3927 0 12.6471 0 12.9123C0 13.1775 0.105357 13.4319 0.292893 13.6194C0.48043 13.8069 0.734784 13.9123 1 13.9123H17C17.2652 13.9123 17.5196 13.8069 17.7071 13.6194C17.8946 13.4319 18 13.1775 18 12.9123C18 12.6471 17.8946 12.3927 17.7071 12.2052C17.5196 12.0176 17.2652 11.9123 17 11.9123ZM13.28 11.9123H4.83C4.17747 11.2867 3.67474 10.5217 3.35938 9.67445C3.04401 8.82724 2.92416 7.91972 3.00878 7.01969C3.0934 6.11966 3.3803 5.25039 3.84804 4.4768C4.31579 3.70322 4.95229 3.04533 5.71 2.55229C5.82502 4.60926 6.72335 6.54411 8.22047 7.95939C9.71758 9.37467 11.6998 10.1629 13.76 10.1623C14.0231 10.1772 14.2869 10.1772 14.55 10.1623C14.2346 10.8168 13.8045 11.4095 13.28 11.9123V11.9123ZM13 15.9123H12C11.7348 15.9123 11.4804 16.0176 11.2929 16.2052C11.1054 16.3927 11 16.6471 11 16.9123C11 17.1775 11.1054 17.4319 11.2929 17.6194C11.4804 17.8069 11.7348 17.9123 12 17.9123H13C13.2652 17.9123 13.5196 17.8069 13.7071 17.6194C13.8946 17.4319 14 17.1775 14 16.9123C14 16.6471 13.8946 16.3927 13.7071 16.2052C13.5196 16.0176 13.2652 15.9123 13 15.9123Z" fill="var(--fill-0, #1E1F26)"/>
</svg>
