<svg preserveAspectRatio="none" width="100%" height="100%" overflow="visible" style="display: block;" viewBox="0 0 20 20.0003" fill="none" xmlns="http://www.w3.org/2000/svg">
<path id="Vector" d="M20 12.8603V12.8103C19.9879 12.6172 19.9544 12.426 19.9 12.2403L18.26 2.51027C18.1428 1.80223 17.7757 1.15964 17.2253 0.699113C16.6749 0.238588 15.9776 -0.00935682 15.26 0.000270157H4.69C3.98097 0.00256635 3.29566 0.25592 2.75565 0.715392C2.21563 1.17486 1.85581 1.81075 1.74 2.51027L0.12 12.2203C0.0656405 12.406 0.0321011 12.5972 0.02 12.7903V12.8403C-1.86265e-08 12.9103 0 13.0003 0 13.0003V17.0003C0 17.7959 0.316071 18.559 0.87868 19.1216C1.44129 19.6842 2.20435 20.0003 3 20.0003H17C17.7956 20.0003 18.5587 19.6842 19.1213 19.1216C19.6839 18.559 20 17.7959 20 17.0003V13.0003C20 13.0003 20 12.9103 20 12.8603ZM3.71 2.83027C3.75048 2.59548 3.87346 2.38285 4.05679 2.23068C4.24013 2.07852 4.47177 1.99681 4.71 2.00027H15.31C15.5482 1.99681 15.7799 2.07852 15.9632 2.23068C16.1465 2.38285 16.2695 2.59548 16.31 2.83027L17.51 10.0503C17.342 10.017 17.1712 10.0003 17 10.0003H3C2.83546 10.0016 2.67141 10.0183 2.51 10.0503L3.71 2.83027ZM18 17.0003C18 17.2655 17.8946 17.5198 17.7071 17.7074C17.5196 17.8949 17.2652 18.0003 17 18.0003H3C2.73478 18.0003 2.48043 17.8949 2.29289 17.7074C2.10536 17.5198 2 17.2655 2 17.0003V13.0803L2.08 12.6203C2.15502 12.4377 2.28242 12.2813 2.44614 12.171C2.60986 12.0607 2.80257 12.0013 3 12.0003H17C17.1974 12.0013 17.3901 12.0607 17.5539 12.171C17.7176 12.2813 17.845 12.4377 17.92 12.6203L18 13.0803V17.0003ZM15 14.0003C14.8022 14.0003 14.6089 14.0589 14.4444 14.1688C14.28 14.2787 14.1518 14.4349 14.0761 14.6176C14.0004 14.8003 13.9806 15.0014 14.0192 15.1954C14.0578 15.3893 14.153 15.5675 14.2929 15.7074C14.4327 15.8472 14.6109 15.9425 14.8049 15.9811C14.9989 16.0196 15.2 15.9998 15.3827 15.9241C15.5654 15.8485 15.7216 15.7203 15.8315 15.5558C15.9414 15.3914 16 15.1981 16 15.0003C16 14.7351 15.8946 14.4807 15.7071 14.2932C15.5196 14.1056 15.2652 14.0003 15 14.0003Z" fill="var(--fill-0, #1E1F26)"/>
</svg>
