<svg preserveAspectRatio="none" width="100%" height="100%" overflow="visible" style="display: block;" viewBox="0 0 20 20" fill="none" xmlns="http://www.w3.org/2000/svg">
<path id="Vector" d="M6.00049 5.99971C5.80271 5.99971 5.60937 6.05836 5.44492 6.16824C5.28047 6.27812 5.1523 6.4343 5.07661 6.61703C5.00093 6.79975 4.98112 7.00082 5.01971 7.1948C5.05829 7.38878 5.15353 7.56696 5.29339 7.70682C5.43324 7.84667 5.61142 7.94191 5.8054 7.9805C5.99939 8.01908 6.20045 7.99928 6.38318 7.92359C6.5659 7.8479 6.72208 7.71973 6.83196 7.55528C6.94185 7.39083 7.00049 7.19749 7.00049 6.99971C7.00049 6.73449 6.89514 6.48014 6.7076 6.2926C6.52006 6.10507 6.26571 5.99971 6.00049 5.99971V5.99971ZM10 0C8.02219 0 6.08879 0.58649 4.4443 1.6853C2.79981 2.78412 1.51809 4.34591 0.761209 6.17317C0.00433283 8.00043 -0.193701 10.0111 0.192152 11.9509C0.578004 13.8907 1.53041 15.6725 2.92894 17.0711C4.32746 18.4696 6.10929 19.422 8.0491 19.8079C9.98891 20.1937 11.9996 19.9957 13.8268 19.2388C15.6541 18.4819 17.2159 17.2002 18.3147 15.5557C19.4135 13.9112 20 11.9778 20 10C19.9969 7.34879 18.9423 4.80706 17.0676 2.93237C15.1929 1.05768 12.6512 0.00311498 10 0V0ZM10 18C8.41775 18 6.87104 17.5308 5.55544 16.6518C4.23985 15.7727 3.21447 14.5233 2.60897 13.0615C2.00347 11.5997 1.84504 9.99113 2.15372 8.43928C2.4624 6.88743 3.22433 5.46197 4.34315 4.34315C5.46197 3.22433 6.88743 2.4624 8.43928 2.15372C9.99113 1.84504 11.5997 2.00346 13.0615 2.60896C14.5233 3.21446 15.7727 4.23984 16.6518 5.55544C17.5308 6.87103 18 8.41775 18 10C17.9976 12.121 17.1539 14.1544 15.6542 15.6542C14.1544 17.1539 12.121 17.9976 10 18V18ZM9.00049 7.99971C8.80271 7.99971 8.60937 8.05836 8.44492 8.16824C8.28048 8.27812 8.1523 8.4343 8.07662 8.61703C8.00093 8.79975 7.98112 9.00082 8.01971 9.1948C8.05829 9.38878 8.15354 9.56696 8.29339 9.70682C8.43324 9.84667 8.61142 9.94191 8.8054 9.9805C8.99939 10.0191 9.20045 9.99928 9.38318 9.92359C9.5659 9.8479 9.72208 9.71973 9.83196 9.55528C9.94185 9.39083 10.0005 9.19749 10.0005 8.99971C10.0005 8.73449 9.89514 8.48014 9.7076 8.2926C9.52007 8.10507 9.26571 7.99971 9.00049 7.99971ZM9.00049 3.99971C8.80271 3.99971 8.60937 4.05836 8.44492 4.16824C8.28048 4.27812 8.1523 4.4343 8.07662 4.61703C8.00093 4.79975 7.98112 5.00082 8.01971 5.1948C8.05829 5.38878 8.15354 5.56696 8.29339 5.70682C8.43324 5.84667 8.61142 5.94191 8.8054 5.9805C8.99939 6.01908 9.20045 5.99928 9.38318 5.92359C9.5659 5.8479 9.72208 5.71973 9.83196 5.55528C9.94185 5.39083 10.0005 5.19749 10.0005 4.99971C10.0005 4.73449 9.89514 4.48014 9.7076 4.2926C9.52007 4.10507 9.26571 3.99971 9.00049 3.99971Z" fill="var(--fill-0, #1E1F26)"/>
</svg>
