<svg preserveAspectRatio="none" width="100%" height="100%" overflow="visible" style="display: block;" viewBox="0 0 15 20.0879" fill="none" xmlns="http://www.w3.org/2000/svg">
<path id="Vector" d="M14.39 9.67C14.394 9.63679 14.394 9.60321 14.39 9.57C13.6447 7.79159 12.2346 6.37434 10.46 5.62V2H11.46C11.7252 2 11.9796 1.89464 12.1671 1.70711C12.3546 1.51957 12.46 1.26522 12.46 1C12.46 0.734784 12.3546 0.48043 12.1671 0.292893C11.9796 0.105357 11.7252 0 11.46 0H3.46C3.19479 0 2.94043 0.105357 2.7529 0.292893C2.56536 0.48043 2.46 0.734784 2.46 1C2.46 1.26522 2.56536 1.51957 2.7529 1.70711C2.94043 1.89464 3.19479 2 3.46 2H4.46V5.62C2.69108 6.39469 1.29507 7.83017 0.570002 9.62C0.56602 9.65321 0.56602 9.68679 0.570002 9.72C0.0984424 10.8595 -0.0848726 12.0976 0.0362902 13.3248C0.157453 14.5521 0.579355 15.7305 1.26464 16.7557C1.94992 17.7809 2.87743 18.6214 3.96505 19.2026C5.05266 19.7839 6.26682 20.0879 7.5 20.0879C8.73318 20.0879 9.94734 19.7839 11.035 19.2026C12.1226 18.6214 13.0501 17.7809 13.7354 16.7557C14.4206 15.7305 14.8426 14.5521 14.9637 13.3248C15.0849 12.0976 14.9016 10.8595 14.43 9.72L14.39 9.67ZM5.77 7.26C5.97049 7.19463 6.14518 7.06755 6.26911 6.89693C6.39303 6.72631 6.45985 6.52088 6.46 6.31V2H8.46V6.31C8.46016 6.52088 8.52697 6.72631 8.6509 6.89693C8.77482 7.06755 8.94951 7.19463 9.15 7.26C10.1468 7.58279 11.0289 8.18709 11.69 9H3.23C3.89106 8.18709 4.77319 7.58279 5.77 7.26V7.26ZM7.46 18C6.00212 17.9974 4.60471 17.417 3.57383 16.3862C2.54296 15.3553 1.96265 13.9579 1.96 12.5C1.96163 11.9921 2.0357 11.487 2.18 11H12.74C12.8843 11.487 12.9584 11.9921 12.96 12.5C12.9574 13.9579 12.377 15.3553 11.3462 16.3862C10.3153 17.417 8.91788 17.9974 7.46 18V18ZM9.46 14C9.26222 14 9.06888 14.0586 8.90443 14.1685C8.73998 14.2784 8.61181 14.4346 8.53612 14.6173C8.46043 14.8 8.44063 15.0011 8.47922 15.1951C8.5178 15.3891 8.61304 15.5673 8.7529 15.7071C8.89275 15.847 9.07093 15.9422 9.26491 15.9808C9.45889 16.0194 9.65996 15.9996 9.84269 15.9239C10.0254 15.8482 10.1816 15.72 10.2915 15.5556C10.4014 15.3911 10.46 15.1978 10.46 15C10.46 14.7348 10.3546 14.4804 10.1671 14.2929C9.97957 14.1054 9.72522 14 9.46 14ZM5.46 13C5.26222 13 5.06888 13.0586 4.90443 13.1685C4.73998 13.2784 4.61181 13.4346 4.53612 13.6173C4.46043 13.8 4.44063 14.0011 4.47922 14.1951C4.5178 14.3891 4.61304 14.5673 4.7529 14.7071C4.89275 14.847 5.07093 14.9422 5.26491 14.9808C5.45889 15.0194 5.65996 14.9996 5.84269 14.9239C6.02541 14.8482 6.18159 14.72 6.29147 14.5556C6.40135 14.3911 6.46 14.1978 6.46 14C6.46 13.7348 6.35464 13.4804 6.16711 13.2929C5.97957 13.1054 5.72522 13 5.46 13Z" fill="var(--fill-0, #1E1F26)"/>
</svg>
