<svg preserveAspectRatio="none" width="100%" height="100%" overflow="visible" style="display: block;" viewBox="0 0 20 20" fill="none" xmlns="http://www.w3.org/2000/svg">
<path id="Vector" d="M7 9C7.19779 9 7.39113 8.94135 7.55557 8.83147C7.72002 8.72159 7.8482 8.56541 7.92388 8.38268C7.99957 8.19996 8.01937 7.99889 7.98079 7.80491C7.9422 7.61093 7.84696 7.43275 7.70711 7.29289C7.56726 7.15304 7.38908 7.0578 7.19509 7.01921C7.00111 6.98063 6.80005 7.00043 6.61732 7.07612C6.43459 7.15181 6.27842 7.27998 6.16853 7.44443C6.05865 7.60888 6 7.80222 6 8C6 8.26522 6.10536 8.51957 6.2929 8.70711C6.48043 8.89464 6.73479 9 7 9ZM13 9C13.1978 9 13.3911 8.94135 13.5556 8.83147C13.72 8.72159 13.8482 8.56541 13.9239 8.38268C13.9996 8.19996 14.0194 7.99889 13.9808 7.80491C13.9422 7.61093 13.847 7.43275 13.7071 7.29289C13.5673 7.15304 13.3891 7.0578 13.1951 7.01921C13.0011 6.98063 12.8 7.00043 12.6173 7.07612C12.4346 7.15181 12.2784 7.27998 12.1685 7.44443C12.0587 7.60888 12 7.80222 12 8C12 8.26522 12.1054 8.51957 12.2929 8.70711C12.4804 8.89464 12.7348 9 13 9ZM13.27 12.2C13.0969 12.0702 12.8864 12 12.67 12C12.4536 12 12.2431 12.0702 12.07 12.2L11.33 12.75L10.6 12.2C10.4269 12.0702 10.2164 12 10 12C9.78363 12 9.5731 12.0702 9.4 12.2L8.67 12.75L7.93 12.2C7.75691 12.0702 7.54637 12 7.33 12C7.11363 12 6.9031 12.0702 6.73 12.2L5.4 13.2C5.29495 13.2788 5.20644 13.3775 5.13953 13.4905C5.07262 13.6035 5.02863 13.7286 5.01005 13.8586C4.97255 14.1211 5.04087 14.3878 5.2 14.6C5.35913 14.8122 5.59603 14.9524 5.85858 14.99C6.12113 15.0275 6.38783 14.9591 6.6 14.8L7.33 14.25L8.07 14.8L8.19 14.86C8.25919 14.8969 8.33326 14.9239 8.41 14.94H8.53C8.61301 14.9505 8.697 14.9505 8.78 14.94H8.88C9.00196 14.9073 9.1171 14.8532 9.22001 14.78L9.95 14.23L10.68 14.78C10.8221 14.8851 10.9895 14.9506 11.1652 14.9699C11.3408 14.9892 11.5185 14.9617 11.68 14.89L11.78 14.84C11.8197 14.8261 11.8568 14.8058 11.89 14.78L12.63 14.23L13.36 14.78C13.5331 14.9098 13.7436 14.98 13.96 14.98C14.1152 14.98 14.2684 14.9439 14.4072 14.8744C14.5461 14.805 14.6669 14.7042 14.76 14.58C14.9191 14.3678 14.9875 14.1011 14.95 13.8386C14.9124 13.576 14.7722 13.3391 14.56 13.18L13.27 12.2ZM10 0C8.02219 0 6.08879 0.58649 4.4443 1.6853C2.79981 2.78412 1.51809 4.3459 0.761209 6.17317C0.00433283 8.00043 -0.193701 10.0111 0.192152 11.9509C0.578004 13.8907 1.53041 15.6725 2.92894 17.0711C4.32746 18.4696 6.10929 19.422 8.0491 19.8079C9.98891 20.1937 11.9996 19.9957 13.8268 19.2388C15.6541 18.4819 17.2159 17.2002 18.3147 15.5557C19.4135 13.9112 20 11.9778 20 10C20 8.68678 19.7413 7.38642 19.2388 6.17317C18.7363 4.95991 17.9997 3.85752 17.0711 2.92893C16.1425 2.00035 15.0401 1.26375 13.8268 0.761205C12.6136 0.258658 11.3132 0 10 0V0ZM10 18C8.41775 18 6.87104 17.5308 5.55544 16.6518C4.23985 15.7727 3.21447 14.5233 2.60897 13.0615C2.00347 11.5997 1.84504 9.99113 2.15372 8.43928C2.4624 6.88743 3.22433 5.46197 4.34315 4.34315C5.46197 3.22433 6.88743 2.4624 8.43928 2.15372C9.99113 1.84504 11.5997 2.00346 13.0615 2.60896C14.5233 3.21447 15.7727 4.23984 16.6518 5.55544C17.5308 6.87103 18 8.41775 18 10C18 12.1217 17.1572 14.1566 15.6569 15.6569C14.1566 17.1571 12.1217 18 10 18V18Z" fill="var(--fill-0, #1E1F26)"/>
</svg>
