<svg preserveAspectRatio="none" width="100%" height="100%" overflow="visible" style="display: block;" viewBox="0 0 17.0019 20.1281" fill="none" xmlns="http://www.w3.org/2000/svg">
<path id="Vector" d="M10.5015 7.51233H9.50154V6.51233C9.50154 6.24712 9.39619 5.99276 9.20865 5.80523C9.02111 5.61769 8.76676 5.51233 8.50154 5.51233C8.23633 5.51233 7.98197 5.61769 7.79444 5.80523C7.6069 5.99276 7.50154 6.24712 7.50154 6.51233V7.51233H6.50154C6.23633 7.51233 5.98197 7.61769 5.79444 7.80523C5.6069 7.99276 5.50154 8.24712 5.50154 8.51233C5.50154 8.77755 5.6069 9.0319 5.79444 9.21944C5.98197 9.40698 6.23633 9.51233 6.50154 9.51233H7.50154V10.5123C7.50154 10.7775 7.6069 11.0319 7.79444 11.2194C7.98197 11.407 8.23633 11.5123 8.50154 11.5123C8.76676 11.5123 9.02111 11.407 9.20865 11.2194C9.39619 11.0319 9.50154 10.7775 9.50154 10.5123V9.51233H10.5015C10.7668 9.51233 11.0211 9.40698 11.2086 9.21944C11.3962 9.0319 11.5015 8.77755 11.5015 8.51233C11.5015 8.24712 11.3962 7.99276 11.2086 7.80523C11.0211 7.61769 10.7668 7.51233 10.5015 7.51233ZM16.9615 7.69233C16.8319 6.33416 16.3772 5.02716 15.636 3.88176C14.8947 2.73636 13.8886 1.78623 12.7027 1.11166C11.5168 0.437083 10.1859 0.0578903 8.82252 0.00612184C7.45916 -0.0456466 6.10337 0.23153 4.86972 0.814229C3.63607 1.39693 2.56081 2.26803 1.73481 3.35391C0.908808 4.4398 0.356333 5.70857 0.124073 7.05299C-0.108188 8.39742 -0.0134082 9.77801 0.400402 11.0781C0.814212 12.3782 1.53489 13.5595 2.50154 14.5223L7.80154 19.8323C7.8945 19.9261 8.00511 20.0005 8.12697 20.0512C8.24882 20.102 8.37953 20.1281 8.51154 20.1281C8.64355 20.1281 8.77426 20.102 8.89612 20.0512C9.01798 20.0005 9.12858 19.9261 9.22154 19.8323L14.5015 14.5223C15.3927 13.6378 16.0759 12.566 16.5014 11.3846C16.9269 10.2032 17.0841 8.94199 16.9615 7.69233V7.69233ZM13.1015 13.1123L8.50154 17.7123L3.90154 13.1123C3.22363 12.4344 2.70434 11.6147 2.38101 10.7121C2.05768 9.80952 1.93833 8.84653 2.03154 7.89233C2.12536 6.92344 2.43331 5.98749 2.93311 5.15218C3.43292 4.31686 4.1121 3.60304 4.92154 3.06233C5.98249 2.35757 7.22785 1.98163 8.50154 1.98163C9.77524 1.98163 11.0206 2.35757 12.0815 3.06233C12.8885 3.60095 13.5662 4.31161 14.0659 5.14327C14.5656 5.97493 14.8749 6.90693 14.9715 7.87233C15.0678 8.82976 14.9499 9.79661 14.6265 10.7029C14.3031 11.6092 13.7822 12.4322 13.1015 13.1123V13.1123Z" fill="var(--fill-0, #1E1F26)"/>
</svg>
