<svg preserveAspectRatio="none" width="100%" height="100%" overflow="visible" style="display: block;" viewBox="0 0 19.9911 20" fill="none" xmlns="http://www.w3.org/2000/svg">
<path id="Vector" d="M16.9911 3.99999H12.9911C12.7259 3.99999 12.4715 4.10535 12.284 4.29289C12.0964 4.48042 11.9911 4.73478 11.9911 4.99999C11.9911 5.26521 12.0964 5.51956 12.284 5.7071C12.4715 5.89464 12.7259 5.99999 12.9911 5.99999H16.9911C17.2563 5.99999 17.5106 6.10535 17.6982 6.29289C17.8857 6.48042 17.9911 6.73478 17.9911 6.99999V16.72L16.4211 15.27C16.2367 15.0973 15.9937 15.0009 15.7411 15H6.99108C6.72586 15 6.47151 14.8946 6.28397 14.7071C6.09643 14.5196 5.99108 14.2652 5.99108 14V13C5.99108 12.7348 5.88572 12.4804 5.69818 12.2929C5.51065 12.1054 5.25629 12 4.99108 12C4.72586 12 4.47151 12.1054 4.28397 12.2929C4.09643 12.4804 3.99108 12.7348 3.99108 13V14C3.99108 14.7956 4.30715 15.5587 4.86976 16.1213C5.43237 16.6839 6.19543 17 6.99108 17H15.3511L18.3511 19.73C18.5253 19.8936 18.7523 19.9894 18.9911 20C19.1282 19.9985 19.2639 19.9714 19.3911 19.92C19.57 19.8419 19.7221 19.7132 19.8287 19.5497C19.9353 19.3863 19.9918 19.1952 19.9911 19V6.99999C19.9911 6.20434 19.675 5.44128 19.1124 4.87867C18.5498 4.31606 17.7867 3.99999 16.9911 3.99999ZM8.53108 8.53999C9.34999 7.72314 9.86038 6.64763 9.97528 5.49669C10.0902 4.34575 9.80249 3.19057 9.16122 2.22794C8.51995 1.26532 7.56477 0.554797 6.45841 0.217421C5.35204 -0.119954 4.16292 -0.063314 3.09363 0.377693C2.02434 0.8187 1.14102 1.61679 0.594153 2.63601C0.0472851 3.65523 -0.129302 4.83253 0.094474 5.96734C0.31825 7.10215 0.928547 8.12427 1.8214 8.85959C2.71425 9.59491 3.83442 9.99793 4.99108 9.99999C5.64813 10.0012 6.29897 9.87283 6.90638 9.62231C7.5138 9.37179 8.06589 9.00401 8.53108 8.53999V8.53999ZM1.99108 4.99999C1.99108 4.20434 2.30715 3.44128 2.86976 2.87867C3.43237 2.31606 4.19543 1.99999 4.99108 1.99999C5.43468 2.00412 5.87184 2.10658 6.27108 2.29999L2.27108 6.29999C2.08167 5.89306 1.98598 5.44882 1.99108 4.99999V4.99999ZM7.69108 3.70999C7.88593 4.11227 7.98843 4.55301 7.99108 4.99999C7.98886 5.50444 7.85947 6.00018 7.61488 6.44137C7.37029 6.88256 7.0184 7.25494 6.59175 7.52409C6.1651 7.79324 5.67747 7.95046 5.17395 7.9812C4.67044 8.01195 4.16731 7.91523 3.71108 7.69999L7.69108 3.70999Z" fill="var(--fill-0, #1E1F26)"/>
</svg>
