<svg preserveAspectRatio="none" width="100%" height="100%" overflow="visible" style="display: block;" viewBox="0 0 20 20.0058" fill="none" xmlns="http://www.w3.org/2000/svg">
<path id="Vector" d="M9.29 15.3L8 16.59V5C8 4.73478 7.89464 4.48043 7.70711 4.29289C7.51957 4.10536 7.26522 4 7 4C6.73478 4 6.48043 4.10536 6.29289 4.29289C6.10536 4.48043 6 4.73478 6 5V16.6L4.71 15.3C4.61704 15.2063 4.50644 15.1319 4.38458 15.0811C4.26272 15.0303 4.13201 15.0042 4 15.0042C3.86799 15.0042 3.73728 15.0303 3.61542 15.0811C3.49356 15.1319 3.38296 15.2063 3.29 15.3C3.10375 15.4874 2.99921 15.7408 2.99921 16.005C2.99921 16.2692 3.10375 16.5226 3.29 16.71L6.29 19.71C6.38296 19.8037 6.49356 19.8781 6.61542 19.9289C6.73728 19.9797 6.86799 20.0058 7 20.0058C7.13201 20.0058 7.26272 19.9797 7.38458 19.9289C7.50644 19.8781 7.61704 19.8037 7.71 19.71L10.71 16.71C10.8963 16.5226 11.0008 16.2692 11.0008 16.005C11.0008 15.7408 10.8963 15.4874 10.71 15.3C10.617 15.2063 10.5064 15.1319 10.3846 15.0811C10.2627 15.0303 10.132 15.0042 10 15.0042C9.86799 15.0042 9.73728 15.0303 9.61542 15.0811C9.49356 15.1319 9.38296 15.2063 9.29 15.3ZM20 1C20 0.734784 19.8946 0.48043 19.7071 0.292893C19.5196 0.105357 19.2652 0 19 0H1C0.734784 0 0.48043 0.105357 0.292893 0.292893C0.105357 0.48043 0 0.734784 0 1V7C0 7.26522 0.105357 7.51957 0.292893 7.70711C0.48043 7.89464 0.734784 8 1 8H3C3.26522 8 3.51957 7.89464 3.70711 7.70711C3.89464 7.51957 4 7.26522 4 7C4 6.73478 3.89464 6.48043 3.70711 6.29289C3.51957 6.10536 3.26522 6 3 6H2V2H18V6H11C10.7348 6 10.4804 6.10536 10.2929 6.29289C10.1054 6.48043 10 6.73478 10 7C10 7.26522 10.1054 7.51957 10.2929 7.70711C10.4804 7.89464 10.7348 8 11 8H12V13C12 13.2652 12.1054 13.5196 12.2929 13.7071C12.4804 13.8946 12.7348 14 13 14H19C19.2652 14 19.5196 13.8946 19.7071 13.7071C19.8946 13.5196 20 13.2652 20 13V7V1ZM18 12H14V8H18V12Z" fill="var(--fill-0, #1E1F26)"/>
</svg>
