<svg preserveAspectRatio="none" width="100%" height="100%" overflow="visible" style="display: block;" viewBox="0 0 22 18" fill="none" xmlns="http://www.w3.org/2000/svg">
<path id="Vector" d="M9.5 6.5H8.5V5.5C8.5 5.23478 8.39464 4.98043 8.20711 4.79289C8.01957 4.60536 7.76522 4.5 7.5 4.5C7.23478 4.5 6.98043 4.60536 6.79289 4.79289C6.60536 4.98043 6.5 5.23478 6.5 5.5V6.5H5.5C5.23478 6.5 4.98043 6.60536 4.79289 6.79289C4.60536 6.98043 4.5 7.23478 4.5 7.5C4.5 7.76522 4.60536 8.01957 4.79289 8.20711C4.98043 8.39464 5.23478 8.5 5.5 8.5H6.5V9.5C6.5 9.76522 6.60536 10.0196 6.79289 10.2071C6.98043 10.3946 7.23478 10.5 7.5 10.5C7.76522 10.5 8.01957 10.3946 8.20711 10.2071C8.39464 10.0196 8.5 9.76522 8.5 9.5V8.5H9.5C9.76522 8.5 10.0196 8.39464 10.2071 8.20711C10.3946 8.01957 10.5 7.76522 10.5 7.5C10.5 7.23478 10.3946 6.98043 10.2071 6.79289C10.0196 6.60536 9.76522 6.5 9.5 6.5ZM21.93 8.65L21.87 8.54C21.8528 8.49052 21.8292 8.44347 21.8 8.4L19.4 5.2C19.1206 4.82741 18.7582 4.525 18.3416 4.31672C17.9251 4.10844 17.4657 4 17 4H15V3C15 2.20435 14.6839 1.44129 14.1213 0.87868C13.5587 0.316071 12.7956 0 12 0H3C2.20435 0 1.44129 0.316071 0.87868 0.87868C0.31607 1.44129 0 2.20435 0 3V14C0 14.2652 0.105357 14.5196 0.292893 14.7071C0.48043 14.8946 0.734784 15 1 15H2C2 15.7956 2.31607 16.5587 2.87868 17.1213C3.44129 17.6839 4.20435 18 5 18C5.79565 18 6.55871 17.6839 7.12132 17.1213C7.68393 16.5587 8 15.7956 8 15H14C14 15.7956 14.3161 16.5587 14.8787 17.1213C15.4413 17.6839 16.2044 18 17 18C17.7956 18 18.5587 17.6839 19.1213 17.1213C19.6839 16.5587 20 15.7956 20 15H21C21.2652 15 21.5196 14.8946 21.7071 14.7071C21.8946 14.5196 22 14.2652 22 14V9C21.9978 8.88008 21.9741 8.76152 21.93 8.65V8.65ZM5 16C4.80222 16 4.60888 15.9414 4.44443 15.8315C4.27998 15.7216 4.15181 15.5654 4.07612 15.3827C4.00043 15.2 3.98063 14.9989 4.01921 14.8049C4.0578 14.6109 4.15304 14.4327 4.29289 14.2929C4.43275 14.153 4.61093 14.0578 4.80491 14.0192C4.99889 13.9806 5.19996 14.0004 5.38268 14.0761C5.56541 14.1518 5.72159 14.28 5.83147 14.4444C5.94135 14.6089 6 14.8022 6 15C6 15.2652 5.89464 15.5196 5.70711 15.7071C5.51957 15.8946 5.26522 16 5 16ZM13 13H7.22C6.93882 12.6906 6.59609 12.4435 6.21378 12.2743C5.83148 12.1052 5.41805 12.0178 5 12.0178C4.58195 12.0178 4.16852 12.1052 3.78622 12.2743C3.40391 12.4435 3.06118 12.6906 2.78 13H2V3C2 2.73478 2.10536 2.48043 2.29289 2.29289C2.48043 2.10536 2.73478 2 3 2H12C12.2652 2 12.5196 2.10536 12.7071 2.29289C12.8946 2.48043 13 2.73478 13 3V13ZM15 6H17C17.1552 6 17.3084 6.03614 17.4472 6.10557C17.5861 6.175 17.7069 6.2758 17.8 6.4L19 8H15V6ZM17 16C16.8022 16 16.6089 15.9414 16.4444 15.8315C16.28 15.7216 16.1518 15.5654 16.0761 15.3827C16.0004 15.2 15.9806 14.9989 16.0192 14.8049C16.0578 14.6109 16.153 14.4327 16.2929 14.2929C16.4327 14.153 16.6109 14.0578 16.8049 14.0192C16.9989 13.9806 17.2 14.0004 17.3827 14.0761C17.5654 14.1518 17.7216 14.28 17.8315 14.4444C17.9414 14.6089 18 14.8022 18 15C18 15.2652 17.8946 15.5196 17.7071 15.7071C17.5196 15.8946 17.2652 16 17 16ZM20 13H19.22C18.6879 12.414 17.9457 12.0621 17.1553 12.0209C16.3649 11.9797 15.5902 12.2526 15 12.78V10H20V13Z" fill="var(--fill-0, #1E1F26)"/>
</svg>
