<svg preserveAspectRatio="none" width="100%" height="100%" overflow="visible" style="display: block;" viewBox="0 0 22 22" fill="none" xmlns="http://www.w3.org/2000/svg">
<path id="Vector" d="M11 0C8.82441 0 6.69767 0.645139 4.88873 1.85383C3.07979 3.06253 1.66989 4.78049 0.83733 6.79048C0.00476616 8.80047 -0.213071 11.0122 0.211367 13.146C0.635804 15.2798 1.68345 17.2398 3.22183 18.7782C4.76021 20.3166 6.72022 21.3642 8.85401 21.7886C10.9878 22.2131 13.1995 21.9952 15.2095 21.1627C17.2195 20.3301 18.9375 18.9202 20.1462 17.1113C21.3549 15.3023 22 13.1756 22 11C22 8.08262 20.8411 5.28473 18.7782 3.22183C16.7153 1.15893 13.9174 0 11 0V0ZM11 20C9.21997 20 7.47992 19.4722 5.99987 18.4832C4.51983 17.4943 3.36628 16.0887 2.68509 14.4442C2.0039 12.7996 1.82567 10.99 2.17294 9.24419C2.5202 7.49836 3.37737 5.89471 4.63604 4.63604C5.89472 3.37737 7.49836 2.5202 9.24419 2.17293C10.99 1.82567 12.7996 2.0039 14.4442 2.68508C16.0887 3.36627 17.4943 4.51983 18.4832 5.99987C19.4722 7.47991 20 9.21997 20 11C20 13.3869 19.0518 15.6761 17.364 17.364C15.6761 19.0518 13.387 20 11 20V20ZM13.83 5.45L11 9.7L8.17 5.45C8.09736 5.34007 8.0037 5.24559 7.89441 5.17198C7.78513 5.09836 7.66238 5.04707 7.53321 5.02105C7.40404 4.99503 7.271 4.9948 7.14174 5.02036C7.01248 5.04592 6.88955 5.09677 6.78 5.17C6.56079 5.31662 6.40838 5.5439 6.35593 5.80236C6.30349 6.06082 6.35527 6.32954 6.5 6.55L8.61 9.72H8C7.73479 9.72 7.48043 9.82536 7.2929 10.0129C7.10536 10.2004 7 10.4548 7 10.72C7 10.9852 7.10536 11.2396 7.2929 11.4271C7.48043 11.6146 7.73479 11.72 8 11.72H10L10.05 11.8V12.72H8C7.73479 12.72 7.48043 12.8254 7.2929 13.0129C7.10536 13.2004 7 13.4548 7 13.72C7 13.9852 7.10536 14.2396 7.2929 14.4271C7.48043 14.6146 7.73479 14.72 8 14.72H10V17C10 17.2652 10.1054 17.5196 10.2929 17.7071C10.4804 17.8946 10.7348 18 11 18C11.2652 18 11.5196 17.8946 11.7071 17.7071C11.8946 17.5196 12 17.2652 12 17V14.72H14C14.2652 14.72 14.5196 14.6146 14.7071 14.4271C14.8946 14.2396 15 13.9852 15 13.72C15 13.4548 14.8946 13.2004 14.7071 13.0129C14.5196 12.8254 14.2652 12.72 14 12.72H12V11.8L12.05 11.72H14C14.2652 11.72 14.5196 11.6146 14.7071 11.4271C14.8946 11.2396 15 10.9852 15 10.72C15 10.4548 14.8946 10.2004 14.7071 10.0129C14.5196 9.82536 14.2652 9.72 14 9.72H13.39L15.5 6.55C15.6447 6.32954 15.6965 6.06082 15.6441 5.80236C15.5916 5.5439 15.4392 5.31662 15.22 5.17C15.1105 5.09677 14.9875 5.04592 14.8583 5.02036C14.729 4.9948 14.596 4.99503 14.4668 5.02105C14.3376 5.04707 14.2149 5.09836 14.1056 5.17198C13.9963 5.24559 13.9027 5.34007 13.83 5.45Z" fill="var(--fill-0, #1E1F26)"/>
</svg>
