<svg preserveAspectRatio="none" width="100%" height="100%" overflow="visible" style="display: block;" viewBox="0 0 20 21.0089" fill="none" xmlns="http://www.w3.org/2000/svg">
<path id="Vector" d="M18.54 1.46894C17.7231 0.650022 16.6476 0.13964 15.4967 0.0247391C14.3458 -0.0901615 13.1906 0.197527 12.228 0.838795C11.2653 1.48006 10.5548 2.43524 10.2174 3.54161C9.88005 4.64798 9.93669 5.83709 10.3777 6.90638C10.8187 7.97567 11.6168 8.85899 12.636 9.40586C13.6552 9.95273 14.8325 10.1293 15.9673 9.90554C17.1022 9.68177 18.1243 9.07147 18.8596 8.17862C19.5949 7.28577 19.9979 6.1656 20 5.00894C20.0012 4.35189 19.8728 3.70105 19.6223 3.09363C19.3718 2.48621 19.004 1.93413 18.54 1.46894V1.46894ZM12 5.00894C12 4.21329 12.3161 3.45023 12.8787 2.88762C13.4413 2.32501 14.2044 2.00894 15 2.00894C15.447 2.01159 15.8877 2.11408 16.29 2.30894L12.29 6.30894C12.0971 5.90281 11.998 5.45853 12 5.00894V5.00894ZM17.12 7.12894C16.6747 7.55219 16.1131 7.83262 15.5072 7.93419C14.9013 8.03577 14.2789 7.95384 13.72 7.69894L17.72 3.69894C17.9109 4.10892 18.0066 4.55675 18 5.00894C17.9993 5.80432 17.6828 6.56687 17.12 7.12894V7.12894ZM17 12.0089C16.7348 12.0089 16.4804 12.1143 16.2929 12.3018C16.1054 12.4894 16 12.7437 16 13.0089V13.3989L14.52 11.9089C13.9878 11.409 13.2851 11.1307 12.555 11.1307C11.8249 11.1307 11.1222 11.409 10.59 11.9089L9.89 12.6189L7.41 10.1289C6.87783 9.62903 6.17514 9.35075 5.445 9.35075C4.71486 9.35075 4.01217 9.62903 3.48 10.1289L2 11.6189V6.00894C2 5.74372 2.10536 5.48937 2.29289 5.30183C2.48043 5.11429 2.73478 5.00894 3 5.00894H7C7.26522 5.00894 7.51957 4.90358 7.70711 4.71604C7.89464 4.52851 8 4.27415 8 4.00894C8 3.74372 7.89464 3.48937 7.70711 3.30183C7.51957 3.11429 7.26522 3.00894 7 3.00894H3C2.20435 3.00894 1.44129 3.32501 0.87868 3.88762C0.316071 4.45023 0 5.21329 0 6.00894V18.0089C0 18.8046 0.316071 19.5676 0.87868 20.1303C1.44129 20.6929 2.20435 21.0089 3 21.0089H15C15.3238 21.0039 15.6446 20.9465 15.95 20.8389H16.04C16.5528 20.6559 17.0062 20.3368 17.3515 19.9158C17.6968 19.4947 17.921 18.9877 18 18.4489C18.0056 18.3757 18.0056 18.3022 18 18.2289V13.0089C18 12.7437 17.8946 12.4894 17.7071 12.3018C17.5196 12.1143 17.2652 12.0089 17 12.0089ZM3 19.0089C2.73478 19.0089 2.48043 18.9036 2.29289 18.716C2.10536 18.5285 2 18.2742 2 18.0089V14.4389L4.9 11.5489C5.04691 11.4089 5.24206 11.3308 5.445 11.3308C5.64794 11.3308 5.84309 11.4089 5.99 11.5489L9.18 14.7289L13.46 19.0089H3ZM16 18.0089C15.9936 18.2026 15.931 18.3902 15.82 18.5489L11.3 14.0089L12.01 13.3089C12.1569 13.1689 12.3521 13.0908 12.555 13.0908C12.7579 13.0908 12.9531 13.1689 13.1 13.3089L16 16.2189V18.0089Z" fill="var(--fill-0, #1E1F26)"/>
</svg>
