<svg preserveAspectRatio="none" width="100%" height="100%" overflow="visible" style="display: block;" viewBox="0 0 15.9449 20.0114" fill="none" xmlns="http://www.w3.org/2000/svg">
<path id="Vector" d="M13 4.00843C12.3065 4.00889 11.6345 4.24962 11.0985 4.68967C10.5625 5.12971 10.1954 5.74189 10.0599 6.42204C9.92431 7.10219 10.0286 7.8083 10.355 8.42023C10.6813 9.03216 11.2096 9.51211 11.85 9.77843C11.6978 10.1434 11.4408 10.455 11.1115 10.6739C10.7822 10.8928 10.3954 11.0093 10 11.0084H6.00001C5.29505 11.0114 4.604 11.2049 4.00001 11.5684V5.82843C4.66722 5.59253 5.22956 5.12836 5.58764 4.51795C5.94571 3.90754 6.07647 3.19019 5.9568 2.49269C5.83713 1.7952 5.47473 1.16246 4.93367 0.706322C4.3926 0.25018 3.70769 0 3.00001 0C2.29232 0 1.60741 0.25018 1.06635 0.706322C0.525277 1.16246 0.162882 1.7952 0.0432106 2.49269C-0.0764607 3.19019 0.0542974 3.90754 0.412375 4.51795C0.770452 5.12836 1.33279 5.59253 2.00001 5.82843V14.1884C1.34099 14.4254 0.785665 14.8855 0.430256 15.489C0.074848 16.0924 -0.0582406 16.8012 0.0540553 17.4925C0.166351 18.1837 0.516954 18.8139 1.0451 19.2738C1.57325 19.7338 2.24567 19.9944 2.94581 20.0106C3.64596 20.0268 4.32971 19.7976 4.87857 19.3626C5.42744 18.9276 5.80683 18.3143 5.95099 17.629C6.09515 16.9436 5.995 16.2295 5.6679 15.6102C5.34079 14.991 4.80735 14.5057 4.16001 14.2384C4.31158 13.8751 4.56704 13.5645 4.89436 13.3457C5.22168 13.1269 5.60629 13.0096 6.00001 13.0084H10C10.9148 13.0082 11.802 12.6945 12.5135 12.1194C13.225 11.5444 13.7179 10.7429 13.91 9.84843C14.5786 9.62126 15.1456 9.16554 15.5113 8.56147C15.8769 7.95741 16.0178 7.24373 15.9091 6.54603C15.8004 5.84833 15.449 5.21134 14.9169 4.74717C14.3848 4.283 13.706 4.02141 13 4.00843V4.00843ZM3.00001 2.00843C3.19779 2.00843 3.39113 2.06708 3.55558 2.17696C3.72003 2.28684 3.8482 2.44302 3.92389 2.62574C3.99957 2.80847 4.01938 3.00954 3.98079 3.20352C3.94221 3.3975 3.84697 3.57568 3.70711 3.71553C3.56726 3.85539 3.38908 3.95063 3.1951 3.98921C3.00112 4.0278 2.80005 4.00799 2.61732 3.93231C2.4346 3.85662 2.27842 3.72845 2.16854 3.564C2.05866 3.39955 2.00001 3.20621 2.00001 3.00843C2.00001 2.74321 2.10536 2.48886 2.2929 2.30132C2.48044 2.11378 2.73479 2.00843 3.00001 2.00843ZM3.00001 18.0084C2.80222 18.0084 2.60889 17.9498 2.44444 17.8399C2.27999 17.73 2.15181 17.5738 2.07613 17.3911C2.00044 17.2084 1.98064 17.0073 2.01922 16.8133C2.05781 16.6194 2.15305 16.4412 2.2929 16.3013C2.43275 16.1615 2.61093 16.0662 2.80492 16.0276C2.9989 15.9891 3.19996 16.0089 3.38269 16.0845C3.56542 16.1602 3.72159 16.2884 3.83148 16.4529C3.94136 16.6173 4.00001 16.8106 4.00001 17.0084C4.00001 17.2736 3.89465 17.528 3.70711 17.7155C3.51958 17.9031 3.26522 18.0084 3.00001 18.0084ZM13 8.00843C12.8022 8.00843 12.6089 7.94978 12.4444 7.8399C12.28 7.73002 12.1518 7.57384 12.0761 7.39111C12.0004 7.20838 11.9806 7.00732 12.0192 6.81334C12.0578 6.61936 12.153 6.44117 12.2929 6.30132C12.4328 6.16147 12.6109 6.06623 12.8049 6.02764C12.9989 5.98906 13.2 6.00886 13.3827 6.08455C13.5654 6.16024 13.7216 6.28841 13.8315 6.45286C13.9414 6.61731 14 6.81065 14 7.00843C14 7.27364 13.8947 7.528 13.7071 7.71553C13.5196 7.90307 13.2652 8.00843 13 8.00843Z" fill="var(--fill-0, #1E1F26)"/>
</svg>
