<svg preserveAspectRatio="none" width="100%" height="100%" overflow="visible" style="display: block;" viewBox="0 0 19.962 19.9831" fill="none" xmlns="http://www.w3.org/2000/svg">
<path id="Vector" d="M9.98101 0C8.04148 0.00368503 6.14489 0.571311 4.52223 1.63374C2.89958 2.69617 1.6209 4.20754 0.841947 5.98377C0.0629924 7.76 -0.182618 9.72442 0.135032 11.6378C0.452682 13.5511 1.31988 15.3308 2.63101 16.76L2.72101 16.86C3.65546 17.8465 4.78116 18.6322 6.02939 19.1692C7.27762 19.7061 8.62218 19.9831 9.98101 19.9831C11.3398 19.9831 12.6844 19.7061 13.9326 19.1692C15.1808 18.6322 16.3066 17.8465 17.241 16.86L17.331 16.76C18.6421 15.3308 19.5093 13.5511 19.827 11.6378C20.1446 9.72442 19.899 7.76 19.1201 5.98377C18.3411 4.20754 17.0624 2.69617 15.4398 1.63374C13.8171 0.571311 11.9205 0.00368503 9.98101 0V0ZM3.59101 14.79C2.54631 13.4116 1.98088 11.7295 1.98088 10C1.98088 8.27047 2.54631 6.58836 3.59101 5.21C4.33239 5.76925 4.93383 6.49297 5.34799 7.32416C5.76215 8.15535 5.97771 9.07134 5.97771 10C5.97771 10.9287 5.76215 11.8446 5.34799 12.6758C4.93383 13.507 4.33239 14.2307 3.59101 14.79V14.79ZM9.98101 18C8.1603 18.003 6.3943 17.3779 4.98101 16.23C5.91176 15.4802 6.66269 14.5314 7.17861 13.4533C7.69453 12.3752 7.96233 11.1952 7.96233 10C7.96233 8.80481 7.69453 7.6248 7.17861 6.5467C6.66269 5.46859 5.91176 4.51979 4.98101 3.77C6.39602 2.62532 8.16096 2.00082 9.98101 2.00082C11.8011 2.00082 13.566 2.62532 14.981 3.77C14.0502 4.51979 13.2993 5.46859 12.7834 6.5467C12.2675 7.6248 11.9997 8.80481 11.9997 10C11.9997 11.1952 12.2675 12.3752 12.7834 13.4533C13.2993 14.5314 14.0502 15.4802 14.981 16.23C13.5677 17.3779 11.8017 18.003 9.98101 18ZM16.371 14.79C15.6296 14.2307 15.0282 13.507 14.614 12.6758C14.1999 11.8446 13.9843 10.9287 13.9843 10C13.9843 9.07134 14.1999 8.15535 14.614 7.32416C15.0282 6.49297 15.6296 5.76925 16.371 5.21C17.4157 6.58836 17.9811 8.27047 17.9811 10C17.9811 11.7295 17.4157 13.4116 16.371 14.79V14.79Z" fill="var(--fill-0, #1E1F26)"/>
</svg>
