<svg preserveAspectRatio="none" width="100%" height="100%" overflow="visible" style="display: block;" viewBox="0 0 18.0011 20.12" fill="none" xmlns="http://www.w3.org/2000/svg">
<path id="Vector" d="M18.0011 10.62C17.9969 9.51302 17.66 8.43289 17.034 7.51986C16.4081 6.60683 15.5221 5.90308 14.4911 5.5C14.4911 4.04131 13.9117 2.64236 12.8802 1.61091C11.8488 0.579463 10.4498 0 8.99113 0C7.53244 0 6.13349 0.579463 5.10204 1.61091C4.07059 2.64236 3.49113 4.04131 3.49113 5.5C2.29824 5.96804 1.30621 6.83792 0.686338 7.95944C0.0664639 9.08096 -0.142351 10.3837 0.0959488 11.6428C0.334248 12.9019 1.0047 14.0382 1.99155 14.8557C2.9784 15.6731 4.2197 16.1203 5.50113 16.12H5.70113C5.44851 16.9903 5.02718 17.8023 4.46113 18.51C4.34782 18.6572 4.27773 18.833 4.25872 19.0178C4.23972 19.2025 4.27254 19.3889 4.35353 19.5561C4.43451 19.7232 4.56044 19.8645 4.71722 19.9641C4.87399 20.0637 5.05541 20.1177 5.24113 20.12H12.7611C12.9504 20.1206 13.1359 20.0676 13.2962 19.967C13.4565 19.8664 13.5849 19.7224 13.6666 19.5517C13.7483 19.381 13.7798 19.1906 13.7576 19.0027C13.7354 18.8147 13.6604 18.637 13.5411 18.49C12.9774 17.7883 12.5562 16.9832 12.3011 16.12H12.5011C13.959 16.1174 15.3564 15.537 16.3873 14.5062C17.4182 13.4753 17.9985 12.0779 18.0011 10.62V10.62ZM7.06113 18.12C7.45918 17.3126 7.7323 16.4494 7.87113 15.56C8.27485 15.3735 8.65432 15.1384 9.00113 14.86C9.34794 15.1384 9.72741 15.3735 10.1311 15.56C10.27 16.4494 10.5431 17.3126 10.9411 18.12H7.06113ZM9.78113 12.82L9.70113 12.74L9.62113 12.66H9.55113L9.37113 12.57L9.19113 12.51H8.81113L8.63113 12.57C8.5697 12.59 8.51218 12.6204 8.46113 12.66H8.38113L8.30113 12.74L8.22113 12.82C7.86943 13.2548 7.41865 13.5991 6.90656 13.8238C6.39446 14.0486 5.83595 14.1474 5.27781 14.1119C4.71968 14.0765 4.17817 13.9078 3.69865 13.62C3.21913 13.3321 2.81556 12.9336 2.52175 12.4578C2.22793 11.9819 2.05243 11.4426 2.00993 10.8849C1.96744 10.3273 2.0592 9.76756 2.27752 9.25268C2.49584 8.73779 2.83437 8.28272 3.26475 7.92558C3.69512 7.56844 4.20481 7.31963 4.75113 7.2C4.80653 7.17768 4.86004 7.15093 4.91113 7.12C4.97291 7.09753 5.03305 7.0708 5.09113 7.04C5.14264 7.0022 5.18962 6.95858 5.23113 6.91C5.3314 6.83078 5.40475 6.72251 5.44113 6.6C5.47292 6.54719 5.49652 6.48988 5.51113 6.43C5.52084 6.36369 5.52084 6.29631 5.51113 6.23C5.51596 6.17344 5.51596 6.11656 5.51113 6.06C5.50119 5.91016 5.50119 5.75984 5.51113 5.61C5.51113 4.68174 5.87988 3.7915 6.53626 3.13513C7.19263 2.47875 8.08287 2.11 9.01113 2.11C9.93939 2.11 10.8296 2.47875 11.486 3.13513C12.1424 3.7915 12.5111 4.68174 12.5111 5.61C12.5211 5.75984 12.5211 5.91016 12.5111 6.06C12.5058 6.1132 12.5058 6.1668 12.5111 6.22C12.5011 6.28964 12.5011 6.36036 12.5111 6.43C12.5257 6.48988 12.5493 6.54719 12.5811 6.6C12.6175 6.72251 12.6909 6.83078 12.7911 6.91C12.8326 6.95858 12.8796 7.0022 12.9311 7.04C12.9892 7.0708 13.0494 7.09753 13.1111 7.12C13.1625 7.1475 13.216 7.1709 13.2711 7.19C13.8174 7.30963 14.3271 7.55844 14.7575 7.91558C15.1879 8.27272 15.5264 8.72779 15.7447 9.24267C15.9631 9.75756 16.0548 10.3173 16.0123 10.8749C15.9698 11.4326 15.7943 11.9719 15.5005 12.4478C15.2067 12.9236 14.8031 13.3221 14.3236 13.61C13.8441 13.8978 13.3026 14.0665 12.7444 14.1019C12.1863 14.1374 11.6278 14.0386 11.1157 13.8138C10.6036 13.5891 10.1528 13.2448 9.80113 12.81L9.78113 12.82Z" fill="var(--fill-0, #1E1F26)"/>
</svg>
