<svg preserveAspectRatio="none" width="100%" height="100%" overflow="visible" style="display: block;" viewBox="0 0 20 20" fill="none" xmlns="http://www.w3.org/2000/svg">
<path id="Vector" d="M12.66 11.56L8.47001 13.06C8.2498 13.1399 8.06462 13.2945 7.94677 13.497C7.82893 13.6994 7.78589 13.9368 7.82517 14.1678C7.86446 14.3987 7.98356 14.6085 8.16172 14.7606C8.33987 14.9127 8.56577 14.9974 8.8 15C8.91596 14.9999 9.03101 14.9796 9.14001 14.94L13.34 13.44C13.467 13.3981 13.5842 13.3312 13.6849 13.2431C13.7855 13.1551 13.8675 13.0478 13.926 12.9276C13.9844 12.8073 14.0182 12.6766 14.0252 12.5431C14.0323 12.4095 14.0125 12.276 13.967 12.1502C13.9215 12.0245 13.8513 11.9092 13.7604 11.8111C13.6696 11.7129 13.56 11.634 13.4382 11.579C13.3163 11.524 13.1847 11.4939 13.051 11.4907C12.9174 11.4874 12.7844 11.511 12.66 11.56V11.56ZM8.66 6.56C8.47264 6.37375 8.21919 6.26921 7.955 6.26921C7.69082 6.26921 7.43737 6.37375 7.25 6.56C7.15704 6.65373 7.04644 6.72812 6.92458 6.77889C6.80272 6.82966 6.67202 6.8558 6.54 6.8558C6.40799 6.8558 6.27729 6.82966 6.15543 6.77889C6.03357 6.72812 5.92297 6.65373 5.83 6.56C5.64264 6.37375 5.38919 6.26921 5.125 6.26921C4.86082 6.26921 4.60737 6.37375 4.42 6.56C4.32628 6.65296 4.25188 6.76356 4.20111 6.88542C4.15034 7.00728 4.12421 7.13799 4.12421 7.27C4.12421 7.40201 4.15034 7.53272 4.20111 7.65458C4.25188 7.77644 4.32628 7.88704 4.42 7.98C4.98251 8.5418 5.745 8.85736 6.54 8.85736C7.33501 8.85736 8.0975 8.5418 8.66 7.98C8.75424 7.88405 8.82816 7.77009 8.87734 7.64491C8.92651 7.51974 8.94994 7.38593 8.9462 7.25149C8.94247 7.11706 8.91165 6.98476 8.85561 6.86251C8.79956 6.74026 8.71943 6.63057 8.62 6.54L8.66 6.56ZM15.66 6.56C15.4726 6.37375 15.2192 6.26921 14.955 6.26921C14.6908 6.26921 14.4374 6.37375 14.25 6.56C14.157 6.65373 14.0464 6.72812 13.9246 6.77889C13.8027 6.82966 13.672 6.8558 13.54 6.8558C13.408 6.8558 13.2773 6.82966 13.1554 6.77889C13.0336 6.72812 12.923 6.65373 12.83 6.56C12.6426 6.37375 12.3892 6.26921 12.125 6.26921C11.8608 6.26921 11.6074 6.37375 11.42 6.56C11.3263 6.65296 11.2519 6.76356 11.2011 6.88542C11.1503 7.00728 11.1242 7.13799 11.1242 7.27C11.1242 7.40201 11.1503 7.53272 11.2011 7.65458C11.2519 7.77644 11.3263 7.88704 11.42 7.98C11.9825 8.5418 12.745 8.85736 13.54 8.85736C14.335 8.85736 15.0975 8.5418 15.66 7.98C15.7542 7.88405 15.8282 7.77009 15.8773 7.64491C15.9265 7.51974 15.9499 7.38593 15.9462 7.25149C15.9425 7.11706 15.9117 6.98476 15.8556 6.86251C15.7996 6.74026 15.7194 6.63057 15.62 6.54L15.66 6.56ZM10 0C8.02219 0 6.08879 0.58649 4.4443 1.6853C2.79981 2.78412 1.51809 4.3459 0.761209 6.17317C0.00433283 8.00043 -0.193701 10.0111 0.192152 11.9509C0.578004 13.8907 1.53041 15.6725 2.92894 17.0711C4.32746 18.4696 6.10929 19.422 8.0491 19.8079C9.98891 20.1937 11.9996 19.9957 13.8268 19.2388C15.6541 18.4819 17.2159 17.2002 18.3147 15.5557C19.4135 13.9112 20 11.9778 20 10C20 8.68678 19.7413 7.38642 19.2388 6.17317C18.7363 4.95991 17.9997 3.85752 17.0711 2.92893C16.1425 2.00035 15.0401 1.26375 13.8268 0.761205C12.6136 0.258658 11.3132 0 10 0V0ZM10 18C8.41775 18 6.87104 17.5308 5.55544 16.6518C4.23985 15.7727 3.21447 14.5233 2.60897 13.0615C2.00347 11.5997 1.84504 9.99113 2.15372 8.43928C2.4624 6.88743 3.22433 5.46197 4.34315 4.34315C5.46197 3.22433 6.88743 2.4624 8.43928 2.15372C9.99113 1.84504 11.5997 2.00346 13.0615 2.60896C14.5233 3.21447 15.7727 4.23984 16.6518 5.55544C17.5308 6.87103 18 8.41775 18 10C18 12.1217 17.1572 14.1566 15.6569 15.6569C14.1566 17.1571 12.1217 18 10 18V18Z" fill="var(--fill-0, #1E1F26)"/>
</svg>
