<svg preserveAspectRatio="none" width="100%" height="100%" overflow="visible" style="display: block;" viewBox="0 0 20.0041 12.0041" fill="none" xmlns="http://www.w3.org/2000/svg">
<path id="Vector" d="M19.0041 5.00409C18.7389 5.00409 18.4845 5.10945 18.297 5.29699C18.1094 5.48452 18.0041 5.73888 18.0041 6.00409V8.59409L11.7141 2.29409C11.6211 2.20036 11.5105 2.12597 11.3887 2.0752C11.2668 2.02443 11.1361 1.99829 11.0041 1.99829C10.8721 1.99829 10.7414 2.02443 10.6195 2.0752C10.4977 2.12597 10.3871 2.20036 10.2941 2.29409L7.00409 5.59409L1.71409 0.294092C1.52579 0.105788 1.27039 0 1.00409 0C0.73779 0 0.482395 0.105788 0.294092 0.294092C0.105788 0.482395 0 0.73779 0 1.00409C0 1.27039 0.105788 1.52579 0.294092 1.71409L6.29409 7.71409C6.38705 7.80782 6.49766 7.88221 6.61951 7.93298C6.74137 7.98375 6.87208 8.00989 7.00409 8.00989C7.1361 8.00989 7.26681 7.98375 7.38867 7.93298C7.51053 7.88221 7.62113 7.80782 7.71409 7.71409L11.0041 4.41409L16.5941 10.0041H14.0041C13.7389 10.0041 13.4845 10.1094 13.297 10.297C13.1094 10.4845 13.0041 10.7389 13.0041 11.0041C13.0041 11.2693 13.1094 11.5237 13.297 11.7112C13.4845 11.8987 13.7389 12.0041 14.0041 12.0041H19.0041C19.1348 12.0025 19.2639 11.9753 19.3841 11.9241C19.6284 11.8226 19.8226 11.6284 19.9241 11.3841C19.9753 11.2639 20.0025 11.1348 20.0041 11.0041V6.00409C20.0041 5.73888 19.8987 5.48452 19.7112 5.29699C19.5237 5.10945 19.2693 5.00409 19.0041 5.00409Z" fill="var(--fill-0, #1E1F26)"/>
</svg>
