<svg preserveAspectRatio="none" width="100%" height="100%" overflow="visible" style="display: block;" viewBox="0 0 19.0441 19.995" fill="none" xmlns="http://www.w3.org/2000/svg">
<path id="Vector" d="M3.00409 8.99501C3.00409 9.26023 3.10945 9.51458 3.29698 9.70212C3.48452 9.88966 3.73887 9.99501 4.00409 9.99501C4.26931 9.99501 4.52366 9.88966 4.7112 9.70212C4.89873 9.51458 5.00409 9.26023 5.00409 8.99501V3.40501L6.29409 4.70501C6.38705 4.79874 6.49766 4.87314 6.61951 4.9239C6.74137 4.97467 6.87208 5.00081 7.00409 5.00081C7.1361 5.00081 7.26681 4.97467 7.38867 4.9239C7.51053 4.87314 7.62113 4.79874 7.71409 4.70501C7.80782 4.61205 7.88221 4.50145 7.93298 4.37959C7.98375 4.25773 8.00989 4.12703 8.00989 3.99501C8.00989 3.863 7.98375 3.7323 7.93298 3.61044C7.88221 3.48858 7.80782 3.37798 7.71409 3.28501L4.71409 0.285014C4.61899 0.193973 4.50684 0.122608 4.38409 0.0750135C4.14063 -0.0250045 3.86755 -0.0250045 3.62409 0.0750135C3.50134 0.122608 3.3892 0.193973 3.29409 0.285014L0.294091 3.28501C0.105788 3.47332 -2.80594e-09 3.72871 0 3.99501C2.80594e-09 4.26132 0.105788 4.51671 0.294091 4.70501C0.482395 4.89332 0.73779 4.99911 1.00409 4.99911C1.27039 4.99911 1.52579 4.89332 1.71409 4.70501L3.00409 3.40501V8.99501ZM16.0041 3.99501H11.0041C10.7389 3.99501 10.4845 4.10037 10.297 4.28791C10.1094 4.47544 10.0041 4.7298 10.0041 4.99501C10.0041 5.26023 10.1094 5.51458 10.297 5.70212C10.4845 5.88966 10.7389 5.99501 11.0041 5.99501H16.0041C16.2693 5.99501 16.5237 6.10037 16.7112 6.28791C16.8987 6.47544 17.0041 6.7298 17.0041 6.99501V16.715L15.4341 15.265C15.2497 15.0923 15.0067 14.9959 14.7541 14.995H6.00409C5.73887 14.995 5.48452 14.8897 5.29698 14.7021C5.10945 14.5146 5.00409 14.2602 5.00409 13.995V12.995C5.00409 12.7298 4.89873 12.4754 4.7112 12.2879C4.52366 12.1004 4.26931 11.995 4.00409 11.995C3.73887 11.995 3.48452 12.1004 3.29698 12.2879C3.10945 12.4754 3.00409 12.7298 3.00409 12.995V13.995C3.00409 14.7907 3.32016 15.5537 3.88277 16.1163C4.44538 16.6789 5.20844 16.995 6.00409 16.995H14.3641L17.3641 19.725C17.5485 19.8977 17.7915 19.9941 18.0441 19.995C18.1812 19.9935 18.3169 19.9664 18.4441 19.915C18.623 19.8369 18.7751 19.7082 18.8817 19.5448C18.9883 19.3813 19.0448 19.1902 19.0441 18.995V6.99501C19.0441 6.59766 18.9652 6.20426 18.812 5.83765C18.6587 5.47104 18.4341 5.13853 18.1513 4.85943C17.8685 4.58032 17.533 4.36018 17.1644 4.21179C16.7958 4.0634 16.4014 3.98972 16.0041 3.99501V3.99501Z" fill="var(--fill-0, #1E1F26)"/>
</svg>
