<svg preserveAspectRatio="none" width="100%" height="100%" overflow="visible" style="display: block;" viewBox="0 0 19.9434 15.9823" fill="none" xmlns="http://www.w3.org/2000/svg">
<path id="Vector" d="M10.43 0.0822097C10.2676 0.0119517 10.0895 -0.0139583 9.91379 0.00712359C9.73811 0.0282055 9.57116 0.0955244 9.43 0.20221L4.65 3.98221H1C0.734784 3.98221 0.48043 4.08757 0.292893 4.2751C0.105357 4.46264 0 4.71699 0 4.98221V10.9822C0 11.2474 0.105357 11.5018 0.292893 11.6893C0.48043 11.8769 0.734784 11.9822 1 11.9822H4.65L9.38 15.7622C9.55594 15.9034 9.77444 15.9809 10 15.9822C10.1494 15.9847 10.297 15.9503 10.43 15.8822C10.6002 15.8012 10.744 15.6737 10.8448 15.5144C10.9457 15.3552 10.9995 15.1707 11 14.9822V0.98221C10.9995 0.793724 10.9457 0.609226 10.8448 0.449988C10.744 0.290751 10.6002 0.163258 10.43 0.0822097V0.0822097ZM9 12.9022L5.62 10.2022C5.44406 10.061 5.22556 9.98352 5 9.98221H2V5.98221H5C5.22556 5.9809 5.44406 5.90337 5.62 5.76221L9 3.06221V12.9022ZM13.14 0.07221C13.0087 0.0538249 12.875 0.0614857 12.7467 0.0947548C12.6183 0.128024 12.4977 0.18625 12.3919 0.266108C12.286 0.345967 12.1969 0.445893 12.1297 0.560183C12.0625 0.674473 12.0184 0.800888 12 0.93221C11.9816 1.06353 11.9893 1.19719 12.0225 1.32555C12.0558 1.45391 12.114 1.57446 12.1939 1.68032C12.3552 1.89411 12.5948 2.03508 12.86 2.07221C14.2762 2.29045 15.5676 3.00834 16.5004 4.096C17.4333 5.18366 17.9462 6.56928 17.9462 8.00221C17.9462 9.43514 17.4333 10.8208 16.5004 11.9084C15.5676 12.9961 14.2762 13.714 12.86 13.9322C12.5948 13.9508 12.3478 14.0739 12.1734 14.2746C11.999 14.4753 11.9114 14.737 11.93 15.0022C11.9486 15.2674 12.0717 15.5144 12.2724 15.6888C12.4731 15.8632 12.7348 15.9508 13 15.9322H13.14C15.0328 15.6459 16.7602 14.6902 18.0086 13.2389C19.2569 11.7875 19.9434 9.93658 19.9434 8.02221C19.9434 6.10784 19.2569 4.25693 18.0086 2.80555C16.7602 1.35417 15.0328 0.398557 13.14 0.11221V0.07221ZM12.68 9.85221C12.4148 9.89464 12.1773 10.0407 12.0198 10.2582C11.8622 10.4758 11.7976 10.747 11.84 11.0122C11.8824 11.2774 12.0285 11.5149 12.246 11.6725C12.4636 11.83 12.7348 11.8946 13 11.8522C13.1085 11.851 13.2163 11.8342 13.32 11.8022C14.099 11.526 14.7733 11.0152 15.2502 10.3401C15.7271 9.66501 15.9832 8.85876 15.9832 8.03221C15.9832 7.20566 15.7271 6.39941 15.2502 5.72432C14.7733 5.04923 14.099 4.53845 13.32 4.26221C13.068 4.17734 12.7927 4.19604 12.5545 4.31418C12.3164 4.43233 12.1349 4.64025 12.05 4.89221C11.9651 5.14417 11.9838 5.41952 12.102 5.65769C12.2201 5.89586 12.428 6.07734 12.68 6.16221C13.0595 6.30614 13.3862 6.56211 13.6167 6.89612C13.8472 7.23013 13.9707 7.62637 13.9707 8.03221C13.9707 8.43805 13.8472 8.83429 13.6167 9.1683C13.3862 9.50231 13.0595 9.75828 12.68 9.90221V9.85221Z" fill="var(--fill-0, #1E1F26)"/>
</svg>
