<svg preserveAspectRatio="none" width="100%" height="100%" overflow="visible" style="display: block;" viewBox="0 0 20.0011 13.0348" fill="none" xmlns="http://www.w3.org/2000/svg">
<path id="Vector" d="M18.67 4.20484L12 0.354836C11.5944 0.121833 11.1348 -0.00052945 10.667 1.722e-06C10.1992 0.000532894 9.73983 0.123939 9.33477 0.357862C8.92971 0.591786 8.59321 0.928018 8.35896 1.33289C8.12471 1.73777 8.00094 2.19708 8.00004 2.66484V2.66484L4.00004 0.354836C3.59444 0.121833 3.13476 -0.00052945 2.667 1.722e-06C2.19924 0.000532894 1.73983 0.123939 1.33477 0.357862C0.929709 0.591786 0.593207 0.928018 0.35896 1.33289C0.124713 1.73777 0.000940661 2.19708 3.5892e-05 2.66484V10.3648C-0.00240318 10.8318 0.11951 11.2909 0.353251 11.6951C0.586992 12.0993 0.924133 12.434 1.33004 12.6648C1.73504 12.907 2.19813 13.0349 2.67004 13.0348C3.13711 13.0323 3.59547 12.9083 4.00004 12.6748L8.00004 10.3648C7.99789 10.833 8.11984 11.2935 8.35346 11.6992C8.58708 12.105 8.92404 12.4416 9.33004 12.6748C9.73559 12.9102 10.1961 13.0341 10.665 13.0341C11.1339 13.0341 11.5945 12.9102 12 12.6748L18.67 8.82484C19.0749 8.59019 19.4109 8.25328 19.6445 7.84786C19.8781 7.44244 20.0011 6.98274 20.0011 6.51484C20.0011 6.04693 19.8781 5.58724 19.6445 5.18181C19.4109 4.77639 19.0749 4.43948 18.67 4.20484V4.20484ZM8.00004 8.05484L3.00004 10.9348C2.89907 10.992 2.78498 11.022 2.66896 11.0218C2.55293 11.0216 2.43893 10.9914 2.33812 10.9339C2.23732 10.8764 2.15316 10.7938 2.0939 10.694C2.03464 10.5943 2.00229 10.4808 2.00004 10.3648V2.66484C2.00229 2.54883 2.03464 2.43539 2.0939 2.33564C2.15316 2.23589 2.23732 2.15324 2.33812 2.09578C2.43893 2.03832 2.55293 2.00803 2.66896 2.00786C2.78498 2.00769 2.89907 2.03766 3.00004 2.09484L8.00004 4.97484V8.05484ZM17.67 7.05484L11 10.9448C10.8976 11.0017 10.7823 11.0316 10.665 11.0316C10.5478 11.0316 10.4325 11.0017 10.33 10.9448C10.2285 10.8862 10.1443 10.8016 10.0863 10.6996C10.0283 10.5977 9.99854 10.4821 10 10.3648V2.66484C9.99854 2.54756 10.0283 2.432 10.0863 2.33006C10.1443 2.22811 10.2285 2.14347 10.33 2.08484C10.435 2.02934 10.5513 1.99856 10.67 1.99484C10.7862 1.99383 10.9004 2.02498 11 2.08484L17.67 5.93484C17.7718 5.99367 17.8563 6.07824 17.915 6.18004C17.9737 6.28184 18.0046 6.39731 18.0046 6.51484C18.0046 6.63237 17.9737 6.74783 17.915 6.84963C17.8563 6.95143 17.7718 7.036 17.67 7.09484V7.05484Z" fill="var(--fill-0, #1E1F26)"/>
</svg>
