<svg preserveAspectRatio="none" width="100%" height="100%" overflow="visible" style="display: block;" viewBox="0 0 20 19.9767" fill="none" xmlns="http://www.w3.org/2000/svg">
<path id="Vector" d="M19 16.0002H12.82C12.6707 15.5808 12.4299 15.1999 12.1151 14.8851C11.8003 14.5703 11.4194 14.3295 11 14.1802V12.0002H14.67C15.2871 11.9976 15.8783 11.7512 16.3147 11.3148C16.751 10.8785 16.9974 10.2873 17 9.67019V4.33019C16.9974 3.71305 16.751 3.12193 16.3147 2.68554C15.8783 2.24915 15.2871 2.00282 14.67 2.00019H10.67L10.54 1.59019C10.3858 1.13413 10.0947 0.73673 9.70633 0.452186C9.31799 0.167641 8.85133 0.00980246 8.37 0.000192594H5.37C5.06103 -0.00377158 4.75434 0.0534962 4.46762 0.16869C4.1809 0.283885 3.91983 0.454724 3.69949 0.671349C3.47915 0.887973 3.30389 1.14609 3.18383 1.43081C3.06377 1.71553 3.0013 2.0212 3 2.33019V9.67019C3.00263 10.2873 3.24896 10.8785 3.68535 11.3148C4.12174 11.7512 4.71286 11.9976 5.33 12.0002H9V14.1802C8.5806 14.3295 8.19969 14.5703 7.8849 14.8851C7.57011 15.1999 7.32932 15.5808 7.18 16.0002H1C0.734784 16.0002 0.48043 16.1055 0.292893 16.2931C0.105357 16.4806 0 16.735 0 17.0002C0 17.2654 0.105357 17.5198 0.292893 17.7073C0.48043 17.8948 0.734784 18.0002 1 18.0002H7.18C7.3902 18.5793 7.77363 19.0797 8.27816 19.4334C8.7827 19.787 9.38388 19.9767 10 19.9767C10.6161 19.9767 11.2173 19.787 11.7218 19.4334C12.2264 19.0797 12.6098 18.5793 12.82 18.0002H19C19.2652 18.0002 19.5196 17.8948 19.7071 17.7073C19.8946 17.5198 20 17.2654 20 17.0002C20 16.735 19.8946 16.4806 19.7071 16.2931C19.5196 16.1055 19.2652 16.0002 19 16.0002ZM5.33 10.0002C5.24248 10.0002 5.15854 9.96542 5.09665 9.90354C5.03477 9.84165 5 9.75771 5 9.67019V2.33019C5 2.24267 5.03477 2.15873 5.09665 2.09685C5.15854 2.03496 5.24248 2.00019 5.33 2.00019H8.33C8.40098 1.99901 8.47045 2.02075 8.5281 2.06218C8.58575 2.10362 8.6285 2.16254 8.65 2.23019L9.01 3.32019C9.07912 3.52546 9.21301 3.70274 9.39154 3.82537C9.57008 3.948 9.7836 4.00935 10 4.00019H14.67C14.7575 4.00019 14.8415 4.03496 14.9033 4.09685C14.9652 4.15873 15 4.24267 15 4.33019V9.67019C15 9.75771 14.9652 9.84165 14.9033 9.90354C14.8415 9.96542 14.7575 10.0002 14.67 10.0002H5.33ZM10 18.0002C9.80222 18.0002 9.60888 17.9415 9.44443 17.8317C9.27998 17.7218 9.15181 17.5656 9.07612 17.3829C9.00043 17.2001 8.98063 16.9991 9.01921 16.8051C9.0578 16.6111 9.15304 16.4329 9.29289 16.2931C9.43275 16.1532 9.61093 16.058 9.80491 16.0194C9.99889 15.9808 10.2 16.0006 10.3827 16.0763C10.5654 16.152 10.7216 16.2802 10.8315 16.4446C10.9414 16.6091 11 16.8024 11 17.0002C11 17.2654 10.8946 17.5198 10.7071 17.7073C10.5196 17.8948 10.2652 18.0002 10 18.0002Z" fill="var(--fill-0, #1E1F26)"/>
</svg>
