<svg preserveAspectRatio="none" width="100%" height="100%" overflow="visible" style="display: block;" viewBox="0 0 19.9989 20.001" fill="none" xmlns="http://www.w3.org/2000/svg">
<path id="Vector" d="M19.4339 12.1555C19.5762 11.4895 19.6471 10.8102 19.6455 10.1292C19.6384 8.8839 19.3859 7.6522 18.9025 6.50452C18.4191 5.35684 17.7143 4.31568 16.8283 3.44059C15.9422 2.56549 14.8924 1.87362 13.7388 1.40451C12.5852 0.935406 11.3505 0.698274 10.1052 0.706673C9.56036 0.705273 9.01654 0.752722 8.48022 0.848453C7.64759 0.325285 6.69063 0.0333559 5.70776 0.0026925C4.72489 -0.0279709 3.75159 0.203738 2.88796 0.673987C2.02434 1.14424 1.30158 1.83605 0.793998 2.67827C0.286422 3.5205 0.0123599 4.48273 0 5.466C0.000629763 6.43541 0.26082 7.38696 0.75354 8.2218C0.631292 8.84261 0.568123 9.4736 0.56488 10.1063C0.575319 11.343 0.831294 12.5653 1.31795 13.7023C1.8046 14.8393 2.51224 15.8683 3.39978 16.7295C4.28733 17.5908 5.33711 18.2672 6.48818 18.7195C7.63926 19.1718 8.86871 19.3909 10.1052 19.3642C10.6902 19.3686 11.2741 19.313 11.8478 19.1984C12.6396 19.6784 13.5383 19.9539 14.4631 20C15.3961 20.0177 16.3179 19.7947 17.1397 19.3526C17.9615 18.9106 18.6556 18.2643 19.1551 17.476C19.6546 16.6878 19.9426 15.7842 19.9914 14.8523C20.0403 13.9204 19.8483 12.9916 19.4339 12.1555V12.1555ZM14.439 13.9931C14.0252 14.5478 13.4614 14.9728 12.8141 15.2178C12.0132 15.5367 11.1556 15.6888 10.2938 15.6649C9.29276 15.6974 8.29868 15.4875 7.39618 15.0532C6.8683 14.772 6.41571 14.368 6.07654 13.8754C5.77546 13.4636 5.60352 12.9717 5.58254 12.462C5.58017 12.3325 5.60641 12.204 5.65938 12.0858C5.71235 11.9676 5.79076 11.8626 5.889 11.7781C6.10072 11.5858 6.37958 11.4843 6.66543 11.4957C6.89665 11.4861 7.12333 11.5618 7.30243 11.7084C7.49892 11.8916 7.65172 12.1167 7.74951 12.367C7.87048 12.6808 8.03736 12.9748 8.24469 13.2396C8.43432 13.4884 8.68586 13.6832 8.97424 13.8044C9.36901 13.9708 9.79471 14.0511 10.223 14.04C10.8288 14.0731 11.4299 13.9169 11.9428 13.5929C12.1408 13.4772 12.3056 13.3122 12.4212 13.1141C12.5368 12.916 12.5993 12.6913 12.6026 12.462C12.6094 12.2999 12.5814 12.1383 12.5204 11.988C12.4595 11.8377 12.367 11.7022 12.2493 11.5906C11.9899 11.345 11.6742 11.1667 11.3298 11.0714C10.9537 10.9537 10.4344 10.8359 9.79871 10.6953C9.06858 10.5408 8.35198 10.3282 7.65576 10.0595C7.12063 9.84502 6.64994 9.49605 6.28925 9.04633C5.94808 8.59268 5.77327 8.03551 5.79413 7.46826C5.79346 6.88912 5.984 6.32596 6.33618 5.86621C6.73523 5.36889 7.26566 4.99336 7.86731 4.78221C8.63101 4.51301 9.43745 4.38551 10.2469 4.40598C10.8845 4.39782 11.5197 4.48492 12.1315 4.66441C12.6074 4.80229 13.0542 5.02589 13.4499 5.3242C13.7652 5.55923 14.0297 5.85563 14.2275 6.19554C14.3787 6.46133 14.4597 6.7612 14.4631 7.06693C14.4634 7.19948 14.4364 7.33068 14.3837 7.45228C14.3309 7.57389 14.2536 7.68328 14.1566 7.7736C14.0598 7.87509 13.9426 7.95488 13.8127 8.00771C13.6828 8.06054 13.5432 8.0852 13.403 8.08006C13.1756 8.09352 12.9506 8.02676 12.7673 7.8914C12.578 7.71446 12.4189 7.50783 12.2961 7.27964C12.1087 6.90586 11.8436 6.57641 11.5186 6.31333C11.0828 6.04072 10.5704 5.91674 10.0583 5.96C9.52941 5.93535 9.00494 6.06657 8.54999 6.33738C8.38661 6.42525 8.24874 6.55387 8.14976 6.71077C8.05078 6.86766 7.99406 7.04748 7.98511 7.23277C7.98637 7.43633 8.05246 7.63419 8.17377 7.79765C8.31969 7.97265 8.50562 8.10992 8.71582 8.19785C8.93051 8.31498 9.16017 8.40232 9.39844 8.45744C9.63403 8.52836 10.0114 8.62211 10.5522 8.73991C11.212 8.88169 11.825 9.04637 12.367 9.21098C12.8578 9.35637 13.3256 9.57042 13.7564 9.84678C14.1233 10.0879 14.4297 10.4103 14.6517 10.789C14.8787 11.2167 14.9921 11.6955 14.9811 12.1795C15.0091 12.8278 14.8182 13.4666 14.439 13.9931Z" fill="var(--fill-0, #1E1F26)"/>
</svg>
