<svg preserveAspectRatio="none" width="100%" height="100%" overflow="visible" style="display: block;" viewBox="0 0 15 14.25" fill="none" xmlns="http://www.w3.org/2000/svg">
<path id="Vector" d="M7.5 1.5C5.9087 1.5 4.38258 2.13214 3.25736 3.25736C2.13214 4.38258 1.5 5.9087 1.5 7.5H3.75C4.14782 7.5 4.52936 7.65804 4.81066 7.93934C5.09196 8.22064 5.25 8.60218 5.25 9V12.75C5.25 13.1478 5.09196 13.5294 4.81066 13.8107C4.52936 14.092 4.14782 14.25 3.75 14.25H1.5C1.10218 14.25 0.720644 14.092 0.43934 13.8107C0.158035 13.5294 0 13.1478 0 12.75V7.5C0 3.35775 3.35775 0 7.5 0C11.6422 0 15 3.35775 15 7.5V12.75C15 13.1478 14.842 13.5294 14.5607 13.8107C14.2794 14.092 13.8978 14.25 13.5 14.25H11.25C10.8522 14.25 10.4706 14.092 10.1893 13.8107C9.90804 13.5294 9.75 13.1478 9.75 12.75V9C9.75 8.60218 9.90804 8.22064 10.1893 7.93934C10.4706 7.65804 10.8522 7.5 11.25 7.5H13.5C13.5 5.9087 12.8679 4.38258 11.7426 3.25736C10.6174 2.13214 9.0913 1.5 7.5 1.5V1.5ZM1.5 9V12.75H3.75V9H1.5ZM11.25 9V12.75H13.5V9H11.25Z" fill="var(--fill-0, #525866)"/>
</svg>
