<svg preserveAspectRatio="none" width="100%" height="100%" overflow="visible" style="display: block;" viewBox="0 0 20.1623 20.0345" fill="none" xmlns="http://www.w3.org/2000/svg">
<path id="Vector" d="M14.8815 9.66409C15.282 9.66905 15.6795 9.59374 16.0505 9.4426C16.4215 9.29146 16.7584 9.06755 17.0415 8.78409L19.8715 5.95409C20.0577 5.76673 20.1623 5.51328 20.1623 5.24909C20.1623 4.98491 20.0577 4.73145 19.8715 4.54409C19.7785 4.45036 19.6679 4.37597 19.5461 4.3252C19.4242 4.27443 19.2935 4.24829 19.1615 4.24829C19.0295 4.24829 18.8988 4.27443 18.7769 4.3252C18.6551 4.37597 18.5445 4.45036 18.4515 4.54409L15.5915 7.36409C15.4985 7.45782 15.3879 7.53221 15.2661 7.58298C15.1442 7.63375 15.0135 7.65989 14.8815 7.65989C14.7495 7.65989 14.6188 7.63375 14.4969 7.58298C14.3751 7.53221 14.2645 7.45782 14.1715 7.36409V7.36409L17.7115 3.83409C17.8047 3.74085 17.8787 3.63016 17.9291 3.50834C17.9796 3.38652 18.0056 3.25595 18.0056 3.12409C18.0056 2.99223 17.9796 2.86166 17.9291 2.73984C17.8787 2.61802 17.8047 2.50733 17.7115 2.41409C17.6183 2.32085 17.5076 2.24689 17.3857 2.19643C17.2639 2.14597 17.1333 2.12 17.0015 2.12C16.8696 2.12 16.7391 2.14597 16.6172 2.19643C16.4954 2.24689 16.3847 2.32085 16.2915 2.41409L12.7615 5.95409C12.5752 5.76673 12.4707 5.51328 12.4707 5.24909C12.4707 4.98491 12.5752 4.73145 12.7615 4.54409L15.5915 1.71409C15.6847 1.62085 15.7587 1.51016 15.8092 1.38834C15.8596 1.26652 15.8856 1.13595 15.8856 1.00409C15.8856 0.872233 15.8596 0.741665 15.8092 0.619843C15.7587 0.498021 15.6847 0.38733 15.5915 0.294092C15.4983 0.200853 15.3876 0.126892 15.2657 0.076432C15.1439 0.0259717 15.0134 -2.59926e-09 14.8815 0C14.7496 2.59926e-09 14.6191 0.0259717 14.4972 0.076432C14.3754 0.126892 14.2647 0.200853 14.1715 0.294092L11.3415 3.12409C10.7797 3.68659 10.4641 4.44909 10.4641 5.24409C10.4641 6.03909 10.7797 6.80159 11.3415 7.36409V7.36409L10.0415 8.65409L1.77149 0.354092L1.67149 0.294092C1.62037 0.249491 1.56312 0.212448 1.50149 0.184092L1.32149 0.114092L1.20149 0.0340917H1.13149H0.931491C0.87187 0.0245582 0.811113 0.0245582 0.751491 0.0340917C0.690953 0.0561259 0.633746 0.0864117 0.581491 0.124092L0.421491 0.224092H0.351491L0.291491 0.324092C0.249167 0.376891 0.212312 0.433849 0.181491 0.494092C0.152205 0.55507 0.128766 0.618688 0.111491 0.684092C0.111491 0.684092 0.111491 0.754092 0.111491 0.794092C-0.131173 2.4855 0.0235414 4.21019 0.563368 5.83141C1.1032 7.45262 2.01329 8.92579 3.22149 10.1341L5.86149 12.7641L0.451491 18.1641C0.357763 18.2571 0.283369 18.3677 0.2326 18.4895C0.181831 18.6114 0.155693 18.7421 0.155693 18.8741C0.155693 19.0061 0.181831 19.1368 0.2326 19.2587C0.283369 19.3805 0.357763 19.4911 0.451491 19.5841C0.544932 19.6768 0.655747 19.7501 0.777585 19.7999C0.899422 19.8496 1.02988 19.8749 1.16149 19.8741C1.2931 19.8749 1.42356 19.8496 1.5454 19.7999C1.66724 19.7501 1.77805 19.6768 1.87149 19.5841L7.94149 13.6041L10.7715 10.7741L12.7715 8.77409C13.3295 9.33809 14.0881 9.6581 14.8815 9.66409V9.66409ZM7.23149 11.4841L4.60149 8.84409C3.15995 7.38283 2.25734 5.47536 2.04149 3.43409L8.65149 10.0341L7.23149 11.4841ZM13.4715 12.0541C13.2832 11.8645 13.0273 11.7574 12.76 11.7565C12.4928 11.7555 12.2361 11.8608 12.0465 12.0491C11.8569 12.2374 11.7498 12.4933 11.7489 12.7606C11.7479 13.0278 11.8532 13.2845 12.0415 13.4741L18.3415 19.7741C18.5325 19.9479 18.7833 20.0411 19.0415 20.0341C19.1731 20.0349 19.3036 20.0096 19.4254 19.9599C19.5472 19.9101 19.658 19.8368 19.7515 19.7441C19.8452 19.6511 19.9196 19.5405 19.9704 19.4187C20.0212 19.2968 20.0473 19.1661 20.0473 19.0341C20.0473 18.9021 20.0212 18.7714 19.9704 18.6495C19.9196 18.5277 19.8452 18.4171 19.7515 18.3241L13.4715 12.0541Z" fill="var(--fill-0, #1E1F26)"/>
</svg>
