<svg preserveAspectRatio="none" width="100%" height="100%" overflow="visible" style="display: block;" viewBox="0 0 19.9997 20" fill="none" xmlns="http://www.w3.org/2000/svg">
<path id="Vector" d="M9.99986 13.5C9.80208 13.5 9.60874 13.5587 9.44429 13.6685C9.27984 13.7784 9.15167 13.9346 9.07598 14.1173C9.00029 14.3 8.98049 14.5011 9.01907 14.6951C9.05766 14.8891 9.1529 15.0673 9.29275 15.2071C9.4326 15.347 9.61079 15.4422 9.80477 15.4808C9.99875 15.5194 10.1998 15.4996 10.3825 15.4239C10.5653 15.3482 10.7214 15.22 10.8313 15.0556C10.9412 14.8911 10.9999 14.6978 10.9999 14.5C10.9999 14.2348 10.8945 13.9804 10.707 13.7929C10.5194 13.6054 10.2651 13.5 9.99986 13.5ZM9.99986 2.04247e-06C9.81228 -3.67904e-06 9.62482 0.00950863 9.43821 0.0285021C6.83934 0.173126 4.39944 1.32602 2.63754 3.24194C0.875643 5.15786 -0.0692173 7.6856 0.00395376 10.2875C0.0771248 12.8893 1.16255 15.36 3.02935 17.1738C4.89614 18.9877 7.39697 20.0017 9.99986 20C10.1874 20 10.3749 19.9905 10.5615 19.9715C13.1604 19.8269 15.6003 18.674 17.3622 16.7581C19.1241 14.8421 20.0689 12.3144 19.9958 9.71254C19.9226 7.11068 18.8372 4.64003 16.9704 2.82616C15.1036 1.01229 12.6027 -0.00166098 9.99986 2.04247e-06V2.04247e-06ZM9.99986 18C8.37567 18.0023 6.78938 17.5094 5.45244 16.5872C4.11549 15.6649 3.09141 14.357 2.5167 12.8379C1.94199 11.3188 1.84396 9.66063 2.23568 8.08439C2.62739 6.50815 3.49024 5.08874 4.70921 4.01538C4.47667 4.8326 4.43721 5.69268 4.59394 6.52776C4.75066 7.36284 5.09929 8.15008 5.61232 8.82737C6.12535 9.50466 6.78874 10.0535 7.55016 10.4305C8.31159 10.8076 9.1502 11.0025 9.99986 11C10.9281 11 11.8184 11.3688 12.4747 12.0251C13.1311 12.6815 13.4999 13.5717 13.4999 14.5C13.4999 15.4283 13.1311 16.3185 12.4747 16.9749C11.8184 17.6313 10.9281 18 9.99986 18ZM15.2905 15.9846C15.523 15.1674 15.5625 14.3073 15.4058 13.4722C15.2491 12.6372 14.9004 11.8499 14.3874 11.1726C13.8744 10.4953 13.211 9.94653 12.4496 9.56949C11.6881 9.19244 10.8495 8.99749 9.99986 9C9.0716 9 8.18136 8.63125 7.52499 7.97488C6.86861 7.3185 6.49986 6.42826 6.49986 5.5C6.49986 4.57174 6.86861 3.68151 7.52499 3.02513C8.18136 2.36875 9.0716 2 9.99986 2C11.624 1.99774 13.2103 2.49059 14.5473 3.41285C15.8842 4.3351 16.9083 5.64296 17.483 7.16207C18.0577 8.68118 18.1558 10.3394 17.764 11.9156C17.3723 13.4919 16.5095 14.9113 15.2905 15.9846ZM9.99986 4.5C9.80208 4.5 9.60874 4.55865 9.44429 4.66853C9.27984 4.77841 9.15167 4.93459 9.07598 5.11732C9.00029 5.30004 8.98049 5.50111 9.01907 5.69509C9.05766 5.88907 9.1529 6.06726 9.29275 6.20711C9.4326 6.34696 9.61079 6.4422 9.80477 6.48079C9.99875 6.51937 10.1998 6.49957 10.3825 6.42388C10.5653 6.34819 10.7214 6.22002 10.8313 6.05557C10.9412 5.89112 10.9999 5.69778 10.9999 5.5C10.9999 5.23479 10.8945 4.98043 10.707 4.7929C10.5194 4.60536 10.2651 4.5 9.99986 4.5Z" fill="var(--fill-0, #1E1F26)"/>
</svg>
