<svg preserveAspectRatio="none" width="100%" height="100%" overflow="visible" style="display: block;" viewBox="0 0 20 19.9958" fill="none" xmlns="http://www.w3.org/2000/svg">
<path id="Vector" d="M19 11.9958H17C16.7348 11.9958 16.4804 12.1012 16.2929 12.2887C16.1054 12.4762 16 12.7306 16 12.9958C16 13.261 16.1054 13.5154 16.2929 13.7029C16.4804 13.8904 16.7348 13.9958 17 13.9958H18V17.9958H2V13.9958H9C9.26522 13.9958 9.51957 13.8904 9.70711 13.7029C9.89464 13.5154 10 13.261 10 12.9958C10 12.7306 9.89464 12.4762 9.70711 12.2887C9.51957 12.1012 9.26522 11.9958 9 11.9958H8V6.9958C8 6.73058 7.89464 6.47623 7.70711 6.28869C7.51957 6.10116 7.26522 5.9958 7 5.9958H1C0.734784 5.9958 0.48043 6.10116 0.292893 6.28869C0.105357 6.47623 0 6.73058 0 6.9958V12.9958V18.9958C0 19.261 0.105357 19.5154 0.292893 19.7029C0.48043 19.8904 0.734784 19.9958 1 19.9958H19C19.2652 19.9958 19.5196 19.8904 19.7071 19.7029C19.8946 19.5154 20 19.261 20 18.9958V12.9958C20 12.7306 19.8946 12.4762 19.7071 12.2887C19.5196 12.1012 19.2652 11.9958 19 11.9958ZM2 7.9958H6V11.9958H2V7.9958ZM10.71 4.6958L12 3.4058V14.9958C12 15.261 12.1054 15.5154 12.2929 15.7029C12.4804 15.8904 12.7348 15.9958 13 15.9958C13.2652 15.9958 13.5196 15.8904 13.7071 15.7029C13.8946 15.5154 14 15.261 14 14.9958V3.4058L15.29 4.6958C15.3826 4.79029 15.4931 4.86546 15.6149 4.91695C15.7368 4.96845 15.8677 4.99525 16 4.9958C16.1316 4.99656 16.2621 4.97133 16.3839 4.92157C16.5057 4.87181 16.6166 4.79848 16.71 4.7058C16.8963 4.51844 17.0008 4.26498 17.0008 4.0008C17.0008 3.73661 16.8963 3.48316 16.71 3.2958L13.71 0.295798C13.617 0.20207 13.5064 0.127676 13.3846 0.0769069C13.2627 0.0261382 13.132 0 13 0C12.868 0 12.7373 0.0261382 12.6154 0.0769069C12.4936 0.127676 12.383 0.20207 12.29 0.295798L9.29 3.2958C9.10375 3.48316 8.99921 3.73661 8.99921 4.0008C8.99921 4.26498 9.10375 4.51844 9.29 4.7058C9.38362 4.79887 9.49475 4.87249 9.61696 4.92241C9.73918 4.97232 9.87007 4.99754 10.0021 4.99661C10.1341 4.99568 10.2646 4.96862 10.3861 4.91699C10.5076 4.86536 10.6177 4.79018 10.71 4.6958V4.6958Z" fill="var(--fill-0, #1E1F26)"/>
</svg>
