<svg preserveAspectRatio="none" width="100%" height="100%" overflow="visible" style="display: block;" viewBox="0 0 21.003 19" fill="none" xmlns="http://www.w3.org/2000/svg">
<path id="Vector" d="M19 11C18.7348 11 18.4804 11.1054 18.2929 11.2929C18.1054 11.4804 18 11.7348 18 12V16C18 16.2652 17.8946 16.5196 17.7071 16.7071C17.5196 16.8946 17.2652 17 17 17H3C2.73478 17 2.48043 16.8946 2.29289 16.7071C2.10536 16.5196 2 16.2652 2 16V6.41L7.88 12.3C8.44124 12.8567 9.19951 13.1693 9.99 13.17C10.8004 13.1658 11.5764 12.8425 12.15 12.27L13.87 10.55C13.9632 10.4568 14.0372 10.3461 14.0877 10.2242C14.1381 10.1024 14.1641 9.97186 14.1641 9.84C14.1641 9.70814 14.1381 9.57757 14.0877 9.45575C14.0372 9.33393 13.9632 9.22324 13.87 9.13C13.7768 9.03676 13.6661 8.9628 13.5442 8.91234C13.4224 8.86188 13.2919 8.83591 13.16 8.83591C13.0281 8.83591 12.8976 8.86188 12.7758 8.91234C12.6539 8.9628 12.5432 9.03676 12.45 9.13L10.7 10.88C10.5131 11.0632 10.2618 11.1659 10 11.1659C9.73825 11.1659 9.48693 11.0632 9.3 10.88L3.41 5H9C9.26522 5 9.51957 4.89464 9.70711 4.70711C9.89464 4.51957 10 4.26522 10 4C10 3.73478 9.89464 3.48043 9.70711 3.29289C9.51957 3.10536 9.26522 3 9 3H3C2.20435 3 1.44129 3.31607 0.87868 3.87868C0.31607 4.44129 0 5.20435 0 6V16C0 16.7956 0.31607 17.5587 0.87868 18.1213C1.44129 18.6839 2.20435 19 3 19H17C17.7956 19 18.5587 18.6839 19.1213 18.1213C19.6839 17.5587 20 16.7956 20 16V12C20 11.7348 19.8946 11.4804 19.7071 11.2929C19.5196 11.1054 19.2652 11 19 11ZM19 5C18.5752 5.0014 18.1619 5.13799 17.82 5.39L16.07 4.59L18 3.71C18.3019 3.89326 18.6469 3.99332 19 4C19.3956 4 19.7822 3.8827 20.1111 3.66294C20.44 3.44318 20.6964 3.13082 20.8478 2.76537C20.9991 2.39992 21.0387 1.99778 20.9616 1.60982C20.8844 1.22186 20.6939 0.865492 20.4142 0.585787C20.1345 0.306082 19.7781 0.115601 19.3902 0.0384303C19.0022 -0.0387401 18.6001 0.000866564 18.2346 0.152242C17.8692 0.303617 17.5568 0.559962 17.3371 0.88886C17.1173 1.21776 17 1.60444 17 2L15.1 2.87C14.778 2.64066 14.3952 2.5119 14 2.5C13.4696 2.5 12.9609 2.71071 12.5858 3.08579C12.2107 3.46086 12 3.96957 12 4.5C12 5.03043 12.2107 5.53914 12.5858 5.91421C12.9609 6.28929 13.4696 6.5 14 6.5C14.3222 6.50015 14.639 6.41751 14.92 6.26L17.02 7.26C17.07 7.64133 17.2289 8.00016 17.4776 8.29349C17.7264 8.58683 18.0544 8.80222 18.4224 8.91387C18.7905 9.02552 19.1829 9.02868 19.5527 8.92299C19.9224 8.8173 20.2539 8.60723 20.5074 8.31795C20.7608 8.02867 20.9255 7.67245 20.9816 7.29198C21.0377 6.91151 20.983 6.52291 20.8239 6.17276C20.6649 5.8226 20.4082 5.52574 20.0847 5.31774C19.7612 5.10974 19.3846 4.99942 19 5V5Z" fill="var(--fill-0, #1E1F26)"/>
</svg>
