<svg preserveAspectRatio="none" width="100%" height="100%" overflow="visible" style="display: block;" viewBox="0 0 20.0282 20.0009" fill="none" xmlns="http://www.w3.org/2000/svg">
<path id="Vector" d="M10.0282 8C9.76297 8 9.50862 8.10536 9.32108 8.29289C9.13354 8.48043 9.02819 8.73478 9.02819 9V13C9.02819 13.2652 9.13354 13.5196 9.32108 13.7071C9.50862 13.8946 9.76297 14 10.0282 14C10.2934 14 10.5478 13.8946 10.7353 13.7071C10.9228 13.5196 11.0282 13.2652 11.0282 13V9C11.0282 8.73478 10.9228 8.48043 10.7353 8.29289C10.5478 8.10536 10.2934 8 10.0282 8ZM6.02819 11C5.76297 11 5.50862 11.1054 5.32108 11.2929C5.13354 11.4804 5.02819 11.7348 5.02819 12V13C5.02819 13.2652 5.13354 13.5196 5.32108 13.7071C5.50862 13.8946 5.76297 14 6.02819 14C6.2934 14 6.54776 13.8946 6.73529 13.7071C6.92283 13.5196 7.02819 13.2652 7.02819 13V12C7.02819 11.7348 6.92283 11.4804 6.73529 11.2929C6.54776 11.1054 6.2934 11 6.02819 11V11ZM10.0282 0C8.71497 0 7.41461 0.258658 6.20135 0.761205C4.9881 1.26375 3.8857 2.00035 2.95712 2.92893C1.08175 4.8043 0.0281864 7.34784 0.0281864 10C0.0194442 12.3091 0.818979 14.5485 2.28819 16.33L0.288186 18.33C0.149429 18.4706 0.0554325 18.6492 0.0180584 18.8432C-0.0193158 19.0372 0.0016069 19.2379 0.0781863 19.42C0.161244 19.5999 0.29589 19.7511 0.465033 19.8544C0.634176 19.9577 0.830187 20.0083 1.02819 20H10.0282C12.6804 20 15.2239 18.9464 17.0993 17.0711C18.9746 15.1957 20.0282 12.6522 20.0282 10C20.0282 7.34784 18.9746 4.8043 17.0993 2.92893C15.2239 1.05357 12.6804 0 10.0282 0V0ZM10.0282 18H3.43819L4.36819 17.07C4.46267 16.9774 4.53784 16.8669 4.58934 16.7451C4.64084 16.6232 4.66764 16.4923 4.66819 16.36C4.66443 16.0962 4.5566 15.8446 4.36819 15.66C3.05877 14.352 2.24336 12.6305 2.06088 10.7888C1.87839 8.94705 2.34013 7.09901 3.36741 5.55952C4.3947 4.02004 5.92398 2.88436 7.6947 2.34597C9.46543 1.80759 11.368 1.8998 13.0784 2.60691C14.7888 3.31402 16.201 4.59227 17.0746 6.22389C17.9482 7.85551 18.2291 9.73954 17.8693 11.555C17.5096 13.3705 16.5315 15.005 15.1017 16.1802C13.672 17.3554 11.8789 17.9985 10.0282 18V18ZM14.0282 6C13.763 6 13.5086 6.10536 13.3211 6.29289C13.1335 6.48043 13.0282 6.73478 13.0282 7V13C13.0282 13.2652 13.1335 13.5196 13.3211 13.7071C13.5086 13.8946 13.763 14 14.0282 14C14.2934 14 14.5478 13.8946 14.7353 13.7071C14.9228 13.5196 15.0282 13.2652 15.0282 13V7C15.0282 6.73478 14.9228 6.48043 14.7353 6.29289C14.5478 6.10536 14.2934 6 14.0282 6Z" fill="var(--fill-0, #1E1F26)"/>
</svg>
