<svg preserveAspectRatio="none" width="100%" height="100%" overflow="visible" style="display: block;" viewBox="0 0 20.0008 19.9958" fill="none" xmlns="http://www.w3.org/2000/svg">
<path id="Vector" d="M17 7.9958C16.7348 7.9958 16.4804 8.10116 16.2929 8.28869C16.1054 8.47623 16 8.73058 16 8.9958V12.3858L14.52 10.9058C14.2626 10.6467 13.9564 10.441 13.6192 10.3007C13.2819 10.1604 12.9203 10.0881 12.555 10.0881C12.1897 10.0881 11.8281 10.1604 11.4908 10.3007C11.1536 10.441 10.8474 10.6467 10.59 10.9058L9.89 11.6058L7.41 9.1158C6.88742 8.59734 6.18113 8.30642 5.445 8.30642C4.70887 8.30642 4.00258 8.59734 3.48 9.1158L2 10.5958V4.9958C2 4.73058 2.10536 4.47623 2.29289 4.28869C2.48043 4.10116 2.73478 3.9958 3 3.9958H11C11.2652 3.9958 11.5196 3.89044 11.7071 3.7029C11.8946 3.51537 12 3.26101 12 2.9958C12 2.73058 11.8946 2.47623 11.7071 2.28869C11.5196 2.10116 11.2652 1.9958 11 1.9958H3C2.20435 1.9958 1.44129 2.31187 0.87868 2.87448C0.316071 3.43709 0 4.20015 0 4.9958V16.9958C0 17.7914 0.316071 18.5545 0.87868 19.1171C1.44129 19.6797 2.20435 19.9958 3 19.9958H15C15.7956 19.9958 16.5587 19.6797 17.1213 19.1171C17.6839 18.5545 18 17.7914 18 16.9958V8.9958C18 8.73058 17.8946 8.47623 17.7071 8.28869C17.5196 8.10116 17.2652 7.9958 17 7.9958ZM3 17.9958C2.73478 17.9958 2.48043 17.8904 2.29289 17.7029C2.10536 17.5154 2 17.261 2 16.9958V13.4258L4.9 10.5258C5.04691 10.3858 5.24206 10.3077 5.445 10.3077C5.64794 10.3077 5.84309 10.3858 5.99 10.5258L9.16 13.6958L13.45 17.9958H3ZM16 16.9958C15.9986 17.1872 15.9354 17.3731 15.82 17.5258L11.31 12.9958L12.01 12.2958C12.1562 12.1505 12.3539 12.0689 12.56 12.0689C12.7661 12.0689 12.9638 12.1505 13.11 12.2958L16 15.2158V16.9958ZM18.41 2.9958L19.71 1.7058C19.8963 1.51844 20.0008 1.26498 20.0008 1.0008C20.0008 0.736613 19.8963 0.483161 19.71 0.295798C19.617 0.20207 19.5064 0.127676 19.3846 0.0769069C19.2627 0.0261382 19.132 0 19 0C18.868 0 18.7373 0.0261382 18.6154 0.0769069C18.4936 0.127676 18.383 0.20207 18.29 0.295798L17 1.5858L15.71 0.295798C15.617 0.20207 15.5064 0.127676 15.3846 0.0769069C15.2627 0.0261382 15.132 0 15 0C14.868 0 14.7373 0.0261382 14.6154 0.0769069C14.4936 0.127676 14.383 0.20207 14.29 0.295798C14.1037 0.483161 13.9992 0.736613 13.9992 1.0008C13.9992 1.26498 14.1037 1.51844 14.29 1.7058L15.59 2.9958L14.29 4.2958C14.1037 4.48316 13.9992 4.73661 13.9992 5.0008C13.9992 5.26498 14.1037 5.51844 14.29 5.7058C14.383 5.79953 14.4936 5.87392 14.6154 5.92469C14.7373 5.97546 14.868 6.0016 15 6.0016C15.132 6.0016 15.2627 5.97546 15.3846 5.92469C15.5064 5.87392 15.617 5.79953 15.71 5.7058L17 4.4158L18.29 5.7058C18.383 5.79953 18.4936 5.87392 18.6154 5.92469C18.7373 5.97546 18.868 6.0016 19 6.0016C19.132 6.0016 19.2627 5.97546 19.3846 5.92469C19.5064 5.87392 19.617 5.79953 19.71 5.7058C19.8963 5.51844 20.0008 5.26498 20.0008 5.0008C20.0008 4.73661 19.8963 4.48316 19.71 4.2958L18.41 2.9958Z" fill="var(--fill-0, #1E1F26)"/>
</svg>
