<svg preserveAspectRatio="none" width="100%" height="100%" overflow="visible" style="display: block;" viewBox="0 0 20 19" fill="none" xmlns="http://www.w3.org/2000/svg">
<path id="Vector" d="M10.71 8.29002C10.6149 8.19898 10.5028 8.12762 10.38 8.08002C10.1365 7.98 9.86346 7.98 9.62 8.08002C9.49725 8.12762 9.3851 8.19898 9.29 8.29002L7.29 10.29C7.1017 10.4783 6.99591 10.7337 6.99591 11C6.99591 11.2663 7.1017 11.5217 7.29 11.71C7.4783 11.8983 7.7337 12.0041 8 12.0041C8.2663 12.0041 8.5217 11.8983 8.71 11.71L9 11.41V14C9 14.2652 9.10536 14.5196 9.29289 14.7071C9.48043 14.8947 9.73478 15 10 15C10.2652 15 10.5196 14.8947 10.7071 14.7071C10.8946 14.5196 11 14.2652 11 14V11.41L11.29 11.71C11.383 11.8038 11.4936 11.8781 11.6154 11.9289C11.7373 11.9797 11.868 12.0058 12 12.0058C12.132 12.0058 12.2627 11.9797 12.3846 11.9289C12.5064 11.8781 12.617 11.8038 12.71 11.71C12.8037 11.6171 12.8781 11.5065 12.9289 11.3846C12.9797 11.2627 13.0058 11.132 13.0058 11C13.0058 10.868 12.9797 10.7373 12.9289 10.6154C12.8781 10.4936 12.8037 10.383 12.71 10.29L10.71 8.29002ZM17 3.00002H10.72L10.4 2.00002C10.1926 1.41325 9.80775 0.905526 9.2989 0.547183C8.79005 0.188841 8.18236 -0.0023769 7.56 2.23036e-05H3C2.20435 2.23036e-05 1.44129 0.316093 0.87868 0.878702C0.316071 1.44131 0 2.20437 0 3.00002V16C0 16.7957 0.316071 17.5587 0.87868 18.1213C1.44129 18.684 2.20435 19 3 19H17C17.7956 19 18.5587 18.684 19.1213 18.1213C19.6839 17.5587 20 16.7957 20 16V6.00002C20 5.20437 19.6839 4.44131 19.1213 3.8787C18.5587 3.31609 17.7956 3.00002 17 3.00002ZM18 16C18 16.2652 17.8946 16.5196 17.7071 16.7071C17.5196 16.8947 17.2652 17 17 17H3C2.73478 17 2.48043 16.8947 2.29289 16.7071C2.10536 16.5196 2 16.2652 2 16V3.00002C2 2.73481 2.10536 2.48045 2.29289 2.29292C2.48043 2.10538 2.73478 2.00002 3 2.00002H7.56C7.76964 1.99948 7.97416 2.06484 8.14463 2.18686C8.3151 2.30889 8.44291 2.4814 8.51 2.68002L9.05 4.32002C9.11709 4.51864 9.2449 4.69116 9.41537 4.81318C9.58584 4.9352 9.79036 5.00056 10 5.00002H17C17.2652 5.00002 17.5196 5.10538 17.7071 5.29292C17.8946 5.48045 18 5.73481 18 6.00002V16Z" fill="var(--fill-0, #1E1F26)"/>
</svg>
