<svg preserveAspectRatio="none" width="100%" height="100%" overflow="visible" style="display: block;" viewBox="0 0 21.0412 18.9998" fill="none" xmlns="http://www.w3.org/2000/svg">
<path id="Vector" d="M16 9.99983C17.1582 10.0094 18.2837 9.61657 19.1844 8.88847C20.0852 8.16038 20.7052 7.14217 20.9386 6.00774C21.1721 4.8733 21.0044 3.69302 20.4643 2.66845C19.9243 1.64388 19.0452 0.838584 17.9774 0.390091C16.9096 -0.0584018 15.7191 -0.122271 14.6094 0.20939C13.4997 0.541051 12.5396 1.24767 11.893 2.20857C11.2464 3.16947 10.9534 4.32504 11.0641 5.47794C11.1748 6.63083 11.6824 7.70954 12.5 8.52983C13.4281 9.46089 14.6855 9.98899 16 9.99983V9.99983ZM18.12 7.11983C17.6818 7.55454 17.1201 7.8435 16.5117 7.9473C15.9032 8.05109 15.2775 7.96468 14.72 7.69983L18.72 3.69983C18.9869 4.26174 19.0726 4.89273 18.9651 5.50546C18.8576 6.11818 18.5623 6.68234 18.12 7.11983ZM13.88 2.87983C14.4421 2.31706 15.2046 2.00053 16 1.99983C16.4436 2.00396 16.8808 2.10642 17.28 2.29983L13.28 6.29983C13.0131 5.73792 12.9274 5.10693 13.0349 4.49421C13.1424 3.88148 13.4377 3.31732 13.88 2.87983V2.87983ZM19 10.9998C18.7348 10.9998 18.4804 11.1052 18.2929 11.2927C18.1054 11.4803 18 11.7346 18 11.9998V15.9998C18 16.265 17.8946 16.5194 17.7071 16.7069C17.5196 16.8945 17.2652 16.9998 17 16.9998H3C2.73478 16.9998 2.48043 16.8945 2.29289 16.7069C2.10536 16.5194 2 16.265 2 15.9998V6.40983L7.88 12.2898C8.43962 12.8502 9.19809 13.1665 9.99 13.1698C10.3927 13.1709 10.7915 13.0908 11.1625 12.9345C11.5336 12.7782 11.8695 12.5487 12.15 12.2598C12.3302 12.0734 12.431 11.8242 12.431 11.5648C12.431 11.3055 12.3302 11.0563 12.15 10.8698C12.0569 10.7746 11.9456 10.6989 11.8229 10.6472C11.7001 10.5956 11.5682 10.569 11.435 10.569C11.3018 10.569 11.1699 10.5956 11.0471 10.6472C10.9244 10.6989 10.8131 10.7746 10.72 10.8698C10.5331 11.0531 10.2818 11.1557 10.02 11.1557C9.75825 11.1557 9.50693 11.0531 9.32 10.8698L3.41 4.99983H8C8.26522 4.99983 8.51957 4.89447 8.70711 4.70694C8.89464 4.5194 9 4.26505 9 3.99983C9 3.73462 8.89464 3.48026 8.70711 3.29272C8.51957 3.10519 8.26522 2.99983 8 2.99983H3C2.20435 2.99983 1.44129 3.3159 0.87868 3.87851C0.316071 4.44112 0 5.20418 0 5.99983V15.9998C0 16.7955 0.316071 17.5585 0.87868 18.1212C1.44129 18.6838 2.20435 18.9998 3 18.9998H17C17.7956 18.9998 18.5587 18.6838 19.1213 18.1212C19.6839 17.5585 20 16.7955 20 15.9998V11.9998C20 11.7346 19.8946 11.4803 19.7071 11.2927C19.5196 11.1052 19.2652 10.9998 19 10.9998Z" fill="var(--fill-0, #1E1F26)"/>
</svg>
