<svg preserveAspectRatio="none" width="100%" height="100%" overflow="visible" style="display: block;" viewBox="0 0 20.0043 20.0399" fill="none" xmlns="http://www.w3.org/2000/svg">
<path id="Vector" d="M17.2241 4.00409H10.6641C10.3989 4.00409 10.1445 4.10945 9.95698 4.29699C9.76945 4.48452 9.66409 4.73888 9.66409 5.00409C9.66409 5.26931 9.76945 5.52366 9.95698 5.7112C10.1445 5.89873 10.3989 6.00409 10.6641 6.00409H17.2241C17.431 6.00409 17.6294 6.08627 17.7756 6.23255C17.9219 6.37883 18.0041 6.57722 18.0041 6.78409V7.56409H14.2241C13.9589 7.56409 13.7045 7.66945 13.517 7.85698C13.3294 8.04452 13.2241 8.29888 13.2241 8.56409C13.2241 8.82931 13.3294 9.08366 13.517 9.2712C13.7045 9.45873 13.9589 9.56409 14.2241 9.56409H16.5941L15.8941 10.2541C15.8004 10.3471 15.726 10.4577 15.6752 10.5795C15.6244 10.7014 15.5983 10.8321 15.5983 10.9641C15.5983 11.0961 15.6244 11.2268 15.6752 11.3487C15.726 11.4705 15.8004 11.5811 15.8941 11.6741C15.9871 11.7678 16.0977 11.8422 16.2195 11.893C16.3414 11.9438 16.4721 11.9699 16.6041 11.9699C16.7361 11.9699 16.8668 11.9438 16.9887 11.893C17.1105 11.8422 17.2211 11.7678 17.3141 11.6741L19.1941 9.79409C19.4242 9.56487 19.6075 9.29318 19.7341 8.99409V8.89409C19.8999 8.56096 19.992 8.19601 20.0041 7.82409V6.82409C20.0081 6.45603 19.9391 6.09082 19.8013 5.7495C19.6635 5.40819 19.4595 5.09752 19.2011 4.83539C18.9427 4.57326 18.635 4.36486 18.2957 4.22218C17.9564 4.07951 17.5922 4.00539 17.2241 4.00409V4.00409ZM1.71409 0.294092C1.62085 0.200853 1.51016 0.126892 1.38834 0.0764319C1.26652 0.0259715 1.13595 0 1.00409 0C0.872232 0 0.741664 0.0259715 0.619842 0.0764319C0.49802 0.126892 0.38733 0.200853 0.294092 0.294092C0.105788 0.482395 0 0.73779 0 1.00409C0 1.27039 0.105788 1.52579 0.294092 1.71409L3.14409 4.55409C2.78991 4.80785 2.50161 5.1427 2.30328 5.53065C2.10496 5.9186 2.00237 6.34839 2.00409 6.78409V7.78409C2.00438 8.16372 2.08622 8.53885 2.24409 8.88409V8.94409C2.3717 9.24557 2.55489 9.52035 2.78409 9.75409L8.19409 15.1541V19.0041C8.19375 19.174 8.23673 19.3413 8.31896 19.49C8.4012 19.6387 8.51998 19.764 8.66409 19.8541C8.82323 19.9527 9.00687 20.0047 9.19409 20.0041C9.35063 20.0032 9.50477 19.9655 9.64409 19.8941L13.2041 18.1141C13.369 18.031 13.5077 17.9038 13.6048 17.7468C13.7018 17.5897 13.7535 17.4088 13.7541 17.2241V15.2241L18.2641 19.7441C18.3571 19.8378 18.4677 19.9122 18.5895 19.963C18.7114 20.0138 18.8421 20.0399 18.9741 20.0399C19.1061 20.0399 19.2368 20.0138 19.3587 19.963C19.4805 19.9122 19.5911 19.8378 19.6841 19.7441C19.7778 19.6511 19.8522 19.5405 19.903 19.4187C19.9538 19.2968 19.9799 19.1661 19.9799 19.0341C19.9799 18.9021 19.9538 18.7714 19.903 18.6495C19.8522 18.5277 19.7778 18.4171 19.6841 18.3241L1.71409 0.294092ZM4.00409 6.78409C4.00288 6.62714 4.0503 6.47366 4.13983 6.34474C4.22936 6.21582 4.3566 6.11778 4.50409 6.06409L4.59409 6.00409L6.15409 7.56409H4.00409V6.78409ZM12.0741 14.0741C11.9814 14.1675 11.9081 14.2783 11.8583 14.4002C11.8086 14.522 11.7833 14.6525 11.7841 14.7841V16.6041L10.2241 17.3841V14.7841C10.2249 14.6525 10.1996 14.522 10.1499 14.4002C10.1001 14.2783 10.0268 14.1675 9.93409 14.0741L5.41409 9.56409H8.15409L12.3741 13.7841L12.0741 14.0741Z" fill="var(--fill-0, #1E1F26)"/>
</svg>
