<svg preserveAspectRatio="none" width="100%" height="100%" overflow="visible" style="display: block;" viewBox="0 0 15 13.5" fill="none" xmlns="http://www.w3.org/2000/svg">
<path id="Vector" d="M0 0.74475C0.00137253 0.547784 0.0801752 0.359263 0.219385 0.219913C0.358594 0.0805635 0.547035 0.00157099 0.744 0H14.256C14.667 0 15 0.33375 15 0.74475V12.7553C14.9986 12.9522 14.9198 13.1407 14.7806 13.2801C14.6414 13.4194 14.453 13.4984 14.256 13.5H0.744C0.54661 13.4998 0.357373 13.4212 0.217867 13.2816C0.0783615 13.142 -1.00091e-07 12.9526 0 12.7553V0.74475ZM7.5 1.5V12H13.5V1.5H7.5ZM8.25 3H12.75V4.5H8.25V3ZM8.25 5.25H12.75V6.75H8.25V5.25Z" fill="var(--fill-0, #525866)"/>
</svg>
