<svg preserveAspectRatio="none" width="100%" height="100%" overflow="visible" style="display: block;" viewBox="0 0 19.9766 19.8778" fill="none" xmlns="http://www.w3.org/2000/svg">
<path id="Vector" d="M18.9766 6.96032C19.1743 6.96032 19.3677 6.90167 19.5321 6.79179C19.6966 6.68191 19.8247 6.52573 19.9004 6.343C19.9761 6.16027 19.9959 5.95921 19.9573 5.76523C19.9188 5.57125 19.8235 5.39306 19.6837 5.25321C19.5438 5.11336 19.3656 5.01812 19.1716 4.97953C18.9777 4.94095 18.7766 4.96075 18.5939 5.03644C18.4111 5.11213 18.255 5.2403 18.1451 5.40475C18.0352 5.5692 17.9766 5.76254 17.9766 5.96032C17.9766 6.22553 18.0819 6.47989 18.2694 6.66742C18.457 6.85496 18.7113 6.96032 18.9766 6.96032ZM15.9766 6.96032C16.1743 6.96032 16.3677 6.90167 16.5321 6.79179C16.6966 6.68191 16.8247 6.52573 16.9004 6.343C16.9761 6.16027 16.9959 5.95921 16.9573 5.76523C16.9188 5.57125 16.8235 5.39306 16.6837 5.25321C16.5438 5.11336 16.3656 5.01812 16.1716 4.97953C15.9777 4.94095 15.7766 4.96075 15.5939 5.03644C15.4111 5.11213 15.255 5.2403 15.1451 5.40475C15.0352 5.5692 14.9766 5.76254 14.9766 5.96032C14.9766 6.22553 15.0819 6.47989 15.2694 6.66742C15.457 6.85496 15.7113 6.96032 15.9766 6.96032ZM12.9766 6.96032C13.1743 6.96032 13.3677 6.90167 13.5321 6.79179C13.6966 6.68191 13.8247 6.52573 13.9004 6.343C13.9761 6.16027 13.9959 5.95921 13.9573 5.76523C13.9188 5.57125 13.8235 5.39306 13.6837 5.25321C13.5438 5.11336 13.3656 5.01812 13.1716 4.97953C12.9777 4.94095 12.7766 4.96075 12.5939 5.03644C12.4111 5.11213 12.255 5.2403 12.1451 5.40475C12.0352 5.5692 11.9766 5.76254 11.9766 5.96032C11.9766 6.09164 12.0024 6.22168 12.0527 6.343C12.1029 6.46433 12.1766 6.57457 12.2694 6.66742C12.3623 6.76028 12.4725 6.83394 12.5939 6.8842C12.7152 6.93445 12.8452 6.96032 12.9766 6.96032V6.96032ZM17.4166 10.9603C17.1966 10.9603 16.9666 10.8903 16.7466 10.8403C16.301 10.7421 15.8632 10.6118 15.4366 10.4503C14.9726 10.2815 14.4627 10.2903 14.0049 10.4749C13.547 10.6595 13.1736 11.007 12.9566 11.4503L12.7366 11.9003C11.7611 11.3561 10.863 10.6835 10.0666 9.90032C9.28723 9.10424 8.61491 8.21005 8.06656 7.24032L8.50656 6.96032C8.94992 6.74323 9.29734 6.36985 9.48195 5.91201C9.66656 5.45417 9.67533 4.94423 9.50656 4.48032C9.34778 4.05274 9.21749 3.61512 9.11656 3.17032C9.06656 2.94032 9.02656 2.72032 8.99656 2.49032C8.87512 1.78594 8.50618 1.14806 7.95618 0.691557C7.40617 0.235054 6.71125 -0.0100738 5.99656 0.000317303H2.99656C2.5738 -0.000236465 2.15571 0.0885654 1.76967 0.260901C1.38364 0.433237 1.03839 0.685215 0.756555 1.00032C0.470244 1.32281 0.256828 1.70325 0.130852 2.11569C0.00487659 2.52813 -0.0306973 2.96288 0.0265554 3.39032C0.553267 7.57736 2.45893 11.4699 5.44295 14.4539C8.42698 17.4379 12.3195 19.3436 16.5066 19.8703C16.6364 19.8802 16.7667 19.8802 16.8966 19.8703C17.6922 19.8703 18.4553 19.5542 19.0179 18.9916C19.5805 18.429 19.8966 17.666 19.8966 16.8703V13.8703C19.8862 13.1725 19.6328 12.5002 19.1802 11.9691C18.7275 11.4379 18.1039 11.0812 17.4166 10.9603V10.9603ZM17.9066 16.9603C17.9082 17.1053 17.8783 17.2488 17.8189 17.3811C17.7596 17.5134 17.6722 17.6311 17.5628 17.7262C17.4534 17.8214 17.3246 17.8916 17.1854 17.932C17.0462 17.9724 16.8999 17.9821 16.7566 17.9603C13.0227 17.4731 9.55366 15.7684 6.88656 13.1103C4.22155 10.4252 2.5198 6.93376 2.04656 3.18032C2.02483 3.03365 2.03599 2.88399 2.07923 2.74217C2.12247 2.60035 2.1967 2.46992 2.29656 2.36032C2.38915 2.2549 2.50289 2.17015 2.63038 2.11158C2.75787 2.053 2.89626 2.02191 3.03656 2.02032H6.03656C6.2691 2.01514 6.49618 2.0912 6.6787 2.23539C6.86122 2.37958 6.98777 2.58289 7.03656 2.81032C7.07656 3.08365 7.12656 3.35365 7.18656 3.62032C7.30208 4.14746 7.45581 4.6655 7.64656 5.17032L6.24656 5.82032C6.12685 5.87524 6.01918 5.95326 5.92971 6.04991C5.84025 6.14656 5.77076 6.25993 5.72523 6.38351C5.6797 6.50709 5.65903 6.63845 5.6644 6.77004C5.66978 6.90163 5.7011 7.03086 5.75656 7.15032C7.19576 10.2331 9.6738 12.7111 12.7566 14.1503C13 14.2503 13.2731 14.2503 13.5166 14.1503C13.7647 14.058 13.9661 13.871 14.0766 13.6303L14.7066 12.2303C15.2235 12.4152 15.7511 12.5688 16.2866 12.6903C16.5466 12.7503 16.8266 12.8003 17.0966 12.8403C17.3221 12.8911 17.5231 13.0185 17.6654 13.2009C17.8076 13.3832 17.8822 13.6092 17.8766 13.8403L17.9066 16.9603Z" fill="var(--fill-0, #1E1F26)"/>
</svg>
