<svg preserveAspectRatio="none" width="100%" height="100%" overflow="visible" style="display: block;" viewBox="0 0 21 19" fill="none" xmlns="http://www.w3.org/2000/svg">
<path id="Vector" d="M19 11C18.7348 11 18.4804 11.1054 18.2929 11.2929C18.1054 11.4804 18 11.7348 18 12V16C18 16.2652 17.8946 16.5196 17.7071 16.7071C17.5196 16.8946 17.2652 17 17 17H3C2.73478 17 2.48043 16.8946 2.29289 16.7071C2.10536 16.5196 2 16.2652 2 16V6.41L7.88 12.29C8.43962 12.8503 9.19809 13.1667 9.99 13.17C10.3927 13.171 10.7915 13.091 11.1625 12.9347C11.5336 12.7783 11.8695 12.5489 12.15 12.26C12.3302 12.0735 12.431 11.8243 12.431 11.565C12.431 11.3057 12.3302 11.0565 12.15 10.87C12.0569 10.7748 11.9456 10.6991 11.8229 10.6474C11.7001 10.5957 11.5682 10.5691 11.435 10.5691C11.3018 10.5691 11.1699 10.5957 11.0471 10.6474C10.9244 10.6991 10.8131 10.7748 10.72 10.87C10.5331 11.0532 10.2818 11.1559 10.02 11.1559C9.75825 11.1559 9.50693 11.0532 9.32 10.87L3.41 5H8C8.26522 5 8.51957 4.89464 8.70711 4.70711C8.89464 4.51957 9 4.26522 9 4C9 3.73478 8.89464 3.48043 8.70711 3.29289C8.51957 3.10536 8.26522 3 8 3H3C2.20435 3 1.44129 3.31607 0.87868 3.87868C0.316071 4.44129 0 5.20435 0 6V16C0 16.7956 0.316071 17.5587 0.87868 18.1213C1.44129 18.6839 2.20435 19 3 19H17C17.7956 19 18.5587 18.6839 19.1213 18.1213C19.6839 17.5587 20 16.7956 20 16V12C20 11.7348 19.8946 11.4804 19.7071 11.2929C19.5196 11.1054 19.2652 11 19 11V11ZM20 3.97632e-07C19.7348 3.97632e-07 19.4804 0.105357 19.2929 0.292894C19.1054 0.48043 19 0.734784 19 1C18.3662 0.524645 17.6285 0.206706 16.8477 0.0723852C16.0669 -0.0619356 15.2654 -0.00879344 14.5092 0.227433C13.7529 0.463659 13.0637 0.876206 12.4982 1.43108C11.9327 1.98595 11.5071 2.66726 11.2566 3.41886C11.006 4.17046 10.9377 4.97084 11.0572 5.75404C11.1767 6.53724 11.4805 7.28084 11.9438 7.92355C12.407 8.56627 13.0164 9.0897 13.7216 9.45072C14.4268 9.81173 15.2077 10 16 10C17.2167 9.99549 18.3899 9.54751 19.3 8.74C19.5002 8.56496 19.6227 8.31754 19.6406 8.05218C19.6584 7.78681 19.57 7.52524 19.395 7.325C19.22 7.12476 18.9725 7.00226 18.7072 6.98444C18.4418 6.96663 18.1802 7.05496 17.98 7.23C17.5362 7.62345 16.9858 7.87655 16.3983 7.95732C15.8108 8.0381 15.2125 7.94292 14.679 7.68381C14.1456 7.4247 13.7009 7.01329 13.4011 6.50156C13.1014 5.98982 12.96 5.40073 12.9949 4.8087C13.0298 4.21667 13.2394 3.64826 13.5972 3.1753C13.955 2.70234 14.445 2.34604 15.0052 2.15142C15.5654 1.9568 16.1708 1.93258 16.7447 2.08184C17.3187 2.2311 17.8356 2.54713 18.23 2.99H17C16.7348 2.99 16.4804 3.09536 16.2929 3.28289C16.1054 3.47043 16 3.72478 16 3.99C16 4.25522 16.1054 4.50957 16.2929 4.69711C16.4804 4.88464 16.7348 4.99 17 4.99H20C20.2652 4.99 20.5196 4.88464 20.7071 4.69711C20.8946 4.50957 21 4.25522 21 3.99V0.99C20.9974 0.726521 20.8908 0.474728 20.7036 0.289349C20.5163 0.10397 20.2635 -1.27773e-05 20 3.97632e-07V3.97632e-07Z" fill="var(--fill-0, #1E1F26)"/>
</svg>
