<svg preserveAspectRatio="none" width="100%" height="100%" overflow="visible" style="display: block;" viewBox="0 0 20.0413 19.1238" fill="none" xmlns="http://www.w3.org/2000/svg">
<path id="Vector" d="M19.5901 6.7326L10.5901 0.192597C10.4188 0.0674486 10.2122 0 10.0001 0C9.78798 0 9.58135 0.0674486 9.41009 0.192597L0.410092 6.7326C0.239424 6.85728 0.11265 7.03284 0.0479715 7.23406C-0.0167072 7.43528 -0.0159649 7.65182 0.0500919 7.8526L3.49009 18.4326C3.5579 18.6414 3.69256 18.8222 3.87329 18.9469C4.05402 19.0716 4.27078 19.1333 4.49009 19.1226H15.5601C15.7794 19.1333 15.9962 19.0716 16.1769 18.9469C16.3576 18.8222 16.4923 18.6414 16.5601 18.4326L20.0001 7.8526C20.0611 7.64664 20.0542 7.4265 19.9803 7.22478C19.9065 7.02306 19.7697 6.85049 19.5901 6.7326ZM14.8401 17.1226H5.16009L2.16009 7.9226L10.0001 2.2426L17.8201 7.9226L14.8401 17.1226Z" fill="var(--fill-0, #1E1F26)"/>
</svg>
