<svg preserveAspectRatio="none" width="100%" height="100%" overflow="visible" style="display: block;" viewBox="0 0 22.0015 20.0094" fill="none" xmlns="http://www.w3.org/2000/svg">
<path id="Vector" d="M0.04 15.5291C0.106667 15.4224 0.213333 15.4158 0.36 15.5091C3.66103 17.4339 7.41891 18.4355 11.24 18.4091C13.8878 18.4027 16.5118 17.9077 18.98 16.9491C19.0467 16.9224 19.1433 16.8824 19.27 16.8291C19.3967 16.7758 19.4867 16.7358 19.54 16.7091C19.619 16.666 19.7114 16.6545 19.7986 16.6767C19.8858 16.699 19.9613 16.7534 20.01 16.8291C20.1233 16.9891 20.0867 17.1358 19.9 17.2691C19.66 17.4424 19.3533 17.6424 18.98 17.8691C17.7795 18.5714 16.4871 19.1031 15.14 19.4491C13.79 19.814 12.3984 20.0022 11 20.0091C8.98223 20.0207 6.98045 19.6508 5.1 18.9191C3.26791 18.2055 1.58056 17.1654 0.12 15.8491C0.0864675 15.8267 0.058315 15.7972 0.0375663 15.7626C0.0168176 15.728 0.00398808 15.6892 0 15.6491C0.000998877 15.606 0.0149355 15.5642 0.04 15.5291V15.5291ZM6.06 9.82911C6.03602 8.99091 6.27369 8.16604 6.74 7.46911C7.20442 6.80684 7.85033 6.29289 8.6 5.98911C9.45242 5.64883 10.3474 5.42677 11.26 5.32911C11.62 5.28911 12.2067 5.23578 13.02 5.16911V4.82911C13.0705 4.24144 12.9743 3.65041 12.74 3.10911C12.5887 2.90563 12.3882 2.74385 12.1574 2.63892C11.9265 2.53398 11.6728 2.48932 11.42 2.50911H11.26C10.848 2.53872 10.4527 2.68433 10.12 2.92911C9.79671 3.17424 9.57581 3.53054 9.5 3.92911C9.4921 4.03875 9.44883 4.14286 9.37671 4.22581C9.30458 4.30876 9.20748 4.36606 9.1 4.38911L6.8 4.10911C6.57333 4.05578 6.46 3.93578 6.46 3.74911C6.461 3.70181 6.46772 3.6548 6.48 3.60911C6.55744 3.07649 6.74616 2.56615 7.03389 2.11129C7.32162 1.65644 7.70191 1.26727 8.15 0.969112C9.08405 0.380848 10.1569 0.0496827 11.26 0.00911181H11.76C13.0541 -0.0686674 14.3286 0.353777 15.32 1.18911C15.4538 1.32305 15.5775 1.46678 15.69 1.61911C15.7886 1.74993 15.8788 1.88688 15.96 2.02911C16.0426 2.19379 16.1031 2.36863 16.14 2.54911C16.1933 2.77578 16.2333 2.93245 16.26 3.01911C16.2984 3.20335 16.3185 3.39092 16.32 3.57911C16.3333 3.86578 16.34 4.03578 16.34 4.08911V8.92911C16.3362 9.25196 16.3869 9.57314 16.49 9.87911C16.5575 10.0982 16.6551 10.3069 16.78 10.4991C16.8733 10.6258 17.0267 10.8291 17.24 11.1091C17.3102 11.2018 17.3519 11.313 17.36 11.4291C17.3581 11.4853 17.3425 11.5401 17.3146 11.5889C17.2867 11.6377 17.2474 11.6789 17.2 11.7091C16.0933 12.6691 15.4933 13.1891 15.4 13.2691C15.3164 13.3285 15.218 13.3637 15.1156 13.3708C15.0133 13.3778 14.911 13.3565 14.82 13.3091C14.6333 13.1491 14.47 12.9958 14.33 12.8491C14.19 12.7024 14.09 12.5958 14.03 12.5291C13.9263 12.4045 13.8295 12.2743 13.74 12.1391C13.6067 11.9458 13.5133 11.8158 13.46 11.7491C12.8814 12.4495 12.1198 12.9757 11.26 13.2691C10.7122 13.4143 10.1466 13.4816 9.58 13.4691C9.1164 13.4861 8.65405 13.4109 8.21974 13.2478C7.78544 13.0847 7.38784 12.837 7.05 12.5191C6.70721 12.1641 6.44214 11.7415 6.27169 11.2784C6.10124 10.8152 6.02915 10.3217 6.06 9.82911V9.82911ZM9.5 9.42911C9.47734 9.87888 9.6156 10.322 9.89 10.6791C10.0169 10.8331 10.1777 10.9557 10.3599 11.0372C10.542 11.1188 10.7406 11.1571 10.94 11.1491C10.9971 11.1472 11.054 11.1405 11.11 11.1291C11.1594 11.1187 11.2096 11.1121 11.26 11.1091C11.5415 11.0329 11.8033 10.897 12.0276 10.7106C12.2519 10.5243 12.4335 10.2918 12.56 10.0291C12.7091 9.76964 12.8202 9.49013 12.89 9.19911C12.9536 8.96026 12.9938 8.71577 13.01 8.46911C13.0167 8.28244 13.02 7.97578 13.02 7.54911V7.04911C12.429 7.03084 11.838 7.08457 11.26 7.20911C10.7468 7.30184 10.2851 7.5784 9.96112 7.98703C9.63717 8.39565 9.47323 8.90834 9.5 9.42911V9.42911ZM17.9 15.8691C17.9312 15.8097 17.9717 15.7557 18.02 15.7091C18.3115 15.5022 18.6361 15.3467 18.98 15.2491C19.4633 15.1192 19.9599 15.0454 20.46 15.0291C20.5869 15.0154 20.7152 15.0222 20.84 15.0491C21.44 15.1024 21.8 15.2024 21.92 15.3491C21.9806 15.459 22.0084 15.5839 22 15.7091V15.8491C21.9775 16.418 21.8486 16.9777 21.62 17.4991C21.3975 18.0883 21.0334 18.6137 20.56 19.0291C20.5106 19.0751 20.4473 19.1033 20.38 19.1091C20.3521 19.1088 20.3247 19.102 20.3 19.0891C20.22 19.0491 20.2 18.9758 20.24 18.8691C20.6196 18.1092 20.8697 17.2913 20.98 16.4491C20.9893 16.3365 20.9612 16.2241 20.9 16.1291C20.7667 15.9691 20.3933 15.8891 19.78 15.8891C19.5533 15.8891 19.2867 15.9024 18.98 15.9291C18.6467 15.9691 18.34 16.0091 18.06 16.0491C18.0036 16.0559 17.9466 16.0416 17.9 16.0091C17.888 16.0001 17.8794 15.9872 17.8758 15.9727C17.8721 15.9581 17.8736 15.9427 17.88 15.9291C17.8824 15.9079 17.8892 15.8875 17.9 15.8691Z" fill="var(--fill-0, #1E1F26)"/>
</svg>
