<svg preserveAspectRatio="none" width="100%" height="100%" overflow="visible" style="display: block;" viewBox="0 0 13.9746 21.8575" fill="none" xmlns="http://www.w3.org/2000/svg">
<path id="Vector" d="M12.4083 11.3875C13.5758 9.94997 14.1261 8.10836 13.9387 6.26594C13.7513 4.42353 12.8414 2.73046 11.4083 1.5575C10.5872 0.899481 9.63 0.432461 8.60605 0.190311C7.5821 -0.0518394 6.51709 -0.0630489 5.48827 0.157496C4.33312 0.412992 3.26158 0.957093 2.37372 1.73898C1.48585 2.52086 0.810646 3.51502 0.411157 4.6286C0.011668 5.74217 -0.0990678 6.93883 0.0892929 8.10681C0.277654 9.27478 0.758965 10.376 1.48827 11.3075C2.15295 12.1161 2.53253 13.1213 2.56827 14.1675V14.4575C2.18777 14.8251 1.96842 15.3285 1.95827 15.8575V17.8575C1.95827 18.3879 2.16899 18.8966 2.54406 19.2717C2.91913 19.6468 3.42784 19.8575 3.95827 19.8575V20.8575C3.95827 21.1227 4.06363 21.3771 4.25117 21.5646C4.4387 21.7521 4.69306 21.8575 4.95827 21.8575C5.22349 21.8575 5.47784 21.7521 5.66538 21.5646C5.85291 21.3771 5.95827 21.1227 5.95827 20.8575V19.8575H7.95827V20.8575C7.95827 21.1227 8.06363 21.3771 8.25117 21.5646C8.4387 21.7521 8.69306 21.8575 8.95827 21.8575C9.22349 21.8575 9.47784 21.7521 9.66538 21.5646C9.85291 21.3771 9.95827 21.1227 9.95827 20.8575V19.8575C10.4887 19.8575 10.9974 19.6468 11.3725 19.2717C11.7476 18.8966 11.9583 18.3879 11.9583 17.8575V15.8575C11.9587 15.3342 11.7541 14.8316 11.3883 14.4575V14.0275C11.4175 13.057 11.7773 12.1255 12.4083 11.3875V11.3875ZM3.95827 17.8575V15.8575H9.95827V17.8575H3.95827ZM10.8483 10.1375C9.96305 11.1816 9.44953 12.49 9.38827 13.8575H4.51827C4.42394 12.4721 3.89956 11.1506 3.01827 10.0775C2.48888 9.41313 2.13749 8.62483 1.99725 7.78699C1.85702 6.94916 1.93256 6.0894 2.21675 5.28886C2.50095 4.48831 2.98442 3.77337 3.62155 3.2115C4.25869 2.64963 5.02847 2.25935 5.85827 2.0775C6.59347 1.91166 7.35664 1.91417 8.09073 2.08485C8.82482 2.25552 9.51083 2.58994 10.0975 3.06309C10.6841 3.53624 11.1562 4.13589 11.4784 4.8172C11.8006 5.49851 11.9647 6.24385 11.9583 6.9975C11.9645 8.14137 11.572 9.25169 10.8483 10.1375Z" fill="var(--fill-0, #1E1F26)"/>
</svg>
