<svg preserveAspectRatio="none" width="100%" height="100%" overflow="visible" style="display: block;" viewBox="0 0 16 20" fill="none" xmlns="http://www.w3.org/2000/svg">
<path id="Vector" d="M8.57 15.29C8.38264 15.1037 8.12919 14.9992 7.865 14.9992C7.60081 14.9992 7.34736 15.1037 7.16 15.29C7.06656 15.3852 6.99192 15.4971 6.94 15.62C6.847 15.8648 6.847 16.1352 6.94 16.38C6.99436 16.5015 7.06872 16.6131 7.16 16.71C7.25215 16.8 7.36081 16.8713 7.48 16.92C7.60332 16.9725 7.73595 16.9997 7.87 17C8.03378 16.9992 8.19486 16.9582 8.33907 16.8805C8.48328 16.8029 8.60622 16.691 8.69707 16.5547C8.78792 16.4184 8.84391 16.2619 8.86011 16.0989C8.87632 15.936 8.85224 15.7715 8.79 15.62C8.74182 15.4952 8.6667 15.3825 8.57 15.29V15.29ZM16 6.94C15.9896 6.84813 15.9695 6.75763 15.94 6.67V6.58C15.8919 6.47718 15.8278 6.38267 15.75 6.3V6.3L9.75 0.3C9.66734 0.222216 9.57282 0.158081 9.47 0.11H9.38C9.27841 0.0517412 9.16622 0.0143442 9.05 0H3C2.20435 0 1.44129 0.316071 0.87868 0.87868C0.316071 1.44129 0 2.20435 0 3V17C0 17.7956 0.316071 18.5587 0.87868 19.1213C1.44129 19.6839 2.20435 20 3 20H13C13.7956 20 14.5587 19.6839 15.1213 19.1213C15.6839 18.5587 16 17.7956 16 17V7C16 7 16 7 16 6.94ZM10 3.41L12.59 6H11C10.7348 6 10.4804 5.89464 10.2929 5.70711C10.1054 5.51957 10 5.26522 10 5V3.41ZM14 17C14 17.2652 13.8946 17.5196 13.7071 17.7071C13.5196 17.8946 13.2652 18 13 18H3C2.73478 18 2.48043 17.8946 2.29289 17.7071C2.10536 17.5196 2 17.2652 2 17V3C2 2.73478 2.10536 2.48043 2.29289 2.29289C2.48043 2.10536 2.73478 2 3 2H8V5C8 5.79565 8.31607 6.55871 8.87868 7.12132C9.44129 7.68393 10.2044 8 11 8H14V17ZM7.87 8C7.34306 7.99966 6.82533 8.13812 6.36891 8.40144C5.91248 8.66476 5.53347 9.04366 5.27 9.5C5.19765 9.61382 5.14906 9.7411 5.12717 9.87418C5.10529 10.0073 5.11054 10.1434 5.14263 10.2744C5.17472 10.4054 5.23297 10.5285 5.31388 10.6364C5.3948 10.7443 5.49671 10.8348 5.61347 10.9022C5.73024 10.9697 5.85945 11.0129 5.99333 11.0292C6.12722 11.0454 6.26301 11.0345 6.39254 10.9969C6.52207 10.9593 6.64265 10.8959 6.74705 10.8105C6.85144 10.7251 6.93749 10.6195 7 10.5C7.0881 10.3474 7.21497 10.2208 7.36775 10.133C7.52052 10.0452 7.69379 9.9993 7.87 10C8.13522 10 8.38957 10.1054 8.57711 10.2929C8.76464 10.4804 8.87 10.7348 8.87 11C8.87 11.2652 8.76464 11.5196 8.57711 11.7071C8.38957 11.8946 8.13522 12 7.87 12C7.60478 12 7.35043 12.1054 7.16289 12.2929C6.97536 12.4804 6.87 12.7348 6.87 13C6.87 13.2652 6.97536 13.5196 7.16289 13.7071C7.35043 13.8946 7.60478 14 7.87 14C8.66565 14 9.42871 13.6839 9.99132 13.1213C10.5539 12.5587 10.87 11.7956 10.87 11C10.87 10.2044 10.5539 9.44129 9.99132 8.87868C9.42871 8.31607 8.66565 8 7.87 8Z" fill="var(--fill-0, #1E1F26)"/>
</svg>
