<svg preserveAspectRatio="none" width="100%" height="100%" overflow="visible" style="display: block;" viewBox="0 0 17.9991 18.0008" fill="none" xmlns="http://www.w3.org/2000/svg">
<path id="Vector" d="M17.9241 13.615C17.8765 13.4923 17.8051 13.3801 17.7141 13.285L14.7141 10.285C14.5258 10.0967 14.2704 9.99092 14.0041 9.99092C13.7378 9.99092 13.4824 10.0967 13.2941 10.285C13.1058 10.4733 13 10.7287 13 10.995C13 11.2613 13.1058 11.5167 13.2941 11.705L14.5941 12.995H6.00409C5.73888 12.995 5.48452 12.8897 5.29699 12.7021C5.10945 12.5146 5.00409 12.2602 5.00409 11.995V3.40501L6.29409 4.70501C6.38705 4.79874 6.49766 4.87314 6.61951 4.9239C6.74137 4.97467 6.87208 5.00081 7.00409 5.00081C7.1361 5.00081 7.26681 4.97467 7.38867 4.9239C7.51053 4.87314 7.62113 4.79874 7.71409 4.70501C7.80782 4.61205 7.88221 4.50145 7.93298 4.37959C7.98375 4.25773 8.00989 4.12703 8.00989 3.99501C8.00989 3.863 7.98375 3.7323 7.93298 3.61044C7.88221 3.48858 7.80782 3.37798 7.71409 3.28501L4.71409 0.285014C4.61899 0.193973 4.50684 0.122608 4.38409 0.0750135C4.14063 -0.0250045 3.86755 -0.0250045 3.62409 0.0750135C3.50134 0.122608 3.3892 0.193973 3.29409 0.285014L0.294092 3.28501C0.105788 3.47332 0 3.72871 0 3.99501C0 4.12687 0.0259717 4.25744 0.076432 4.37926C0.126892 4.50108 0.200853 4.61178 0.294092 4.70501C0.38733 4.79825 0.498021 4.87221 0.619843 4.92267C0.741665 4.97313 0.872233 4.9991 1.00409 4.9991C1.27039 4.9991 1.52579 4.89332 1.71409 4.70501L3.00409 3.40501V11.995C3.00409 12.7907 3.32016 13.5537 3.88277 14.1163C4.44538 14.6789 5.20844 14.995 6.00409 14.995H14.5941L13.2941 16.285C13.2004 16.378 13.126 16.4886 13.0752 16.6104C13.0244 16.7323 12.9983 16.863 12.9983 16.995C12.9983 17.127 13.0244 17.2577 13.0752 17.3796C13.126 17.5015 13.2004 17.6121 13.2941 17.705C13.3871 17.7987 13.4977 17.8731 13.6195 17.9239C13.7414 17.9747 13.8721 18.0008 14.0041 18.0008C14.1361 18.0008 14.2668 17.9747 14.3887 17.9239C14.5105 17.8731 14.6211 17.7987 14.7141 17.705L17.7141 14.705C17.8051 14.6099 17.8765 14.4978 17.9241 14.375C18.0241 14.1316 18.0241 13.8585 17.9241 13.615V13.615Z" fill="var(--fill-0, #1E1F26)"/>
</svg>
