<svg preserveAspectRatio="none" width="100%" height="100%" overflow="visible" style="display: block;" viewBox="0 0 20.0077 19.8995" fill="none" xmlns="http://www.w3.org/2000/svg">
<path id="Vector" d="M17.8682 3.54954L19.6582 1.75954C19.7628 1.6699 19.8479 1.55958 19.9079 1.43551C19.9679 1.31145 20.0016 1.17632 20.007 1.0386C20.0123 0.900878 19.9891 0.763546 19.9388 0.635221C19.8885 0.506896 19.8123 0.390348 19.7148 0.292893C19.6174 0.195439 19.5008 0.119181 19.3725 0.068906C19.2442 0.0186314 19.1068 -0.00457431 18.9691 0.000745185C18.8314 0.00606468 18.6963 0.0397946 18.5722 0.0998179C18.4481 0.159841 18.3378 0.244862 18.2482 0.349543L16.4582 2.13954L14.6582 0.349543C14.4669 0.185717 14.2208 0.100111 13.9691 0.109832C13.7174 0.119553 13.4787 0.223886 13.3006 0.40198C13.1225 0.580075 13.0182 0.818814 13.0085 1.07049C12.9987 1.32217 13.0843 1.56824 13.2482 1.75954L15.0182 3.54954L13.2282 5.34954C13.0419 5.53691 12.9374 5.79036 12.9374 6.05454C12.9374 6.31873 13.0419 6.57218 13.2282 6.75954C13.4155 6.94579 13.669 7.05034 13.9332 7.05034C14.1974 7.05034 14.4508 6.94579 14.6382 6.75954L16.4582 4.98954L18.2482 6.77954C18.4355 6.96579 18.689 7.07034 18.9532 7.07034C19.2174 7.07034 19.4708 6.96579 19.6582 6.77954C19.8444 6.59218 19.949 6.33873 19.949 6.07454C19.949 5.81036 19.8444 5.55691 19.6582 5.36954L17.8682 3.54954ZM17.4582 10.9895C17.2382 10.9895 17.0082 10.9195 16.7882 10.8695C16.3427 10.7714 15.9048 10.641 15.4782 10.4795C15.0143 10.3108 14.5043 10.3195 14.0465 10.5042C13.5886 10.6888 13.2153 11.0362 12.9982 11.4795L12.7782 11.9295C11.8042 11.3877 10.9092 10.7148 10.1182 9.92954C9.33294 9.13856 8.65999 8.24354 8.11817 7.26954L8.53817 6.98954C8.98153 6.77246 9.32895 6.39907 9.51356 5.94123C9.69817 5.4834 9.70694 4.97346 9.53817 4.50954C9.37939 4.08197 9.2491 3.64434 9.14817 3.19954C9.09817 2.97954 9.05817 2.74954 9.02817 2.51954C8.90673 1.81516 8.53779 1.17729 7.98779 0.720783C7.43779 0.26428 6.74286 0.0191524 6.02817 0.0295435H3.02817C2.5972 0.025497 2.17042 0.114357 1.77688 0.290074C1.38334 0.465791 1.03228 0.724239 0.747598 1.04783C0.462918 1.37141 0.251302 1.75254 0.127155 2.16526C0.0030087 2.57798 -0.0307535 3.0126 0.0281672 3.43954C0.560905 7.62893 2.4742 11.5214 5.46582 14.5022C8.45744 17.4829 12.3569 19.3821 16.5482 19.8995H16.9282C17.6656 19.9006 18.3776 19.6301 18.9282 19.1395C19.2445 18.8566 19.4973 18.5097 19.6696 18.1219C19.842 17.734 19.9301 17.314 19.9282 16.8895V13.8895C19.9159 13.1949 19.663 12.5261 19.2125 11.9972C18.762 11.4683 18.142 11.1122 17.4582 10.9895V10.9895ZM17.9582 16.9895C17.958 17.1315 17.9276 17.2718 17.8689 17.4012C17.8103 17.5305 17.7248 17.6458 17.6182 17.7395C17.5064 17.836 17.3758 17.9081 17.2346 17.9511C17.0934 17.9942 16.9447 18.0073 16.7982 17.9895C13.0531 17.5093 9.5744 15.796 6.91088 13.1198C4.24736 10.4436 2.55058 6.95688 2.08817 3.20954C2.07225 3.06306 2.0862 2.91487 2.12917 2.77393C2.17214 2.633 2.24324 2.50223 2.33817 2.38954C2.43188 2.28288 2.54723 2.19738 2.67655 2.13876C2.80586 2.08014 2.94618 2.04972 3.08817 2.04954H6.08817C6.32071 2.04437 6.54779 2.12042 6.73031 2.26461C6.91283 2.40881 7.03938 2.61211 7.08817 2.83954C7.12817 3.11288 7.17817 3.38288 7.23817 3.64954C7.35369 4.17669 7.50743 4.69472 7.69817 5.19954L6.29817 5.84954C6.17846 5.90446 6.07079 5.98249 5.98132 6.07914C5.89186 6.17579 5.82237 6.28916 5.77684 6.41274C5.73131 6.53632 5.71064 6.66767 5.71601 6.79927C5.72139 6.93086 5.75271 7.06009 5.80817 7.17954C7.24737 10.2623 9.72541 12.7403 12.8082 14.1795C13.0516 14.2796 13.3247 14.2796 13.5682 14.1795C13.6929 14.1349 13.8075 14.066 13.9053 13.9767C14.0032 13.8875 14.0823 13.7796 14.1382 13.6595L14.7582 12.2595C15.2751 12.4444 15.8028 12.598 16.3382 12.7195C16.6048 12.7795 16.8748 12.8295 17.1482 12.8695C17.3756 12.9183 17.5789 13.0449 17.7231 13.2274C17.8673 13.4099 17.9433 13.637 17.9382 13.8695L17.9582 16.9895Z" fill="var(--fill-0, #1E1F26)"/>
</svg>
