<svg preserveAspectRatio="none" width="100%" height="100%" overflow="visible" style="display: block;" viewBox="0 0 20.0005 18" fill="none" xmlns="http://www.w3.org/2000/svg">
<path id="Vector" d="M17.0005 0C16.2048 0 15.4417 0.316071 14.8791 0.87868C14.3165 1.44129 14.0005 2.20435 14.0005 3V5.84L5.00046 0.47C4.50308 0.173178 3.93466 0.0164607 3.35546 0.0164607C2.77625 0.0164607 2.20783 0.173178 1.71046 0.47C1.18954 0.766028 0.756676 1.1952 0.456201 1.71357C0.155726 2.23193 -0.0015598 2.82085 0.000455168 3.42V14.58C-0.00953222 15.1886 0.145005 15.7886 0.447747 16.3166C0.75049 16.8447 1.1902 17.2811 1.72046 17.58C2.21141 17.8578 2.76638 18.0025 3.33046 18C3.91922 17.9961 4.49606 17.8337 5.00046 17.53L14.0005 12.16V15C14.0005 15.7956 14.3165 16.5587 14.8791 17.1213C15.4417 17.6839 16.2048 18 17.0005 18C17.7961 18 18.5592 17.6839 19.1218 17.1213C19.6844 16.5587 20.0005 15.7956 20.0005 15V3C20.0005 2.20435 19.6844 1.44129 19.1218 0.87868C18.5592 0.316071 17.7961 0 17.0005 0ZM13.3205 10.23L4.00046 15.81C3.80765 15.9275 3.58623 15.9896 3.36046 15.9896C3.13468 15.9896 2.91326 15.9275 2.72045 15.81C2.5013 15.6882 2.31887 15.5098 2.19222 15.2935C2.06557 15.0771 1.99934 14.8307 2.00046 14.58V3.42C1.99473 3.16692 2.05774 2.91703 2.18276 2.69691C2.30779 2.4768 2.49016 2.2947 2.71046 2.17C2.89946 2.06192 3.11275 2.00344 3.33046 2C3.56743 1.99747 3.80009 2.06344 4.00046 2.19L13.3305 7.77C13.5392 7.9003 13.7113 8.08157 13.8306 8.29675C13.95 8.51193 14.0126 8.75394 14.0126 9C14.0126 9.24606 13.95 9.48807 13.8306 9.70325C13.7113 9.91843 13.5392 10.0997 13.3305 10.23H13.3205ZM18.0005 15C18.0005 15.2652 17.8951 15.5196 17.7076 15.7071C17.52 15.8946 17.2657 16 17.0005 16C16.7352 16 16.4809 15.8946 16.2933 15.7071C16.1058 15.5196 16.0005 15.2652 16.0005 15V3C16.0005 2.73478 16.1058 2.48043 16.2933 2.29289C16.4809 2.10536 16.7352 2 17.0005 2C17.2657 2 17.52 2.10536 17.7076 2.29289C17.8951 2.48043 18.0005 2.73478 18.0005 3V15Z" fill="var(--fill-0, #1E1F26)"/>
</svg>
