<svg preserveAspectRatio="none" width="100%" height="100%" overflow="visible" style="display: block;" viewBox="0 0 13.9711 19.994" fill="none" xmlns="http://www.w3.org/2000/svg">
<path id="Vector" d="M13.4988 0.164044C13.2783 0.0193133 13.0096 -0.032468 12.7511 0.0199733C12.4927 0.0724145 12.2654 0.224832 12.1188 0.444044L6.94878 8.19404L1.77878 0.444044C1.62248 0.250003 1.39937 0.121301 1.15314 0.0831439C0.90692 0.0449869 0.655321 0.100124 0.447621 0.237756C0.239922 0.375388 0.091084 0.585601 0.0302576 0.827224C-0.0305688 1.06885 0.000998303 1.32448 0.118776 1.54404L5.11878 8.99404H1.94878C1.68356 8.99404 1.42921 9.0994 1.24167 9.28694C1.05413 9.47447 0.948776 9.72883 0.948776 9.99404C0.948776 10.2593 1.05413 10.5136 1.24167 10.7012C1.42921 10.8887 1.68356 10.994 1.94878 10.994H5.94878V12.994H1.94878C1.68356 12.994 1.42921 13.0994 1.24167 13.2869C1.05413 13.4745 0.948776 13.7288 0.948776 13.994C0.948776 14.2593 1.05413 14.5136 1.24167 14.7012C1.42921 14.8887 1.68356 14.994 1.94878 14.994H5.94878V18.994C5.94878 19.2593 6.05413 19.5136 6.24167 19.7012C6.42921 19.8887 6.68356 19.994 6.94878 19.994C7.21399 19.994 7.46835 19.8887 7.65588 19.7012C7.84342 19.5136 7.94878 19.2593 7.94878 18.994V14.994H11.9488C12.214 14.994 12.4683 14.8887 12.6559 14.7012C12.8434 14.5136 12.9488 14.2593 12.9488 13.994C12.9488 13.7288 12.8434 13.4745 12.6559 13.2869C12.4683 13.0994 12.214 12.994 11.9488 12.994H7.94878V10.994H11.9488C12.214 10.994 12.4683 10.8887 12.6559 10.7012C12.8434 10.5136 12.9488 10.2593 12.9488 9.99404C12.9488 9.72883 12.8434 9.47447 12.6559 9.28694C12.4683 9.0994 12.214 8.99404 11.9488 8.99404H8.81878L13.8188 1.54404C13.8886 1.43249 13.9357 1.30824 13.9574 1.17844C13.9791 1.04863 13.975 0.915817 13.9453 0.787611C13.9155 0.659404 13.8608 0.538327 13.7842 0.431322C13.7076 0.324317 13.6106 0.233488 13.4988 0.164044V0.164044Z" fill="var(--fill-0, #1E1F26)"/>
</svg>
