<svg preserveAspectRatio="none" width="100%" height="100%" overflow="visible" style="display: block;" viewBox="0 0 18.1205 20.0184" fill="none" xmlns="http://www.w3.org/2000/svg">
<path id="Vector" d="M18.1204 10.2978C18.1133 8.79633 17.513 7.35855 16.4504 6.29778L11.0604 0.827776C10.5298 0.297728 9.81045 0 9.06043 0C8.31041 0 7.59107 0.297728 7.06043 0.827776L1.67043 6.24778C0.607812 7.30855 0.0075381 8.74633 0.000430325 10.2478C-0.00886056 11.0039 0.132379 11.7542 0.415922 12.4552C0.699465 13.1562 1.11965 13.7937 1.65199 14.3307C2.18434 14.8677 2.81821 15.2935 3.51668 15.5831C4.21516 15.8727 4.96429 16.0205 5.72043 16.0178V16.0178C5.46914 16.8805 5.05127 17.6857 4.49043 18.3878C4.36943 18.5367 4.29383 18.7173 4.27266 18.908C4.25149 19.0987 4.28564 19.2915 4.37104 19.4634C4.45643 19.6352 4.58946 19.7788 4.75426 19.8772C4.91905 19.9755 5.10865 20.0243 5.30043 20.0178H12.8204C13.0097 20.0184 13.1952 19.9654 13.3555 19.8648C13.5158 19.7641 13.6442 19.6201 13.7259 19.4494C13.8076 19.2787 13.8391 19.0884 13.8169 18.9004C13.7947 18.7125 13.7197 18.5347 13.6004 18.3878C13.0387 17.6863 12.6208 16.8809 12.3704 16.0178C13.1244 16.0257 13.8724 15.8838 14.571 15.6001C15.2696 15.3165 15.9048 14.8968 16.4398 14.3655C16.9748 13.8343 17.3989 13.202 17.6874 12.5054C17.9759 11.8087 18.1231 11.0618 18.1204 10.3078V10.2978ZM15.0604 12.9278C14.5875 13.3935 14.0002 13.7265 13.3578 13.8933C12.7153 14.0601 12.0402 14.0547 11.4004 13.8778C11.3439 13.873 11.287 13.873 11.2304 13.8778H11.0304C10.9556 13.8918 10.882 13.9119 10.8104 13.9378H10.6604C10.6127 13.9689 10.5691 14.0059 10.5304 14.0478C10.4672 14.0858 10.4099 14.133 10.3604 14.1878C10.3443 14.2264 10.3242 14.2633 10.3004 14.2978C10.2565 14.3723 10.2165 14.4491 10.1804 14.5278V14.5278C10.1755 14.5877 10.1755 14.6479 10.1804 14.7078C10.1804 14.7678 10.1804 14.8278 10.1804 14.8878C10.2589 15.9727 10.5369 17.0338 11.0004 18.0178H7.12043C7.59417 17.0798 7.89241 16.0631 8.00043 15.0178V15.0178C8.00043 14.9578 8.00043 14.8978 8.00043 14.8278C8.00535 14.7679 8.00535 14.7077 8.00043 14.6478C7.96704 14.5628 7.92339 14.4822 7.87043 14.4078C7.85417 14.3723 7.83405 14.3388 7.81043 14.3078C7.7669 14.251 7.71251 14.2034 7.65043 14.1678C7.60961 14.1282 7.56618 14.0915 7.52043 14.0578H7.38043C7.30733 14.024 7.22994 14.0005 7.15043 13.9878V13.9878H6.96043C6.90053 13.9829 6.84033 13.9829 6.78043 13.9878C6.1222 14.1592 5.43007 14.1514 4.77591 13.965C4.12175 13.7786 3.52942 13.4204 3.06043 12.9278C2.36551 12.2285 1.97393 11.2836 1.97043 10.2978C1.9689 9.80906 2.06446 9.32491 2.25158 8.87342C2.4387 8.42194 2.71363 8.01213 3.06043 7.66778L8.46043 2.24778C8.61166 2.10056 8.81438 2.01819 9.02543 2.01819C9.23648 2.01819 9.4392 2.10056 9.59043 2.24778L15.0604 7.66778C15.4072 8.01213 15.6822 8.42194 15.8693 8.87342C16.0564 9.32491 16.152 9.80906 16.1504 10.2978C16.1437 11.283 15.7526 12.2267 15.0604 12.9278V12.9278Z" fill="var(--fill-0, #1E1F26)"/>
</svg>
