<svg preserveAspectRatio="none" width="100%" height="100%" overflow="visible" style="display: block;" viewBox="0 0 20 21.9765" fill="none" xmlns="http://www.w3.org/2000/svg">
<path id="Vector" d="M6 5C6.19778 5 6.39112 4.94135 6.55557 4.83147C6.72002 4.72159 6.84819 4.56541 6.92388 4.38268C6.99957 4.19996 7.01937 3.99889 6.98079 3.80491C6.9422 3.61093 6.84696 3.43275 6.70711 3.29289C6.56725 3.15304 6.38907 3.0578 6.19509 3.01921C6.00111 2.98063 5.80004 3.00043 5.61732 3.07612C5.43459 3.15181 5.27841 3.27998 5.16853 3.44443C5.05865 3.60888 5 3.80222 5 4C5 4.26522 5.10536 4.51957 5.29289 4.70711C5.48043 4.89464 5.73478 5 6 5ZM19 18H12.82C12.6707 17.5806 12.4299 17.1997 12.1151 16.8849C11.8003 16.5701 11.4194 16.3293 11 16.18V14H15C15.7956 14 16.5587 13.6839 17.1213 13.1213C17.6839 12.5587 18 11.7956 18 11V9C17.9956 8.25995 17.7178 7.54764 17.22 7C17.7178 6.45236 17.9956 5.74005 18 5V3C18 2.20435 17.6839 1.44129 17.1213 0.87868C16.5587 0.31607 15.7956 0 15 0H5C4.20435 0 3.44129 0.31607 2.87868 0.87868C2.31607 1.44129 2 2.20435 2 3V5C2.00441 5.74005 2.28221 6.45236 2.78 7C2.28221 7.54764 2.00441 8.25995 2 9V11C2 11.7956 2.31607 12.5587 2.87868 13.1213C3.44129 13.6839 4.20435 14 5 14H9V16.18C8.5806 16.3293 8.19969 16.5701 7.8849 16.8849C7.57011 17.1997 7.32932 17.5806 7.18 18H1C0.734784 18 0.48043 18.1054 0.292893 18.2929C0.105357 18.4804 0 18.7348 0 19C0 19.2652 0.105357 19.5196 0.292893 19.7071C0.48043 19.8946 0.734784 20 1 20H7.18C7.3902 20.5792 7.77363 21.0795 8.27816 21.4332C8.7827 21.7868 9.38388 21.9765 10 21.9765C10.6161 21.9765 11.2173 21.7868 11.7218 21.4332C12.2264 21.0795 12.6098 20.5792 12.82 20H19C19.2652 20 19.5196 19.8946 19.7071 19.7071C19.8946 19.5196 20 19.2652 20 19C20 18.7348 19.8946 18.4804 19.7071 18.2929C19.5196 18.1054 19.2652 18 19 18ZM4 3C4 2.73478 4.10536 2.48043 4.29289 2.29289C4.48043 2.10536 4.73478 2 5 2H15C15.2652 2 15.5196 2.10536 15.7071 2.29289C15.8946 2.48043 16 2.73478 16 3V5C16 5.26522 15.8946 5.51957 15.7071 5.70711C15.5196 5.89464 15.2652 6 15 6H5C4.73478 6 4.48043 5.89464 4.29289 5.70711C4.10536 5.51957 4 5.26522 4 5V3ZM5 12C4.73478 12 4.48043 11.8946 4.29289 11.7071C4.10536 11.5196 4 11.2652 4 11V9C4 8.73478 4.10536 8.48043 4.29289 8.29289C4.48043 8.10536 4.73478 8 5 8H15C15.2652 8 15.5196 8.10536 15.7071 8.29289C15.8946 8.48043 16 8.73478 16 9V11C16 11.2652 15.8946 11.5196 15.7071 11.7071C15.5196 11.8946 15.2652 12 15 12H5ZM10 20C9.80222 20 9.60888 19.9414 9.44443 19.8315C9.27998 19.7216 9.15181 19.5654 9.07612 19.3827C9.00043 19.2 8.98063 18.9989 9.01921 18.8049C9.0578 18.6109 9.15304 18.4327 9.29289 18.2929C9.43275 18.153 9.61093 18.0578 9.80491 18.0192C9.99889 17.9806 10.2 18.0004 10.3827 18.0761C10.5654 18.1518 10.7216 18.28 10.8315 18.4444C10.9414 18.6089 11 18.8022 11 19C11 19.2652 10.8946 19.5196 10.7071 19.7071C10.5196 19.8946 10.2652 20 10 20ZM6 9C5.80222 9 5.60888 9.05865 5.44443 9.16853C5.27998 9.27841 5.15181 9.43459 5.07612 9.61732C5.00043 9.80004 4.98063 10.0011 5.01921 10.1951C5.0578 10.3891 5.15304 10.5673 5.29289 10.7071C5.43275 10.847 5.61093 10.9422 5.80491 10.9808C5.99889 11.0194 6.19996 10.9996 6.38268 10.9239C6.56541 10.8482 6.72159 10.72 6.83147 10.5556C6.94135 10.3911 7 10.1978 7 10C7 9.73478 6.89464 9.48043 6.70711 9.29289C6.51957 9.10536 6.26522 9 6 9V9Z" fill="var(--fill-0, #1E1F26)"/>
</svg>
