<svg preserveAspectRatio="none" width="100%" height="100%" overflow="visible" style="display: block;" viewBox="0 0 11.6667 11.6667" fill="none" xmlns="http://www.w3.org/2000/svg">
<g id="Group 18292">
<circle id="Ellipse 174" cx="5.83331" cy="5.83336" r="3.33333" fill="var(--fill-0, white)"/>
<path id="Vector" d="M5.83333 0.417139C8.81339 0.417139 11.2502 2.85312 11.2503 5.83315C11.2503 8.81327 8.81345 11.2501 5.83333 11.2501C2.85321 11.2501 0.416341 8.81327 0.416341 5.83315C0.416439 2.85312 2.85327 0.417139 5.83333 0.417139ZM5.83333 4.25015C5.82233 4.25015 5.80198 4.25322 5.77767 4.27749L4.27767 5.77749C4.25345 5.80171 4.25037 5.8221 4.25033 5.83315C4.25033 5.84416 4.2534 5.86451 4.27767 5.88882C4.30202 5.91317 4.32232 5.91714 4.33333 5.91714C4.34435 5.91714 4.36464 5.91317 4.389 5.88882L5.03841 5.23843L5.75033 4.52749V7.33315C5.75033 7.36179 5.7547 7.37987 5.75814 7.38882C5.7613 7.39692 5.76391 7.40043 5.76497 7.40151C5.76598 7.40252 5.77008 7.40505 5.77865 7.40835C5.78769 7.41178 5.80504 7.41714 5.83333 7.41714C5.86163 7.41714 5.87898 7.41178 5.88802 7.40835C5.89659 7.40505 5.90069 7.40252 5.90169 7.40151C5.90276 7.40043 5.90537 7.39692 5.90853 7.38882C5.91197 7.37987 5.91634 7.36179 5.91634 7.33315V4.52749L6.62826 5.23843L7.27767 5.88882C7.30202 5.91317 7.32232 5.91714 7.33333 5.91714C7.34435 5.91714 7.36464 5.91317 7.389 5.88882C7.41327 5.86451 7.41634 5.84416 7.41634 5.83315C7.4163 5.8221 7.41322 5.80171 7.389 5.77749L5.889 4.27749C5.86468 4.25322 5.84434 4.25015 5.83333 4.25015Z" fill="var(--fill-0, #1E1F26)" stroke="var(--stroke-0, white)" stroke-width="0.833333"/>
</g>
</svg>
