<svg preserveAspectRatio="none" width="100%" height="100%" overflow="visible" style="display: block;" viewBox="0 0 17.1549 20" fill="none" xmlns="http://www.w3.org/2000/svg">
<path id="Vector" d="M17.0215 7.05505C16.7331 5.43016 15.9781 3.92429 14.8486 2.72105C14.3672 2.20204 13.8222 1.74594 13.2265 1.36357C12.1299 0.652755 10.8841 0.204697 9.58598 0.0543001C9.42476 0.045564 9.26419 0.0274332 9.10508 0H7.97062C7.95836 0.02863 7.93205 0.0181899 7.91118 0.0201399C7.61906 0.0458999 7.32835 0.07914 7.04002 0.13379C4.99127 0.496369 3.1482 1.60177 1.86357 3.2384C0.779199 4.58045 0.13671 6.22518 0.0242739 7.9469C-0.0395692 8.7943 0.0226955 9.64647 0.209034 10.4756C0.346763 11.0945 0.556268 11.6952 0.833294 12.2656C0.857774 12.3143 0.881884 12.363 0.906784 12.4116C1.35682 13.3084 1.9603 14.1196 2.68992 14.8083C4.24916 16.2831 6.307 17.116 8.45305 17.1408C8.5532 17.1422 8.58049 17.1669 8.57988 17.2693C8.5753 18.1428 8.57725 19.0165 8.5775 19.8901C8.57756 19.9241 8.58018 19.9579 8.58214 20C8.61039 19.9885 8.62809 19.982 8.64514 19.9739C10.2822 19.216 11.7958 18.2162 13.1354 17.008C13.4025 16.7649 13.6588 16.5107 13.9043 16.2455C14.0096 16.1322 14.1141 16.0168 14.2196 15.9036C14.3826 15.7293 14.5237 15.5345 14.6774 15.351C14.8548 15.1393 15.0141 14.9143 15.1714 14.6877C15.5204 14.1892 15.8276 13.6626 16.0899 13.1133C16.2218 12.8345 16.3474 12.5534 16.4586 12.2657C16.4629 12.2608 16.4666 12.2554 16.4697 12.2496C16.7689 11.4642 16.9706 10.6451 17.0703 9.81063C17.1063 9.51937 17.1297 9.22628 17.1445 8.93337C17.1763 8.30461 17.135 7.6743 17.0215 7.05505V7.05505ZM7.83159 9.87439C7.83243 10.2289 7.75798 10.5796 7.61317 10.9032C7.46836 11.2269 7.2565 11.5161 6.99159 11.7517C6.96315 11.7781 6.93559 11.8056 6.90785 11.8326C6.63128 12.0527 6.31395 12.2161 5.97407 12.3132C5.82672 12.3505 5.67726 12.3788 5.5265 12.3981C5.47551 12.4059 5.42345 12.3947 5.38017 12.3666C5.33688 12.3386 5.30536 12.2957 5.29158 12.246L5.29274 11.2778C5.29841 11.1828 5.26014 11.081 5.33626 10.9972C5.37243 10.9555 5.42072 10.926 5.47442 10.9129C5.64654 10.8814 5.81306 10.8247 5.96856 10.7444C6.10393 10.6663 6.22162 10.5609 6.31423 10.435C6.40684 10.309 6.47236 10.1653 6.50664 10.0128C6.51879 9.96265 6.53045 9.91223 6.54204 9.86188C5.8615 9.86063 5.18103 9.85951 4.50065 9.85852C4.44201 9.86038 4.38337 9.85433 4.32634 9.84052C4.24066 9.81771 4.16459 9.76792 4.10939 9.69853C4.05418 9.62914 4.02278 9.54382 4.01982 9.4552C4.01854 8.42627 4.01905 7.39727 4.02134 6.3682C4.0051 6.28976 4.00929 6.20846 4.03352 6.13211C4.05775 6.05576 4.10121 5.98692 4.15971 5.9322C4.22971 5.86786 4.32094 5.83153 4.416 5.83015C5.41656 5.82997 6.41715 5.82979 7.41777 5.8296C7.4818 5.82985 7.5449 5.84488 7.60217 5.8735C7.65944 5.90213 7.70933 5.94358 7.74797 5.99463C7.7866 6.04569 7.81294 6.10497 7.82492 6.16786C7.83691 6.23076 7.83422 6.29557 7.81706 6.35725C7.83276 6.40663 7.8384 6.45865 7.83366 6.51025C7.83391 7.63147 7.84019 8.75317 7.83159 9.87439V9.87439ZM13.1347 9.87939C13.1298 10.3768 12.9799 10.8619 12.7034 11.2754C12.427 11.6888 12.0359 12.0127 11.5782 12.2073C11.5548 12.2173 11.5325 12.2302 11.5097 12.2417L11.4715 12.2524L11.4499 12.2647C11.2567 12.3206 11.06 12.3638 10.8611 12.394C10.8286 12.4023 10.7946 12.403 10.7617 12.3959C10.7289 12.3888 10.6982 12.3741 10.672 12.3531C10.6459 12.332 10.625 12.3051 10.6111 12.2746C10.5971 12.244 10.5905 12.2106 10.5917 12.1771C10.5902 12.0697 10.5894 11.9621 10.5885 11.8546L10.5941 11.2773C10.5932 11.2348 10.5917 11.1926 10.5918 11.1503C10.592 11.0025 10.6488 10.9401 10.8326 10.8982C11.0667 10.8581 11.2856 10.7555 11.4662 10.6013C11.6718 10.4043 11.8049 10.1437 11.8438 9.86164L9.95799 9.85804C9.88963 9.85792 9.82121 9.8589 9.75273 9.85774C9.69479 9.85967 9.63708 9.84956 9.58325 9.82804C9.52942 9.80653 9.48064 9.77407 9.43999 9.73273C9.39935 9.6914 9.36772 9.64207 9.34712 9.58788C9.32652 9.53369 9.31738 9.47582 9.32029 9.41792C9.32061 8.40162 9.3214 7.38536 9.32267 6.36915L9.32097 6.33979C9.30486 6.2527 9.31575 6.16277 9.35218 6.08204C9.38862 6.00132 9.44886 5.93366 9.52482 5.88813C9.58862 5.8487 9.66244 5.82852 9.73742 5.83C10.7314 5.82945 11.7253 5.82917 12.7193 5.82914C12.7833 5.82943 12.8464 5.84448 12.9036 5.87312C12.9609 5.90176 13.0108 5.94322 13.0494 5.99427C13.088 6.04533 13.1143 6.1046 13.1263 6.16749C13.1383 6.23037 13.1356 6.29517 13.1185 6.35685C13.134 6.40622 13.1396 6.45818 13.135 6.50974C13.135 7.63295 13.1349 8.75616 13.1347 9.87939Z" fill="var(--fill-0, #1E1F26)"/>
</svg>
