<svg preserveAspectRatio="none" width="100%" height="100%" overflow="visible" style="display: block;" viewBox="0 0 20.0084 17.9882" fill="none" xmlns="http://www.w3.org/2000/svg">
<path id="Vector" d="M13.0084 7.98671H8.00844C7.74322 7.98671 7.48887 8.09207 7.30133 8.2796C7.11379 8.46714 7.00844 8.7215 7.00844 8.98671V16.9867C7.00816 17.1684 7.05738 17.3467 7.15081 17.5025C7.24424 17.6583 7.37835 17.7857 7.53873 17.871C7.69911 17.9564 7.87971 17.9964 8.06112 17.9868C8.24254 17.9773 8.41792 17.9184 8.56844 17.8167L10.5084 16.5167L12.3984 17.7767C12.573 17.9122 12.7875 17.986 13.0084 17.9867C13.1608 17.9873 13.3113 17.9531 13.4484 17.8867C13.6167 17.8042 13.7585 17.6761 13.8575 17.517C13.9565 17.3579 14.0088 17.1741 14.0084 16.9867V8.98671C14.0084 8.7215 13.9031 8.46714 13.7155 8.2796C13.528 8.09207 13.2737 7.98671 13.0084 7.98671ZM12.0084 15.1067L11.0684 14.4767C10.9031 14.3649 10.708 14.3052 10.5084 14.3052C10.3088 14.3052 10.1138 14.3649 9.94843 14.4767L9.00844 15.1167V9.98671H12.0084V15.1067ZM16.4284 4.20671C15.8174 2.80272 14.7629 1.63779 13.4265 0.890438C12.0901 0.143088 10.5455 -0.145456 9.0294 0.0690207C7.51331 0.283498 6.10936 0.989164 5.03269 2.07789C3.95602 3.16661 3.26602 4.57833 3.06844 6.09671C2.11502 6.32503 1.27866 6.89554 0.718173 7.6999C0.157689 8.50426 -0.0878807 9.48644 0.0280989 10.4599C0.144078 11.4334 0.61353 12.3304 1.3473 12.9806C2.08107 13.6307 3.02806 13.9888 4.00844 13.9867C4.27365 13.9867 4.52801 13.8814 4.71554 13.6938C4.90308 13.5063 5.00844 13.2519 5.00844 12.9867C5.00844 12.7215 4.90308 12.4671 4.71554 12.2796C4.52801 12.0921 4.27365 11.9867 4.00844 11.9867C3.478 11.9867 2.96929 11.776 2.59422 11.4009C2.21915 11.0259 2.00844 10.5171 2.00844 9.98671C2.00844 9.45628 2.21915 8.94757 2.59422 8.5725C2.96929 8.19743 3.478 7.98671 4.00844 7.98671C4.27365 7.98671 4.52801 7.88135 4.71554 7.69382C4.90308 7.50628 5.00844 7.25193 5.00844 6.98671C5.01099 5.80399 5.43272 4.66046 6.1987 3.75929C6.96469 2.85813 8.02533 2.25766 9.19218 2.06458C10.359 1.87151 11.5566 2.09832 12.572 2.70472C13.5874 3.31112 14.355 4.25785 14.7384 5.37671C14.7956 5.54855 14.8983 5.70164 15.0357 5.81964C15.1731 5.93765 15.3399 6.01613 15.5184 6.04671C16.1198 6.15555 16.6735 6.44544 17.1056 6.8776C17.5377 7.30975 17.8275 7.86355 17.9362 8.46491C18.045 9.06627 17.9675 9.68649 17.7141 10.2426C17.4607 10.7987 17.0436 11.2642 16.5184 11.5767C16.2877 11.7093 16.1191 11.9282 16.0497 12.1851C15.9803 12.442 16.0158 12.716 16.1484 12.9467C16.281 13.1774 16.4999 13.3461 16.7568 13.4154C17.0137 13.4848 17.2877 13.4493 17.5184 13.3167C18.2767 12.8766 18.9058 12.2449 19.3429 11.4849C19.7799 10.7249 20.0094 9.8634 20.0084 8.98671C20.0054 7.91084 19.6554 6.86465 19.0105 6.00352C18.3655 5.14239 17.46 4.51225 16.4284 4.20671V4.20671Z" fill="var(--fill-0, #1E1F26)"/>
</svg>
