<svg preserveAspectRatio="none" width="100%" height="100%" overflow="visible" style="display: block;" viewBox="0 0 20 14.0058" fill="none" xmlns="http://www.w3.org/2000/svg">
<path id="Vector" d="M1 2H19C19.2652 2 19.5196 1.89464 19.7071 1.70711C19.8946 1.51957 20 1.26522 20 1C20 0.734784 19.8946 0.48043 19.7071 0.292893C19.5196 0.105357 19.2652 0 19 0H1C0.734784 0 0.48043 0.105357 0.292893 0.292893C0.105357 0.48043 0 0.734784 0 1C0 1.26522 0.105357 1.51957 0.292893 1.70711C0.48043 1.89464 0.734784 2 1 2V2ZM7 10H1C0.734784 10 0.48043 10.1054 0.292893 10.2929C0.105357 10.4804 0 10.7348 0 11C0 11.2652 0.105357 11.5196 0.292893 11.7071C0.48043 11.8946 0.734784 12 1 12H7C7.26522 12 7.51957 11.8946 7.70711 11.7071C7.89464 11.5196 8 11.2652 8 11C8 10.7348 7.89464 10.4804 7.70711 10.2929C7.51957 10.1054 7.26522 10 7 10ZM16.5 5H1C0.734784 5 0.48043 5.10536 0.292893 5.29289C0.105357 5.48043 0 5.73478 0 6C0 6.26522 0.105357 6.51957 0.292893 6.70711C0.48043 6.89464 0.734784 7 1 7H16.5C16.8978 7 17.2794 7.15804 17.5607 7.43934C17.842 7.72064 18 8.10218 18 8.5C18 8.89782 17.842 9.27936 17.5607 9.56066C17.2794 9.84196 16.8978 10 16.5 10H13.41L13.71 9.71C13.8983 9.5217 14.0041 9.2663 14.0041 9C14.0041 8.7337 13.8983 8.4783 13.71 8.29C13.5217 8.1017 13.2663 7.99591 13 7.99591C12.7337 7.99591 12.4783 8.1017 12.29 8.29L10.29 10.29C10.199 10.3851 10.1276 10.4972 10.08 10.62C9.97998 10.8635 9.97998 11.1365 10.08 11.38C10.1276 11.5028 10.199 11.6149 10.29 11.71L12.29 13.71C12.383 13.8037 12.4936 13.8781 12.6154 13.9289C12.7373 13.9797 12.868 14.0058 13 14.0058C13.132 14.0058 13.2627 13.9797 13.3846 13.9289C13.5064 13.8781 13.617 13.8037 13.71 13.71C13.8037 13.617 13.8781 13.5064 13.9289 13.3846C13.9797 13.2627 14.0058 13.132 14.0058 13C14.0058 12.868 13.9797 12.7373 13.9289 12.6154C13.8781 12.4936 13.8037 12.383 13.71 12.29L13.41 12H16.5C17.4283 12 18.3185 11.6313 18.9749 10.9749C19.6313 10.3185 20 9.42826 20 8.5C20 7.57174 19.6313 6.6815 18.9749 6.02513C18.3185 5.36875 17.4283 5 16.5 5V5Z" fill="var(--fill-0, #1E1F26)"/>
</svg>
