<svg preserveAspectRatio="none" width="100%" height="100%" overflow="visible" style="display: block;" viewBox="0 0 14 20.0082" fill="none" xmlns="http://www.w3.org/2000/svg">
<path id="Vector" d="M14 7.00821C14.0016 5.66609 13.6173 4.35182 12.8929 3.22196C12.1685 2.09211 11.1346 1.19431 9.91437 0.635538C8.69411 0.0767627 7.33893 -0.119434 6.0103 0.0703226C4.68166 0.260079 3.43559 0.827789 2.42053 1.70582C1.40547 2.58384 0.664219 3.73517 0.285094 5.02262C-0.094031 6.31008 -0.0950491 7.67938 0.282162 8.9674C0.659372 10.2554 1.39891 11.4078 2.41266 12.2874C3.42641 13.1669 4.67164 13.7365 6 13.9282V16.0082H5C4.73478 16.0082 4.48043 16.1136 4.29289 16.3011C4.10535 16.4886 3.99999 16.743 3.99999 17.0082C3.99999 17.2734 4.10535 17.5278 4.29289 17.7153C4.48043 17.9029 4.73478 18.0082 5 18.0082H6V19.0082C6 19.2734 6.10535 19.5278 6.29289 19.7153C6.48043 19.9029 6.73478 20.0082 7 20.0082C7.26521 20.0082 7.51957 19.9029 7.7071 19.7153C7.89464 19.5278 8 19.2734 8 19.0082V18.0082H9C9.26521 18.0082 9.51957 17.9029 9.7071 17.7153C9.89464 17.5278 10 17.2734 10 17.0082C10 16.743 9.89464 16.4886 9.7071 16.3011C9.51957 16.1136 9.26521 16.0082 9 16.0082H8V13.9282C9.66459 13.6879 11.187 12.8564 12.2888 11.5857C13.3906 10.315 13.998 8.69005 14 7.00821V7.00821ZM7 12.0082C6.01109 12.0082 5.04439 11.715 4.22214 11.1656C3.3999 10.6161 2.75904 9.83525 2.3806 8.92162C2.00216 8.00799 1.90314 7.00266 2.09607 6.03276C2.28899 5.06285 2.7652 4.17194 3.46446 3.47267C4.16372 2.77341 5.05464 2.29721 6.02454 2.10428C6.99445 1.91135 7.99978 2.01037 8.91341 2.38881C9.82704 2.76725 10.6079 3.40811 11.1573 4.23036C11.7068 5.0526 12 6.0193 12 7.00821C12 7.66482 11.8707 8.315 11.6194 8.92162C11.3681 9.52825 10.9998 10.0794 10.5355 10.5437C10.0712 11.008 9.52004 11.3763 8.91341 11.6276C8.30678 11.8789 7.6566 12.0082 7 12.0082V12.0082Z" fill="var(--fill-0, #1E1F26)"/>
</svg>
