<svg preserveAspectRatio="none" width="100%" height="100%" overflow="visible" style="display: block;" viewBox="0 0 17.9991 18.0043" fill="none" xmlns="http://www.w3.org/2000/svg">
<path id="Vector" d="M17.9241 3.62409C17.8765 3.50134 17.8051 3.3892 17.7141 3.29409L14.7141 0.294092C14.6209 0.200853 14.5102 0.126892 14.3883 0.076432C14.2665 0.0259717 14.136 0 14.0041 0C13.7378 0 13.4824 0.105788 13.2941 0.294092C13.1058 0.482395 13 0.73779 13 1.00409C13 1.27039 13.1058 1.52579 13.2941 1.71409L14.5941 3.00409H6.00409C5.20844 3.00409 4.44538 3.32016 3.88277 3.88277C3.32016 4.44538 3.00409 5.20844 3.00409 6.00409V14.5941L1.71409 13.2941C1.52579 13.1058 1.27039 13 1.00409 13C0.73779 13 0.482395 13.1058 0.294092 13.2941C0.105788 13.4824 0 13.7378 0 14.0041C0 14.2704 0.105788 14.5258 0.294092 14.7141L3.29409 17.7141C3.3892 17.8051 3.50134 17.8765 3.62409 17.9241C3.74379 17.977 3.87322 18.0043 4.00409 18.0043C4.13496 18.0043 4.26439 17.977 4.38409 17.9241C4.50684 17.8765 4.61899 17.8051 4.71409 17.7141L7.71409 14.7141C7.9024 14.5258 8.00818 14.2704 8.00818 14.0041C8.00818 13.7378 7.9024 13.4824 7.71409 13.2941C7.52579 13.1058 7.27039 13 7.00409 13C6.73779 13 6.4824 13.1058 6.29409 13.2941L5.00409 14.5941V6.00409C5.00409 5.73888 5.10945 5.48452 5.29699 5.29699C5.48452 5.10945 5.73888 5.00409 6.00409 5.00409H14.5941L13.2941 6.29409C13.2004 6.38705 13.126 6.49766 13.0752 6.61951C13.0244 6.74137 12.9983 6.87208 12.9983 7.00409C12.9983 7.1361 13.0244 7.26681 13.0752 7.38867C13.126 7.51053 13.2004 7.62113 13.2941 7.71409C13.3871 7.80782 13.4977 7.88221 13.6195 7.93298C13.7414 7.98375 13.8721 8.00989 14.0041 8.00989C14.1361 8.00989 14.2668 7.98375 14.3887 7.93298C14.5105 7.88221 14.6211 7.80782 14.7141 7.71409L17.7141 4.71409C17.8051 4.61899 17.8765 4.50684 17.9241 4.38409C18.0241 4.14063 18.0241 3.86755 17.9241 3.62409Z" fill="var(--fill-0, #1E1F26)"/>
</svg>
