<svg preserveAspectRatio="none" width="100%" height="100%" overflow="visible" style="display: block;" viewBox="0 0 19.9934 17.0566" fill="none" xmlns="http://www.w3.org/2000/svg">
<path id="Vector" d="M12.4934 11.9867C12.889 11.9867 13.2757 11.8694 13.6046 11.6497C13.9335 11.4299 14.1898 11.1175 14.3412 10.7521C14.4926 10.3866 14.5322 9.98449 14.455 9.59653C14.3778 9.20857 14.1873 8.8522 13.9076 8.5725C13.6279 8.29279 13.2716 8.10231 12.8836 8.02514C12.4956 7.94797 12.0935 7.98758 11.7281 8.13895C11.3626 8.29033 11.0502 8.54667 10.8305 8.87557C10.6107 9.20447 10.4934 9.59115 10.4934 9.98671L8.59342 10.8567C8.2669 10.6415 7.88446 10.5268 7.49342 10.5267C6.96299 10.5267 6.45428 10.7374 6.07921 11.1125C5.70413 11.4876 5.49342 11.9963 5.49342 12.5267C5.49342 13.0571 5.70413 13.5659 6.07921 13.9409C6.45428 14.316 6.96299 14.5267 7.49342 14.5267C7.81558 14.5269 8.13238 14.4442 8.41342 14.2867L10.5134 15.2867C10.564 15.7237 10.7574 16.1319 11.0634 16.4479C11.3695 16.764 11.7712 16.9703 12.2064 17.0349C12.6416 17.0995 13.0859 17.0188 13.4706 16.8054C13.8553 16.5919 14.1589 16.2575 14.3343 15.854C14.5097 15.4506 14.5472 15.0005 14.4409 14.5736C14.3347 14.1467 14.0906 13.7667 13.7466 13.4925C13.4025 13.2183 12.9776 13.0652 12.5378 13.0569C12.0979 13.0487 11.6676 13.1857 11.3134 13.4467L9.56342 12.6467L11.4734 11.7667C11.788 11.929 12.1399 12.0049 12.4934 11.9867V11.9867ZM16.4134 4.20671C15.8024 2.80272 14.7479 1.63779 13.4115 0.890438C12.0751 0.143088 10.5305 -0.145456 9.01439 0.0690207C7.49829 0.283498 6.09434 0.989164 5.01767 2.07789C3.941 3.16661 3.25101 4.57833 3.05342 6.09671C2.21564 6.30076 1.46622 6.77008 0.916867 7.43471C0.367514 8.09933 0.0476384 8.92369 0.00491486 9.78491C-0.0378086 10.6461 0.198908 11.4981 0.679783 12.2138C1.16066 12.9296 1.85994 13.4707 2.67342 13.7567C2.77713 13.7887 2.8849 13.8055 2.99342 13.8067C3.25864 13.8491 3.52985 13.7845 3.74739 13.627C3.96493 13.4694 4.11098 13.2319 4.15342 12.9667C4.19585 12.7015 4.13119 12.4303 3.97366 12.2127C3.81613 11.9952 3.57864 11.8491 3.31342 11.8067C2.93633 11.6706 2.60885 11.4243 2.37347 11.0997C2.1381 10.7752 2.00568 10.3874 1.99342 9.98671C1.99342 9.45628 2.20413 8.94757 2.57921 8.5725C2.95428 8.19743 3.46299 7.98671 3.99342 7.98671C4.25864 7.98671 4.51299 7.88135 4.70053 7.69382C4.88806 7.50628 4.99342 7.25193 4.99342 6.98671C4.99597 5.80399 5.41771 4.66046 6.18369 3.75929C6.94967 2.85813 8.01031 2.25766 9.17717 2.06458C10.344 1.87151 11.5415 2.09832 12.557 2.70472C13.5724 3.31112 14.34 4.25785 14.7234 5.37671C14.7806 5.54855 14.8833 5.70164 15.0207 5.81964C15.1581 5.93765 15.3249 6.01613 15.5034 6.04671C16.1048 6.15555 16.6585 6.44544 17.0906 6.8776C17.5227 7.30975 17.8125 7.86355 17.9212 8.46491C18.03 9.06627 17.9525 9.68649 17.6991 10.2426C17.4457 10.7987 17.0286 11.2642 16.5034 11.5767C16.2727 11.7093 16.1041 11.9282 16.0347 12.1851C15.9653 12.442 16.0008 12.716 16.1334 12.9467C16.266 13.1774 16.4849 13.3461 16.7418 13.4154C16.9987 13.4848 17.2727 13.4493 17.5034 13.3167C18.2616 12.8766 18.8908 12.2449 19.3278 11.4849C19.7649 10.7249 19.9944 9.8634 19.9934 8.98671C19.9904 7.91084 19.6404 6.86465 18.9954 6.00352C18.3505 5.14239 17.445 4.51225 16.4134 4.20671V4.20671Z" fill="var(--fill-0, #1E1F26)"/>
</svg>
