<svg preserveAspectRatio="none" width="100%" height="100%" overflow="visible" style="display: block;" viewBox="0 0 20 20" fill="none" xmlns="http://www.w3.org/2000/svg">
<path id="Vector" d="M10 0C8.02219 0 6.08879 0.58649 4.4443 1.6853C2.79981 2.78412 1.51809 4.3459 0.761209 6.17317C0.00433283 8.00043 -0.193701 10.0111 0.192152 11.9509C0.578004 13.8907 1.53041 15.6725 2.92894 17.0711C4.32746 18.4696 6.10929 19.422 8.0491 19.8079C9.98891 20.1937 11.9996 19.9957 13.8268 19.2388C15.6541 18.4819 17.2159 17.2002 18.3147 15.5557C19.4135 13.9112 20 11.9778 20 10C20 8.68678 19.7413 7.38642 19.2388 6.17317C18.7363 4.95991 17.9997 3.85752 17.0711 2.92893C16.1425 2.00035 15.0401 1.26375 13.8268 0.761205C12.6136 0.258658 11.3132 0 10 0V0ZM10 18C8.41775 18 6.87104 17.5308 5.55544 16.6518C4.23985 15.7727 3.21447 14.5233 2.60897 13.0615C2.00347 11.5997 1.84504 9.99113 2.15372 8.43928C2.4624 6.88743 3.22433 5.46197 4.34315 4.34315C5.46197 3.22433 6.88743 2.4624 8.43928 2.15372C9.99113 1.84504 11.5997 2.00346 13.0615 2.60896C14.5233 3.21447 15.7727 4.23984 16.6518 5.55544C17.5308 6.87103 18 8.41775 18 10C18 12.1217 17.1572 14.1566 15.6569 15.6569C14.1566 17.1571 12.1217 18 10 18V18ZM10 7C9.40666 7 8.82664 7.17595 8.33329 7.50559C7.83995 7.83524 7.45543 8.30377 7.22837 8.85195C7.0013 9.40013 6.94189 10.0033 7.05765 10.5853C7.1734 11.1672 7.45913 11.7018 7.87868 12.1213C8.29824 12.5409 8.83279 12.8266 9.41473 12.9424C9.99668 13.0581 10.5999 12.9987 11.1481 12.7716C11.6962 12.5446 12.1648 12.1601 12.4944 11.6667C12.8241 11.1734 13 10.5933 13 10C13 9.20435 12.6839 8.44129 12.1213 7.87868C11.5587 7.31607 10.7957 7 10 7ZM10 11C9.80222 11 9.60888 10.9414 9.44443 10.8315C9.27999 10.7216 9.15181 10.5654 9.07613 10.3827C9.00044 10.2 8.98063 9.99889 9.01922 9.80491C9.0578 9.61093 9.15305 9.43275 9.2929 9.29289C9.43275 9.15304 9.61093 9.0578 9.80491 9.01921C9.9989 8.98063 10.2 9.00043 10.3827 9.07612C10.5654 9.15181 10.7216 9.27998 10.8315 9.44443C10.9414 9.60888 11 9.80222 11 10C11 10.2652 10.8946 10.5196 10.7071 10.7071C10.5196 10.8946 10.2652 11 10 11Z" fill="var(--fill-0, #1E1F26)"/>
</svg>
