<svg preserveAspectRatio="none" width="100%" height="100%" overflow="visible" style="display: block;" viewBox="0 0 20.0099 20.0099" fill="none" xmlns="http://www.w3.org/2000/svg">
<path id="Vector" d="M8.66409 4.00409H16.0041C16.2693 4.00409 16.5237 4.10945 16.7112 4.29699C16.8987 4.48452 17.0041 4.73888 17.0041 5.00409V11.0041C17.0053 11.1806 16.9568 11.3539 16.8641 11.5041C16.7938 11.6151 16.7461 11.7388 16.7236 11.8682C16.7012 11.9976 16.7044 12.1302 16.7332 12.2583C16.762 12.3865 16.8158 12.5077 16.8914 12.6151C16.9671 12.7224 17.0631 12.8138 17.1741 12.8841C17.3307 12.9894 17.5154 13.0452 17.7041 13.0441C17.8714 13.0438 18.036 13.0016 18.1827 12.9212C18.3295 12.8408 18.4537 12.7249 18.5441 12.5841C18.8447 12.1119 19.0043 11.5638 19.0041 11.0041V5.00409C19.0041 4.20844 18.688 3.44538 18.1254 2.88277C17.5628 2.32016 16.7997 2.00409 16.0041 2.00409H8.66409C8.39887 2.00409 8.14452 2.10945 7.95698 2.29699C7.76945 2.48452 7.66409 2.73888 7.66409 3.00409C7.66409 3.26931 7.76945 3.52366 7.95698 3.7112C8.14452 3.89873 8.39887 4.00409 8.66409 4.00409V4.00409ZM19.7141 18.2941L3.86409 2.45409L1.71409 0.294092C1.62085 0.200853 1.51016 0.126892 1.38834 0.0764319C1.26652 0.0259715 1.13595 0 1.00409 0C0.872232 0 0.741664 0.0259715 0.619842 0.0764319C0.49802 0.126892 0.38733 0.200853 0.294092 0.294092C0.105788 0.482395 0 0.73779 0 1.00409C0 1.27039 0.105788 1.52579 0.294092 1.71409L1.69409 3.10409C1.25122 3.63853 1.00737 4.31001 1.00409 5.00409V11.0041C1.00409 11.7997 1.32016 12.5628 1.88277 13.1254C2.44538 13.688 3.20844 14.0041 4.00409 14.0041H9.00409V16.0041H5.00409C4.73888 16.0041 4.48452 16.1094 4.29699 16.297C4.10945 16.4845 4.00409 16.7389 4.00409 17.0041C4.00409 17.2693 4.10945 17.5237 4.29699 17.7112C4.48452 17.8987 4.73888 18.0041 5.00409 18.0041H15.0041C15.2079 18.002 15.4062 17.9376 15.5724 17.8197C15.7386 17.7017 15.8648 17.5358 15.9341 17.3441L18.2941 19.7141C18.3871 19.8078 18.4977 19.8822 18.6195 19.933C18.7414 19.9838 18.8721 20.0099 19.0041 20.0099C19.1361 20.0099 19.2668 19.9838 19.3887 19.933C19.5105 19.8822 19.6211 19.8078 19.7141 19.7141C19.8078 19.6211 19.8822 19.5105 19.933 19.3887C19.9838 19.2668 20.0099 19.1361 20.0099 19.0041C20.0099 18.8721 19.9838 18.7414 19.933 18.6195C19.8822 18.4977 19.8078 18.3871 19.7141 18.2941V18.2941ZM4.00409 12.0041C3.73888 12.0041 3.48452 11.8987 3.29699 11.7112C3.10945 11.5237 3.00409 11.2693 3.00409 11.0041V5.00409C3.00653 4.84334 3.0477 4.68555 3.12409 4.54409L10.5941 12.0041H4.00409ZM11.0041 16.0041V14.0041H12.5941L14.5941 16.0041H11.0041Z" fill="var(--fill-0, #1E1F26)"/>
</svg>
