<svg preserveAspectRatio="none" width="100%" height="100%" overflow="visible" style="display: block;" viewBox="0 0 18.9885 22.0001" fill="none" xmlns="http://www.w3.org/2000/svg">
<path id="Vector" d="M17.9105 6.10449C17.7378 5.91091 17.5459 5.7354 17.3377 5.58069C17.4232 4.91079 17.3641 4.23035 17.1644 3.58522C16.9647 2.9401 16.629 2.34527 16.18 1.84082C15.096 0.61914 13.2484 0 10.6878 0H4.47398C4.02506 0.00119633 3.59119 0.161949 3.24986 0.453542C2.90854 0.745136 2.68199 1.14858 2.6107 1.5918L0.0208492 17.9981C-0.0157915 18.218 -0.0040338 18.4432 0.0553028 18.6581C0.114639 18.873 0.220127 19.0724 0.364413 19.2423C0.5087 19.4123 0.688313 19.5487 0.890734 19.6421C1.09315 19.7355 1.31351 19.7837 1.53645 19.7832H4.20054L4.11854 20.3037C4.08538 20.5131 4.098 20.7272 4.15552 20.9312C4.21304 21.1352 4.3141 21.3244 4.45175 21.4856C4.58939 21.6468 4.76034 21.7763 4.95283 21.8651C5.14532 21.9539 5.35476 21.9999 5.56675 22H8.80113C9.22011 22.0033 9.62656 21.8572 9.94749 21.5878C10.2684 21.3185 10.4828 20.9435 10.5521 20.5303L11.1928 16.499L11.2035 16.4443H11.5023C15.5346 16.4443 18.0531 14.4512 18.7875 10.6816C19.0115 9.90348 19.0489 9.08346 18.8965 8.28817C18.7441 7.49287 18.4063 6.74472 17.9105 6.10449V6.10449ZM5.31578 12.7041L4.6013 17.2394L4.51499 17.7832H2.07945L4.57066 2H10.6878C12.6234 2 14.0052 2.4043 14.68 3.16406C14.9985 3.53441 15.2207 3.97767 15.3267 4.4545C15.4328 4.93133 15.4195 5.42696 15.2879 5.8974L15.2693 6.00964C15.2572 6.08612 15.2461 6.16083 15.2259 6.25586C15.0331 7.68478 14.319 8.99202 13.2208 9.92639C11.988 10.7837 10.5021 11.2005 9.00328 11.1094H7.18003C6.72981 11.1079 6.294 11.268 5.95188 11.5607C5.60975 11.8533 5.38403 12.2591 5.31578 12.7041V12.7041ZM16.8246 10.2988C16.2738 13.127 14.5824 14.4443 11.5023 14.4443H11.0189C10.5995 14.4411 10.1927 14.5876 9.87168 14.8576C9.55069 15.1276 9.33658 15.5032 9.2679 15.917L8.61849 19.9912L6.19078 20L6.66893 16.9661L7.28007 13.1133H8.99937C9.15617 13.1133 9.29478 13.0897 9.44749 13.0843C9.80632 13.072 10.1641 13.0582 10.5002 13.0165C10.7054 12.9909 10.8938 12.9443 11.0905 12.9078C11.363 12.8574 11.6357 12.8076 11.8916 12.7365C12.0819 12.6835 12.2596 12.6153 12.4406 12.5509C12.6799 12.466 12.9154 12.3769 13.1382 12.2722C13.3062 12.1931 13.4663 12.1052 13.6248 12.0149C13.8358 11.8954 14.0402 11.7647 14.2372 11.6232C14.3794 11.5206 14.5191 11.4153 14.6522 11.3022C14.8408 11.1396 15.0201 10.9663 15.1891 10.7833C15.3021 10.6628 15.4178 10.5458 15.5224 10.4161C15.696 10.1949 15.8563 9.96362 16.0024 9.72343C16.0789 9.60124 16.1637 9.4882 16.234 9.3596C16.4366 8.98894 16.6107 8.6034 16.7548 8.20634C16.7634 8.18248 16.7758 8.16234 16.7843 8.13834C16.7883 8.12711 16.7942 8.11777 16.7982 8.10648C16.9963 8.8227 17.0054 9.57805 16.8246 10.2988V10.2988Z" fill="var(--fill-0, #1E1F26)"/>
</svg>
