<svg preserveAspectRatio="none" width="100%" height="100%" overflow="visible" style="display: block;" viewBox="0 0 20.014 20.005" fill="none" xmlns="http://www.w3.org/2000/svg">
<path id="Vector" d="M19.71 8.12495L11.88 0.294953C11.7485 0.162691 11.5826 0.069837 11.4011 0.0268828C11.2197 -0.0160714 11.0298 -0.0074143 10.8529 0.051876C10.6761 0.111166 10.5194 0.218727 10.4005 0.362406C10.2816 0.506085 10.2052 0.680156 10.18 0.864953L9.45 6.00495L7.45 8.00495L7.12 7.81495C6.90469 7.71027 6.65896 7.6863 6.42748 7.74741C6.196 7.80852 5.99413 7.95065 5.85854 8.14797C5.72296 8.34529 5.66267 8.58471 5.68863 8.82271C5.71459 9.06071 5.82507 9.2815 6 9.44495L4.85 10.615L4.52 10.425C4.30523 10.3263 4.06247 10.307 3.83477 10.3703C3.60708 10.4336 3.40916 10.5755 3.27614 10.7709C3.14312 10.9662 3.08358 11.2023 3.10808 11.4374C3.13258 11.6725 3.23955 11.8912 3.41 12.055L2.24 13.215L1.92 13.005C1.80587 12.9388 1.67978 12.8959 1.549 12.8788C1.41822 12.8616 1.28534 12.8704 1.158 12.9048C1.03066 12.9392 0.911378 12.9985 0.807031 13.0792C0.702684 13.1598 0.61533 13.2604 0.55 13.375C0.437065 13.5809 0.400223 13.82 0.445935 14.0504C0.491646 14.2808 0.616992 14.4877 0.8 14.635L0.29 15.145C0.197397 15.2388 0.125814 15.3513 0.0799999 15.475C0.028759 15.5952 0.00157999 15.7243 0 15.855V19.005C0 19.2702 0.105357 19.5245 0.292893 19.7121C0.48043 19.8996 0.734784 20.005 1 20.005H4.13C4.26068 20.0034 4.38978 19.9762 4.51 19.925C4.63364 19.8791 4.74613 19.8076 4.84 19.715L6.54 18.005L6.87 18.195C6.98354 18.2615 7.10909 18.305 7.23946 18.3229C7.36983 18.3408 7.50246 18.3328 7.62973 18.2993C7.757 18.2659 7.87643 18.2077 7.98115 18.128C8.08587 18.0483 8.17384 17.9487 8.24 17.835C8.35674 17.6291 8.39669 17.3885 8.35275 17.156C8.3088 16.9234 8.18381 16.714 8 16.565L9.17 15.405L9.5 15.595C9.64946 15.6797 9.81821 15.7244 9.99 15.725C10.1814 15.7077 10.3638 15.6357 10.5153 15.5174C10.6669 15.3992 10.7811 15.2398 10.8444 15.0584C10.9077 14.8769 10.9174 14.681 10.8723 14.4942C10.8272 14.3074 10.7292 14.1375 10.59 14.005L11.76 12.845L12.09 13.035C12.2395 13.1197 12.4082 13.1644 12.58 13.165C12.7842 13.1613 12.9824 13.0952 13.1479 12.9756C13.3135 12.8559 13.4384 12.6885 13.5059 12.4957C13.5734 12.3029 13.5803 12.0941 13.5256 11.8973C13.4709 11.7006 13.3573 11.5252 13.2 11.395L13.99 10.605L19.14 9.87495C19.3251 9.84865 19.4991 9.77099 19.6423 9.65079C19.7854 9.5306 19.892 9.37268 19.95 9.19495C20.0186 9.01261 20.0324 8.81421 19.9897 8.62412C19.9471 8.43404 19.8499 8.26054 19.71 8.12495V8.12495ZM3.72 18.005H2V16.285L2.57 15.715L4.75 17.005L3.72 18.005ZM6.21 15.505L4 14.255L5.14 13.115L7.31 14.365L6.21 15.505ZM8.82 12.905L6.64 11.645L7.79 10.505L10 11.755L8.82 12.905ZM11.43 10.295L9.25 9.00495L10.39 7.86495L12.11 9.58495L11.43 10.295ZM13.88 8.55495L11.45 6.12495L11.88 3.12495L16.88 8.12495L13.88 8.55495Z" fill="var(--fill-0, #1E1F26)"/>
</svg>
