<svg preserveAspectRatio="none" width="100%" height="100%" overflow="visible" style="display: block;" viewBox="0 0 10.0058 10.0099" fill="none" xmlns="http://www.w3.org/2000/svg">
<path id="Vector" d="M1.7158 0.294092C1.62256 0.200853 1.51187 0.126893 1.39005 0.0764322C1.26823 0.0259719 1.13766 9.82428e-10 1.0058 0C0.873939 -9.82427e-10 0.743371 0.0259719 0.621549 0.0764322C0.499727 0.126893 0.389037 0.200853 0.295798 0.294092C0.20256 0.38733 0.128599 0.498021 0.0781388 0.619843C0.0276785 0.741665 0.0017066 0.872233 0.0017066 1.00409C0.0017066 1.13595 0.0276785 1.26652 0.0781388 1.38834C0.128599 1.51016 0.20256 1.62085 0.295798 1.71409L3.5958 5.00409L0.295798 8.29409C0.20207 8.38706 0.127676 8.49766 0.0769072 8.61951C0.0261385 8.74137 0 8.87208 0 9.00409C0 9.1361 0.0261385 9.26681 0.0769072 9.38867C0.127676 9.51053 0.20207 9.62113 0.295798 9.71409C0.388761 9.80782 0.499362 9.88221 0.621222 9.93298C0.743081 9.98375 0.873786 10.0099 1.0058 10.0099C1.13781 10.0099 1.26852 9.98375 1.39038 9.93298C1.51223 9.88221 1.62284 9.80782 1.7158 9.71409L5.7158 5.71409C5.80953 5.62113 5.88392 5.51053 5.93469 5.38867C5.98546 5.26681 6.0116 5.1361 6.0116 5.00409C6.0116 4.87208 5.98546 4.74137 5.93469 4.61951C5.88392 4.49766 5.80953 4.38705 5.7158 4.29409L1.7158 0.294092ZM9.0058 0.00409174C8.74058 0.00409174 8.48623 0.109449 8.29869 0.296985C8.11116 0.484522 8.0058 0.738875 8.0058 1.00409V9.00409C8.0058 9.26931 8.11116 9.52366 8.29869 9.7112C8.48623 9.89874 8.74058 10.0041 9.0058 10.0041C9.27101 10.0041 9.52537 9.89874 9.71291 9.7112C9.90044 9.52366 10.0058 9.26931 10.0058 9.00409V1.00409C10.0058 0.738875 9.90044 0.484522 9.71291 0.296985C9.52537 0.109449 9.27101 0.00409174 9.0058 0.00409174Z" fill="var(--fill-0, #1E1F26)"/>
</svg>
