<svg preserveAspectRatio="none" width="100%" height="100%" overflow="visible" style="display: block;" viewBox="0 0 22.0001 22.0001" fill="none" xmlns="http://www.w3.org/2000/svg">
<path id="Vector" d="M14.1392 10.8125C13.7388 10.5554 13.3042 10.3559 12.8482 10.2198C12.5684 10.1352 12.2587 10.0524 11.9378 9.97265C11.6587 9.89483 11.3265 9.81499 10.9156 9.72465C10.4263 9.62213 9.94612 9.4804 9.4796 9.30082C9.23923 9.20731 9.02713 9.05323 8.86388 8.85356C8.74473 8.69027 8.68824 8.4896 8.7047 8.28813C8.70415 8.07202 8.77601 7.86195 8.9088 7.69145C9.09508 7.47294 9.33679 7.30866 9.60851 7.21586C10.0662 7.05865 10.5486 6.98553 11.0323 7.00005C11.406 6.99406 11.7785 7.04342 12.1377 7.14653C12.3763 7.21331 12.601 7.32211 12.8013 7.46782C12.9308 7.56008 13.0412 7.67647 13.1265 7.8106C13.1885 7.92664 13.2727 8.02931 13.3744 8.11273C13.4762 8.19614 13.5933 8.25866 13.7193 8.29671C13.8452 8.33475 13.9774 8.34757 14.1083 8.33442C14.2392 8.32128 14.3662 8.28243 14.482 8.22011C14.5979 8.15778 14.7003 8.07321 14.7834 7.97123C14.8665 7.86925 14.9286 7.75188 14.9663 7.62583C15.0039 7.49979 15.0163 7.36755 15.0027 7.23671C14.9892 7.10586 14.9499 6.97898 14.8873 6.86333C14.6763 6.4903 14.3913 6.1643 14.0498 5.90533C13.6556 5.60244 13.2084 5.37559 12.731 5.23638C12.1797 5.07338 11.6071 4.99372 11.0323 5.00005C10.3018 4.98453 9.57476 5.10336 8.88728 5.35064C8.26525 5.57642 7.71866 5.97147 7.30913 6.49126C6.91721 7.00834 6.70495 7.63931 6.70464 8.28814C6.68844 8.93408 6.89307 9.56622 7.28472 10.0801C7.66279 10.5564 8.1584 10.9259 8.72272 11.1524C9.14914 11.3164 9.58574 11.4527 10.0298 11.5603C10.0381 11.563 10.0438 11.5698 10.0523 11.5723C10.2437 11.6299 10.5499 11.7071 10.9922 11.8028C11.1646 11.8398 11.327 11.8806 11.4894 11.9212C11.5051 11.9259 11.5279 11.9309 11.543 11.9356L11.5611 11.9383C11.8094 12.0016 12.0482 12.067 12.2667 12.1338C12.5359 12.2124 12.793 12.3281 13.0303 12.4776C13.178 12.5706 13.302 12.6966 13.3926 12.8457C13.4808 13.0276 13.5216 13.2289 13.5113 13.4307C13.5253 13.6921 13.4498 13.9504 13.2974 14.1632C13.0914 14.4311 12.8128 14.6341 12.4947 14.7482C12.0211 14.9309 11.5157 15.0165 11.0083 15C10.4212 15.0228 9.83712 14.9049 9.30474 14.6563C9.05905 14.5254 8.84801 14.3379 8.68901 14.1094C8.57752 13.9631 8.50782 13.7893 8.48735 13.6065C8.48735 13.3413 8.38199 13.0869 8.19446 12.8994C8.00692 12.7119 7.75257 12.6065 7.48735 12.6065C7.22213 12.6065 6.96778 12.7119 6.78024 12.8994C6.59271 13.0869 6.48735 13.3413 6.48735 13.6065C6.50412 14.1962 6.6979 14.7671 7.04351 15.2452C7.38895 15.743 7.84919 16.1503 8.3853 16.4327C9.20101 16.8308 10.101 17.0255 11.0083 17C11.7793 17.0186 12.546 16.8807 13.2623 16.5948C13.928 16.3394 14.5061 15.8977 14.9273 15.3223C15.3275 14.7613 15.5325 14.0844 15.5107 13.3956C15.5201 12.8616 15.3909 12.3344 15.1357 11.8653C14.8895 11.442 14.5484 11.0816 14.1392 10.8125V10.8125ZM21.3614 12.6915C21.6313 11.0478 21.506 9.3634 20.9958 7.77774C20.4855 6.19209 19.6051 4.75071 18.4272 3.57287C17.2494 2.39502 15.808 1.51457 14.2224 1.00434C12.6367 0.494113 10.9523 0.368783 9.30864 0.638719C8.09526 0.0569825 6.73123 -0.133774 5.40482 0.092778C4.0784 0.31933 2.85502 0.95202 1.90352 1.90352C0.95202 2.85502 0.31933 4.0784 0.092778 5.40482C-0.133774 6.73123 0.0569825 8.09526 0.638719 9.30864C0.368783 10.9523 0.494113 12.6367 1.00434 14.2224C1.51457 15.808 2.39502 17.2494 3.57287 18.4272C4.75071 19.6051 6.19209 20.4855 7.77774 20.9958C9.3634 21.506 11.0478 21.6313 12.6915 21.3614C13.9048 21.9431 15.2689 22.1339 16.5953 21.9073C17.9217 21.6808 19.1451 21.0481 20.0966 20.0966C21.0481 19.1451 21.6808 17.9217 21.9073 16.5953C22.1339 15.2689 21.9431 13.9048 21.3614 12.6915V12.6915ZM15.5 20C14.7415 19.9998 13.9953 19.808 13.3306 19.4424C13.1244 19.3286 12.8846 19.2909 12.6534 19.336C11.4209 19.5818 10.1493 19.5511 8.93015 19.2459C7.71104 18.9408 6.57484 18.3688 5.60354 17.5714C4.63223 16.7739 3.85002 15.7708 3.31334 14.6345C2.77666 13.4981 2.49888 12.2568 2.50005 11C2.50108 10.4446 2.55602 9.89057 2.66411 9.34575C2.70926 9.11474 2.67176 8.8752 2.55816 8.66905C2.08814 7.81512 1.90813 6.83165 2.04522 5.86661C2.18231 4.90156 2.62908 4.00713 3.31832 3.31788C4.00756 2.62864 4.90199 2.18185 5.86703 2.04475C6.83208 1.90766 7.81555 2.08765 8.66948 2.55767C8.87562 2.67187 9.11549 2.70957 9.34673 2.66411C10.5792 2.41827 11.8508 2.44904 13.0699 2.75419C14.2891 3.05934 15.4253 3.63127 16.3966 4.42872C17.3679 5.22617 18.1501 6.22926 18.6868 7.36563C19.2234 8.502 19.5012 9.74332 19.5 11C19.499 11.5555 19.4441 12.1095 19.336 12.6543C19.2908 12.8854 19.3284 13.1249 19.442 13.3311C19.8193 14.0162 20.0115 14.7878 19.9996 15.5698C19.9877 16.3518 19.7721 17.1172 19.3741 17.7905C18.9762 18.4638 18.4096 19.0217 17.7302 19.4091C17.0508 19.7966 16.2822 20.0003 15.5 20Z" fill="var(--fill-0, #1E1F26)"/>
</svg>
