<svg preserveAspectRatio="none" width="100%" height="100%" overflow="visible" style="display: block;" viewBox="0 0 20.0099 20.0099" fill="none" xmlns="http://www.w3.org/2000/svg">
<path id="Vector" d="M9.07409 4.12409C9.37726 4.04232 9.6901 4.00195 10.0041 4.00409C11.065 4.00409 12.0824 4.42552 12.8325 5.17566C13.5827 5.92581 14.0041 6.94323 14.0041 8.00409V9.34409C14.0041 9.60931 14.1094 9.86366 14.297 10.0512C14.4845 10.2387 14.7389 10.3441 15.0041 10.3441C15.2693 10.3441 15.5237 10.2387 15.7112 10.0512C15.8987 9.86366 16.0041 9.60931 16.0041 9.34409V8.00409C16.0027 6.58721 15.4998 5.21656 14.5847 4.13487C13.6696 3.05317 12.4012 2.33024 11.0041 2.09409V1.00409C11.0041 0.738875 10.8987 0.484521 10.7112 0.296985C10.5237 0.109448 10.2693 0.00409162 10.0041 0.00409162C9.73887 0.00409162 9.48452 0.109448 9.29698 0.296985C9.10945 0.484521 9.00409 0.738875 9.00409 1.00409V2.10409L8.55409 2.18409C8.29683 2.25305 8.0775 2.42138 7.94435 2.65205C7.8112 2.88272 7.77514 3.15683 7.84409 3.41409C7.91305 3.67135 8.08138 3.89068 8.31205 4.02383C8.54271 4.15698 8.81683 4.19305 9.07409 4.12409V4.12409ZM19.7141 18.2941L1.71409 0.294092C1.52579 0.105788 1.27039 -1.9841e-09 1.00409 0C0.73779 1.9841e-09 0.482395 0.105788 0.294092 0.294092C0.105788 0.482395 1.9841e-09 0.73779 0 1.00409C-1.9841e-09 1.27039 0.105788 1.52579 0.294092 1.71409L4.41409 5.82409C4.14312 6.51896 4.00408 7.25826 4.00409 8.00409V11.1841C3.42054 11.3904 2.91509 11.7722 2.55703 12.277C2.19897 12.7819 2.00583 13.3851 2.00409 14.0041V16.0041C2.00409 16.2693 2.10945 16.5237 2.29699 16.7112C2.48452 16.8987 2.73888 17.0041 3.00409 17.0041H6.14409C6.37437 17.8515 6.87709 18.5995 7.57469 19.1328C8.27228 19.6661 9.12599 19.9551 10.0041 19.9551C10.8822 19.9551 11.7359 19.6661 12.4335 19.1328C13.1311 18.5995 13.6338 17.8515 13.8641 17.0041H15.5941L18.2941 19.7141C18.3871 19.8078 18.4977 19.8822 18.6195 19.933C18.7414 19.9838 18.8721 20.0099 19.0041 20.0099C19.1361 20.0099 19.2668 19.9838 19.3887 19.933C19.5105 19.8822 19.6211 19.8078 19.7141 19.7141C19.8078 19.6211 19.8822 19.5105 19.933 19.3887C19.9838 19.2668 20.0099 19.1361 20.0099 19.0041C20.0099 18.8721 19.9838 18.7414 19.933 18.6195C19.8822 18.4977 19.8078 18.3871 19.7141 18.2941V18.2941ZM6.00409 8.00409C5.98883 7.82108 5.98883 7.63711 6.00409 7.45409L9.59409 11.0041H6.00409V8.00409ZM10.0041 18.0041C9.65506 18.002 9.31266 17.9086 9.01092 17.7331C8.70918 17.5577 8.4586 17.3064 8.28409 17.0041H11.7241C11.5496 17.3064 11.299 17.5577 10.9973 17.7331C10.6955 17.9086 10.3531 18.002 10.0041 18.0041ZM4.00409 15.0041V14.0041C4.00409 13.7389 4.10945 13.4845 4.29699 13.297C4.48452 13.1094 4.73888 13.0041 5.00409 13.0041H11.5941L13.5941 15.0041H4.00409Z" fill="var(--fill-0, #1E1F26)"/>
</svg>
