<svg preserveAspectRatio="none" width="100%" height="100%" overflow="visible" style="display: block;" viewBox="0 0 19.9623 15.9867" fill="none" xmlns="http://www.w3.org/2000/svg">
<path id="Vector" d="M16.4284 4.20671C15.8174 2.80272 14.7629 1.63779 13.4265 0.890438C12.0901 0.143088 10.5455 -0.145456 9.0294 0.0690207C7.51331 0.283498 6.10936 0.989165 5.03269 2.07789C3.95602 3.16661 3.26602 4.57833 3.06844 6.09671C2.11502 6.32503 1.27866 6.89554 0.718173 7.6999C0.157689 8.50426 -0.0878807 9.48644 0.0280989 10.4599C0.144078 11.4334 0.61353 12.3304 1.3473 12.9806C2.08107 13.6307 3.02806 13.9888 4.00844 13.9867H6.00844C6.27365 13.9867 6.52801 13.8814 6.71554 13.6938C6.90308 13.5063 7.00844 13.2519 7.00844 12.9867C7.00844 12.7215 6.90308 12.4671 6.71554 12.2796C6.52801 12.0921 6.27365 11.9867 6.00844 11.9867H4.00844C3.478 11.9867 2.96929 11.776 2.59422 11.4009C2.21915 11.0259 2.00844 10.5171 2.00844 9.98671C2.00844 9.45628 2.21915 8.94757 2.59422 8.5725C2.96929 8.19743 3.478 7.98671 4.00844 7.98671C4.27365 7.98671 4.52801 7.88135 4.71554 7.69382C4.90308 7.50628 5.00844 7.25193 5.00844 6.98671C5.01099 5.80399 5.43272 4.66046 6.1987 3.75929C6.96469 2.85813 8.02533 2.25766 9.19218 2.06459C10.359 1.87151 11.5566 2.09832 12.572 2.70472C13.5874 3.31112 14.355 4.25785 14.7384 5.37671C14.7956 5.54855 14.8983 5.70164 15.0357 5.81964C15.1731 5.93765 15.3399 6.01613 15.5184 6.04671C16.2126 6.16645 16.8425 6.52664 17.2978 7.06418C17.753 7.60171 18.0046 8.28231 18.0084 8.98671C18.0084 9.78236 17.6924 10.5454 17.1298 11.108C16.5671 11.6706 15.8041 11.9867 15.0084 11.9867C14.7432 11.9867 14.4889 12.0921 14.3013 12.2796C14.1138 12.4671 14.0084 12.7215 14.0084 12.9867C14.0084 13.2519 14.1138 13.5063 14.3013 13.6938C14.4889 13.8814 14.7432 13.9867 15.0084 13.9867C16.2021 13.9757 17.3523 13.538 18.2514 12.7528C19.1504 11.9676 19.7389 10.8866 19.9104 9.70536C20.0819 8.52408 19.8252 7.32041 19.1866 6.31194C18.548 5.30346 17.5696 4.55673 16.4284 4.20671V4.20671ZM10.9284 14.6067C10.9085 14.5453 10.878 14.4878 10.8384 14.4367L10.7184 14.2767C10.6212 14.1884 10.5096 14.1174 10.3884 14.0667C10.2063 13.9901 10.0056 13.9692 9.81162 14.0066C9.61763 14.044 9.43906 14.138 9.29844 14.2767L9.17844 14.4367C9.13885 14.4878 9.10841 14.5453 9.08844 14.6067C9.0596 14.6634 9.03938 14.7241 9.02844 14.7867C9.02399 14.8533 9.02399 14.9201 9.02844 14.9867C9.02354 15.05 9.02354 15.1135 9.02844 15.1767C9.03771 15.2429 9.05799 15.3072 9.08844 15.3667C9.10841 15.4281 9.13885 15.4857 9.17844 15.5367L9.29844 15.6967C9.49007 15.8794 9.74367 15.983 10.0084 15.9867C10.1391 15.9851 10.2682 15.958 10.3884 15.9067C10.5096 15.8561 10.6212 15.785 10.7184 15.6967L10.8384 15.5367C10.878 15.4857 10.9085 15.4281 10.9284 15.3667C10.9589 15.3072 10.9792 15.2429 10.9884 15.1767C11 15.114 11.0067 15.0505 11.0084 14.9867C11.0129 14.9201 11.0129 14.8533 11.0084 14.7867C10.9912 14.7229 10.9642 14.6622 10.9284 14.6067V14.6067ZM10.0084 6.98671C9.4815 6.98637 8.96377 7.12483 8.50734 7.38815C8.05092 7.65148 7.6719 8.03037 7.40843 8.48671C7.34232 8.60085 7.29943 8.72693 7.28225 8.85771C7.26506 8.98849 7.27392 9.12138 7.30831 9.24872C7.3427 9.37606 7.40195 9.49533 7.48263 9.59968C7.56332 9.70403 7.66385 9.79138 7.77844 9.85671C8.00805 9.98708 8.27991 10.0213 8.5347 9.95203C8.78949 9.88272 9.00652 9.71544 9.13844 9.48671C9.22654 9.33411 9.3534 9.20749 9.50618 9.11969C9.65896 9.03189 9.83223 8.98601 10.0084 8.98671C10.2737 8.98671 10.528 9.09207 10.7155 9.2796C10.9031 9.46714 11.0084 9.7215 11.0084 9.98671C11.0084 10.2519 10.9031 10.5063 10.7155 10.6938C10.528 10.8814 10.2737 10.9867 10.0084 10.9867C9.74322 10.9867 9.48887 11.0921 9.30133 11.2796C9.11379 11.4671 9.00844 11.7215 9.00844 11.9867C9.00844 12.2519 9.11379 12.5063 9.30133 12.6938C9.48887 12.8814 9.74322 12.9867 10.0084 12.9867C10.8041 12.9867 11.5671 12.6706 12.1298 12.108C12.6924 11.5454 13.0084 10.7824 13.0084 9.98671C13.0084 9.19106 12.6924 8.428 12.1298 7.86539C11.5671 7.30278 10.8041 6.98671 10.0084 6.98671V6.98671Z" fill="var(--fill-0, #1E1F26)"/>
</svg>
