<svg preserveAspectRatio="none" width="100%" height="100%" overflow="visible" style="display: block;" viewBox="0 0 21.7964 20.0099" fill="none" xmlns="http://www.w3.org/2000/svg">
<path id="Vector" d="M5.81079 3.51409L2.60079 0.294092C2.50755 0.200853 2.39686 0.126892 2.27504 0.0764319C2.15322 0.0259715 2.02265 0 1.89079 0C1.75893 0 1.62837 0.0259715 1.50654 0.0764319C1.38472 0.126892 1.27403 0.200853 1.18079 0.294092C0.992489 0.482395 0.886701 0.73779 0.886701 1.00409C0.886701 1.27039 0.992489 1.52579 1.18079 1.71409L3.45079 4.00409C2.29776 4.65957 1.23542 5.46306 0.290793 6.39409C0.104542 6.58145 0 6.83491 0 7.09909C0 7.36328 0.104542 7.61673 0.290793 7.80409C0.383407 7.89858 0.493852 7.97375 0.615727 8.02525C0.737603 8.07674 0.868485 8.10354 1.00079 8.10409C1.26313 8.10299 1.51453 7.99884 1.70079 7.81409C2.65373 6.86906 3.74654 6.07643 4.94079 5.46409L6.43079 7.00409C5.19152 7.54579 4.06526 8.31586 3.11079 9.27409C3.0068 9.36449 2.92261 9.47541 2.86351 9.59989C2.80441 9.72437 2.77168 9.85972 2.76736 9.99744C2.76304 10.1352 2.78723 10.2723 2.83841 10.4002C2.8896 10.5282 2.96667 10.6442 3.06479 10.7409C3.16292 10.8376 3.27997 10.9131 3.40862 10.9624C3.53727 11.0118 3.67473 11.034 3.81239 11.0278C3.95004 11.0215 4.08491 10.9868 4.20853 10.926C4.33216 10.8651 4.44187 10.7794 4.53079 10.6741C5.50036 9.70885 6.68163 8.98297 7.98079 8.55409L9.60079 10.1641C8.21446 10.4308 6.93974 11.1065 5.94079 12.1041C5.8368 12.1945 5.75261 12.3054 5.69351 12.4299C5.63441 12.5544 5.60168 12.6897 5.59736 12.8274C5.59304 12.9652 5.61723 13.1023 5.66841 13.2302C5.7196 13.3582 5.79667 13.4742 5.89479 13.5709C5.99292 13.6676 6.10997 13.7431 6.23862 13.7924C6.36727 13.8418 6.50473 13.864 6.64239 13.8578C6.78004 13.8515 6.91491 13.8168 7.03853 13.756C7.16216 13.6951 7.27187 13.6094 7.36079 13.5041C7.8215 13.034 8.37048 12.6596 8.97624 12.4022C9.58201 12.1447 10.2326 12.0095 10.8908 12.0041C11.1018 12.0046 11.3124 12.0214 11.5208 12.0541L19.1808 19.7141C19.2738 19.8078 19.3844 19.8822 19.5062 19.933C19.6281 19.9838 19.7588 20.0099 19.8908 20.0099C20.0228 20.0099 20.1535 19.9838 20.2754 19.933C20.3972 19.8822 20.5078 19.8078 20.6008 19.7141C20.6945 19.6211 20.7689 19.5105 20.8197 19.3887C20.8705 19.2668 20.8966 19.1361 20.8966 19.0041C20.8966 18.8721 20.8705 18.7414 20.8197 18.6195C20.7689 18.4977 20.6945 18.3871 20.6008 18.2941L5.81079 3.51409ZM10.8908 14.0041C10.2974 14.0041 9.71743 14.18 9.22408 14.5097C8.73073 14.8393 8.34622 15.3079 8.11915 15.856C7.89209 16.4042 7.83268 17.0074 7.94844 17.5894C8.06419 18.1713 8.34991 18.7059 8.76947 19.1254C9.18903 19.545 9.72358 19.8307 10.3055 19.9464C10.8875 20.0622 11.4907 20.0028 12.0388 19.7757C12.587 19.5487 13.0556 19.1641 13.3852 18.6708C13.7148 18.1775 13.8908 17.5974 13.8908 17.0041C13.8908 16.2084 13.5747 15.4454 13.0121 14.8828C12.4495 14.3202 11.6864 14.0041 10.8908 14.0041V14.0041ZM10.8908 18.0041C10.693 18.0041 10.4997 17.9454 10.3352 17.8356C10.1708 17.7257 10.0426 17.5695 9.96691 17.3868C9.89123 17.204 9.87142 17.003 9.91001 16.809C9.94859 16.615 10.0438 16.4368 10.1837 16.297C10.3235 16.1571 10.5017 16.0619 10.6957 16.0233C10.8897 15.9847 11.0908 16.0045 11.2735 16.0802C11.4562 16.1559 11.6124 16.2841 11.7223 16.4485C11.8321 16.613 11.8908 16.8063 11.8908 17.0041C11.8908 17.2693 11.7854 17.5237 11.5979 17.7112C11.4104 17.8987 11.156 18.0041 10.8908 18.0041ZM21.5008 6.39409C19.9028 4.79751 17.9649 3.58246 15.8316 2.83963C13.6983 2.09679 11.4248 1.84536 9.18079 2.10409C9.04947 2.11854 8.92228 2.15871 8.80648 2.22231C8.69068 2.28591 8.58855 2.37169 8.5059 2.47477C8.339 2.68293 8.26162 2.94888 8.29079 3.21409C8.31997 3.47931 8.4533 3.72207 8.66147 3.88898C8.86963 4.05589 9.13558 4.13327 9.40079 4.10409C11.3468 3.882 13.3178 4.1001 15.1681 4.74226C17.0184 5.38443 18.7008 6.43424 20.0908 7.81409C20.2791 8.00107 20.534 8.10559 20.7993 8.10465C21.0647 8.10371 21.3188 7.9974 21.5058 7.80909C21.6928 7.62079 21.7973 7.36592 21.7963 7.10056C21.7954 6.83519 21.6891 6.58107 21.5008 6.39409ZM17.2508 10.6341C17.4409 10.7994 17.6864 10.8868 17.9382 10.8789C18.19 10.871 18.4295 10.7684 18.6089 10.5915C18.7883 10.4146 18.8944 10.1766 18.9058 9.92491C18.9173 9.67325 18.8334 9.42654 18.6708 9.23409C17.335 7.88288 15.665 6.90985 13.8308 6.41409C13.7001 6.36362 13.5603 6.34116 13.4204 6.34818C13.2805 6.3552 13.1436 6.39154 13.0186 6.45484C12.8936 6.51814 12.7834 6.60699 12.6949 6.71563C12.6065 6.82428 12.5419 6.95029 12.5053 7.08551C12.4686 7.22073 12.4608 7.36213 12.4824 7.50055C12.5039 7.63898 12.5542 7.77134 12.6302 7.88905C12.7061 8.00677 12.806 8.10721 12.9232 8.18388C13.0405 8.26054 13.1725 8.31172 13.3108 8.33409C14.8009 8.74711 16.1585 9.53958 17.2508 10.6341V10.6341Z" fill="var(--fill-0, #1E1F26)"/>
</svg>
