<svg preserveAspectRatio="none" width="100%" height="100%" overflow="visible" style="display: block;" viewBox="0 0 20.0296 20.0171" fill="none" xmlns="http://www.w3.org/2000/svg">
<path id="Vector" d="M9.07711 18.1171C8.83005 18.003 8.60887 17.8397 8.42711 17.6371C8.10432 17.3251 7.87269 16.9309 7.75711 16.4971C7.5346 15.6956 7.07857 14.9785 6.44711 14.4371C6.56912 13.8504 6.54147 13.2424 6.3667 12.6692C6.19194 12.096 5.87569 11.576 5.44711 11.1571C4.88121 10.5078 4.08263 10.1072 3.22382 10.0417C2.36502 9.97618 1.51492 10.2511 0.857113 10.8071C0.300527 11.4666 0.0253136 12.3183 0.0907826 13.1787C0.156252 14.0392 0.557162 14.8395 1.20711 15.4071C1.80114 16.0125 2.57762 16.406 3.41711 16.5271H3.77711C4.31856 16.5288 4.84926 16.3761 5.30711 16.0871C5.55575 16.347 5.73164 16.6677 5.81711 17.0171C6.03263 17.7784 6.44679 18.4687 7.01711 19.0171C7.36252 19.3784 7.76869 19.6763 8.21711 19.8971C8.35425 19.9635 8.50474 19.9977 8.65711 19.9971C8.88382 19.998 9.10411 19.9219 9.28187 19.7812C9.45963 19.6405 9.58431 19.4436 9.63546 19.2227C9.68661 19.0019 9.66119 18.7702 9.56337 18.5657C9.46556 18.3611 9.30115 18.1959 9.09711 18.0971L9.07711 18.1171ZM4.33711 14.3471C4.24132 14.4279 4.12904 14.4867 4.00812 14.5195C3.88721 14.5523 3.76059 14.5583 3.63711 14.5371C3.23536 14.4879 2.86193 14.3047 2.57711 14.0171C2.00711 13.4571 1.84711 12.6271 2.21711 12.2471C2.37218 12.1127 2.572 12.0414 2.77711 12.0471C3.24351 12.0564 3.68807 12.2464 4.01711 12.5771C4.31573 12.8576 4.50974 13.2315 4.56711 13.6371C4.58457 13.7651 4.57296 13.8954 4.53314 14.0184C4.49333 14.1413 4.42632 14.2536 4.33711 14.3471ZM19.3371 8.22711C18.9887 8.11064 18.6756 7.90763 18.4271 7.63711C18.1043 7.32507 17.8727 6.93094 17.7571 6.49711C17.5346 5.69564 17.0786 4.97853 16.4471 4.43711C16.5629 3.84621 16.5274 3.23561 16.3438 2.66213C16.1602 2.08865 15.8345 1.57092 15.3971 1.15711C14.8312 0.507812 14.0326 0.107154 13.1738 0.0416681C12.315 -0.0238181 11.4649 0.251123 10.8071 0.807113C10.2505 1.46656 9.97531 2.31829 10.0408 3.17874C10.1063 4.03919 10.5072 4.83947 11.1571 5.40711C11.7642 6.02235 12.5598 6.41664 13.4171 6.52711H13.7771C14.3186 6.52876 14.8493 6.37614 15.3071 6.08711C15.5558 6.347 15.7316 6.66774 15.8171 7.01711C16.0361 7.77691 16.4498 8.46632 17.0171 9.01711C17.4917 9.50486 18.0739 9.87472 18.7171 10.0971C18.8212 10.1276 18.9287 10.1444 19.0371 10.1471C19.2468 10.1477 19.4513 10.0823 19.6217 9.96027C19.7922 9.83825 19.92 9.66573 19.9871 9.46711C20.0626 9.21648 20.0368 8.94623 19.9153 8.71439C19.7938 8.48255 19.5862 8.3076 19.3371 8.22711V8.22711ZM14.3371 4.34711C14.2413 4.42786 14.129 4.4867 14.0081 4.51952C13.8872 4.55234 13.7606 4.55834 13.6371 4.53711C13.2354 4.48789 12.8619 4.30469 12.5771 4.01711C12.0071 3.45711 11.8471 2.62711 12.2171 2.24711C12.3722 2.11273 12.572 2.04136 12.7771 2.04711C13.2435 2.05643 13.6881 2.24644 14.0171 2.57711C14.3157 2.85756 14.5097 3.23149 14.5671 3.63711C14.5846 3.76513 14.573 3.89545 14.5331 4.01836C14.4933 4.14128 14.4263 4.25365 14.3371 4.34711V4.34711ZM19.7271 18.4671C19.5309 17.6871 19.1269 16.9748 18.5582 16.406C17.9894 15.8373 17.2772 15.4333 16.4971 15.2371C15.971 15.0879 15.4922 14.8054 15.1071 14.4171C14.718 14.0399 14.441 13.5622 14.3071 13.0371C14.0899 12.2555 13.6719 11.5443 13.0948 10.9741C12.5176 10.404 11.8014 9.99476 11.0171 9.78711C10.4918 9.65369 10.0139 9.37669 9.63711 8.98711C9.2456 8.60617 8.96553 8.12555 8.82711 7.59711C8.63984 6.90902 8.2978 6.27283 7.82711 5.73711C7.98669 5.25407 8.05121 4.74469 8.01711 4.23711C7.88025 3.1724 7.38677 2.18544 6.61711 1.43711C5.86509 0.658032 4.87082 0.157372 3.79711 0.0171132C3.2885 -0.0338838 2.77492 0.0294424 2.29393 0.202461C1.81294 0.375479 1.3767 0.653815 1.01711 1.01711C0.653815 1.3767 0.375479 1.81294 0.202461 2.29393C0.0294424 2.77492 -0.0338838 3.2885 0.0171132 3.79711C0.15398 4.86183 0.64746 5.84879 1.41711 6.59711C2.16914 7.37619 3.16341 7.87685 4.23711 8.01711H4.66711C5.3803 8.03252 6.08018 7.82256 6.66711 7.41711C6.8048 7.63725 6.90926 7.87649 6.97711 8.12711C7.21259 8.98719 7.66861 9.77085 8.30003 10.4005C8.93145 11.0302 9.71638 11.484 10.5771 11.7171C11.0161 11.8376 11.416 12.0708 11.737 12.3936C12.058 12.7163 12.289 13.1175 12.4071 13.5571C12.6402 14.4195 13.0952 15.2057 13.7269 15.8374C14.3585 16.469 15.1447 16.9241 16.0071 17.1571C16.4449 17.2802 16.8421 17.5172 17.1584 17.844C17.4746 18.1707 17.6985 18.5756 17.8071 19.0171C17.847 19.1748 17.9005 19.3287 17.9671 19.4771C18.0508 19.6387 18.177 19.7743 18.332 19.8695C18.4871 19.9646 18.6652 20.0157 18.8471 20.0171C18.9988 20.0117 19.148 19.9777 19.2871 19.9171C19.5271 19.8044 19.7125 19.6009 19.8025 19.3515C19.8925 19.1021 19.8798 18.8271 19.7671 18.5871C19.7671 18.5871 19.7371 18.4871 19.7271 18.4671V18.4671ZM5.65711 5.65711C5.01711 6.28711 3.73711 6.06711 2.84711 5.18711C2.39847 4.75816 2.10628 4.19139 2.01711 3.57711C1.98368 3.36366 1.99771 3.14547 2.05821 2.93806C2.1187 2.73065 2.22417 2.53912 2.36711 2.37711C2.6396 2.12938 2.99925 1.99991 3.36711 2.01711C4.06094 2.04905 4.71601 2.34616 5.19711 2.84711C5.64208 3.27751 5.93067 3.84412 6.01711 4.45711C6.04921 4.6713 6.03359 4.88994 5.97135 5.09738C5.90912 5.30483 5.80181 5.49596 5.65711 5.65711V5.65711Z" fill="var(--fill-0, #1E1F26)"/>
</svg>
