<svg preserveAspectRatio="none" width="100%" height="100%" overflow="visible" style="display: block;" viewBox="0 0 18 20.0058" fill="none" xmlns="http://www.w3.org/2000/svg">
<path id="Vector" d="M6.71 14.29C6.61676 14.1968 6.50607 14.1228 6.38425 14.0723C6.26243 14.0219 6.13186 13.9959 6 13.9959C5.86814 13.9959 5.73757 14.0219 5.61575 14.0723C5.49393 14.1228 5.38324 14.1968 5.29 14.29C5.19676 14.3832 5.1228 14.4939 5.07234 14.6158C5.02188 14.7376 4.99591 14.8681 4.99591 15C4.99591 15.1319 5.02188 15.2624 5.07234 15.3842C5.1228 15.5061 5.19676 15.6168 5.29 15.71L5.59 16H5C4.20435 16 3.44129 15.6839 2.87868 15.1213C2.31607 14.5587 2 13.7956 2 13V11C2 10.7348 1.89464 10.4804 1.70711 10.2929C1.51957 10.1054 1.26522 10 1 10C0.734784 10 0.48043 10.1054 0.292893 10.2929C0.105357 10.4804 0 10.7348 0 11V13C0 14.3261 0.526784 15.5979 1.46447 16.5355C2.40215 17.4732 3.67392 18 5 18H5.59L5.29 18.29C5.19627 18.383 5.12188 18.4936 5.07111 18.6154C5.02034 18.7373 4.9942 18.868 4.9942 19C4.9942 19.132 5.02034 19.2627 5.07111 19.3846C5.12188 19.5064 5.19627 19.617 5.29 19.71C5.38296 19.8037 5.49356 19.8781 5.61542 19.9289C5.73728 19.9797 5.86799 20.0058 6 20.0058C6.13201 20.0058 6.26272 19.9797 6.38458 19.9289C6.50644 19.8781 6.61704 19.8037 6.71 19.71L8.71 17.71C8.80373 17.617 8.87812 17.5064 8.92889 17.3846C8.97966 17.2627 9.0058 17.132 9.0058 17C9.0058 16.868 8.97966 16.7373 8.92889 16.6154C8.87812 16.4936 8.80373 16.383 8.71 16.29L6.71 14.29ZM17 10H16V3C16 2.73478 15.8946 2.48043 15.7071 2.29289C15.5196 2.10536 15.2652 2 15 2H8V1C8 0.734784 7.89464 0.48043 7.70711 0.292893C7.51957 0.105357 7.26522 0 7 0C6.73478 0 6.48043 0.105357 6.29289 0.292893C6.10536 0.48043 6 0.734784 6 1V2H5C4.73478 2 4.48043 2.10536 4.29289 2.29289C4.10536 2.48043 4 2.73478 4 3C4 3.26522 4.10536 3.51957 4.29289 3.70711C4.48043 3.89464 4.73478 4 5 4H6V11C6 11.2652 6.10536 11.5196 6.29289 11.7071C6.48043 11.8946 6.73478 12 7 12H14V13C14 13.2652 14.1054 13.5196 14.2929 13.7071C14.4804 13.8946 14.7348 14 15 14C15.2652 14 15.5196 13.8946 15.7071 13.7071C15.8946 13.5196 16 13.2652 16 13V12H17C17.2652 12 17.5196 11.8946 17.7071 11.7071C17.8946 11.5196 18 11.2652 18 11C18 10.7348 17.8946 10.4804 17.7071 10.2929C17.5196 10.1054 17.2652 10 17 10ZM14 10H8V4H14V10Z" fill="var(--fill-0, #1E1F26)"/>
</svg>
