<svg preserveAspectRatio="none" width="100%" height="100%" overflow="visible" style="display: block;" viewBox="0 0 19.5 19.5" fill="none" xmlns="http://www.w3.org/2000/svg">
<path id="Vector" d="M4.75 0H0.75C0.551893 0.00258996 0.362629 0.0824392 0.222534 0.222534C0.0824392 0.362629 0.00258996 0.551893 0 0.75V4.75C0.00258996 4.94811 0.0824392 5.13737 0.222534 5.27747C0.362629 5.41756 0.551893 5.49741 0.75 5.5H4.75C4.94811 5.49741 5.13737 5.41756 5.27747 5.27747C5.41756 5.13737 5.49741 4.94811 5.5 4.75V0.75C5.49741 0.551893 5.41756 0.362629 5.27747 0.222534C5.13737 0.0824392 4.94811 0.00258996 4.75 0V0ZM4 4H1.5V1.5H4V4ZM18.75 0H14.75C14.5519 0.00258996 14.3626 0.0824392 14.2225 0.222534C14.0824 0.362629 14.0026 0.551893 14 0.75V4.75C14.0026 4.94811 14.0824 5.13737 14.2225 5.27747C14.3626 5.41756 14.5519 5.49741 14.75 5.5H18.75C18.9481 5.49741 19.1374 5.41756 19.2775 5.27747C19.4176 5.13737 19.4974 4.94811 19.5 4.75V0.75C19.4974 0.551893 19.4176 0.362629 19.2775 0.222534C19.1374 0.0824392 18.9481 0.00258996 18.75 0ZM18 4H15.5V1.5H18V4ZM11.75 0H7.75C7.55189 0.00258996 7.36263 0.0824392 7.22253 0.222534C7.08244 0.362629 7.00259 0.551893 7 0.75V4.75C7.00259 4.94811 7.08244 5.13737 7.22253 5.27747C7.36263 5.41756 7.55189 5.49741 7.75 5.5H11.75C11.9481 5.49741 12.1374 5.41756 12.2775 5.27747C12.4176 5.13737 12.4974 4.94811 12.5 4.75V0.75C12.4974 0.551893 12.4176 0.362629 12.2775 0.222534C12.1374 0.0824392 11.9481 0.00258996 11.75 0ZM11 4H8.5V1.5H11V4ZM4.75 7H0.75C0.551893 7.00259 0.362629 7.08244 0.222534 7.22253C0.0824392 7.36263 0.00258996 7.55189 0 7.75V11.75C0.00258996 11.9481 0.0824392 12.1374 0.222534 12.2775C0.362629 12.4176 0.551893 12.4974 0.75 12.5H4.75C4.94811 12.4974 5.13737 12.4176 5.27747 12.2775C5.41756 12.1374 5.49741 11.9481 5.5 11.75V7.75C5.49741 7.55189 5.41756 7.36263 5.27747 7.22253C5.13737 7.08244 4.94811 7.00259 4.75 7V7ZM4 11H1.5V8.5H4V11ZM11.75 7H7.75C7.55189 7.00259 7.36263 7.08244 7.22253 7.22253C7.08244 7.36263 7.00259 7.55189 7 7.75V11.75C7.00259 11.9481 7.08244 12.1374 7.22253 12.2775C7.36263 12.4176 7.55189 12.4974 7.75 12.5H11.75C11.9481 12.4974 12.1374 12.4176 12.2775 12.2775C12.4176 12.1374 12.4974 11.9481 12.5 11.75V7.75C12.4974 7.55189 12.4176 7.36263 12.2775 7.22253C12.1374 7.08244 11.9481 7.00259 11.75 7ZM11 11H8.5V8.5H11V11ZM18.75 7H14.75C14.5519 7.00259 14.3626 7.08244 14.2225 7.22253C14.0824 7.36263 14.0026 7.55189 14 7.75V11.75C14.0026 11.9481 14.0824 12.1374 14.2225 12.2775C14.3626 12.4176 14.5519 12.4974 14.75 12.5H18.75C18.9481 12.4974 19.1374 12.4176 19.2775 12.2775C19.4176 12.1374 19.4974 11.9481 19.5 11.75V7.75C19.4974 7.55189 19.4176 7.36263 19.2775 7.22253C19.1374 7.08244 18.9481 7.00259 18.75 7ZM18 11H15.5V8.5H18V11ZM11.75 14H7.75C7.55189 14.0026 7.36263 14.0824 7.22253 14.2225C7.08244 14.3626 7.00259 14.5519 7 14.75V18.75C7.00259 18.9481 7.08244 19.1374 7.22253 19.2775C7.36263 19.4176 7.55189 19.4974 7.75 19.5H11.75C11.9481 19.4974 12.1374 19.4176 12.2775 19.2775C12.4176 19.1374 12.4974 18.9481 12.5 18.75V14.75C12.4974 14.5519 12.4176 14.3626 12.2775 14.2225C12.1374 14.0824 11.9481 14.0026 11.75 14ZM11 18H8.5V15.5H11V18Z" fill="var(--fill-0, #1E1F26)"/>
</svg>
