<svg preserveAspectRatio="none" width="100%" height="100%" overflow="visible" style="display: block;" viewBox="0 0 22 18" fill="none" xmlns="http://www.w3.org/2000/svg">
<path id="Vector" d="M22 6.94C21.9896 6.84813 21.9695 6.75763 21.94 6.67V6.58C21.8919 6.47718 21.8278 6.38267 21.75 6.3V6.3L15.75 0.3C15.6673 0.222216 15.5728 0.158081 15.47 0.11H15.38C15.2784 0.0517412 15.1662 0.0143442 15.05 0H7C6.20435 0 5.44129 0.316071 4.87868 0.87868C4.31607 1.44129 4 2.20435 4 3V4H3C2.20435 4 1.44129 4.31607 0.87868 4.87868C0.31607 5.44129 0 6.20435 0 7V15C0 15.7956 0.31607 16.5587 0.87868 17.1213C1.44129 17.6839 2.20435 18 3 18H15C15.7956 18 16.5587 17.6839 17.1213 17.1213C17.6839 16.5587 18 15.7956 18 15V14H19C19.7956 14 20.5587 13.6839 21.1213 13.1213C21.6839 12.5587 22 11.7956 22 11V7C22 7 22 7 22 6.94ZM16 3.41L18.59 6H17C16.7348 6 16.4804 5.89464 16.2929 5.70711C16.1054 5.51957 16 5.26522 16 5V3.41ZM16 15C16 15.2652 15.8946 15.5196 15.7071 15.7071C15.5196 15.8946 15.2652 16 15 16H3C2.73478 16 2.48043 15.8946 2.29289 15.7071C2.10536 15.5196 2 15.2652 2 15V7C2 6.73478 2.10536 6.48043 2.29289 6.29289C2.48043 6.10536 2.73478 6 3 6H4V11C4 11.7956 4.31607 12.5587 4.87868 13.1213C5.44129 13.6839 6.20435 14 7 14H16V15ZM20 11C20 11.2652 19.8946 11.5196 19.7071 11.7071C19.5196 11.8946 19.2652 12 19 12H7C6.73478 12 6.48043 11.8946 6.29289 11.7071C6.10536 11.5196 6 11.2652 6 11V3C6 2.73478 6.10536 2.48043 6.29289 2.29289C6.48043 2.10536 6.73478 2 7 2H14V5C14 5.79565 14.3161 6.55871 14.8787 7.12132C15.4413 7.68393 16.2044 8 17 8H20V11Z" fill="var(--fill-0, #1E1F26)"/>
</svg>
