<svg preserveAspectRatio="none" width="100%" height="100%" overflow="visible" style="display: block;" viewBox="0 0 20.9141 20.0099" fill="none" xmlns="http://www.w3.org/2000/svg">
<path id="Vector" d="M18.0041 2.00409H8.50409C8.23887 2.00409 7.98452 2.10945 7.79699 2.29699C7.60945 2.48452 7.50409 2.73888 7.50409 3.00409C7.50409 3.26931 7.60945 3.52366 7.79699 3.7112C7.98452 3.89873 8.23887 4.00409 8.50409 4.00409H18.0041C18.2693 4.00409 18.5237 4.10945 18.7112 4.29699C18.8987 4.48452 19.0041 4.73888 19.0041 5.00409V11.7641L17.1241 9.88409C16.8026 9.56431 16.4129 9.32157 15.9841 9.17409C15.8593 9.13207 15.7275 9.11503 15.5962 9.12395C15.4648 9.13286 15.3365 9.16756 15.2186 9.22607C15.1007 9.28457 14.9954 9.36572 14.9089 9.4649C14.8223 9.56408 14.7561 9.67934 14.7141 9.80409C14.6721 9.92885 14.655 10.0607 14.6639 10.192C14.6729 10.3233 14.7076 10.4516 14.7661 10.5696C14.8246 10.6875 14.9057 10.7928 15.0049 10.8793C15.1041 10.9659 15.2193 11.0321 15.3441 11.0741C15.4823 11.1176 15.6065 11.197 15.7041 11.3041L19.0141 14.5941C19.0084 14.6439 19.0084 14.6943 19.0141 14.7441C19.0096 14.794 19.0096 14.8442 19.0141 14.8941C19.0517 14.958 19.0952 15.0183 19.1441 15.0741C19.1685 15.115 19.1988 15.1521 19.2341 15.1841C19.2941 15.2396 19.3614 15.2867 19.4341 15.3241C19.4686 15.3479 19.5054 15.368 19.5441 15.3841C19.6605 15.4364 19.7865 15.4637 19.9141 15.4641C20.1793 15.4641 20.4337 15.3587 20.6212 15.1712C20.8087 14.9837 20.9141 14.7293 20.9141 14.4641V5.00409C20.9144 4.22379 20.6108 3.47406 20.0675 2.91397C19.5242 2.35388 18.784 2.0275 18.0041 2.00409V2.00409ZM1.71409 0.294092C1.52579 0.105788 1.27039 0 1.00409 0C0.73779 0 0.482395 0.105788 0.294092 0.294092C0.105788 0.482395 0 0.73779 0 1.00409C0 1.27039 0.105788 1.52579 0.294092 1.71409L1.68409 3.10409C1.24482 3.6399 1.00455 4.31124 1.00409 5.00409V15.0041C1.00409 15.7997 1.32016 16.5628 1.88277 17.1254C2.44538 17.688 3.20844 18.0041 4.00409 18.0041H16.5941L18.2941 19.7141C18.3871 19.8078 18.4977 19.8822 18.6195 19.933C18.7414 19.9838 18.8721 20.0099 19.0041 20.0099C19.1361 20.0099 19.2668 19.9838 19.3887 19.933C19.5105 19.8822 19.6211 19.8078 19.7141 19.7141C19.8078 19.6211 19.8822 19.5105 19.933 19.3887C19.9838 19.2668 20.0099 19.1361 20.0099 19.0041C20.0099 18.8721 19.9838 18.7414 19.933 18.6195C19.8822 18.4977 19.8078 18.3871 19.7141 18.2941L1.71409 0.294092ZM3.00409 5.00409C3.00653 4.84334 3.0477 4.68555 3.12409 4.54409L5.84409 7.25409C5.47228 7.3957 5.13235 7.60986 4.84409 7.88409L3.00409 9.76409V5.00409ZM4.00409 16.0041C3.73888 16.0041 3.48452 15.8987 3.29699 15.7112C3.10945 15.5237 3.00409 15.2693 3.00409 15.0041V12.5841L6.30409 9.29409C6.49102 9.11086 6.74234 9.00823 7.00409 9.00823C7.26584 9.00823 7.51716 9.11086 7.70409 9.29409L14.4141 16.0041H4.00409Z" fill="var(--fill-0, #1E1F26)"/>
</svg>
