<svg preserveAspectRatio="none" width="100%" height="100%" overflow="visible" style="display: block;" viewBox="0 0 21 18" fill="none" xmlns="http://www.w3.org/2000/svg">
<path id="Vector" d="M13 4C12.2089 4 11.4355 4.2346 10.7777 4.67412C10.1199 5.11365 9.60723 5.73836 9.30448 6.46927C9.00173 7.20017 8.92252 8.00444 9.07686 8.78036C9.2312 9.55629 9.61216 10.269 10.1716 10.8284C10.731 11.3878 11.4437 11.7688 12.2196 11.9231C12.9956 12.0775 13.7998 11.9983 14.5307 11.6955C15.2616 11.3928 15.8864 10.8801 16.3259 10.2223C16.7654 9.56448 17 8.79113 17 8C17 6.93913 16.5786 5.92172 15.8284 5.17157C15.0783 4.42143 14.0609 4 13 4ZM13 10C12.6044 10 12.2178 9.8827 11.8889 9.66294C11.56 9.44318 11.3036 9.13082 11.1522 8.76537C11.0009 8.39991 10.9613 7.99778 11.0384 7.60982C11.1156 7.22186 11.3061 6.86549 11.5858 6.58579C11.8655 6.30608 12.2219 6.1156 12.6098 6.03843C12.9978 5.96126 13.3999 6.00087 13.7654 6.15224C14.1308 6.30362 14.4432 6.55996 14.6629 6.88886C14.8827 7.21776 15 7.60444 15 8C15 8.53043 14.7893 9.03914 14.4142 9.41421C14.0391 9.78929 13.5304 10 13 10ZM14 0H12C10.1435 0 8.36301 0.737498 7.05025 2.05025C5.7375 3.36301 5 5.14348 5 7V10H4C3.73478 10 3.48043 10.1054 3.29289 10.2929C3.10536 10.4804 3 10.7348 3 11C3 11.2652 3.10536 11.5196 3.29289 11.7071C3.48043 11.8946 3.73478 12 4 12H5V14H1C0.734784 14 0.48043 14.1054 0.292893 14.2929C0.105357 14.4804 0 14.7348 0 15V17C0 17.2652 0.105357 17.5196 0.292893 17.7071C0.48043 17.8946 0.734784 18 1 18C1.26522 18 1.51957 17.8946 1.70711 17.7071C1.89464 17.5196 2 17.2652 2 17V16H14C15.8565 16 17.637 15.2625 18.9497 13.9497C20.2625 12.637 21 10.8565 21 9V7C21 5.14348 20.2625 3.36301 18.9497 2.05025C17.637 0.737498 15.8565 0 14 0V0ZM19 9C19 9.65661 18.8707 10.3068 18.6194 10.9134C18.3681 11.52 17.9998 12.0712 17.5355 12.5355C17.0712 12.9998 16.52 13.3681 15.9134 13.6194C15.3068 13.8707 14.6566 14 14 14H7V7C7 5.67392 7.52678 4.40215 8.46447 3.46447C9.40215 2.52678 10.6739 2 12 2H14C14.6566 2 15.3068 2.12933 15.9134 2.3806C16.52 2.63188 17.0712 3.00017 17.5355 3.46447C17.9998 3.92876 18.3681 4.47996 18.6194 5.08658C18.8707 5.69321 19 6.34339 19 7V9Z" fill="var(--fill-0, #1E1F26)"/>
</svg>
