<svg preserveAspectRatio="none" width="100%" height="100%" overflow="visible" style="display: block;" viewBox="0 0 20.0108 17.9745" fill="none" xmlns="http://www.w3.org/2000/svg">
<path id="Vector" d="M6.52459 2.91452C7.59195 2.30977 8.7978 1.9919 10.0246 1.9919C11.2514 1.9919 12.4572 2.30977 13.5246 2.91452C13.6387 2.98064 13.7648 3.02353 13.8956 3.04071C14.0264 3.0579 14.1592 3.04904 14.2866 3.01465C14.4139 2.98025 14.5332 2.92101 14.6376 2.84033C14.7419 2.75964 14.8293 2.65911 14.8946 2.54452C15.025 2.31491 15.0592 2.04305 14.9899 1.78826C14.9206 1.53347 14.7533 1.31644 14.5246 1.18452C13.1519 0.408066 11.6017 0 10.0246 0C8.44751 0 6.89727 0.408066 5.52459 1.18452C5.29585 1.31644 5.12858 1.53347 5.05926 1.78826C4.98995 2.04305 5.02421 2.31491 5.15459 2.54452C5.21992 2.65911 5.30727 2.75964 5.41162 2.84033C5.51596 2.92101 5.63524 2.98025 5.76258 3.01465C5.88992 3.04904 6.02281 3.0579 6.15359 3.04071C6.28436 3.02353 6.41045 2.98064 6.52459 2.91452ZM16.4446 8.18452C16.3407 7.94003 16.2204 7.70283 16.0846 7.47452C16.016 7.36191 15.9257 7.26398 15.8191 7.18638C15.7124 7.10878 15.5915 7.05304 15.4633 7.02237C15.335 6.9917 15.2019 6.9867 15.0717 7.00767C14.9415 7.02863 14.8167 7.07514 14.7046 7.14452C14.4799 7.28309 14.3191 7.50488 14.2573 7.76152C14.1955 8.01817 14.2376 8.28885 14.3746 8.51452C14.5292 8.78103 14.6565 9.06245 14.7546 9.35452C14.8117 9.52636 14.9145 9.67946 15.0519 9.79746C15.1892 9.91546 15.3561 9.99394 15.5346 10.0245C16.2304 10.1446 16.8616 10.5062 17.3171 11.0458C17.7726 11.5854 18.0231 12.2684 18.0246 12.9745C18.0246 13.7702 17.7085 14.5332 17.1459 15.0958C16.5833 15.6585 15.8202 15.9745 15.0246 15.9745H3.68459C3.2766 15.9117 2.89804 15.7243 2.60083 15.4378C2.30363 15.1513 2.10234 14.7799 2.02459 14.3745C1.96452 14.0806 1.97136 13.7769 2.04459 13.4859C2.11782 13.195 2.25558 12.9242 2.44765 12.6937C2.63972 12.4633 2.88119 12.2789 3.15416 12.1544C3.42714 12.0299 3.72462 11.9684 4.02459 11.9745C4.2898 11.9745 4.54416 11.8692 4.73169 11.6816C4.91923 11.4941 5.02459 11.2397 5.02459 10.9745C5.02258 10.0997 5.25385 9.2402 5.69459 8.48452C5.7607 8.37039 5.80359 8.2443 5.82077 8.11352C5.83796 7.98275 5.8291 7.84986 5.79471 7.72252C5.76032 7.59518 5.70107 7.4759 5.62039 7.37155C5.5397 7.26721 5.43917 7.17985 5.32459 7.11452C5.09497 6.98415 4.82311 6.94989 4.56832 7.0192C4.31353 7.08852 4.0965 7.25579 3.96459 7.48452C3.49627 8.28177 3.19675 9.16673 3.08459 10.0845C2.25023 10.2877 1.50341 10.754 0.954585 11.4145C0.487792 11.9627 0.177606 12.6267 0.0567536 13.3365C-0.0640989 14.0462 0.00886241 14.7755 0.26794 15.4472C0.527018 16.119 0.962606 16.7084 1.52875 17.1532C2.09489 17.598 2.7706 17.8818 3.48459 17.9745H3.61459H15.0246C16.2239 17.9712 17.3822 17.5369 18.288 16.7508C19.1938 15.9647 19.7869 14.8792 19.959 13.6923C20.1312 12.5053 19.871 11.296 19.2258 10.285C18.5807 9.27392 17.5936 8.52845 16.4446 8.18452V8.18452ZM12.8946 5.97452C12.8946 5.97452 12.8946 5.97452 12.8946 5.91452C12.9464 5.85378 12.9901 5.78655 13.0246 5.71452C13.1193 5.46782 13.1125 5.19365 13.0057 4.95193C12.8989 4.71021 12.7008 4.5206 12.4546 4.42452C11.8953 4.21687 11.3095 4.08895 10.7146 4.04452C10.6146 4.04452 10.5146 4.04452 10.4146 4.04452C10.145 4.02451 9.87421 4.02451 9.60459 4.04452C9.50132 4.03918 9.39785 4.03918 9.29459 4.04452C8.69963 4.08895 8.11389 4.21687 7.55458 4.42452C7.31565 4.52818 7.12658 4.72097 7.0276 4.96189C6.92862 5.2028 6.92754 5.47282 7.02459 5.71452C7.05865 5.78141 7.09882 5.84502 7.14459 5.90452C7.14127 5.94112 7.14127 5.97793 7.14459 6.01452C7.21075 6.12828 7.29871 6.22785 7.40344 6.30754C7.50816 6.38723 7.62758 6.44547 7.75486 6.47891C7.88213 6.51236 8.01475 6.52035 8.14513 6.50244C8.2755 6.48453 8.40105 6.44106 8.51459 6.37452C8.97317 6.11881 9.48952 5.98458 10.0146 5.98458C10.5396 5.98458 11.056 6.11881 11.5146 6.37452C11.6309 6.44105 11.7595 6.4835 11.8926 6.49937C12.0257 6.51523 12.1606 6.50418 12.2893 6.46686C12.4181 6.42955 12.538 6.36673 12.642 6.28216C12.7459 6.19758 12.8318 6.09296 12.8946 5.97452V5.97452ZM9.02459 8.97452C9.02459 9.1723 9.08323 9.36564 9.19312 9.53009C9.303 9.69454 9.45918 9.82272 9.6419 9.8984C9.82463 9.97409 10.0257 9.99389 10.2197 9.95531C10.4137 9.91672 10.5918 9.82148 10.7317 9.68163C10.8715 9.54178 10.9668 9.36359 11.0054 9.16961C11.044 8.97563 11.0242 8.77457 10.9485 8.59184C10.8728 8.40911 10.7446 8.25294 10.5802 8.14305C10.4157 8.03317 10.2224 7.97452 10.0246 7.97452C9.75937 7.97452 9.50502 8.07988 9.31748 8.26742C9.12994 8.45495 9.02459 8.70931 9.02459 8.97452Z" fill="var(--fill-0, #1E1F26)"/>
</svg>
