<svg preserveAspectRatio="none" width="100%" height="100%" overflow="visible" style="display: block;" viewBox="0 0 22.4484 25.9872" fill="none" xmlns="http://www.w3.org/2000/svg">
<g id="Illustration">
<path id="Vector" d="M7.93096 6.42458C7.9937 6.58277 8.09636 6.72774 8.22209 6.85948C8.51996 7.17105 8.94813 7.40689 9.28686 7.56052C9.28614 7.57758 9.28518 7.59922 9.28398 7.62567C9.27436 7.86223 9.24792 8.46349 9.20296 9.20611C9.1205 10.5709 8.97577 12.4127 8.75844 13.3438C8.7659 13.3416 8.77119 13.3399 8.77383 13.339H8.77407C8.77407 13.339 8.77503 13.3385 8.77551 13.3385C8.77575 13.3385 8.77575 13.3383 8.77575 13.3383L8.78537 13.6294C8.78537 13.6294 10.9704 16.9244 10.9176 17.1535C10.9012 17.224 10.7322 17.4423 10.4968 17.7137C11.3337 18.0087 12.0588 17.8334 12.0588 17.8334C11.77 17.5079 11.5515 17.2341 11.533 17.1535C11.4801 16.9244 13.6652 13.6294 13.6652 13.6294L13.6748 13.3383L13.7371 11.44C14.3018 11.6297 14.8896 11.7251 15.4187 11.6121C15.6397 11.565 15.8503 11.4813 16.0448 11.3532C18.8821 9.48379 14.4665 3.30167 14.4665 3.30167C14.4665 3.30167 14.4621 3.63031 14.1304 3.84115C14.0015 3.92289 13.8234 3.98684 13.577 4.00679C12.6954 4.07819 11.4328 3.49448 10.7062 3.42308C9.97972 3.35168 9.9439 3.5065 9.9439 3.5065C9.9439 3.5065 10.4562 5.186 10.3846 5.50743C10.3132 5.82909 10.1704 6.16254 10.1704 6.16254C10.1704 6.16254 9.9201 4.86433 9.31259 4.85231C8.70507 4.84053 7.58549 5.55527 7.93096 6.42458Z" fill="var(--fill-0, #F3BBB0)" stroke="var(--stroke-0, black)" stroke-width="0.213696" stroke-linecap="round" stroke-linejoin="round"/>
<path id="Vector_2" d="M8.21911 23.3583H13.8764V17.99H8.21911V23.3583Z" fill="var(--fill-0, #BF9EF9)" stroke="var(--stroke-0, black)" stroke-width="0.213696" stroke-linecap="round" stroke-linejoin="round"/>
<path id="Vector_3" d="M3.28805 22.1699C3.71862 22.444 5.57866 22.1557 6.5504 21.9802C6.16142 21.5643 5.87485 21.2299 5.77844 21.0571C5.34258 20.2757 4.6216 18.8633 4.6216 18.8633L6.10901 17.9019L4.81681 16.79C4.81681 16.79 6.29652 14.772 6.87278 14.1787C6.84971 14.185 6.28667 14.3376 5.51928 14.5588C3.9309 15.0163 1.46719 15.7659 1.10826 16.1128C0.965462 16.2508 0.831555 16.4155 0.710869 16.5845C0.378625 17.0497 0.147111 17.548 0.107684 17.6137C0.0540728 17.7031 2.69833 21.7946 3.28805 22.1699Z" fill="var(--fill-0, #4C70F5)" stroke="var(--stroke-0, black)" stroke-width="0.213696" stroke-linecap="round" stroke-linejoin="round"/>
<path id="Vector_4" d="M4.67022 16.8133C4.67022 16.8133 5.25922 17.9752 5.6244 18.3748C5.98959 18.7741 4.56901 18.9549 4.51708 19.1741C4.46539 19.3934 5.22749 23.061 6.03719 23.6008C6.84688 24.1405 8.44704 22.8704 8.59345 22.648C8.73986 22.4256 8.73625 18.8058 8.59345 18.6469C8.45065 18.4882 7.1486 16.5193 7.03753 16.5034C6.92646 16.4875 4.67022 16.8131 4.67022 16.8131V16.8133Z" fill="var(--fill-0, #2253DD)"/>
<path id="Vector_5" d="M0.710396 16.5832C0.958978 16.7246 1.26093 16.7837 1.54918 16.7666C1.99466 16.7404 2.41537 16.5582 2.81181 16.3539C3.20824 16.1493 3.59482 15.9182 4.01914 15.7807C4.25426 15.7043 4.49828 15.6576 4.73219 15.5781C4.96611 15.4985 5.19522 15.3812 5.35437 15.1922C5.50078 15.0182 5.57747 14.7744 5.51881 14.5575C3.93043 15.015 1.46672 15.7646 1.10779 16.1115C0.964989 16.2495 0.831081 16.4142 0.710396 16.5832Z" fill="var(--fill-0, #80A1FF)"/>
<path id="Vector_6" d="M5.77844 21.0571C5.87485 21.2299 6.16142 21.5643 6.5504 21.9802C5.57866 22.1557 3.71862 22.444 3.28805 22.1699C2.69833 21.7946 0.0540728 17.7031 0.107684 17.6137C0.161295 17.5242 0.572153 16.6309 1.10826 16.1128C1.64053 15.5983 6.80186 14.198 6.87278 14.1787C6.29652 14.772 4.81681 16.79 4.81681 16.79L6.10901 17.9019L4.6216 18.8633C4.6216 18.8633 5.34258 20.2757 5.77844 21.0571Z" stroke="var(--stroke-0, black)" stroke-width="0.213696" stroke-linecap="round" stroke-linejoin="round"/>
<path id="Vector_7" d="M8.22174 6.85888C8.096 6.72714 7.99335 6.58217 7.9306 6.42398C7.58514 5.55466 8.70472 4.83993 9.31223 4.85171C9.91974 4.86373 10.17 6.16194 10.17 6.16194C10.17 6.16194 10.3128 5.82849 10.3842 5.50682C10.4559 5.1854 9.94354 3.5059 9.94354 3.5059C9.94354 3.5059 9.97937 3.35108 10.7059 3.42248C11.4324 3.49388 12.695 4.07759 13.5766 4.00619C14.4579 3.93455 14.4661 3.30107 14.4661 3.30107C14.4661 3.30107 14.8517 2.97724 15.1263 2.50075C15.4328 1.96897 15.6011 1.24726 14.9407 0.574114C14.2993 -0.0800386 13.7028 0.0442528 13.1181 0.390682C12.5876 0.705137 12.0666 1.20302 11.5302 1.46819C11.4516 1.50714 11.3672 1.54056 11.2781 1.56965C10.0863 1.96151 8.01595 1.59922 7.14783 2.98589C7.06537 3.11788 6.99806 3.24914 6.94445 3.37992C6.39295 4.72621 7.31131 5.99221 8.22174 6.85888Z" fill="var(--fill-0, #6D1249)" stroke="var(--stroke-0, black)" stroke-width="0.213696" stroke-linecap="round" stroke-linejoin="round"/>
<path id="Vector_8" d="M8.70112 13.5583C8.72035 13.4942 8.7391 13.4225 8.75713 13.3446C8.75713 13.3441 8.75713 13.3437 8.75761 13.3432" stroke="var(--stroke-0, black)" stroke-width="0.213696" stroke-linecap="round" stroke-linejoin="round"/>
<path id="Vector_9" d="M16.67 21.0571C16.5736 21.2299 16.287 21.5643 15.898 21.9802C16.8697 22.1557 18.7298 22.444 19.1604 22.1699C19.7501 21.7946 22.3943 17.7031 22.3407 17.6137C22.2871 17.5242 21.8763 16.6309 21.3401 16.1128C20.8079 15.5983 15.6466 14.198 15.5756 14.1787C16.1519 14.772 17.6316 16.79 17.6316 16.79L16.3394 17.9019L17.8268 18.8633C17.8268 18.8633 17.1058 20.2757 16.67 21.0571Z" fill="var(--fill-0, #4C70F5)" stroke="var(--stroke-0, black)" stroke-width="0.213696" stroke-linecap="round" stroke-linejoin="round"/>
<path id="Vector_10" d="M16.67 21.0571C16.5736 21.2299 16.287 21.5643 15.898 21.9802C16.8697 22.1557 18.7298 22.444 19.1604 22.1699C19.7491 21.7951 22.3869 17.7149 22.341 17.6142C22.341 17.6139 22.3407 17.6139 22.3407 17.6137C22.2871 17.5242 21.8763 16.6309 21.3401 16.1128C21.0243 15.8075 19.0779 15.1901 17.5328 14.7348C16.4745 14.4225 15.6045 14.1867 15.5756 14.1787C16.1519 14.772 17.6316 16.79 17.6316 16.79L16.3394 17.9019L17.8268 18.8633C17.8268 18.8633 17.1058 20.2757 16.67 21.0571Z" fill="var(--fill-0, #4C70F5)" stroke="var(--stroke-0, black)" stroke-width="0.213696" stroke-linecap="round" stroke-linejoin="round"/>
<path id="Vector_11" d="M4.62153 18.8622C4.62153 18.8622 5.34251 20.2746 5.77838 21.0559C5.87478 21.2288 6.16135 21.5632 6.55033 21.9791C7.91873 23.4429 10.5512 25.9138 10.5863 25.8787C10.613 25.8521 9.74392 22.3003 9.02125 19.1906C8.91162 18.7184 8.80512 18.2563 8.70583 17.8186C8.35796 16.285 8.09616 15.0469 8.07716 14.7005C8.02259 13.7044 8.64236 13.3929 8.75704 13.3438C8.76233 13.3417 8.76666 13.34 8.76954 13.3388C8.76666 13.3397 8.76257 13.3409 8.75752 13.3424C8.67025 13.3705 8.27165 13.5001 7.86801 13.653C7.53144 13.7807 7.19126 13.9244 7.02538 14.0393C6.98715 14.0658 6.93522 14.1134 6.87272 14.1776C6.29646 14.7709 4.81674 16.7889 4.81674 16.7889L6.10894 17.9008L4.62153 18.8622Z" fill="var(--fill-0, #4C70F5)" stroke="var(--stroke-0, black)" stroke-width="0.213696" stroke-linecap="round" stroke-linejoin="round"/>
<path id="Vector_12" d="M15.5756 14.1781C15.5756 14.1781 15.5764 14.1781 15.578 14.1789" stroke="var(--stroke-0, black)" stroke-width="0.213696" stroke-linecap="round" stroke-linejoin="round"/>
<path id="Vector_13" d="M10.1044 18.1475C10.1044 18.1475 10.5581 19.5277 10.7985 19.6611C11.0389 19.7947 11.751 19.8214 11.8224 19.7592C11.8936 19.6967 12.6105 18.4278 12.6105 18.4278C12.4198 18.2306 12.2268 18.0229 12.058 17.8325C12.058 17.8325 11.3329 18.0078 10.4961 17.7128C10.3783 17.8486 10.2444 17.9975 10.1044 18.1475Z" fill="var(--fill-0, #E86F3A)" stroke="var(--stroke-0, black)" stroke-width="0.213696" stroke-linecap="round" stroke-linejoin="round"/>
<path id="Vector_14" d="M9.93466 23.0604C9.94788 23.1157 11.2403 25.1513 11.3574 25.1657C11.4745 25.1804 12.4145 23.4785 12.4145 23.4785L11.8223 19.7591C11.7509 19.8214 11.0389 19.7947 10.7984 19.661C10.7984 19.661 9.92168 23.0054 9.93466 23.0604Z" fill="var(--fill-0, #E86F3A)" stroke="var(--stroke-0, black)" stroke-width="0.213696" stroke-linecap="round" stroke-linejoin="round"/>
<path id="Vector_15" d="M17.5327 14.7342C17.7298 14.8811 17.9423 15.0121 18.1212 15.1451C18.5542 15.4672 18.9874 15.7896 19.4204 16.112C19.8916 16.4625 20.3625 16.813 20.8337 17.1635C21.1551 17.4027 21.4984 17.6508 21.8973 17.6888C22.0459 17.703 22.2021 17.6749 22.3408 17.6136C22.3408 17.6133 22.3406 17.6133 22.3406 17.6131C22.287 17.5237 21.8761 16.6303 21.34 16.1122C21.0241 15.8069 19.0778 15.1895 17.5327 14.7342Z" fill="var(--fill-0, #80A1FF)"/>
<path id="Vector_16" d="M7.6201 15.4352C7.70111 16.3213 8.09106 17.176 8.70554 17.8193C8.35767 16.2857 8.09586 15.0476 8.07687 14.7012C8.0223 13.7052 8.64207 13.3936 8.75675 13.3446C8.76204 13.3424 8.76636 13.3407 8.76925 13.3395C8.76636 13.3405 8.76228 13.3417 8.75723 13.3431C8.66996 13.3713 8.27136 13.5008 7.86772 13.6537C7.65255 14.2189 7.5648 14.8329 7.6201 15.4352Z" fill="var(--fill-0, #80A1FF)"/>
<path id="Vector_17" d="M13.1176 0.390682C13.128 0.400779 13.139 0.409915 13.1506 0.418329C13.2667 0.504155 13.4162 0.527474 13.5494 0.58373C13.8526 0.711868 14.0545 1.00396 14.1913 1.30303C14.3283 1.60234 14.4182 1.92401 14.5865 2.20673C14.6808 2.36468 14.8245 2.52215 15.0084 2.52215C15.0495 2.52215 15.0885 2.51445 15.1258 2.50075C15.4323 1.96897 15.6006 1.24726 14.9402 0.574114C14.2988 -0.0800385 13.7023 0.0442528 13.1176 0.390682Z" fill="var(--fill-0, #932A6E)"/>
<path id="Vector_18" d="M6.94331 3.38051C6.9724 3.41368 7.00557 3.44325 7.04284 3.46802C7.25536 3.6089 7.54697 3.56129 7.76911 3.4358C7.99125 3.31031 8.16771 3.11918 8.36749 2.96051C8.70574 2.69198 9.1166 2.51576 9.54429 2.45565C9.80104 2.41959 10.0624 2.42464 10.3194 2.38954C10.5764 2.35468 10.8379 2.27391 11.0257 2.09504C11.1692 1.95825 11.2577 1.76736 11.2769 1.57023C10.0852 1.9621 8.01481 1.5998 7.14669 2.98648C7.06423 3.11846 6.99692 3.24972 6.94331 3.38051Z" fill="var(--fill-0, #932A6E)"/>
<path id="Vector_19" d="M4.62153 18.8634C4.62153 18.8634 5.34251 20.2758 5.77838 21.0571C5.87478 21.23 6.16135 21.5644 6.55033 21.9803C7.91873 23.4441 10.5512 25.915 10.5863 25.8799C10.613 25.8533 9.74392 22.3015 9.02125 19.1918C8.52721 17.0661 8.10169 15.1469 8.07716 14.7017C8.02259 13.7056 8.64236 13.3941 8.75704 13.345C8.76473 13.3419 8.77002 13.3397 8.77291 13.3388C8.77026 13.3397 8.76497 13.3414 8.75752 13.3436C8.59741 13.3953 7.38984 13.7881 7.02538 14.0405C6.98715 14.067 6.93522 14.1146 6.87272 14.1788C6.29646 14.7721 4.81674 16.7901 4.81674 16.7901L6.10894 17.902L4.62153 18.8634Z" stroke="var(--stroke-0, black)" stroke-width="0.213696" stroke-linecap="round" stroke-linejoin="round"/>
<path id="Vector_20" d="M16.67 21.0571C16.5736 21.2299 16.287 21.5643 15.898 21.9802C16.8697 22.1557 18.7298 22.444 19.1604 22.1699C19.7501 21.7946 22.3943 17.7031 22.3407 17.6137C22.2871 17.5242 21.8763 16.6309 21.3401 16.1128C20.8079 15.5983 15.6466 14.198 15.5756 14.1787C16.1519 14.772 17.6316 16.79 17.6316 16.79L16.3394 17.9019L17.8268 18.8633C17.8268 18.8633 17.1058 20.2757 16.67 21.0571Z" stroke="var(--stroke-0, black)" stroke-width="0.213696" stroke-linecap="round" stroke-linejoin="round"/>
<path id="Vector_21" d="M15.4963 8.42118C15.5682 9.22991 15.5619 10.0459 15.4742 10.8534C15.447 11.1053 15.4119 11.3602 15.4182 11.6121C15.6391 11.565 15.8497 11.4813 16.0442 11.3532C18.8815 9.48379 14.4659 3.30167 14.4659 3.30167C14.4659 3.30167 14.4616 3.63031 14.1298 3.84115C14.2284 3.98444 14.3255 4.12315 14.3871 4.25634C14.9929 5.56705 15.3682 6.98305 15.4963 8.42118Z" fill="var(--fill-0, #F9DFDC)"/>
<path id="Vector_22" d="M9.2021 9.20548C9.27518 9.13335 9.32302 9.03959 9.36942 8.94776C9.48914 8.71047 9.60935 8.47367 9.72883 8.23639C9.80576 8.08373 9.88389 7.91833 9.75648 7.76831C9.64276 7.6344 9.46342 7.59906 9.28311 7.62503C9.2735 7.86159 9.24705 8.46285 9.2021 9.20548Z" fill="var(--fill-0, #F09E8B)"/>
<path id="Vector_23" d="M11.1506 10.0165C11.1506 10.0165 11.2835 12.7714 13.6828 13.0471L13.7355 11.44C13.7355 11.44 11.6977 10.4702 11.1503 10.0165H11.1506Z" fill="var(--fill-0, #ED7D66)"/>
<path id="Vector_24" d="M9.76527 6.36086C9.72152 6.17743 9.60156 6.03367 9.42341 5.90096C9.24527 5.76826 8.95317 5.70407 8.72671 5.78989C8.59953 5.83821 8.50145 5.94375 8.53486 6.04545C8.56371 6.13392 8.67743 6.19162 8.78657 6.23489C9.11088 6.36351 9.35995 6.38611 9.72849 6.40366" fill="var(--fill-0, #ED7D66)"/>
<path id="Vector_25" d="M17.6708 16.8133C17.6708 16.8133 17.0818 17.9752 16.7166 18.3748C16.3514 18.7741 17.772 18.9549 17.8239 19.1741C17.8756 19.3934 17.1135 23.061 16.3038 23.6008C15.4941 24.1405 13.894 22.8704 13.7476 22.648C13.6012 22.4256 13.6048 18.8058 13.7476 18.6469C13.8904 18.4882 15.1924 16.5193 15.3035 16.5034C15.4146 16.4875 17.6708 16.8131 17.6708 16.8131V16.8133Z" fill="var(--fill-0, #2253DD)"/>
<path id="Vector_26" d="M11.8629 25.8799C11.898 25.915 14.5304 23.4441 15.8988 21.9803C16.2878 21.5644 16.5744 21.23 16.6708 21.0571C17.1066 20.2758 17.8276 18.8634 17.8276 18.8634L16.3402 17.902L17.6324 16.7901C17.6324 16.7901 16.1527 14.7721 15.5764 14.1788C15.5139 14.1146 15.462 14.067 15.4238 14.0405C15.4031 14.0261 15.3798 14.0114 15.3541 13.9963C14.9545 13.7617 13.9849 13.439 13.7342 13.3575C13.7027 13.3472 13.6827 13.3409 13.6763 13.3388C13.6825 13.3412 13.7017 13.3486 13.7301 13.3628C13.9042 13.4501 14.422 13.7876 14.372 14.7017C14.3492 15.1149 13.9811 16.7973 13.5335 18.7364C13.4986 18.8869 13.4635 19.0389 13.4279 19.1918C12.7052 22.3015 11.8362 25.8533 11.8629 25.8799Z" fill="var(--fill-0, #4C70F5)" stroke="var(--stroke-0, black)" stroke-width="0.213696" stroke-linecap="round" stroke-linejoin="round"/>
<path id="Vector_27" d="M13.5336 18.7353C13.5348 18.7406 13.5358 18.7461 13.537 18.7514C14.0936 18.0097 14.5628 17.2253 14.9383 16.4098C15.1465 15.9573 15.3268 15.4926 15.3961 15.0073C15.4437 14.675 15.4377 14.3324 15.3543 13.9951C14.9547 13.7605 13.9851 13.4379 13.7344 13.3564C13.7329 13.358 13.7315 13.3597 13.7303 13.3617C13.9043 13.4489 14.4222 13.7865 14.3722 14.7005C14.3493 15.1138 13.9813 16.7961 13.5336 18.7353Z" fill="var(--fill-0, #80A1FF)"/>
<path id="Vector_28" d="M11.8629 25.8799C11.898 25.915 14.5304 23.4441 15.8988 21.9803C16.2878 21.5644 16.5744 21.23 16.6708 21.0571C17.1066 20.2758 17.8276 18.8634 17.8276 18.8634L16.3402 17.902L17.6324 16.7901C17.6324 16.7901 16.1527 14.7721 15.5764 14.1788C15.5139 14.1146 15.462 14.067 15.4238 14.0405C15.0423 13.7763 13.7373 13.3583 13.6763 13.3388C13.721 13.3556 14.4302 13.6393 14.372 14.7017C14.3475 15.1469 13.922 17.0661 13.4279 19.1918C12.7052 22.3015 11.8362 25.8533 11.8629 25.8799Z" stroke="var(--stroke-0, black)" stroke-width="0.213696" stroke-linecap="round" stroke-linejoin="round"/>
<path id="Vector_29" d="M13.7366 11.44C12.4026 10.9916 11.1972 10.0165 11.1972 10.0165" stroke="var(--stroke-0, black)" stroke-width="0.213696" stroke-linecap="round" stroke-linejoin="round"/>
<path id="Vector_30" d="M9.28559 7.55998C9.59067 7.69845 9.82363 7.77009 9.82363 7.77009" stroke="var(--stroke-0, black)" stroke-width="0.213696" stroke-linecap="round" stroke-linejoin="round"/>
<path id="Vector_31" d="M7.93096 6.42458C7.9937 6.58277 8.09636 6.72774 8.22209 6.85948C8.51996 7.17105 8.94813 7.40689 9.28686 7.56052C9.26883 8.01056 9.10728 11.8496 8.75844 13.3438C8.7659 13.3416 8.77119 13.3399 8.77383 13.339H8.77407C8.77407 13.339 8.77503 13.3385 8.77551 13.3385C8.77575 13.3385 8.77575 13.3383 8.77575 13.3383L8.78537 13.6294C8.78537 13.6294 10.9704 16.9244 10.9176 17.1535C10.9012 17.224 10.7322 17.4423 10.4968 17.7137C11.3337 18.0087 12.0588 17.8334 12.0588 17.8334C11.77 17.5079 11.5515 17.2341 11.533 17.1535C11.4801 16.9244 13.6652 13.6294 13.6652 13.6294L13.6748 13.3383L13.7371 11.44C14.5376 11.709 15.3843 11.7883 16.0448 11.3532C18.8821 9.48379 14.4665 3.30167 14.4665 3.30167C14.4665 3.30167 14.4583 3.93515 13.577 4.00679C12.6954 4.07819 11.4328 3.49448 10.7062 3.42308C9.97972 3.35168 9.9439 3.5065 9.9439 3.5065C9.9439 3.5065 10.4562 5.186 10.3846 5.50743C10.3132 5.82909 10.1704 6.16254 10.1704 6.16254C10.1704 6.16254 9.9201 4.86433 9.31259 4.85231C8.70507 4.84053 7.58549 5.55527 7.93096 6.42458Z" stroke="var(--stroke-0, black)" stroke-width="0.213696" stroke-linecap="round" stroke-linejoin="round"/>
<path id="Vector_32" d="M11.5319 17.1072C11.5504 17.1877 11.7689 17.4616 12.0577 17.7871C12.2264 17.9775 12.4195 18.1852 12.6101 18.3823C12.9277 18.7102 13.24 19.0083 13.4273 19.1456C13.5028 18.8203 13.5768 18.4999 13.648 18.1888C14.0422 16.467 14.3507 15.0327 14.3714 14.6555C14.4295 13.5931 13.7203 13.3095 13.6756 13.2926C13.6756 13.2926 13.6747 13.2921 13.6742 13.2921C13.6739 13.2921 13.6739 13.2919 13.6739 13.2919L13.6723 13.3458L13.6643 13.583C13.6643 13.583 11.4793 16.8781 11.5321 17.1072H11.5319Z" fill="var(--fill-0, #F5D256)" stroke="var(--stroke-0, black)" stroke-width="0.213696" stroke-linecap="round" stroke-linejoin="round"/>
<path id="Vector_33" d="M8.07756 14.6555C8.09848 15.0337 8.40836 16.4749 8.80408 18.203C8.87427 18.5097 8.94712 18.8254 9.02164 19.1456C9.26157 18.9696 9.70633 18.5302 10.1047 18.102C10.2446 17.952 10.3785 17.8032 10.4963 17.6673C10.7317 17.3959 10.9007 17.1776 10.917 17.1072C10.9699 16.8781 8.78484 13.583 8.78484 13.583L8.77619 13.3217L8.77523 13.2919C8.77523 13.2919 8.77523 13.2921 8.77499 13.2921C8.77451 13.2921 8.77402 13.2924 8.77354 13.2926H8.7733C8.77042 13.2936 8.76513 13.2958 8.75744 13.2989C8.64276 13.3479 8.02299 13.6595 8.07756 14.6555Z" fill="var(--fill-0, #F5D256)" stroke="var(--stroke-0, black)" stroke-width="0.213696" stroke-linecap="round" stroke-linejoin="round"/>
<path id="Vector_34" d="M15.8469 0.631264C16.1306 0.909898 16.2178 1.35033 16.1284 1.73787C16.039 2.1254 15.793 2.4627 15.4971 2.72811C15.2011 2.99352 14.8545 3.19546 14.5107 3.39548C14.8352 3.48828 15.2673 3.52074 15.5803 3.39476C15.8933 3.26879 16.1623 3.03607 16.332 2.74446" stroke="var(--stroke-0, black)" stroke-width="0.213696" stroke-linecap="round" stroke-linejoin="round"/>
<path id="Vector_35" d="M8.22176 6.85886C8.09603 6.72712 7.99338 6.58215 7.93063 6.42396C7.58516 5.55465 8.70475 4.83991 9.31226 4.85169C9.91977 4.86371 10.17 6.16192 10.17 6.16192C10.17 6.16192 10.3128 5.82847 10.3842 5.5068C10.4559 5.18538 9.94357 3.50588 9.94357 3.50588C9.94357 3.50588 9.97939 3.35106 10.7059 3.42246C11.4324 3.49386 12.6951 4.07757 13.5766 4.00617C14.458 3.93453 14.4661 3.30105 14.4661 3.30105C14.4661 3.30105 16.1928 1.85067 14.9407 0.574096C13.717 -0.673626 12.6573 0.910668 11.5303 1.46818C10.4032 2.02568 8.08113 1.49534 7.14786 2.98588C6.21459 4.47665 7.22311 5.90805 8.22176 6.85886Z" stroke="var(--stroke-0, black)" stroke-width="0.213696" stroke-linecap="round" stroke-linejoin="round"/>
<path id="Vector_36" d="M8.07756 14.6555C8.09848 15.0337 8.40836 16.4749 8.80408 18.203C8.88197 18.1587 8.94447 18.0857 8.9851 18.0049C9.0416 17.8921 9.06131 17.7645 9.07526 17.6387C9.14305 17.0202 9.08415 16.3881 8.90336 15.7926C8.77114 15.3577 8.57424 14.9399 8.50453 14.4908C8.44106 14.0824 8.50525 13.6244 8.77619 13.3217L8.77523 13.2919C8.77523 13.2919 8.77523 13.2921 8.77499 13.2921C8.77451 13.2921 8.77402 13.2924 8.77354 13.2926H8.7733C8.77042 13.2936 8.76513 13.2958 8.75744 13.2989C8.64276 13.3479 8.02299 13.6595 8.07756 14.6555Z" fill="var(--fill-0, #CEA625)"/>
<path id="Vector_37" d="M13.6483 18.1888C14.0426 16.467 14.351 15.0327 14.3717 14.6555C14.4299 13.5931 13.7207 13.3095 13.6759 13.2926C13.6759 13.2926 13.675 13.2921 13.6745 13.2921C13.6743 13.2921 13.6743 13.2919 13.6743 13.2919L13.6726 13.3458C13.8644 13.4025 14.0104 13.5845 14.064 13.7811C14.1241 14.0028 14.0882 14.2386 14.0344 14.4617C13.9286 14.8986 13.7555 15.3152 13.6062 15.739C13.4572 16.1629 13.3305 16.6014 13.323 17.0507C13.3163 17.4519 13.4141 17.8662 13.6485 18.1888H13.6483Z" fill="var(--fill-0, #CEA625)"/>
<path id="Vector_38" d="M11.5319 17.1533C11.5504 17.2339 11.7689 17.5077 12.0577 17.8332C12.2264 18.0236 12.4195 18.2313 12.6101 18.4285C12.9277 18.7564 13.24 19.0545 13.4273 19.1918C13.9213 17.0661 14.3468 15.1469 14.3714 14.7017C14.4295 13.6393 13.7203 13.3556 13.6756 13.3388C13.6756 13.3388 13.6747 13.3383 13.6742 13.3383C13.6739 13.3383 13.6739 13.3381 13.6739 13.3381L13.6643 13.6292C13.6643 13.6292 11.4793 16.9242 11.5321 17.1533H11.5319Z" stroke="var(--stroke-0, black)" stroke-width="0.213696" stroke-linecap="round" stroke-linejoin="round"/>
<path id="Vector_39" d="M8.07756 14.7017C8.10208 15.1469 8.5276 17.0661 9.02164 19.1918C9.26157 19.0158 9.70633 18.5763 10.1047 18.1482C10.2446 17.9981 10.3785 17.8493 10.4963 17.7135C10.7317 17.4421 10.9007 17.2238 10.917 17.1533C10.9699 16.9242 8.78484 13.6292 8.78484 13.6292L8.77523 13.3381C8.77523 13.3381 8.77523 13.3383 8.77499 13.3383C8.77451 13.3383 8.77402 13.3383 8.77354 13.3388H8.7733C8.77042 13.3397 8.76513 13.3419 8.75744 13.345C8.64276 13.3941 8.02299 13.7056 8.07756 14.7017Z" stroke="var(--stroke-0, black)" stroke-width="0.213696" stroke-linecap="round" stroke-linejoin="round"/>
<path id="Vector_40" d="M9.7231 6.33368C9.53293 5.96538 9.1151 5.72737 8.70112 5.75189" stroke="var(--stroke-0, black)" stroke-width="0.213696" stroke-linecap="round" stroke-linejoin="round"/>
<path id="Vector_41" d="M9.2875 5.97941C9.14421 6.03446 9.01968 6.13736 8.93842 6.26766" stroke="var(--stroke-0, black)" stroke-width="0.213696" stroke-linecap="round" stroke-linejoin="round"/>
<g id="Group">
<path id="Vector_42" d="M14.1476 9.11334C14.0947 9.10901 13.6524 9.3011 13.1557 8.85658C12.659 8.41207 12.8677 7.91129 12.8677 7.91129" stroke="var(--stroke-0, black)" stroke-width="0.213696" stroke-linecap="round" stroke-linejoin="round"/>
<path id="Vector_43" d="M13.1933 7.88318C13.1933 7.88318 12.8517 7.74398 12.5634 8.10868" stroke="var(--stroke-0, black)" stroke-width="0.213696" stroke-linecap="round" stroke-linejoin="round"/>
</g>
<path id="Vector_44" d="M14.5016 6.64649C14.5016 6.64649 15.2077 7.72473 15.006 7.91176C14.8043 8.0988 14.31 7.7704 14.31 7.7704" stroke="var(--stroke-0, black)" stroke-width="0.213696" stroke-linecap="round" stroke-linejoin="round"/>
</g>
</svg>
