<svg preserveAspectRatio="none" width="100%" height="100%" overflow="visible" style="display: block;" viewBox="0 0 20.016 19.997" fill="none" xmlns="http://www.w3.org/2000/svg">
<path id="Vector" d="M17 10.997C16.7348 10.997 16.4804 11.1024 16.2929 11.2899C16.1054 11.4775 16 11.7318 16 11.997V12.387L14.52 10.907C13.9974 10.3886 13.2911 10.0977 12.555 10.0977C11.8189 10.0977 11.1126 10.3886 10.59 10.907L9.89 11.607L7.41 9.11703C6.87783 8.61713 6.17514 8.33885 5.445 8.33885C4.71486 8.33885 4.01217 8.61713 3.48 9.11703L2 10.607V4.99703C2 4.73182 2.10536 4.47746 2.29289 4.28993C2.48043 4.10239 2.73478 3.99703 3 3.99703H7C7.26522 3.99703 7.51957 3.89168 7.70711 3.70414C7.89464 3.5166 8 3.26225 8 2.99703C8 2.73182 7.89464 2.47746 7.70711 2.28993C7.51957 2.10239 7.26522 1.99703 7 1.99703H3C2.20435 1.99703 1.44129 2.3131 0.87868 2.87571C0.316071 3.43832 0 4.20139 0 4.99703V16.997C0 17.7927 0.316071 18.5557 0.87868 19.1184C1.44129 19.681 2.20435 19.997 3 19.997H15C15.7956 19.997 16.5587 19.681 17.1213 19.1184C17.6839 18.5557 18 17.7927 18 16.997V11.997C18 11.7318 17.8946 11.4775 17.7071 11.2899C17.5196 11.1024 17.2652 10.997 17 10.997ZM3 17.997C2.73478 17.997 2.48043 17.8917 2.29289 17.7041C2.10536 17.5166 2 17.2623 2 16.997V13.427L4.9 10.537C5.04691 10.397 5.24206 10.3189 5.445 10.3189C5.64794 10.3189 5.84309 10.397 5.99 10.537L9.16 13.707L13.45 17.997H3ZM16 16.997C15.9936 17.1907 15.931 17.3783 15.82 17.537L11.31 12.997L12.01 12.307C12.0817 12.2339 12.1673 12.1757 12.2617 12.136C12.3561 12.0964 12.4576 12.0759 12.56 12.0759C12.6624 12.0759 12.7639 12.0964 12.8583 12.136C12.9527 12.1757 13.0383 12.2339 13.11 12.307L16 15.217V16.997ZM19.71 8.28703L18 6.56703C18.4239 5.87744 18.645 5.08242 18.6381 4.27299C18.6311 3.46357 18.3964 2.67246 17.9607 1.99025C17.525 1.30804 16.906 0.762305 16.1746 0.415533C15.4432 0.0687623 14.6289 -0.0650286 13.825 0.0294798C13.0211 0.123988 12.26 0.442976 11.629 0.949918C10.9979 1.45686 10.5224 2.13127 10.2568 2.89591C9.99123 3.66056 9.94635 4.48454 10.1273 5.27351C10.3083 6.06248 10.7077 6.78455 11.28 7.35703C12.0745 8.15652 13.1529 8.60944 14.28 8.61703C15.0861 8.62706 15.8791 8.41238 16.57 7.99703L18.29 9.72703C18.383 9.82076 18.4936 9.89516 18.6154 9.94593C18.7373 9.99669 18.868 10.0228 19 10.0228C19.132 10.0228 19.2627 9.99669 19.3846 9.94593C19.5064 9.89516 19.617 9.82076 19.71 9.72703C19.8068 9.63375 19.8838 9.52191 19.9363 9.3982C19.9889 9.27449 20.016 9.14145 20.016 9.00703C20.016 8.87261 19.9889 8.73957 19.9363 8.61587C19.8838 8.49216 19.8068 8.38032 19.71 8.28703V8.28703ZM16 5.99703C15.6762 6.32304 15.2628 6.54554 14.8123 6.63632C14.3619 6.72709 13.8946 6.68205 13.4698 6.50691C13.045 6.33178 12.6817 6.03442 12.4261 5.65257C12.1705 5.27071 12.034 4.82155 12.034 4.36203C12.034 3.90252 12.1705 3.45336 12.4261 3.0715C12.6817 2.68964 13.045 2.39229 13.4698 2.21715C13.8946 2.04202 14.3619 1.99698 14.8123 2.08775C15.2628 2.17853 15.6762 2.40103 16 2.72703C16.4317 3.16166 16.674 3.74942 16.674 4.36203C16.674 4.97465 16.4317 5.5624 16 5.99703Z" fill="var(--fill-0, #1E1F26)"/>
</svg>
