<svg preserveAspectRatio="none" width="100%" height="100%" overflow="visible" style="display: block;" viewBox="0 0 19.9947 13.9944" fill="none" xmlns="http://www.w3.org/2000/svg">
<path id="Vector" d="M16.4284 4.20442C15.8167 2.80023 14.7614 1.63542 13.4242 0.888575C12.087 0.141735 10.5417 -0.145911 9.02532 0.069742C7.50893 0.285395 6.10514 0.992442 5.02915 2.08248C3.95317 3.17251 3.2644 4.58537 3.06844 6.10442C2.11502 6.33274 1.27866 6.90325 0.718173 7.70761C0.157689 8.51196 -0.0878807 9.49415 0.0280989 10.4676C0.144078 11.4411 0.61353 12.3381 1.3473 12.9883C2.08107 13.6384 3.02806 13.9965 4.00844 13.9944H15.0084C16.2078 13.9911 17.366 13.5568 18.2718 12.7707C19.1776 11.9846 19.7707 10.8991 19.9429 9.71216C20.115 8.52522 19.8548 7.31594 19.2097 6.30488C18.5645 5.29382 17.5774 4.54834 16.4284 4.20442V4.20442ZM15.0084 11.9944H4.00844C3.478 11.9944 2.96929 11.7837 2.59422 11.4086C2.21915 11.0336 2.00844 10.5249 2.00844 9.99442C2.00844 9.46399 2.21915 8.95528 2.59422 8.5802C2.96929 8.20513 3.478 7.99442 4.00844 7.99442C4.27365 7.99442 4.52801 7.88906 4.71554 7.70152C4.90308 7.51399 5.00844 7.25963 5.00844 6.99442C5.01099 5.8117 5.43272 4.66817 6.1987 3.767C6.96469 2.86583 8.02533 2.26537 9.19218 2.07229C10.359 1.87921 11.5566 2.10602 12.572 2.71243C13.5874 3.31883 14.355 4.26556 14.7384 5.38442C14.7971 5.55439 14.9005 5.70541 15.0378 5.82156C15.175 5.93771 15.3411 6.0147 15.5184 6.04442C16.2514 6.17967 16.9078 6.58295 17.3598 7.17569C17.8117 7.76842 18.0268 8.50817 17.9631 9.25082C17.8995 9.99346 17.5616 10.6858 17.0154 11.193C16.4692 11.7002 15.7538 11.9859 15.0084 11.9944V11.9944Z" fill="var(--fill-0, #1E1F26)"/>
</svg>
