<svg preserveAspectRatio="none" width="100%" height="100%" overflow="visible" style="display: block;" viewBox="0 0 16 19.9647" fill="none" xmlns="http://www.w3.org/2000/svg">
<path id="Vector" d="M7 10.9647H9C9.26522 10.9647 9.51957 10.8593 9.70711 10.6718C9.89464 10.4842 10 10.2299 10 9.96467C10 9.69946 9.89464 9.4451 9.70711 9.25757C9.51957 9.07003 9.26522 8.96467 9 8.96467H7C6.73478 8.96467 6.48043 9.07003 6.29289 9.25757C6.10536 9.4451 6 9.69946 6 9.96467C6 10.2299 6.10536 10.4842 6.29289 10.6718C6.48043 10.8593 6.73478 10.9647 7 10.9647V10.9647ZM15 17.9647H14V6.96467H15C15.2652 6.96467 15.5196 6.85932 15.7071 6.67178C15.8946 6.48424 16 6.22989 16 5.96467C16 5.69946 15.8946 5.4451 15.7071 5.25757C15.5196 5.07003 15.2652 4.96467 15 4.96467H13.91C13.6664 3.57409 12.9402 2.31394 11.8593 1.40588C10.7783 0.497813 9.41176 0 8 0C6.58824 0 5.22169 0.497813 4.14072 1.40588C3.05975 2.31394 2.33361 3.57409 2.09 4.96467H1C0.734784 4.96467 0.48043 5.07003 0.292893 5.25757C0.105357 5.4451 0 5.69946 0 5.96467C0 6.22989 0.105357 6.48424 0.292893 6.67178C0.48043 6.85932 0.734784 6.96467 1 6.96467H2V17.9647H1C0.734784 17.9647 0.48043 18.07 0.292893 18.2576C0.105357 18.4451 0 18.6995 0 18.9647C0 19.2299 0.105357 19.4842 0.292893 19.6718C0.48043 19.8593 0.734784 19.9647 1 19.9647H15C15.2652 19.9647 15.5196 19.8593 15.7071 19.6718C15.8946 19.4842 16 19.2299 16 18.9647C16 18.6995 15.8946 18.4451 15.7071 18.2576C15.5196 18.07 15.2652 17.9647 15 17.9647ZM8 1.96467C8.88456 1.96755 9.74321 2.26354 10.4416 2.80636C11.1401 3.34918 11.6389 4.1082 11.86 4.96467H4.14C4.36114 4.1082 4.85993 3.34918 5.55836 2.80636C6.25679 2.26354 7.11544 1.96755 8 1.96467V1.96467ZM12 17.9647H4V15.9647H12V17.9647ZM12 13.9647H4V6.96467H12V13.9647Z" fill="var(--fill-0, #1E1F26)"/>
</svg>
