<svg preserveAspectRatio="none" width="100%" height="100%" overflow="visible" style="display: block;" viewBox="0 0 19.9419 19.9797" fill="none" xmlns="http://www.w3.org/2000/svg">
<path id="Vector" d="M9.97096 0C7.62417 0.00681891 5.35453 0.838796 3.5593 2.35031C1.76408 3.86182 0.557643 5.95656 0.151163 8.2679C-0.255317 10.5792 0.164054 12.9599 1.33587 14.9932C2.50769 17.0265 4.3573 18.5829 6.56096 19.39H6.62096C8.78509 20.1763 11.1568 20.1763 13.321 19.39H13.381C15.5846 18.5829 17.4342 17.0265 18.6061 14.9932C19.7779 12.9599 20.1972 10.5792 19.7908 8.2679C19.3843 5.95656 18.1778 3.86182 16.3826 2.35031C14.5874 0.838796 12.3178 0.00681891 9.97096 0V0ZM11.971 17.74C10.6602 18.0868 9.28175 18.0868 7.97096 17.74V14H11.971V17.74ZM13.971 16.92V9C14.2362 9 14.4905 8.89464 14.6781 8.70711C14.8656 8.51957 14.971 8.26522 14.971 8C14.971 7.73478 14.8656 7.48043 14.6781 7.29289C14.4905 7.10536 14.2362 7 13.971 7H11.971C11.7057 7 11.4514 7.10536 11.2639 7.29289C11.0763 7.48043 10.971 7.73478 10.971 8C10.971 8.26522 11.0763 8.51957 11.2639 8.70711C11.4514 8.89464 11.7057 9 11.971 9V12H7.97096V9C8.23618 9 8.49053 8.89464 8.67807 8.70711C8.86561 8.51957 8.97096 8.26522 8.97096 8C8.97096 7.73478 8.86561 7.48043 8.67807 7.29289C8.49053 7.10536 8.23618 7 7.97096 7H5.97096C5.70575 7 5.45139 7.10536 5.26386 7.29289C5.07632 7.48043 4.97096 7.73478 4.97096 8C4.97096 8.26522 5.07632 8.51957 5.26386 8.70711C5.45139 8.89464 5.70575 9 5.97096 9V16.92C4.44583 16.0395 3.25386 14.6803 2.57993 13.0533C1.90599 11.4262 1.78776 9.62231 2.24356 7.92124C2.69936 6.22018 3.70372 4.71704 5.10087 3.64497C6.49803 2.5729 8.20989 1.9918 9.97096 1.9918C11.732 1.9918 13.4439 2.5729 14.8411 3.64497C16.2382 4.71704 17.2426 6.22018 17.6984 7.92124C18.1542 9.62231 18.0359 11.4262 17.362 13.0533C16.6881 14.6803 15.4961 16.0395 13.971 16.92V16.92Z" fill="var(--fill-0, #1E1F26)"/>
</svg>
