<svg preserveAspectRatio="none" width="100%" height="100%" overflow="visible" style="display: block;" viewBox="0 0 14 19.9999" fill="none" xmlns="http://www.w3.org/2000/svg">
<path id="Vector" d="M7 6C7.26516 6.00018 7.51941 6.10559 7.70691 6.29309C7.89441 6.48059 7.99982 6.73484 8 7C8 7.26522 8.10536 7.51957 8.29289 7.70711C8.48043 7.89464 8.73478 8 9 8C9.26522 8 9.51957 7.89464 9.70711 7.70711C9.89464 7.51957 10 7.26522 10 7C9.99973 6.50078 9.87487 6.00952 9.63673 5.57077C9.39859 5.13201 9.0547 4.75963 8.63625 4.48739C8.2178 4.21514 7.73801 4.05165 7.24039 4.01172C6.74277 3.97179 6.24306 4.0567 5.78655 4.25874C5.33005 4.46079 4.93119 4.77357 4.62614 5.16875C4.32109 5.56392 4.11949 6.02899 4.03963 6.52178C3.95977 7.01456 4.00417 7.51949 4.1688 7.99078C4.33343 8.46208 4.61309 8.88482 4.98242 9.2207C4.99242 9.2298 5.14355 9.39062 5.17578 9.43555C5.28901 9.60019 5.34962 9.7953 5.34962 9.99512C5.34962 10.1949 5.28901 10.3901 5.17578 10.5547C5.10153 10.6629 5.04932 10.7847 5.02214 10.9131C4.99496 11.0416 4.99334 11.1741 5.01737 11.3031C5.0414 11.4322 5.09061 11.5552 5.1622 11.6652C5.23378 11.7752 5.32633 11.8701 5.43457 11.9443C5.54281 12.0186 5.66461 12.0708 5.79303 12.098C5.92144 12.1252 6.05395 12.1268 6.18299 12.1028C6.31203 12.0787 6.43508 12.0295 6.5451 11.9579C6.65512 11.8863 6.74997 11.7938 6.82422 11.6855C7.16724 11.1869 7.35048 10.5957 7.34961 9.99045C7.34874 9.38521 7.1638 8.79455 6.81934 8.29688C6.66539 8.10292 6.50142 7.91712 6.32812 7.74023C6.26863 7.68592 6.21555 7.62498 6.16992 7.55859C6.06882 7.40803 6.01054 7.23283 6.0013 7.05171C5.99206 6.8706 6.0322 6.69037 6.11745 6.53031C6.2027 6.37024 6.32985 6.23635 6.48529 6.14294C6.64074 6.04954 6.81865 6.00013 7 6V6ZM7 0C5.92633 9.19897e-05 4.86707 0.247141 3.90414 0.722041C2.9412 1.19694 2.10041 1.88696 1.44677 2.73874C0.79314 3.59053 0.344185 4.58124 0.134632 5.63426C-0.074921 6.68728 -0.0394574 7.77439 0.23828 8.81152C0.307724 9.06676 0.475476 9.28408 0.704805 9.4159C0.934135 9.54772 1.20636 9.5833 1.46186 9.51485C1.71737 9.44639 1.93533 9.27948 2.06804 9.05067C2.20075 8.82185 2.23738 8.54977 2.16992 8.294C1.98576 7.60651 1.9505 6.88763 2.06648 6.18542C2.18245 5.4832 2.44701 4.81384 2.84245 4.22208C3.23789 3.63032 3.7551 3.1298 4.35951 2.75398C4.96393 2.37815 5.6416 2.1357 6.34724 2.04281C7.05288 1.94992 7.77022 2.00874 8.4513 2.21535C9.13238 2.42195 9.7615 2.77157 10.2966 3.24084C10.8317 3.71011 11.2605 4.2882 11.5542 4.93648C11.848 5.58476 12 6.28827 12 7C11.9958 7.90303 11.7525 8.78885 11.2949 9.56738L7.73145 17C7.55561 17.3036 7.30315 17.5558 6.9993 17.7313C6.69546 17.9068 6.35088 17.9994 6 18C5.47174 17.993 4.96709 17.7801 4.59352 17.4065C4.21995 17.0329 4.00699 16.5283 4 16C3.99999 15.6492 4.09263 15.3045 4.26855 15.001C4.40142 14.7713 4.43759 14.4982 4.3691 14.2418C4.30061 13.9854 4.13307 13.7667 3.90334 13.6338C3.67361 13.5009 3.4005 13.4647 3.1441 13.5332C2.8877 13.6017 2.669 13.7693 2.53613 13.999C2.27151 14.4565 2.10022 14.962 2.03215 15.4861C1.96409 16.0102 2.00061 16.5427 2.13959 17.0526C2.27858 17.5625 2.51728 18.0399 2.84189 18.457C3.1665 18.8741 3.57058 19.2227 4.03076 19.4827C4.49094 19.7427 4.99809 19.9088 5.52289 19.9716C6.04769 20.0343 6.57972 19.9924 7.08822 19.8483C7.59672 19.7041 8.07161 19.4606 8.48541 19.1318C8.89921 18.803 9.24372 18.3954 9.49902 17.9326L13.0625 10.5C13.6768 9.43582 14.0001 8.22871 14 6.99998C13.9999 5.77125 13.6764 4.56418 13.062 3.50008C12.4476 2.43598 11.564 1.55234 10.4999 0.937951C9.4358 0.323564 8.22873 7.72074e-05 7 0V0Z" fill="var(--fill-0, #1E1F26)"/>
</svg>
