<svg preserveAspectRatio="none" width="100%" height="100%" overflow="visible" style="display: block;" viewBox="0 0 20 14" fill="none" xmlns="http://www.w3.org/2000/svg">
<path id="Vector" d="M10 0C9.73478 0 9.48043 0.105357 9.29289 0.292893C9.10536 0.48043 9 0.734784 9 1V13C9 13.2652 9.10536 13.5196 9.29289 13.7071C9.48043 13.8946 9.73478 14 10 14C10.2652 14 10.5196 13.8946 10.7071 13.7071C10.8946 13.5196 11 13.2652 11 13V1C11 0.734784 10.8946 0.48043 10.7071 0.292893C10.5196 0.105357 10.2652 0 10 0ZM8.71 6.29L6.21 3.79C6.0217 3.6017 5.7663 3.49591 5.5 3.49591C5.2337 3.49591 4.9783 3.6017 4.79 3.79C4.6017 3.9783 4.49591 4.2337 4.49591 4.5C4.49591 4.63186 4.52188 4.76243 4.57234 4.88425C4.6228 5.00607 4.69676 5.11676 4.79 5.21L5.59 6H1C0.734784 6 0.48043 6.10536 0.292893 6.29289C0.105357 6.48043 0 6.73478 0 7C0 7.26522 0.105357 7.51957 0.292893 7.70711C0.48043 7.89464 0.734784 8 1 8H5.59L4.79 8.79C4.69627 8.88296 4.62188 8.99356 4.57111 9.11542C4.52034 9.23728 4.4942 9.36799 4.4942 9.5C4.4942 9.63201 4.52034 9.76272 4.57111 9.88458C4.62188 10.0064 4.69627 10.117 4.79 10.21C4.88296 10.3037 4.99356 10.3781 5.11542 10.4289C5.23728 10.4797 5.36799 10.5058 5.5 10.5058C5.63201 10.5058 5.76272 10.4797 5.88458 10.4289C6.00644 10.3781 6.11704 10.3037 6.21 10.21L8.71 7.71C8.80104 7.6149 8.87241 7.50275 8.92 7.38C8.97291 7.2603 9.00023 7.13087 9.00023 7C9.00023 6.86913 8.97291 6.7397 8.92 6.62C8.87241 6.49725 8.80104 6.3851 8.71 6.29V6.29ZM19 6H14.41L15.21 5.21C15.3032 5.11676 15.3772 5.00607 15.4277 4.88425C15.4781 4.76243 15.5041 4.63186 15.5041 4.5C15.5041 4.36814 15.4781 4.23757 15.4277 4.11575C15.3772 3.99393 15.3032 3.88324 15.21 3.79C15.1168 3.69676 15.0061 3.6228 14.8842 3.57234C14.7624 3.52188 14.6319 3.49591 14.5 3.49591C14.3681 3.49591 14.2376 3.52188 14.1158 3.57234C13.9939 3.6228 13.8832 3.69676 13.79 3.79L11.29 6.29C11.1963 6.38296 11.1219 6.49356 11.0711 6.61542C11.0203 6.73728 10.9942 6.86799 10.9942 7C10.9942 7.13201 11.0203 7.26272 11.0711 7.38458C11.1219 7.50644 11.1963 7.61704 11.29 7.71L13.79 10.21C13.883 10.3037 13.9936 10.3781 14.1154 10.4289C14.2373 10.4797 14.368 10.5058 14.5 10.5058C14.632 10.5058 14.7627 10.4797 14.8846 10.4289C15.0064 10.3781 15.117 10.3037 15.21 10.21C15.3037 10.117 15.3781 10.0064 15.4289 9.88458C15.4797 9.76272 15.5058 9.63201 15.5058 9.5C15.5058 9.36799 15.4797 9.23728 15.4289 9.11542C15.3781 8.99356 15.3037 8.88296 15.21 8.79L14.41 8H19C19.2652 8 19.5196 7.89464 19.7071 7.70711C19.8946 7.51957 20 7.26522 20 7C20 6.73478 19.8946 6.48043 19.7071 6.29289C19.5196 6.10536 19.2652 6 19 6Z" fill="var(--fill-0, #1E1F26)"/>
</svg>
