<svg preserveAspectRatio="none" width="100%" height="100%" overflow="visible" style="display: block;" viewBox="0 0 19.9947 16.986" fill="none" xmlns="http://www.w3.org/2000/svg">
<path id="Vector" d="M10.7184 15.2844C10.6212 15.1961 10.5096 15.1251 10.3884 15.0744C10.2063 14.9978 10.0056 14.9769 9.81162 15.0143C9.61763 15.0517 9.43906 15.1457 9.29844 15.2844C9.1157 15.4761 9.01212 15.7297 9.00844 15.9944C9.00767 16.126 9.0329 16.2565 9.08266 16.3783C9.13243 16.5002 9.20575 16.611 9.29844 16.7044C9.39564 16.7927 9.50725 16.8638 9.62844 16.9144C9.81016 16.9872 10.0092 17.005 10.201 16.9656C10.3927 16.9263 10.5687 16.8315 10.7072 16.6931C10.8456 16.5547 10.9403 16.3787 10.9796 16.187C11.019 15.9952 11.0012 15.7961 10.9284 15.6144C10.8808 15.4917 10.8095 15.3795 10.7184 15.2844V15.2844ZM10.0084 8.99442C9.74322 8.99442 9.48887 9.09978 9.30133 9.28731C9.11379 9.47485 9.00844 9.7292 9.00844 9.99442V12.9944C9.00844 13.2596 9.11379 13.514 9.30133 13.7015C9.48887 13.8891 9.74322 13.9944 10.0084 13.9944C10.2737 13.9944 10.528 13.8891 10.7155 13.7015C10.9031 13.514 11.0084 13.2596 11.0084 12.9944V9.99442C11.0084 9.7292 10.9031 9.47485 10.7155 9.28731C10.528 9.09978 10.2737 8.99442 10.0084 8.99442ZM16.4284 4.20442C15.8167 2.80023 14.7614 1.63542 13.4242 0.888575C12.087 0.141735 10.5417 -0.145911 9.02532 0.069742C7.50893 0.285395 6.10514 0.992442 5.02915 2.08248C3.95317 3.17251 3.2644 4.58537 3.06844 6.10442C2.11502 6.33274 1.27866 6.90325 0.718173 7.70761C0.157689 8.51196 -0.0878807 9.49415 0.0280989 10.4676C0.144078 11.4411 0.61353 12.3381 1.3473 12.9883C2.08107 13.6384 3.02806 13.9965 4.00844 13.9944H6.00844C6.27365 13.9944 6.52801 13.8891 6.71554 13.7015C6.90308 13.514 7.00844 13.2596 7.00844 12.9944C7.00844 12.7292 6.90308 12.4748 6.71554 12.2873C6.52801 12.0998 6.27365 11.9944 6.00844 11.9944H4.00844C3.478 11.9944 2.96929 11.7837 2.59422 11.4086C2.21915 11.0336 2.00844 10.5249 2.00844 9.99442C2.00844 9.46399 2.21915 8.95528 2.59422 8.5802C2.96929 8.20513 3.478 7.99442 4.00844 7.99442C4.27365 7.99442 4.52801 7.88906 4.71554 7.70152C4.90308 7.51399 5.00844 7.25963 5.00844 6.99442C5.01099 5.8117 5.43272 4.66817 6.1987 3.767C6.96469 2.86583 8.02533 2.26537 9.19218 2.07229C10.359 1.87921 11.5566 2.10602 12.572 2.71243C13.5874 3.31883 14.355 4.26556 14.7384 5.38442C14.7971 5.55439 14.9005 5.70541 15.0378 5.82156C15.175 5.93771 15.3411 6.0147 15.5184 6.04442C16.2514 6.17967 16.9078 6.58295 17.3598 7.17569C17.8117 7.76842 18.0268 8.50817 17.9631 9.25082C17.8995 9.99346 17.5616 10.6858 17.0154 11.193C16.4692 11.7002 15.7538 11.9859 15.0084 11.9944H14.0084C13.7432 11.9944 13.4889 12.0998 13.3013 12.2873C13.1138 12.4748 13.0084 12.7292 13.0084 12.9944C13.0084 13.2596 13.1138 13.514 13.3013 13.7015C13.4889 13.8891 13.7432 13.9944 14.0084 13.9944H15.0084C16.2078 13.9911 17.366 13.5568 18.2718 12.7707C19.1776 11.9846 19.7707 10.8991 19.9429 9.71216C20.115 8.52522 19.8548 7.31594 19.2097 6.30488C18.5645 5.29382 17.5774 4.54834 16.4284 4.20442V4.20442Z" fill="var(--fill-0, #1E1F26)"/>
</svg>
