<svg preserveAspectRatio="none" width="100%" height="100%" overflow="visible" style="display: block;" viewBox="0 0 19 22" fill="none" xmlns="http://www.w3.org/2000/svg">
<path id="Vector" d="M8 2C6.14349 2 4.36301 2.7375 3.05025 4.05025C1.7375 5.36301 1 7.14348 1 9C1 9.26522 1.10536 9.51957 1.29289 9.70711C1.48043 9.89464 1.73478 10 2 10C2.26522 10 2.51957 9.89464 2.70711 9.70711C2.89464 9.51957 3 9.26522 3 9C3 7.67392 3.52678 6.40215 4.46447 5.46447C5.40215 4.52678 6.67392 4 8 4C9.32608 4 10.5979 4.52678 11.5355 5.46447C12.4732 6.40215 13 7.67392 13 9C12.9969 9.90467 12.7517 10.792 12.29 11.57L8.73 19C8.55464 19.3037 8.30249 19.556 7.99884 19.7315C7.69519 19.9071 7.35073 19.9996 7 20C6.46957 20 5.96086 19.7893 5.58579 19.4142C5.21071 19.0391 5 18.5304 5 18C5 17.7348 4.89464 17.4804 4.70711 17.2929C4.51957 17.1054 4.26522 17 4 17C3.73478 17 3.48043 17.1054 3.29289 17.2929C3.10536 17.4804 3 17.7348 3 18C3 19.0609 3.42143 20.0783 4.17157 20.8284C4.92172 21.5786 5.93913 22 7 22C7.71517 21.9994 8.41709 21.807 9.03266 21.4429C9.64823 21.0789 10.1549 20.5564 10.5 19.93L14.06 12.5C14.6782 11.4374 15.0027 10.2294 15 9C15 7.14348 14.2625 5.36301 12.9497 4.05025C11.637 2.7375 9.85652 2 8 2ZM1 14C0.802219 14 0.60888 14.0586 0.44443 14.1685C0.279981 14.2784 0.151809 14.4346 0.0761209 14.6173C0.000433282 14.8 -0.0193701 15.0011 0.0192152 15.1951C0.0578004 15.3891 0.153041 15.5673 0.292894 15.7071C0.432746 15.847 0.610929 15.9422 0.80491 15.9808C0.998891 16.0194 1.19996 15.9996 1.38268 15.9239C1.56541 15.8482 1.72159 15.72 1.83147 15.5556C1.94135 15.3911 2 15.1978 2 15C2 14.7348 1.89464 14.4804 1.70711 14.2929C1.51957 14.1054 1.26522 14 1 14ZM14.59 0.2C14.4849 0.121207 14.3654 0.0638779 14.2382 0.0312864C14.111 -0.00130524 13.9786 -0.00852118 13.8486 0.0100505C13.7186 0.0286222 13.5935 0.0726179 13.4805 0.139526C13.3675 0.206433 13.2688 0.294942 13.19 0.4C13.1112 0.505057 13.0539 0.624606 13.0213 0.751819C12.9887 0.879032 12.9815 1.01142 13.0001 1.14142C13.0186 1.27142 13.0626 1.39649 13.1295 1.50949C13.1964 1.62249 13.2849 1.72121 13.39 1.8C14.5096 2.63728 15.4188 3.72387 16.0454 4.97363C16.672 6.22339 16.9988 7.60195 17 9C17 9.26522 17.1054 9.51957 17.2929 9.70711C17.4804 9.89464 17.7348 10 18 10C18.2652 10 18.5196 9.89464 18.7071 9.70711C18.8946 9.51957 19 9.26522 19 9C18.9942 7.29228 18.593 5.6091 17.8279 4.08236C17.0628 2.55562 15.9546 1.22679 14.59 0.2V0.2ZM8 8C8.26522 8 8.51957 8.10536 8.70711 8.29289C8.89464 8.48043 9 8.73478 9 9C9 9.26522 9.10536 9.51957 9.29289 9.70711C9.48043 9.89464 9.73478 10 10 10C10.2652 10 10.5196 9.89464 10.7071 9.70711C10.8946 9.51957 11 9.26522 11 9C11 8.20435 10.6839 7.44129 10.1213 6.87868C9.55871 6.31607 8.79565 6 8 6C7.20435 6 6.44129 6.31607 5.87868 6.87868C5.31607 7.44129 5 8.20435 5 9C4.99866 9.59833 5.17627 10.1834 5.51 10.68C5.6478 10.8756 5.80529 11.0565 5.98 11.22L6.18 11.44C6.28964 11.6043 6.34815 11.7975 6.34815 11.995C6.34815 12.1925 6.28964 12.3857 6.18 12.55C6.02918 12.7676 5.97081 13.0361 6.01767 13.2967C6.06454 13.5572 6.21282 13.7886 6.43 13.94C6.59721 14.0567 6.79609 14.1195 7 14.12C7.16122 14.1197 7.31999 14.0805 7.46277 14.0056C7.60554 13.9307 7.72811 13.8225 7.82 13.69C8.16182 13.1908 8.34473 12.6 8.34473 11.995C8.34473 11.39 8.16182 10.7992 7.82 10.3C7.71483 10.1508 7.59778 10.0103 7.47 9.88L7.33 9.74C7.27149 9.68481 7.21795 9.62458 7.17 9.56C7.05876 9.39446 6.99956 9.19944 7 9C7 8.73478 7.10536 8.48043 7.29289 8.29289C7.48043 8.10536 7.73478 8 8 8V8ZM4 14C4.19778 14 4.39112 13.9414 4.55557 13.8315C4.72002 13.7216 4.84819 13.5654 4.92388 13.3827C4.99957 13.2 5.01937 12.9989 4.98079 12.8049C4.9422 12.6109 4.84696 12.4327 4.70711 12.2929C4.56725 12.153 4.38907 12.0578 4.19509 12.0192C4.00111 11.9806 3.80004 12.0004 3.61732 12.0761C3.43459 12.1518 3.27841 12.28 3.16853 12.4444C3.05865 12.6089 3 12.8022 3 13C3 13.2652 3.10536 13.5196 3.29289 13.7071C3.48043 13.8946 3.73478 14 4 14Z" fill="var(--fill-0, #1E1F26)"/>
</svg>
