<svg preserveAspectRatio="none" width="100%" height="100%" overflow="visible" style="display: block;" viewBox="0 0 20.0207 18.994" fill="none" xmlns="http://www.w3.org/2000/svg">
<path id="Vector" d="M19.7011 5.064C19.5806 4.94567 19.4322 4.85977 19.2696 4.8143C19.1069 4.76884 18.9355 4.76529 18.7711 4.804C18.5545 4.85351 18.3333 4.88032 18.1111 4.884C17.3155 4.884 16.5524 4.56793 15.9898 4.00532C15.4272 3.44271 15.1111 2.67965 15.1111 1.884C15.114 1.66506 15.1408 1.4471 15.1911 1.234C15.2308 1.06893 15.2279 0.89646 15.1825 0.732846C15.1372 0.569233 15.0509 0.419862 14.9318 0.29881C14.8128 0.177758 14.6649 0.0890112 14.502 0.0409323C14.3392 -0.0071467 14.1668 -0.0129744 14.0011 0.0239984C13.0058 0.243737 12.1031 0.766556 11.4172 1.5205C10.7313 2.27444 10.296 3.22243 10.1711 4.234C9.62787 4.07877 9.06607 3.99803 8.5011 3.994C7.05996 3.99318 5.66667 4.5111 4.57598 5.45306C3.48528 6.39502 2.77007 7.69808 2.5611 9.124C1.86474 9.31791 1.2455 9.72268 0.788439 10.2827C0.331382 10.8427 0.0589349 11.5305 0.00852367 12.2516C-0.0418876 12.9727 0.13221 13.6918 0.5069 14.3099C0.881591 14.9281 1.43849 15.4151 2.1011 15.704C2.22854 15.7545 2.36405 15.7816 2.5011 15.784C2.7323 15.7859 2.95701 15.7076 3.13698 15.5625C3.31696 15.4173 3.44109 15.2143 3.48824 14.988C3.5354 14.7616 3.50267 14.526 3.39562 14.321C3.28857 14.1161 3.11382 13.9546 2.9011 13.864C2.6328 13.7497 2.40424 13.5587 2.24412 13.315C2.084 13.0712 1.99945 12.7856 2.0011 12.494C2.0011 12.0962 2.15914 11.7146 2.44044 11.4333C2.72175 11.152 3.10328 10.994 3.5011 10.994C3.76632 10.994 4.02067 10.8886 4.20821 10.7011C4.39575 10.5136 4.5011 10.2592 4.5011 9.994C4.5011 8.93313 4.92253 7.91572 5.67268 7.16557C6.42282 6.41543 7.44024 5.994 8.5011 5.994C9.27708 5.99338 10.0358 6.22308 10.6811 6.654V6.654C11.408 7.13216 11.9592 7.83432 12.2511 8.654C12.3083 8.82584 12.411 8.97893 12.5484 9.09693C12.6858 9.21493 12.8526 9.29341 13.0311 9.324C13.5117 9.37603 13.964 9.57687 14.3249 9.89845C14.6857 10.22 14.9371 10.6463 15.044 11.1177C15.1508 11.5891 15.1077 12.0822 14.9208 12.5279C14.7338 12.9736 14.4123 13.3499 14.0011 13.604C13.7783 13.7499 13.6226 13.9783 13.5682 14.2389C13.5138 14.4996 13.5652 14.7712 13.7111 14.994C13.857 15.2168 14.0854 15.3725 14.346 15.4269C14.6067 15.4813 14.8783 15.4299 15.1011 15.284C15.6921 14.8844 16.1749 14.3447 16.5064 13.713C16.838 13.0813 17.0079 12.3774 17.0011 11.664C17.005 10.9671 16.8367 10.2801 16.5111 9.664C17.3699 9.42417 18.1477 8.95639 18.7622 8.31026C19.3766 7.66413 19.8047 6.86375 20.0011 5.994C20.0348 5.82627 20.025 5.65269 19.9724 5.48986C19.9199 5.32703 19.8265 5.1804 19.7011 5.064V5.064ZM15.1111 7.884C14.9713 7.89528 14.8309 7.89528 14.6911 7.884C14.4728 7.73439 14.2419 7.6039 14.0011 7.494C13.5913 6.59584 12.9661 5.81269 12.1811 5.214C12.1811 5.094 12.1811 4.964 12.1811 4.844C12.1811 4.41068 12.2749 3.98249 12.4562 3.5889C12.6374 3.19531 12.9018 2.84566 13.2311 2.564C13.3859 3.63085 13.8814 4.61909 14.6437 5.38138C15.406 6.14366 16.3942 6.63916 17.4611 6.794C17.1757 7.13972 16.8165 7.41709 16.4098 7.60572C16.0031 7.79435 15.5594 7.88944 15.1111 7.884V7.884ZM9.1111 11.824C8.94574 11.7122 8.7507 11.6525 8.5511 11.6525C8.3515 11.6525 8.15647 11.7122 7.9911 11.824C7.8411 11.904 5.5011 13.494 5.5011 15.994C5.5011 16.7896 5.81717 17.5527 6.37978 18.1153C6.94239 18.6779 7.70545 18.994 8.5011 18.994C9.29675 18.994 10.0598 18.6779 10.6224 18.1153C11.185 17.5527 11.5011 16.7896 11.5011 15.994C11.5011 13.494 9.1511 11.894 9.0611 11.824H9.1111ZM8.5011 16.994C8.23589 16.994 7.98153 16.8886 7.794 16.7011C7.60646 16.5136 7.5011 16.2592 7.5011 15.994C7.56425 15.2234 7.92249 14.5069 8.5011 13.994C9.07972 14.5069 9.43796 15.2234 9.5011 15.994C9.5011 16.2592 9.39575 16.5136 9.20821 16.7011C9.02067 16.8886 8.76632 16.994 8.5011 16.994Z" fill="var(--fill-0, #1E1F26)"/>
</svg>
