<svg preserveAspectRatio="none" width="100%" height="100%" overflow="visible" style="display: block;" viewBox="0 0 20 20" fill="none" xmlns="http://www.w3.org/2000/svg">
<path id="Vector" d="M10 0C8.02219 0 6.08879 0.58649 4.4443 1.6853C2.79981 2.78412 1.51809 4.3459 0.761209 6.17317C0.00433283 8.00043 -0.193701 10.0111 0.192152 11.9509C0.578004 13.8907 1.53041 15.6725 2.92894 17.0711C4.32746 18.4696 6.10929 19.422 8.0491 19.8079C9.98891 20.1937 11.9996 19.9957 13.8268 19.2388C15.6541 18.4819 17.2159 17.2002 18.3147 15.5557C19.4135 13.9112 20 11.9778 20 10C20 8.68678 19.7413 7.38642 19.2388 6.17317C18.7363 4.95991 17.9997 3.85752 17.0711 2.92893C16.1425 2.00035 15.0401 1.26375 13.8268 0.761205C12.6136 0.258658 11.3132 0 10 0V0ZM5.19 11.35H3.27L3.79 8.94H5.63C6.83 8.94 7.11 9.52 7.11 9.99C7.11 10.64 6.68 11.35 5.19 11.35ZM5.85 7.71H3.94L4.46 5.3H6.3C7.49 5.3 7.77 5.89 7.77 6.3C7.77 7 7.35 7.71 5.85 7.71V7.71ZM9.60001 15.14H7.68L8.21 12.72H10.05C11.24 12.72 11.52 13.31 11.52 13.78C11.52 14.43 11.1 15.14 9.60001 15.14V15.14ZM10.31 11.35H8.4L8.92 8.94H10.76C11.95 8.94 12.23 9.52 12.23 9.99C12.23 10.64 11.81 11.35 10.31 11.35V11.35ZM11 7.71H9.06001L9.58 5.3H11.42C12.62 5.3 12.9 5.89 12.9 6.3C12.9 7 12.47 7.71 11 7.71ZM14.74 13.32H12.81L13.33 10.9H15.17C16.36 10.9 16.65 11.49 16.65 11.96C16.65 12.61 16.22 13.32 14.72 13.32H14.74ZM15.46 9.88H13.52L14 7.46H15.84C17.04 7.46 17.32 8.05 17.32 8.46C17.36 9.17 16.93 9.88 15.44 9.88H15.46Z" fill="var(--fill-0, #1E1F26)"/>
</svg>
