<svg preserveAspectRatio="none" width="100%" height="100%" overflow="visible" style="display: block;" viewBox="0 0 44 44" fill="none" xmlns="http://www.w3.org/2000/svg">
<g id="Circular">
<path id="BG" d="M44 22C44 34.1503 34.1503 44 22 44C9.84974 44 0 34.1503 0 22C0 9.84974 9.84974 0 22 0C34.1503 0 44 9.84974 44 22ZM6.16 22C6.16 30.7482 13.2518 37.84 22 37.84C30.7482 37.84 37.84 30.7482 37.84 22C37.84 13.2518 30.7482 6.16 22 6.16C13.2518 6.16 6.16 13.2518 6.16 22Z" fill="var(--fill-0, #DDE6FB)"/>
<path id="Progress" d="M22 3.08C22 1.37896 23.3856 -0.0221205 25.07 0.215251C26.9034 0.473618 28.7009 0.962973 30.419 1.67465C33.0882 2.78025 35.5135 4.40076 37.5564 6.44365C39.5992 8.48654 41.2197 10.9118 42.3254 13.581C43.431 16.2501 44 19.1109 44 22C44 24.8891 43.431 27.7499 42.3253 30.419C41.2197 33.0882 39.5992 35.5135 37.5563 37.5564C35.5135 39.5992 33.0882 41.2197 30.419 42.3254C28.7009 43.037 26.9033 43.5264 25.07 43.7848C23.3856 44.0221 22 42.621 22 40.92V40.92C22 39.219 23.3917 37.8702 25.0606 37.5415C26.0861 37.3396 27.0915 37.0361 28.0617 36.6343C29.9835 35.8382 31.7297 34.6715 33.2006 33.2006C34.6714 31.7297 35.8382 29.9835 36.6343 28.0617C37.4303 26.1399 37.84 24.0801 37.84 22C37.84 19.9199 37.4303 17.8601 36.6343 15.9383C35.8382 14.0165 34.6715 12.2703 33.2006 10.7994C31.7297 9.32855 29.9835 8.16178 28.0617 7.36575C27.0915 6.96387 26.0861 6.66045 25.0606 6.45851C23.3917 6.12983 22 4.78104 22 3.08V3.08Z" fill="var(--fill-0, #003CBB)"/>
</g>
</svg>
