<svg preserveAspectRatio="none" width="100%" height="100%" overflow="visible" style="display: block;" viewBox="0 0 17.45 17" fill="none" xmlns="http://www.w3.org/2000/svg">
<path id="Vector" d="M11.25 8.72C11.7836 8.25813 12.2116 7.68688 12.5049 7.04502C12.7982 6.40316 12.95 5.70571 12.95 5C12.95 3.67392 12.4232 2.40215 11.4855 1.46447C10.5479 0.526784 9.27608 0 7.95 0C6.62392 0 5.35215 0.526784 4.41447 1.46447C3.47678 2.40215 2.95 3.67392 2.95 5C2.95617 5.70958 3.11577 6.40944 3.41783 7.05154C3.7199 7.69365 4.15729 8.26282 4.7 8.72C3.30014 9.35388 2.11247 10.3775 1.27898 11.6685C0.445495 12.9596 0.00147185 14.4633 0 16C0 16.2652 0.105357 16.5196 0.292893 16.7071C0.48043 16.8946 0.734784 17 1 17C1.26522 17 1.51957 16.8946 1.70711 16.7071C1.89464 16.5196 2 16.2652 2 16C2 14.4087 2.63214 12.8826 3.75736 11.7574C4.88258 10.6321 6.4087 10 8 10C9.5913 10 11.1174 10.6321 12.2426 11.7574C13.3679 12.8826 14 14.4087 14 16C14 16.2652 14.1054 16.5196 14.2929 16.7071C14.4804 16.8946 14.7348 17 15 17C15.2652 17 15.5196 16.8946 15.7071 16.7071C15.8946 16.5196 16 16.2652 16 16C15.9942 14.4578 15.5428 12.9502 14.7 11.6586C13.8573 10.367 12.6592 9.34651 11.25 8.72V8.72ZM7.95 8C7.35666 8 6.77664 7.82405 6.28329 7.49441C5.78994 7.16476 5.40542 6.69623 5.17836 6.14805C4.9513 5.59987 4.89189 4.99667 5.00764 4.41473C5.1234 3.83279 5.40912 3.29824 5.82868 2.87868C6.24824 2.45912 6.78279 2.1734 7.36473 2.05764C7.94667 1.94189 8.54987 2.0013 9.09805 2.22836C9.64623 2.45542 10.1148 2.83994 10.4444 3.33329C10.7741 3.82664 10.95 4.40666 10.95 5C10.95 5.79565 10.6339 6.55871 10.0713 7.12132C9.50871 7.68393 8.74565 8 7.95 8ZM16.45 3C16.1848 3 15.9304 3.10536 15.7429 3.29289C15.5554 3.48043 15.45 3.73478 15.45 4V6C15.45 6.26522 15.5554 6.51957 15.7429 6.70711C15.9304 6.89464 16.1848 7 16.45 7C16.7152 7 16.9696 6.89464 17.1571 6.70711C17.3446 6.51957 17.45 6.26522 17.45 6V4C17.45 3.73478 17.3446 3.48043 17.1571 3.29289C16.9696 3.10536 16.7152 3 16.45 3ZM15.7 8.29C15.5173 8.48163 15.4137 8.73523 15.41 9C15.4092 9.13161 15.4345 9.26207 15.4842 9.38391C15.534 9.50574 15.6073 9.61656 15.7 9.71C15.7972 9.79833 15.9088 9.86936 16.03 9.92C16.1497 9.97291 16.2791 10.0002 16.41 10.0002C16.5409 10.0002 16.6703 9.97291 16.79 9.92C16.9141 9.87509 17.0268 9.80343 17.1201 9.71011C17.2134 9.6168 17.2851 9.5041 17.33 9.38C17.386 9.26132 17.4134 9.13118 17.41 9C17.4112 8.80138 17.3531 8.60691 17.2433 8.44139C17.1335 8.27587 16.9769 8.1468 16.7935 8.07063C16.61 7.99446 16.4081 7.97465 16.2133 8.01372C16.0186 8.05279 15.8399 8.14897 15.7 8.29Z" fill="var(--fill-0, #1E1F26)"/>
</svg>
