<svg preserveAspectRatio="none" width="100%" height="100%" overflow="visible" style="display: block;" viewBox="0 0 19.9982 20.0089" fill="none" xmlns="http://www.w3.org/2000/svg">
<path id="Vector" d="M16.9982 12.0089C16.8708 11.9759 16.7381 11.9683 16.6078 11.9866C16.4775 12.0049 16.3521 12.0488 16.2387 12.1157C16.1254 12.1825 16.0263 12.2712 15.9473 12.3764C15.8683 12.4816 15.8108 12.6014 15.7782 12.7289C15.3958 14.2375 14.5216 15.5756 13.2938 16.5318C12.0659 17.488 10.5544 18.0077 8.99819 18.0089H3.40819L4.04819 17.3789C4.23444 17.1916 4.33898 16.9381 4.33898 16.6739C4.33898 16.4098 4.23444 16.1563 4.04819 15.9689C3.17228 15.0965 2.54303 14.0077 2.22444 12.8132C1.90585 11.6187 1.90928 10.3612 2.23439 9.16843C2.5595 7.9757 3.19468 6.89033 4.07534 6.02272C4.956 5.15511 6.05073 4.5362 7.24819 4.22894C7.37557 4.19611 7.49524 4.13851 7.60036 4.05943C7.70548 3.98035 7.794 3.88134 7.86086 3.76805C7.92771 3.65477 7.9716 3.52942 7.99002 3.39917C8.00844 3.26892 8.00102 3.13632 7.96819 3.00894C7.90188 2.75168 7.7361 2.53129 7.5073 2.39627C7.39402 2.32941 7.26867 2.28552 7.13842 2.2671C7.00817 2.24869 6.87557 2.25611 6.74819 2.28894C5.29519 2.66778 3.96007 3.40415 2.86445 4.43097C1.76883 5.45779 0.947535 6.74241 0.47538 8.16782C0.00322413 9.59324 -0.104785 11.1141 0.161191 12.592C0.427167 14.0698 1.05867 15.4576 1.99819 16.6289L0.288186 18.2989C0.149429 18.4396 0.0554325 18.6181 0.0180584 18.8121C-0.0193158 19.0061 0.0016069 19.2068 0.0781863 19.3889C0.153206 19.5716 0.280604 19.7279 0.444325 19.8382C0.608045 19.9486 0.800761 20.008 0.998186 20.0089H8.99819C10.9944 20.0102 12.9345 19.3478 14.513 18.1258C16.0916 16.9039 17.2191 15.1918 17.7182 13.2589C17.7558 13.1296 17.7669 12.9939 17.7508 12.8602C17.7347 12.7264 17.6918 12.5973 17.6245 12.4805C17.5573 12.3638 17.4671 12.2618 17.3595 12.1808C17.2519 12.0998 17.129 12.0413 16.9982 12.0089ZM18.5382 1.46894C17.7213 0.650022 16.6458 0.13964 15.4949 0.0247391C14.3439 -0.0901615 13.1888 0.197527 12.2261 0.838795C11.2635 1.48006 10.553 2.43524 10.2156 3.54161C9.87824 4.64798 9.93488 5.83709 10.3759 6.90638C10.8169 7.97567 11.615 8.85899 12.6342 9.40586C13.6534 9.95273 14.8307 10.1293 15.9655 9.90554C17.1003 9.68177 18.1225 9.07147 18.8578 8.17862C19.5931 7.28577 19.9961 6.1656 19.9982 5.00894C19.9994 4.35189 19.871 3.70105 19.6205 3.09363C19.37 2.48621 19.0022 1.93413 18.5382 1.46894V1.46894ZM11.9982 5.00894C11.9982 4.21329 12.3143 3.45023 12.8769 2.88762C13.4395 2.32501 14.2025 2.00894 14.9982 2.00894C15.4452 2.01159 15.8859 2.11408 16.2882 2.30894L12.2882 6.30894C12.0953 5.90281 11.9962 5.45853 11.9982 5.00894ZM17.1182 7.12894C16.6729 7.55219 16.1113 7.83262 15.5054 7.93419C14.8995 8.03577 14.2771 7.95384 13.7182 7.69894L17.7182 3.69894C17.9091 4.10892 18.0048 4.55675 17.9982 5.00894C17.9975 5.80432 17.681 6.56687 17.1182 7.12894V7.12894Z" fill="var(--fill-0, #1E1F26)"/>
</svg>
