<svg preserveAspectRatio="none" width="100%" height="100%" overflow="visible" style="display: block;" viewBox="0 0 20.4041 10.9803" fill="none" xmlns="http://www.w3.org/2000/svg">
<path id="Vector" d="M13.8841 2.5C13.7594 1.83119 13.4058 1.22661 12.8841 0.79V0.79C12.3305 0.306716 11.6189 0.0434003 10.8841 0.0500002H2.99409C2.55973 0.0433544 2.1291 0.131121 1.73199 0.307232C1.33488 0.483343 0.980747 0.743597 0.694086 1.07V1.07V1.13C0.422818 1.45595 0.223736 1.83571 0.109971 2.24423C-0.00379415 2.65275 -0.0296577 3.08075 0.0340862 3.5L0.914086 8.5C1.03765 9.20255 1.4075 9.83807 1.9573 10.2926C2.50709 10.7471 3.20084 10.9908 3.91409 10.98H11.8541C12.2907 10.979 12.7218 10.8828 13.1173 10.698C13.5128 10.5131 13.8632 10.2442 14.1441 9.91C14.4138 9.57604 14.6088 9.18808 14.7158 8.77232C14.8227 8.35655 14.8392 7.92268 14.7641 7.5L13.8841 2.5ZM10.4741 2L8.13409 4.64C7.96267 4.83281 7.72337 4.9519 7.4662 4.9724C7.20903 4.9929 6.95388 4.91322 6.75409 4.75L3.36409 2H10.4741ZM12.5741 8.64C12.4811 8.75159 12.365 8.8416 12.2338 8.90377C12.1025 8.96594 11.9593 8.99878 11.8141 9H3.87409C3.63585 9.00346 3.40421 8.92175 3.22088 8.76959C3.03754 8.61742 2.91456 8.40479 2.87409 8.17L2.06409 3.5L5.49409 6.3C6.0947 6.78845 6.86089 7.0258 7.63245 6.96243C8.40401 6.89907 9.12121 6.53989 9.63409 5.96L11.9941 3.3L12.7941 7.83C12.8183 7.97289 12.8112 8.11934 12.7732 8.2592C12.7352 8.39906 12.6673 8.52899 12.5741 8.64V8.64ZM19.4041 4H17.4041C17.1389 4 16.8845 4.10536 16.697 4.29289C16.5094 4.48043 16.4041 4.73478 16.4041 5C16.4041 5.26522 16.5094 5.51957 16.697 5.70711C16.8845 5.89464 17.1389 6 17.4041 6H19.4041C19.6693 6 19.9237 5.89464 20.1112 5.70711C20.2987 5.51957 20.4041 5.26522 20.4041 5C20.4041 4.73478 20.2987 4.48043 20.1112 4.29289C19.9237 4.10536 19.6693 4 19.4041 4ZM19.4041 2C19.6693 2 19.9237 1.89464 20.1112 1.70711C20.2987 1.51957 20.4041 1.26522 20.4041 1C20.4041 0.734784 20.2987 0.48043 20.1112 0.292893C19.9237 0.105357 19.6693 0 19.4041 0H16.4041C16.1389 0 15.8845 0.105357 15.697 0.292893C15.5094 0.48043 15.4041 0.734784 15.4041 1C15.4041 1.26522 15.5094 1.51957 15.697 1.70711C15.8845 1.89464 16.1389 2 16.4041 2H19.4041Z" fill="var(--fill-0, #1E1F26)"/>
</svg>
