<svg preserveAspectRatio="none" width="100%" height="100%" overflow="visible" style="display: block;" viewBox="0 0 20 20" fill="none" xmlns="http://www.w3.org/2000/svg">
<path id="Vector" d="M15 0H5C3.67392 0 2.40215 0.526784 1.46447 1.46447C0.526784 2.40215 0 3.67392 0 5V15C0 16.3261 0.526784 17.5979 1.46447 18.5355C2.40215 19.4732 3.67392 20 5 20H15C16.3261 20 17.5979 19.4732 18.5355 18.5355C19.4732 17.5979 20 16.3261 20 15V5C20 3.67392 19.4732 2.40215 18.5355 1.46447C17.5979 0.526784 16.3261 0 15 0V0ZM18 15C18 15.7956 17.6839 16.5587 17.1213 17.1213C16.5587 17.6839 15.7956 18 15 18H5C4.20435 18 3.44129 17.6839 2.87868 17.1213C2.31607 16.5587 2 15.7956 2 15V5C2 4.20435 2.31607 3.44129 2.87868 2.87868C3.44129 2.31607 4.20435 2 5 2H15C15.7956 2 16.5587 2.31607 17.1213 2.87868C17.6839 3.44129 18 4.20435 18 5V15ZM6 13C5.80222 13 5.60888 13.0586 5.44443 13.1685C5.27998 13.2784 5.15181 13.4346 5.07612 13.6173C5.00043 13.8 4.98063 14.0011 5.01921 14.1951C5.0578 14.3891 5.15304 14.5673 5.29289 14.7071C5.43275 14.847 5.61093 14.9422 5.80491 14.9808C5.99889 15.0194 6.19996 14.9996 6.38268 14.9239C6.56541 14.8482 6.72159 14.72 6.83147 14.5556C6.94135 14.3911 7 14.1978 7 14C7 13.7348 6.89464 13.4804 6.70711 13.2929C6.51957 13.1054 6.26522 13 6 13V13ZM10 9C9.80222 9 9.60888 9.05865 9.44443 9.16853C9.27998 9.27841 9.15181 9.43459 9.07612 9.61732C9.00043 9.80004 8.98063 10.0011 9.01921 10.1951C9.0578 10.3891 9.15304 10.5673 9.29289 10.7071C9.43275 10.847 9.61093 10.9422 9.80491 10.9808C9.99889 11.0194 10.2 10.9996 10.3827 10.9239C10.5654 10.8482 10.7216 10.72 10.8315 10.5556C10.9414 10.3911 11 10.1978 11 10C11 9.73478 10.8946 9.48043 10.7071 9.29289C10.5196 9.10536 10.2652 9 10 9ZM6 5C5.80222 5 5.60888 5.05865 5.44443 5.16853C5.27998 5.27841 5.15181 5.43459 5.07612 5.61732C5.00043 5.80004 4.98063 6.00111 5.01921 6.19509C5.0578 6.38907 5.15304 6.56725 5.29289 6.70711C5.43275 6.84696 5.61093 6.9422 5.80491 6.98079C5.99889 7.01937 6.19996 6.99957 6.38268 6.92388C6.56541 6.84819 6.72159 6.72002 6.83147 6.55557C6.94135 6.39112 7 6.19778 7 6C7 5.73478 6.89464 5.48043 6.70711 5.29289C6.51957 5.10536 6.26522 5 6 5V5ZM14 13C13.8022 13 13.6089 13.0586 13.4444 13.1685C13.28 13.2784 13.1518 13.4346 13.0761 13.6173C13.0004 13.8 12.9806 14.0011 13.0192 14.1951C13.0578 14.3891 13.153 14.5673 13.2929 14.7071C13.4327 14.847 13.6109 14.9422 13.8049 14.9808C13.9989 15.0194 14.2 14.9996 14.3827 14.9239C14.5654 14.8482 14.7216 14.72 14.8315 14.5556C14.9414 14.3911 15 14.1978 15 14C15 13.7348 14.8946 13.4804 14.7071 13.2929C14.5196 13.1054 14.2652 13 14 13ZM14 5C13.8022 5 13.6089 5.05865 13.4444 5.16853C13.28 5.27841 13.1518 5.43459 13.0761 5.61732C13.0004 5.80004 12.9806 6.00111 13.0192 6.19509C13.0578 6.38907 13.153 6.56725 13.2929 6.70711C13.4327 6.84696 13.6109 6.9422 13.8049 6.98079C13.9989 7.01937 14.2 6.99957 14.3827 6.92388C14.5654 6.84819 14.7216 6.72002 14.8315 6.55557C14.9414 6.39112 15 6.19778 15 6C15 5.73478 14.8946 5.48043 14.7071 5.29289C14.5196 5.10536 14.2652 5 14 5Z" fill="var(--fill-0, #1E1F26)"/>
</svg>
