<svg preserveAspectRatio="none" width="100%" height="100%" overflow="visible" style="display: block;" viewBox="0 0 21.8016 21.8" fill="none" xmlns="http://www.w3.org/2000/svg">
<path id="Vector" d="M21.5108 5.95002L15.9008 0.290017C15.8074 0.197335 15.6965 0.12401 15.5747 0.0742455C15.4529 0.0244809 15.3224 -0.000744179 15.1908 1.67143e-05C14.9285 0.00112134 14.6771 0.105273 14.4908 0.290017L0.290793 14.44C0.104542 14.6274 0 14.8808 0 15.145C0 15.4092 0.104542 15.6627 0.290793 15.85L5.95079 21.51C6.04423 21.6027 6.15505 21.676 6.27689 21.7258C6.39872 21.7756 6.52919 21.8008 6.66079 21.8C6.92313 21.7989 7.17453 21.6948 7.36079 21.51L10.1908 18.68L18.6808 10.19L21.5108 7.36002C21.697 7.17265 21.8016 6.9192 21.8016 6.65502C21.8016 6.39083 21.697 6.13738 21.5108 5.95002V5.95002ZM17.9708 8.07002L17.2608 7.36002C17.0734 7.17377 16.82 7.06922 16.5558 7.06922C16.2916 7.06922 16.0382 7.17377 15.8508 7.36002C15.7571 7.45298 15.6827 7.56358 15.6319 7.68544C15.5811 7.8073 15.555 7.938 15.555 8.07002C15.555 8.20203 15.5811 8.33273 15.6319 8.45459C15.6827 8.57645 15.7571 8.68705 15.8508 8.78002L16.5608 9.49002L15.1408 10.9L13.0208 8.78002C12.8295 8.61619 12.5834 8.53058 12.3317 8.54031C12.0801 8.55003 11.8413 8.65436 11.6632 8.83245C11.4851 9.01055 11.3808 9.24929 11.3711 9.50096C11.3614 9.75264 11.447 9.99872 11.6108 10.19L13.7308 12.31L12.3108 13.73L11.6108 13.02C11.4225 12.8317 11.1671 12.7259 10.9008 12.7259C10.6345 12.7259 10.3791 12.8317 10.1908 13.02C10.0025 13.2083 9.8967 13.4637 9.8967 13.73C9.8967 13.9963 10.0025 14.2517 10.1908 14.44L10.9008 15.14L9.49079 16.56L7.36079 14.44C7.17343 14.2538 6.91998 14.1492 6.65579 14.1492C6.39161 14.1492 6.13816 14.2538 5.95079 14.44C5.76454 14.6274 5.66 14.8808 5.66 15.145C5.66 15.4092 5.76454 15.6627 5.95079 15.85L8.07079 17.97L6.66079 19.39L2.41079 15.14L15.1408 2.41002L19.3908 6.66002L17.9708 8.07002Z" fill="var(--fill-0, #1E1F26)"/>
</svg>
