<svg preserveAspectRatio="none" width="100%" height="100%" overflow="visible" style="display: block;" viewBox="0 0 20 18" fill="none" xmlns="http://www.w3.org/2000/svg">
<path id="Vector" d="M19 0H15C14.7348 0 14.4804 0.105357 14.2929 0.292893C14.1054 0.48043 14 0.734784 14 1C14 1.26522 14.1054 1.51957 14.2929 1.70711C14.4804 1.89464 14.7348 2 15 2H19C19.2652 2 19.5196 1.89464 19.7071 1.70711C19.8946 1.51957 20 1.26522 20 1C20 0.734784 19.8946 0.48043 19.7071 0.292893C19.5196 0.105357 19.2652 0 19 0V0ZM17 4C16.7348 4 16.4804 4.10536 16.2929 4.29289C16.1054 4.48043 16 4.73478 16 5V10.39L14.52 8.91C13.9974 8.39155 13.2911 8.10063 12.555 8.10063C11.8189 8.10063 11.1126 8.39155 10.59 8.91L9.89 9.61L7.41 7.12C6.88742 6.60155 6.18113 6.31063 5.445 6.31063C4.70887 6.31063 4.00258 6.60155 3.48 7.12L2 8.61V3C2 2.73478 2.10536 2.48043 2.29289 2.29289C2.48043 2.10536 2.73478 2 3 2H11C11.2652 2 11.5196 1.89464 11.7071 1.70711C11.8946 1.51957 12 1.26522 12 1C12 0.734784 11.8946 0.48043 11.7071 0.292893C11.5196 0.105357 11.2652 0 11 0H3C2.20435 0 1.44129 0.316071 0.87868 0.87868C0.316071 1.44129 0 2.20435 0 3V15C0 15.7956 0.316071 16.5587 0.87868 17.1213C1.44129 17.6839 2.20435 18 3 18H15C15.7956 18 16.5587 17.6839 17.1213 17.1213C17.6839 16.5587 18 15.7956 18 15V5C18 4.73478 17.8946 4.48043 17.7071 4.29289C17.5196 4.10536 17.2652 4 17 4ZM3 16C2.73478 16 2.48043 15.8946 2.29289 15.7071C2.10536 15.5196 2 15.2652 2 15V11.43L4.9 8.54C5.04691 8.4 5.24206 8.32191 5.445 8.32191C5.64794 8.32191 5.84309 8.4 5.99 8.54L9.16 11.71L13.45 16H3ZM16 15C15.9936 15.1936 15.931 15.3812 15.82 15.54L11.31 11L12.01 10.31C12.0817 10.2368 12.1673 10.1787 12.2617 10.139C12.3561 10.0993 12.4576 10.0789 12.56 10.0789C12.6624 10.0789 12.7639 10.0993 12.8583 10.139C12.9527 10.1787 13.0383 10.2368 13.11 10.31L16 13.22V15Z" fill="var(--fill-0, #1E1F26)"/>
</svg>
