<svg preserveAspectRatio="none" width="100%" height="100%" overflow="visible" style="display: block;" viewBox="0 0 19.99 10" fill="none" xmlns="http://www.w3.org/2000/svg">
<path id="Vector" d="M19.915 4.62C19.8674 4.49725 19.7961 4.3851 19.705 4.29L17.205 1.79C17.0167 1.6017 16.7613 1.49591 16.495 1.49591C16.2287 1.49591 15.9733 1.6017 15.785 1.79C15.5967 1.9783 15.4909 2.2337 15.4909 2.5C15.4909 2.7663 15.5967 3.0217 15.785 3.21L16.585 4H13.995C13.7298 4 13.4754 4.10536 13.2879 4.29289C13.1004 4.48043 12.995 4.73478 12.995 5C12.995 5.26522 13.1004 5.51957 13.2879 5.70711C13.4754 5.89464 13.7298 6 13.995 6H16.585L15.785 6.79C15.6913 6.88296 15.6169 6.99356 15.5661 7.11542C15.5154 7.23728 15.4892 7.36799 15.4892 7.5C15.4892 7.63201 15.5154 7.76272 15.5661 7.88458C15.6169 8.00644 15.6913 8.11704 15.785 8.21C15.878 8.30373 15.9886 8.37812 16.1104 8.42889C16.2323 8.47966 16.363 8.5058 16.495 8.5058C16.627 8.5058 16.7577 8.47966 16.8796 8.42889C17.0015 8.37812 17.1121 8.30373 17.205 8.21L19.705 5.71C19.7961 5.6149 19.8674 5.50275 19.915 5.38C20.015 5.13654 20.015 4.86346 19.915 4.62ZM5.99501 4H3.40501L4.20501 3.21C4.39332 3.0217 4.49911 2.7663 4.49911 2.5C4.49911 2.2337 4.39332 1.9783 4.20501 1.79C4.01671 1.6017 3.76132 1.49591 3.49501 1.49591C3.22871 1.49591 2.97332 1.6017 2.78501 1.79L0.285014 4.29C0.193973 4.3851 0.122608 4.49725 0.0750135 4.62C-0.0250045 4.86346 -0.0250045 5.13654 0.0750135 5.38C0.122608 5.50275 0.193973 5.6149 0.285014 5.71L2.78501 8.21C2.87798 8.30373 2.98858 8.37812 3.11044 8.42889C3.2323 8.47966 3.363 8.5058 3.49501 8.5058C3.62703 8.5058 3.75773 8.47966 3.87959 8.42889C4.00145 8.37812 4.11205 8.30373 4.20501 8.21C4.29874 8.11704 4.37314 8.00644 4.4239 7.88458C4.47467 7.76272 4.50081 7.63201 4.50081 7.5C4.50081 7.36799 4.47467 7.23728 4.4239 7.11542C4.37314 6.99356 4.29874 6.88296 4.20501 6.79L3.40501 6H5.99501C6.26023 6 6.51458 5.89464 6.70212 5.70711C6.88966 5.51957 6.99501 5.26522 6.99501 5C6.99501 4.73478 6.88966 4.48043 6.70212 4.29289C6.51458 4.10536 6.26023 4 5.99501 4V4ZM9.99501 0C9.7298 0 9.47544 0.105357 9.28791 0.292893C9.10037 0.48043 8.99501 0.734784 8.99501 1V9C8.99501 9.26522 9.10037 9.51957 9.28791 9.70711C9.47544 9.89464 9.7298 10 9.99501 10C10.2602 10 10.5146 9.89464 10.7021 9.70711C10.8897 9.51957 10.995 9.26522 10.995 9V1C10.995 0.734784 10.8897 0.48043 10.7021 0.292893C10.5146 0.105357 10.2602 0 9.99501 0Z" fill="var(--fill-0, #1E1F26)"/>
</svg>
