<svg preserveAspectRatio="none" width="100%" height="100%" overflow="visible" style="display: block;" viewBox="0 0 19.8 17.1" fill="none" xmlns="http://www.w3.org/2000/svg">
<path id="Vector" d="M12.6 5.56623e-06C13.2321 -6.96396e-05 13.853 0.166264 14.4004 0.482283C14.9478 0.798302 15.4023 1.25287 15.7183 1.80027C16.0343 2.34767 16.2005 2.96862 16.2004 3.60068C16.2003 4.23273 16.0338 4.85362 15.7176 5.40091L19.8 5.40001V7.2H18V16.2C18 16.4387 17.9052 16.6676 17.7364 16.8364C17.5676 17.0052 17.3387 17.1 17.1 17.1H2.7C2.46131 17.1 2.23239 17.0052 2.0636 16.8364C1.89482 16.6676 1.8 16.4387 1.8 16.2V7.2H0V5.40001L4.0824 5.40091C3.63588 4.6277 3.49262 3.71616 3.68044 2.84326C3.86827 1.97037 4.37377 1.19842 5.0988 0.677302C5.82383 0.156189 6.71664 -0.0768997 7.60387 0.0232964C8.49111 0.123492 9.30945 0.549823 9.9 1.21951C10.2371 0.835549 10.6525 0.528102 11.1181 0.317776C11.5838 0.10745 12.089 -0.000894823 12.6 5.56623e-06V5.56623e-06ZM9 7.2H3.6V15.3H9V7.2ZM16.2 7.2H10.8V15.3H16.2V7.2ZM7.2 1.80001C6.73292 1.79792 6.28331 1.97747 5.94616 2.30075C5.60902 2.62402 5.41074 3.06569 5.39321 3.53245C5.37569 3.99921 5.54029 4.45451 5.85224 4.80215C6.1642 5.1498 6.59907 5.36256 7.065 5.39551L7.2 5.40001H9V3.60001C9.00002 3.16986 8.846 2.75393 8.56583 2.42754C8.28567 2.10115 7.89788 1.88587 7.4727 1.82071L7.3341 1.80451L7.2 1.80001ZM12.6 1.80001C12.1459 1.79986 11.7085 1.97137 11.3755 2.28015C11.0425 2.58893 10.8386 3.01217 10.8045 3.46501L10.8 3.60001V5.40001H12.6C13.0541 5.40015 13.4915 5.22864 13.8245 4.91986C14.1575 4.61108 14.3614 4.18785 14.3955 3.73501L14.4 3.60001C14.4 3.12262 14.2104 2.66478 13.8728 2.32721C13.5352 1.98965 13.0774 1.80001 12.6 1.80001V1.80001Z" fill="var(--fill-0, #0A0D14)"/>
</svg>
