<svg preserveAspectRatio="none" width="100%" height="100%" overflow="visible" style="display: block;" viewBox="0 0 18 20" fill="none" xmlns="http://www.w3.org/2000/svg">
<path id="Vector" d="M5 15C5.26522 15 5.51957 14.8946 5.70711 14.7071C5.89464 14.5196 6 14.2652 6 14C6.00491 13.9334 6.00491 13.8666 6 13.8C5.98905 13.7374 5.96883 13.6767 5.94 13.62C5.91811 13.5563 5.88785 13.4957 5.85 13.44L5.73 13.29C5.6349 13.199 5.52275 13.1276 5.4 13.08C5.21307 12.992 5.00346 12.964 4.8 13L4.62 13.06L4.44 13.15C4.38761 13.1869 4.33752 13.227 4.29 13.27L4.17 13.42C4.13215 13.4757 4.10189 13.5363 4.08 13.6C4.05117 13.6567 4.03095 13.7174 4.02 13.78C4.01509 13.8466 4.01509 13.9134 4.02 13.98C4.02 14.2452 4.12536 14.4996 4.31289 14.6871C4.50043 14.8746 4.75478 14.98 5.02 14.98L5 15ZM13 15C13.2652 15 13.5196 14.8946 13.7071 14.7071C13.8946 14.5196 14 14.2652 14 14C14.0049 13.9334 14.0049 13.8666 14 13.8C13.9891 13.7374 13.9688 13.6767 13.94 13.62C13.9181 13.5563 13.8878 13.4957 13.85 13.44L13.73 13.29C13.6328 13.2017 13.5212 13.1306 13.4 13.08C13.1565 12.98 12.8835 12.98 12.64 13.08C12.5188 13.1306 12.4072 13.2017 12.31 13.29L12.19 13.44C12.1522 13.4957 12.1219 13.5563 12.1 13.62C12.0712 13.6767 12.0509 13.7374 12.04 13.8C12.0351 13.8666 12.0351 13.9334 12.04 14C12.0411 14.2623 12.1453 14.5137 12.33 14.7C12.5072 14.8813 12.7467 14.9886 13 15V15ZM10 3H8C7.73478 3 7.48043 3.10536 7.29289 3.29289C7.10536 3.48043 7 3.73478 7 4C7 4.26522 7.10536 4.51957 7.29289 4.70711C7.48043 4.89464 7.73478 5 8 5H10C10.2652 5 10.5196 4.89464 10.7071 4.70711C10.8946 4.51957 11 4.26522 11 4C11 3.73478 10.8946 3.48043 10.7071 3.29289C10.5196 3.10536 10.2652 3 10 3ZM15 0H3C2.20435 0 1.44129 0.316071 0.87868 0.87868C0.316071 1.44129 0 2.20435 0 3V15C0.00173951 15.6189 0.194879 16.2222 0.552938 16.7271C0.910998 17.2319 1.41645 17.6137 2 17.82V19C2 19.2652 2.10536 19.5196 2.29289 19.7071C2.48043 19.8946 2.73478 20 3 20C3.26522 20 3.51957 19.8946 3.70711 19.7071C3.89464 19.5196 4 19.2652 4 19V18H14V19C14 19.2652 14.1054 19.5196 14.2929 19.7071C14.4804 19.8946 14.7348 20 15 20C15.2652 20 15.5196 19.8946 15.7071 19.7071C15.8946 19.5196 16 19.2652 16 19V17.82C16.5835 17.6137 17.089 17.2319 17.4471 16.7271C17.8051 16.2222 17.9983 15.6189 18 15V3C18 2.20435 17.6839 1.44129 17.1213 0.87868C16.5587 0.316071 15.7956 0 15 0ZM16 15C16 15.2652 15.8946 15.5196 15.7071 15.7071C15.5196 15.8946 15.2652 16 15 16H3C2.73478 16 2.48043 15.8946 2.29289 15.7071C2.10536 15.5196 2 15.2652 2 15V12H16V15ZM16 10H2V3C2 2.73478 2.10536 2.48043 2.29289 2.29289C2.48043 2.10536 2.73478 2 3 2H15C15.2652 2 15.5196 2.10536 15.7071 2.29289C15.8946 2.48043 16 2.73478 16 3V10Z" fill="var(--fill-0, #1E1F26)"/>
</svg>
