<svg preserveAspectRatio="none" width="100%" height="100%" overflow="visible" style="display: block;" viewBox="0 0 19.9934 18.0293" fill="none" xmlns="http://www.w3.org/2000/svg">
<path id="Vector" d="M16.4134 4.20671C15.8024 2.80272 14.7479 1.63779 13.4115 0.890438C12.0751 0.143088 10.5305 -0.145456 9.01439 0.0690207C7.49829 0.283498 6.09434 0.989164 5.01767 2.07789C3.941 3.16661 3.25101 4.57833 3.05342 6.09671C2.21564 6.30076 1.46622 6.77008 0.916867 7.43471C0.367514 8.09933 0.0476384 8.92369 0.00491486 9.78491C-0.0378086 10.6461 0.198908 11.4981 0.679783 12.2138C1.16066 12.9296 1.85994 13.4707 2.67342 13.7567C2.77713 13.7887 2.8849 13.8055 2.99342 13.8067C3.25864 13.8491 3.52985 13.7845 3.74739 13.627C3.96493 13.4694 4.11098 13.2319 4.15342 12.9667C4.19585 12.7015 4.13119 12.4303 3.97366 12.2127C3.81613 11.9952 3.57864 11.8491 3.31342 11.8067C2.93633 11.6706 2.60885 11.4243 2.37347 11.0997C2.1381 10.7752 2.00568 10.3874 1.99342 9.98671C1.99342 9.45628 2.20413 8.94757 2.57921 8.5725C2.95428 8.19743 3.46299 7.98671 3.99342 7.98671C4.25864 7.98671 4.51299 7.88135 4.70053 7.69382C4.88806 7.50628 4.99342 7.25193 4.99342 6.98671C4.99597 5.80399 5.41771 4.66046 6.18369 3.75929C6.94967 2.85813 8.01031 2.25766 9.17717 2.06458C10.344 1.87151 11.5415 2.09832 12.557 2.70472C13.5724 3.31112 14.34 4.25785 14.7234 5.37671C14.7806 5.54855 14.8833 5.70164 15.0207 5.81964C15.1581 5.93765 15.3249 6.01613 15.5034 6.04671C16.1048 6.15555 16.6585 6.44544 17.0906 6.8776C17.5227 7.30975 17.8125 7.86355 17.9212 8.46491C18.03 9.06627 17.9525 9.68649 17.6991 10.2426C17.4457 10.7987 17.0286 11.2642 16.5034 11.5767C16.2727 11.7093 16.1041 11.9282 16.0347 12.1851C15.9653 12.442 16.0008 12.716 16.1334 12.9467C16.266 13.1774 16.4849 13.3461 16.7418 13.4154C16.9987 13.4848 17.2727 13.4493 17.5034 13.3167C18.2616 12.8766 18.8908 12.2449 19.3278 11.4849C19.7649 10.7249 19.9944 9.8634 19.9934 8.98671C19.9904 7.91084 19.6404 6.86465 18.9954 6.00352C18.3505 5.14239 17.445 4.51225 16.4134 4.20671V4.20671ZM12.7834 8.64671C12.4044 8.72917 12.0121 8.7299 11.6328 8.64886C11.2534 8.56781 10.8957 8.40686 10.5834 8.17671C10.4122 8.05156 10.2055 7.98411 9.99342 7.98411C9.7813 7.98411 9.57468 8.05156 9.40342 8.17671C9.09146 8.40744 8.73374 8.56875 8.35429 8.64981C7.97483 8.73088 7.58243 8.72982 7.20342 8.64671C7.05736 8.61517 6.90608 8.61676 6.76072 8.65137C6.61536 8.68598 6.47959 8.75273 6.36342 8.84671C6.24871 8.93976 6.15603 9.05708 6.09206 9.19021C6.02808 9.32335 5.9944 9.46901 5.99342 9.61671V12.9867C5.99264 13.7038 6.15844 14.4113 6.47775 15.0534C6.79705 15.6955 7.26114 16.2546 7.83342 16.6867L9.40342 17.8367C9.57468 17.9619 9.7813 18.0293 9.99342 18.0293C10.2055 18.0293 10.4122 17.9619 10.5834 17.8367L12.1534 16.6767C12.7261 16.2472 13.1906 15.69 13.51 15.0494C13.8295 14.4088 13.995 13.7025 13.9934 12.9867V9.61671C13.9924 9.46901 13.9588 9.32335 13.8948 9.19021C13.8308 9.05708 13.7381 8.93976 13.6234 8.84671C13.5072 8.75273 13.3715 8.68598 13.2261 8.65137C13.0808 8.61676 12.9295 8.61517 12.7834 8.64671V8.64671ZM11.9934 12.9867C11.9846 13.3732 11.8904 13.753 11.7175 14.0988C11.5446 14.4445 11.2973 14.7478 10.9934 14.9867L9.99342 15.7067L8.99342 14.9867C8.6895 14.7478 8.44223 14.4445 8.26934 14.0988C8.09645 13.753 8.00222 13.3732 7.99342 12.9867V10.7067C8.69283 10.6753 9.37628 10.4873 9.99342 10.1567C10.6106 10.4873 11.294 10.6753 11.9934 10.7067V12.9867Z" fill="var(--fill-0, #1E1F26)"/>
</svg>
