<svg preserveAspectRatio="none" width="100%" height="100%" overflow="visible" style="display: block;" viewBox="0 0 20 19" fill="none" xmlns="http://www.w3.org/2000/svg">
<path id="Vector" d="M10.92 13.62C10.8981 13.5563 10.8678 13.4958 10.83 13.44C10.7931 13.3876 10.753 13.3375 10.71 13.29L10.56 13.17L10.38 13.08C10.3205 13.0496 10.2562 13.0293 10.19 13.02C10.0293 12.9879 9.86325 12.9957 9.70631 13.0427C9.54938 13.0898 9.40642 13.1747 9.29 13.29L9.17 13.44C9.13215 13.4958 9.10189 13.5563 9.08 13.62C9.05117 13.6767 9.03095 13.7374 9.02 13.8C9.01509 13.8666 9.01509 13.9334 9.02 14C9.02158 14.1307 9.04876 14.2598 9.1 14.38C9.15064 14.5012 9.22167 14.6128 9.31 14.71C9.44951 14.8505 9.62756 14.9463 9.8216 14.9855C10.0156 15.0247 10.2169 15.0054 10.4 14.93C10.5195 14.872 10.6305 14.798 10.73 14.71C10.818 14.6105 10.892 14.4995 10.95 14.38C10.991 14.2578 11.008 14.1287 11 14C11.0049 13.9334 11.0049 13.8666 11 13.8C10.9828 13.7363 10.9558 13.6755 10.92 13.62ZM10 8.00002C9.73478 8.00002 9.48043 8.10538 9.29289 8.29292C9.10536 8.48045 9 8.73481 9 9.00002V11C9 11.2652 9.10536 11.5196 9.29289 11.7071C9.48043 11.8947 9.73478 12 10 12C10.2652 12 10.5196 11.8947 10.7071 11.7071C10.8946 11.5196 11 11.2652 11 11V9.00002C11 8.73481 10.8946 8.48045 10.7071 8.29292C10.5196 8.10538 10.2652 8.00002 10 8.00002ZM17 3.00002H10.72L10.4 2.00002C10.1926 1.41325 9.80775 0.905526 9.2989 0.547183C8.79005 0.188841 8.18236 -0.0023769 7.56 2.23036e-05H3C2.20435 2.23036e-05 1.44129 0.316093 0.87868 0.878702C0.316071 1.44131 0 2.20437 0 3.00002V16C0 16.7957 0.316071 17.5587 0.87868 18.1213C1.44129 18.684 2.20435 19 3 19H17C17.7956 19 18.5587 18.684 19.1213 18.1213C19.6839 17.5587 20 16.7957 20 16V6.00002C20 5.20437 19.6839 4.44131 19.1213 3.8787C18.5587 3.31609 17.7956 3.00002 17 3.00002ZM18 16C18 16.2652 17.8946 16.5196 17.7071 16.7071C17.5196 16.8947 17.2652 17 17 17H3C2.73478 17 2.48043 16.8947 2.29289 16.7071C2.10536 16.5196 2 16.2652 2 16V3.00002C2 2.73481 2.10536 2.48045 2.29289 2.29292C2.48043 2.10538 2.73478 2.00002 3 2.00002H7.56C7.76964 1.99948 7.97416 2.06484 8.14463 2.18686C8.3151 2.30889 8.44291 2.4814 8.51 2.68002L9.05 4.32002C9.11709 4.51864 9.2449 4.69116 9.41537 4.81318C9.58584 4.9352 9.79036 5.00056 10 5.00002H17C17.2652 5.00002 17.5196 5.10538 17.7071 5.29292C17.8946 5.48045 18 5.73481 18 6.00002V16Z" fill="var(--fill-0, #1E1F26)"/>
</svg>
