<svg preserveAspectRatio="none" width="100%" height="100%" overflow="visible" style="display: block;" viewBox="0 0 20 19" fill="none" xmlns="http://www.w3.org/2000/svg">
<path id="Vector" d="M16 2H19C19.2652 2 19.5196 1.89464 19.7071 1.70711C19.8946 1.51957 20 1.26522 20 1C20 0.734784 19.8946 0.48043 19.7071 0.292893C19.5196 0.105357 19.2652 0 19 0H16C15.7348 0 15.4804 0.105357 15.2929 0.292893C15.1054 0.48043 15 0.734784 15 1C15 1.26522 15.1054 1.51957 15.2929 1.70711C15.4804 1.89464 15.7348 2 16 2ZM19 4H1C0.734785 4 0.480431 4.10536 0.292895 4.29289C0.105358 4.48043 1.37956e-06 4.73478 1.37956e-06 5V9C1.37956e-06 9.26522 0.105358 9.51957 0.292895 9.70711C0.480431 9.89464 0.734785 10 1 10H2.55L7.66 12.56L5.08 13.85C4.52296 13.3079 3.77727 13.0032 3 13C2.40666 13 1.82664 13.1759 1.33329 13.5056C0.839943 13.8352 0.455426 14.3038 0.228363 14.8519C0.00129986 15.4001 -0.0581102 16.0033 0.0576455 16.5853C0.173401 17.1672 0.459124 17.7018 0.878681 18.1213C1.29824 18.5409 1.83279 18.8266 2.41473 18.9424C2.99667 19.0581 3.59987 18.9987 4.14805 18.7716C4.69623 18.5446 5.16477 18.1601 5.49441 17.6667C5.82405 17.1734 6 16.5933 6 16C6.00984 15.8802 6.00984 15.7598 6 15.64L9.94 13.64L14 15.74C13.9951 15.8266 13.9951 15.9134 14 16C14 16.5933 14.1759 17.1734 14.5056 17.6667C14.8352 18.1601 15.3038 18.5446 15.852 18.7716C16.4001 18.9987 17.0033 19.0581 17.5853 18.9424C18.1672 18.8266 18.7018 18.5409 19.1213 18.1213C19.5409 17.7018 19.8266 17.1672 19.9424 16.5853C20.0581 16.0033 19.9987 15.4001 19.7716 14.8519C19.5446 14.3038 19.1601 13.8352 18.6667 13.5056C18.1734 13.1759 17.5933 13 17 13C16.5983 13.0016 16.201 13.0838 15.8317 13.2419C15.4623 13.3999 15.1285 13.6305 14.85 13.92L12.13 12.56L17.24 10H19C19.2652 10 19.5196 9.89464 19.7071 9.70711C19.8946 9.51957 20 9.26522 20 9V5C20 4.86868 19.9741 4.73864 19.9239 4.61732C19.8736 4.49599 19.8 4.38575 19.7071 4.29289C19.6143 4.20003 19.504 4.12638 19.3827 4.07612C19.2614 4.02587 19.1313 4 19 4ZM3 17C2.80222 17 2.60888 16.9414 2.44443 16.8315C2.27998 16.7216 2.15181 16.5654 2.07612 16.3827C2.00043 16.2 1.98063 15.9989 2.01922 15.8049C2.0578 15.6109 2.15304 15.4327 2.29289 15.2929C2.43275 15.153 2.61093 15.0578 2.80491 15.0192C2.99889 14.9806 3.19996 15.0004 3.38268 15.0761C3.56541 15.1518 3.72159 15.28 3.83147 15.4444C3.94135 15.6089 4 15.8022 4 16C4 16.2652 3.89464 16.5196 3.70711 16.7071C3.51957 16.8946 3.26522 17 3 17ZM17 15C17.1978 15 17.3911 15.0586 17.5556 15.1685C17.72 15.2784 17.8482 15.4346 17.9239 15.6173C17.9996 15.8 18.0194 16.0011 17.9808 16.1951C17.9422 16.3891 17.847 16.5673 17.7071 16.7071C17.5673 16.847 17.3891 16.9422 17.1951 16.9808C17.0011 17.0194 16.8 16.9996 16.6173 16.9239C16.4346 16.8482 16.2784 16.72 16.1685 16.5556C16.0587 16.3911 16 16.1978 16 16C16 15.7348 16.1054 15.4804 16.2929 15.2929C16.4804 15.1054 16.7348 15 17 15ZM9.9 11.44L7 10H12.75L9.9 11.44ZM18 8H2V6H18V8Z" fill="var(--fill-0, #1E1F26)"/>
</svg>
