<svg preserveAspectRatio="none" width="100%" height="100%" overflow="visible" style="display: block;" viewBox="0 0 20 20" fill="none" xmlns="http://www.w3.org/2000/svg">
<path id="Vector" d="M10 0C8.02219 0 6.08879 0.58649 4.4443 1.6853C2.79981 2.78412 1.51809 4.3459 0.761209 6.17317C0.00433283 8.00043 -0.193701 10.0111 0.192152 11.9509C0.578004 13.8907 1.53041 15.6725 2.92894 17.0711C4.32746 18.4696 6.10929 19.422 8.0491 19.8079C9.98891 20.1937 11.9996 19.9957 13.8268 19.2388C15.6541 18.4819 17.2159 17.2002 18.3147 15.5557C19.4135 13.9112 20 11.9778 20 10C20 8.68678 19.7413 7.38642 19.2388 6.17317C18.7363 4.95991 17.9997 3.85752 17.0711 2.92893C16.1425 2.00035 15.0401 1.26375 13.8268 0.761205C12.6136 0.258658 11.3132 0 10 0V0ZM10 18C8.41775 18 6.87104 17.5308 5.55544 16.6518C4.23985 15.7727 3.21447 14.5233 2.60897 13.0615C2.00347 11.5997 1.84504 9.99113 2.15372 8.43928C2.4624 6.88743 3.22433 5.46197 4.34315 4.34315C5.46197 3.22433 6.88743 2.4624 8.43928 2.15372C9.99113 1.84504 11.5997 2.00346 13.0615 2.60896C14.5233 3.21447 15.7727 4.23984 16.6518 5.55544C17.5308 6.87103 18 8.41775 18 10C18 12.1217 17.1572 14.1566 15.6569 15.6569C14.1566 17.1571 12.1217 18 10 18V18ZM10.5 5H7.5C7.23479 5 6.98043 5.10536 6.7929 5.29289C6.60536 5.48043 6.5 5.73478 6.5 6V14C6.5 14.2652 6.60536 14.5196 6.7929 14.7071C6.98043 14.8946 7.23479 15 7.5 15C7.76522 15 8.01957 14.8946 8.20711 14.7071C8.39465 14.5196 8.5 14.2652 8.5 14V12H10.5C10.7652 12 11.0196 12.1054 11.2071 12.2929C11.3946 12.4804 11.5 12.7348 11.5 13V14C11.5 14.2652 11.6054 14.5196 11.7929 14.7071C11.9804 14.8946 12.2348 15 12.5 15C12.7652 15 13.0196 14.8946 13.2071 14.7071C13.3946 14.5196 13.5 14.2652 13.5 14V13C13.4956 12.2599 13.2178 11.5476 12.72 11C13.2178 10.4524 13.4956 9.74005 13.5 9V8C13.5 7.20435 13.1839 6.44129 12.6213 5.87868C12.0587 5.31607 11.2957 5 10.5 5V5ZM11.5 9C11.5 9.26522 11.3946 9.51957 11.2071 9.70711C11.0196 9.89464 10.7652 10 10.5 10H8.5V7H10.5C10.7652 7 11.0196 7.10536 11.2071 7.29289C11.3946 7.48043 11.5 7.73478 11.5 8V9Z" fill="var(--fill-0, #1E1F26)"/>
</svg>
