<svg preserveAspectRatio="none" width="100%" height="100%" overflow="visible" style="display: block;" viewBox="0 0 16.0043 16.0043" fill="none" xmlns="http://www.w3.org/2000/svg">
<path id="Vector" d="M3.76218 6.75778C4.35552 6.75778 4.93554 6.58184 5.42889 6.25219C5.92224 5.92255 6.30675 5.45401 6.53382 4.90583C6.76088 4.35766 6.82029 3.75446 6.70454 3.17251C6.58878 2.59057 6.30306 2.05602 5.8835 1.63646C5.46394 1.21691 4.92939 0.931183 4.34745 0.815428C3.76551 0.699672 3.16231 0.759082 2.61413 0.986145C2.06595 1.21321 1.59741 1.59773 1.26777 2.09107C0.938126 2.58442 0.762179 3.16444 0.762179 3.75778C0.763047 4.55317 1.0794 5.31572 1.64182 5.87814C2.20424 6.44057 2.9668 6.75692 3.76218 6.75778V6.75778ZM3.76218 2.75778C3.95996 2.75778 4.1533 2.81643 4.31775 2.92631C4.4822 3.0362 4.61037 3.19237 4.68606 3.3751C4.76175 3.55783 4.78155 3.75889 4.74296 3.95287C4.70438 4.14686 4.60914 4.32504 4.46929 4.46489C4.32943 4.60474 4.15125 4.69998 3.95727 4.73857C3.76329 4.77715 3.56222 4.75735 3.3795 4.68166C3.19677 4.60598 3.04059 4.4778 2.93071 4.31335C2.82083 4.1489 2.76218 3.95557 2.76218 3.75778C2.76236 3.49262 2.86777 3.23837 3.05527 3.05087C3.24277 2.86337 3.49702 2.75796 3.76218 2.75778V2.75778ZM12.2466 9.24216C11.6532 9.24216 11.0732 9.41811 10.5798 9.74776C10.0865 10.0774 9.70198 10.5459 9.47492 11.0941C9.24786 11.6423 9.18845 12.2455 9.3042 12.8274C9.41996 13.4094 9.70568 13.9439 10.1252 14.3635C10.5448 14.783 11.0793 15.0688 11.6613 15.1845C12.2432 15.3003 12.8464 15.2409 13.3946 15.0138C13.9428 14.7867 14.4113 14.4022 14.741 13.9089C15.0706 13.4155 15.2466 12.8355 15.2466 12.2422C15.2457 11.4468 14.9293 10.6842 14.3669 10.1218C13.8045 9.55938 13.0419 9.24303 12.2466 9.24216V9.24216ZM12.2466 13.2422C12.0488 13.2422 11.8554 13.1835 11.691 13.0736C11.5265 12.9638 11.3984 12.8076 11.3227 12.6248C11.247 12.4421 11.2272 12.2411 11.2658 12.0471C11.3044 11.8531 11.3996 11.6749 11.5395 11.5351C11.6793 11.3952 11.8575 11.3 12.0515 11.2614C12.2454 11.2228 12.4465 11.2426 12.6292 11.3183C12.812 11.394 12.9681 11.5221 13.078 11.6866C13.1879 11.851 13.2466 12.0444 13.2466 12.2422C13.2464 12.5073 13.141 12.7616 12.9535 12.9491C12.766 13.1366 12.5117 13.242 12.2466 13.2422V13.2422ZM15.7114 0.292974C15.6185 0.200093 15.5083 0.126413 15.387 0.0761433C15.2657 0.0258737 15.1357 0 15.0043 0C14.873 0 14.743 0.0258737 14.6217 0.0761433C14.5004 0.126413 14.3901 0.200093 14.2973 0.292974L0.297309 14.293C0.203504 14.3856 0.128944 14.4959 0.0779203 14.6174C0.0268968 14.739 0.000416903 14.8695 4.8834e-06 15.0013C-0.000407136 15.1331 0.0252567 15.2638 0.0755194 15.3856C0.125782 15.5075 0.199651 15.6182 0.292876 15.7115C0.386101 15.8047 0.49684 15.8786 0.618722 15.9288C0.740604 15.9791 0.871221 16.0047 1.00306 16.0043C1.13489 16.0039 1.26535 15.9774 1.38691 15.9264C1.50847 15.8753 1.61874 15.8008 1.71137 15.707L15.7114 1.70697C15.8042 1.61414 15.8779 1.50393 15.9282 1.38262C15.9784 1.26131 16.0043 1.13128 16.0043 0.999974C16.0043 0.868663 15.9784 0.738639 15.9282 0.61733C15.8779 0.496021 15.8042 0.385803 15.7114 0.292974V0.292974Z" fill="var(--fill-0, #1E1F26)"/>
</svg>
