<svg preserveAspectRatio="none" width="100%" height="100%" overflow="visible" style="display: block;" viewBox="0 0 20 10" fill="none" xmlns="http://www.w3.org/2000/svg">
<path id="Vector" d="M15 0H2C1.46957 0 0.960859 0.210714 0.585786 0.585786C0.210714 0.960859 0 1.46957 0 2V8C0 8.53043 0.210714 9.03914 0.585786 9.41421C0.960859 9.78929 1.46957 10 2 10H15C15.5304 10 16.0391 9.78929 16.4142 9.41421C16.7893 9.03914 17 8.53043 17 8V2C17 1.46957 16.7893 0.960859 16.4142 0.585786C16.0391 0.210714 15.5304 0 15 0V0ZM15 8H2V2H15V8ZM19 3C18.7348 3 18.4804 3.10536 18.2929 3.29289C18.1054 3.48043 18 3.73478 18 4V6C18 6.26522 18.1054 6.51957 18.2929 6.70711C18.4804 6.89464 18.7348 7 19 7C19.2652 7 19.5196 6.89464 19.7071 6.70711C19.8946 6.51957 20 6.26522 20 6V4C20 3.73478 19.8946 3.48043 19.7071 3.29289C19.5196 3.10536 19.2652 3 19 3Z" fill="var(--fill-0, #1E1F26)"/>
</svg>
