<svg preserveAspectRatio="none" width="100%" height="100%" overflow="visible" style="display: block;" viewBox="0 0 21.016 19.99" fill="none" xmlns="http://www.w3.org/2000/svg">
<path id="Vector" d="M20.71 8.27999L18.98 6.55999C19.3991 5.8802 19.6239 5.09856 19.63 4.29999C19.628 3.44841 19.3738 2.6165 18.8995 1.90925C18.4251 1.20201 17.7519 0.651142 16.9648 0.326168C16.1776 0.00119471 15.3118 -0.0833146 14.4767 0.0833064C13.6416 0.249927 12.8745 0.66021 12.2724 1.26237C11.6702 1.86453 11.2599 2.63158 11.0933 3.46671C10.9267 4.30183 11.0112 5.1676 11.3362 5.95474C11.6612 6.74188 12.212 7.41511 12.9193 7.88946C13.6265 8.36381 14.4584 8.61801 15.31 8.61999C16.1067 8.61992 16.8882 8.40207 17.57 7.98999L19.29 9.71999C19.383 9.81372 19.4936 9.88811 19.6154 9.93888C19.7373 9.98965 19.868 10.0158 20 10.0158C20.132 10.0158 20.2627 9.98965 20.3846 9.93888C20.5064 9.88811 20.617 9.81372 20.71 9.71999C20.8068 9.62671 20.8838 9.51487 20.9363 9.39116C20.9889 9.26745 21.016 9.13441 21.016 8.99999C21.016 8.86557 20.9889 8.73253 20.9363 8.60882C20.8838 8.48511 20.8068 8.37327 20.71 8.27999V8.27999ZM16.95 5.98999C16.5093 6.40999 15.9238 6.64428 15.315 6.64428C14.7062 6.64428 14.1207 6.40999 13.68 5.98999C13.4636 5.77532 13.2921 5.51979 13.1754 5.23825C13.0586 4.95671 12.999 4.65477 13 4.34999C12.9947 4.04281 13.0505 3.73764 13.1641 3.45219C13.2776 3.16674 13.4468 2.90669 13.6617 2.68714C13.8766 2.46759 14.133 2.2929 14.4159 2.17323C14.6989 2.05355 15.0028 1.99127 15.31 1.98999C15.6148 1.98902 15.9167 2.04864 16.1983 2.16537C16.4798 2.28211 16.7353 2.45364 16.95 2.66999C17.1661 2.88281 17.3375 3.13659 17.4542 3.41647C17.571 3.69636 17.6308 3.99673 17.63 4.29999C17.6377 4.61314 17.5814 4.92457 17.4644 5.21518C17.3475 5.50579 17.1725 5.76945 16.95 5.98999ZM19 11.99C18.7348 11.99 18.4804 12.0953 18.2929 12.2829C18.1054 12.4704 18 12.7248 18 12.99V16.99C18 17.2552 17.8946 17.5096 17.7071 17.6971C17.5196 17.8846 17.2652 17.99 17 17.99H3C2.73478 17.99 2.48043 17.8846 2.29289 17.6971C2.10536 17.5096 2 17.2552 2 16.99V7.39999L7.88 13.29C8.4425 13.8518 9.205 14.1674 10 14.1674C10.795 14.1674 11.5575 13.8518 12.12 13.29L13.5 11.87C13.6883 11.6817 13.7941 11.4263 13.7941 11.16C13.7941 10.8937 13.6883 10.6383 13.5 10.45C13.3117 10.2617 13.0563 10.1559 12.79 10.1559C12.5237 10.1559 12.2683 10.2617 12.08 10.45L10.7 11.87C10.5131 12.0532 10.2618 12.1558 10 12.1558C9.73825 12.1558 9.48693 12.0532 9.3 11.87L3.41 5.98999H8C8.26522 5.98999 8.51957 5.88463 8.70711 5.6971C8.89464 5.50956 9 5.25521 9 4.98999C9 4.72477 8.89464 4.47042 8.70711 4.28288C8.51957 4.09535 8.26522 3.98999 8 3.98999H3C2.20435 3.98999 1.44129 4.30606 0.87868 4.86867C0.316071 5.43128 0 6.19434 0 6.98999V16.99C0 17.7856 0.316071 18.5487 0.87868 19.1113C1.44129 19.6739 2.20435 19.99 3 19.99H17C17.7956 19.99 18.5587 19.6739 19.1213 19.1113C19.6839 18.5487 20 17.7856 20 16.99V12.99C20 12.7248 19.8946 12.4704 19.7071 12.2829C19.5196 12.0953 19.2652 11.99 19 11.99Z" fill="var(--fill-0, #1E1F26)"/>
</svg>
