<svg preserveAspectRatio="none" width="100%" height="100%" overflow="visible" style="display: block;" viewBox="0 0 20 20" fill="none" xmlns="http://www.w3.org/2000/svg">
<path id="Vector" d="M10 0C8.02219 0 6.08879 0.58649 4.4443 1.6853C2.79981 2.78412 1.51809 4.3459 0.761209 6.17317C0.00433283 8.00043 -0.193701 10.0111 0.192152 11.9509C0.578004 13.8907 1.53041 15.6725 2.92894 17.0711C4.32746 18.4696 6.10929 19.422 8.0491 19.8079C9.98891 20.1937 11.9996 19.9957 13.8268 19.2388C15.6541 18.4819 17.2159 17.2002 18.3147 15.5557C19.4135 13.9112 20 11.9778 20 10C20 8.68678 19.7413 7.38642 19.2388 6.17317C18.7363 4.95991 17.9997 3.85752 17.0711 2.92893C16.1425 2.00035 15.0401 1.26375 13.8268 0.761205C12.6136 0.258658 11.3132 0 10 0V0ZM10 18C7.87827 18 5.84344 17.1571 4.34315 15.6569C2.84286 14.1566 2 12.1217 2 10C1.9978 8.22334 2.59302 6.49755 3.69 5.1L6.05 7.47C6.01802 7.64489 6.00129 7.82222 6 8V12C6 12.7956 6.31607 13.5587 6.87868 14.1213C7.44129 14.6839 8.20436 15 9 15H11C11.6906 14.9944 12.3582 14.7507 12.89 14.31L14.89 16.31C13.4952 17.4049 11.7732 18 10 18V18ZM8 12V9.41L11.46 12.87C11.321 12.9536 11.1622 12.9984 11 13H9C8.73479 13 8.48043 12.8946 8.2929 12.7071C8.10536 12.5196 8 12.2652 8 12ZM16.31 14.9L14 12.53C14.0153 12.3537 14.0153 12.1763 14 12C14 11.7348 13.8946 11.4804 13.7071 11.2929C13.5196 11.1054 13.2652 11 13 11C12.8378 11.0016 12.679 11.0464 12.54 11.13L8.54 7.13C8.67901 7.04645 8.83783 7.00157 9 7H11C11.2652 7 11.5196 7.10536 11.7071 7.29289C11.8946 7.48043 12 7.73478 12 8C12 8.26522 12.1054 8.51957 12.2929 8.70711C12.4804 8.89464 12.7348 9 13 9C13.2652 9 13.5196 8.89464 13.7071 8.70711C13.8946 8.51957 14 8.26522 14 8C14 7.20435 13.6839 6.44129 13.1213 5.87868C12.5587 5.31607 11.7957 5 11 5H9C8.30936 5.00558 7.64179 5.2493 7.11 5.69L5.11 3.69C6.50485 2.59513 8.22678 2.00003 10 2C12.1217 2 14.1566 2.84285 15.6569 4.34315C17.1572 5.84344 18 7.87827 18 10C18.0022 11.7767 17.407 13.5025 16.31 14.9V14.9Z" fill="var(--fill-0, #1E1F26)"/>
</svg>
