<svg preserveAspectRatio="none" width="100%" height="100%" overflow="visible" style="display: block;" viewBox="0 0 12 20" fill="none" xmlns="http://www.w3.org/2000/svg">
<path id="Vector" d="M11 4.78V1C11 0.734784 10.8946 0.48043 10.7071 0.292893C10.5196 0.105357 10.2652 0 10 0H2C1.73478 0 1.48043 0.105357 1.29289 0.292893C1.10536 0.48043 1 0.734784 1 1V4.78C0.687403 5.05958 0.436898 5.40161 0.264654 5.78399C0.0924092 6.16637 0.00225164 6.58062 0 7V13C0.00225164 13.4194 0.0924092 13.8336 0.264654 14.216C0.436898 14.5984 0.687403 14.9404 1 15.22V19C1 19.2652 1.10536 19.5196 1.29289 19.7071C1.48043 19.8946 1.73478 20 2 20H10C10.2652 20 10.5196 19.8946 10.7071 19.7071C10.8946 19.5196 11 19.2652 11 19V15.22C11.3126 14.9404 11.5631 14.5984 11.7353 14.216C11.9076 13.8336 11.9977 13.4194 12 13V7C11.9977 6.58062 11.9076 6.16637 11.7353 5.78399C11.5631 5.40161 11.3126 5.05958 11 4.78V4.78ZM3 2H9V4H3V2ZM9 18H3V16H9V18ZM10 13C10 13.2652 9.89464 13.5196 9.70711 13.7071C9.51957 13.8946 9.26522 14 9 14H3C2.73478 14 2.48043 13.8946 2.29289 13.7071C2.10536 13.5196 2 13.2652 2 13V7C2 6.73478 2.10536 6.48043 2.29289 6.29289C2.48043 6.10536 2.73478 6 3 6H9C9.26522 6 9.51957 6.10536 9.70711 6.29289C9.89464 6.48043 10 6.73478 10 7V13Z" fill="var(--fill-0, #1E1F26)"/>
</svg>
