<svg preserveAspectRatio="none" width="100%" height="100%" overflow="visible" style="display: block;" viewBox="0 0 23 23" fill="none" xmlns="http://www.w3.org/2000/svg">
<path id="Vector" d="M22 5C22.2652 5 22.5196 4.89464 22.7071 4.70711C22.8946 4.51957 23 4.26522 23 4V1C23 0.734784 22.8946 0.48043 22.7071 0.292893C22.5196 0.105357 22.2652 0 22 0H19C18.7348 0 18.4804 0.105357 18.2929 0.292893C18.1054 0.48043 18 0.734784 18 1C18 1.13261 17.9473 1.25979 17.8536 1.35355C17.7598 1.44732 17.6326 1.5 17.5 1.5C17.3674 1.5 17.2402 1.44732 17.1464 1.35355C17.0527 1.25979 17 1.13261 17 1C17 0.734784 16.8946 0.48043 16.7071 0.292893C16.5196 0.105357 16.2652 0 16 0H13C12.7348 0 12.4804 0.105357 12.2929 0.292893C12.1054 0.48043 12 0.734784 12 1C12 1.13261 11.9473 1.25979 11.8536 1.35355C11.7598 1.44732 11.6326 1.5 11.5 1.5C11.3674 1.5 11.2402 1.44732 11.1464 1.35355C11.0527 1.25979 11 1.13261 11 1C11 0.734784 10.8946 0.48043 10.7071 0.292893C10.5196 0.105357 10.2652 0 10 0H7C6.73478 0 6.48043 0.105357 6.29289 0.292893C6.10536 0.48043 6 0.734784 6 1C6 1.13261 5.94732 1.25979 5.85355 1.35355C5.75979 1.44732 5.63261 1.5 5.5 1.5C5.36739 1.5 5.24021 1.44732 5.14645 1.35355C5.05268 1.25979 5 1.13261 5 1C5 0.734784 4.89464 0.48043 4.70711 0.292893C4.51957 0.105357 4.26522 0 4 0H1C0.734784 0 0.48043 0.105357 0.292893 0.292893C0.105357 0.48043 0 0.734784 0 1V4C0 4.26522 0.105357 4.51957 0.292893 4.70711C0.48043 4.89464 0.734784 5 1 5C1.13261 5 1.25979 5.05268 1.35355 5.14645C1.44732 5.24021 1.5 5.36739 1.5 5.5C1.5 5.63261 1.44732 5.75979 1.35355 5.85355C1.25979 5.94732 1.13261 6 1 6C0.734784 6 0.48043 6.10536 0.292893 6.29289C0.105357 6.48043 0 6.73478 0 7V10C0 10.2652 0.105357 10.5196 0.292893 10.7071C0.48043 10.8946 0.734784 11 1 11C1.13261 11 1.25979 11.0527 1.35355 11.1464C1.44732 11.2402 1.5 11.3674 1.5 11.5C1.5 11.6326 1.44732 11.7598 1.35355 11.8536C1.25979 11.9473 1.13261 12 1 12C0.734784 12 0.48043 12.1054 0.292893 12.2929C0.105357 12.4804 0 12.7348 0 13V16C0 16.2652 0.105357 16.5196 0.292893 16.7071C0.48043 16.8946 0.734784 17 1 17C1.13261 17 1.25979 17.0527 1.35355 17.1464C1.44732 17.2402 1.5 17.3674 1.5 17.5C1.5 17.6326 1.44732 17.7598 1.35355 17.8536C1.25979 17.9473 1.13261 18 1 18C0.734784 18 0.48043 18.1054 0.292893 18.2929C0.105357 18.4804 0 18.7348 0 19V22C0 22.2652 0.105357 22.5196 0.292893 22.7071C0.48043 22.8946 0.734784 23 1 23H4C4.26522 23 4.51957 22.8946 4.70711 22.7071C4.89464 22.5196 5 22.2652 5 22C5 21.8674 5.05268 21.7402 5.14645 21.6464C5.24021 21.5527 5.36739 21.5 5.5 21.5C5.63261 21.5 5.75979 21.5527 5.85355 21.6464C5.94732 21.7402 6 21.8674 6 22C6 22.2652 6.10536 22.5196 6.29289 22.7071C6.48043 22.8946 6.73478 23 7 23H10C10.2652 23 10.5196 22.8946 10.7071 22.7071C10.8946 22.5196 11 22.2652 11 22C11 21.8674 11.0527 21.7402 11.1464 21.6464C11.2402 21.5527 11.3674 21.5 11.5 21.5C11.6326 21.5 11.7598 21.5527 11.8536 21.6464C11.9473 21.7402 12 21.8674 12 22C12 22.2652 12.1054 22.5196 12.2929 22.7071C12.4804 22.8946 12.7348 23 13 23H16C16.2652 23 16.5196 22.8946 16.7071 22.7071C16.8946 22.5196 17 22.2652 17 22C17 21.8674 17.0527 21.7402 17.1464 21.6464C17.2402 21.5527 17.3674 21.5 17.5 21.5C17.6326 21.5 17.7598 21.5527 17.8536 21.6464C17.9473 21.7402 18 21.8674 18 22C18 22.2652 18.1054 22.5196 18.2929 22.7071C18.4804 22.8946 18.7348 23 19 23H22C22.2652 23 22.5196 22.8946 22.7071 22.7071C22.8946 22.5196 23 22.2652 23 22V19C23 18.7348 22.8946 18.4804 22.7071 18.2929C22.5196 18.1054 22.2652 18 22 18C21.8674 18 21.7402 17.9473 21.6464 17.8536C21.5527 17.7598 21.5 17.6326 21.5 17.5C21.5 17.3674 21.5527 17.2402 21.6464 17.1464C21.7402 17.0527 21.8674 17 22 17C22.2652 17 22.5196 16.8946 22.7071 16.7071C22.8946 16.5196 23 16.2652 23 16V13C23 12.7348 22.8946 12.4804 22.7071 12.2929C22.5196 12.1054 22.2652 12 22 12C21.8674 12 21.7402 11.9473 21.6464 11.8536C21.5527 11.7598 21.5 11.6326 21.5 11.5C21.5 11.3674 21.5527 11.2402 21.6464 11.1464C21.7402 11.0527 21.8674 11 22 11C22.2652 11 22.5196 10.8946 22.7071 10.7071C22.8946 10.5196 23 10.2652 23 10V7C23 6.73478 22.8946 6.48043 22.7071 6.29289C22.5196 6.10536 22.2652 6 22 6C21.8674 6 21.7402 5.94732 21.6464 5.85355C21.5527 5.75979 21.5 5.63261 21.5 5.5C21.5 5.36739 21.5527 5.24021 21.6464 5.14645C21.7402 5.05268 21.8674 5 22 5ZM21 3.21C20.5549 3.40493 20.1763 3.72534 19.9104 4.13204C19.6445 4.53874 19.5029 5.0141 19.5029 5.5C19.5029 5.9859 19.6445 6.46126 19.9104 6.86796C20.1763 7.27466 20.5549 7.59507 21 7.79V9.21C20.5549 9.40493 20.1763 9.72534 19.9104 10.132C19.6445 10.5387 19.5029 11.0141 19.5029 11.5C19.5029 11.9859 19.6445 12.4613 19.9104 12.868C20.1763 13.2747 20.5549 13.5951 21 13.79V15.21C20.5549 15.4049 20.1763 15.7253 19.9104 16.132C19.6445 16.5387 19.5029 17.0141 19.5029 17.5C19.5029 17.9859 19.6445 18.4613 19.9104 18.868C20.1763 19.2747 20.5549 19.5951 21 19.79V21H19.79C19.5951 20.5549 19.2747 20.1763 18.868 19.9104C18.4613 19.6445 17.9859 19.5029 17.5 19.5029C17.0141 19.5029 16.5387 19.6445 16.132 19.9104C15.7253 20.1763 15.4049 20.5549 15.21 21H13.79C13.5951 20.5549 13.2747 20.1763 12.868 19.9104C12.4613 19.6445 11.9859 19.5029 11.5 19.5029C11.0141 19.5029 10.5387 19.6445 10.132 19.9104C9.72534 20.1763 9.40493 20.5549 9.21 21H7.79C7.59507 20.5549 7.27466 20.1763 6.86796 19.9104C6.46126 19.6445 5.9859 19.5029 5.5 19.5029C5.0141 19.5029 4.53874 19.6445 4.13204 19.9104C3.72534 20.1763 3.40493 20.5549 3.21 21H2V19.79C2.44508 19.5951 2.82371 19.2747 3.08958 18.868C3.35546 18.4613 3.49705 17.9859 3.49705 17.5C3.49705 17.0141 3.35546 16.5387 3.08958 16.132C2.82371 15.7253 2.44508 15.4049 2 15.21V13.79C2.44508 13.5951 2.82371 13.2747 3.08958 12.868C3.35546 12.4613 3.49705 11.9859 3.49705 11.5C3.49705 11.0141 3.35546 10.5387 3.08958 10.132C2.82371 9.72534 2.44508 9.40493 2 9.21V7.79C2.44508 7.59507 2.82371 7.27466 3.08958 6.86796C3.35546 6.46126 3.49705 5.9859 3.49705 5.5C3.49705 5.0141 3.35546 4.53874 3.08958 4.13204C2.82371 3.72534 2.44508 3.40493 2 3.21V2H3.21C3.40493 2.44508 3.72534 2.82371 4.13204 3.08958C4.53874 3.35546 5.0141 3.49705 5.5 3.49705C5.9859 3.49705 6.46126 3.35546 6.86796 3.08958C7.27466 2.82371 7.59507 2.44508 7.79 2H9.21C9.40493 2.44508 9.72534 2.82371 10.132 3.08958C10.5387 3.35546 11.0141 3.49705 11.5 3.49705C11.9859 3.49705 12.4613 3.35546 12.868 3.08958C13.2747 2.82371 13.5951 2.44508 13.79 2H15.21C15.4049 2.44508 15.7253 2.82371 16.132 3.08958C16.5387 3.35546 17.0141 3.49705 17.5 3.49705C17.9859 3.49705 18.4613 3.35546 18.868 3.08958C19.2747 2.82371 19.5951 2.44508 19.79 2H21V3.21ZM11.5 4.5C9.64348 4.5 7.86301 5.2375 6.55025 6.55025C5.2375 7.86301 4.5 9.64348 4.5 11.5C4.5 13.3565 5.2375 15.137 6.55025 16.4497C7.86301 17.7625 9.64348 18.5 11.5 18.5C12.7294 18.5027 13.9374 18.1782 15 17.56C15.1195 17.4975 15.2251 17.4114 15.3105 17.307C15.3959 17.2027 15.4593 17.0821 15.4969 16.9525C15.5345 16.823 15.5454 16.6872 15.5292 16.5533C15.5129 16.4194 15.4697 16.2902 15.4022 16.1735C15.3348 16.0567 15.2443 15.9548 15.1364 15.8739C15.0285 15.793 14.9054 15.7347 14.7744 15.7026C14.6434 15.6705 14.5073 15.6653 14.3742 15.6872C14.2411 15.7091 14.1138 15.7576 14 15.83C13.0468 16.3803 11.9386 16.6008 10.8474 16.4571C9.75609 16.3134 8.74273 15.8137 7.96444 15.0354C7.18615 14.2571 6.68643 13.2437 6.54277 12.1525C6.39911 11.0612 6.61955 9.95302 7.1699 8.99982C7.72026 8.04661 8.56976 7.30164 9.58666 6.88045C10.6036 6.45925 11.731 6.38537 12.7942 6.67027C13.8574 6.95516 14.7968 7.58291 15.4668 8.45615C16.1369 9.32939 16.5 10.3993 16.5 11.5V12C16.5 12.109 16.4785 12.2169 16.4368 12.3176C16.3951 12.4183 16.334 12.5098 16.2569 12.5869C16.1798 12.664 16.0883 12.7251 15.9876 12.7668C15.8869 12.8085 15.779 12.83 15.67 12.83C15.4489 12.83 15.2368 12.7429 15.0795 12.5875C14.9223 12.4321 14.8326 12.221 14.83 12V9.17C14.8248 8.96509 14.7568 8.76673 14.6351 8.60177C14.5134 8.43682 14.344 8.31324 14.1497 8.24776C13.9555 8.18229 13.7458 8.17809 13.5491 8.23573C13.3524 8.29336 13.1782 8.41005 13.05 8.57C12.5748 8.30952 12.0419 8.17202 11.5 8.17C10.6168 8.17 9.76983 8.52084 9.14533 9.14533C8.52084 9.76983 8.17 10.6168 8.17 11.5C8.17 12.3832 8.52084 13.2302 9.14533 13.8547C9.76983 14.4792 10.6168 14.83 11.5 14.83C12.2991 14.8301 13.0707 14.5385 13.67 14.01C14.0676 14.4005 14.5713 14.6655 15.1184 14.7718C15.6655 14.8781 16.2317 14.8211 16.7466 14.6079C17.2616 14.3946 17.7024 14.0346 18.0141 13.5727C18.3259 13.1108 18.4949 12.5673 18.5 12.01V11.5C18.5 9.64348 17.7625 7.86301 16.4497 6.55025C15.137 5.2375 13.3565 4.5 11.5 4.5V4.5ZM11.5 12.83C11.237 12.83 10.9798 12.752 10.7611 12.6059C10.5424 12.4597 10.3719 12.252 10.2712 12.009C10.1706 11.7659 10.1442 11.4985 10.1956 11.2405C10.2469 10.9825 10.3735 10.7456 10.5595 10.5595C10.7456 10.3735 10.9825 10.2469 11.2405 10.1956C11.4985 10.1442 11.7659 10.1706 12.009 10.2712C12.252 10.3719 12.4597 10.5424 12.6059 10.7611C12.752 10.9798 12.83 11.237 12.83 11.5C12.8313 11.675 12.7978 11.8486 12.7315 12.0105C12.6651 12.1725 12.5672 12.3197 12.4434 12.4434C12.3197 12.5672 12.1725 12.6651 12.0105 12.7315C11.8486 12.7978 11.675 12.8313 11.5 12.83V12.83Z" fill="var(--fill-0, #1E1F26)"/>
</svg>
