<svg preserveAspectRatio="none" width="100%" height="100%" overflow="visible" style="display: block;" viewBox="0 0 20.0077 20.0127" fill="none" xmlns="http://www.w3.org/2000/svg">
<path id="Vector" d="M1.00009 6.11272C1.2653 6.11272 1.51966 6.00737 1.70719 5.81983C1.89473 5.63229 2.00009 5.37794 2.00009 5.11272V4.92272C2.00009 4.65751 1.89473 4.40315 1.70719 4.21562C1.51966 4.02808 1.2653 3.92272 1.00009 3.92272C0.73487 3.92272 0.480516 4.02808 0.29298 4.21562C0.105443 4.40315 8.63805e-05 4.65751 8.63805e-05 4.92272V5.11272C8.63805e-05 5.37794 0.105443 5.63229 0.29298 5.81983C0.480516 6.00737 0.73487 6.11272 1.00009 6.11272ZM1.00009 2.11272C1.1457 2.11037 1.28904 2.07624 1.42009 2.01272C1.6853 1.97029 1.9228 1.82424 2.08033 1.60669C2.23786 1.38915 2.30252 1.11794 2.26009 0.852723C2.21765 0.587507 2.0716 0.35001 1.85406 0.19248C1.63651 0.034949 1.3653 -0.0297112 1.10009 0.0127234H1.00009C0.725138 0.0354813 0.469048 0.161654 0.283465 0.365795C0.0978827 0.569936 -0.00338496 0.836857 8.63805e-05 1.11272C0.012925 1.36918 0.123923 1.61087 0.310086 1.78772C0.496249 1.96458 0.74331 2.06304 1.00009 2.06272V2.11272ZM18.3901 1.92272C18.5459 2.04511 18.7346 2.11844 18.9322 2.13342C19.1297 2.1484 19.3273 2.10434 19.4998 2.00684C19.6723 1.90935 19.8119 1.7628 19.901 1.58581C19.9901 1.40881 20.0246 1.20935 20.0001 1.01272C20.0001 0.747507 19.8947 0.493153 19.7072 0.305617C19.5197 0.11808 19.2653 0.0127234 19.0001 0.0127234H18.9001C18.681 0.0127878 18.468 0.0847999 18.2938 0.217692C18.1196 0.350584 17.9939 0.537001 17.936 0.74829C17.878 0.959579 17.8911 1.18405 17.9731 1.38719C18.0552 1.59034 18.2017 1.76092 18.3901 1.87272V1.92272ZM9.89009 2.01272H10.1101C10.3753 2.01272 10.6297 1.90737 10.8172 1.71983C11.0047 1.53229 11.1101 1.27794 11.1101 1.01272C11.1101 0.747507 11.0047 0.493153 10.8172 0.305617C10.6297 0.11808 10.3753 0.0127234 10.1101 0.0127234H9.89009C9.62487 0.0127234 9.37052 0.11808 9.18298 0.305617C8.99544 0.493153 8.89009 0.747507 8.89009 1.01272C8.89009 1.27794 8.99544 1.53229 9.18298 1.71983C9.37052 1.90737 9.62487 2.01272 9.89009 2.01272V2.01272ZM5.39009 2.01272H5.60009C5.8653 2.01272 6.11966 1.90737 6.30719 1.71983C6.49473 1.53229 6.60009 1.27794 6.60009 1.01272C6.60009 0.747507 6.49473 0.493153 6.30719 0.305617C6.11966 0.11808 5.8653 0.0127234 5.60009 0.0127234H5.39009C5.12487 0.0127234 4.87052 0.11808 4.68298 0.305617C4.49544 0.493153 4.39009 0.747507 4.39009 1.01272C4.39009 1.27794 4.49544 1.53229 4.68298 1.71983C4.87052 1.90737 5.12487 2.01272 5.39009 2.01272ZM19.0001 18.0127C18.8545 18.0151 18.7111 18.0492 18.5801 18.1127C18.3823 18.2055 18.2202 18.3604 18.1188 18.5539C18.0174 18.7474 17.9821 18.9688 18.0184 19.1843C18.0547 19.3997 18.1605 19.5974 18.3197 19.747C18.479 19.8966 18.6828 19.9899 18.9001 20.0127H19.0001C19.275 19.99 19.5311 19.8638 19.7167 19.6597C19.9023 19.4555 20.0036 19.1886 20.0001 18.9127C19.9752 18.6652 19.859 18.4358 19.6741 18.2694C19.4892 18.103 19.2489 18.0115 19.0001 18.0127ZM12.0001 9.01272C12.0001 8.74751 11.8947 8.49315 11.7072 8.30562C11.5197 8.11808 11.2653 8.01272 11.0001 8.01272H1.27009C1.18044 8.00143 1.08973 8.00143 1.00009 8.01272C0.73487 8.01272 0.480516 8.11808 0.29298 8.30562C0.105443 8.49315 8.63805e-05 8.74751 8.63805e-05 9.01272V19.0127C8.63805e-05 19.2779 0.105443 19.5323 0.29298 19.7198C0.480516 19.9074 0.73487 20.0127 1.00009 20.0127H11.1001C11.2673 20.0115 11.4316 19.9683 11.5779 19.8871C11.7241 19.8059 11.8477 19.6894 11.9372 19.5481C12.0268 19.4068 12.0794 19.2453 12.0904 19.0784C12.1014 18.9115 12.0703 18.7445 12.0001 18.5927V9.01272ZM10.0001 18.0127H3.52009L7.43009 14.1127C7.46079 14.0816 7.49737 14.0569 7.53772 14.04C7.57806 14.0231 7.62135 14.0144 7.66509 14.0144C7.70882 14.0144 7.75211 14.0231 7.79246 14.04C7.8328 14.0569 7.86938 14.0816 7.90009 14.1127L10.0001 16.2027V18.0127ZM10.0001 13.3827L9.32009 12.6927C8.87993 12.2561 8.28507 12.0111 7.66509 12.0111C7.0451 12.0111 6.45024 12.2561 6.01009 12.6927L2.01009 16.6927V10.0127H10.0101L10.0001 13.3827ZM19.0001 13.3827C18.7349 13.3827 18.4805 13.4881 18.293 13.6756C18.1054 13.8632 18.0001 14.1175 18.0001 14.3827V14.5927C18.0001 14.8579 18.1054 15.1123 18.293 15.2998C18.4805 15.4874 18.7349 15.5927 19.0001 15.5927C19.2653 15.5927 19.5197 15.4874 19.7072 15.2998C19.8947 15.1123 20.0001 14.8579 20.0001 14.5927V14.4127C20.0001 14.1475 19.8947 13.8932 19.7072 13.7056C19.5197 13.5181 19.2653 13.4127 19.0001 13.4127V13.3827ZM19.0001 4.38272C18.7349 4.38272 18.4805 4.48808 18.293 4.67562C18.1054 4.86315 18.0001 5.11751 18.0001 5.38272V5.61272C18.0001 5.87794 18.1054 6.13229 18.293 6.31983C18.4805 6.50737 18.7349 6.61272 19.0001 6.61272C19.2653 6.61272 19.5197 6.50737 19.7072 6.31983C19.8947 6.13229 20.0001 5.87794 20.0001 5.61272V5.40272C20.0001 5.13751 19.8947 4.88315 19.7072 4.69562C19.5197 4.50808 19.2653 4.40272 19.0001 4.40272V4.38272ZM19.0001 8.88272C18.7349 8.88272 18.4805 8.98808 18.293 9.17562C18.1054 9.36315 18.0001 9.61751 18.0001 9.88272V10.1027C18.0001 10.3679 18.1054 10.6223 18.293 10.8098C18.4805 10.9974 18.7349 11.1027 19.0001 11.1027C19.2653 11.1027 19.5197 10.9974 19.7072 10.8098C19.8947 10.6223 20.0001 10.3679 20.0001 10.1027V9.88272C19.9949 9.62099 19.8872 9.37174 19.7002 9.18851C19.5132 9.00528 19.2619 8.90267 19.0001 8.90272V8.88272ZM15.1001 18.0127H14.9001C14.6349 18.0127 14.3805 18.1181 14.193 18.3056C14.0054 18.4932 13.9001 18.7475 13.9001 19.0127C13.9001 19.2779 14.0054 19.5323 14.193 19.7198C14.3805 19.9074 14.6349 20.0127 14.9001 20.0127H15.1001C15.3653 20.0127 15.6197 19.9074 15.8072 19.7198C15.9947 19.5323 16.1001 19.2779 16.1001 19.0127C16.1001 18.7475 15.9947 18.4932 15.8072 18.3056C15.6197 18.1181 15.3653 18.0127 15.1001 18.0127ZM14.6101 2.01272C14.8753 2.01272 15.1297 1.90737 15.3172 1.71983C15.5047 1.53229 15.6101 1.27794 15.6101 1.01272C15.6101 0.747507 15.5047 0.493153 15.3172 0.305617C15.1297 0.11808 14.8753 0.0127234 14.6101 0.0127234H14.4001C14.1349 0.0127234 13.8805 0.11808 13.693 0.305617C13.5054 0.493153 13.4001 0.747507 13.4001 1.01272C13.4001 1.27794 13.5054 1.53229 13.693 1.71983C13.8805 1.90737 14.1349 2.01272 14.4001 2.01272H14.6101Z" fill="var(--fill-0, #1E1F26)"/>
</svg>
