<svg preserveAspectRatio="none" width="100%" height="100%" overflow="visible" style="display: block;" viewBox="0 0 20 20" fill="none" xmlns="http://www.w3.org/2000/svg">
<path id="Vector" d="M19.71 5.57L14.44 0.29C14.2484 0.107266 13.9948 0.00368349 13.73 0H6.27C6.00523 0.00368349 5.75163 0.107266 5.56 0.29L0.29 5.57C0.105256 5.75626 0.00110462 6.00766 0 6.27V13.73C0.00110462 13.9923 0.105256 14.2437 0.29 14.43L5.56 19.71C5.75163 19.8927 6.00523 19.9963 6.27 20H13.73C13.9948 19.9963 14.2484 19.8927 14.44 19.71L19.71 14.43C19.8947 14.2437 19.9989 13.9923 20 13.73V6.27C19.9989 6.00766 19.8947 5.75626 19.71 5.57ZM18 13.31L13.31 18H6.69L2 13.31V6.69L6.69 2H13.31L18 6.69V13.31Z" fill="var(--fill-0, #1E1F26)"/>
</svg>
