<svg preserveAspectRatio="none" width="100%" height="100%" overflow="visible" style="display: block;" viewBox="0 0 19.9077 20.0351" fill="none" xmlns="http://www.w3.org/2000/svg">
<path id="Vector" d="M9.90193 5.35933C10.1672 5.35933 10.4215 5.25398 10.609 5.06644C10.7966 4.8789 10.9019 4.62455 10.9019 4.35933V3.80933L16.9019 2.30933V5.24933L12.6019 6.32933C12.3367 6.36116 12.095 6.49704 11.93 6.70708C11.7649 6.91712 11.6901 7.18412 11.7219 7.44933C11.7538 7.71455 11.8896 7.95626 12.0997 8.12129C12.3097 8.28633 12.5767 8.36116 12.8419 8.32933H13.0819L18.1419 7.02933H18.2119L18.4019 6.93933L18.5519 6.83933C18.6005 6.79411 18.6441 6.74383 18.6819 6.68933C18.721 6.64337 18.7545 6.59303 18.7819 6.53933C18.8122 6.48326 18.8325 6.42236 18.8419 6.35933C18.8512 6.29634 18.8512 6.23233 18.8419 6.16933C18.8766 6.13042 18.8977 6.08128 18.9019 6.02933V1.02933C18.9065 0.875139 18.8752 0.721987 18.8107 0.581859C18.7462 0.441731 18.6502 0.318425 18.5301 0.221587C18.41 0.124749 18.2692 0.0570044 18.1186 0.0236522C17.968 -0.00970002 17.8117 -0.00775553 17.6619 0.0293336L9.66193 2.02933C9.44006 2.08408 9.24363 2.21318 9.10535 2.39513C8.96707 2.57708 8.89528 2.8009 8.90193 3.02933V4.35933C8.90193 4.62455 9.00729 4.8789 9.19483 5.06644C9.38236 5.25398 9.63672 5.35933 9.90193 5.35933ZM19.6119 18.3593L10.6119 9.35933L1.61193 0.359334C1.42145 0.211957 1.18418 0.138275 0.943725 0.151828C0.703269 0.165382 0.475781 0.26526 0.303068 0.433108C0.130354 0.600957 0.0240181 0.825499 0.00360139 1.06547C-0.0168153 1.30544 0.0500587 1.54472 0.191934 1.73933L8.90193 10.4393V13.3793C8.4347 13.1511 7.92192 13.0315 7.40193 13.0293C6.7097 13.0293 6.03301 13.2346 5.45744 13.6192C4.88187 14.0038 4.43326 14.5504 4.16836 15.1899C3.90345 15.8295 3.83414 16.5332 3.96919 17.2121C4.10423 17.8911 4.43758 18.5147 4.92706 19.0042C5.41654 19.4937 6.04018 19.827 6.71912 19.9621C7.39805 20.0971 8.10178 20.0278 8.74133 19.7629C9.38087 19.498 9.92749 19.0494 10.3121 18.4738C10.6967 17.8983 10.9019 17.2216 10.9019 16.5293V12.4393L18.1919 19.7393C18.2849 19.8331 18.3955 19.9075 18.5174 19.9582C18.6392 20.009 18.7699 20.0351 18.9019 20.0351C19.0339 20.0351 19.1647 20.009 19.2865 19.9582C19.4084 19.9075 19.519 19.8331 19.6119 19.7393C19.7057 19.6464 19.7801 19.5358 19.8308 19.4139C19.8816 19.2921 19.9077 19.1613 19.9077 19.0293C19.9077 18.8973 19.8816 18.7666 19.8308 18.6448C19.7801 18.5229 19.7057 18.4123 19.6119 18.3193V18.3593ZM7.40193 18.0293C7.10526 18.0293 6.81525 17.9414 6.56858 17.7765C6.32191 17.6117 6.12965 17.3774 6.01611 17.1034C5.90258 16.8293 5.87288 16.5277 5.93076 16.2367C5.98863 15.9457 6.1315 15.6785 6.34127 15.4687C6.55105 15.2589 6.81833 15.116 7.1093 15.0582C7.40027 15.0003 7.70187 15.03 7.97596 15.1435C8.25005 15.257 8.48432 15.4493 8.64914 15.696C8.81396 15.9427 8.90193 16.2327 8.90193 16.5293C8.90193 16.9272 8.7439 17.3087 8.46259 17.59C8.18129 17.8713 7.79976 18.0293 7.40193 18.0293Z" fill="var(--fill-0, #1E1F26)"/>
</svg>
