<svg preserveAspectRatio="none" width="100%" height="100%" overflow="visible" style="display: block;" viewBox="0 0 14 20" fill="none" xmlns="http://www.w3.org/2000/svg">
<path id="Vector" d="M13.08 3L5 2.33L2 2.08V1C2 0.734784 1.89464 0.48043 1.70711 0.292893C1.51957 0.105357 1.26522 0 1 0C0.734784 0 0.48043 0.105357 0.292893 0.292893C0.105357 0.48043 0 0.734784 0 1V19C0 19.2652 0.105357 19.5196 0.292893 19.7071C0.48043 19.8946 0.734784 20 1 20C1.26522 20 1.51957 19.8946 1.70711 19.7071C1.89464 19.5196 2 19.2652 2 19V11.92L5 11.67L13.08 11C13.3311 10.9798 13.5654 10.8657 13.7359 10.6803C13.9065 10.4949 14.0008 10.2519 14 10V4C14.0008 3.74808 13.9065 3.50514 13.7359 3.31974C13.5654 3.13434 13.3311 3.02015 13.08 3ZM4 9.75L2 9.91V4.09L4 4.25V9.75ZM8 9.41L6 9.58V4.42L8 4.59V9.41ZM12 9.08L10 9.25V4.75L12 4.92V9.08Z" fill="var(--fill-0, #1E1F26)"/>
</svg>
