<svg preserveAspectRatio="none" width="100%" height="100%" overflow="visible" style="display: block;" viewBox="0 0 19.9649 20.0048" fill="none" xmlns="http://www.w3.org/2000/svg">
<path id="Vector" d="M6.80009 9.29484C6.70636 9.3878 6.63196 9.4984 6.58119 9.62026C6.53043 9.74212 6.50429 9.87283 6.50429 10.0048C6.50429 10.1369 6.53043 10.2676 6.58119 10.3894C6.63196 10.5113 6.70636 10.6219 6.80009 10.7148C6.98745 10.9011 7.2409 11.0056 7.50509 11.0056C7.76927 11.0056 8.02272 10.9011 8.21009 10.7148C8.30381 10.6219 8.37821 10.5113 8.42898 10.3894C8.47975 10.2676 8.50589 10.1369 8.50589 10.0048C8.50589 9.87283 8.47975 9.74212 8.42898 9.62026C8.37821 9.4984 8.30381 9.3878 8.21009 9.29484C8.02272 9.10859 7.76927 9.00405 7.50509 9.00405C7.2409 9.00405 6.98745 9.10859 6.80009 9.29484ZM9.27009 11.7748C9.08384 11.9622 8.97929 12.2157 8.97929 12.4798C8.97929 12.744 9.08384 12.9975 9.27009 13.1848C9.36305 13.2786 9.47365 13.353 9.59551 13.4037C9.71737 13.4545 9.84807 13.4806 9.98009 13.4806C10.1121 13.4806 10.2428 13.4545 10.3647 13.4037C10.4865 13.353 10.5971 13.2786 10.6901 13.1848C10.8763 12.9975 10.9809 12.744 10.9809 12.4798C10.9809 12.2157 10.8763 11.9622 10.6901 11.7748C10.5971 11.6811 10.4865 11.6067 10.3647 11.5559C10.2428 11.5052 10.1121 11.479 9.98009 11.479C9.84807 11.479 9.71737 11.5052 9.59551 11.5559C9.47365 11.6067 9.36305 11.6811 9.27009 11.7748V11.7748ZM18.2701 1.77484C17.1823 0.678066 15.7134 0.0430936 14.1692 0.00211389C12.625 -0.0388658 11.1245 0.517304 9.98009 1.55484C8.84094 0.529418 7.35255 -0.0211806 5.82031 0.0160098C4.28807 0.0532001 2.82815 0.67536 1.74009 1.75484V1.75484C0.659103 2.84468 0.0369347 4.30738 0.00159222 5.84199C-0.0337503 7.3766 0.520421 8.86639 1.55009 10.0048C0.780259 10.8655 0.275124 11.93 0.0952972 13.0706C-0.0845297 14.2112 0.0685908 15.3795 0.536284 16.4352C1.00398 17.4909 1.76638 18.3893 2.73199 19.0225C3.69761 19.6557 4.82542 19.9968 5.98009 20.0048C7.46031 20.0064 8.88742 19.4534 9.98009 18.4548C11.1198 19.4832 12.6103 20.0356 14.1449 19.9984C15.6796 19.9612 17.1415 19.3372 18.2301 18.2548C19.3097 17.1637 19.93 15.7003 19.9635 14.1657C19.997 12.6311 19.4411 11.142 18.4101 10.0048C19.4411 8.86765 19.997 7.37858 19.9635 5.84398C19.93 4.30938 19.3097 2.84598 18.2301 1.75484L18.2701 1.77484ZM16.8101 3.17484C17.5055 3.89023 17.9085 4.83968 17.94 5.83688C17.9714 6.83409 17.6291 7.80705 16.9801 8.56484L11.4201 3.00484C12.1845 2.37057 13.1545 2.03775 14.1473 2.06906C15.1401 2.10037 16.0872 2.49366 16.8101 3.17484V3.17484ZM3.15009 16.8348C2.45465 16.1195 2.05167 15.17 2.02022 14.1728C1.98877 13.1756 2.33112 12.2026 2.98009 11.4448L8.58009 17.0448C7.80719 17.6829 6.8265 18.0141 5.82504 17.9754C4.82357 17.9366 3.87139 17.5306 3.15009 16.8348V16.8348ZM16.8101 16.8348C16.0508 17.561 15.0407 17.9663 13.9901 17.9663C12.9395 17.9663 11.9294 17.561 11.1701 16.8348L3.17009 8.83484C2.42508 8.08539 2.00692 7.07158 2.00692 6.01484C2.00692 4.9581 2.42508 3.94429 3.17009 3.19484V3.19484C3.91954 2.44984 4.93334 2.03167 5.99009 2.03167C7.04683 2.03167 8.06064 2.44984 8.81009 3.19484L16.8101 11.1948C17.5551 11.9443 17.9733 12.9581 17.9733 14.0148C17.9733 15.0716 17.5551 16.0854 16.8101 16.8348ZM11.7501 9.29484C11.6564 9.3878 11.582 9.4984 11.5312 9.62026C11.4804 9.74212 11.4543 9.87283 11.4543 10.0048C11.4543 10.1369 11.4804 10.2676 11.5312 10.3894C11.582 10.5113 11.6564 10.6219 11.7501 10.7148C11.9374 10.9011 12.1909 11.0056 12.4551 11.0056C12.7193 11.0056 12.9727 10.9011 13.1601 10.7148C13.2538 10.6219 13.3282 10.5113 13.379 10.3894C13.4297 10.2676 13.4559 10.1369 13.4559 10.0048C13.4559 9.87283 13.4297 9.74212 13.379 9.62026C13.3282 9.4984 13.2538 9.3878 13.1601 9.29484C12.9727 9.10859 12.7193 9.00405 12.4551 9.00405C12.1909 9.00405 11.9374 9.10859 11.7501 9.29484ZM9.27009 6.82484C9.08384 7.0122 8.97929 7.26565 8.97929 7.52984C8.97929 7.79402 9.08384 8.04748 9.27009 8.23484C9.36305 8.32857 9.47365 8.40296 9.59551 8.45373C9.71737 8.5045 9.84807 8.53064 9.98009 8.53064C10.1121 8.53064 10.2428 8.5045 10.3647 8.45373C10.4865 8.40296 10.5971 8.32857 10.6901 8.23484C10.8763 8.04748 10.9809 7.79402 10.9809 7.52984C10.9809 7.26565 10.8763 7.0122 10.6901 6.82484C10.5971 6.73111 10.4865 6.65672 10.3647 6.60595C10.2428 6.55518 10.1121 6.52904 9.98009 6.52904C9.84807 6.52904 9.71737 6.55518 9.59551 6.60595C9.47365 6.65672 9.36305 6.73111 9.27009 6.82484Z" fill="var(--fill-0, #1E1F26)"/>
</svg>
