<svg preserveAspectRatio="none" width="100%" height="100%" overflow="visible" style="display: block;" viewBox="0 0 14 19.0041" fill="none" xmlns="http://www.w3.org/2000/svg">
<path id="Vector" d="M11 8.00409H3C2.20435 8.00409 1.44129 8.32016 0.87868 8.88277C0.316071 9.44538 0 10.2084 0 11.0041V16.0041C0 16.7997 0.316071 17.5628 0.87868 18.1254C1.44129 18.688 2.20435 19.0041 3 19.0041H11C11.7956 19.0041 12.5587 18.688 13.1213 18.1254C13.6839 17.5628 14 16.7997 14 16.0041V11.0041C14 10.2084 13.6839 9.44538 13.1213 8.88277C12.5587 8.32016 11.7956 8.00409 11 8.00409ZM10.58 10.0041L7.7 12.8841C7.51307 13.0673 7.26175 13.1699 7 13.1699C6.73825 13.1699 6.48693 13.0673 6.3 12.8841L3.42 10.0041H10.58ZM12 16.0041C12 16.2693 11.8946 16.5237 11.7071 16.7112C11.5196 16.8987 11.2652 17.0041 11 17.0041H3C2.73478 17.0041 2.48043 16.8987 2.29289 16.7112C2.10536 16.5237 2 16.2693 2 16.0041V11.4141L4.88 14.2841C5.15545 14.5673 5.48514 14.792 5.84939 14.9449C6.21363 15.0978 6.60496 15.1758 7 15.1741C7.79538 15.1734 8.55793 14.8569 9.12 14.2941L12 11.4141V16.0041ZM4 4.00409H7.59L7.29 4.29409C7.19627 4.38705 7.12188 4.49766 7.07111 4.61951C7.02034 4.74137 6.9942 4.87208 6.9942 5.00409C6.9942 5.1361 7.02034 5.26681 7.07111 5.38867C7.12188 5.51053 7.19627 5.62113 7.29 5.71409C7.38296 5.80782 7.49356 5.88221 7.61542 5.93298C7.73728 5.98375 7.86799 6.00989 8 6.00989C8.13201 6.00989 8.26272 5.98375 8.38458 5.93298C8.50644 5.88221 8.61704 5.80782 8.71 5.71409L10.71 3.71409C10.801 3.61899 10.8724 3.50684 10.92 3.38409C11.02 3.14063 11.02 2.86755 10.92 2.62409C10.8724 2.50134 10.801 2.3892 10.71 2.29409L8.71 0.294091C8.5217 0.105788 8.2663 -3.9682e-09 8 0C7.7337 3.9682e-09 7.4783 0.105788 7.29 0.294091C7.1017 0.482395 6.99591 0.73779 6.99591 1.00409C6.99591 1.27039 7.1017 1.52579 7.29 1.71409L7.59 2.00409H4C3.73478 2.00409 3.48043 2.10945 3.29289 2.29698C3.10536 2.48452 3 2.73888 3 3.00409C3 3.26931 3.10536 3.52366 3.29289 3.7112C3.48043 3.89873 3.73478 4.00409 4 4.00409V4.00409Z" fill="var(--fill-0, #1E1F26)"/>
</svg>
