<svg preserveAspectRatio="none" width="100%" height="100%" overflow="visible" style="display: block;" viewBox="0 0 22 21" fill="none" xmlns="http://www.w3.org/2000/svg">
<path id="Vector" d="M11 4C10.7033 4 10.4133 4.08797 10.1666 4.2528C9.91997 4.41762 9.72771 4.65189 9.61418 4.92597C9.50065 5.20006 9.47094 5.50166 9.52882 5.79264C9.5867 6.08361 9.72956 6.35088 9.93934 6.56066C10.1491 6.77044 10.4164 6.9133 10.7074 6.97118C10.9983 7.02906 11.2999 6.99935 11.574 6.88582C11.8481 6.77229 12.0824 6.58003 12.2472 6.33336C12.412 6.08668 12.5 5.79667 12.5 5.5C12.5 5.10218 12.342 4.72064 12.0607 4.43934C11.7794 4.15804 11.3978 4 11 4V4ZM21 7H20.46C21.4483 5.90175 21.9967 4.47746 22 3C22 2.73478 21.8946 2.48043 21.7071 2.29289C21.5196 2.10536 21.2652 2 21 2H16.82C16.6137 1.41645 16.2319 0.910998 15.7271 0.552938C15.2222 0.194879 14.6189 0.00173951 14 0H8C7.38106 0.00173951 6.7778 0.194879 6.27293 0.552938C5.76807 0.910998 5.38631 1.41645 5.18 2H1C0.734784 2 0.48043 2.10536 0.292893 2.29289C0.105357 2.48043 0 2.73478 0 3C0.00333517 4.47746 0.551686 5.90175 1.54 7H1C0.734784 7 0.48043 7.10536 0.292893 7.29289C0.105357 7.48043 0 7.73478 0 8C0.00333517 9.47746 0.551686 10.9018 1.54 12H1C0.734784 12 0.48043 12.1054 0.292893 12.2929C0.105357 12.4804 0 12.7348 0 13C0.00262559 14.4439 0.525853 15.8384 1.47367 16.9277C2.42149 18.0169 3.73032 18.7279 5.16 18.93C5.35558 19.5298 5.7353 20.0528 6.24517 20.4244C6.75503 20.796 7.36908 20.9974 8 21H14C14.6309 20.9974 15.245 20.796 15.7548 20.4244C16.2647 20.0528 16.6444 19.5298 16.84 18.93C18.2697 18.7279 19.5785 18.0169 20.5263 16.9277C21.4741 15.8384 21.9974 14.4439 22 13C22 12.7348 21.8946 12.4804 21.7071 12.2929C21.5196 12.1054 21.2652 12 21 12H20.46C21.4483 10.9018 21.9967 9.47746 22 8C22 7.73478 21.8946 7.48043 21.7071 7.29289C21.5196 7.10536 21.2652 7 21 7ZM5 16.87C4.30908 16.6912 3.6786 16.3307 3.17394 15.8261C2.66929 15.3214 2.30885 14.6909 2.13 14H5V16.87ZM5 11.87C4.30908 11.6912 3.6786 11.3307 3.17394 10.8261C2.66929 10.3214 2.30885 9.69092 2.13 9H5V11.87ZM5 6.87C4.31384 6.70039 3.68335 6.35586 3.17 5.87C2.68414 5.35665 2.33961 4.72616 2.17 4.04H5V6.87ZM15 18C15 18.2652 14.8946 18.5196 14.7071 18.7071C14.5196 18.8946 14.2652 19 14 19H8C7.73478 19 7.48043 18.8946 7.29289 18.7071C7.10536 18.5196 7 18.2652 7 18V3C7 2.73478 7.10536 2.48043 7.29289 2.29289C7.48043 2.10536 7.73478 2 8 2H14C14.2652 2 14.5196 2.10536 14.7071 2.29289C14.8946 2.48043 15 2.73478 15 3V18ZM18.83 15.83C18.3167 16.3159 17.6862 16.6604 17 16.83V14H19.87C19.6889 14.6903 19.3304 15.3212 18.83 15.83ZM18.83 10.83C18.3167 11.3159 17.6862 11.6604 17 11.83V9H19.87C19.6889 9.69029 19.3304 10.3212 18.83 10.83V10.83ZM18.83 5.83C18.3167 6.31586 17.6862 6.66039 17 6.83V4H19.87C19.6889 4.69029 19.3304 5.32118 18.83 5.83V5.83ZM11 14C10.7033 14 10.4133 14.088 10.1666 14.2528C9.91997 14.4176 9.72771 14.6519 9.61418 14.926C9.50065 15.2001 9.47094 15.5017 9.52882 15.7926C9.5867 16.0836 9.72956 16.3509 9.93934 16.5607C10.1491 16.7704 10.4164 16.9133 10.7074 16.9712C10.9983 17.0291 11.2999 16.9993 11.574 16.8858C11.8481 16.7723 12.0824 16.58 12.2472 16.3334C12.412 16.0867 12.5 15.7967 12.5 15.5C12.5 15.1022 12.342 14.7206 12.0607 14.4393C11.7794 14.158 11.3978 14 11 14ZM11 9C10.7033 9 10.4133 9.08797 10.1666 9.2528C9.91997 9.41762 9.72771 9.65189 9.61418 9.92597C9.50065 10.2001 9.47094 10.5017 9.52882 10.7926C9.5867 11.0836 9.72956 11.3509 9.93934 11.5607C10.1491 11.7704 10.4164 11.9133 10.7074 11.9712C10.9983 12.0291 11.2999 11.9994 11.574 11.8858C11.8481 11.7723 12.0824 11.58 12.2472 11.3334C12.412 11.0867 12.5 10.7967 12.5 10.5C12.5 10.1022 12.342 9.72064 12.0607 9.43934C11.7794 9.15804 11.3978 9 11 9Z" fill="var(--fill-0, #1E1F26)"/>
</svg>
