<svg preserveAspectRatio="none" width="100%" height="100%" overflow="visible" style="display: block;" viewBox="0 0 20.0058 18.9858" fill="none" xmlns="http://www.w3.org/2000/svg">
<path id="Vector" d="M12 9.0058H14.42C14.5516 9.00656 14.6821 8.98133 14.8039 8.93157C14.9257 8.8818 15.0366 8.80848 15.13 8.7158L19.71 4.1358C19.8037 4.04284 19.8781 3.93223 19.9289 3.81037C19.9797 3.68852 20.0058 3.55781 20.0058 3.4258C20.0058 3.29379 19.9797 3.16308 19.9289 3.04122C19.8781 2.91936 19.8037 2.80876 19.71 2.7158L17.29 0.295798C17.197 0.20207 17.0864 0.127676 16.9646 0.0769069C16.8427 0.0261382 16.712 0 16.58 0C16.448 0 16.3173 0.0261382 16.1954 0.0769069C16.0736 0.127676 15.963 0.20207 15.87 0.295798L11.29 4.8758C11.1073 5.06743 11.0037 5.32103 11 5.5858V8.0058C11 8.27101 11.1054 8.52537 11.2929 8.7129C11.4804 8.90044 11.7348 9.0058 12 9.0058ZM13 6.0058L16.58 2.4258L17.58 3.4258L14 7.0058H13V6.0058ZM19 8.0058C18.7348 8.0058 18.4804 8.11116 18.2929 8.29869C18.1054 8.48623 18 8.74058 18 9.0058V16.0058C18 16.271 17.8946 16.5254 17.7071 16.7129C17.5196 16.9004 17.2652 17.0058 17 17.0058H3C2.73478 17.0058 2.48043 16.9004 2.29289 16.7129C2.10536 16.5254 2 16.271 2 16.0058V6.3958L7.88 12.2858C8.15906 12.5685 8.49149 12.793 8.85799 12.9462C9.22449 13.0994 9.61777 13.1782 10.015 13.1782C10.4122 13.1782 10.8055 13.0994 11.172 12.9462C11.5385 12.793 11.8709 12.5685 12.15 12.2858C12.3332 12.0989 12.4359 11.8476 12.4359 11.5858C12.4359 11.324 12.3332 11.0727 12.15 10.8858C12.0569 10.7906 11.9456 10.7149 11.8229 10.6632C11.7001 10.6115 11.5682 10.5849 11.435 10.5849C11.3018 10.5849 11.1699 10.6115 11.0471 10.6632C10.9244 10.7149 10.8131 10.7906 10.72 10.8858C10.5331 11.069 10.2818 11.1717 10.02 11.1717C9.75825 11.1717 9.50693 11.069 9.32 10.8858L3.41 4.9858H8C8.26522 4.9858 8.51957 4.88044 8.70711 4.69291C8.89464 4.50537 9 4.25101 9 3.9858C9 3.72058 8.89464 3.46623 8.70711 3.27869C8.51957 3.09116 8.26522 2.9858 8 2.9858H3C2.20435 2.9858 1.44129 3.30187 0.87868 3.86448C0.316071 4.42709 0 5.19015 0 5.9858V15.9858C0 16.7814 0.316071 17.5445 0.87868 18.1071C1.44129 18.6697 2.20435 18.9858 3 18.9858H17C17.7956 18.9858 18.5587 18.6697 19.1213 18.1071C19.6839 17.5445 20 16.7814 20 15.9858V8.9858C20 8.72058 19.8946 8.46623 19.7071 8.27869C19.5196 8.09115 19.2652 7.9858 19 7.9858V8.0058Z" fill="var(--fill-0, #1E1F26)"/>
</svg>
