<svg preserveAspectRatio="none" width="100%" height="100%" overflow="visible" style="display: block;" viewBox="0 0 10.5516 8.0116" fill="none" xmlns="http://www.w3.org/2000/svg">
<path id="Vector" d="M4.7158 0.295798C4.62284 0.20207 4.51223 0.127676 4.39038 0.0769072C4.26852 0.0261385 4.13781 0 4.0058 0C3.87379 0 3.74308 0.0261385 3.62122 0.0769072C3.49936 0.127676 3.38876 0.20207 3.2958 0.295798L0.295798 3.2958C0.20207 3.38876 0.127676 3.49936 0.0769072 3.62122C0.0261385 3.74308 0 3.87379 0 4.0058C0 4.13781 0.0261385 4.26852 0.0769072 4.39038C0.127676 4.51223 0.20207 4.62284 0.295798 4.7158L3.2958 7.7158C3.38876 7.80953 3.49936 7.88392 3.62122 7.93469C3.74308 7.98546 3.87379 8.0116 4.0058 8.0116C4.13781 8.0116 4.26852 7.98546 4.39038 7.93469C4.51223 7.88392 4.62284 7.80953 4.7158 7.7158C4.80953 7.62284 4.88392 7.51223 4.93469 7.39038C4.98546 7.26852 5.0116 7.13781 5.0116 7.0058C5.0116 6.87379 4.98546 6.74308 4.93469 6.62122C4.88392 6.49936 4.80953 6.38876 4.7158 6.2958L2.4158 4.0058L4.7158 1.7158C4.80953 1.62284 4.88392 1.51223 4.93469 1.39038C4.98546 1.26852 5.0116 1.13781 5.0116 1.0058C5.0116 0.873786 4.98546 0.743081 4.93469 0.621222C4.88392 0.499362 4.80953 0.388761 4.7158 0.295798V0.295798ZM7.9158 4.0058L10.2558 1.7158C10.4441 1.52749 10.5499 1.2721 10.5499 1.0058C10.5499 0.739497 10.4441 0.484102 10.2558 0.295798C10.0675 0.107495 9.8121 0.0017066 9.5458 0.0017066C9.2795 0.0017066 9.0241 0.107495 8.8358 0.295798L5.8358 3.2958C5.74207 3.38876 5.66768 3.49936 5.61691 3.62122C5.56614 3.74308 5.54 3.87379 5.54 4.0058C5.54 4.13781 5.56614 4.26852 5.61691 4.39038C5.66768 4.51223 5.74207 4.62284 5.8358 4.7158L8.8358 7.7158C8.92876 7.80953 9.03936 7.88392 9.16122 7.93469C9.28308 7.98546 9.41379 8.0116 9.5458 8.0116C9.67781 8.0116 9.80851 7.98546 9.93037 7.93469C10.0522 7.88392 10.1628 7.80953 10.2558 7.7158C10.3495 7.62284 10.4239 7.51223 10.4747 7.39038C10.5255 7.26852 10.5516 7.13781 10.5516 7.0058C10.5516 6.87379 10.5255 6.74308 10.4747 6.62122C10.4239 6.49936 10.3495 6.38876 10.2558 6.2958L7.9158 4.0058Z" fill="var(--fill-0, #1E1F26)"/>
</svg>
