<svg preserveAspectRatio="none" width="100%" height="100%" overflow="visible" style="display: block;" viewBox="0 0 20.0078 20" fill="none" xmlns="http://www.w3.org/2000/svg">
<path id="Vector" d="M19.7178 12.54L17.2178 10C17.1249 9.90627 17.0143 9.83188 16.8924 9.78111C16.7705 9.73034 16.6398 9.7042 16.5078 9.7042C16.3758 9.7042 16.2451 9.73034 16.1232 9.78111C16.0014 9.83188 15.8908 9.90627 15.7978 10L13.0078 12.84L10.2178 10C10.1249 9.90627 10.0143 9.83188 9.89239 9.78111C9.77053 9.73034 9.63983 9.7042 9.50781 9.7042C9.3758 9.7042 9.2451 9.73034 9.12324 9.78111C9.00138 9.83188 8.89078 9.90627 8.79781 10L6.50781 12.34L4.21781 10C4.12485 9.90627 4.01425 9.83188 3.89239 9.78111C3.77053 9.73034 3.63983 9.7042 3.50781 9.7042C3.3758 9.7042 3.2451 9.73034 3.12324 9.78111C3.00138 9.83188 2.89078 9.90627 2.79781 10L0.297815 12.5C0.206774 12.5951 0.135409 12.7072 0.0878145 12.83C0.0365735 12.9502 0.00939455 13.0793 0.00781456 13.21V17C0.00781456 17.7956 0.323885 18.5587 0.886494 19.1213C1.4491 19.6839 2.21217 20 3.00781 20H17.0078C17.8035 20 18.5665 19.6839 19.1291 19.1213C19.6917 18.5587 20.0078 17.7956 20.0078 17V13.25C20.0062 13.1193 19.9791 12.9902 19.9278 12.87C19.8802 12.7472 19.8089 12.6351 19.7178 12.54V12.54ZM18.0078 17C18.0078 17.2652 17.9025 17.5196 17.7149 17.7071C17.5274 17.8946 17.273 18 17.0078 18H3.00781C2.7426 18 2.48824 17.8946 2.30071 17.7071C2.11317 17.5196 2.00781 17.2652 2.00781 17V13.66L3.50781 12.16L5.79781 14.46C5.89078 14.5537 6.00138 14.6281 6.12324 14.6789C6.2451 14.7297 6.3758 14.7558 6.50781 14.7558C6.63983 14.7558 6.77053 14.7297 6.89239 14.6789C7.01425 14.6281 7.12485 14.5537 7.21781 14.46L9.50781 12.16L12.2978 15C12.3908 15.0937 12.5014 15.1681 12.6232 15.2189C12.7451 15.2697 12.8758 15.2958 13.0078 15.2958C13.1398 15.2958 13.2705 15.2697 13.3924 15.2189C13.5143 15.1681 13.6249 15.0937 13.7178 15L16.5078 12.2L18.0078 13.7V17ZM17.0078 0H3.00781C2.21217 0 1.4491 0.316071 0.886494 0.87868C0.323885 1.44129 0.00781456 2.20435 0.00781456 3V8.26C-0.00260485 8.3497 -0.00260485 8.4403 0.00781456 8.53C0.00781456 8.53 0.00781456 8.6 0.00781456 8.63C0.0704239 8.78638 0.171521 8.92441 0.301724 9.03128C0.431926 9.13815 0.587015 9.2104 0.752599 9.24132C0.918182 9.27224 1.08889 9.26083 1.24889 9.20816C1.40889 9.15548 1.55299 9.06324 1.66781 8.94L3.50781 7.16L5.79781 9.46C5.89078 9.55373 6.00138 9.62812 6.12324 9.67889C6.2451 9.72966 6.3758 9.7558 6.50781 9.7558C6.63983 9.7558 6.77053 9.72966 6.89239 9.67889C7.01425 9.62812 7.12485 9.55373 7.21781 9.46L9.50781 7.16L12.2978 10C12.3908 10.0937 12.5014 10.1681 12.6232 10.2189C12.7451 10.2697 12.8758 10.2958 13.0078 10.2958C13.1398 10.2958 13.2705 10.2697 13.3924 10.2189C13.5143 10.1681 13.6249 10.0937 13.7178 10L16.5078 7.2L18.2778 8.98C18.3926 9.10324 18.5367 9.19548 18.6967 9.24816C18.8567 9.30083 19.0274 9.31224 19.193 9.28132C19.3586 9.2504 19.5137 9.17815 19.6439 9.07128C19.7741 8.96441 19.8752 8.82638 19.9378 8.67C19.9427 8.6402 19.9427 8.6098 19.9378 8.58C19.973 8.49057 19.9932 8.39598 19.9978 8.3V3C19.9978 2.20608 19.6831 1.44453 19.1227 0.882207C18.5622 0.319885 17.8017 0.0026464 17.0078 0V0ZM18.0078 5.84L17.2178 5C17.1249 4.90627 17.0143 4.83188 16.8924 4.78111C16.7705 4.73034 16.6398 4.7042 16.5078 4.7042C16.3758 4.7042 16.2451 4.73034 16.1232 4.78111C16.0014 4.83188 15.8908 4.90627 15.7978 5L13.0078 7.84L10.2178 5C10.1249 4.90627 10.0143 4.83188 9.89239 4.78111C9.77053 4.73034 9.63983 4.7042 9.50781 4.7042C9.3758 4.7042 9.2451 4.73034 9.12324 4.78111C9.00138 4.83188 8.89078 4.90627 8.79781 5L6.50781 7.34L4.21781 5C4.12485 4.90627 4.01425 4.83188 3.89239 4.78111C3.77053 4.73034 3.63983 4.7042 3.50781 4.7042C3.3758 4.7042 3.2451 4.73034 3.12324 4.78111C3.00138 4.83188 2.89078 4.90627 2.79781 5L2.00781 5.84V3C2.00781 2.73478 2.11317 2.48043 2.30071 2.29289C2.48824 2.10536 2.7426 2 3.00781 2H17.0078C17.273 2 17.5274 2.10536 17.7149 2.29289C17.9025 2.48043 18.0078 2.73478 18.0078 3V5.84Z" fill="var(--fill-0, #1E1F26)"/>
</svg>
