<svg preserveAspectRatio="none" width="100%" height="100%" overflow="visible" style="display: block;" viewBox="0 0 20.0099 20.0099" fill="none" xmlns="http://www.w3.org/2000/svg">
<path id="Vector" d="M17.0041 4.00409H14.0041V3.00409C14.0041 2.47366 13.7934 1.96495 13.4183 1.58988C13.0432 1.21481 12.5345 1.00409 12.0041 1.00409H8.00409C7.7966 1.00317 7.59042 1.03697 7.39409 1.10409C7.26825 1.14482 7.15173 1.2101 7.0513 1.29617C6.95086 1.38223 6.86849 1.48737 6.80897 1.60549C6.74945 1.72361 6.71395 1.85236 6.70453 1.98429C6.69511 2.11622 6.71195 2.24871 6.75409 2.37409C6.83857 2.62178 7.01679 2.82648 7.25048 2.94427C7.48418 3.06205 7.75474 3.08353 8.00409 3.00409H12.0041V4.00409H10.6641C10.3989 4.00409 10.1445 4.10945 9.95698 4.29699C9.76945 4.48452 9.66409 4.73888 9.66409 5.00409C9.66409 5.26931 9.76945 5.52366 9.95698 5.7112C10.1445 5.89873 10.3989 6.00409 10.6641 6.00409H17.0041C17.2693 6.00409 17.5237 6.10945 17.7112 6.29699C17.8987 6.48452 18.0041 6.73888 18.0041 7.00409V8.28409L15.4341 9.14409C15.3091 9.18584 15.1937 9.25186 15.0943 9.33836C14.995 9.42487 14.9137 9.53015 14.8552 9.64816C14.7966 9.76617 14.762 9.89459 14.7532 10.026C14.7444 10.1575 14.7617 10.2894 14.8041 10.4141C14.8712 10.6127 14.999 10.7852 15.1695 10.9072C15.3399 11.0293 15.5444 11.0946 15.7541 11.0941C15.8625 11.0921 15.9702 11.0753 16.0741 11.0441L18.0041 10.3941V13.3441C18.0041 13.6093 18.1094 13.8637 18.297 14.0512C18.4845 14.2387 18.7389 14.3441 19.0041 14.3441C19.2693 14.3441 19.5237 14.2387 19.7112 14.0512C19.8987 13.8637 20.0041 13.6093 20.0041 13.3441V7.00409C20.0041 6.20844 19.688 5.44538 19.1254 4.88277C18.5628 4.32016 17.7997 4.00409 17.0041 4.00409ZM1.71409 0.294092C1.62085 0.200853 1.51016 0.126892 1.38834 0.0764319C1.26652 0.0259715 1.13595 0 1.00409 0C0.872232 0 0.741664 0.0259715 0.619842 0.0764319C0.49802 0.126892 0.38733 0.200853 0.294092 0.294092C0.105788 0.482395 0 0.73779 0 1.00409C0 1.27039 0.105788 1.52579 0.294092 1.71409L2.62409 4.00409C1.89599 4.09704 1.22723 4.4537 0.744399 5.00656C0.261571 5.55942 -0.00181756 6.2701 0.00409162 7.00409V16.0041C0.00409162 16.7997 0.320162 17.5628 0.882771 18.1254C1.44538 18.688 2.20844 19.0041 3.00409 19.0041H17.0041C17.1822 18.9995 17.3595 18.9794 17.5341 18.9441L18.2941 19.7141C18.3871 19.8078 18.4977 19.8822 18.6195 19.933C18.7414 19.9838 18.8721 20.0099 19.0041 20.0099C19.1361 20.0099 19.2668 19.9838 19.3887 19.933C19.5105 19.8822 19.6211 19.8078 19.7141 19.7141C19.8078 19.6211 19.8822 19.5105 19.933 19.3887C19.9838 19.2668 20.0099 19.1361 20.0099 19.0041C20.0099 18.8721 19.9838 18.7414 19.933 18.6195C19.8822 18.4977 19.8078 18.3871 19.7141 18.2941L1.71409 0.294092ZM2.00409 7.00409C2.00409 6.73888 2.10945 6.48452 2.29699 6.29699C2.48452 6.10945 2.73888 6.00409 3.00409 6.00409H4.59409L8.59409 10.0041H7.16409L2.00409 8.28409V7.00409ZM3.00409 17.0041C2.73888 17.0041 2.48452 16.8987 2.29699 16.7112C2.10945 16.5237 2.00409 16.2693 2.00409 16.0041V10.3941L6.68409 12.0041C6.79027 12.0185 6.89791 12.0185 7.00409 12.0041H10.5941L15.5941 17.0041H3.00409Z" fill="var(--fill-0, #1E1F26)"/>
</svg>
