<svg preserveAspectRatio="none" width="100%" height="100%" overflow="visible" style="display: block;" viewBox="0 0 13.5 15" fill="none" xmlns="http://www.w3.org/2000/svg">
<path id="Vector" d="M13.5 1.5H3C2.60218 1.5 2.22064 1.65804 1.93934 1.93934C1.65804 2.22064 1.5 2.60218 1.5 3C1.5 3.39782 1.65804 3.77936 1.93934 4.06066C2.22064 4.34196 2.60218 4.5 3 4.5H13.5V14.25C13.5 14.4489 13.421 14.6397 13.2803 14.7803C13.1397 14.921 12.9489 15 12.75 15H3C2.20435 15 1.44129 14.6839 0.87868 14.1213C0.31607 13.5587 0 12.7956 0 12V3C0 2.20435 0.31607 1.44129 0.87868 0.87868C1.44129 0.316071 2.20435 0 3 0H12.75C12.9489 0 13.1397 0.0790176 13.2803 0.21967C13.421 0.360322 13.5 0.551088 13.5 0.75V1.5ZM1.5 12C1.5 12.3978 1.65804 12.7794 1.93934 13.0607C2.22064 13.342 2.60218 13.5 3 13.5H12V6H3C2.47337 6.00084 1.95588 5.86241 1.5 5.59875V12ZM12.75 3.75H3C2.80109 3.75 2.61032 3.67098 2.46967 3.53033C2.32902 3.38968 2.25 3.19891 2.25 3C2.25 2.80109 2.32902 2.61032 2.46967 2.46967C2.61032 2.32902 2.80109 2.25 3 2.25H12.75V3.75Z" fill="var(--fill-0, #525866)"/>
</svg>
