<svg preserveAspectRatio="none" width="100%" height="100%" overflow="visible" style="display: block;" viewBox="0 0 20.0105 18.0203" fill="none" xmlns="http://www.w3.org/2000/svg">
<path id="Vector" d="M18.28 0.450274C17.7819 0.155513 17.2138 0 16.635 0C16.0562 0 15.4881 0.155513 14.99 0.450274L6 5.86027V3.02027C6 2.22462 5.68393 1.46156 5.12132 0.898954C4.55871 0.336345 3.79565 0.0202744 3 0.0202744C2.20435 0.0202744 1.44129 0.336345 0.87868 0.898954C0.316071 1.46156 0 2.22462 0 3.02027V15.0203C0 15.8159 0.316071 16.579 0.87868 17.1416C1.44129 17.7042 2.20435 18.0203 3 18.0203C3.79565 18.0203 4.55871 17.7042 5.12132 17.1416C5.68393 16.579 6 15.8159 6 15.0203V12.1803L15 17.5503C15.5073 17.8557 16.0878 18.0181 16.68 18.0203C17.245 18.0198 17.8 17.8715 18.29 17.5903C18.8203 17.2914 19.26 16.8549 19.5627 16.3269C19.8655 15.7989 20.02 15.1989 20.01 14.5903V3.44027C20.0172 2.83237 19.8603 2.23378 19.5558 1.70757C19.2514 1.18136 18.8106 0.747009 18.28 0.450274V0.450274ZM4 15.0203C4 15.2855 3.89464 15.5398 3.70711 15.7274C3.51957 15.9149 3.26522 16.0203 3 16.0203C2.73478 16.0203 2.48043 15.9149 2.29289 15.7274C2.10536 15.5398 2 15.2855 2 15.0203V3.02027C2 2.75506 2.10536 2.5007 2.29289 2.31317C2.48043 2.12563 2.73478 2.02027 3 2.02027C3.26522 2.02027 3.51957 2.12563 3.70711 2.31317C3.89464 2.5007 4 2.75506 4 3.02027V15.0203ZM18 14.6003C18.0057 14.8534 17.9427 15.1032 17.8177 15.3234C17.6927 15.5435 17.5103 15.7256 17.29 15.8503C17.0972 15.9678 16.8758 16.0299 16.65 16.0299C16.4242 16.0299 16.2028 15.9678 16.01 15.8503L6.68 10.2503C6.47128 10.12 6.29914 9.9387 6.17981 9.72352C6.06047 9.50834 5.99785 9.26633 5.99785 9.02027C5.99785 8.77422 6.06047 8.53221 6.17981 8.31703C6.29914 8.10185 6.47128 7.92058 6.68 7.79027L16 2.21027C16.2004 2.08372 16.433 2.01774 16.67 2.02027C16.8877 2.02371 17.101 2.08219 17.29 2.19027C17.5103 2.31497 17.6927 2.49707 17.8177 2.71719C17.9427 2.9373 18.0057 3.1872 18 3.44027V14.6003Z" fill="var(--fill-0, #1E1F26)"/>
</svg>
