<svg preserveAspectRatio="none" width="100%" height="100%" overflow="visible" style="display: block;" viewBox="0 0 19.0149 20" fill="none" xmlns="http://www.w3.org/2000/svg">
<path id="Vector" d="M16.4349 14.13C16.3208 14.0639 16.1947 14.021 16.0639 14.0038C15.9331 13.9866 15.8002 13.9955 15.6729 14.0299C15.5456 14.0643 15.4263 14.1235 15.3219 14.2042C15.2176 14.2849 15.1302 14.3854 15.0649 14.5C14.4515 15.5623 13.5698 16.4449 12.508 17.0591C11.4462 17.6734 10.2416 17.9979 9.01489 18H3.42489L4.06489 17.37C4.25114 17.1826 4.35569 16.9292 4.35569 16.665C4.35569 16.4008 4.25114 16.1474 4.06489 15.96C3.13432 15.0347 2.4826 13.8664 2.1841 12.5885C1.8856 11.3106 1.95234 9.97448 2.3767 8.73267C2.80106 7.49086 3.56596 6.39335 4.58411 5.56537C5.60226 4.7374 6.83265 4.2123 8.13489 4.05C8.26622 4.03424 8.39315 3.99277 8.50844 3.92796C8.62374 3.86314 8.72514 3.77626 8.80685 3.67225C8.88857 3.56825 8.949 3.44917 8.9847 3.32182C9.02039 3.19446 9.03065 3.06132 9.01489 2.93C8.99913 2.79868 8.95766 2.67175 8.89285 2.55645C8.82804 2.44116 8.74115 2.33976 8.63715 2.25804C8.53315 2.17632 8.41407 2.11589 8.28671 2.0802C8.15936 2.0445 8.02622 2.03424 7.89489 2.05C6.30407 2.24683 4.79468 2.86495 3.52275 3.84049C2.25082 4.81602 1.26252 6.11355 0.659996 7.59895C0.0574744 9.08436 -0.137397 10.7037 0.0955257 12.2897C0.328449 13.8756 0.980713 15.3706 1.98489 16.62L0.304893 18.29C0.166136 18.4306 0.0721396 18.6092 0.0347655 18.8032C-0.00260865 18.9972 0.018314 19.1979 0.0948934 19.38C0.169914 19.5626 0.297311 19.7189 0.461032 19.8293C0.624752 19.9396 0.817468 19.999 1.01489 20H9.01489C10.594 19.9993 12.1451 19.583 13.5125 18.7932C14.8799 18.0033 16.0153 16.8676 16.8049 15.5C16.871 15.3859 16.9139 15.2598 16.9311 15.129C16.9483 14.9982 16.9394 14.8653 16.905 14.738C16.8706 14.6107 16.8114 14.4914 16.7307 14.387C16.65 14.2827 16.5495 14.1953 16.4349 14.13V14.13ZM17.0149 4.18V3C17.0149 2.20435 16.6988 1.44129 16.1362 0.87868C15.5736 0.316071 14.8105 0 14.0149 0C13.2192 0 12.4562 0.316071 11.8936 0.87868C11.331 1.44129 11.0149 2.20435 11.0149 3V4.18C10.4313 4.38631 9.92589 4.76807 9.56783 5.27293C9.20977 5.7778 9.01663 6.38106 9.01489 7V9C9.01489 9.79565 9.33096 10.5587 9.89357 11.1213C10.4562 11.6839 11.2192 12 12.0149 12H16.0149C16.8105 12 17.5736 11.6839 18.1362 11.1213C18.6988 10.5587 19.0149 9.79565 19.0149 9V7C19.0132 6.38106 18.82 5.7778 18.462 5.27293C18.1039 4.76807 17.5984 4.38631 17.0149 4.18V4.18ZM13.0149 3C13.0149 2.73478 13.1203 2.48043 13.3078 2.29289C13.4953 2.10536 13.7497 2 14.0149 2C14.2801 2 14.5345 2.10536 14.722 2.29289C14.9095 2.48043 15.0149 2.73478 15.0149 3V4H13.0149V3ZM17.0149 9C17.0149 9.26522 16.9095 9.51957 16.722 9.70711C16.5345 9.89464 16.2801 10 16.0149 10H12.0149C11.7497 10 11.4953 9.89464 11.3078 9.70711C11.1203 9.51957 11.0149 9.26522 11.0149 9V7C11.0149 6.73478 11.1203 6.48043 11.3078 6.29289C11.4953 6.10536 11.7497 6 12.0149 6H16.0149C16.2801 6 16.5345 6.10536 16.722 6.29289C16.9095 6.48043 17.0149 6.73478 17.0149 7V9Z" fill="var(--fill-0, #1E1F26)"/>
</svg>
