<svg preserveAspectRatio="none" width="100%" height="100%" overflow="visible" style="display: block;" viewBox="0 0 20 17.9926" fill="none" xmlns="http://www.w3.org/2000/svg">
<path id="Vector" d="M19.63 0.852597C19.5138 0.758618 19.3781 0.691871 19.2327 0.65726C19.0873 0.622649 18.9361 0.621056 18.79 0.652597C18.4116 0.735816 18.0199 0.737847 17.6407 0.658555C17.2614 0.579262 16.9033 0.420449 16.59 0.192597C16.4187 0.0674486 16.2121 0 16 0C15.7879 0 15.5813 0.0674486 15.41 0.192597C15.0967 0.420449 14.7386 0.579262 14.3593 0.658555C13.9801 0.737847 13.5884 0.735816 13.21 0.652597C13.064 0.621235 12.9128 0.622974 12.7676 0.657688C12.6223 0.692402 12.4867 0.759209 12.3706 0.853202C12.2546 0.947196 12.161 1.06599 12.0969 1.20086C12.0328 1.33573 11.9997 1.48325 12 1.6326V4.9426C11.9984 5.65983 12.1639 6.36757 12.4833 7.00978C12.8026 7.65199 13.2671 8.21102 13.84 8.6426L15.41 9.8026C15.5813 9.92775 15.7879 9.99519 16 9.99519C16.2121 9.99519 16.4187 9.92775 16.59 9.8026L18.16 8.6426C18.7329 8.21102 19.1974 7.65199 19.5167 7.00978C19.8361 6.36757 20.0016 5.65983 20 4.9426V1.6326C20.0005 1.4832 19.9675 1.33559 19.9035 1.20061C19.8395 1.06563 19.746 0.946715 19.63 0.852597ZM18 4.9426C18.0055 5.34444 17.9181 5.74212 17.7446 6.10464C17.5712 6.46716 17.3163 6.78473 17 7.0326L16 7.7326L15 7.0126C14.6837 6.76473 14.4288 6.44716 14.2554 6.08464C14.0819 5.72212 13.9945 5.32444 14 4.9226V2.7326C14.6987 2.7046 15.3822 2.52006 16 2.1926C16.6178 2.52006 17.3013 2.7046 18 2.7326V4.9426ZM19 10.9426C18.7348 10.9426 18.4804 11.048 18.2929 11.2355C18.1054 11.423 18 11.6774 18 11.9426V14.9426C18 15.2078 17.8946 15.4622 17.7071 15.6497C17.5196 15.8372 17.2652 15.9426 17 15.9426H3C2.73478 15.9426 2.48043 15.8372 2.29289 15.6497C2.10536 15.4622 2 15.2078 2 14.9426V5.4026L7.88 11.2826C8.43962 11.8429 9.19809 12.1593 9.99 12.1626C10.3903 12.1636 10.7867 12.0845 11.156 11.9299C11.5252 11.7754 11.8598 11.5485 12.14 11.2626L11.44 10.5526L10.7 9.8726C10.5131 10.0558 10.2618 10.1585 10 10.1585C9.73825 10.1585 9.48693 10.0558 9.3 9.8726L3.41 3.9926H9C9.26522 3.9926 9.51957 3.88724 9.70711 3.6997C9.89464 3.51217 10 3.25781 10 2.9926C10 2.72738 9.89464 2.47303 9.70711 2.28549C9.51957 2.09795 9.26522 1.9926 9 1.9926H3C2.20435 1.9926 1.44129 2.30867 0.87868 2.87128C0.316071 3.43389 0 4.19695 0 4.9926V14.9926C0 15.7882 0.316071 16.5513 0.87868 17.1139C1.44129 17.6765 2.20435 17.9926 3 17.9926H17C17.7956 17.9926 18.5587 17.6765 19.1213 17.1139C19.6839 16.5513 20 15.7882 20 14.9926V11.9926C20 11.7274 19.8946 11.473 19.7071 11.2855C19.5196 11.098 19.2652 10.9926 19 10.9926V10.9426Z" fill="var(--fill-0, #1E1F26)"/>
</svg>
