<svg preserveAspectRatio="none" width="100%" height="100%" overflow="visible" style="display: block;" viewBox="0 0 19.9206 19.9206" fill="none" xmlns="http://www.w3.org/2000/svg">
<path id="Vector" d="M15 19.9206H3C2.20435 19.9206 1.44129 19.6045 0.87868 19.0419C0.316071 18.4793 0 17.7163 0 16.9206V6.92062C0 6.12497 0.316071 5.36191 0.87868 4.7993C1.44129 4.23669 2.20435 3.92062 3 3.92062H4C4.01682 3.07326 4.30235 2.25314 4.81541 1.57855C5.32848 0.903959 6.04255 0.409768 6.85464 0.167253C7.66673 -0.0752616 8.53486 -0.0535642 9.33382 0.229216C10.1328 0.511996 10.8213 1.04124 11.3 1.74062C11.7484 2.37977 11.9925 3.13988 12 3.92062H15C15.2652 3.92062 15.5196 4.02598 15.7071 4.21351C15.8946 4.40105 16 4.6554 16 4.92062V7.92062C16.8474 7.93744 17.6675 8.22297 18.3421 8.73603C19.0167 9.2491 19.5109 9.96317 19.7534 10.7753C19.9959 11.5873 19.9742 12.4555 19.6914 13.2544C19.4086 14.0534 18.8794 14.7419 18.18 15.2206C17.5409 15.6691 16.7807 15.9131 16 15.9206V15.9206V18.9206C16 19.1858 15.8946 19.4402 15.7071 19.6277C15.5196 19.8153 15.2652 19.9206 15 19.9206ZM3 5.92062C2.73478 5.92062 2.48043 6.02598 2.29289 6.21351C2.10536 6.40105 2 6.6554 2 6.92062V16.9206C2 17.1858 2.10536 17.4402 2.29289 17.6277C2.48043 17.8153 2.73478 17.9206 3 17.9206H14V14.7406C13.9991 14.5803 14.0368 14.4221 14.1099 14.2794C14.183 14.1367 14.2894 14.0136 14.42 13.9206C14.5502 13.8278 14.7008 13.7675 14.8592 13.7449C15.0175 13.7222 15.179 13.7379 15.33 13.7906C15.615 13.9069 15.9254 13.9468 16.2305 13.9065C16.5357 13.8661 16.825 13.7469 17.07 13.5606C17.3139 13.4119 17.523 13.2127 17.6834 12.9764C17.8439 12.7401 17.9518 12.4721 18 12.1906C18.0386 11.9067 18.0157 11.6178 17.9329 11.3434C17.85 11.0691 17.7092 10.8158 17.52 10.6006C17.2641 10.2897 16.9155 10.0687 16.5252 9.96978C16.1349 9.87085 15.7231 9.89917 15.35 10.0506C15.199 10.1033 15.0375 10.119 14.8792 10.0964C14.7208 10.0738 14.5702 10.0135 14.44 9.92062C14.3094 9.82762 14.203 9.70458 14.1299 9.56187C14.0568 9.41916 14.0191 9.26096 14.02 9.10062V5.92062H10.82C10.6557 5.92993 10.4915 5.89853 10.3422 5.8292C10.1929 5.75987 10.0631 5.65475 9.96414 5.52318C9.86521 5.39161 9.8003 5.23765 9.77516 5.07497C9.75001 4.91229 9.76541 4.74592 9.82 4.59062C9.93626 4.30563 9.97619 3.99524 9.93586 3.6901C9.89553 3.38496 9.77632 3.09562 9.59 2.85062C9.44235 2.59979 9.24016 2.38539 8.9984 2.22331C8.75663 2.06124 8.4815 1.95564 8.19338 1.91434C7.90527 1.87305 7.61155 1.89711 7.33399 1.98475C7.05644 2.07239 6.80216 2.22136 6.59 2.42062C6.39298 2.61603 6.23877 2.85031 6.1372 3.10855C6.03562 3.36679 5.9889 3.64334 6 3.92062C6.00232 4.14999 6.04637 4.37703 6.13 4.59062C6.18287 4.74184 6.19863 4.90354 6.17597 5.06212C6.1533 5.22071 6.09287 5.37152 5.99976 5.50188C5.90665 5.63223 5.78358 5.73831 5.64093 5.81118C5.49827 5.88405 5.34019 5.92158 5.18 5.92062H3Z" fill="var(--fill-0, #1E1F26)"/>
</svg>
