<svg preserveAspectRatio="none" width="100%" height="100%" overflow="visible" style="display: block;" viewBox="0 0 20 19" fill="none" xmlns="http://www.w3.org/2000/svg">
<path id="Vector" d="M10.57 13.8C10.5271 13.7492 10.4765 13.7053 10.42 13.67L10.25 13.58L10.06 13.5C9.89853 13.4691 9.73192 13.4785 9.57494 13.5273C9.41796 13.5762 9.27544 13.663 9.16 13.78C9.06646 13.8713 8.99172 13.98 8.94 14.1C8.89089 14.2241 8.86709 14.3567 8.87 14.49C8.8711 14.7524 8.97526 15.0038 9.16 15.19C9.25127 15.2836 9.35998 15.3583 9.48 15.41C9.60403 15.4591 9.73663 15.4829 9.87 15.48C10 15.4816 10.1291 15.4578 10.25 15.41C10.37 15.3583 10.4787 15.2836 10.57 15.19C10.7584 15.0054 10.8662 14.7538 10.87 14.49C10.8697 14.356 10.8425 14.2233 10.79 14.1C10.7392 13.9853 10.6641 13.883 10.57 13.8ZM9.87 6.50002C9.34306 6.49968 8.82533 6.63814 8.36891 6.90146C7.91248 7.16479 7.53347 7.54368 7.27 8.00002C7.19765 8.11384 7.14906 8.24112 7.12717 8.3742C7.10529 8.50728 7.11054 8.64341 7.14263 8.77441C7.17472 8.9054 7.23297 9.02856 7.31388 9.13646C7.3948 9.24436 7.49671 9.33477 7.61347 9.40227C7.73024 9.46976 7.85945 9.51294 7.99333 9.5292C8.12722 9.54546 8.26301 9.53448 8.39254 9.4969C8.52207 9.45932 8.64265 9.39593 8.74705 9.31054C8.85144 9.22515 8.93749 9.11953 9 9.00002C9.10916 8.80738 9.27918 8.65641 9.48338 8.5708C9.68758 8.48519 9.91442 8.46977 10.1283 8.52697C10.3422 8.58416 10.5311 8.71073 10.6653 8.88684C10.7996 9.06294 10.8715 9.2786 10.87 9.50002C10.87 9.76524 10.7646 10.0196 10.5771 10.2071C10.3896 10.3947 10.1352 10.5 9.87 10.5C9.60478 10.5 9.35043 10.6054 9.16289 10.7929C8.97536 10.9805 8.87 11.2348 8.87 11.5C8.87 11.7652 8.97536 12.0196 9.16289 12.2071C9.35043 12.3947 9.60478 12.5 9.87 12.5C10.6656 12.5 11.4287 12.184 11.9913 11.6213C12.5539 11.0587 12.87 10.2957 12.87 9.50002C12.87 8.70437 12.5539 7.94131 11.9913 7.3787C11.4287 6.81609 10.6656 6.50002 9.87 6.50002V6.50002ZM17 3.00002H10.72L10.4 2.00002C10.1926 1.41325 9.80775 0.905526 9.2989 0.547183C8.79005 0.188841 8.18236 -0.0023769 7.56 2.23036e-05H3C2.20435 2.23036e-05 1.44129 0.316093 0.87868 0.878702C0.316071 1.44131 0 2.20437 0 3.00002V16C0 16.7957 0.316071 17.5587 0.87868 18.1213C1.44129 18.684 2.20435 19 3 19H17C17.7956 19 18.5587 18.684 19.1213 18.1213C19.6839 17.5587 20 16.7957 20 16V6.00002C20 5.20437 19.6839 4.44131 19.1213 3.8787C18.5587 3.31609 17.7956 3.00002 17 3.00002ZM18 16C18 16.2652 17.8946 16.5196 17.7071 16.7071C17.5196 16.8947 17.2652 17 17 17H3C2.73478 17 2.48043 16.8947 2.29289 16.7071C2.10536 16.5196 2 16.2652 2 16V3.00002C2 2.73481 2.10536 2.48045 2.29289 2.29292C2.48043 2.10538 2.73478 2.00002 3 2.00002H7.56C7.76964 1.99948 7.97416 2.06484 8.14463 2.18686C8.3151 2.30889 8.44291 2.4814 8.51 2.68002L9.05 4.32002C9.11709 4.51864 9.2449 4.69116 9.41537 4.81318C9.58584 4.9352 9.79036 5.00056 10 5.00002H17C17.2652 5.00002 17.5196 5.10538 17.7071 5.29292C17.8946 5.48045 18 5.73481 18 6.00002V16Z" fill="var(--fill-0, #1E1F26)"/>
</svg>
