<svg preserveAspectRatio="none" width="100%" height="100%" overflow="visible" style="display: block;" viewBox="0 0 20.0099 18.4749" fill="none" xmlns="http://www.w3.org/2000/svg">
<path id="Vector" d="M18.172 1.84907C17.1103 0.787078 15.7027 0.141398 14.2052 0.0294528C12.7077 -0.0824924 11.2198 0.346733 10.012 1.23907C8.73965 0.292709 7.15599 -0.136417 5.57991 0.038109C4.00384 0.212635 2.55243 0.977849 1.51797 2.17966C0.483501 3.38146 -0.0571834 4.93059 0.0047954 6.51509C0.0667742 8.09958 0.726812 9.60174 1.85199 10.7191L9.30199 18.1791C9.39496 18.2728 9.50556 18.3472 9.62742 18.398C9.74928 18.4487 9.87998 18.4749 10.012 18.4749C10.144 18.4749 10.2747 18.4487 10.3966 18.398C10.5184 18.3472 10.629 18.2728 10.722 18.1791L18.172 10.7191C18.7546 10.1368 19.2169 9.44541 19.5322 8.68444C19.8476 7.92346 20.0099 7.1078 20.0099 6.28407C20.0099 5.46034 19.8476 4.64468 19.5322 3.88371C19.2169 3.12273 18.7546 2.43135 18.172 1.84907V1.84907ZM16.762 9.29907L10.012 16.0491L3.26199 9.29907C2.48741 8.54258 2.02993 7.51954 1.98254 6.43787C1.93515 5.3562 2.3014 4.29707 3.00686 3.47574C3.71231 2.6544 4.70403 2.1325 5.78047 2.0161C6.8569 1.8997 7.93727 2.19753 8.80199 2.84907L7.09199 6.84907C7.03257 6.97935 7.00182 7.12088 7.00182 7.26407C7.00182 7.40727 7.03257 7.54879 7.09199 7.67907C7.1555 7.80921 7.24652 7.924 7.35875 8.01551C7.47097 8.10702 7.60174 8.17306 7.74199 8.20907L10.512 8.90907L9.11199 11.7991C9.05397 11.9172 9.01984 12.0457 9.01157 12.177C9.00329 12.3084 9.02103 12.4401 9.06376 12.5646C9.1065 12.6891 9.17339 12.8039 9.26061 12.9025C9.34782 13.0011 9.45364 13.0815 9.57199 13.1391C9.70913 13.2055 9.85962 13.2397 10.012 13.2391C10.1994 13.2394 10.3832 13.1871 10.5423 13.0881C10.7014 12.9891 10.8295 12.8474 10.912 12.6791L12.912 8.67907C12.976 8.54475 13.0092 8.39785 13.0092 8.24907C13.0092 8.10029 12.976 7.95339 12.912 7.81907C12.8459 7.68498 12.7519 7.56656 12.6364 7.4717C12.5209 7.37685 12.3864 7.30777 12.242 7.26907L9.41199 6.55907L10.862 3.16907C11.6749 2.38403 12.7663 1.95406 13.8962 1.97375C15.0261 1.99344 16.102 2.46118 16.887 3.27407C17.672 4.08696 18.102 5.17841 18.0823 6.30832C18.0626 7.43822 17.5949 8.51403 16.782 9.29907H16.762Z" fill="var(--fill-0, #1E1F26)"/>
</svg>
