<svg preserveAspectRatio="none" width="100%" height="100%" overflow="visible" style="display: block;" viewBox="0 0 19.4314 19.9831" fill="none" xmlns="http://www.w3.org/2000/svg">
<path id="Vector" d="M9.72072 10.983C10.3141 10.983 10.8941 10.807 11.3874 10.4774C11.8808 10.1477 12.2653 9.67921 12.4924 9.13103C12.7194 8.58286 12.7788 7.97966 12.6631 7.39771C12.5473 6.81577 12.2616 6.28122 11.842 5.86166C11.4225 5.44211 10.8879 5.15638 10.306 5.04063C9.72404 4.92487 9.12084 4.98428 8.57267 5.21134C8.02449 5.43841 7.55595 5.82293 7.22631 6.31627C6.89666 6.80962 6.72072 7.38964 6.72072 7.98298C6.72072 8.77863 7.03679 9.5417 7.59939 10.1043C8.162 10.6669 8.92507 10.983 9.72072 10.983ZM9.72072 6.98298C9.9185 6.98298 10.1118 7.04163 10.2763 7.15151C10.4407 7.2614 10.5689 7.41757 10.6446 7.6003C10.7203 7.78303 10.7401 7.98409 10.7015 8.17807C10.6629 8.37205 10.5677 8.55024 10.4278 8.69009C10.288 8.82994 10.1098 8.92518 9.91581 8.96377C9.72182 9.00235 9.52076 8.98255 9.33803 8.90686C9.15531 8.83118 8.99913 8.703 8.88925 8.53855C8.77936 8.37411 8.72072 8.18076 8.72072 7.98298C8.72072 7.71777 8.82607 7.46341 9.01361 7.27588C9.20115 7.08834 9.4555 6.98298 9.72072 6.98298V6.98298ZM19.3107 16.143C18.8224 14.5235 17.9313 13.0544 16.7207 11.873C17.3946 10.655 17.739 9.28237 17.72 7.89057C17.7009 6.49878 17.3191 5.13603 16.6122 3.93699C15.9052 2.73794 14.8977 1.74409 13.6891 1.05363C12.4805 0.363171 11.1126 0 9.72072 0C8.32879 0 6.96095 0.363171 5.75235 1.05363C4.54374 1.74409 3.5362 2.73794 2.82928 3.93699C2.12235 5.13603 1.7405 6.49878 1.72146 7.89057C1.70242 9.28237 2.04685 10.655 2.72072 11.873C1.50303 13.0505 0.607816 14.5207 0.120715 16.143C-0.00945495 16.5879 -0.0347597 17.0569 0.0467868 17.5132C0.128333 17.9695 0.314513 18.4007 0.590715 18.773C0.872124 19.1515 1.23882 19.4583 1.66103 19.6686C2.08324 19.8788 2.54907 19.9865 3.02072 19.983H16.4207C16.8907 19.9849 17.3545 19.8765 17.7749 19.6663C18.1952 19.4561 18.5603 19.1501 18.8407 18.773C19.1169 18.4007 19.3031 17.9695 19.3846 17.5132C19.4662 17.0569 19.4409 16.5879 19.3107 16.143ZM9.72072 1.98298C10.9074 1.98298 12.0674 2.33488 13.0541 2.99417C14.0408 3.65345 14.8099 4.59053 15.264 5.68688C15.7181 6.78324 15.8369 7.98964 15.6054 9.15353C15.3739 10.3174 14.8025 11.3865 13.9634 12.2256C13.1242 13.0647 12.0551 13.6362 10.8913 13.8677C9.72737 14.0992 8.52097 13.9804 7.42461 13.5263C6.32826 13.0721 5.39119 12.3031 4.7319 11.3164C4.07261 10.3297 3.72072 9.16967 3.72072 7.98298C3.72072 6.39168 4.35286 4.86556 5.47807 3.74034C6.60329 2.61512 8.12942 1.98298 9.72072 1.98298V1.98298ZM17.2407 17.573C17.1466 17.7018 17.0231 17.8062 16.8805 17.8775C16.7378 17.9488 16.5802 17.985 16.4207 17.983H3.02072C2.86124 17.985 2.70361 17.9488 2.56096 17.8775C2.41832 17.8062 2.2948 17.7018 2.20072 17.573C2.1108 17.4491 2.05052 17.3063 2.02451 17.1554C1.9985 17.0046 2.00747 16.8498 2.05071 16.703C2.40968 15.4942 3.05453 14.3898 3.93072 13.483C4.67782 14.2666 5.57619 14.8903 6.57143 15.3165C7.56667 15.7427 8.63806 15.9625 9.72072 15.9625C10.8034 15.9625 11.8748 15.7427 12.87 15.3165C13.8652 14.8903 14.7636 14.2666 15.5107 13.483C16.3869 14.3898 17.0318 15.4942 17.3907 16.703C17.434 16.8498 17.4429 17.0046 17.4169 17.1554C17.3909 17.3063 17.3306 17.4491 17.2407 17.573Z" fill="var(--fill-0, #1E1F26)"/>
</svg>
