<svg preserveAspectRatio="none" width="100%" height="100%" overflow="visible" style="display: block;" viewBox="0 0 20 20.0023" fill="none" xmlns="http://www.w3.org/2000/svg">
<path id="Vector" d="M1 7.00233C0.868668 7.00229 0.738616 7.02814 0.617275 7.07838C0.495933 7.12862 0.38568 7.20228 0.292814 7.29514C0.199949 7.38801 0.12629 7.49826 0.0760483 7.61961C0.0258062 7.74095 -3.54375e-05 7.871 3.6473e-08 8.00233V12.0023C3.6473e-08 12.2675 0.105357 12.5219 0.292893 12.7094C0.480429 12.897 0.734783 13.0023 1 13.0023C1.26522 13.0023 1.51957 12.897 1.70711 12.7094C1.89464 12.5219 2 12.2675 2 12.0023V8.00233C2.00004 7.871 1.97419 7.74095 1.92395 7.61961C1.87371 7.49826 1.80005 7.38801 1.70719 7.29514C1.61432 7.20228 1.50407 7.12862 1.38273 7.07838C1.26138 7.02814 1.13133 7.00229 1 7.00233V7.00233ZM19 7.00233C18.8687 7.00229 18.7386 7.02814 18.6173 7.07838C18.4959 7.12862 18.3857 7.20228 18.2928 7.29514C18.1999 7.38801 18.1263 7.49826 18.076 7.61961C18.0258 7.74095 18 7.871 18 8.00233V12.0023C18 12.2675 18.1054 12.5219 18.2929 12.7094C18.4804 12.897 18.7348 13.0023 19 13.0023C19.2652 13.0023 19.5196 12.897 19.7071 12.7094C19.8946 12.5219 20 12.2675 20 12.0023V8.00233C20 7.871 19.9742 7.74095 19.924 7.61961C19.8737 7.49826 19.8001 7.38801 19.7072 7.29514C19.6143 7.20228 19.5041 7.12862 19.3827 7.07838C19.2614 7.02814 19.1313 7.00229 19 7.00233ZM14.8657 1.50233C14.9318 1.38862 14.9749 1.26298 14.9924 1.13261C15.0098 1.00224 15.0014 0.869694 14.9676 0.742581C14.9338 0.615468 14.8752 0.496281 14.7952 0.391852C14.7152 0.287422 14.6154 0.199803 14.5015 0.134016C14.3876 0.068229 14.2618 0.0255671 14.1314 0.00847541C14.001 -0.00861629 13.8685 0.00019835 13.7414 0.0344139C13.6144 0.0686295 13.4954 0.127573 13.3912 0.207867C13.287 0.288162 13.1997 0.388228 13.1343 0.50233L12.5201 1.56471C11.7316 1.19435 10.8712 1.00233 10 1.00233C9.12883 1.00233 8.26838 1.19435 7.47986 1.56471L6.86572 0.50233C6.80027 0.388228 6.71295 0.288162 6.60876 0.207867C6.50458 0.127573 6.38556 0.0686295 6.25855 0.0344139C6.13154 0.00019835 5.99903 -0.00861629 5.8686 0.00847541C5.73818 0.0255671 5.61241 0.068229 5.4985 0.134016C5.38459 0.199803 5.28479 0.287422 5.20481 0.391852C5.12483 0.496281 5.06624 0.615468 5.0324 0.742581C4.99857 0.869694 4.99015 1.00224 5.00763 1.13261C5.02511 1.26298 5.06815 1.38862 5.13428 1.50233L5.82678 2.70027C5.24899 3.25793 4.78946 3.92627 4.4756 4.6654C4.16174 5.40454 3.99999 6.19932 4 7.00233V15.0023C3.99997 15.1337 4.02581 15.2637 4.07605 15.3851C4.12629 15.5064 4.19995 15.6166 4.29282 15.7095C4.38568 15.8024 4.49594 15.876 4.61728 15.9263C4.73862 15.9765 4.86867 16.0024 5 16.0023H7V19.0023C7 19.2675 7.10536 19.5219 7.29289 19.7094C7.48043 19.897 7.73478 20.0023 8 20.0023C8.26522 20.0023 8.51957 19.897 8.70711 19.7094C8.89464 19.5219 9 19.2675 9 19.0023V16.0023H11V19.0023C11 19.2675 11.1054 19.5219 11.2929 19.7094C11.4804 19.897 11.7348 20.0023 12 20.0023C12.2652 20.0023 12.5196 19.897 12.7071 19.7094C12.8946 19.5219 13 19.2675 13 19.0023V16.0023H15C15.1313 16.0024 15.2614 15.9765 15.3827 15.9263C15.5041 15.876 15.6143 15.8024 15.7072 15.7095C15.8 15.6166 15.8737 15.5064 15.9239 15.3851C15.9742 15.2637 16 15.1337 16 15.0023V7.00233C16 6.19932 15.8383 5.40454 15.5244 4.6654C15.2105 3.92627 14.751 3.25793 14.1732 2.70027L14.8657 1.50233ZM14 14.0023H6V9.00233H14V14.0023ZM6 7.00233C6 5.94146 6.42143 4.92405 7.17157 4.1739C7.92172 3.42376 8.93913 3.00233 10 3.00233C11.0609 3.00233 12.0783 3.42376 12.8284 4.1739C13.5786 4.92405 14 5.94146 14 7.00233H6Z" fill="var(--fill-0, #1E1F26)"/>
</svg>
