<svg preserveAspectRatio="none" width="100%" height="100%" overflow="visible" style="display: block;" viewBox="0 0 20 20.0003" fill="none" xmlns="http://www.w3.org/2000/svg">
<path id="Vector" d="M10 4.35C9.42863 4.05705 8.77978 3.95062 8.14476 4.04569C7.50975 4.14077 6.92052 4.43256 6.46 4.88C5.8982 5.4425 5.58264 6.205 5.58264 7C5.58264 7.795 5.8982 8.5575 6.46 9.12L9.29 12C9.38296 12.0937 9.49356 12.1681 9.61542 12.2189C9.73728 12.2697 9.86799 12.2958 10 12.2958C10.132 12.2958 10.2627 12.2697 10.3846 12.2189C10.5064 12.1681 10.617 12.0937 10.71 12L13.54 9.17C14.1018 8.6075 14.4174 7.845 14.4174 7.05C14.4174 6.255 14.1018 5.4925 13.54 4.93C13.0852 4.47439 12.4988 4.17326 11.8635 4.06918C11.2283 3.9651 10.5764 4.06333 10 4.35V4.35ZM12.12 7.71L10 9.83L7.88 7.71C7.78627 7.61704 7.71188 7.50644 7.66111 7.38458C7.61034 7.26272 7.5842 7.13201 7.5842 7C7.5842 6.86799 7.61034 6.73728 7.66111 6.61542C7.71188 6.49356 7.78627 6.38296 7.88 6.29C8.06736 6.10375 8.32081 5.99921 8.585 5.99921C8.84919 5.99921 9.10264 6.10375 9.29 6.29C9.38296 6.38373 9.49356 6.45812 9.61542 6.50889C9.73728 6.55966 9.86799 6.5858 10 6.5858C10.132 6.5858 10.2627 6.55966 10.3846 6.50889C10.5064 6.45812 10.617 6.38373 10.71 6.29C10.8974 6.10375 11.1508 5.99921 11.415 5.99921C11.6792 5.99921 11.9326 6.10375 12.12 6.29C12.2137 6.38296 12.2881 6.49356 12.3389 6.61542C12.3897 6.73728 12.4158 6.86799 12.4158 7C12.4158 7.13201 12.3897 7.26272 12.3389 7.38458C12.2881 7.50644 12.2137 7.61704 12.12 7.71V7.71ZM17 0H3C2.20435 0 1.44129 0.316071 0.87868 0.87868C0.316071 1.44129 0 2.20435 0 3V13C0 13.7956 0.316071 14.5587 0.87868 15.1213C1.44129 15.6839 2.20435 16 3 16H14.59L18.29 19.71C18.3834 19.8027 18.4943 19.876 18.6161 19.9258C18.7379 19.9755 18.8684 20.0008 19 20C19.1312 20.0034 19.2613 19.976 19.38 19.92C19.5626 19.845 19.7189 19.7176 19.8293 19.5539C19.9396 19.3901 19.999 19.1974 20 19V3C20 2.20435 19.6839 1.44129 19.1213 0.87868C18.5587 0.316071 17.7956 0 17 0ZM18 16.59L15.71 14.29C15.6166 14.1973 15.5057 14.124 15.3839 14.0742C15.2621 14.0245 15.1316 13.9992 15 14H3C2.73478 14 2.48043 13.8946 2.29289 13.7071C2.10536 13.5196 2 13.2652 2 13V3C2 2.73478 2.10536 2.48043 2.29289 2.29289C2.48043 2.10536 2.73478 2 3 2H17C17.2652 2 17.5196 2.10536 17.7071 2.29289C17.8946 2.48043 18 2.73478 18 3V16.59Z" fill="var(--fill-0, #1E1F26)"/>
</svg>
