<svg preserveAspectRatio="none" width="100%" height="100%" overflow="visible" style="display: block;" viewBox="0 0 20.0037 19.0058" fill="none" xmlns="http://www.w3.org/2000/svg">
<path id="Vector" d="M19 11.0058C18.7348 11.0058 18.4804 11.1112 18.2929 11.2987C18.1054 11.4862 18 11.7406 18 12.0058V16.0058C18 16.271 17.8946 16.5254 17.7071 16.7129C17.5196 16.9004 17.2652 17.0058 17 17.0058H3C2.73478 17.0058 2.48043 16.9004 2.29289 16.7129C2.10536 16.5254 2 16.271 2 16.0058V6.4158L7.88 12.2958C8.4425 12.8576 9.205 13.1732 10 13.1732C10.795 13.1732 11.5575 12.8576 12.12 12.2958L15.71 8.7158C15.8983 8.52749 16.0041 8.2721 16.0041 8.0058C16.0041 7.7395 15.8983 7.4841 15.71 7.2958C15.5217 7.10749 15.2663 7.00171 15 7.00171C14.7337 7.00171 14.4783 7.10749 14.29 7.2958L10.71 10.8858C10.617 10.9795 10.5064 11.0539 10.3846 11.1047C10.2627 11.1555 10.132 11.1816 10 11.1816C9.86799 11.1816 9.73728 11.1555 9.61542 11.1047C9.49356 11.0539 9.38296 10.9795 9.29 10.8858L3.41 5.0058H15C15.2652 5.0058 15.5196 4.90044 15.7071 4.7129C15.8946 4.52537 16 4.27101 16 4.0058C16 3.74058 15.8946 3.48623 15.7071 3.29869C15.5196 3.11116 15.2652 3.0058 15 3.0058H3C2.20435 3.0058 1.44129 3.32187 0.87868 3.88448C0.316071 4.44709 0 5.21015 0 6.0058V16.0058C0 16.8014 0.316071 17.5645 0.87868 18.1271C1.44129 18.6897 2.20435 19.0058 3 19.0058H17C17.7956 19.0058 18.5587 18.6897 19.1213 18.1271C19.6839 17.5645 20 16.8014 20 16.0058V12.0058C20 11.7406 19.8946 11.4862 19.7071 11.2987C19.5196 11.1112 19.2652 11.0058 19 11.0058ZM19 2.0058C19.2648 2.00211 19.5184 1.89853 19.71 1.7158L19.83 1.5558C19.8696 1.50475 19.9 1.44723 19.92 1.3858C19.9558 1.33029 19.9828 1.26957 20 1.2058C20.0049 1.13922 20.0049 1.07237 20 1.0058C19.9963 0.741031 19.8927 0.487432 19.71 0.295798C19.617 0.20207 19.5064 0.127676 19.3846 0.0769069C19.2627 0.0261382 19.132 0 19 0C18.868 0 18.7373 0.0261382 18.6154 0.0769069C18.4936 0.127676 18.383 0.20207 18.29 0.295798C18.1963 0.388761 18.1219 0.499363 18.0711 0.621222C18.0203 0.743081 17.9942 0.873786 17.9942 1.0058C17.9942 1.13781 18.0203 1.26852 18.0711 1.39037C18.1219 1.51223 18.1963 1.62284 18.29 1.7158C18.4816 1.89853 18.7352 2.00211 19 2.0058ZM19 3.0058C18.7348 3.0058 18.4804 3.11116 18.2929 3.29869C18.1054 3.48623 18 3.74058 18 4.0058V8.0058C18 8.27101 18.1054 8.52537 18.2929 8.7129C18.4804 8.90044 18.7348 9.0058 19 9.0058C19.2652 9.0058 19.5196 8.90044 19.7071 8.7129C19.8946 8.52537 20 8.27101 20 8.0058V4.0058C20 3.74058 19.8946 3.48623 19.7071 3.29869C19.5196 3.11116 19.2652 3.0058 19 3.0058Z" fill="var(--fill-0, #1E1F26)"/>
</svg>
