<svg preserveAspectRatio="none" width="100%" height="100%" overflow="visible" style="display: block;" viewBox="0 0 22 22" fill="none" xmlns="http://www.w3.org/2000/svg">
<path id="Vector" d="M15 14H9.82C9.93643 13.6793 9.9973 13.3411 10 13V12H12.5C12.7652 12 13.0196 11.8946 13.2071 11.7071C13.3946 11.5196 13.5 11.2652 13.5 11C13.5 10.7348 13.3946 10.4804 13.2071 10.2929C13.0196 10.1054 12.7652 10 12.5 10H10V9C9.9978 8.57137 10.1369 8.15395 10.3957 7.8123C10.6546 7.47066 11.0188 7.22383 11.4321 7.10999C11.8453 6.99615 12.2846 7.02164 12.6819 7.18252C13.0792 7.3434 13.4124 7.6307 13.63 8C13.7626 8.23074 13.9815 8.39935 14.2384 8.46874C14.4953 8.53813 14.7693 8.50261 15 8.37C15.2307 8.23739 15.3994 8.01855 15.4687 7.76163C15.5381 7.5047 15.5026 7.23074 15.37 7C14.9116 6.28106 14.2355 5.72739 13.4403 5.41977C12.6451 5.11215 11.7725 5.06667 10.9496 5.28998C10.1267 5.51328 9.39673 5.99367 8.86613 6.66108C8.33552 7.32848 8.03205 8.14798 8 9V10H7C6.73479 10 6.48043 10.1054 6.2929 10.2929C6.10536 10.4804 6 10.7348 6 11C6 11.2652 6.10536 11.5196 6.2929 11.7071C6.48043 11.8946 6.73479 12 7 12H8V13C8 13.2652 7.89465 13.5196 7.70711 13.7071C7.51957 13.8946 7.26522 14 7 14C6.73479 14 6.48043 14.1054 6.2929 14.2929C6.10536 14.4804 6 14.7348 6 15C6 15.2652 6.10536 15.5196 6.2929 15.7071C6.48043 15.8946 6.73479 16 7 16H15C15.2652 16 15.5196 15.8946 15.7071 15.7071C15.8946 15.5196 16 15.2652 16 15C16 14.7348 15.8946 14.4804 15.7071 14.2929C15.5196 14.1054 15.2652 14 15 14ZM11 0C8.82441 0 6.69767 0.645139 4.88873 1.85383C3.07979 3.06253 1.66989 4.78049 0.83733 6.79048C0.00476616 8.80047 -0.213071 11.0122 0.211367 13.146C0.635804 15.2798 1.68345 17.2398 3.22183 18.7782C4.76021 20.3166 6.72022 21.3642 8.85401 21.7886C10.9878 22.2131 13.1995 21.9952 15.2095 21.1627C17.2195 20.3301 18.9375 18.9202 20.1462 17.1113C21.3549 15.3023 22 13.1756 22 11C22 8.08262 20.8411 5.28473 18.7782 3.22183C16.7153 1.15893 13.9174 0 11 0V0ZM11 20C9.21997 20 7.47992 19.4722 5.99987 18.4832C4.51983 17.4943 3.36628 16.0887 2.68509 14.4442C2.0039 12.7996 1.82567 10.99 2.17294 9.24419C2.5202 7.49836 3.37737 5.89471 4.63604 4.63604C5.89472 3.37737 7.49836 2.5202 9.24419 2.17293C10.99 1.82567 12.7996 2.0039 14.4442 2.68508C16.0887 3.36627 17.4943 4.51983 18.4832 5.99987C19.4722 7.47991 20 9.21997 20 11C20 13.3869 19.0518 15.6761 17.364 17.364C15.6761 19.0518 13.387 20 11 20V20Z" fill="var(--fill-0, #1E1F26)"/>
</svg>
