<svg preserveAspectRatio="none" width="100%" height="100%" overflow="visible" style="display: block;" viewBox="0 0 19.0408 19.0008" fill="none" xmlns="http://www.w3.org/2000/svg">
<path id="Vector" d="M16.0008 3.00079H12.0008C11.7356 3.00079 11.4812 3.10615 11.2937 3.29369C11.1061 3.48122 11.0008 3.73558 11.0008 4.00079C11.0008 4.26601 11.1061 4.52036 11.2937 4.7079C11.4812 4.89544 11.7356 5.00079 12.0008 5.00079H16.0008C16.266 5.00079 16.5204 5.10615 16.7079 5.29369C16.8954 5.48122 17.0008 5.73558 17.0008 6.00079V15.7208L15.4308 14.2708C15.2464 14.0981 15.0034 14.0017 14.7508 14.0008H6.00079C5.73558 14.0008 5.48122 13.8954 5.29369 13.7079C5.10615 13.5204 5.00079 13.266 5.00079 13.0008V12.0008C5.00079 11.7356 4.89544 11.4812 4.7079 11.2937C4.52036 11.1061 4.26601 11.0008 4.00079 11.0008C3.73558 11.0008 3.48122 11.1061 3.29369 11.2937C3.10615 11.4812 3.00079 11.7356 3.00079 12.0008V13.0008C3.00079 13.7964 3.31686 14.5595 3.87947 15.1221C4.44208 15.6847 5.20514 16.0008 6.00079 16.0008H14.3608L17.3608 18.7308C17.5452 18.9035 17.7882 18.9999 18.0408 19.0008C18.1779 18.9993 18.3136 18.9722 18.4408 18.9208C18.6197 18.8427 18.7718 18.714 18.8784 18.5505C18.985 18.3871 19.0415 18.196 19.0408 18.0008V6.00079C19.0408 5.60344 18.9619 5.21004 18.8087 4.84343C18.6554 4.47682 18.4308 4.14431 18.148 3.8652C17.8652 3.5861 17.5297 3.36596 17.1611 3.21757C16.7925 3.06918 16.3981 2.99549 16.0008 3.00079V3.00079ZM6.58079 10.0008H9.00079C9.26601 10.0008 9.52036 9.89544 9.7079 9.7079C9.89544 9.52036 10.0008 9.26601 10.0008 9.00079V6.58079C10.0016 6.44919 9.97633 6.31872 9.92656 6.19689C9.8768 6.07505 9.80347 5.96423 9.71079 5.87079L4.13079 0.290793C3.94343 0.104542 3.68998 0 3.42579 0C3.16161 0 2.90815 0.104542 2.72079 0.290793L0.290793 2.72079C0.104542 2.90815 0 3.16161 0 3.42579C0 3.68998 0.104542 3.94343 0.290793 4.13079L5.87079 9.71079C5.96423 9.80347 6.07505 9.8768 6.19689 9.92656C6.31872 9.97633 6.44919 10.0016 6.58079 10.0008V10.0008ZM3.42079 2.41079L8.00079 6.99079V7.99079H7.00079L2.41079 3.42079L3.42079 2.41079Z" fill="var(--fill-0, #1E1F26)"/>
</svg>
