<svg preserveAspectRatio="none" width="100%" height="100%" overflow="visible" style="display: block;" viewBox="0 0 8.02413 10.5516" fill="none" xmlns="http://www.w3.org/2000/svg">
<path id="Vector" d="M4.72833 5.7958C4.63537 5.70207 4.52477 5.62768 4.40291 5.57691C4.28105 5.52614 4.15034 5.5 4.01833 5.5C3.88632 5.5 3.75561 5.52614 3.63376 5.57691C3.5119 5.62768 3.40129 5.70207 3.30833 5.7958L0.308332 8.7958C0.114724 8.9841 0.00384906 9.2416 9.83321e-05 9.51166C-0.00365239 9.78171 0.100029 10.0422 0.288333 10.2358C0.476636 10.4294 0.734138 10.5403 1.00419 10.544C1.27424 10.5478 1.53472 10.4441 1.72833 10.2558L4.01833 7.9158L6.30833 10.2558C6.40129 10.3495 6.5119 10.4239 6.63376 10.4747C6.75561 10.5255 6.88632 10.5516 7.01833 10.5516C7.15034 10.5516 7.28105 10.5255 7.40291 10.4747C7.52477 10.4239 7.63537 10.3495 7.72833 10.2558C7.82206 10.1628 7.89645 10.0522 7.94722 9.93037C7.99799 9.80851 8.02413 9.67781 8.02413 9.5458C8.02413 9.41379 7.99799 9.28308 7.94722 9.16122C7.89645 9.03936 7.82206 8.92876 7.72833 8.8358L4.72833 5.7958ZM1.72833 4.7158L4.01833 2.4158L6.30833 4.7158C6.40129 4.80953 6.5119 4.88392 6.63376 4.93469C6.75561 4.98546 6.88632 5.0116 7.01833 5.0116C7.15034 5.0116 7.28105 4.98546 7.40291 4.93469C7.52477 4.88392 7.63537 4.80953 7.72833 4.7158C7.82206 4.62284 7.89645 4.51223 7.94722 4.39038C7.99799 4.26852 8.02413 4.13781 8.02413 4.0058C8.02413 3.87379 7.99799 3.74308 7.94722 3.62122C7.89645 3.49936 7.82206 3.38876 7.72833 3.2958L4.72833 0.295798C4.63537 0.20207 4.52477 0.127676 4.40291 0.0769072C4.28105 0.0261385 4.15034 0 4.01833 0C3.88632 0 3.75561 0.0261385 3.63376 0.0769072C3.5119 0.127676 3.40129 0.20207 3.30833 0.295798L0.308332 3.2958C0.120028 3.4841 0.0142404 3.7395 0.0142404 4.0058C0.0142404 4.2721 0.120028 4.52749 0.308332 4.7158C0.496636 4.9041 0.75203 5.00989 1.01833 5.00989C1.28463 5.00989 1.54003 4.9041 1.72833 4.7158V4.7158Z" fill="var(--fill-0, #1E1F26)"/>
</svg>
