<svg preserveAspectRatio="none" width="100%" height="100%" overflow="visible" style="display: block;" viewBox="0 0 20.0146 16.0196" fill="none" xmlns="http://www.w3.org/2000/svg">
<path id="Vector" d="M19.695 5.08962C19.5745 4.97129 19.4261 4.88539 19.2634 4.83993C19.1008 4.79446 18.9293 4.79092 18.765 4.82962C18.5484 4.87965 18.3272 4.90646 18.105 4.90962C17.3093 4.90962 16.5463 4.59355 15.9837 4.03094C15.4211 3.46834 15.105 2.70527 15.105 1.90962C15.1081 1.68741 15.135 1.46616 15.185 1.24962C15.2237 1.08526 15.2201 0.91378 15.1747 0.75116C15.1292 0.588541 15.0433 0.440082 14.925 0.319624C14.8086 0.194239 14.6619 0.100816 14.4991 0.0482915C14.3363 -0.00423339 14.1627 -0.0141039 13.995 0.0196241C12.9997 0.239363 12.097 0.762182 11.4111 1.51612C10.7252 2.27006 10.2899 3.21806 10.165 4.22962C9.62035 4.08452 9.05858 4.01388 8.49498 4.01962C7.05384 4.01881 5.66054 4.53672 4.56985 5.47868C3.47916 6.42065 2.76395 7.72371 2.55498 9.14962C1.74117 9.37783 1.03743 9.89282 0.573745 10.5995C0.110055 11.3061 -0.0822603 12.1567 0.0323182 12.9941C0.146897 13.8315 0.560629 14.5992 1.1971 15.1553C1.83357 15.7114 2.64978 16.0184 3.49498 16.0196H12.665C13.8134 16.0196 14.9147 15.5634 15.7268 14.7514C16.5388 13.9394 16.995 12.838 16.995 11.6896C16.9989 10.9928 16.8306 10.3058 16.505 9.68962C17.3638 9.4498 18.1416 8.98202 18.7561 8.33589C19.3705 7.68975 19.7986 6.88937 19.995 6.01962C20.0287 5.85189 20.0188 5.67831 19.9663 5.51548C19.9138 5.35266 19.8204 5.20603 19.695 5.08962V5.08962ZM12.695 14.0196H3.49498C3.09716 14.0196 2.71563 13.8616 2.43432 13.5803C2.15302 13.299 1.99498 12.9174 1.99498 12.5196C1.99498 12.1218 2.15302 11.7403 2.43432 11.459C2.71563 11.1777 3.09716 11.0196 3.49498 11.0196C3.7602 11.0196 4.01455 10.9143 4.20209 10.7267C4.38962 10.5392 4.49498 10.2848 4.49498 10.0196C4.49745 9.30073 4.69361 8.5958 5.06283 7.97896C5.43206 7.36213 5.96069 6.8562 6.59313 6.5144C7.22557 6.17259 7.93843 6.00755 8.65674 6.03663C9.37504 6.0657 10.0722 6.28782 10.675 6.67962V6.67962C11.405 7.15447 11.9571 7.85777 12.245 8.67962C12.3021 8.85146 12.4049 9.00456 12.5423 9.12256C12.6796 9.24056 12.8465 9.31904 13.025 9.34962C13.3316 9.37326 13.6306 9.45706 13.9048 9.59625C14.1791 9.73543 14.4232 9.92727 14.6234 10.1608C14.8235 10.3943 14.9756 10.665 15.0711 10.9574C15.1666 11.2497 15.2036 11.558 15.18 11.8646C15.1563 12.1713 15.0725 12.4702 14.9334 12.7445C14.7942 13.0187 14.6023 13.2629 14.3688 13.463C14.1353 13.6631 13.8646 13.8153 13.5722 13.9108C13.2799 14.0063 12.9716 14.0433 12.665 14.0196H12.695ZM15.135 7.90962C14.9952 7.92091 14.8548 7.92091 14.715 7.90962C14.4842 7.78599 14.2434 7.68228 13.995 7.59962C13.583 6.70276 12.9583 5.92008 12.175 5.31962C12.175 5.19962 12.175 5.06962 12.175 4.94962C12.175 4.5163 12.2688 4.08812 12.4501 3.69453C12.6313 3.30094 12.8957 2.95128 13.225 2.66962C13.3798 3.73648 13.8753 4.72472 14.6376 5.487C15.3999 6.24929 16.3881 6.74479 17.455 6.89962C17.1619 7.23076 16.7993 7.49302 16.393 7.66763C15.9868 7.84224 15.5469 7.92487 15.105 7.90962H15.135Z" fill="var(--fill-0, #1E1F26)"/>
</svg>
