<svg preserveAspectRatio="none" width="100%" height="100%" overflow="visible" style="display: block;" viewBox="0 0 18 20.0052" fill="none" xmlns="http://www.w3.org/2000/svg">
<path id="Vector" d="M15 5.00516H14.65C14.8782 4.53793 14.9979 4.02515 15 3.50516C15.003 2.80849 14.7975 2.12685 14.4098 1.548C14.0221 0.969136 13.4701 0.519548 12.8247 0.257103C12.1794 -0.0053423 11.4703 -0.0686333 10.7886 0.0753768C10.107 0.219387 9.48405 0.564107 9 1.06516C8.51595 0.564107 7.89302 0.219387 7.21138 0.0753768C6.52975 -0.0686333 5.82061 -0.0053423 5.17525 0.257103C4.5299 0.519548 3.97786 0.969136 3.59019 1.548C3.20252 2.12685 2.99697 2.80849 3 3.50516C3.00213 4.02515 3.12178 4.53793 3.35 5.00516H3C2.20435 5.00516 1.44129 5.32124 0.87868 5.88384C0.316071 6.44645 0 7.20951 0 8.00516V10.0052C0 10.2704 0.105357 10.5247 0.292893 10.7123C0.48043 10.8998 0.734784 11.0052 1 11.0052H2V17.0052C2 17.8008 2.31607 18.5639 2.87868 19.1265C3.44129 19.6891 4.20435 20.0052 5 20.0052H13C13.7956 20.0052 14.5587 19.6891 15.1213 19.1265C15.6839 18.5639 16 17.8008 16 17.0052V11.0052H17C17.2652 11.0052 17.5196 10.8998 17.7071 10.7123C17.8946 10.5247 18 10.2704 18 10.0052V8.00516C18 7.20951 17.6839 6.44645 17.1213 5.88384C16.5587 5.32124 15.7956 5.00516 15 5.00516ZM8 18.0052H5C4.73478 18.0052 4.48043 17.8998 4.29289 17.7123C4.10536 17.5247 4 17.2704 4 17.0052V11.0052H8V18.0052ZM8 9.00516H2V8.00516C2 7.73995 2.10536 7.48559 2.29289 7.29806C2.48043 7.11052 2.73478 7.00516 3 7.00516H8V9.00516ZM8 5.00516H6.5C6.20333 5.00516 5.91332 4.91719 5.66665 4.75237C5.41997 4.58755 5.22771 4.35328 5.11418 4.07919C5.00065 3.8051 4.97094 3.5035 5.02882 3.21253C5.0867 2.92156 5.22956 2.65428 5.43934 2.4445C5.64912 2.23473 5.91639 2.09186 6.20736 2.03399C6.49834 1.97611 6.79994 2.00581 7.07403 2.11934C7.34811 2.23288 7.58238 2.42514 7.7472 2.67181C7.91203 2.91848 8 3.20849 8 3.50516V5.00516ZM10 3.50516C10 3.20849 10.088 2.91848 10.2528 2.67181C10.4176 2.42514 10.6519 2.23288 10.926 2.11934C11.2001 2.00581 11.5017 1.97611 11.7926 2.03399C12.0836 2.09186 12.3509 2.23473 12.5607 2.4445C12.7704 2.65428 12.9133 2.92156 12.9712 3.21253C13.0291 3.5035 12.9994 3.8051 12.8858 4.07919C12.7723 4.35328 12.58 4.58755 12.3334 4.75237C12.0867 4.91719 11.7967 5.00516 11.5 5.00516H10V3.50516ZM14 17.0052C14 17.2704 13.8946 17.5247 13.7071 17.7123C13.5196 17.8998 13.2652 18.0052 13 18.0052H10V11.0052H14V17.0052ZM16 9.00516H10V7.00516H15C15.2652 7.00516 15.5196 7.11052 15.7071 7.29806C15.8946 7.48559 16 7.73995 16 8.00516V9.00516Z" fill="var(--fill-0, #1E1F26)"/>
</svg>
