<svg preserveAspectRatio="none" width="100%" height="100%" overflow="visible" style="display: block;" viewBox="0 0 19.5754 22.0003" fill="none" xmlns="http://www.w3.org/2000/svg">
<path id="Vector" d="M6.78765 6.68874C6.25722 6.68874 5.74851 6.89945 5.37344 7.27453C4.99836 7.6496 4.78765 8.15831 4.78765 8.68874C4.78765 9.21917 4.99836 9.72788 5.37344 10.103C5.74851 10.478 6.25722 10.6887 6.78765 10.6887L6.80279 10.6872V11.1887C6.80253 11.3212 6.74976 11.4482 6.65605 11.5419C6.56234 11.6357 6.43532 11.6884 6.30279 11.6887C6.03757 11.6887 5.78322 11.794 5.59568 11.9816C5.40815 12.1691 5.30279 12.4235 5.30279 12.6887C5.30279 12.9539 5.40815 13.2083 5.59568 13.3958C5.78322 13.5833 6.03757 13.6887 6.30279 13.6887C6.96564 13.6881 7.60117 13.4245 8.06988 12.9558C8.53859 12.4871 8.80218 11.8515 8.80279 11.1887V8.68868C8.79679 8.6378 8.78664 8.58749 8.77245 8.53825C8.73607 8.0364 8.51127 7.56686 8.14315 7.22383C7.77503 6.8808 7.29082 6.68966 6.78765 6.68874V6.68874ZM9.78716 0.000200677C7.2781 0.000249512 4.86489 0.963894 3.04592 2.69211C1.22695 4.42033 0.141171 6.78111 0.0128242 9.28689C-0.115523 11.7927 0.723368 14.252 2.35624 16.157C3.98911 18.0621 6.29124 19.2672 8.78716 19.5236V21.0003C8.78702 21.152 8.82144 21.3017 8.88781 21.4382C8.95417 21.5746 9.05073 21.6941 9.17017 21.7877C9.28961 21.8812 9.42879 21.9464 9.57715 21.9781C9.72551 22.0099 9.87915 22.0074 10.0264 21.971C12.5466 21.3473 14.811 19.9565 16.5068 17.9906C18.2026 16.0247 19.2461 13.5807 19.4932 10.9963C19.6734 9.61853 19.5565 8.2182 19.1505 6.88941C18.7444 5.56062 18.0586 4.33415 17.1391 3.29246C16.2196 2.25076 15.0878 1.41799 13.8197 0.850112C12.5516 0.282237 11.1766 -0.00757812 9.78716 0.000150609V0.000200677ZM17.5049 10.7805C17.3214 12.7364 16.5953 14.6023 15.4084 16.1677C14.2215 17.7332 12.621 18.9361 10.7872 19.6408V18.5744C10.7873 18.4431 10.7614 18.313 10.7112 18.1916C10.661 18.0703 10.5873 17.96 10.4945 17.8671C10.4016 17.7743 10.2913 17.7006 10.17 17.6504C10.0486 17.6002 9.91852 17.5743 9.78718 17.5744C8.24708 17.5742 6.74162 17.1174 5.46116 16.2616C4.18071 15.4058 3.18277 14.1896 2.59353 12.7666C2.00429 11.3437 1.85022 9.77801 2.1508 8.26752C2.45137 6.75703 3.1931 5.36959 4.28219 4.28065C5.37127 3.1917 6.75881 2.45014 8.26933 2.14976C9.77986 1.84937 11.3455 2.00364 12.7684 2.59305C14.1912 3.18247 15.4074 4.18056 16.263 5.46113C17.1186 6.74169 17.5753 8.24721 17.5753 9.78731C17.5726 10.1195 17.5491 10.4512 17.5049 10.7805ZM12.7877 6.68874C12.2572 6.68874 11.7485 6.89945 11.3734 7.27453C10.9984 7.6496 10.7877 8.15831 10.7877 8.68874C10.7877 9.21917 10.9984 9.72788 11.3734 10.103C11.7485 10.478 12.2572 10.6887 12.7877 10.6887L12.8028 10.6872V11.1887C12.8025 11.3212 12.7498 11.4482 12.6561 11.5419C12.5623 11.6357 12.4353 11.6884 12.3028 11.6887C12.0376 11.6887 11.7832 11.794 11.5957 11.9816C11.4081 12.1691 11.3028 12.4235 11.3028 12.6887C11.3028 12.9539 11.4081 13.2083 11.5957 13.3958C11.7832 13.5833 12.0376 13.6887 12.3028 13.6887C12.9656 13.6881 13.6012 13.4245 14.0699 12.9558C14.5386 12.4871 14.8022 11.8515 14.8028 11.1887V8.68868C14.7968 8.6378 14.7866 8.58749 14.7724 8.53825C14.7361 8.0364 14.5113 7.56686 14.1432 7.22383C13.775 6.8808 13.2908 6.68966 12.7877 6.68874V6.68874Z" fill="var(--fill-0, #1E1F26)"/>
</svg>
