<svg preserveAspectRatio="none" width="100%" height="100%" overflow="visible" style="display: block;" viewBox="0 0 18 20.0058" fill="none" xmlns="http://www.w3.org/2000/svg">
<path id="Vector" d="M6.71 4.7158L8 3.4158V15.0058C8 15.271 8.10536 15.5254 8.29289 15.7129C8.48043 15.9004 8.73478 16.0058 9 16.0058C9.26522 16.0058 9.51957 15.9004 9.70711 15.7129C9.89464 15.5254 10 15.271 10 15.0058V3.4158L11.29 4.7158C11.383 4.80953 11.4936 4.88392 11.6154 4.93469C11.7373 4.98546 11.868 5.0116 12 5.0116C12.132 5.0116 12.2627 4.98546 12.3846 4.93469C12.5064 4.88392 12.617 4.80953 12.71 4.7158C12.8037 4.62284 12.8781 4.51223 12.9289 4.39038C12.9797 4.26852 13.0058 4.13781 13.0058 4.0058C13.0058 3.87379 12.9797 3.74308 12.9289 3.62122C12.8781 3.49936 12.8037 3.38876 12.71 3.2958L9.71 0.295798C9.61704 0.20207 9.50644 0.127676 9.38458 0.0769069C9.26272 0.0261382 9.13201 0 9 0C8.86799 0 8.73728 0.0261382 8.61542 0.0769069C8.49356 0.127676 8.38296 0.20207 8.29 0.295798L5.29 3.2958C5.1017 3.4841 4.99591 3.7395 4.99591 4.0058C4.99591 4.2721 5.1017 4.52749 5.29 4.7158C5.4783 4.9041 5.7337 5.00989 6 5.00989C6.2663 5.00989 6.5217 4.9041 6.71 4.7158V4.7158ZM15 7.0058H13C12.7348 7.0058 12.4804 7.11116 12.2929 7.29869C12.1054 7.48623 12 7.74058 12 8.0058C12 8.27101 12.1054 8.52537 12.2929 8.7129C12.4804 8.90044 12.7348 9.0058 13 9.0058H15C15.2652 9.0058 15.5196 9.11116 15.7071 9.29869C15.8946 9.48623 16 9.74058 16 10.0058V17.0058C16 17.271 15.8946 17.5254 15.7071 17.7129C15.5196 17.9004 15.2652 18.0058 15 18.0058H3C2.73478 18.0058 2.48043 17.9004 2.29289 17.7129C2.10536 17.5254 2 17.271 2 17.0058V10.0058C2 9.74058 2.10536 9.48623 2.29289 9.29869C2.48043 9.11116 2.73478 9.0058 3 9.0058H5C5.26522 9.0058 5.51957 8.90044 5.70711 8.7129C5.89464 8.52537 6 8.27101 6 8.0058C6 7.74058 5.89464 7.48623 5.70711 7.29869C5.51957 7.11116 5.26522 7.0058 5 7.0058H3C2.20435 7.0058 1.44129 7.32187 0.87868 7.88448C0.316071 8.44709 0 9.21015 0 10.0058V17.0058C0 17.8014 0.316071 18.5645 0.87868 19.1271C1.44129 19.6897 2.20435 20.0058 3 20.0058H15C15.7956 20.0058 16.5587 19.6897 17.1213 19.1271C17.6839 18.5645 18 17.8014 18 17.0058V10.0058C18 9.21015 17.6839 8.44709 17.1213 7.88448C16.5587 7.32187 15.7956 7.0058 15 7.0058Z" fill="var(--fill-0, #1E1F26)"/>
</svg>
