<svg preserveAspectRatio="none" width="100%" height="100%" overflow="visible" style="display: block;" viewBox="0 0 20.0099 20.0099" fill="none" xmlns="http://www.w3.org/2000/svg">
<path id="Vector" d="M8.84409 3.38409C9.2284 3.11029 9.69715 2.9812 10.1675 3.01963C10.6378 3.05806 11.0793 3.26154 11.4141 3.59409C11.7897 3.96744 12.0019 4.47451 12.0041 5.00409V8.00409C12.0041 8.26931 12.1094 8.52366 12.297 8.7112C12.4845 8.89873 12.7389 9.00409 13.0041 9.00409H14.0041C14.2693 9.00409 14.5237 9.10945 14.7112 9.29698C14.8987 9.48452 15.0041 9.73887 15.0041 10.0041V10.3441C15.0041 10.6093 15.1094 10.8637 15.297 11.0512C15.4845 11.2387 15.7389 11.3441 16.0041 11.3441C16.2693 11.3441 16.5237 11.2387 16.7112 11.0512C16.8987 10.8637 17.0041 10.6093 17.0041 10.3441V10.0041C17.0041 9.20844 16.688 8.44538 16.1254 7.88277C15.5628 7.32016 14.7997 7.00409 14.0041 7.00409V5.00409C14.0045 4.47865 13.9014 3.95827 13.7006 3.47269C13.4999 2.98711 13.2054 2.54584 12.8341 2.17409C12.1517 1.51141 11.2583 1.10936 10.3098 1.03808C9.36128 0.966804 8.41784 1.23083 7.64409 1.78409C7.53903 1.86288 7.45052 1.9616 7.38362 2.0746C7.31671 2.1876 7.27271 2.31267 7.25414 2.44267C7.23557 2.57267 7.24279 2.70506 7.27538 2.83227C7.30797 2.95949 7.3653 3.07903 7.44409 3.18409C7.52288 3.28915 7.6216 3.37766 7.7346 3.44457C7.8476 3.51147 7.97267 3.55547 8.10267 3.57404C8.23267 3.59261 8.36506 3.5854 8.49227 3.55281C8.61949 3.52021 8.73903 3.46288 8.84409 3.38409V3.38409ZM19.7141 18.2941L1.71409 0.294092C1.52579 0.105788 1.27039 -1.9841e-09 1.00409 0C0.73779 1.9841e-09 0.482395 0.105788 0.294092 0.294092C0.105788 0.482395 1.9841e-09 0.73779 0 1.00409C-1.9841e-09 1.27039 0.105788 1.52579 0.294092 1.71409L5.62409 7.00409C4.89599 7.09704 4.22723 7.4537 3.7444 8.00656C3.26157 8.55942 2.99818 9.2701 3.00409 10.0041V16.0041C3.00409 16.7997 3.32016 17.5628 3.88277 18.1254C4.44538 18.688 5.20844 19.0041 6.00409 19.0041H14.0041C14.4681 19.0025 14.9255 18.8934 15.3402 18.6851C15.7549 18.4769 16.1157 18.1753 16.3941 17.8041L18.2941 19.7141C18.3871 19.8078 18.4977 19.8822 18.6195 19.933C18.7414 19.9838 18.8721 20.0099 19.0041 20.0099C19.1361 20.0099 19.2668 19.9838 19.3887 19.933C19.5105 19.8822 19.6211 19.8078 19.7141 19.7141C19.8078 19.6211 19.8822 19.5105 19.933 19.3887C19.9838 19.2668 20.0099 19.1361 20.0099 19.0041C20.0099 18.8721 19.9838 18.7414 19.933 18.6195C19.8822 18.4977 19.8078 18.3871 19.7141 18.2941V18.2941ZM14.0041 17.0041H6.00409C5.73888 17.0041 5.48452 16.8987 5.29699 16.7112C5.10945 16.5237 5.00409 16.2693 5.00409 16.0041V10.0041C5.00409 9.73887 5.10945 9.48452 5.29699 9.29698C5.48452 9.10945 5.73888 9.00409 6.00409 9.00409H7.59409L9.66409 11.0741C9.47241 11.1434 9.30649 11.2696 9.18853 11.4358C9.07057 11.602 9.00622 11.8003 9.00409 12.0041V14.0041C9.00409 14.2693 9.10945 14.5237 9.29698 14.7112C9.48452 14.8987 9.73887 15.0041 10.0041 15.0041C10.2693 15.0041 10.5237 14.8987 10.7112 14.7112C10.8987 14.5237 11.0041 14.2693 11.0041 14.0041V12.4141L14.9341 16.3441C14.8648 16.5358 14.7386 16.7017 14.5724 16.8197C14.4062 16.9376 14.2079 17.002 14.0041 17.0041V17.0041Z" fill="var(--fill-0, #1E1F26)"/>
</svg>
