<svg preserveAspectRatio="none" width="100%" height="100%" overflow="visible" style="display: block;" viewBox="0 0 22.0099 22.0099" fill="none" xmlns="http://www.w3.org/2000/svg">
<path id="Vector" d="M21.7141 20.2941L20.7141 19.2941L14.7141 13.2941L8.71409 7.29409L2.71409 1.29409L1.71409 0.294092C1.52579 0.105788 1.27039 -1.9841e-09 1.00409 0C0.73779 1.9841e-09 0.482395 0.105788 0.294092 0.294092C0.105788 0.482395 1.9841e-09 0.73779 0 1.00409C-1.9841e-09 1.27039 0.105788 1.52579 0.294092 1.71409L1.00409 2.41409V20.0041C1.00409 20.2693 1.10945 20.5237 1.29698 20.7112C1.48452 20.8987 1.73888 21.0041 2.00409 21.0041H19.5941L20.2941 21.7141C20.3871 21.8078 20.4977 21.8822 20.6195 21.933C20.7414 21.9838 20.8721 22.0099 21.0041 22.0099C21.1361 22.0099 21.2668 21.9838 21.3887 21.933C21.5105 21.8822 21.6211 21.8078 21.7141 21.7141C21.8078 21.6211 21.8822 21.5105 21.933 21.3887C21.9838 21.2668 22.0099 21.1361 22.0099 21.0041C22.0099 20.8721 21.9838 20.7414 21.933 20.6195C21.8822 20.4977 21.8078 20.3871 21.7141 20.2941V20.2941ZM3.00409 4.41409L5.59409 7.00409H3.00409V4.41409ZM7.00409 19.0041H3.00409V15.0041H7.00409V19.0041ZM7.00409 13.0041H3.00409V9.00409H7.00409V13.0041ZM9.00409 10.4141L11.5941 13.0041H9.00409V10.4141ZM13.0041 19.0041H9.00409V15.0041H13.0041V19.0041ZM15.0041 19.0041V16.4141L17.5941 19.0041H15.0041ZM7.67409 3.00409H13.0041V8.00409C13.0041 8.26931 13.1094 8.52366 13.297 8.7112C13.4845 8.89873 13.7389 9.00409 14.0041 9.00409H19.0041V14.3341C19.0041 14.5993 19.1094 14.8537 19.297 15.0412C19.4845 15.2287 19.7389 15.3341 20.0041 15.3341C20.2693 15.3341 20.5237 15.2287 20.7112 15.0412C20.8987 14.8537 21.0041 14.5993 21.0041 14.3341V2.00409C21.0041 1.73888 20.8987 1.48452 20.7112 1.29698C20.5237 1.10945 20.2693 1.00409 20.0041 1.00409H7.67409C7.40888 1.00409 7.15452 1.10945 6.96698 1.29698C6.77945 1.48452 6.67409 1.73888 6.67409 2.00409C6.67409 2.26931 6.77945 2.52366 6.96698 2.7112C7.15452 2.89873 7.40888 3.00409 7.67409 3.00409V3.00409ZM15.0041 3.00409H19.0041V7.00409H15.0041V3.00409Z" fill="var(--fill-0, #1E1F26)"/>
</svg>
