<svg preserveAspectRatio="none" width="100%" height="100%" overflow="visible" style="display: block;" viewBox="0 0 19.1002 19.9984" fill="none" xmlns="http://www.w3.org/2000/svg">
<path id="Vector" d="M4.1002 9.99836C4.30861 9.99701 4.51139 9.93058 4.6802 9.80836L6.30021 8.64836C6.88266 8.23252 7.35906 7.68543 7.69087 7.05134C8.02269 6.41724 8.20059 5.71395 8.21021 4.99836V1.62836C8.20923 1.48065 8.17554 1.33499 8.11157 1.20186C8.04759 1.06872 7.95492 0.951409 7.84021 0.858355C7.72403 0.764377 7.58827 0.697629 7.4429 0.663018C7.29754 0.628408 7.14627 0.626814 7.00021 0.658355C6.59963 0.741444 6.18628 0.741725 5.78559 0.659179C5.3849 0.576633 5.00533 0.413005 4.6702 0.178355C4.50281 0.062228 4.30394 0 4.1002 0C3.89647 0 3.6976 0.062228 3.53021 0.178355C3.19508 0.413005 2.81551 0.576633 2.41482 0.659179C2.01413 0.741725 1.60078 0.741444 1.20021 0.658355C1.05323 0.628322 0.901381 0.631741 0.755906 0.668358C0.610431 0.704975 0.475058 0.773852 0.359816 0.869888C0.244573 0.965924 0.152413 1.08666 0.0901629 1.22314C0.0279129 1.35963 -0.00283215 1.50837 0.000204996 1.65836V4.99836C-9.85782e-06 5.72171 0.172242 6.43469 0.502675 7.07817C0.833107 7.72164 1.3122 8.27706 1.9002 8.69835L3.53021 9.80836C3.6943 9.93234 3.89454 9.99909 4.1002 9.99836V9.99836ZM1.99021 4.99836V2.71836C2.72469 2.68742 3.44408 2.4999 4.1002 2.16836C4.75589 2.50107 5.47554 2.68865 6.21021 2.71836V4.99836C6.19675 5.39137 6.09329 5.77605 5.90779 6.12279C5.72228 6.46952 5.45968 6.76907 5.1402 6.99836L4.1402 7.73836L3.06021 6.99836C2.74073 6.76907 2.47813 6.46952 2.29262 6.12279C2.10712 5.77605 2.00366 5.39137 1.99021 4.99836V4.99836ZM16.0702 3.99836H11.0702C10.805 3.99836 10.5506 4.10371 10.3631 4.29125C10.1756 4.47879 10.0702 4.73314 10.0702 4.99836C10.0702 5.26357 10.1756 5.51793 10.3631 5.70546C10.5506 5.893 10.805 5.99836 11.0702 5.99836H16.0702C16.3354 5.99836 16.5898 6.10371 16.7773 6.29125C16.9648 6.47879 17.0702 6.73314 17.0702 6.99836V16.7184L15.5302 15.2684C15.4407 15.1802 15.3343 15.1109 15.2176 15.0645C15.1008 15.0181 14.9758 14.9956 14.8502 14.9984H6.0702C5.80499 14.9984 5.55063 14.893 5.3631 14.7055C5.17556 14.5179 5.0702 14.2636 5.0702 13.9984V12.9984C5.0702 12.7331 4.96485 12.4788 4.77731 12.2912C4.58977 12.1037 4.33542 11.9984 4.0702 11.9984C3.80499 11.9984 3.55063 12.1037 3.3631 12.2912C3.17556 12.4788 3.0702 12.7331 3.0702 12.9984V13.9984C3.0702 14.794 3.38628 15.5571 3.94888 16.1197C4.51149 16.6823 5.27456 16.9984 6.0702 16.9984H14.4302L17.4302 19.7284C17.6121 19.8987 17.851 19.995 18.1002 19.9984C18.2406 19.9969 18.3796 19.9698 18.5102 19.9184C18.6872 19.8388 18.8372 19.7094 18.942 19.5461C19.0468 19.3827 19.1017 19.1924 19.1002 18.9984V6.99836C19.1002 6.60185 19.0216 6.20928 18.869 5.84333C18.7164 5.47739 18.4927 5.14533 18.2109 4.86636C17.9292 4.58739 17.5949 4.36704 17.2275 4.21805C16.86 4.06906 16.4667 3.99439 16.0702 3.99836Z" fill="var(--fill-0, #1E1F26)"/>
</svg>
