<svg preserveAspectRatio="none" width="100%" height="100%" overflow="visible" style="display: block;" viewBox="0 0 19.9314 19.9314" fill="none" xmlns="http://www.w3.org/2000/svg">
<path id="Vector" d="M14.9657 4.96571C14.5034 3.76147 13.7473 2.69189 12.7664 1.85419C11.7855 1.01648 10.6107 0.437231 9.34896 0.16908C8.08719 -0.0990702 6.77841 -0.0476127 5.54159 0.318775C4.30477 0.685163 3.17913 1.35486 2.26699 2.26699C1.35486 3.17913 0.685163 4.30477 0.318775 5.54159C-0.0476127 6.77841 -0.0990702 8.08719 0.16908 9.34896C0.437231 10.6107 1.01648 11.7855 1.85419 12.7664C2.69189 13.7473 3.76147 14.5034 4.96571 14.9657C5.42808 16.17 6.18409 17.2395 7.16502 18.0772C8.14595 18.9149 9.32069 19.4942 10.5825 19.7623C11.8442 20.0305 13.153 19.979 14.3898 19.6127C15.6267 19.2463 16.7523 18.5766 17.6644 17.6644C18.5766 16.7523 19.2463 15.6267 19.6127 14.3898C19.979 13.153 20.0305 11.8442 19.7623 10.5825C19.4942 9.32069 18.9149 8.14595 18.0772 7.16502C17.2395 6.18409 16.17 5.42808 14.9657 4.96571V4.96571ZM13.3657 6.56571C13.4379 6.94144 13.4748 7.32311 13.4757 7.70571C13.4736 8.15702 13.42 8.60661 13.3157 9.04571L10.8757 6.62571C11.3148 6.52148 11.7644 6.4678 12.2157 6.46571C12.5983 6.46666 12.98 6.50349 13.3557 6.57571L13.3657 6.56571ZM12.4257 10.9657C12.0271 11.5331 11.5331 12.0271 10.9657 12.4257L7.50571 8.96571C7.90436 8.39834 8.39834 7.90436 8.96571 7.50571L12.4257 10.9657ZM4.42571 12.4257C3.73291 11.9465 3.15387 11.3209 2.72955 10.5931C2.30523 9.8654 2.04599 9.05332 1.97018 8.21433C1.89436 7.37535 2.00382 6.52995 2.29081 5.73794C2.5778 4.94593 3.03531 4.22665 3.63098 3.63098C4.22665 3.03531 4.94593 2.5778 5.73794 2.29081C6.52995 2.00382 7.37535 1.89436 8.21433 1.97018C9.05332 2.04599 9.8654 2.30523 10.5931 2.72955C11.3209 3.15387 11.9465 3.73291 12.4257 4.42571H12.1757C10.1211 4.43894 8.1556 5.26646 6.71026 6.7268C5.26492 8.18714 4.45773 10.1611 4.46571 12.2157C4.46571 12.2957 4.47571 12.3857 4.47571 12.4657L4.42571 12.4257ZM6.52571 13.3157C6.45349 12.94 6.41666 12.5583 6.41571 12.1757C6.41779 11.7244 6.47148 11.2748 6.57571 10.8357L9.00571 13.2657C8.56661 13.3699 8.11702 13.4236 7.66571 13.4257C7.30102 13.4349 6.93623 13.4115 6.57571 13.3557L6.52571 13.3157ZM12.2157 17.9657C11.2798 17.964 10.3583 17.7345 9.53077 17.2973C8.70324 16.86 7.99452 16.228 7.46571 15.4557H7.71571C9.7686 15.4531 11.7368 14.6371 13.1893 13.1864C14.6419 11.7357 15.4604 9.76859 15.4657 7.71571C15.4657 7.63571 15.4657 7.54571 15.4657 7.46571C16.4815 8.15868 17.2484 9.15906 17.6539 10.32C18.0593 11.4809 18.0818 12.7412 17.7182 13.9159C17.3547 15.0906 16.6241 16.1178 15.6337 16.8467C14.6433 17.5756 13.4454 17.9678 12.2157 17.9657V17.9657Z" fill="var(--fill-0, #1E1F26)"/>
</svg>
