<svg preserveAspectRatio="none" width="100%" height="100%" overflow="visible" style="display: block;" viewBox="0 0 18.0647 20" fill="none" xmlns="http://www.w3.org/2000/svg">
<path id="Vector" d="M16.2 15.41C15.6674 16.1822 14.9611 16.8187 14.1379 17.2686C13.3147 17.7184 12.3975 17.9689 11.46 18C8.78 18 6.46 16 5.46 13H11C11.2652 13 11.5196 12.8946 11.7071 12.7071C11.8946 12.5196 12 12.2652 12 12C12 11.7348 11.8946 11.4804 11.7071 11.2929C11.5196 11.1054 11.2652 11 11 11H5.05C5.05 10.67 5 10.33 5 10C5 9.67 5 9.33 5.05 9H11C11.2652 9 11.5196 8.89464 11.7071 8.70711C11.8946 8.51957 12 8.26522 12 8C12 7.73478 11.8946 7.48043 11.7071 7.29289C11.5196 7.10536 11.2652 7 11 7H5.47C6.47 4 8.78 2 11.47 2C12.4058 2.03267 13.321 2.28392 14.1424 2.73366C14.9637 3.1834 15.6684 3.81913 16.2 4.59C16.2706 4.71152 16.366 4.8168 16.48 4.89898C16.5939 4.98116 16.724 5.03839 16.8616 5.06694C16.9992 5.09549 17.1412 5.09472 17.2785 5.06468C17.4158 5.03464 17.5452 4.976 17.6583 4.8926C17.7714 4.80919 17.8656 4.70288 17.9349 4.58061C18.0041 4.45833 18.0468 4.32283 18.0602 4.18294C18.0736 4.04305 18.0573 3.90192 18.0125 3.76874C17.9676 3.63556 17.8952 3.51332 17.8 3.41C17.0877 2.38118 16.1418 1.53577 15.0398 0.943041C13.9378 0.350313 12.711 0.027138 11.46 0C7.7 0 4.46 2.84 3.39 7H1C0.734784 7 0.48043 7.10536 0.292893 7.29289C0.105357 7.48043 0 7.73478 0 8C0 8.26522 0.105357 8.51957 0.292893 8.70711C0.48043 8.89464 0.734784 9 1 9H3.05C3.05 9.33 3.05 9.67 3.05 10C3.05 10.33 3.05 10.67 3.05 11H1C0.734784 11 0.48043 11.1054 0.292893 11.2929C0.105357 11.4804 0 11.7348 0 12C0 12.2652 0.105357 12.5196 0.292893 12.7071C0.48043 12.8946 0.734784 13 1 13H3.39C4.48 17.16 7.7 20 11.46 20C12.711 19.9729 13.9378 19.6497 15.0398 19.057C16.1418 18.4642 17.0877 17.6188 17.8 16.59C17.9237 16.377 17.9644 16.1258 17.9144 15.8846C17.8643 15.6434 17.727 15.4292 17.5288 15.283C17.3305 15.1368 17.0853 15.0689 16.8401 15.0923C16.5949 15.1158 16.367 15.2289 16.2 15.41Z" fill="var(--fill-0, #1E1F26)"/>
</svg>
