<svg preserveAspectRatio="none" width="100%" height="100%" overflow="visible" style="display: block;" viewBox="0 0 21.0058 19.995" fill="none" xmlns="http://www.w3.org/2000/svg">
<path id="Vector" d="M19 11.995C18.7348 11.995 18.4804 12.1004 18.2929 12.2879C18.1054 12.4754 18 12.7298 18 12.995V16.995C18 17.2602 17.8946 17.5146 17.7071 17.7021C17.5196 17.8897 17.2652 17.995 17 17.995H3C2.73478 17.995 2.48043 17.8897 2.29289 17.7021C2.10536 17.5146 2 17.2602 2 16.995V7.40501L7.88 13.295C8.4425 13.8568 9.205 14.1724 10 14.1724C10.795 14.1724 11.5575 13.8568 12.12 13.295L13.76 11.655C13.9483 11.4667 14.0541 11.2113 14.0541 10.945C14.0541 10.6787 13.9483 10.4233 13.76 10.235C13.5717 10.0467 13.3163 9.94092 13.05 9.94092C12.7837 9.94092 12.5283 10.0467 12.34 10.235L10.7 11.875C10.5131 12.0582 10.2618 12.1609 10 12.1609C9.73825 12.1609 9.48693 12.0582 9.3 11.875L3.41 5.99501H10C10.2652 5.99501 10.5196 5.88966 10.7071 5.70212C10.8946 5.51458 11 5.26023 11 4.99501C11 4.7298 10.8946 4.47544 10.7071 4.28791C10.5196 4.10037 10.2652 3.99501 10 3.99501H3C2.20435 3.99501 1.44129 4.31108 0.87868 4.87369C0.316071 5.4363 0 6.19936 0 6.99501V16.995C0 17.7907 0.316071 18.5537 0.87868 19.1163C1.44129 19.6789 2.20435 19.995 3 19.995H17C17.7956 19.995 18.5587 19.6789 19.1213 19.1163C19.6839 18.5537 20 17.7907 20 16.995V12.995C20 12.7298 19.8946 12.4754 19.7071 12.2879C19.5196 12.1004 19.2652 11.995 19 11.995ZM20.71 3.28501L17.71 0.285014C17.6149 0.193973 17.5028 0.122608 17.38 0.0750135C17.1365 -0.0250045 16.8635 -0.0250045 16.62 0.0750135C16.4972 0.122608 16.3851 0.193973 16.29 0.285014L13.29 3.28501C13.1017 3.47332 12.9959 3.72871 12.9959 3.99501C12.9959 4.26132 13.1017 4.51671 13.29 4.70501C13.4783 4.89332 13.7337 4.99911 14 4.99911C14.2663 4.99911 14.5217 4.89332 14.71 4.70501L16 3.40501V8.99501C16 9.26023 16.1054 9.51458 16.2929 9.70212C16.4804 9.88966 16.7348 9.99501 17 9.99501C17.2652 9.99501 17.5196 9.88966 17.7071 9.70212C17.8946 9.51458 18 9.26023 18 8.99501V3.40501L19.29 4.70501C19.383 4.79874 19.4936 4.87314 19.6154 4.9239C19.7373 4.97467 19.868 5.00081 20 5.00081C20.132 5.00081 20.2627 4.97467 20.3846 4.9239C20.5064 4.87314 20.617 4.79874 20.71 4.70501C20.8037 4.61205 20.8781 4.50145 20.9289 4.37959C20.9797 4.25773 21.0058 4.12703 21.0058 3.99501C21.0058 3.863 20.9797 3.7323 20.9289 3.61044C20.8781 3.48858 20.8037 3.37798 20.71 3.28501Z" fill="var(--fill-0, #1E1F26)"/>
</svg>
