<svg preserveAspectRatio="none" width="100%" height="100%" overflow="visible" style="display: block;" viewBox="0 0 19.0441 20" fill="none" xmlns="http://www.w3.org/2000/svg">
<path id="Vector" d="M3.62409 9.92C3.74379 9.97291 3.87322 10.0002 4.00409 10.0002C4.13496 10.0002 4.26439 9.97291 4.38409 9.92C4.50684 9.87241 4.61899 9.80104 4.71409 9.71L7.71409 6.71C7.9024 6.5217 8.00818 6.2663 8.00818 6C8.00818 5.7337 7.9024 5.4783 7.71409 5.29C7.52579 5.1017 7.27039 4.99591 7.00409 4.99591C6.73779 4.99591 6.4824 5.1017 6.29409 5.29L5.00409 6.59V1C5.00409 0.734784 4.89873 0.48043 4.7112 0.292893C4.52366 0.105357 4.26931 0 4.00409 0C3.73888 0 3.48452 0.105357 3.29699 0.292893C3.10945 0.48043 3.00409 0.734784 3.00409 1V6.59L1.71409 5.29C1.62085 5.19676 1.51016 5.1228 1.38834 5.07234C1.26652 5.02188 1.13595 4.99591 1.00409 4.99591C0.872233 4.99591 0.741665 5.02188 0.619843 5.07234C0.498021 5.1228 0.38733 5.19676 0.294092 5.29C0.200853 5.38324 0.126892 5.49393 0.076432 5.61575C0.0259717 5.73757 -1.38936e-09 5.86814 0 6C1.38936e-09 6.13186 0.0259717 6.26243 0.076432 6.38425C0.126892 6.50607 0.200853 6.61676 0.294092 6.71L3.29409 9.71C3.3892 9.80104 3.50134 9.87241 3.62409 9.92V9.92ZM16.0041 4H11.0041C10.7389 4 10.4845 4.10536 10.297 4.29289C10.1094 4.48043 10.0041 4.73478 10.0041 5C10.0041 5.26522 10.1094 5.51957 10.297 5.70711C10.4845 5.89464 10.7389 6 11.0041 6H16.0041C16.2693 6 16.5237 6.10536 16.7112 6.29289C16.8987 6.48043 17.0041 6.73478 17.0041 7V16.72L15.4341 15.27C15.2497 15.0973 15.0067 15.0009 14.7541 15H6.00409C5.73888 15 5.48452 14.8946 5.29699 14.7071C5.10945 14.5196 5.00409 14.2652 5.00409 14V13C5.00409 12.7348 4.89873 12.4804 4.7112 12.2929C4.52366 12.1054 4.26931 12 4.00409 12C3.73888 12 3.48452 12.1054 3.29699 12.2929C3.10945 12.4804 3.00409 12.7348 3.00409 13V14C3.00409 14.7956 3.32016 15.5587 3.88277 16.1213C4.44538 16.6839 5.20844 17 6.00409 17H14.3641L17.3641 19.73C17.5485 19.9027 17.7915 19.9991 18.0441 20C18.1812 19.9985 18.3169 19.9714 18.4441 19.92C18.623 19.8419 18.7751 19.7132 18.8817 19.5497C18.9883 19.3863 19.0448 19.1952 19.0441 19V7C19.0441 6.60265 18.9652 6.20924 18.812 5.84263C18.6587 5.47603 18.4341 5.14352 18.1513 4.86441C17.8685 4.58531 17.533 4.36517 17.1644 4.21678C16.7958 4.06839 16.4014 3.9947 16.0041 4V4Z" fill="var(--fill-0, #1E1F26)"/>
</svg>
