<svg preserveAspectRatio="none" width="100%" height="100%" overflow="visible" style="display: block;" viewBox="0 0 10 19.9952" fill="none" xmlns="http://www.w3.org/2000/svg">
<path id="Vector" d="M3.21 4.20501L4 3.40501V5.99501C4 6.26023 4.10536 6.51458 4.29289 6.70212C4.48043 6.88966 4.73478 6.99501 5 6.99501C5.26522 6.99501 5.51957 6.88966 5.70711 6.70212C5.89464 6.51458 6 6.26023 6 5.99501V3.40501L6.79 4.20501C6.88296 4.29874 6.99356 4.37314 7.11542 4.4239C7.23728 4.47467 7.36799 4.50081 7.5 4.50081C7.63201 4.50081 7.76272 4.47467 7.88458 4.4239C8.00644 4.37314 8.11704 4.29874 8.21 4.20501C8.30373 4.11205 8.37812 4.00145 8.42889 3.87959C8.47966 3.75773 8.5058 3.62703 8.5058 3.49501C8.5058 3.363 8.47966 3.2323 8.42889 3.11044C8.37812 2.98858 8.30373 2.87798 8.21 2.78501L5.71 0.285014C5.6149 0.193973 5.50275 0.122608 5.38 0.0750135C5.13654 -0.0250045 4.86346 -0.0250045 4.62 0.0750135C4.49725 0.122608 4.3851 0.193973 4.29 0.285014L1.79 2.78501C1.6017 2.97332 1.49591 3.22871 1.49591 3.49501C1.49591 3.76132 1.6017 4.01671 1.79 4.20501C1.9783 4.39332 2.2337 4.49911 2.5 4.49911C2.7663 4.49911 3.0217 4.39332 3.21 4.20501V4.20501ZM9 8.99501H1C0.734784 8.99501 0.48043 9.10037 0.292893 9.28791C0.105357 9.47544 0 9.7298 0 9.99501C0 10.2602 0.105357 10.5146 0.292893 10.7021C0.48043 10.8897 0.734784 10.995 1 10.995H9C9.26522 10.995 9.51957 10.8897 9.70711 10.7021C9.89464 10.5146 10 10.2602 10 9.99501C10 9.7298 9.89464 9.47544 9.70711 9.28791C9.51957 9.10037 9.26522 8.99501 9 8.99501ZM6.79 15.785L6 16.585V13.995C6 13.7298 5.89464 13.4754 5.70711 13.2879C5.51957 13.1004 5.26522 12.995 5 12.995C4.73478 12.995 4.48043 13.1004 4.29289 13.2879C4.10536 13.4754 4 13.7298 4 13.995V16.585L3.21 15.785C3.11676 15.6918 3.00607 15.6178 2.88425 15.5674C2.76243 15.5169 2.63186 15.4909 2.5 15.4909C2.36814 15.4909 2.23757 15.5169 2.11575 15.5674C1.99393 15.6178 1.88324 15.6918 1.79 15.785C1.69676 15.8783 1.6228 15.9889 1.57234 16.1108C1.52188 16.2326 1.49591 16.3632 1.49591 16.495C1.49591 16.6269 1.52188 16.7574 1.57234 16.8793C1.6228 17.0011 1.69676 17.1118 1.79 17.205L4.29 19.705C4.3851 19.7961 4.49725 19.8674 4.62 19.915C4.7397 19.9679 4.86913 19.9952 5 19.9952C5.13087 19.9952 5.2603 19.9679 5.38 19.915C5.50275 19.8674 5.6149 19.7961 5.71 19.705L8.21 17.205C8.3983 17.0167 8.50409 16.7613 8.50409 16.495C8.50409 16.2287 8.3983 15.9733 8.21 15.785C8.0217 15.5967 7.7663 15.4909 7.5 15.4909C7.2337 15.4909 6.9783 15.5967 6.79 15.785V15.785Z" fill="var(--fill-0, #1E1F26)"/>
</svg>
