<svg preserveAspectRatio="none" width="100%" height="100%" overflow="visible" style="display: block;" viewBox="0 0 7.00989 20" fill="none" xmlns="http://www.w3.org/2000/svg">
<path id="Vector" d="M4.21409 11.29C4.11899 11.199 4.00684 11.1276 3.88409 11.08C3.64063 10.98 3.36755 10.98 3.12409 11.08C3.00134 11.1276 2.88919 11.199 2.79409 11.29L0.294091 13.79C0.105788 13.9783 0 14.2337 0 14.5C0 14.7663 0.105788 15.0217 0.294091 15.21C0.482395 15.3983 0.73779 15.5041 1.00409 15.5041C1.27039 15.5041 1.52579 15.3983 1.71409 15.21L2.50409 14.41V19C2.50409 19.2652 2.60945 19.5196 2.79698 19.7071C2.98452 19.8946 3.23887 20 3.50409 20C3.76931 20 4.02366 19.8946 4.2112 19.7071C4.39873 19.5196 4.50409 19.2652 4.50409 19V14.41L5.29409 15.21C5.38705 15.3037 5.49766 15.3781 5.61951 15.4289C5.74137 15.4797 5.87208 15.5058 6.00409 15.5058C6.1361 15.5058 6.26681 15.4797 6.38867 15.4289C6.51053 15.3781 6.62113 15.3037 6.71409 15.21C6.80782 15.117 6.88221 15.0064 6.93298 14.8846C6.98375 14.7627 7.00989 14.632 7.00989 14.5C7.00989 14.368 6.98375 14.2373 6.93298 14.1154C6.88221 13.9936 6.80782 13.883 6.71409 13.79L4.21409 11.29ZM2.79409 8.71C2.88919 8.80104 3.00134 8.87241 3.12409 8.92C3.24379 8.97291 3.37322 9.00023 3.50409 9.00023C3.63496 9.00023 3.76439 8.97291 3.88409 8.92C4.00684 8.87241 4.11899 8.80104 4.21409 8.71L6.71409 6.21C6.80733 6.11676 6.88129 6.00607 6.93175 5.88425C6.98221 5.76243 7.00818 5.63186 7.00818 5.5C7.00818 5.36814 6.98221 5.23757 6.93175 5.11575C6.88129 4.99393 6.80733 4.88324 6.71409 4.79C6.62085 4.69676 6.51016 4.6228 6.38834 4.57234C6.26652 4.52188 6.13595 4.49591 6.00409 4.49591C5.87223 4.49591 5.74166 4.52188 5.61984 4.57234C5.49802 4.6228 5.38733 4.69676 5.29409 4.79L4.50409 5.59V1C4.50409 0.734784 4.39873 0.48043 4.2112 0.292893C4.02366 0.105357 3.76931 0 3.50409 0C3.23887 0 2.98452 0.105357 2.79698 0.292893C2.60945 0.48043 2.50409 0.734784 2.50409 1V5.59L1.71409 4.79C1.62085 4.69676 1.51016 4.6228 1.38834 4.57234C1.26652 4.52188 1.13595 4.49591 1.00409 4.49591C0.73779 4.49591 0.482395 4.6017 0.294091 4.79C0.200853 4.88324 0.126892 4.99393 0.0764313 5.11575C0.0259709 5.23757 0 5.36814 0 5.5C0 5.7663 0.105788 6.0217 0.294091 6.21L2.79409 8.71Z" fill="var(--fill-0, #1E1F26)"/>
</svg>
