<svg preserveAspectRatio="none" width="100%" height="100%" overflow="visible" style="display: block;" viewBox="0 0 10.9949 20.0003" fill="none" xmlns="http://www.w3.org/2000/svg">
<path id="Vector" d="M9.83 5.32026C9.83539 5.29387 9.83539 5.26665 9.83 5.24026C9.02877 3.75831 7.86614 2.50279 6.45 1.59026V1.59026C4.82776 0.53903 2.93302 -0.013749 1 0.000259811C0.734784 0.000259811 0.48043 0.105617 0.292893 0.293153C0.105357 0.480689 0 0.735043 0 1.00026V19.0003C0 19.2655 0.105357 19.5198 0.292893 19.7074C0.48043 19.8949 0.734784 20.0003 1 20.0003H1.28C2.97991 19.9518 4.63938 19.4706 6.10152 18.6021C7.56367 17.7337 8.78018 16.5067 9.63607 15.0372C10.492 13.5677 10.9589 11.9041 10.9929 10.2039C11.0268 8.5036 10.6266 6.82277 9.83 5.32026V5.32026ZM2 2.06026C2.86477 2.16963 3.70586 2.41959 4.49 2.80026L2 7.12026V2.06026ZM2 11.1203L6.17 3.90026C6.78755 4.42547 7.32048 5.04271 7.75 5.73026L2 15.6903V11.1203ZM3.16 17.6903L8.75 8.00026C8.91369 8.6544 8.99763 9.32595 9 10.0003C9.00719 11.7457 8.43901 13.445 7.38334 14.8351C6.32767 16.2251 4.84335 17.2286 3.16 17.6903V17.6903Z" fill="var(--fill-0, #1E1F26)"/>
</svg>
