<svg preserveAspectRatio="none" width="100%" height="100%" overflow="visible" style="display: block;" viewBox="0 0 20 20.0003" fill="none" xmlns="http://www.w3.org/2000/svg">
<path id="Vector" d="M7.41 11H9.83C9.96161 11.0008 10.0921 10.9755 10.2139 10.9258C10.3357 10.876 10.4466 10.8027 10.54 10.71L14.12 7.13C14.3063 6.94264 14.4108 6.68919 14.4108 6.425C14.4108 6.16081 14.3063 5.90736 14.12 5.72L11.7 3.32C11.5126 3.13375 11.2592 3.02921 10.995 3.02921C10.7308 3.02921 10.4774 3.13375 10.29 3.32L6.71 6.9C6.52159 7.08463 6.41376 7.33623 6.41 7.6V10C6.41 10.2652 6.51536 10.5196 6.70289 10.7071C6.89043 10.8946 7.14478 11 7.41 11ZM8.41 8L11 5.44L12 6.44L9.42 9H8.42L8.41 8ZM19 12H18V2H19C19.2652 2 19.5196 1.89464 19.7071 1.70711C19.8946 1.51957 20 1.26522 20 1C20 0.734784 19.8946 0.48043 19.7071 0.292893C19.5196 0.105357 19.2652 0 19 0H1C0.734784 0 0.48043 0.105357 0.292893 0.292893C0.105357 0.48043 0 0.734784 0 1C0 1.26522 0.105357 1.51957 0.292893 1.70711C0.48043 1.89464 0.734784 2 1 2H2V12H1C0.734784 12 0.48043 12.1054 0.292893 12.2929C0.105357 12.4804 0 12.7348 0 13C0 13.2652 0.105357 13.5196 0.292893 13.7071C0.48043 13.8946 0.734784 14 1 14H9V15.15L4.45 18.15C4.26333 18.2655 4.11988 18.4393 4.04177 18.6445C3.96366 18.8496 3.95523 19.0748 4.01779 19.2852C4.08035 19.4957 4.21042 19.6797 4.38793 19.8089C4.56544 19.938 4.78053 20.0052 5 20C5.1966 20.0022 5.38896 19.9428 5.55 19.83L9 17.55V19C9 19.2652 9.10536 19.5196 9.29289 19.7071C9.48043 19.8946 9.73478 20 10 20C10.2652 20 10.5196 19.8946 10.7071 19.7071C10.8946 19.5196 11 19.2652 11 19V17.55L14.45 19.83C14.611 19.9428 14.8034 20.0022 15 20C15.2136 19.9984 15.4212 19.9283 15.5921 19.8002C15.7631 19.672 15.8885 19.4925 15.95 19.2879C16.0115 19.0832 16.0058 18.8643 15.9338 18.6631C15.8619 18.462 15.7273 18.2892 15.55 18.17L11 15.17V14H19C19.2652 14 19.5196 13.8946 19.7071 13.7071C19.8946 13.5196 20 13.2652 20 13C20 12.7348 19.8946 12.4804 19.7071 12.2929C19.5196 12.1054 19.2652 12 19 12ZM16 12H4V2H16V12Z" fill="var(--fill-0, #1E1F26)"/>
</svg>
