<svg preserveAspectRatio="none" width="100%" height="100%" overflow="visible" style="display: block;" viewBox="0 0 20 20" fill="none" xmlns="http://www.w3.org/2000/svg">
<path id="Vector" d="M7 7C6.80222 7 6.60888 7.05865 6.44443 7.16853C6.27998 7.27841 6.15181 7.43459 6.07612 7.61732C6.00044 7.80004 5.98063 8.00111 6.01922 8.19509C6.0578 8.38907 6.15305 8.56725 6.2929 8.70711C6.43275 8.84696 6.61093 8.9422 6.80491 8.98079C6.99889 9.01937 7.19996 8.99957 7.38269 8.92388C7.56541 8.84819 7.72159 8.72002 7.83147 8.55557C7.94136 8.39112 8 8.19778 8 8C8 7.73478 7.89465 7.48043 7.70711 7.29289C7.51957 7.10536 7.26522 7 7 7ZM12.66 11.56L8.47001 13.06C8.2498 13.1399 8.06462 13.2945 7.94677 13.497C7.82893 13.6994 7.78589 13.9368 7.82517 14.1678C7.86446 14.3987 7.98356 14.6085 8.16172 14.7606C8.33987 14.9127 8.56577 14.9974 8.8 15C8.91596 14.9999 9.03101 14.9796 9.14001 14.94L13.34 13.44C13.467 13.3981 13.5842 13.3312 13.6849 13.2431C13.7855 13.1551 13.8675 13.0478 13.926 12.9276C13.9844 12.8073 14.0182 12.6766 14.0252 12.5431C14.0323 12.4095 14.0125 12.276 13.967 12.1502C13.9215 12.0245 13.8513 11.9092 13.7604 11.8111C13.6696 11.7129 13.56 11.634 13.4382 11.579C13.3163 11.524 13.1847 11.4939 13.051 11.4907C12.9174 11.4874 12.7844 11.511 12.66 11.56V11.56ZM13 7C12.8022 7 12.6089 7.05865 12.4444 7.16853C12.28 7.27841 12.1518 7.43459 12.0761 7.61732C12.0004 7.80004 11.9806 8.00111 12.0192 8.19509C12.0578 8.38907 12.153 8.56725 12.2929 8.70711C12.4328 8.84696 12.6109 8.9422 12.8049 8.98079C12.9989 9.01937 13.2 8.99957 13.3827 8.92388C13.5654 8.84819 13.7216 8.72002 13.8315 8.55557C13.9414 8.39112 14 8.19778 14 8C14 7.73478 13.8946 7.48043 13.7071 7.29289C13.5196 7.10536 13.2652 7 13 7ZM10 0C8.02219 0 6.08879 0.58649 4.4443 1.6853C2.79981 2.78412 1.51809 4.3459 0.761209 6.17317C0.00433283 8.00043 -0.193701 10.0111 0.192152 11.9509C0.578004 13.8907 1.53041 15.6725 2.92894 17.0711C4.32746 18.4696 6.10929 19.422 8.0491 19.8079C9.98891 20.1937 11.9996 19.9957 13.8268 19.2388C15.6541 18.4819 17.2159 17.2002 18.3147 15.5557C19.4135 13.9112 20 11.9778 20 10C20 8.68678 19.7413 7.38642 19.2388 6.17317C18.7363 4.95991 17.9997 3.85752 17.0711 2.92893C16.1425 2.00035 15.0401 1.26375 13.8268 0.761205C12.6136 0.258658 11.3132 0 10 0V0ZM10 18C8.41775 18 6.87104 17.5308 5.55544 16.6518C4.23985 15.7727 3.21447 14.5233 2.60897 13.0615C2.00347 11.5997 1.84504 9.99113 2.15372 8.43928C2.4624 6.88743 3.22433 5.46197 4.34315 4.34315C5.46197 3.22433 6.88743 2.4624 8.43928 2.15372C9.99113 1.84504 11.5997 2.00346 13.0615 2.60896C14.5233 3.21447 15.7727 4.23984 16.6518 5.55544C17.5308 6.87103 18 8.41775 18 10C18 12.1217 17.1572 14.1566 15.6569 15.6569C14.1566 17.1571 12.1217 18 10 18V18Z" fill="var(--fill-0, #1E1F26)"/>
</svg>
