<svg preserveAspectRatio="none" width="100%" height="100%" overflow="visible" style="display: block;" viewBox="0 0 19 16.5034" fill="none" xmlns="http://www.w3.org/2000/svg">
<path id="Vector" d="M18.98 9.38345C18.9741 9.31454 18.9572 9.24703 18.93 9.18345C18.9094 9.12412 18.8826 9.06713 18.85 9.01345C18.8226 8.95661 18.7891 8.90295 18.75 8.85345L18.59 8.72345L18.5 8.63345L3.78 0.133447C3.54926 0.000838322 3.2753 -0.0346782 3.01837 0.0347103C2.76145 0.104099 2.54261 0.272708 2.41 0.503446C2.27739 0.734185 2.24188 1.00815 2.31126 1.26508C2.38065 1.522 2.54926 1.74084 2.78 1.87345L14.27 8.50345H1C0.734784 8.50345 0.48043 8.6088 0.292893 8.79634C0.105357 8.98388 0 9.23823 0 9.50345V13.5034C0 14.2991 0.316071 15.0622 0.87868 15.6248C1.44129 16.1874 2.20435 16.5034 3 16.5034H16C16.7956 16.5034 17.5587 16.1874 18.1213 15.6248C18.6839 15.0622 19 14.2991 19 13.5034V9.50345C19 9.50345 18.98 9.42345 18.98 9.38345ZM16.98 13.5034C16.98 13.7687 16.8746 14.023 16.6871 14.2106C16.4996 14.3981 16.2452 14.5034 15.98 14.5034H3C2.73478 14.5034 2.48043 14.3981 2.29289 14.2106C2.10536 14.023 2 13.7687 2 13.5034V10.5034H17L16.98 13.5034ZM13.98 13.5034C14.1778 13.5034 14.3711 13.4448 14.5356 13.3349C14.7 13.225 14.8282 13.0689 14.9039 12.8861C14.9796 12.7034 14.9994 12.5023 14.9608 12.3084C14.9222 12.1144 14.827 11.9362 14.6871 11.7963C14.5473 11.6565 14.3691 11.5612 14.1751 11.5227C13.9811 11.4841 13.78 11.5039 13.5973 11.5796C13.4146 11.6553 13.2584 11.7834 13.1485 11.9479C13.0386 12.1123 12.98 12.3057 12.98 12.5034C12.98 12.6365 13.0065 12.7682 13.058 12.8908C13.1095 13.0135 13.1849 13.1246 13.2799 13.2177C13.3749 13.3108 13.4875 13.3841 13.6112 13.4331C13.7348 13.4822 13.867 13.5061 14 13.5034H13.98Z" fill="var(--fill-0, #1E1F26)"/>
</svg>
