<svg preserveAspectRatio="none" width="100%" height="100%" overflow="visible" style="display: block;" viewBox="0 0 20 20" fill="none" xmlns="http://www.w3.org/2000/svg">
<path id="Vector" d="M12.36 12.23C11.6915 12.769 10.8587 13.0629 10 13.0629C9.14131 13.0629 8.30849 12.769 7.64 12.23C7.43579 12.0603 7.17251 11.9786 6.90808 12.003C6.64365 12.0274 6.39974 12.1558 6.23 12.36C6.06027 12.5642 5.9786 12.8275 6.00298 13.0919C6.02736 13.3564 6.15579 13.6003 6.36 13.77C7.38134 14.6226 8.66957 15.0896 10 15.0896C11.3304 15.0896 12.6187 14.6226 13.64 13.77C13.8442 13.6003 13.9726 13.3564 13.997 13.0919C14.0214 12.8275 13.9397 12.5642 13.77 12.36C13.686 12.2589 13.5828 12.1753 13.4665 12.1141C13.3501 12.0528 13.2229 12.0151 13.0919 12.003C12.8275 11.9786 12.5642 12.0603 12.36 12.23V12.23ZM8.5 8C8.5 7.70333 8.41203 7.41332 8.24721 7.16665C8.08239 6.91997 7.84812 6.72771 7.57403 6.61418C7.29994 6.50065 6.99834 6.47094 6.70737 6.52882C6.4164 6.5867 6.14912 6.72956 5.93934 6.93934C5.72957 7.14912 5.5867 7.41639 5.52883 7.70736C5.47095 7.99834 5.50065 8.29994 5.61418 8.57403C5.72772 8.84811 5.91998 9.08238 6.16665 9.2472C6.41332 9.41203 6.70333 9.5 7 9.5C7.39783 9.5 7.77936 9.34196 8.06067 9.06066C8.34197 8.77936 8.5 8.39782 8.5 8ZM13 7H12C11.7348 7 11.4804 7.10536 11.2929 7.29289C11.1054 7.48043 11 7.73478 11 8C11 8.26522 11.1054 8.51957 11.2929 8.70711C11.4804 8.89464 11.7348 9 12 9H13C13.2652 9 13.5196 8.89464 13.7071 8.70711C13.8946 8.51957 14 8.26522 14 8C14 7.73478 13.8946 7.48043 13.7071 7.29289C13.5196 7.10536 13.2652 7 13 7ZM10 0C8.02219 0 6.08879 0.58649 4.4443 1.6853C2.79981 2.78412 1.51809 4.3459 0.761209 6.17317C0.00433283 8.00043 -0.193701 10.0111 0.192152 11.9509C0.578004 13.8907 1.53041 15.6725 2.92894 17.0711C4.32746 18.4696 6.10929 19.422 8.0491 19.8079C9.98891 20.1937 11.9996 19.9957 13.8268 19.2388C15.6541 18.4819 17.2159 17.2002 18.3147 15.5557C19.4135 13.9112 20 11.9778 20 10C20 8.68678 19.7413 7.38642 19.2388 6.17317C18.7363 4.95991 17.9997 3.85752 17.0711 2.92893C16.1425 2.00035 15.0401 1.26375 13.8268 0.761205C12.6136 0.258658 11.3132 0 10 0V0ZM10 18C8.41775 18 6.87104 17.5308 5.55544 16.6518C4.23985 15.7727 3.21447 14.5233 2.60897 13.0615C2.00347 11.5997 1.84504 9.99113 2.15372 8.43928C2.4624 6.88743 3.22433 5.46197 4.34315 4.34315C5.46197 3.22433 6.88743 2.4624 8.43928 2.15372C9.99113 1.84504 11.5997 2.00346 13.0615 2.60896C14.5233 3.21447 15.7727 4.23984 16.6518 5.55544C17.5308 6.87103 18 8.41775 18 10C18 12.1217 17.1572 14.1566 15.6569 15.6569C14.1566 17.1571 12.1217 18 10 18V18Z" fill="var(--fill-0, #1E1F26)"/>
</svg>
