<svg preserveAspectRatio="none" width="100%" height="100%" overflow="visible" style="display: block;" viewBox="0 0 14.0748 14.0748" fill="none" xmlns="http://www.w3.org/2000/svg">
<path id="Vector" d="M0.954833 8.88C0.660086 9.15465 0.423677 9.48585 0.259709 9.85385C0.0957413 10.2218 0.00757402 10.6191 0.000466885 11.0219C-0.00664025 11.4247 0.0674583 11.8248 0.218342 12.1984C0.369226 12.5719 0.593805 12.9113 0.87868 13.1962C1.16355 13.481 1.50289 13.7056 1.87644 13.8565C2.25 14.0074 2.65011 14.0815 3.05292 14.0744C3.45573 14.0673 3.85299 13.9791 4.22099 13.8151C4.58898 13.6512 4.92018 13.4147 5.19483 13.12V13.12C5.75664 12.5575 6.07219 11.795 6.07219 11C6.07219 10.205 5.75664 9.4425 5.19483 8.88C4.62255 8.33699 3.86373 8.03428 3.07483 8.03428C2.28593 8.03428 1.52711 8.33699 0.954833 8.88V8.88ZM3.78483 11.71C3.69187 11.8037 3.58127 11.8781 3.45941 11.9289C3.33755 11.9797 3.20685 12.0058 3.07483 12.0058C2.94282 12.0058 2.81212 11.9797 2.69026 11.9289C2.5684 11.8781 2.4578 11.8037 2.36483 11.71C2.2711 11.617 2.19671 11.5064 2.14594 11.3846C2.09517 11.2627 2.06903 11.132 2.06903 11C2.06903 10.868 2.09517 10.7373 2.14594 10.6154C2.19671 10.4936 2.2711 10.383 2.36483 10.29C2.4578 10.1963 2.5684 10.1219 2.69026 10.0711C2.81212 10.0203 2.94282 9.9942 3.07483 9.9942C3.20685 9.9942 3.33755 10.0203 3.45941 10.0711C3.58127 10.1219 3.69187 10.1963 3.78483 10.29C3.87856 10.383 3.95296 10.4936 4.00372 10.6154C4.05449 10.7373 4.08063 10.868 4.08063 11C4.08063 11.132 4.05449 11.2627 4.00372 11.3846C3.95296 11.5064 3.87856 11.617 3.78483 11.71ZM3.07483 4C2.80962 4 2.55526 4.10536 2.36773 4.29289C2.18019 4.48043 2.07483 4.73478 2.07483 5C2.07483 5.26522 2.18019 5.51957 2.36773 5.70711C2.55526 5.89464 2.80962 6 3.07483 6C4.40092 6 5.67269 6.52678 6.61037 7.46447C7.54805 8.40215 8.07483 9.67392 8.07483 11C8.07483 11.2652 8.18019 11.5196 8.36773 11.7071C8.55526 11.8946 8.80962 12 9.07483 12C9.34005 12 9.5944 11.8946 9.78194 11.7071C9.96948 11.5196 10.0748 11.2652 10.0748 11C10.0748 9.14348 9.33733 7.36301 8.02458 6.05025C6.71183 4.7375 4.93135 4 3.07483 4ZM3.07483 0C2.80962 0 2.55526 0.105357 2.36773 0.292893C2.18019 0.48043 2.07483 0.734784 2.07483 1C2.07483 1.26522 2.18019 1.51957 2.36773 1.70711C2.55526 1.89464 2.80962 2 3.07483 2C5.46178 2 7.75097 2.94821 9.43879 4.63604C11.1266 6.32387 12.0748 8.61305 12.0748 11C12.0748 11.2652 12.1802 11.5196 12.3677 11.7071C12.5553 11.8946 12.8096 12 13.0748 12C13.34 12 13.5944 11.8946 13.7819 11.7071C13.9695 11.5196 14.0748 11.2652 14.0748 11C14.0748 8.08262 12.9159 5.28473 10.853 3.22183C8.79011 1.15893 5.99221 0 3.07483 0V0Z" fill="var(--fill-0, #1E1F26)"/>
</svg>
