<svg preserveAspectRatio="none" width="100%" height="100%" overflow="visible" style="display: block;" viewBox="0 0 22.0002 19.1329" fill="none" xmlns="http://www.w3.org/2000/svg">
<path id="Vector" d="M21.8675 0.50686C21.78 0.354385 21.6538 0.227686 21.5018 0.139554C21.3497 0.0514219 21.177 0.00497757 21.0012 0.00490999L16.0306 0.000999928L16.0232 0L12.3797 0.000999928C12.2193 0.00116691 12.0613 0.0398383 11.919 0.113762C11.7766 0.187686 11.6541 0.294701 11.5618 0.42581L11.0032 1.22171L10.4387 0.42386C10.3465 0.293176 10.2243 0.186552 10.0823 0.112964C9.94034 0.0393755 9.78275 0.000976618 9.62282 0.000999928L5.97682 0H5.97633L5.97487 0.000180006L5.9734 0H5.96803L0.994894 0.0273399C0.81921 0.0282178 0.646859 0.0753696 0.495195 0.164047C0.343531 0.252725 0.21791 0.379798 0.13098 0.53247C0.0440501 0.685142 -0.00111896 0.858023 2.10569e-05 1.03371C0.00116107 1.20939 0.0485699 1.38167 0.137474 1.5332L10.157 18.6387C10.2453 18.7891 10.3713 18.9139 10.5227 19.0005C10.674 19.0872 10.8454 19.1328 11.0198 19.1329H11.0208C11.1955 19.1327 11.3671 19.0868 11.5185 18.9998C11.67 18.9128 11.796 18.7876 11.8841 18.6368L21.8645 1.50886C21.9529 1.35679 21.9997 1.18414 22.0002 1.00825C22.0007 0.832367 21.9549 0.659444 21.8675 0.50686V0.50686ZM9.10475 2.00102L10.1898 3.53423C10.282 3.66497 10.4043 3.77162 10.5464 3.84521C10.6885 3.91879 10.8462 3.95716 11.0062 3.95708H11.0076C11.1678 3.95669 11.3256 3.91792 11.4677 3.84401C11.6099 3.77009 11.7322 3.6632 11.8245 3.53227L12.8997 2.00102L14.2624 2.00002L11.0184 7.45375L7.74342 2.00005L9.10475 2.00102ZM11.0174 16.1504L2.73952 2.01763L5.40944 2.00298L10.1629 9.92098C10.2518 10.069 10.3775 10.1914 10.5277 10.2765C10.678 10.3615 10.8476 10.4063 11.0203 10.4063H11.0222L11.0232 10.4062L11.0242 10.4063H11.0262C11.1993 10.4059 11.3692 10.3606 11.5195 10.2749C11.6698 10.1891 11.7953 10.0658 11.8836 9.91707L16.5916 2.00107L19.2611 2.004L11.0174 16.1504Z" fill="var(--fill-0, #1E1F26)"/>
</svg>
