<svg preserveAspectRatio="none" width="100%" height="100%" overflow="visible" style="display: block;" viewBox="0 0 20.0084 19.9867" fill="none" xmlns="http://www.w3.org/2000/svg">
<path id="Vector" d="M19.0084 17.9867H16.0084C15.7432 17.9867 15.4889 17.8814 15.3013 17.6938C15.1138 17.5063 15.0084 17.2519 15.0084 16.9867V13.9867C16.2021 13.9757 17.3523 13.538 18.2514 12.7528C19.1504 11.9676 19.7389 10.8866 19.9104 9.70536C20.0819 8.52408 19.8252 7.32041 19.1866 6.31194C18.548 5.30346 17.5696 4.55673 16.4284 4.20671C15.8174 2.80272 14.7629 1.63779 13.4265 0.890438C12.0901 0.143088 10.5455 -0.145456 9.0294 0.0690207C7.51331 0.283498 6.10936 0.989164 5.03269 2.07789C3.95602 3.16661 3.26602 4.57833 3.06844 6.09671C2.11502 6.32503 1.27866 6.89554 0.718173 7.6999C0.157689 8.50426 -0.0878807 9.48644 0.0280989 10.4599C0.144078 11.4334 0.61353 12.3304 1.3473 12.9806C2.08107 13.6307 3.02806 13.9888 4.00844 13.9867H5.00844V16.9867C5.00844 17.2519 4.90308 17.5063 4.71554 17.6938C4.52801 17.8814 4.27365 17.9867 4.00844 17.9867H1.00844C0.743219 17.9867 0.488865 18.0921 0.301328 18.2796C0.113792 18.4671 0.00843529 18.7215 0.00843529 18.9867C0.00843529 19.2519 0.113792 19.5063 0.301328 19.6938C0.488865 19.8814 0.743219 19.9867 1.00844 19.9867H4.00844C4.80408 19.9867 5.56715 19.6706 6.12976 19.108C6.69237 18.5454 7.00844 17.7824 7.00844 16.9867V13.9867H9.00844V18.9867C9.00844 19.2519 9.11379 19.5063 9.30133 19.6938C9.48887 19.8814 9.74322 19.9867 10.0084 19.9867C10.2737 19.9867 10.528 19.8814 10.7155 19.6938C10.9031 19.5063 11.0084 19.2519 11.0084 18.9867V13.9867H13.0084V16.9867C13.0084 17.7824 13.3245 18.5454 13.8871 19.108C14.4497 19.6706 15.2128 19.9867 16.0084 19.9867H19.0084C19.2737 19.9867 19.528 19.8814 19.7155 19.6938C19.9031 19.5063 20.0084 19.2519 20.0084 18.9867C20.0084 18.7215 19.9031 18.4671 19.7155 18.2796C19.528 18.0921 19.2737 17.9867 19.0084 17.9867ZM4.00844 11.9867C3.478 11.9867 2.96929 11.776 2.59422 11.4009C2.21915 11.0259 2.00844 10.5171 2.00844 9.98671C2.00844 9.45628 2.21915 8.94757 2.59422 8.5725C2.96929 8.19743 3.478 7.98671 4.00844 7.98671C4.27365 7.98671 4.52801 7.88135 4.71554 7.69382C4.90308 7.50628 5.00844 7.25193 5.00844 6.98671C5.01099 5.80399 5.43272 4.66046 6.1987 3.75929C6.96469 2.85813 8.02533 2.25766 9.19218 2.06458C10.359 1.87151 11.5566 2.09832 12.572 2.70472C13.5874 3.31112 14.355 4.25785 14.7384 5.37671C14.7956 5.54855 14.8983 5.70164 15.0357 5.81964C15.1731 5.93765 15.3399 6.01613 15.5184 6.04671C16.2126 6.16645 16.8425 6.52664 17.2978 7.06418C17.753 7.60171 18.0046 8.28231 18.0084 8.98671C18.0084 9.78236 17.6924 10.5454 17.1298 11.108C16.5671 11.6706 15.8041 11.9867 15.0084 11.9867H4.00844Z" fill="var(--fill-0, #1E1F26)"/>
</svg>
