<svg preserveAspectRatio="none" width="100%" height="100%" overflow="visible" style="display: block;" viewBox="0 0 19.0441 20.0041" fill="none" xmlns="http://www.w3.org/2000/svg">
<path id="Vector" d="M4.27409 7.15409L9.71409 1.71409C9.80733 1.62085 9.88129 1.51016 9.93175 1.38834C9.98221 1.26652 10.0082 1.13595 10.0082 1.00409C10.0082 0.872232 9.98221 0.741664 9.93175 0.619842C9.88129 0.49802 9.80733 0.38733 9.71409 0.294092C9.62085 0.200853 9.51016 0.126892 9.38834 0.0764319C9.26652 0.0259715 9.13595 0 9.00409 0C8.73779 0 8.48239 0.105788 8.29409 0.294092L3.56409 5.00409L1.71409 3.17409C1.52579 2.98579 1.27039 2.88 1.00409 2.88C0.73779 2.88 0.482395 2.98579 0.294091 3.17409C0.105788 3.3624 1.9841e-09 3.61779 0 3.88409C-1.9841e-09 4.15039 0.105788 4.40579 0.294091 4.59409L2.85409 7.15409C2.94705 7.24782 3.05766 7.32221 3.17952 7.37298C3.30137 7.42375 3.43208 7.44989 3.56409 7.44989C3.6961 7.44989 3.82681 7.42375 3.94867 7.37298C4.07053 7.32221 4.18113 7.24782 4.27409 7.15409ZM16.0041 4.00409H10.5041C10.2389 4.00409 9.98452 4.10945 9.79698 4.29699C9.60945 4.48452 9.50409 4.73888 9.50409 5.00409C9.50409 5.26931 9.60945 5.52366 9.79698 5.7112C9.98452 5.89873 10.2389 6.00409 10.5041 6.00409H16.0041C16.2693 6.00409 16.5237 6.10945 16.7112 6.29699C16.8987 6.48452 17.0041 6.73888 17.0041 7.00409V16.7241L15.4341 15.2741C15.2497 15.1014 15.0067 15.005 14.7541 15.0041H6.00409C5.73887 15.0041 5.48452 14.8987 5.29698 14.7112C5.10945 14.5237 5.00409 14.2693 5.00409 14.0041V10.5041C5.00409 10.2389 4.89873 9.98452 4.7112 9.79698C4.52366 9.60945 4.26931 9.50409 4.00409 9.50409C3.73887 9.50409 3.48452 9.60945 3.29698 9.79698C3.10945 9.98452 3.00409 10.2389 3.00409 10.5041V14.0041C3.00409 14.7997 3.32016 15.5628 3.88277 16.1254C4.44538 16.688 5.20844 17.0041 6.00409 17.0041H14.3641L17.3641 19.7341C17.5485 19.9068 17.7915 20.0032 18.0441 20.0041C18.1812 20.0026 18.3169 19.9755 18.4441 19.9241C18.623 19.846 18.7751 19.7173 18.8817 19.5538C18.9883 19.3904 19.0448 19.1993 19.0441 19.0041V7.00409C19.0441 6.60674 18.9652 6.21334 18.812 5.84673C18.6587 5.48012 18.4341 5.14761 18.1513 4.8685C17.8685 4.5894 17.533 4.36926 17.1644 4.22087C16.7958 4.07248 16.4014 3.99879 16.0041 4.00409V4.00409Z" fill="var(--fill-0, #1E1F26)"/>
</svg>
