<svg preserveAspectRatio="none" width="100%" height="100%" overflow="visible" style="display: block;" viewBox="0 0 17.0007 20.1198" fill="none" xmlns="http://www.w3.org/2000/svg">
<path id="Vector" d="M8.94037 11.164L8.77037 11.054C8.58731 10.9787 8.38601 10.9594 8.19197 10.9986C7.99793 11.0377 7.81988 11.1336 7.68037 11.274C7.58386 11.3628 7.50866 11.4722 7.46037 11.594C7.40783 11.7174 7.38063 11.85 7.38037 11.984C7.38195 12.1147 7.40913 12.2438 7.46037 12.364C7.56782 12.6043 7.76008 12.7966 8.00037 12.904C8.12059 12.9553 8.24969 12.9825 8.38037 12.984C8.51418 12.9815 8.64638 12.9544 8.77037 12.904C8.89039 12.8523 8.9991 12.7776 9.09037 12.684C9.27662 12.4967 9.38116 12.2432 9.38116 11.979C9.38116 11.7149 9.27662 11.4614 9.09037 11.274L8.94037 11.164ZM8.38037 4.05404C7.90323 4.04867 7.43291 4.16754 7.01563 4.39898C6.59835 4.63041 6.24847 4.96644 6.00037 5.37404C5.92802 5.48786 5.87943 5.61513 5.85754 5.74821C5.83565 5.88129 5.84091 6.01743 5.873 6.14842C5.90509 6.27942 5.96334 6.40257 6.04425 6.51047C6.12517 6.61837 6.22708 6.70879 6.34384 6.77628C6.46061 6.84378 6.58982 6.88695 6.7237 6.90322C6.85759 6.91948 6.99338 6.90849 7.12291 6.87091C7.25243 6.83334 7.37302 6.76995 7.47742 6.68456C7.58181 6.59917 7.66785 6.49354 7.73037 6.37404C7.80414 6.27146 7.90203 6.18862 8.01538 6.13281C8.12874 6.07701 8.25409 6.04995 8.38037 6.05404C8.57928 6.05404 8.77005 6.13306 8.9107 6.27371C9.05135 6.41436 9.13037 6.60513 9.13037 6.80404C9.13037 7.00295 9.05135 7.19371 8.9107 7.33437C8.77005 7.47502 8.57928 7.55404 8.38037 7.55404C8.11515 7.55404 7.8608 7.65939 7.67326 7.84693C7.48573 8.03447 7.38037 8.28882 7.38037 8.55404C7.38037 8.81925 7.48573 9.07361 7.67326 9.26114C7.8608 9.44868 8.11515 9.55404 8.38037 9.55404C9.10971 9.55404 9.80919 9.26431 10.3249 8.74858C10.8406 8.23286 11.1304 7.53338 11.1304 6.80404C11.1304 6.07469 10.8406 5.37522 10.3249 4.85949C9.80919 4.34377 9.10971 4.05404 8.38037 4.05404ZM16.9604 7.73404C16.8278 6.26865 16.3171 4.86277 15.4782 3.65394C14.6393 2.44512 13.501 1.47476 12.1747 0.837783C10.8483 0.20081 9.37934 -0.0809545 7.91143 0.0200553C6.44352 0.121065 5.02697 0.60139 3.80037 1.41404C2.74957 2.11668 1.86742 3.04334 1.21731 4.12743C0.567203 5.21152 0.165264 6.42614 0.0403693 7.68404C-0.0821483 8.93369 0.0750432 10.195 0.50054 11.3763C0.926036 12.5577 1.60917 13.6295 2.50037 14.514L7.80037 19.824C7.89333 19.9178 8.00393 19.9922 8.12579 20.0429C8.24765 20.0937 8.37836 20.1198 8.51037 20.1198C8.64238 20.1198 8.77309 20.0937 8.89495 20.0429C9.01681 19.9922 9.12741 19.9178 9.22037 19.824L14.5004 14.514C15.3916 13.6295 16.0747 12.5577 16.5002 11.3763C16.9257 10.195 17.0829 8.93369 16.9604 7.68404V7.73404ZM13.1004 13.104L8.50037 17.704L3.90037 13.104C3.22246 12.4261 2.70317 11.6064 2.37984 10.7038C2.0565 9.80123 1.93715 8.83823 2.03037 7.88404C2.12419 6.91514 2.43213 5.9792 2.93194 5.14388C3.43175 4.30856 4.11093 3.59474 4.92037 3.05404C5.98131 2.34927 7.22668 1.97333 8.50037 1.97333C9.77406 1.97333 11.0194 2.34927 12.0804 3.05404C12.8874 3.59265 13.565 4.30332 14.0647 5.13498C14.5644 5.96663 14.8737 6.89864 14.9704 7.86404C15.0666 8.82146 14.9488 9.78831 14.6254 10.6946C14.3019 11.6009 13.781 12.4239 13.1004 13.104V13.104Z" fill="var(--fill-0, #1E1F26)"/>
</svg>
