<svg preserveAspectRatio="none" width="100%" height="100%" overflow="visible" style="display: block;" viewBox="0 0 20.0018 14" fill="none" xmlns="http://www.w3.org/2000/svg">
<path id="Vector" d="M1.64176 4.56C1.43754 4.39026 1.17426 4.3086 0.909836 4.33298C0.64541 4.35736 0.401499 4.48578 0.23176 4.69C0.0620218 4.89422 -0.0196399 5.1575 0.00473987 5.42192C0.0291196 5.68635 0.157544 5.93026 0.36176 6.1L1.44176 7L0.36176 7.9C0.260502 7.98395 0.1768 8.08705 0.115448 8.2034C0.0540956 8.31974 0.0162993 8.44705 0.00422346 8.57803C-0.00785241 8.70901 0.00602938 8.84108 0.0450739 8.96668C0.0841183 9.09229 0.147558 9.20895 0.23176 9.31C0.315709 9.41126 0.41881 9.49496 0.535157 9.55631C0.651504 9.61766 0.778812 9.65546 0.909789 9.66754C1.04077 9.67961 1.17284 9.66573 1.29844 9.62669C1.42405 9.58764 1.54071 9.5242 1.64176 9.44L3.64176 7.77C3.755 7.67617 3.84615 7.55851 3.90871 7.42542C3.97128 7.29232 4.00372 7.14707 4.00372 7C4.00372 6.85293 3.97128 6.70768 3.90871 6.57458C3.84615 6.44149 3.755 6.32383 3.64176 6.23L1.64176 4.56ZM7.00176 0C6.73654 0 6.48219 0.105357 6.29465 0.292893C6.10712 0.48043 6.00176 0.734784 6.00176 1V13C6.00176 13.2652 6.10712 13.5196 6.29465 13.7071C6.48219 13.8946 6.73654 14 7.00176 14C7.26698 14 7.52133 13.8946 7.70887 13.7071C7.8964 13.5196 8.00176 13.2652 8.00176 13V1C8.00176 0.734784 7.8964 0.48043 7.70887 0.292893C7.52133 0.105357 7.26698 0 7.00176 0ZM11.0018 2H19.0018C19.267 2 19.5213 1.89464 19.7089 1.70711C19.8964 1.51957 20.0018 1.26522 20.0018 1C20.0018 0.734784 19.8964 0.48043 19.7089 0.292893C19.5213 0.105357 19.267 0 19.0018 0H11.0018C10.7365 0 10.4822 0.105357 10.2947 0.292893C10.1071 0.48043 10.0018 0.734784 10.0018 1C10.0018 1.26522 10.1071 1.51957 10.2947 1.70711C10.4822 1.89464 10.7365 2 11.0018 2V2ZM19.0018 12H11.0018C10.7365 12 10.4822 12.1054 10.2947 12.2929C10.1071 12.4804 10.0018 12.7348 10.0018 13C10.0018 13.2652 10.1071 13.5196 10.2947 13.7071C10.4822 13.8946 10.7365 14 11.0018 14H19.0018C19.267 14 19.5213 13.8946 19.7089 13.7071C19.8964 13.5196 20.0018 13.2652 20.0018 13C20.0018 12.7348 19.8964 12.4804 19.7089 12.2929C19.5213 12.1054 19.267 12 19.0018 12ZM19.0018 4H11.0018C10.7365 4 10.4822 4.10536 10.2947 4.29289C10.1071 4.48043 10.0018 4.73478 10.0018 5C10.0018 5.26522 10.1071 5.51957 10.2947 5.70711C10.4822 5.89464 10.7365 6 11.0018 6H19.0018C19.267 6 19.5213 5.89464 19.7089 5.70711C19.8964 5.51957 20.0018 5.26522 20.0018 5C20.0018 4.73478 19.8964 4.48043 19.7089 4.29289C19.5213 4.10536 19.267 4 19.0018 4ZM19.0018 8H11.0018C10.7365 8 10.4822 8.10536 10.2947 8.29289C10.1071 8.48043 10.0018 8.73478 10.0018 9C10.0018 9.26522 10.1071 9.51957 10.2947 9.70711C10.4822 9.89464 10.7365 10 11.0018 10H19.0018C19.267 10 19.5213 9.89464 19.7089 9.70711C19.8964 9.51957 20.0018 9.26522 20.0018 9C20.0018 8.73478 19.8964 8.48043 19.7089 8.29289C19.5213 8.10536 19.267 8 19.0018 8Z" fill="var(--fill-0, #1E1F26)"/>
</svg>
