<svg preserveAspectRatio="none" width="100%" height="100%" overflow="visible" style="display: block;" viewBox="0 0 20.0008 20.005" fill="none" xmlns="http://www.w3.org/2000/svg">
<path id="Vector" d="M20.0008 3.08423C20.0016 2.47445 19.8214 1.87814 19.4831 1.37086C19.1447 0.863579 18.6634 0.468155 18.1 0.234689C17.5367 0.00122282 16.9168 -0.0597784 16.3188 0.0594144C15.7207 0.178607 15.1716 0.47263 14.7408 0.904229L11.9308 3.71423L5.44079 1.55423C5.268 1.49992 5.0837 1.49356 4.90758 1.53583C4.73145 1.5781 4.57012 1.66741 4.44079 1.79423L2.06079 4.15423C1.94802 4.26831 1.86435 4.40784 1.81684 4.56105C1.76932 4.71426 1.75937 4.87665 1.7878 5.03452C1.81624 5.19239 1.88223 5.3411 1.98022 5.4681C2.07821 5.5951 2.20531 5.69667 2.35079 5.76423L7.53079 8.11423L4.93079 10.7142L3.22079 9.85423C3.03617 9.75431 2.82477 9.71502 2.61658 9.74194C2.40838 9.76887 2.21393 9.86063 2.06079 10.0042L0.290793 11.8142C0.104542 12.0016 0 12.255 0 12.5192C0 12.7834 0.104542 13.0369 0.290793 13.2242L6.78079 19.7142C6.96815 19.9005 7.22161 20.005 7.48579 20.005C7.74998 20.005 8.00343 19.9005 8.19079 19.7142L10.0008 17.9442C10.1509 17.7957 10.2501 17.6035 10.2842 17.3951C10.3184 17.1867 10.2856 16.9729 10.1908 16.7842L9.33079 15.0742L11.9308 12.4742L14.2808 17.6542C14.3484 17.7997 14.4499 17.9268 14.5769 18.0248C14.7039 18.1228 14.8526 18.1888 15.0105 18.2172C15.1684 18.2457 15.3308 18.2357 15.484 18.1882C15.6372 18.1407 15.7767 18.057 15.8908 17.9442L18.2508 15.5842C18.3776 15.4549 18.4669 15.2936 18.5092 15.1174C18.5515 14.9413 18.5451 14.757 18.4908 14.5842L16.3308 8.09423L19.1008 5.26423C19.388 4.97879 19.6155 4.63903 19.77 4.26474C19.9246 3.89046 20.003 3.48915 20.0008 3.08423V3.08423ZM17.6808 3.85423L14.4408 7.09423C14.314 7.22355 14.2247 7.38489 14.1824 7.56101C14.1401 7.73714 14.1465 7.92144 14.2008 8.09423L16.3608 14.5742L15.4608 15.4742L13.1108 10.3042C13.0441 10.1574 12.9429 10.0289 12.8158 9.92962C12.6886 9.83037 12.5394 9.76333 12.3808 9.73423C12.2209 9.70504 12.0562 9.71528 11.9011 9.76407C11.7461 9.81286 11.6052 9.89873 11.4908 10.0142L7.37079 14.1742C7.22288 14.322 7.125 14.5124 7.09092 14.7187C7.05684 14.925 7.08827 15.1367 7.18079 15.3242L8.00079 17.0042L7.44079 17.5642L2.41079 12.5242L3.00079 12.0042L4.71079 12.8642C4.89828 12.9568 5.11006 12.9882 5.31634 12.9541C5.52262 12.92 5.71303 12.8221 5.86079 12.6742L10.0008 8.51423C10.1157 8.40022 10.2012 8.26003 10.25 8.10569C10.2988 7.95135 10.3093 7.78748 10.2808 7.62814C10.2523 7.46881 10.1855 7.31879 10.0862 7.19095C9.98694 7.06312 9.85811 6.96129 9.71079 6.89423L4.50079 4.54423L5.40079 3.64423L11.8808 5.80423C12.0536 5.85854 12.2379 5.8649 12.414 5.82263C12.5901 5.78036 12.7515 5.69105 12.8808 5.56423L16.1208 2.32423C16.2204 2.22233 16.3394 2.14137 16.4708 2.08609C16.6022 2.03082 16.7433 2.00234 16.8858 2.00234C17.0283 2.00234 17.1694 2.03082 17.3008 2.08609C17.4321 2.14137 17.5511 2.22233 17.6508 2.32423C17.7551 2.42087 17.8376 2.53865 17.8928 2.66971C17.948 2.80076 17.9746 2.94208 17.9708 3.08423C17.9762 3.22543 17.9534 3.36628 17.9036 3.49851C17.8538 3.63075 17.778 3.75169 17.6808 3.85423V3.85423Z" fill="var(--fill-0, #1E1F26)"/>
</svg>
