<svg preserveAspectRatio="none" width="100%" height="100%" overflow="visible" style="display: block;" viewBox="0 0 20 22" fill="none" xmlns="http://www.w3.org/2000/svg">
<path id="Vector" d="M10 9V7C9.99826 6.38106 9.80512 5.7778 9.44706 5.27293C9.089 4.76807 8.58355 4.38631 8 4.18V3C8 2.20435 7.68393 1.44129 7.12132 0.87868C6.55871 0.31607 5.79565 0 5 0C4.20435 0 3.44129 0.31607 2.87868 0.87868C2.31607 1.44129 2 2.20435 2 3V4.18C1.41645 4.38631 0.910998 4.76807 0.552938 5.27293C0.194879 5.7778 0.00173951 6.38106 0 7V9C0 9.79565 0.316071 10.5587 0.87868 11.1213C1.44129 11.6839 2.20435 12 3 12H7C7.79565 12 8.55871 11.6839 9.12132 11.1213C9.68393 10.5587 10 9.79565 10 9ZM4 3C4 2.73478 4.10536 2.48043 4.29289 2.29289C4.48043 2.10536 4.73478 2 5 2C5.26522 2 5.51957 2.10536 5.70711 2.29289C5.89464 2.48043 6 2.73478 6 3V4H4V3ZM2 9V7C2 6.73478 2.10536 6.48043 2.29289 6.29289C2.48043 6.10536 2.73478 6 3 6H7C7.26522 6 7.51957 6.10536 7.70711 6.29289C7.89464 6.48043 8 6.73478 8 7V9C8 9.26522 7.89464 9.51957 7.70711 9.70711C7.51957 9.89464 7.26522 10 7 10H3C2.73478 10 2.48043 9.89464 2.29289 9.70711C2.10536 9.51957 2 9.26522 2 9ZM17 6H13C12.7348 6 12.4804 6.10536 12.2929 6.29289C12.1054 6.48043 12 6.73478 12 7C12 7.26522 12.1054 7.51957 12.2929 7.70711C12.4804 7.89464 12.7348 8 13 8H17C17.2652 8 17.5196 8.10536 17.7071 8.29289C17.8946 8.48043 18 8.73478 18 9V18.72L16.43 17.27C16.2456 17.0973 16.0026 17.0009 15.75 17H7C6.73478 17 6.48043 16.8946 6.29289 16.7071C6.10536 16.5196 6 16.2652 6 16V15C6 14.7348 5.89464 14.4804 5.70711 14.2929C5.51957 14.1054 5.26522 14 5 14C4.73478 14 4.48043 14.1054 4.29289 14.2929C4.10536 14.4804 4 14.7348 4 15V16C4 16.7956 4.31607 17.5587 4.87868 18.1213C5.44129 18.6839 6.20435 19 7 19H15.36L18.36 21.73C18.5342 21.8936 18.7613 21.9894 19 22C19.1372 21.9985 19.2728 21.9714 19.4 21.92C19.5789 21.8419 19.731 21.7132 19.8376 21.5497C19.9442 21.3863 20.0007 21.1952 20 21V9C20 8.20435 19.6839 7.44129 19.1213 6.87868C18.5587 6.31607 17.7956 6 17 6Z" fill="var(--fill-0, #1E1F26)"/>
</svg>
