<svg preserveAspectRatio="none" width="100%" height="100%" overflow="visible" style="display: block;" viewBox="0 0 19 20.0015" fill="none" xmlns="http://www.w3.org/2000/svg">
<path id="Vector" d="M8 6.00151C8 2.51151 4.7 0.261507 4.56 0.171507C4.39463 0.0597315 4.1996 0 4 0C3.8004 0 3.60537 0.0597315 3.44 0.171507C3.3 0.271507 0 2.55151 0 6.00151C0 7.06237 0.421427 8.07979 1.17157 8.82994C1.92172 9.58008 2.93913 10.0015 4 10.0015C5.06087 10.0015 6.07828 9.58008 6.82843 8.82994C7.57857 8.07979 8 7.06237 8 6.00151ZM4 8.00151C3.46957 8.00151 2.96086 7.79079 2.58579 7.41572C2.21071 7.04065 2 6.53194 2 6.00151C2.06853 5.27943 2.28078 4.57834 2.62425 3.93949C2.96771 3.30064 3.43547 2.73693 4 2.28151C4.56664 2.73498 5.03587 3.29822 5.37954 3.93745C5.72321 4.57668 5.93425 5.27873 6 6.00151C6 6.53194 5.78929 7.04065 5.41421 7.41572C5.03914 7.79079 4.53043 8.00151 4 8.00151ZM15.56 0.171507C15.3946 0.0597315 15.1996 0 15 0C14.8004 0 14.6054 0.0597315 14.44 0.171507C14.3 0.271507 11 2.55151 11 6.00151C11 7.06237 11.4214 8.07979 12.1716 8.82994C12.9217 9.58008 13.9391 10.0015 15 10.0015C16.0609 10.0015 17.0783 9.58008 17.8284 8.82994C18.5786 8.07979 19 7.06237 19 6.00151C19 2.51151 15.7 0.261507 15.56 0.171507ZM15 8.00151C14.4696 8.00151 13.9609 7.79079 13.5858 7.41572C13.2107 7.04065 13 6.53194 13 6.00151C13.0685 5.27943 13.2808 4.57834 13.6242 3.93949C13.9677 3.30064 14.4355 2.73693 15 2.28151C15.5666 2.73498 16.0359 3.29822 16.3795 3.93745C16.7232 4.57668 16.9343 5.27873 17 6.00151C17 6.53194 16.7893 7.04065 16.4142 7.41572C16.0391 7.79079 15.5304 8.00151 15 8.00151ZM10.56 10.1715C10.3946 10.0597 10.1996 10 10 10C9.8004 10 9.60537 10.0597 9.44 10.1715C9.3 10.2715 6 12.5515 6 16.0015C6 17.0624 6.42143 18.0798 7.17157 18.8299C7.92172 19.5801 8.93913 20.0015 10 20.0015C11.0609 20.0015 12.0783 19.5801 12.8284 18.8299C13.5786 18.0798 14 17.0624 14 16.0015C14 12.5115 10.7 10.2615 10.56 10.1715V10.1715ZM10 18.0015C9.46957 18.0015 8.96086 17.7908 8.58579 17.4157C8.21071 17.0406 8 16.5319 8 16.0015C8.06853 15.2794 8.28078 14.5783 8.62425 13.9395C8.96771 13.3006 9.43547 12.7369 10 12.2815C10.5666 12.735 11.0359 13.2982 11.3795 13.9375C11.7232 14.5767 11.9343 15.2787 12 16.0015C12 16.5319 11.7893 17.0406 11.4142 17.4157C11.0391 17.7908 10.5304 18.0015 10 18.0015Z" fill="var(--fill-0, #1E1F26)"/>
</svg>
