<svg preserveAspectRatio="none" width="100%" height="100%" overflow="visible" style="display: block;" viewBox="0 0 19.9982 20.0029" fill="none" xmlns="http://www.w3.org/2000/svg">
<path id="Vector" d="M16.9982 12.0029C16.8708 11.9699 16.7381 11.9623 16.6078 11.9806C16.4775 11.9989 16.3521 12.0427 16.2387 12.1096C16.1254 12.1765 16.0263 12.2651 15.9473 12.3704C15.8683 12.4756 15.8108 12.5954 15.7782 12.7229C15.3958 14.2315 14.5216 15.5696 13.2938 16.5258C12.0659 17.4819 10.5544 18.0017 8.99819 18.0029H3.40819L4.04819 17.3729C4.23444 17.1856 4.33898 16.9321 4.33898 16.6679C4.33898 16.4037 4.23444 16.1503 4.04819 15.9629C3.17228 15.0905 2.54303 14.0017 2.22444 12.8072C1.90585 11.6127 1.90928 10.3551 2.23439 9.16241C2.5595 7.96967 3.19468 6.88431 4.07534 6.0167C4.956 5.14909 6.05073 4.53018 7.24819 4.22292C7.37557 4.19009 7.49524 4.13249 7.60036 4.05341C7.70548 3.97433 7.794 3.87532 7.86086 3.76203C7.92771 3.64875 7.9716 3.5234 7.99002 3.39315C8.00844 3.2629 8.00102 3.1303 7.96819 3.00292C7.90188 2.74566 7.7361 2.52527 7.5073 2.39025C7.39402 2.32339 7.26867 2.2795 7.13842 2.26108C7.00817 2.24267 6.87557 2.25009 6.74819 2.28292C5.29519 2.66176 3.96007 3.39813 2.86445 4.42495C1.76883 5.45176 0.947535 6.73639 0.47538 8.1618C0.00322413 9.58721 -0.104785 11.1081 0.161191 12.5859C0.427167 14.0638 1.05867 15.4516 1.99819 16.6229L0.288186 18.2929C0.149429 18.4335 0.0554325 18.6121 0.0180584 18.8061C-0.0193158 19.0001 0.0016069 19.2008 0.0781863 19.3829C0.153206 19.5655 0.280604 19.7219 0.444325 19.8322C0.608045 19.9425 0.800761 20.0019 0.998186 20.0029H8.99819C10.9944 20.0042 12.9345 19.3418 14.513 18.1198C16.0916 16.8979 17.2191 15.1858 17.7182 13.2529C17.7558 13.1235 17.7669 12.9879 17.7508 12.8542C17.7347 12.7204 17.6918 12.5913 17.6245 12.4745C17.5573 12.3578 17.4671 12.2558 17.3595 12.1748C17.2519 12.0937 17.129 12.0353 16.9982 12.0029ZM18.9982 0.00291666C18.733 0.00291666 18.4786 0.108273 18.2911 0.29581C18.1035 0.483346 17.9982 0.7377 17.9982 1.00292V1.00292C17.2424 0.434936 16.3411 0.0928667 15.3988 0.0163887C14.4565 -0.0600892 13.5118 0.132159 12.6743 0.570831C11.8368 1.0095 11.1409 1.67662 10.6672 2.49481C10.1935 3.31299 9.96148 4.2487 9.99805 5.19341C10.0346 6.13811 10.3383 7.05309 10.8738 7.8322C11.4093 8.61132 12.1547 9.22264 13.0236 9.59526C13.8925 9.96788 14.8492 10.0865 15.7828 9.93744C16.7164 9.78834 17.5886 9.37762 18.2982 8.75292C18.4158 8.67395 18.5153 8.57089 18.5901 8.45058C18.6648 8.33026 18.7132 8.19543 18.7319 8.05501C18.7507 7.9146 18.7394 7.7718 18.6988 7.63609C18.6582 7.50037 18.5892 7.37483 18.4964 7.26777C18.4036 7.16072 18.2892 7.0746 18.1606 7.01512C18.032 6.95564 17.8923 6.92416 17.7507 6.92275C17.609 6.92135 17.4687 6.95006 17.3389 7.00698C17.2092 7.06389 17.0931 7.14773 16.9982 7.25292C16.6346 7.57353 16.1988 7.80127 15.728 7.91665C15.2572 8.03203 14.7654 8.03161 14.2948 7.91542C13.8242 7.79923 13.3888 7.57074 13.0258 7.2495C12.6628 6.92826 12.383 6.52384 12.2105 6.07086C12.0379 5.61788 11.9777 5.12983 12.0349 4.64849C12.0922 4.16715 12.2652 3.70685 12.5392 3.307C12.8133 2.90715 13.1801 2.57965 13.6083 2.35253C14.0366 2.12542 14.5135 2.00546 14.9982 2.00292C15.4193 2.00377 15.8354 2.09325 16.2196 2.26554C16.6038 2.43783 16.9475 2.68907 17.2282 3.00292H15.9982C15.733 3.00292 15.4786 3.10827 15.2911 3.29581C15.1035 3.48335 14.9982 3.7377 14.9982 4.00292C14.9982 4.26813 15.1035 4.52249 15.2911 4.71002C15.4786 4.89756 15.733 5.00292 15.9982 5.00292H18.9982C19.2634 5.00292 19.5178 4.89756 19.7053 4.71002C19.8928 4.52249 19.9982 4.26813 19.9982 4.00292V1.00292C19.9982 0.7377 19.8928 0.483346 19.7053 0.29581C19.5178 0.108273 19.2634 0.00291666 18.9982 0.00291666V0.00291666Z" fill="var(--fill-0, #1E1F26)"/>
</svg>
