<svg preserveAspectRatio="none" width="100%" height="100%" overflow="visible" style="display: block;" viewBox="0 0 22 16" fill="none" xmlns="http://www.w3.org/2000/svg">
<path id="Vector" d="M19 0H3C2.20435 0 1.44129 0.316071 0.87868 0.87868C0.31607 1.44129 0 2.20435 0 3V13C0 13.7956 0.31607 14.5587 0.87868 15.1213C1.44129 15.6839 2.20435 16 3 16H19C19.7956 16 20.5587 15.6839 21.1213 15.1213C21.6839 14.5587 22 13.7956 22 13V3C22 2.20435 21.6839 1.44129 21.1213 0.87868C20.5587 0.316071 19.7956 0 19 0V0ZM20 13C20 13.2652 19.8946 13.5196 19.7071 13.7071C19.5196 13.8946 19.2652 14 19 14H3C2.73478 14 2.48043 13.8946 2.29289 13.7071C2.10536 13.5196 2 13.2652 2 13V3C2 2.73478 2.10536 2.48043 2.29289 2.29289C2.48043 2.10536 2.73478 2 3 2H19C19.2652 2 19.5196 2.10536 19.7071 2.29289C19.8946 2.48043 20 2.73478 20 3V13ZM15 5C14.5208 5.00135 14.0488 5.11748 13.6237 5.33868C13.1986 5.55988 12.8326 5.8797 12.5565 6.27138C12.2804 6.66306 12.1021 7.11519 12.0366 7.58993C11.9711 8.06466 12.0203 8.54818 12.18 9H9.82C10.0324 8.39925 10.048 7.74648 9.86454 7.13627C9.68108 6.52607 9.30811 5.99012 8.79965 5.60609C8.29119 5.22206 7.67366 5.0099 7.03654 5.00035C6.39943 4.9908 5.77582 5.18435 5.25607 5.55296C4.73633 5.92157 4.34745 6.4461 4.14578 7.05053C3.94412 7.65497 3.94014 8.30791 4.13443 8.91476C4.32872 9.5216 4.71118 10.0508 5.22639 10.4257C5.74161 10.8007 6.36281 11.0018 7 11H15C15.7956 11 16.5587 10.6839 17.1213 10.1213C17.6839 9.55871 18 8.79565 18 8C18 7.20435 17.6839 6.44129 17.1213 5.87868C16.5587 5.31607 15.7956 5 15 5ZM7 9C6.80222 9 6.60888 8.94135 6.44443 8.83147C6.27998 8.72159 6.15181 8.56541 6.07612 8.38268C6.00043 8.19996 5.98063 7.99889 6.01921 7.80491C6.0578 7.61093 6.15304 7.43275 6.29289 7.29289C6.43275 7.15304 6.61093 7.0578 6.80491 7.01921C6.99889 6.98063 7.19996 7.00043 7.38268 7.07612C7.56541 7.15181 7.72159 7.27998 7.83147 7.44443C7.94135 7.60888 8 7.80222 8 8C8 8.26522 7.89464 8.51957 7.70711 8.70711C7.51957 8.89464 7.26522 9 7 9V9ZM15 9C14.8022 9 14.6089 8.94135 14.4444 8.83147C14.28 8.72159 14.1518 8.56541 14.0761 8.38268C14.0004 8.19996 13.9806 7.99889 14.0192 7.80491C14.0578 7.61093 14.153 7.43275 14.2929 7.29289C14.4327 7.15304 14.6109 7.0578 14.8049 7.01921C14.9989 6.98063 15.2 7.00043 15.3827 7.07612C15.5654 7.15181 15.7216 7.27998 15.8315 7.44443C15.9414 7.60888 16 7.80222 16 8C16 8.26522 15.8946 8.51957 15.7071 8.70711C15.5196 8.89464 15.2652 9 15 9Z" fill="var(--fill-0, #1E1F26)"/>
</svg>
