<svg preserveAspectRatio="none" width="100%" height="100%" overflow="visible" style="display: block;" viewBox="0 0 16 19.9982" fill="none" xmlns="http://www.w3.org/2000/svg">
<path id="Vector" d="M1.00002 8.99819C1.26523 8.99819 1.51959 8.89283 1.70712 8.70529C1.89466 8.51776 2.00002 8.2634 2.00002 7.99819V3.99819C2.00002 3.73297 1.89466 3.47862 1.70712 3.29108C1.51959 3.10354 1.26523 2.99819 1.00002 2.99819C0.7348 2.99819 0.480447 3.10354 0.29291 3.29108C0.105374 3.47862 1.67143e-05 3.73297 1.67143e-05 3.99819V7.99819C1.67143e-05 8.2634 0.105374 8.51776 0.29291 8.70529C0.480447 8.89283 0.7348 8.99819 1.00002 8.99819ZM0.290017 1.70819C0.430641 1.84694 0.609214 1.94094 0.803203 1.97831C0.997193 2.01569 1.19791 1.99477 1.38002 1.91819C1.5012 1.86754 1.61282 1.79652 1.71002 1.70819C1.79835 1.61099 1.86937 1.49937 1.92002 1.37819C1.976 1.25951 2.0034 1.12936 2.00002 0.998186C2.00078 0.86658 1.97555 0.736117 1.92579 0.61428C1.87602 0.492442 1.8027 0.381626 1.71002 0.288186C1.56939 0.149429 1.39082 0.0554325 1.19683 0.0180584C1.00284 -0.0193158 0.802127 0.0016069 0.620017 0.0781863C0.497265 0.125781 0.38512 0.197146 0.290017 0.288186C0.197335 0.381626 0.12401 0.492442 0.0742455 0.61428C0.0244809 0.736117 -0.000744179 0.86658 1.67143e-05 0.998186C0.0015967 1.12886 0.0287757 1.25796 0.0800166 1.37819C0.130659 1.49937 0.201686 1.61099 0.290017 1.70819V1.70819ZM13 3.99819H5.00002C4.7348 3.99819 4.48045 4.10354 4.29291 4.29108C4.10537 4.47862 4.00002 4.73297 4.00002 4.99819C4.00002 5.2634 4.10537 5.51776 4.29291 5.70529C4.48045 5.89283 4.7348 5.99819 5.00002 5.99819H13C13.2652 5.99819 13.5196 6.10354 13.7071 6.29108C13.8947 6.47862 14 6.73297 14 6.99819V16.7182L12.43 15.2682C12.2456 15.0955 12.0027 14.9991 11.75 14.9982H3.00002C2.7348 14.9982 2.48045 14.8928 2.29291 14.7053C2.10537 14.5178 2.00002 14.2634 2.00002 13.9982V11.9982C2.00002 11.733 1.89466 11.4786 1.70712 11.2911C1.51959 11.1035 1.26523 10.9982 1.00002 10.9982C0.7348 10.9982 0.480447 11.1035 0.29291 11.2911C0.105374 11.4786 1.67143e-05 11.733 1.67143e-05 11.9982V13.9982C1.67143e-05 14.7938 0.316087 15.5569 0.878696 16.1195C1.44131 16.6821 2.20437 16.9982 3.00002 16.9982H11.36L14.36 19.7282C14.5342 19.8918 14.7613 19.9876 15 19.9982C15.1372 19.9967 15.2728 19.9696 15.4 19.9182C15.5789 19.8401 15.731 19.7114 15.8376 19.5479C15.9442 19.3845 16.0007 19.1934 16 18.9982V6.99819C16 6.20254 15.6839 5.43948 15.1213 4.87687C14.5587 4.31426 13.7957 3.99819 13 3.99819Z" fill="var(--fill-0, #1E1F26)"/>
</svg>
