<svg preserveAspectRatio="none" width="100%" height="100%" overflow="visible" style="display: block;" viewBox="0 0 16 19.9837" fill="none" xmlns="http://www.w3.org/2000/svg">
<path id="Vector" d="M7.29001 12.6484C7.10526 12.8346 7.00111 13.086 7.00001 13.3484C7.00026 13.4824 7.02747 13.615 7.08001 13.7384C7.17028 13.9503 7.33093 14.1245 7.53482 14.2317C7.73872 14.3388 7.97335 14.3723 8.19907 14.3264C8.42479 14.2806 8.62776 14.1582 8.77369 13.98C8.91963 13.8018 8.99956 13.5787 9.00001 13.3484C8.9989 13.086 8.89475 12.8346 8.71001 12.6484C8.61704 12.5546 8.50644 12.4802 8.38458 12.4295C8.26272 12.3787 8.13202 12.3526 8.00001 12.3526C7.86799 12.3526 7.73729 12.3787 7.61543 12.4295C7.49357 12.4802 7.38297 12.5546 7.29001 12.6484ZM15.63 1.64836C15.5138 1.55438 15.3781 1.48763 15.2327 1.45302C15.0873 1.41841 14.9361 1.41681 14.79 1.44836C13.7214 1.6723 12.6183 1.67515 11.5486 1.45674C10.4789 1.23833 9.46525 0.80327 8.57001 0.178355C8.40261 0.062228 8.20374 0 8.00001 0C7.79627 0 7.5974 0.062228 7.43001 0.178355C6.53401 0.801556 5.51998 1.23483 4.45029 1.45152C3.38061 1.66821 2.2779 1.66373 1.21001 1.43836C1.06394 1.40681 0.912671 1.40841 0.767306 1.44302C0.621942 1.47763 0.486181 1.54438 0.370006 1.63836C0.253985 1.73247 0.160527 1.85139 0.0964981 1.98637C0.0324695 2.12135 -0.00050219 2.26896 5.78149e-06 2.41836V9.86836C-0.000883255 11.3021 0.340779 12.7153 0.996541 13.9903C1.6523 15.2653 2.60319 16.3652 3.77001 17.1984L7.42001 19.7984C7.58937 19.9189 7.7921 19.9837 8.00001 19.9837C8.20791 19.9837 8.41064 19.9189 8.58001 19.7984L12.23 17.1984C13.3968 16.3652 14.3477 15.2653 15.0035 13.9903C15.6592 12.7153 16.0009 11.3021 16 9.86836V2.41836C16.0005 2.26896 15.9675 2.12135 15.9035 1.98637C15.8395 1.85139 15.746 1.73247 15.63 1.63836V1.64836ZM14 9.86836C14.0008 10.9831 13.7353 12.0819 13.2257 13.0734C12.716 14.0648 11.977 14.9202 11.07 15.5684L8.00001 17.7584L4.93001 15.5684C4.02304 14.9202 3.28399 14.0648 2.77435 13.0734C2.26472 12.0819 1.99924 10.9831 2.00001 9.86836V3.56836C4.09643 3.74779 6.19605 3.26138 8.00001 2.17836C9.80397 3.26138 11.9036 3.74779 14 3.56836V9.86836ZM8.00001 5.34836C7.47307 5.34802 6.95534 5.48648 6.49891 5.7498C6.04249 6.01312 5.66347 6.39202 5.40001 6.84836C5.28045 7.0769 5.25383 7.34279 5.32569 7.5905C5.39755 7.83821 5.56234 8.04857 5.78565 8.17765C6.00895 8.30672 6.27348 8.34453 6.524 8.28317C6.77452 8.2218 6.99164 8.06602 7.13001 7.84836C7.21769 7.69648 7.34377 7.57034 7.4956 7.48258C7.64743 7.39482 7.81967 7.34854 7.99504 7.34836C8.17041 7.34819 8.34274 7.39414 8.49474 7.4816C8.64674 7.56905 8.77307 7.69495 8.86106 7.84665C8.94904 7.99834 8.99559 8.17051 8.99602 8.34588C8.99646 8.52125 8.95077 8.69364 8.86354 8.84578C8.77631 8.99791 8.6506 9.12443 8.49904 9.21264C8.34747 9.30086 8.17537 9.34766 8.00001 9.34836C7.73479 9.34836 7.48044 9.45371 7.2929 9.64125C7.10536 9.82879 7.00001 10.0831 7.00001 10.3484C7.00001 10.6136 7.10536 10.8679 7.2929 11.0555C7.48044 11.243 7.73479 11.3484 8.00001 11.3484C8.79566 11.3484 9.55872 11.0323 10.1213 10.4697C10.6839 9.90707 11 9.144 11 8.34836C11 7.55271 10.6839 6.78964 10.1213 6.22704C9.55872 5.66443 8.79566 5.34836 8.00001 5.34836V5.34836Z" fill="var(--fill-0, #1E1F26)"/>
</svg>
