<svg preserveAspectRatio="none" width="100%" height="100%" overflow="visible" style="display: block;" viewBox="0 0 7.00989 19.9952" fill="none" xmlns="http://www.w3.org/2000/svg">
<path id="Vector" d="M1.71409 4.20501L2.50409 3.40501V7.99501C2.50409 8.26023 2.60945 8.51458 2.79698 8.70212C2.98452 8.88966 3.23887 8.99501 3.50409 8.99501C3.76931 8.99501 4.02366 8.88966 4.2112 8.70212C4.39873 8.51458 4.50409 8.26023 4.50409 7.99501V3.40501L5.29409 4.20501C5.38705 4.29874 5.49766 4.37314 5.61951 4.4239C5.74137 4.47467 5.87208 4.50081 6.00409 4.50081C6.1361 4.50081 6.26681 4.47467 6.38867 4.4239C6.51053 4.37314 6.62113 4.29874 6.71409 4.20501C6.80782 4.11205 6.88221 4.00145 6.93298 3.87959C6.98375 3.75773 7.00989 3.62703 7.00989 3.49501C7.00989 3.363 6.98375 3.2323 6.93298 3.11044C6.88221 2.98858 6.80782 2.87798 6.71409 2.78501L4.21409 0.285014C4.11899 0.193973 4.00684 0.122608 3.88409 0.0750135C3.64063 -0.0250045 3.36755 -0.0250045 3.12409 0.0750135C3.00134 0.122608 2.88919 0.193973 2.79409 0.285014L0.294091 2.78501C0.105788 2.97332 0 3.22871 0 3.49501C0 3.76132 0.105788 4.01671 0.294091 4.20501C0.482395 4.39332 0.73779 4.49911 1.00409 4.49911C1.27039 4.49911 1.52579 4.39332 1.71409 4.20501V4.20501ZM5.29409 15.785L4.50409 16.585V11.995C4.50409 11.7298 4.39873 11.4754 4.2112 11.2879C4.02366 11.1004 3.76931 10.995 3.50409 10.995C3.23887 10.995 2.98452 11.1004 2.79698 11.2879C2.60945 11.4754 2.50409 11.7298 2.50409 11.995V16.585L1.71409 15.785C1.62085 15.6918 1.51016 15.6178 1.38834 15.5674C1.26652 15.5169 1.13595 15.4909 1.00409 15.4909C0.872232 15.4909 0.741664 15.5169 0.619842 15.5674C0.49802 15.6178 0.38733 15.6918 0.294091 15.785C0.200853 15.8783 0.126892 15.9889 0.0764313 16.1108C0.0259709 16.2326 0 16.3632 0 16.495C0 16.6269 0.0259709 16.7574 0.0764313 16.8793C0.126892 17.0011 0.200853 17.1118 0.294091 17.205L2.79409 19.705C2.88919 19.7961 3.00134 19.8674 3.12409 19.915C3.24379 19.9679 3.37322 19.9952 3.50409 19.9952C3.63496 19.9952 3.76439 19.9679 3.88409 19.915C4.00684 19.8674 4.11899 19.7961 4.21409 19.705L6.71409 17.205C6.9024 17.0167 7.00818 16.7613 7.00818 16.495C7.00818 16.2287 6.9024 15.9733 6.71409 15.785C6.52579 15.5967 6.27039 15.4909 6.00409 15.4909C5.73779 15.4909 5.48239 15.5967 5.29409 15.785V15.785Z" fill="var(--fill-0, #1E1F26)"/>
</svg>
