<svg preserveAspectRatio="none" width="100%" height="100%" overflow="visible" style="display: block;" viewBox="0 0 20.0079 17.58" fill="none" xmlns="http://www.w3.org/2000/svg">
<path id="Vector" d="M19.874 8.29001L15.374 0.500008C15.2859 0.347404 15.159 0.220789 15.0062 0.132986C14.8535 0.0451828 14.6802 -0.000691685 14.504 7.88288e-06H5.50397C5.32776 -0.000691685 5.1545 0.0451828 5.00172 0.132986C4.84894 0.220789 4.72208 0.347404 4.63397 0.500008L0.133975 8.29001C0.0462063 8.44203 0 8.61447 0 8.79001C0 8.96554 0.0462063 9.13799 0.133975 9.29001L4.63397 17.08C4.72208 17.2326 4.84894 17.3592 5.00172 17.447C5.1545 17.5348 5.32776 17.5807 5.50397 17.58H14.504C14.6802 17.5807 14.8535 17.5348 15.0062 17.447C15.159 17.3592 15.2859 17.2326 15.374 17.08L19.874 9.29001C19.9617 9.13799 20.0079 8.96554 20.0079 8.79001C20.0079 8.61447 19.9617 8.44203 19.874 8.29001V8.29001ZM13.874 15.58H6.08397L2.15397 8.79001L6.08397 2.00001H13.924L17.854 8.79001L13.874 15.58Z" fill="var(--fill-0, #1E1F26)"/>
</svg>
