<svg preserveAspectRatio="none" width="100%" height="100%" overflow="visible" style="display: block;" viewBox="0 0 19.9974 17.3812" fill="none" xmlns="http://www.w3.org/2000/svg">
<path id="Vector" d="M19.994 11.1538C19.9985 11.1106 19.9985 11.0671 19.994 11.0238C19.99 10.9839 19.99 10.9437 19.994 10.9038L19.944 10.7838L13.944 0.493841C13.8482 0.330657 13.7081 0.197993 13.5399 0.111257C13.3718 0.0245212 13.1825 -0.0127262 12.994 0.00384126H6.99397C6.8188 0.00263143 6.64638 0.0474609 6.49397 0.133841L6.38398 0.213841C6.35182 0.237984 6.32172 0.264742 6.29397 0.293841C6.25538 0.329149 6.22174 0.369515 6.19397 0.413841C6.19397 0.413841 6.19398 0.413841 6.13398 0.493841L0.133975 10.8238C0.0462065 10.9759 0 11.1483 0 11.3238C0 11.4994 0.0462065 11.6718 0.133975 11.8238L3.13397 16.9038C3.1649 16.9578 3.2018 17.0081 3.24397 17.0538V17.1138C3.36819 17.2338 3.51893 17.3229 3.68397 17.3738V17.3738C3.75698 17.3836 3.83097 17.3836 3.90397 17.3738H15.994C16.1675 17.3738 16.3381 17.3286 16.4889 17.2427C16.6396 17.1568 16.7655 17.0331 16.854 16.8838L19.854 11.7438L19.904 11.6238C19.9 11.5839 19.9 11.5437 19.904 11.5038C19.9093 11.4607 19.9093 11.417 19.904 11.3738C19.9095 11.3307 19.9095 11.287 19.904 11.2438C19.9371 11.2172 19.9673 11.187 19.994 11.1538V11.1538ZM3.99397 14.4438L2.20397 11.3438L6.99397 2.98384L7.86397 4.48384L8.86397 6.14384L4.99397 12.6238L3.99397 14.4438ZM9.99397 8.12384L11.254 10.2838H8.71397L9.99397 8.12384ZM15.424 15.4238H5.69397L7.53397 12.2838H17.254L15.424 15.4238ZM13.564 10.2838L8.73397 2.00384H12.424L17.254 10.2838H13.564Z" fill="var(--fill-0, #1E1F26)"/>
</svg>
