<svg preserveAspectRatio="none" width="100%" height="100%" overflow="visible" style="display: block;" viewBox="0 0 17.0007 20.1227" fill="none" xmlns="http://www.w3.org/2000/svg">
<path id="Vector" d="M10.9104 4.58695C10.5968 4.65621 10.272 4.65723 9.95794 4.58994C9.64392 4.52265 9.34805 4.38862 9.09037 4.19695C8.91911 4.0718 8.71248 4.00435 8.50037 4.00435C8.28825 4.00435 8.08163 4.0718 7.91037 4.19695C7.65269 4.38862 7.35681 4.52265 7.0428 4.58994C6.72878 4.65723 6.40396 4.65621 6.09037 4.58695C5.94431 4.55541 5.79303 4.557 5.64767 4.59161C5.50231 4.62622 5.36655 4.69297 5.25037 4.78695C5.13435 4.88107 5.04089 4.99999 4.97686 5.13497C4.91283 5.26994 4.87986 5.41756 4.88037 5.56695V8.46695C4.87336 9.10967 5.01611 9.74519 5.29729 10.3232C5.57847 10.9012 5.99038 11.4057 6.50037 11.7969L7.87037 12.7969C8.04163 12.9221 8.24825 12.9895 8.46037 12.9895C8.67248 12.9895 8.87911 12.9221 9.05037 12.7969L10.4204 11.7969C10.9377 11.4099 11.3573 10.9072 11.6455 10.3289C11.9338 9.75071 12.0827 9.11304 12.0804 8.46695V5.56695C12.0809 5.41756 12.0479 5.26994 11.9839 5.13497C11.9198 4.99999 11.8264 4.88107 11.7104 4.78695C11.5989 4.69865 11.4699 4.63514 11.3319 4.60065C11.194 4.56616 11.0503 4.56149 10.9104 4.58695ZM10.1204 8.46695C10.1231 8.80157 10.0477 9.1322 9.9001 9.43254C9.75254 9.73288 9.53691 9.99463 9.27037 10.1969L8.50037 10.7669L7.73037 10.1969C7.46383 9.99463 7.2482 9.73288 7.10063 9.43254C6.95307 9.1322 6.87765 8.80157 6.88037 8.46695V6.62695C7.44509 6.58713 7.99602 6.43409 8.50037 6.17695C9.00472 6.43409 9.55565 6.58713 10.1204 6.62695V8.46695ZM16.9604 7.68695C16.82 6.22586 16.3036 4.82603 15.4616 3.62377C14.6195 2.4215 13.4805 1.45778 12.1554 0.826443C10.8303 0.195105 9.36425 -0.0823301 7.90008 0.0211529C6.43592 0.124636 5.0235 0.60551 3.80037 1.41695C2.74957 2.11959 1.86742 3.04625 1.21731 4.13034C0.567203 5.21443 0.165264 6.42905 0.0403693 7.68695C-0.0821483 8.93661 0.0750432 10.1979 0.50054 11.3792C0.926036 12.5606 1.60917 13.6324 2.50037 14.5169L7.80037 19.827C7.89333 19.9207 8.00393 19.9951 8.12579 20.0458C8.24765 20.0966 8.37836 20.1227 8.51037 20.1227C8.64238 20.1227 8.77309 20.0966 8.89495 20.0458C9.01681 19.9951 9.12741 19.9207 9.22037 19.827L14.5004 14.5169C15.3916 13.6324 16.0747 12.5606 16.5002 11.3792C16.9257 10.1979 17.0829 8.93661 16.9604 7.68695V7.68695ZM13.1004 13.1069L8.50037 17.7069L3.90037 13.1069C3.22246 12.429 2.70317 11.6093 2.37984 10.7067C2.0565 9.80414 1.93715 8.84114 2.03037 7.88695C2.12419 6.91805 2.43213 5.98211 2.93194 5.14679C3.43175 4.31147 4.11093 3.59766 4.92037 3.05695C5.98131 2.35219 7.22668 1.97624 8.50037 1.97624C9.77406 1.97624 11.0194 2.35219 12.0804 3.05695C12.8874 3.59557 13.565 4.30623 14.0647 5.13789C14.5644 5.96955 14.8737 6.90155 14.9704 7.86695C15.0666 8.82438 14.9488 9.79123 14.6254 10.6975C14.3019 11.6038 13.781 12.4268 13.1004 13.1069V13.1069Z" fill="var(--fill-0, #1E1F26)"/>
</svg>
