<svg preserveAspectRatio="none" width="100%" height="100%" overflow="visible" style="display: block;" viewBox="0 0 17.5669 16.9562" fill="none" xmlns="http://www.w3.org/2000/svg">
<path id="Vector" d="M17.3945 12.7081C17.0499 11.4457 16.2242 10.3686 15.0945 9.70811L12.9845 8.47812L12.5045 3.00812C12.4913 2.84835 12.4399 2.69408 12.3546 2.55834C12.2693 2.42259 12.1527 2.30933 12.0145 2.22812L9.01446 0.508115C8.86244 0.420347 8.69 0.37414 8.51446 0.37414C8.33892 0.37414 8.16648 0.420347 8.01446 0.508115C7.86247 0.591118 7.73464 0.712169 7.64349 0.859416C7.55233 1.00666 7.50098 1.17506 7.49446 1.34811L7.34446 5.24812L5.59446 4.24812L2.73446 0.398115C2.61816 0.24381 2.45965 0.126503 2.27809 0.0603787C2.09654 -0.00574542 1.89971 -0.017854 1.71142 0.0255169C1.52313 0.0688877 1.35143 0.165881 1.21709 0.304766C1.08276 0.443652 0.991537 0.618482 0.95446 0.808115L0.0844603 5.41811C-0.0670503 6.04306 -0.0137436 6.70015 0.23652 7.2925C0.486784 7.88485 0.92076 8.38112 1.47446 8.70811L15.5345 16.8181C15.7605 16.9511 16.0296 16.9899 16.284 16.9263C16.5384 16.8627 16.7576 16.7018 16.8945 16.4781C17.2243 15.9145 17.4384 15.2908 17.5243 14.6435C17.6101 13.9962 17.566 13.3382 17.3945 12.7081V12.7081ZM15.5145 14.4781L2.47446 6.97812C2.28746 6.86397 2.14313 6.69157 2.06364 6.48742C1.98414 6.28327 1.97389 6.05866 2.03446 5.84811L2.49446 3.40811L4.15446 5.60812C4.23507 5.71757 4.33715 5.80944 4.45446 5.87811L7.80446 7.81812C7.95385 7.90451 8.12306 7.95078 8.29563 7.95241C8.4682 7.95405 8.63825 7.91099 8.78925 7.82744C8.94025 7.74388 9.06706 7.62267 9.15734 7.4756C9.24762 7.32852 9.29831 7.16058 9.30446 6.98812L9.46446 3.08812L10.5545 3.71811L11.0345 9.18812C11.0487 9.34882 11.1016 9.50369 11.1887 9.63951C11.2757 9.77534 11.3944 9.88808 11.5345 9.96811L14.0945 11.4781C14.4275 11.6703 14.7192 11.9265 14.9526 12.232C15.186 12.5375 15.3566 12.8863 15.4545 13.2581C15.566 13.6551 15.5865 14.0721 15.5145 14.4781V14.4781Z" fill="var(--fill-0, #1E1F26)"/>
</svg>
