<svg preserveAspectRatio="none" width="100%" height="100%" overflow="visible" style="display: block;" viewBox="0 0 19.9811 15.9925" fill="none" xmlns="http://www.w3.org/2000/svg">
<path id="Vector" d="M16.4284 4.20671C15.8174 2.80272 14.7629 1.63779 13.4265 0.890438C12.0901 0.143088 10.5455 -0.145456 9.0294 0.0690207C7.51331 0.283498 6.10936 0.989165 5.03269 2.07789C3.95602 3.16661 3.26602 4.57833 3.06844 6.09671C2.11502 6.32503 1.27866 6.89554 0.718173 7.6999C0.157689 8.50426 -0.0878807 9.48644 0.0280989 10.4599C0.144078 11.4334 0.61353 12.3304 1.3473 12.9806C2.08107 13.6307 3.02806 13.9888 4.00844 13.9867C4.27365 13.9867 4.52801 13.8814 4.71554 13.6938C4.90308 13.5063 5.00844 13.2519 5.00844 12.9867C5.00844 12.7215 4.90308 12.4671 4.71554 12.2796C4.52801 12.0921 4.27365 11.9867 4.00844 11.9867C3.478 11.9867 2.96929 11.776 2.59422 11.4009C2.21915 11.0259 2.00844 10.5171 2.00844 9.98671C2.00844 9.45628 2.21915 8.94757 2.59422 8.5725C2.96929 8.19743 3.478 7.98671 4.00844 7.98671C4.27365 7.98671 4.52801 7.88135 4.71554 7.69382C4.90308 7.50628 5.00844 7.25193 5.00844 6.98671C5.01099 5.80399 5.43272 4.66046 6.1987 3.75929C6.96469 2.85813 8.02533 2.25766 9.19218 2.06459C10.359 1.87151 11.5566 2.09832 12.572 2.70472C13.5874 3.31112 14.355 4.25785 14.7384 5.37671C14.7956 5.54855 14.8983 5.70164 15.0357 5.81964C15.1731 5.93765 15.3399 6.01613 15.5184 6.04671C16.1845 6.17258 16.7883 6.52031 17.2315 7.03325C17.6746 7.54618 17.931 8.19407 17.9588 8.87135C17.9867 9.54863 17.7843 10.2154 17.3847 10.7629C16.9852 11.3105 16.4119 11.7066 15.7584 11.8867C15.5012 11.953 15.2808 12.1188 15.1458 12.3476C15.0107 12.5764 14.9721 12.8495 15.0384 13.1067C15.1047 13.364 15.2705 13.5844 15.4993 13.7194C15.7281 13.8544 16.0012 13.893 16.2584 13.8267C17.3108 13.5486 18.2437 12.9347 18.9154 12.0782C19.5872 11.2217 19.961 10.1693 19.9803 9.08098C19.9995 7.99264 19.663 6.92775 19.022 6.04803C18.381 5.16831 17.4703 4.52181 16.4284 4.20671V4.20671ZM12.7184 10.2767C12.6255 10.183 12.5149 10.1086 12.393 10.0578C12.2712 10.0071 12.1404 9.98091 12.0084 9.98091C11.8764 9.98091 11.7457 10.0071 11.6239 10.0578C11.502 10.1086 11.3914 10.183 11.2984 10.2767L10.0084 11.5767L8.71844 10.2767C8.53013 10.0884 8.27474 9.98262 8.00844 9.98262C7.74213 9.98262 7.48674 10.0884 7.29844 10.2767C7.11013 10.465 7.00434 10.7204 7.00434 10.9867C7.00434 11.253 7.11013 11.5084 7.29844 11.6967L8.59844 12.9867L7.29844 14.2767C7.20471 14.3697 7.13031 14.4803 7.07954 14.6021C7.02878 14.724 7.00264 14.8547 7.00264 14.9867C7.00264 15.1187 7.02878 15.2494 7.07954 15.3713C7.13031 15.4931 7.20471 15.6037 7.29844 15.6967C7.3914 15.7904 7.502 15.8648 7.62386 15.9156C7.74572 15.9664 7.87642 15.9925 8.00844 15.9925C8.14045 15.9925 8.27115 15.9664 8.39301 15.9156C8.51487 15.8648 8.62547 15.7904 8.71844 15.6967L10.0084 14.3967L11.2984 15.6967C11.3914 15.7904 11.502 15.8648 11.6239 15.9156C11.7457 15.9664 11.8764 15.9925 12.0084 15.9925C12.1404 15.9925 12.2712 15.9664 12.393 15.9156C12.5149 15.8648 12.6255 15.7904 12.7184 15.6967C12.8122 15.6037 12.8866 15.4931 12.9373 15.3713C12.9881 15.2494 13.0142 15.1187 13.0142 14.9867C13.0142 14.8547 12.9881 14.724 12.9373 14.6021C12.8866 14.4803 12.8122 14.3697 12.7184 14.2767L11.4184 12.9867L12.7184 11.6967C12.8122 11.6037 12.8866 11.4931 12.9373 11.3713C12.9881 11.2494 13.0142 11.1187 13.0142 10.9867C13.0142 10.8547 12.9881 10.724 12.9373 10.6021C12.8866 10.4803 12.8122 10.3697 12.7184 10.2767V10.2767Z" fill="var(--fill-0, #1E1F26)"/>
</svg>
