<svg preserveAspectRatio="none" width="100%" height="100%" overflow="visible" style="display: block;" viewBox="0 0 20 20.015" fill="none" xmlns="http://www.w3.org/2000/svg">
<path id="Vector" d="M17 4.015H12C11.7348 4.015 11.4804 4.12036 11.2929 4.30789C11.1054 4.49543 11 4.74978 11 5.015C11 5.28022 11.1054 5.53457 11.2929 5.72211C11.4804 5.90964 11.7348 6.015 12 6.015H17C17.2652 6.015 17.5196 6.12036 17.7071 6.30789C17.8946 6.49543 18 6.74978 18 7.015V16.735L16.43 15.285C16.2456 15.1123 16.0026 15.0159 15.75 15.015H7C6.73478 15.015 6.48043 14.9096 6.29289 14.7221C6.10536 14.5346 6 14.2802 6 14.015V12.015C6 11.7498 5.89464 11.4954 5.70711 11.3079C5.51957 11.1204 5.26522 11.015 5 11.015C4.73478 11.015 4.48043 11.1204 4.29289 11.3079C4.10536 11.4954 4 11.7498 4 12.015V14.015C4 14.8106 4.31607 15.5737 4.87868 16.1363C5.44129 16.6989 6.20435 17.015 7 17.015H15.36L18.36 19.745C18.5342 19.9086 18.7613 20.0044 19 20.015C19.1372 20.0135 19.2728 19.9864 19.4 19.935C19.5789 19.8569 19.731 19.7282 19.8376 19.5647C19.9442 19.4013 20.0007 19.2102 20 19.015V7.015C20 6.21935 19.6839 5.45629 19.1213 4.89368C18.5587 4.33107 17.7956 4.015 17 4.015ZM6.57 8.015L8.29 9.745C8.38296 9.83873 8.49356 9.91312 8.61542 9.96389C8.73728 10.0147 8.86799 10.0408 9 10.0408C9.13201 10.0408 9.26272 10.0147 9.38458 9.96389C9.50644 9.91312 9.61704 9.83873 9.71 9.745C9.80373 9.65204 9.87812 9.54144 9.92889 9.41958C9.97966 9.29772 10.0058 9.16701 10.0058 9.035C10.0058 8.90299 9.97966 8.77228 9.92889 8.65042C9.87812 8.52856 9.80373 8.41796 9.71 8.325L8 6.585C8.4191 5.90521 8.64391 5.12357 8.65 4.325C8.65 3.17794 8.19433 2.07786 7.38324 1.26676C6.57214 0.455668 5.47206 0 4.325 0C3.17794 0 2.07786 0.455668 1.26676 1.26676C0.455668 2.07786 0 3.17794 0 4.325C-3.06499e-06 5.469 0.453766 6.5663 1.26176 7.37617C2.06976 8.18604 3.166 8.64235 4.31 8.645C5.10682 8.64595 5.88859 8.42803 6.57 8.015V8.015ZM2 4.325C1.9998 4.02182 2.05981 3.72162 2.17654 3.44181C2.29327 3.162 2.4644 2.90815 2.68 2.695C2.8961 2.47366 3.15429 2.29778 3.43937 2.17769C3.72445 2.0576 4.03066 1.99574 4.34 1.99574C4.64934 1.99574 4.95555 2.0576 5.24063 2.17769C5.52571 2.29778 5.7839 2.47366 6 2.695C6.22258 2.91039 6.39957 3.16835 6.52044 3.45352C6.64132 3.7387 6.70361 4.04527 6.70361 4.355C6.70361 4.66473 6.64132 4.97131 6.52044 5.25648C6.39957 5.54165 6.22258 5.79961 6 6.015C5.67506 6.35697 5.25358 6.59176 4.79178 6.68806C4.32998 6.78436 3.8498 6.73759 3.41526 6.554C2.98072 6.37041 2.61247 6.05871 2.35961 5.66047C2.10676 5.26222 1.98131 4.79636 2 4.325V4.325Z" fill="var(--fill-0, #1E1F26)"/>
</svg>
