<svg preserveAspectRatio="none" width="100%" height="100%" overflow="visible" style="display: block;" viewBox="0 0 20.0163 20.0715" fill="none" xmlns="http://www.w3.org/2000/svg">
<path id="Vector" d="M19.1281 14.8907C18.6899 14.456 18.1283 14.1671 17.5198 14.0633C16.9114 13.9595 16.2857 14.0459 15.7281 14.3107L14.5781 13.1707C16.9342 10.6283 18.7117 7.60565 19.7881 4.31074C19.9924 3.7415 20.0307 3.12592 19.8984 2.53578C19.7662 1.94563 19.4689 1.40523 19.0413 0.977588C18.6136 0.549945 18.0732 0.252677 17.4831 0.120444C16.893 -0.0117893 16.2774 0.0264615 15.7081 0.230736C12.4132 1.3072 9.39058 3.08462 6.84814 5.44074L5.70814 4.29074C5.94497 3.79383 6.04052 3.24134 5.98433 2.69375C5.92814 2.14617 5.72237 1.6246 5.38955 1.18615C5.05673 0.747695 4.60969 0.409267 4.09738 0.207912C3.58507 0.00655709 3.02723 -0.0499606 2.48494 0.044546C1.94265 0.139053 1.43682 0.38094 1.02282 0.743726C0.608827 1.10651 0.302626 1.57621 0.137744 2.1014C-0.0271386 2.62659 -0.0443444 3.18701 0.0880094 3.72133C0.220363 4.25564 0.497174 4.74324 0.888137 5.13074C1.45021 5.69351 2.21276 6.01004 3.00814 6.01074C3.45174 6.0066 3.8889 5.90414 4.28814 5.71074L5.43814 6.85074C3.08203 9.39318 1.3046 12.4158 0.228137 15.7107C0.0406447 16.2792 0.0142774 16.8884 0.15196 17.4709C0.289642 18.0534 0.585992 18.5864 1.00814 19.0107C1.294 19.3155 1.63731 19.5608 2.0183 19.7324C2.39929 19.904 2.81045 19.9986 3.22814 20.0107C3.59452 20.0073 3.95841 19.95 4.30814 19.8407C7.60306 18.7643 10.6257 16.9868 13.1681 14.6307L14.3081 15.7807C14.0713 16.2776 13.9758 16.8301 14.0319 17.3777C14.0881 17.9253 14.2939 18.4469 14.6267 18.8853C14.9595 19.3238 15.4066 19.6622 15.9189 19.8636C16.4312 20.0649 16.989 20.1214 17.5313 20.0269C18.0736 19.9324 18.5795 19.6905 18.9934 19.3277C19.4074 18.965 19.7136 18.4953 19.8785 17.9701C20.0434 17.4449 20.0606 16.8845 19.9283 16.3501C19.7959 15.8158 19.5191 15.3282 19.1281 14.9407V14.8907ZM3.71814 3.71074C3.53116 3.89904 3.27704 4.00535 3.01167 4.00629C2.74631 4.00723 2.49144 3.90271 2.30314 3.71574C2.11483 3.52876 2.00852 3.27464 2.00758 3.00927C2.00664 2.74391 2.11116 2.48904 2.29814 2.30074C2.48511 2.11243 2.73924 2.00612 3.0046 2.00518C3.26996 2.00424 3.52483 2.10876 3.71314 2.29574C3.90144 2.48271 4.00776 2.73684 4.00869 3.0022C4.00963 3.26756 3.90511 3.52243 3.71814 3.71074V3.71074ZM16.3181 2.14074C16.4699 2.09075 16.6284 2.06378 16.7881 2.06074C16.9421 2.05948 17.0948 2.08889 17.2373 2.14727C17.3798 2.20564 17.5093 2.29181 17.6181 2.40074C17.7811 2.56997 17.8922 2.78233 17.9383 3.01271C17.9843 3.24309 17.9635 3.48184 17.8781 3.70074C17.3499 5.32453 16.6351 6.88159 15.7481 8.34074L11.6781 4.27074C13.1373 3.38379 14.6943 2.66901 16.3181 2.14074V2.14074ZM3.69814 17.8807C3.48006 17.968 3.24117 17.9894 3.01106 17.9422C2.78096 17.895 2.56977 17.7813 2.40367 17.6152C2.23758 17.4491 2.12388 17.2379 2.07668 17.0078C2.02948 16.7777 2.05085 16.5388 2.13814 16.3207C2.66641 14.6969 3.38119 13.1399 4.26814 11.6807L8.33814 15.7507C6.87899 16.6377 5.32193 17.3525 3.69814 17.8807V17.8807ZM10.0081 14.6007L5.41814 10.0107C5.86377 9.40591 6.3411 8.8251 6.84814 8.27074L11.7581 13.1807C11.2003 13.6846 10.6161 14.1586 10.0081 14.6007ZM13.1581 11.7607L8.25814 6.85074C8.81574 6.34342 9.3999 5.86608 10.0081 5.42074L14.6081 10.0207C14.1593 10.6258 13.6786 11.2066 13.1681 11.7607H13.1581ZM17.7081 17.7607C17.6156 17.854 17.5055 17.9281 17.3843 17.9788C17.2631 18.0295 17.1331 18.0558 17.0017 18.0563C16.8703 18.0568 16.7401 18.0313 16.6185 17.9815C16.4969 17.9316 16.3864 17.8583 16.2931 17.7657C16.1999 17.6732 16.1258 17.5631 16.0751 17.4419C16.0244 17.3207 15.998 17.1907 15.9976 17.0593C15.9971 16.9279 16.0225 16.7977 16.0724 16.6761C16.1222 16.5545 16.1956 16.444 16.2881 16.3507C16.4755 16.1645 16.729 16.0599 16.9931 16.0599C17.2573 16.0599 17.5108 16.1645 17.6981 16.3507C17.8752 16.5336 17.9759 16.7772 17.9796 17.0318C17.9833 17.2863 17.8898 17.5327 17.7181 17.7207L17.7081 17.7607Z" fill="var(--fill-0, #1E1F26)"/>
</svg>
