<svg preserveAspectRatio="none" width="100%" height="100%" overflow="visible" style="display: block;" viewBox="0 0 14 20" fill="none" xmlns="http://www.w3.org/2000/svg">
<path id="Vector" d="M13 10H9.91C11.2286 8.66733 11.9779 6.8746 12 5C12 3.67392 11.4732 2.40215 10.5355 1.46447C9.59785 0.526784 8.32608 0 7 0C5.67392 0 4.40215 0.526784 3.46447 1.46447C2.52678 2.40215 2 3.67392 2 5C2.02207 6.8746 2.77143 8.66733 4.09 10H1C0.734784 10 0.48043 10.1054 0.292893 10.2929C0.105357 10.4804 0 10.7348 0 11C0 11.2652 0.105357 11.5196 0.292893 11.7071C0.48043 11.8946 0.734784 12 1 12H6V19C6 19.2652 6.10536 19.5196 6.29289 19.7071C6.48043 19.8946 6.73478 20 7 20C7.26522 20 7.51957 19.8946 7.70711 19.7071C7.89464 19.5196 8 19.2652 8 19V12H13C13.2652 12 13.5196 11.8946 13.7071 11.7071C13.8946 11.5196 14 11.2652 14 11C14 10.7348 13.8946 10.4804 13.7071 10.2929C13.5196 10.1054 13.2652 10 13 10ZM7 9.84C6.07 9.22 4 7.58 4 5C4 4.20435 4.31607 3.44129 4.87868 2.87868C5.44129 2.31607 6.20435 2 7 2C7.79565 2 8.55871 2.31607 9.12132 2.87868C9.68393 3.44129 10 4.20435 10 5C10 7.58 7.93 9.23 7 9.84Z" fill="var(--fill-0, #1E1F26)"/>
</svg>
