<svg preserveAspectRatio="none" width="100%" height="100%" overflow="visible" style="display: block;" viewBox="0 0 17.0007 20.1227" fill="none" xmlns="http://www.w3.org/2000/svg">
<path id="Vector" d="M10.9904 8.91695C11.3253 8.45591 11.5262 7.91124 11.5709 7.34315C11.6155 6.77506 11.5022 6.20567 11.2435 5.69795C10.9848 5.19022 10.5907 4.76393 10.1048 4.46619C9.61896 4.16846 9.06021 4.01088 8.49037 4.01088C7.92052 4.01088 7.36178 4.16846 6.8759 4.46619C6.39002 4.76393 5.99594 5.19022 5.73721 5.69795C5.47849 6.20567 5.3652 6.77506 5.40988 7.34315C5.45456 7.91124 5.65546 8.45591 5.99037 8.91695C5.56554 9.18769 5.18732 9.52539 4.87037 9.91695C4.78764 10.024 4.72679 10.1463 4.69132 10.2768C4.65584 10.4073 4.64642 10.5436 4.6636 10.6778C4.68078 10.8119 4.72422 10.9414 4.79144 11.0588C4.85866 11.1762 4.94834 11.2792 5.05537 11.3619C5.1624 11.4447 5.28467 11.5055 5.41521 11.541C5.54575 11.5765 5.682 11.5859 5.81618 11.5687C5.95037 11.5515 6.07985 11.5081 6.19724 11.4409C6.31463 11.3737 6.41764 11.284 6.50037 11.1769C6.74459 10.8665 7.05584 10.6153 7.41084 10.4422C7.76584 10.269 8.15539 10.1783 8.55037 10.1769V10.1769C8.94535 10.1783 9.3349 10.269 9.6899 10.4422C10.0449 10.6153 10.3561 10.8665 10.6004 11.1769C10.6945 11.293 10.8134 11.3864 10.9484 11.4505C11.0834 11.5145 11.231 11.5475 11.3804 11.5469C11.5678 11.5461 11.7513 11.4925 11.9098 11.3924C12.0683 11.2923 12.1955 11.1497 12.2768 10.9808C12.3581 10.8119 12.3903 10.6235 12.3697 10.4372C12.3491 10.2508 12.2766 10.074 12.1604 9.92695C11.8292 9.52763 11.4338 9.18629 10.9904 8.91695V8.91695ZM8.50037 8.18695C8.28652 8.18681 8.07744 8.12376 7.89916 8.00567C7.72088 7.88757 7.58128 7.71964 7.49773 7.52279C7.41418 7.32594 7.39039 7.10886 7.42931 6.89859C7.46822 6.68831 7.56813 6.49413 7.7166 6.34021C7.86506 6.1863 8.05552 6.07946 8.26426 6.03299C8.47299 5.98653 8.69079 6.00249 8.89052 6.07889C9.09026 6.15529 9.2631 6.28875 9.38754 6.46266C9.51199 6.63657 9.58252 6.84325 9.59037 7.05695C9.59575 7.20342 9.57153 7.34947 9.51917 7.48637C9.4668 7.62327 9.38737 7.7482 9.28561 7.85369C9.18385 7.95918 9.06187 8.04306 8.92694 8.10032C8.79202 8.15759 8.64694 8.18705 8.50037 8.18695V8.18695ZM16.9604 7.68695C16.82 6.22586 16.3036 4.82603 15.4616 3.62377C14.6195 2.4215 13.4805 1.45778 12.1554 0.826443C10.8303 0.195105 9.36425 -0.0823301 7.90008 0.0211529C6.43592 0.124636 5.0235 0.60551 3.80037 1.41695C2.74957 2.11959 1.86742 3.04625 1.21731 4.13034C0.567203 5.21443 0.165264 6.42905 0.0403693 7.68695C-0.0821483 8.93661 0.0750432 10.1979 0.50054 11.3792C0.926036 12.5606 1.60917 13.6324 2.50037 14.5169L7.80037 19.827C7.89333 19.9207 8.00393 19.9951 8.12579 20.0458C8.24765 20.0966 8.37836 20.1227 8.51037 20.1227C8.64238 20.1227 8.77309 20.0966 8.89495 20.0458C9.01681 19.9951 9.12741 19.9207 9.22037 19.827L14.5004 14.5169C15.3916 13.6324 16.0747 12.5606 16.5002 11.3792C16.9257 10.1979 17.0829 8.93661 16.9604 7.68695V7.68695ZM13.1004 13.1069L8.50037 17.7069L3.90037 13.1069C3.22246 12.429 2.70317 11.6093 2.37984 10.7067C2.0565 9.80414 1.93715 8.84114 2.03037 7.88695C2.12419 6.91805 2.43213 5.98211 2.93194 5.14679C3.43175 4.31147 4.11093 3.59766 4.92037 3.05695C5.98131 2.35219 7.22668 1.97624 8.50037 1.97624C9.77406 1.97624 11.0194 2.35219 12.0804 3.05695C12.8874 3.59557 13.565 4.30623 14.0647 5.13789C14.5644 5.96955 14.8737 6.90155 14.9704 7.86695C15.0666 8.82438 14.9488 9.79123 14.6254 10.6975C14.3019 11.6038 13.781 12.4268 13.1004 13.1069V13.1069Z" fill="var(--fill-0, #1E1F26)"/>
</svg>
