<svg preserveAspectRatio="none" width="100%" height="100%" overflow="visible" style="display: block;" viewBox="0 0 20 20" fill="none" xmlns="http://www.w3.org/2000/svg">
<path id="Vector" d="M12.71 5.29C12.617 5.19627 12.5064 5.12188 12.3846 5.07111C12.2627 5.02034 12.132 4.9942 12 4.9942C11.868 4.9942 11.7373 5.02034 11.6154 5.07111C11.4936 5.12188 11.383 5.19627 11.29 5.29L9 7.59L6.71 5.29C6.61676 5.19676 6.50607 5.1228 6.38425 5.07234C6.26243 5.02188 6.13186 4.99591 6 4.99591C5.86814 4.99591 5.73757 5.02188 5.61575 5.07234C5.49393 5.1228 5.38324 5.19676 5.29 5.29C5.19676 5.38324 5.1228 5.49393 5.07234 5.61575C5.02188 5.73757 4.99591 5.86814 4.99591 6C4.99591 6.13186 5.02188 6.26243 5.07234 6.38425C5.1228 6.50607 5.19676 6.61676 5.29 6.71L7.59 9L5.29 11.29C5.19627 11.383 5.12188 11.4936 5.07111 11.6154C5.02034 11.7373 4.9942 11.868 4.9942 12C4.9942 12.132 5.02034 12.2627 5.07111 12.3846C5.12188 12.5064 5.19627 12.617 5.29 12.71C5.38296 12.8037 5.49356 12.8781 5.61542 12.9289C5.73728 12.9797 5.86799 13.0058 6 13.0058C6.13201 13.0058 6.26272 12.9797 6.38458 12.9289C6.50644 12.8781 6.61704 12.8037 6.71 12.71L9 10.41L11.29 12.71C11.383 12.8037 11.4936 12.8781 11.6154 12.9289C11.7373 12.9797 11.868 13.0058 12 13.0058C12.132 13.0058 12.2627 12.9797 12.3846 12.9289C12.5064 12.8781 12.617 12.8037 12.71 12.71C12.8037 12.617 12.8781 12.5064 12.9289 12.3846C12.9797 12.2627 13.0058 12.132 13.0058 12C13.0058 11.868 12.9797 11.7373 12.9289 11.6154C12.8781 11.4936 12.8037 11.383 12.71 11.29L10.41 9L12.71 6.71C12.8037 6.61704 12.8781 6.50644 12.9289 6.38458C12.9797 6.26272 13.0058 6.13201 13.0058 6C13.0058 5.86799 12.9797 5.73728 12.9289 5.61542C12.8781 5.49356 12.8037 5.38296 12.71 5.29ZM5 16C4.20435 16 3.44129 15.6839 2.87868 15.1213C2.31607 14.5587 2 13.7956 2 13V5C2 4.20435 2.31607 3.44129 2.87868 2.87868C3.44129 2.31607 4.20435 2 5 2C5.26522 2 5.51957 1.89464 5.70711 1.70711C5.89464 1.51957 6 1.26522 6 1C6 0.734784 5.89464 0.48043 5.70711 0.292893C5.51957 0.105357 5.26522 0 5 0C3.67392 0 2.40215 0.526784 1.46447 1.46447C0.526784 2.40215 0 3.67392 0 5V13C0 14.3261 0.526784 15.5979 1.46447 16.5355C2.40215 17.4732 3.67392 18 5 18C5.26522 18 5.51957 17.8946 5.70711 17.7071C5.89464 17.5196 6 17.2652 6 17C6 16.7348 5.89464 16.4804 5.70711 16.2929C5.51957 16.1054 5.26522 16 5 16ZM16 5V11C16 11.2652 16.1054 11.5196 16.2929 11.7071C16.4804 11.8946 16.7348 12 17 12C17.2652 12 17.5196 11.8946 17.7071 11.7071C17.8946 11.5196 18 11.2652 18 11V5C18 3.67392 17.4732 2.40215 16.5355 1.46447C15.5979 0.526784 14.3261 0 13 0C12.7348 0 12.4804 0.105357 12.2929 0.292893C12.1054 0.48043 12 0.734784 12 1C12 1.26522 12.1054 1.51957 12.2929 1.70711C12.4804 1.89464 12.7348 2 13 2C13.7956 2 14.5587 2.31607 15.1213 2.87868C15.6839 3.44129 16 4.20435 16 5V5ZM19 16H18V15C18 14.7348 17.8946 14.4804 17.7071 14.2929C17.5196 14.1054 17.2652 14 17 14C16.7348 14 16.4804 14.1054 16.2929 14.2929C16.1054 14.4804 16 14.7348 16 15V16H15C14.7348 16 14.4804 16.1054 14.2929 16.2929C14.1054 16.4804 14 16.7348 14 17C14 17.2652 14.1054 17.5196 14.2929 17.7071C14.4804 17.8946 14.7348 18 15 18H16V19C16 19.2652 16.1054 19.5196 16.2929 19.7071C16.4804 19.8946 16.7348 20 17 20C17.2652 20 17.5196 19.8946 17.7071 19.7071C17.8946 19.5196 18 19.2652 18 19V18H19C19.2652 18 19.5196 17.8946 19.7071 17.7071C19.8946 17.5196 20 17.2652 20 17C20 16.7348 19.8946 16.4804 19.7071 16.2929C19.5196 16.1054 19.2652 16 19 16Z" fill="var(--fill-0, #1E1F26)"/>
</svg>
