<svg preserveAspectRatio="none" width="100%" height="100%" overflow="visible" style="display: block;" viewBox="0 0 22 22" fill="none" xmlns="http://www.w3.org/2000/svg">
<path id="Vector" d="M13 12H9C8.73478 12 8.48043 12.1054 8.29289 12.2929C8.10536 12.4804 8 12.7348 8 13C8 13.2652 8.10536 13.5196 8.29289 13.7071C8.48043 13.8946 8.73478 14 9 14H13C13.2652 14 13.5196 13.8946 13.7071 13.7071C13.8946 13.5196 14 13.2652 14 13C14 12.7348 13.8946 12.4804 13.7071 12.2929C13.5196 12.1054 13.2652 12 13 12ZM9 10H10C10.2652 10 10.5196 9.89464 10.7071 9.70711C10.8946 9.51957 11 9.26522 11 9C11 8.73478 10.8946 8.48043 10.7071 8.29289C10.5196 8.10536 10.2652 8 10 8H9C8.73478 8 8.48043 8.10536 8.29289 8.29289C8.10536 8.48043 8 8.73478 8 9C8 9.26522 8.10536 9.51957 8.29289 9.70711C8.48043 9.89464 8.73478 10 9 10V10ZM15 8.999V8C14.9989 6.93946 14.5772 5.92266 13.8273 5.17274C13.0773 4.42283 12.0605 4.00106 11 4H9C7.6744 4.00156 6.40353 4.52884 5.46619 5.46619C4.52884 6.40353 4.00156 7.6744 4 9V13C4.00156 14.3256 4.52884 15.5965 5.46619 16.5338C6.40353 17.4712 7.6744 17.9984 9 18H13C14.3256 17.9984 15.5965 17.4712 16.5338 16.5338C17.4712 15.5965 17.9984 14.3256 18 13V12C17.999 11.2046 17.6826 10.442 17.1203 9.87943C16.5579 9.31688 15.7954 9.00027 15 8.99902V8.999ZM15 9V9.001L14 9H15ZM16 13C15.9991 13.7954 15.6828 14.5579 15.1204 15.1204C14.5579 15.6828 13.7954 15.9991 13 16H9C8.20462 15.9991 7.44206 15.6828 6.87964 15.1204C6.31722 14.5579 6.00087 13.7954 6 13V9C6.00087 8.20462 6.31722 7.44206 6.87964 6.87964C7.44206 6.31722 8.20462 6.00087 9 6H11C11.5302 6.00069 12.0385 6.21162 12.4135 6.58655C12.7884 6.96147 12.9993 7.46978 13 8V9C13.0007 9.53022 13.2116 10.0385 13.5865 10.4135C13.9615 10.7884 14.4698 10.9993 15 11C15.2652 11.0002 15.5194 11.1056 15.7069 11.2931C15.8944 11.4806 15.9998 11.7348 16 12V13ZM19 0H3C2.20462 0.000868196 1.44206 0.317218 0.879639 0.879639C0.317218 1.44206 0.000868196 2.20462 0 3V19C0.000868196 19.7954 0.317218 20.5579 0.879639 21.1204C1.44206 21.6828 2.20462 21.9991 3 22H19C19.7954 21.9991 20.5579 21.6828 21.1204 21.1204C21.6828 20.5579 21.9991 19.7954 22 19V3C21.9991 2.20462 21.6828 1.44206 21.1204 0.879639C20.5579 0.317218 19.7954 0.000868196 19 0V0ZM20 19C19.9998 19.2652 19.8944 19.5194 19.7069 19.7069C19.5194 19.8944 19.2652 19.9998 19 20H3C2.73484 19.9998 2.48059 19.8944 2.29309 19.7069C2.10559 19.5194 2.00018 19.2652 2 19V3C2.00018 2.73484 2.10559 2.48059 2.29309 2.29309C2.48059 2.10559 2.73484 2.00018 3 2H19C19.2652 2.00018 19.5194 2.10559 19.7069 2.29309C19.8944 2.48059 19.9998 2.73484 20 3V19Z" fill="var(--fill-0, #1E1F26)"/>
</svg>
