<svg preserveAspectRatio="none" width="100%" height="100%" overflow="visible" style="display: block;" viewBox="0 0 19.9934 16.9909" fill="none" xmlns="http://www.w3.org/2000/svg">
<path id="Vector" d="M12.9934 8.98671C12.8 8.98797 12.611 9.04533 12.4495 9.15183C12.288 9.25833 12.1608 9.40939 12.0834 9.58671C11.4527 9.19752 10.7262 8.99122 9.98499 8.99085C9.24382 8.99048 8.51712 9.19604 7.88596 9.58461C7.25481 9.97317 6.74402 10.5294 6.4106 11.1914C6.07717 11.8533 5.93421 12.5949 5.99767 13.3333C6.06113 14.0718 6.32852 14.7781 6.76999 15.3734C7.21147 15.9688 7.80967 16.4298 8.49787 16.7049C9.18606 16.9801 9.93718 17.0587 10.6674 16.9319C11.3977 16.805 12.0783 16.4778 12.6334 15.9867C12.7386 15.902 12.8254 15.7969 12.8889 15.6778C12.9523 15.5586 12.991 15.4279 13.0025 15.2934C13.014 15.1589 12.9982 15.0234 12.956 14.8952C12.9138 14.767 12.846 14.6486 12.7569 14.5473C12.6677 14.4459 12.5589 14.3637 12.4371 14.3055C12.3153 14.2474 12.1829 14.2145 12.0481 14.2088C11.9132 14.2031 11.7786 14.2248 11.6523 14.2726C11.5261 14.3204 11.4108 14.3932 11.3134 14.4867C10.9488 14.8083 10.4796 14.986 9.99342 14.9867C9.68961 14.9818 9.3909 14.9078 9.11999 14.7702C8.84907 14.6326 8.61307 14.4351 8.4299 14.1926C8.24673 13.9502 8.12121 13.6692 8.06286 13.371C8.00451 13.0728 8.01488 12.7652 8.09317 12.4716C8.17146 12.1781 8.31562 11.9062 8.5147 11.6766C8.71378 11.4471 8.96255 11.2659 9.24211 11.1468C9.52167 11.0278 9.82469 10.974 10.1281 10.9896C10.4316 11.0052 10.7275 11.0897 10.9934 11.2367H10.7734C10.5082 11.2367 10.2538 11.3421 10.0663 11.5296C9.87878 11.7171 9.77342 11.9715 9.77342 12.2367C9.77342 12.5019 9.87878 12.7563 10.0663 12.9438C10.2538 13.1314 10.5082 13.2367 10.7734 13.2367H12.9934C13.2586 13.2367 13.513 13.1314 13.7005 12.9438C13.8881 12.7563 13.9934 12.5019 13.9934 12.2367V9.98671C13.9934 9.7215 13.8881 9.46714 13.7005 9.2796C13.513 9.09207 13.2586 8.98671 12.9934 8.98671ZM16.4134 4.20671C15.8024 2.80272 14.7479 1.63779 13.4115 0.890438C12.0751 0.143088 10.5305 -0.145456 9.01439 0.0690207C7.49829 0.283498 6.09434 0.989164 5.01767 2.07789C3.941 3.16661 3.25101 4.57833 3.05342 6.09671C2.21564 6.30076 1.46622 6.77008 0.916867 7.43471C0.367514 8.09933 0.0476384 8.92369 0.00491486 9.78491C-0.0378086 10.6461 0.198908 11.4981 0.679783 12.2138C1.16066 12.9296 1.85994 13.4707 2.67342 13.7567C2.77713 13.7887 2.8849 13.8055 2.99342 13.8067C3.25864 13.8491 3.52985 13.7845 3.74739 13.627C3.96493 13.4694 4.11098 13.2319 4.15342 12.9667C4.19585 12.7015 4.13119 12.4303 3.97366 12.2127C3.81613 11.9952 3.57864 11.8491 3.31342 11.8067C2.93633 11.6706 2.60885 11.4243 2.37347 11.0997C2.1381 10.7752 2.00568 10.3874 1.99342 9.98671C1.99342 9.45628 2.20413 8.94757 2.57921 8.5725C2.95428 8.19743 3.46299 7.98671 3.99342 7.98671C4.25864 7.98671 4.51299 7.88135 4.70053 7.69382C4.88806 7.50628 4.99342 7.25193 4.99342 6.98671C4.99597 5.80399 5.41771 4.66046 6.18369 3.75929C6.94967 2.85813 8.01031 2.25766 9.17717 2.06458C10.344 1.87151 11.5415 2.09832 12.557 2.70472C13.5724 3.31112 14.34 4.25785 14.7234 5.37671C14.7806 5.54855 14.8833 5.70164 15.0207 5.81964C15.1581 5.93765 15.3249 6.01613 15.5034 6.04671C16.1048 6.15555 16.6585 6.44544 17.0906 6.8776C17.5227 7.30975 17.8125 7.86355 17.9212 8.46491C18.03 9.06627 17.9525 9.68649 17.6991 10.2426C17.4457 10.7987 17.0286 11.2642 16.5034 11.5767C16.2727 11.7093 16.1041 11.9282 16.0347 12.1851C15.9653 12.442 16.0008 12.716 16.1334 12.9467C16.266 13.1774 16.4849 13.3461 16.7418 13.4154C16.9987 13.4848 17.2727 13.4493 17.5034 13.3167C18.2616 12.8766 18.8908 12.2449 19.3278 11.4849C19.7649 10.7249 19.9944 9.8634 19.9934 8.98671C19.9904 7.91084 19.6404 6.86465 18.9954 6.00352C18.3505 5.14239 17.445 4.51225 16.4134 4.20671V4.20671Z" fill="var(--fill-0, #1E1F26)"/>
</svg>
