<svg preserveAspectRatio="none" width="100%" height="100%" overflow="visible" style="display: block;" viewBox="0 0 20.0433 19.9662" fill="none" xmlns="http://www.w3.org/2000/svg">
<path id="Vector" d="M19.1951 0.845722C18.6229 0.302714 17.864 0 17.0751 0C16.2862 0 15.5274 0.302714 14.9551 0.845722L12.5351 3.25572C12.1 3.69587 11.8116 4.25986 11.7095 4.87036C11.6075 5.48085 11.6968 6.10797 11.9651 6.66572L9.81514 8.81572L7.81514 6.81572C7.45434 6.44622 7.00427 6.17612 6.50849 6.03155C6.0127 5.88698 5.488 5.87285 4.98515 5.99052C4.4823 6.10818 4.01834 6.35366 3.63818 6.7032C3.25801 7.05274 2.97452 7.4945 2.81514 7.98572L0.155135 15.9857C-0.0216365 16.5138 -0.047912 17.0807 0.0792505 17.6229C0.206413 18.1652 0.481993 18.6613 0.875135 19.0557C1.16033 19.3495 1.50265 19.5818 1.881 19.7383C2.25936 19.8948 2.66574 19.9722 3.07514 19.9657C3.41532 19.9721 3.75392 19.9179 4.07514 19.8057L12.0751 17.1457C12.5664 16.9863 13.0081 16.7028 13.3577 16.3227C13.7072 15.9425 13.9527 15.4786 14.0703 14.9757C14.188 14.4729 14.1739 13.9482 14.0293 13.4524C13.8847 12.9566 13.6146 12.5065 13.2451 12.1457L11.2451 10.1457L13.3951 7.99572C13.9529 8.2641 14.58 8.35338 15.1905 8.25133C15.801 8.14929 16.365 7.8609 16.8051 7.42572L19.2151 5.00572C19.7502 4.44422 20.047 3.69731 20.0433 2.92169C20.0396 2.14608 19.7356 1.40205 19.1951 0.845722V0.845722ZM11.7751 13.5957C11.8941 13.717 11.9803 13.8665 12.0255 14.0303C12.0706 14.1941 12.0733 14.3667 12.0333 14.5318C11.9933 14.6969 11.9118 14.8491 11.7967 14.974C11.6815 15.0989 11.5365 15.1924 11.3751 15.2457L3.39514 17.9657C3.22146 18.0188 3.03662 18.0235 2.86044 17.9795C2.68427 17.9355 2.52341 17.8443 2.39514 17.7157C2.26659 17.5874 2.17541 17.4266 2.13136 17.2504C2.08732 17.0742 2.09208 16.8894 2.14514 16.7157L4.81514 8.71572C4.8532 8.53914 4.93838 8.37617 5.06163 8.24412C5.18488 8.11206 5.3416 8.01586 5.51514 7.96572C5.59158 7.95746 5.66869 7.95746 5.74514 7.96572C6.00748 7.96683 6.25887 8.07098 6.44514 8.25572L8.44514 10.2557L7.57514 11.1157C7.48141 11.2087 7.40701 11.3193 7.35624 11.4411C7.30548 11.563 7.27934 11.6937 7.27934 11.8257C7.27934 11.9577 7.30548 12.0884 7.35624 12.2103C7.40701 12.3322 7.48141 12.4428 7.57514 12.5357C7.6681 12.6294 7.7787 12.7038 7.90056 12.7546C8.02242 12.8054 8.15312 12.8315 8.28514 12.8315C8.41715 12.8315 8.54785 12.8054 8.66971 12.7546C8.79157 12.7038 8.90217 12.6294 8.99514 12.5357L9.85513 11.6657L11.7751 13.5957ZM17.7751 3.67572L15.3651 6.08572C15.2248 6.22333 15.0469 6.31651 14.8539 6.35361C14.6608 6.39072 14.4611 6.3701 14.2797 6.29434C14.0983 6.21858 13.9433 6.09104 13.834 5.92766C13.7247 5.76428 13.6659 5.5723 13.6651 5.37572C13.6662 5.11338 13.7704 4.86198 13.9551 4.67572L16.3651 2.25572C16.4581 2.16199 16.5687 2.0876 16.6906 2.03683C16.8124 1.98606 16.9431 1.95992 17.0751 1.95992C17.2071 1.95992 17.3379 1.98606 17.4597 2.03683C17.5816 2.0876 17.6922 2.16199 17.7851 2.25572C17.8789 2.34868 17.9533 2.45929 18.004 2.58114C18.0548 2.703 18.0809 2.83371 18.0809 2.96572C18.0809 3.09773 18.0548 3.22844 18.004 3.3503C17.9533 3.47216 17.8789 3.58276 17.7851 3.67572H17.7751Z" fill="var(--fill-0, #1E1F26)"/>
</svg>
