<svg preserveAspectRatio="none" width="100%" height="100%" overflow="visible" style="display: block;" viewBox="0 0 8.03666 10.5841" fill="none" xmlns="http://www.w3.org/2000/svg">
<path id="Vector" d="M3.30833 4.74833C3.40129 4.84206 3.5119 4.91645 3.63376 4.96722C3.75561 5.01799 3.88632 5.04413 4.01833 5.04413C4.15034 5.04413 4.28105 5.01799 4.40291 4.96722C4.52477 4.91645 4.63537 4.84206 4.72833 4.74833L7.72833 1.74833C7.8242 1.65509 7.90076 1.54389 7.95365 1.42106C8.00653 1.29823 8.03471 1.16619 8.03657 1.03247C8.03842 0.898758 8.01392 0.765985 7.96447 0.641737C7.91501 0.517488 7.84157 0.404197 7.74833 0.308332C7.65509 0.212467 7.54389 0.135906 7.42106 0.0830189C7.29823 0.030132 7.16619 0.0019555 7.03247 9.83328e-05C6.89876 -0.00175884 6.76599 0.0227394 6.64174 0.0721947C6.51749 0.12165 6.4042 0.195094 6.30833 0.288332L4.01833 2.62833L1.72833 0.288332C1.53472 0.100028 1.27424 -0.00365239 1.00419 9.83328e-05C0.734138 0.00384906 0.476636 0.114724 0.288333 0.308332C0.100029 0.50194 -0.0036524 0.762422 9.83324e-05 1.03247C0.00384906 1.30253 0.114724 1.56003 0.308332 1.74833L3.30833 4.74833ZM6.30833 5.82833L4.01833 8.12833L1.72833 5.82833C1.53472 5.64003 1.27424 5.53635 1.00419 5.5401C0.734138 5.54385 0.476636 5.65472 0.288333 5.84833C0.100029 6.04194 -0.0036524 6.30242 9.83324e-05 6.57247C0.00384906 6.84253 0.114724 7.10003 0.308332 7.28833L3.30833 10.2883C3.40129 10.3821 3.5119 10.4565 3.63376 10.5072C3.75561 10.558 3.88632 10.5841 4.01833 10.5841C4.15034 10.5841 4.28105 10.558 4.40291 10.5072C4.52477 10.4565 4.63537 10.3821 4.72833 10.2883L7.72833 7.28833C7.91664 7.10003 8.02242 6.84463 8.02242 6.57833C8.02242 6.31203 7.91664 6.05664 7.72833 5.86833C7.54003 5.68003 7.28463 5.57424 7.01833 5.57424C6.75203 5.57424 6.49664 5.68003 6.30833 5.86833V5.82833Z" fill="var(--fill-0, #1E1F26)"/>
</svg>
