<svg preserveAspectRatio="none" width="100%" height="100%" overflow="visible" style="display: block;" viewBox="0 0 18 19.9904" fill="none" xmlns="http://www.w3.org/2000/svg">
<path id="Vector" d="M17 17.9904H5C5.65438 17.1277 6.00587 16.0732 6 14.9904V11.9904H12C12.2652 11.9904 12.5196 11.8851 12.7071 11.6975C12.8946 11.51 13 11.2556 13 10.9904C13 10.7252 12.8946 10.4708 12.7071 10.2833C12.5196 10.0958 12.2652 9.99041 12 9.99041H6V6.88041C5.99914 5.80274 6.3543 4.75496 7.01028 3.89994C7.66626 3.04491 8.58632 2.43053 9.62745 2.15229C10.6686 1.87405 11.7725 1.94753 12.7675 2.3613C13.7626 2.77508 14.5931 3.50599 15.13 4.44041C15.1962 4.55416 15.2841 4.65374 15.3889 4.73343C15.4936 4.81312 15.613 4.87136 15.7403 4.9048C15.8675 4.93824 16.0002 4.94624 16.1305 4.92833C16.2609 4.91041 16.3865 4.86694 16.5 4.80041C16.7287 4.66849 16.896 4.45146 16.9653 4.19668C17.0346 3.94189 17.0004 3.67003 16.87 3.44041C16.1097 2.12848 14.9385 1.1035 13.5373 0.523929C12.1362 -0.0556415 10.5831 -0.15753 9.11823 0.234014C7.65336 0.625558 6.35824 1.48873 5.4331 2.6901C4.50796 3.89146 4.00431 5.36412 4 6.88041V9.99041H1C0.734784 9.99041 0.48043 10.0958 0.292893 10.2833C0.105357 10.4708 0 10.7252 0 10.9904C0 11.2556 0.105357 11.51 0.292893 11.6975C0.48043 11.8851 0.734784 11.9904 1 11.9904H4V14.9904C4 15.7861 3.68393 16.5491 3.12132 17.1117C2.55871 17.6743 1.79565 17.9904 1 17.9904C0.734784 17.9904 0.48043 18.0958 0.292893 18.2833C0.105357 18.4708 0 18.7252 0 18.9904C0 19.2556 0.105357 19.51 0.292893 19.6975C0.48043 19.8851 0.734784 19.9904 1 19.9904H17C17.2652 19.9904 17.5196 19.8851 17.7071 19.6975C17.8946 19.51 18 19.2556 18 18.9904C18 18.7252 17.8946 18.4708 17.7071 18.2833C17.5196 18.0958 17.2652 17.9904 17 17.9904Z" fill="var(--fill-0, #1E1F26)"/>
</svg>
