<svg preserveAspectRatio="none" width="100%" height="100%" overflow="visible" style="display: block;" viewBox="0 0 20.0099 20.0099" fill="none" xmlns="http://www.w3.org/2000/svg">
<path id="Vector" d="M5.71409 4.29409L1.71409 0.294092C1.62085 0.200853 1.51016 0.126892 1.38834 0.0764319C1.26652 0.0259715 1.13595 0 1.00409 0C0.872232 0 0.741664 0.0259715 0.619842 0.0764319C0.49802 0.126892 0.38733 0.200853 0.294092 0.294092C0.105788 0.482395 0 0.73779 0 1.00409C0 1.27039 0.105788 1.52579 0.294092 1.71409L2.62409 4.00409C1.89599 4.09704 1.22723 4.4537 0.744399 5.00656C0.261571 5.55942 -0.00181756 6.2701 0.00409162 7.00409V13.0041C0.00409162 13.7997 0.320162 14.5628 0.882771 15.1254C1.44538 15.688 2.20844 16.0041 3.00409 16.0041H12.0041C12.6982 16.0008 13.3696 15.757 13.9041 15.3141L18.2941 19.7141C18.3871 19.8078 18.4977 19.8822 18.6195 19.933C18.7414 19.9838 18.8721 20.0099 19.0041 20.0099C19.1361 20.0099 19.2668 19.9838 19.3887 19.933C19.5105 19.8822 19.6211 19.8078 19.7141 19.7141C19.8078 19.6211 19.8822 19.5105 19.933 19.3887C19.9838 19.2668 20.0099 19.1361 20.0099 19.0041C20.0099 18.8721 19.9838 18.7414 19.933 18.6195C19.8822 18.4977 19.8078 18.3871 19.7141 18.2941L5.71409 4.29409ZM12.0041 14.0041H3.00409C2.73888 14.0041 2.48452 13.8987 2.29699 13.7112C2.10945 13.5237 2.00409 13.2693 2.00409 13.0041V7.00409C2.00409 6.73888 2.10945 6.48452 2.29699 6.29699C2.48452 6.10945 2.73888 6.00409 3.00409 6.00409H4.59409L12.4641 13.8841C12.3226 13.9605 12.1648 14.0016 12.0041 14.0041ZM19.5341 5.15409C19.3821 5.06632 19.2096 5.02012 19.0341 5.02012C18.8586 5.02012 18.6861 5.06632 18.5341 5.15409L15.0041 6.89409C14.9756 6.11766 14.647 5.38256 14.0874 4.84353C13.5279 4.3045 12.781 4.00357 12.0041 4.00409H10.6641C10.3989 4.00409 10.1445 4.10945 9.95698 4.29699C9.76945 4.48452 9.66409 4.73888 9.66409 5.00409C9.66409 5.26931 9.76945 5.52366 9.95698 5.7112C10.1445 5.89873 10.3989 6.00409 10.6641 6.00409H12.0041C12.2693 6.00409 12.5237 6.10945 12.7112 6.29699C12.8987 6.48452 13.0041 6.73888 13.0041 7.00409V8.50409C13.0004 8.56737 13.0004 8.63081 13.0041 8.69409C13.01 8.76299 13.0269 8.83051 13.0541 8.89409V8.89409C13.0541 8.89409 13.1041 8.95409 13.1241 8.99409C13.1648 9.07028 13.2152 9.14086 13.2741 9.20409C13.2741 9.20409 13.3741 9.26409 13.4241 9.30409L13.5941 9.41409C13.6704 9.42451 13.7478 9.42451 13.8241 9.41409C13.8706 9.41877 13.9175 9.41877 13.9641 9.41409C14.0274 9.41781 14.0908 9.41781 14.1541 9.41409C14.223 9.40817 14.2905 9.39129 14.3541 9.36409V9.36409L18.0041 7.62409V13.3441C18.0041 13.6093 18.1094 13.8637 18.297 14.0512C18.4845 14.2387 18.7389 14.3441 19.0041 14.3441C19.2693 14.3441 19.5237 14.2387 19.7112 14.0512C19.8987 13.8637 20.0041 13.6093 20.0041 13.3441V6.00409C20.0044 5.83415 19.9615 5.66692 19.8792 5.5182C19.797 5.36947 19.6782 5.24416 19.5341 5.15409V5.15409Z" fill="var(--fill-0, #1E1F26)"/>
</svg>
