<svg preserveAspectRatio="none" width="100%" height="100%" overflow="visible" style="display: block;" viewBox="0 0 15.995 11.0041" fill="none" xmlns="http://www.w3.org/2000/svg">
<path id="Vector" d="M15.92 3.62409C15.8724 3.50134 15.801 3.3892 15.71 3.29409L12.71 0.294092C12.6168 0.200853 12.5061 0.126893 12.3842 0.0764322C12.2624 0.0259719 12.1319 0 12 0C11.7337 0 11.4783 0.105788 11.29 0.294092C11.1968 0.38733 11.1228 0.498021 11.0723 0.619843C11.0219 0.741665 10.9959 0.872233 10.9959 1.00409C10.9959 1.27039 11.1017 1.52579 11.29 1.71409L12.59 3.00409H3C2.20435 3.00409 1.44129 3.32016 0.87868 3.88277C0.316071 4.44538 0 5.20844 0 6.00409V10.0041C0 10.2693 0.105357 10.5237 0.292893 10.7112C0.48043 10.8987 0.734784 11.0041 1 11.0041C1.26522 11.0041 1.51957 10.8987 1.70711 10.7112C1.89464 10.5237 2 10.2693 2 10.0041V6.00409C2 5.73888 2.10536 5.48452 2.29289 5.29699C2.48043 5.10945 2.73478 5.00409 3 5.00409H12.59L11.29 6.29409C11.1963 6.38705 11.1219 6.49766 11.0711 6.61951C11.0203 6.74137 10.9942 6.87208 10.9942 7.00409C10.9942 7.1361 11.0203 7.26681 11.0711 7.38867C11.1219 7.51053 11.1963 7.62113 11.29 7.71409C11.383 7.80782 11.4936 7.88221 11.6154 7.93298C11.7373 7.98375 11.868 8.00989 12 8.00989C12.132 8.00989 12.2627 7.98375 12.3846 7.93298C12.5064 7.88221 12.617 7.80782 12.71 7.71409L15.71 4.71409C15.801 4.61899 15.8724 4.50684 15.92 4.38409C16.02 4.14063 16.02 3.86755 15.92 3.62409Z" fill="var(--fill-0, #1E1F26)"/>
</svg>
