<svg preserveAspectRatio="none" width="100%" height="100%" overflow="visible" style="display: block;" viewBox="0 0 20.4503 11.0207" fill="none" xmlns="http://www.w3.org/2000/svg">
<path id="Vector" d="M3 4.00038H1C0.734784 4.00038 0.48043 4.10574 0.292893 4.29328C0.105357 4.48081 0 4.73517 0 5.00038C0 5.2656 0.105357 5.51996 0.292893 5.70749C0.48043 5.89503 0.734784 6.00038 1 6.00038H3C3.26522 6.00038 3.51957 5.89503 3.70711 5.70749C3.89464 5.51996 4 5.2656 4 5.00038C4 4.73517 3.89464 4.48081 3.70711 4.29328C3.51957 4.10574 3.26522 4.00038 3 4.00038ZM19.78 1.16038V1.10038C19.4935 0.750174 19.1315 0.46931 18.721 0.278817C18.3106 0.088324 17.8624 -0.00686202 17.41 0.000384838H9.48C8.7452 -0.00621507 8.03354 0.2571 7.48 0.740385V0.740385C6.963 1.19592 6.62309 1.81909 6.52 2.50038L5.64 7.50038C5.56433 7.93218 5.5842 8.37531 5.69823 8.7986C5.81226 9.22188 6.01767 9.61503 6.3 9.95039C6.58086 10.2846 6.93128 10.5535 7.32681 10.7383C7.72233 10.9231 8.15343 11.0194 8.59 11.0204H16.53C17.2432 11.0312 17.937 10.7874 18.4868 10.333C19.0366 9.87846 19.4064 9.24293 19.53 8.54039L20.41 3.54038C20.4793 3.12169 20.459 2.69305 20.3504 2.28278C20.2418 1.87252 20.0474 1.48996 19.78 1.16038V1.16038ZM17.04 2.00038L13.64 4.76039C13.439 4.9224 13.1831 5.00039 12.9259 4.97802C12.6686 4.95565 12.43 4.83467 12.26 4.64039L9.93 2.00038H17.04ZM17.52 8.17039C17.4795 8.40518 17.3565 8.6178 17.1732 8.76997C16.9899 8.92214 16.7582 9.00385 16.52 9.00039H8.59C8.44478 8.99916 8.30156 8.96633 8.17032 8.90416C8.03907 8.84199 7.92294 8.75198 7.83 8.64039C7.73682 8.52938 7.66889 8.39945 7.6309 8.25958C7.59292 8.11972 7.58578 7.97328 7.61 7.83038L8.41 3.30038L10.76 5.96038C11.2715 6.54175 11.988 6.90282 12.7596 6.96805C13.5312 7.03328 14.2982 6.79763 14.9 6.31039L18.34 3.50038L17.52 8.17039ZM4 0.000384838H1C0.734784 0.000384838 0.48043 0.105742 0.292893 0.293278C0.105357 0.480815 0 0.735168 0 1.00038C0 1.2656 0.105357 1.51996 0.292893 1.70749C0.48043 1.89503 0.734784 2.00038 1 2.00038H4C4.26522 2.00038 4.51957 1.89503 4.70711 1.70749C4.89464 1.51996 5 1.2656 5 1.00038C5 0.735168 4.89464 0.480815 4.70711 0.293278C4.51957 0.105742 4.26522 0.000384838 4 0.000384838Z" fill="var(--fill-0, #1E1F26)"/>
</svg>
