<svg preserveAspectRatio="none" width="100%" height="100%" overflow="visible" style="display: block;" viewBox="0 0 20.3182 18.0099" fill="none" xmlns="http://www.w3.org/2000/svg">
<path id="Vector" d="M15.046 13.2941L2.04604 0.294091C1.85774 0.105788 1.60234 -1.9841e-09 1.33604 0C1.06974 1.9841e-09 0.814345 0.105788 0.626041 0.294091C0.437737 0.482395 0.33195 0.73779 0.33195 1.00409C0.33195 1.27039 0.437737 1.52579 0.626041 1.71409L3.98604 5.06409C3.69063 5.69756 3.49175 6.37171 3.39604 7.06409C2.37043 7.22075 1.44581 7.76977 0.817354 8.59528C0.188897 9.42079 -0.0942233 10.4582 0.0277531 11.4885C0.14973 12.5188 0.667259 13.4614 1.4711 14.1174C2.27494 14.7733 3.3022 15.0912 4.33604 15.0041H13.926L16.626 17.7141C16.719 17.8078 16.8296 17.8822 16.9515 17.933C17.0733 17.9838 17.204 18.0099 17.336 18.0099C17.4681 18.0099 17.5988 17.9838 17.7206 17.933C17.8425 17.8822 17.9531 17.8078 18.046 17.7141C18.1398 17.6211 18.2142 17.5105 18.2649 17.3887C18.3157 17.2668 18.3418 17.1361 18.3418 17.0041C18.3418 16.8721 18.3157 16.7414 18.2649 16.6195C18.2142 16.4977 18.1398 16.3871 18.046 16.2941L15.046 13.2941ZM4.33604 13.0041C3.80561 13.0041 3.2969 12.7934 2.92183 12.4183C2.54675 12.0432 2.33604 11.5345 2.33604 11.0041C2.33604 10.4737 2.54675 9.96495 2.92183 9.58988C3.2969 9.21481 3.80561 9.00409 4.33604 9.00409C4.60126 9.00409 4.85561 8.89873 5.04315 8.7112C5.23068 8.52366 5.33604 8.26931 5.33604 8.00409C5.33699 7.53366 5.40432 7.06571 5.53604 6.61409L11.926 13.0041H4.33604ZM16.756 5.22409C16.2139 3.97133 15.3174 2.90441 14.1767 2.15463C13.0361 1.40485 11.7011 1.00493 10.336 1.00409C9.54523 1.00029 8.75992 1.13569 8.01604 1.40409C7.78801 1.50711 7.60688 1.69188 7.50842 1.92192C7.40996 2.15196 7.40132 2.41055 7.48421 2.64665C7.5671 2.88275 7.73548 3.07919 7.95613 3.1972C8.17678 3.31522 8.43365 3.34622 8.67604 3.28409C9.20913 3.09589 9.77071 3.00116 10.336 3.00409C11.3796 3.00486 12.3968 3.33215 13.245 3.94007C14.0933 4.548 14.73 5.40609 15.066 6.39409C15.1232 6.56593 15.226 6.71902 15.3633 6.83702C15.5007 6.95503 15.6675 7.03351 15.846 7.06409C16.3545 7.15406 16.8312 7.37376 17.2299 7.70193C17.6286 8.03011 17.9359 8.45564 18.1219 8.93736C18.308 9.41907 18.3665 9.94066 18.2919 10.4516C18.2173 10.9626 18.0121 11.4457 17.696 11.8541C17.5325 12.0613 17.4576 12.3248 17.4876 12.5871C17.5175 12.8493 17.65 13.0891 17.856 13.2541C18.032 13.3953 18.2505 13.4728 18.476 13.4741C18.6262 13.4734 18.7744 13.4389 18.9094 13.3731C19.0444 13.3073 19.1629 13.2119 19.256 13.0941C19.7574 12.4533 20.0949 11.6999 20.2391 10.8991C20.3833 10.0984 20.3299 9.27457 20.0836 8.49914C19.8373 7.7237 19.4054 7.02009 18.8256 6.44937C18.2457 5.87865 17.5353 5.45806 16.756 5.22409Z" fill="var(--fill-0, #1E1F26)"/>
</svg>
