<svg preserveAspectRatio="none" width="100%" height="100%" overflow="visible" style="display: block;" viewBox="0 0 22 22.0027" fill="none" xmlns="http://www.w3.org/2000/svg">
<path id="Vector" d="M10 6.00271V8.00271C10 8.26792 10.1054 8.52228 10.2929 8.70982C10.4804 8.89735 10.7348 9.00271 11 9.00271C11.2652 9.00271 11.5196 8.89735 11.7071 8.70982C11.8946 8.52228 12 8.26792 12 8.00271V7.00271H14.78L13 15.8027C12.971 15.9342 12.9688 16.0703 12.9936 16.2026C13.0184 16.335 13.0697 16.461 13.1444 16.5731C13.2191 16.6852 13.3157 16.781 13.4284 16.8548C13.541 16.9286 13.6674 16.9789 13.8 17.0027H14C14.234 17.0074 14.4621 16.93 14.6449 16.7838C14.8276 16.6376 14.9533 16.432 15 16.2027L17 6.20271C17.0286 6.05744 17.0246 5.90763 16.9883 5.7641C16.952 5.62056 16.8843 5.48688 16.79 5.37271C16.6948 5.25536 16.5743 5.16111 16.4375 5.09702C16.3007 5.03294 16.1511 5.00069 16 5.00271H11C10.7348 5.00271 10.4804 5.10806 10.2929 5.2956C10.1054 5.48314 10 5.73749 10 6.00271ZM17 4.00271H18V5.00271C18 5.26792 18.1054 5.52228 18.2929 5.70981C18.4804 5.89735 18.7348 6.00271 19 6.00271C19.2652 6.00271 19.5196 5.89735 19.7071 5.70981C19.8946 5.52228 20 5.26792 20 5.00271V4.00271H21C21.2652 4.00271 21.5196 3.89735 21.7071 3.70981C21.8946 3.52228 22 3.26792 22 3.00271C22 2.73749 21.8946 2.48314 21.7071 2.2956C21.5196 2.10806 21.2652 2.00271 21 2.00271H20V1.00271C20 0.737492 19.8946 0.483138 19.7071 0.295601C19.5196 0.108065 19.2652 0.00270809 19 0.00270809C18.7348 0.00270809 18.4804 0.108065 18.2929 0.295601C18.1054 0.483138 18 0.737492 18 1.00271V2.00271H17C16.7348 2.00271 16.4804 2.10806 16.2929 2.2956C16.1054 2.48314 16 2.73749 16 3.00271C16 3.26792 16.1054 3.52228 16.2929 3.70981C16.4804 3.89735 16.7348 4.00271 17 4.00271ZM6 6.00271V16.0027C6 16.2679 6.10536 16.5223 6.2929 16.7098C6.48043 16.8974 6.73479 17.0027 7 17.0027C7.26522 17.0027 7.51957 16.8974 7.70711 16.7098C7.89465 16.5223 8 16.2679 8 16.0027V6.00271C8 5.73749 7.89465 5.48314 7.70711 5.2956C7.51957 5.10806 7.26522 5.00271 7 5.00271C6.73479 5.00271 6.48043 5.10806 6.2929 5.2956C6.10536 5.48314 6 5.73749 6 6.00271ZM20.6 8.00271C20.4713 8.02895 20.349 8.08029 20.2402 8.1538C20.1313 8.22731 20.038 8.32154 19.9656 8.43112C19.8931 8.5407 19.843 8.66347 19.818 8.79243C19.793 8.92139 19.7937 9.05401 19.82 9.18271C20.2104 11.0789 19.979 13.0505 19.1601 14.8047C18.3412 16.559 16.9785 18.0024 15.2741 18.9208C13.5698 19.8391 11.6148 20.1834 9.69931 19.9026C7.78381 19.6217 6.00992 18.7307 4.64097 17.3617C3.27202 15.9928 2.38099 14.2189 2.10014 12.3034C1.81929 10.3879 2.16359 8.43288 3.08194 6.72857C4.00028 5.02426 5.44372 3.6615 7.19798 2.84259C8.95224 2.02368 10.9238 1.79227 12.82 2.18271C13.0852 2.23575 13.3606 2.18127 13.5857 2.03124C13.8107 1.88121 13.967 1.64792 14.02 1.38271C14.073 1.11749 14.0186 0.842066 13.8685 0.617023C13.7185 0.391979 13.4852 0.235751 13.22 0.182708C12.4882 0.0463593 11.7442 -0.0139613 11 0.00270809C8.82441 0.00270809 6.69767 0.647847 4.88873 1.85654C3.07979 3.06524 1.66989 4.7832 0.83733 6.79319C0.00476616 8.80318 -0.213071 11.0149 0.211367 13.1487C0.635804 15.2825 1.68345 17.2425 3.22183 18.7809C4.76021 20.3193 6.72022 21.3669 8.85401 21.7913C10.9878 22.2158 13.1995 21.9979 15.2095 21.1654C17.2195 20.3328 18.9375 18.9229 20.1462 17.114C21.3549 15.305 22 13.1783 22 11.0027C22.0021 10.2638 21.9284 9.52658 21.78 8.80271C21.7561 8.6722 21.7064 8.54777 21.6338 8.43666C21.5613 8.32554 21.4674 8.22998 21.3576 8.15552C21.2478 8.08106 21.1242 8.0292 20.9942 8.00297C20.8641 7.97673 20.7301 7.97665 20.6 8.00271Z" fill="var(--fill-0, #1E1F26)"/>
</svg>
