<svg preserveAspectRatio="none" width="100%" height="100%" overflow="visible" style="display: block;" viewBox="0 0 20.04 20" fill="none" xmlns="http://www.w3.org/2000/svg">
<path id="Vector" d="M17 4H12C11.7348 4 11.4804 4.10536 11.2929 4.29289C11.1054 4.48043 11 4.73478 11 5C11 5.26522 11.1054 5.51957 11.2929 5.70711C11.4804 5.89464 11.7348 6 12 6H17C17.2652 6 17.5196 6.10536 17.7071 6.29289C17.8946 6.48043 18 6.73478 18 7V16.72L16.43 15.27C16.2456 15.0973 16.0026 15.0009 15.75 15H7C6.73478 15 6.48043 14.8946 6.29289 14.7071C6.10536 14.5196 6 14.2652 6 14V12C6 11.7348 5.89464 11.4804 5.70711 11.2929C5.51957 11.1054 5.26522 11 5 11C4.73478 11 4.48043 11.1054 4.29289 11.2929C4.10536 11.4804 4 11.7348 4 12V14C4 14.7957 4.31607 15.5587 4.87868 16.1213C5.44129 16.6839 6.20435 17 7 17H15.36L18.36 19.73C18.5444 19.9027 18.7874 19.9991 19.04 20C19.1772 19.9985 19.3128 19.9714 19.44 19.92C19.6189 19.8419 19.771 19.7132 19.8776 19.5497C19.9842 19.3863 20.0407 19.1952 20.04 19V7C20.04 6.60265 19.9611 6.20924 19.8079 5.84264C19.6546 5.47603 19.4301 5.14352 19.1472 4.86441C18.8644 4.58531 18.5289 4.36517 18.1603 4.21678C17.7917 4.06839 17.3973 3.9947 17 4V4ZM7 9C7.31647 9.00104 7.62867 8.92695 7.91093 8.78385C8.1932 8.64074 8.43747 8.43269 8.62368 8.1768C8.80989 7.92091 8.93272 7.62448 8.98207 7.31188C9.03142 6.99928 9.00588 6.67943 8.90756 6.37863C8.80923 6.07782 8.64092 5.80463 8.41647 5.58153C8.19202 5.35843 7.91782 5.19178 7.61643 5.09527C7.31503 4.99877 6.99503 4.97516 6.68274 5.0264C6.37044 5.07763 6.07476 5.20225 5.82 5.39L4.07 4.59L5.98 3.71C6.28188 3.89326 6.62691 3.99332 6.98 4C7.37556 4 7.76224 3.8827 8.09114 3.66294C8.42004 3.44318 8.67638 3.13082 8.82776 2.76537C8.97913 2.39992 9.01874 1.99778 8.94157 1.60982C8.8644 1.22186 8.67392 0.865492 8.39421 0.585787C8.11451 0.306082 7.75814 0.115601 7.37018 0.0384303C6.98222 -0.0387401 6.58009 0.000866564 6.21463 0.152242C5.84918 0.303617 5.53682 0.559962 5.31706 0.88886C5.0973 1.21776 4.98 1.60444 4.98 2L3.08 2.87C2.76359 2.64436 2.3883 2.51579 2 2.5C1.46957 2.5 0.960859 2.71071 0.585786 3.08579C0.210714 3.46086 0 3.96957 0 4.5C0 5.03043 0.210714 5.53914 0.585786 5.91421C0.960859 6.28929 1.46957 6.5 2 6.5C2.32489 6.49673 2.6441 6.41435 2.93 6.26L5.02 7.26C5.08303 7.74076 5.31858 8.18226 5.6828 8.50233C6.04702 8.82241 6.51512 8.99927 7 9Z" fill="var(--fill-0, #1E1F26)"/>
</svg>
