<svg preserveAspectRatio="none" width="100%" height="100%" overflow="visible" style="display: block;" viewBox="0 0 13.9954 20" fill="none" xmlns="http://www.w3.org/2000/svg">
<path id="Vector" d="M12.9954 3H9.9954V1C9.9954 0.734784 9.89004 0.48043 9.70251 0.292893C9.51497 0.105357 9.26062 0 8.9954 0C8.73018 0 8.47583 0.105357 8.28829 0.292893C8.10076 0.48043 7.9954 0.734784 7.9954 1V3H2.9954C2.84519 3.00069 2.69707 3.03521 2.56204 3.101C2.427 3.16679 2.30852 3.26215 2.2154 3.38L0.215398 5.88C0.0758892 6.05655 0 6.27499 0 6.5C0 6.72501 0.0758892 6.94345 0.215398 7.12L2.2154 9.62C2.30852 9.73785 2.427 9.83321 2.56204 9.899C2.69707 9.96479 2.84519 9.99931 2.9954 10H7.9954V18H5.9954C5.73018 18 5.47583 18.1054 5.28829 18.2929C5.10076 18.4804 4.9954 18.7348 4.9954 19C4.9954 19.2652 5.10076 19.5196 5.28829 19.7071C5.47583 19.8946 5.73018 20 5.9954 20H11.9954C12.2606 20 12.515 19.8946 12.7025 19.7071C12.89 19.5196 12.9954 19.2652 12.9954 19C12.9954 18.7348 12.89 18.4804 12.7025 18.2929C12.515 18.1054 12.2606 18 11.9954 18H9.9954V10H12.9954C13.2606 10 13.515 9.89464 13.7025 9.70711C13.89 9.51957 13.9954 9.26522 13.9954 9V4C13.9954 3.73478 13.89 3.48043 13.7025 3.29289C13.515 3.10536 13.2606 3 12.9954 3ZM11.9954 8H3.4754L2.2754 6.5L3.4754 5H11.9954V8Z" fill="var(--fill-0, #1E1F26)"/>
</svg>
