<svg preserveAspectRatio="none" width="100%" height="100%" overflow="visible" style="display: block;" viewBox="0 0 16.0306 20.0041" fill="none" xmlns="http://www.w3.org/2000/svg">
<path id="Vector" d="M15.7141 14.2941L1.71409 0.294092C1.52579 0.105788 1.27039 -1.9841e-09 1.00409 0C0.73779 1.9841e-09 0.482395 0.105788 0.294091 0.294092C0.105788 0.482395 1.9841e-09 0.73779 0 1.00409C-1.9841e-09 1.27039 0.105788 1.52579 0.294091 1.71409L2.59409 4.00409H1.00409C0.815605 4.00463 0.631108 4.05842 0.47187 4.15927C0.312633 4.26012 0.18514 4.40392 0.104091 4.57409C0.0338334 4.73649 0.00792336 4.91462 0.0290053 5.0903C0.0500872 5.26598 0.117406 5.43293 0.224091 5.57409L7.00409 14.1041V18.0041H2.75409C2.48888 18.0041 2.23452 18.1094 2.04698 18.297C1.85945 18.4845 1.75409 18.7389 1.75409 19.0041C1.75409 19.2693 1.85945 19.5237 2.04698 19.7112C2.23452 19.8987 2.48888 20.0041 2.75409 20.0041H13.2541C13.5193 20.0041 13.7737 19.8987 13.9612 19.7112C14.1487 19.5237 14.2541 19.2693 14.2541 19.0041C14.2541 18.7389 14.1487 18.4845 13.9612 18.297C13.7737 18.1094 13.5193 18.0041 13.2541 18.0041H9.00409V14.1041L10.6441 12.1041L14.2941 15.7541C14.3871 15.8478 14.4977 15.9222 14.6195 15.973C14.7414 16.0238 14.8721 16.0499 15.0041 16.0499C15.1361 16.0499 15.2668 16.0238 15.3887 15.973C15.5105 15.9222 15.6211 15.8478 15.7141 15.7541C15.814 15.6606 15.8936 15.5475 15.9481 15.4219C16.0025 15.2964 16.0306 15.161 16.0306 15.0241C16.0306 14.8872 16.0025 14.7518 15.9481 14.6263C15.8936 14.5007 15.814 14.3876 15.7141 14.2941ZM3.08409 6.00409H4.59409L6.48409 7.89409H4.59409L3.08409 6.00409ZM8.00409 12.1541L6.19409 9.89409H8.48409L9.22409 10.6341L8.00409 12.1541ZM10.6641 6.00409H12.9241L12.2941 6.79409C12.1295 7.00008 12.0528 7.26277 12.0809 7.52497C12.109 7.78717 12.2395 8.02766 12.4441 8.19409C12.6227 8.3374 12.8451 8.41506 13.0741 8.41409C13.2235 8.4146 13.3711 8.38163 13.5061 8.3176C13.6411 8.25357 13.76 8.16011 13.8541 8.04409L15.7841 5.62409C15.8908 5.48293 15.9581 5.31598 15.9792 5.1403C16.0003 4.96462 15.9743 4.78649 15.9041 4.62409C15.8304 4.44457 15.7061 4.29036 15.5463 4.18027C15.3865 4.07018 15.1981 4.00897 15.0041 4.00409H10.6641C10.3989 4.00409 10.1445 4.10945 9.95698 4.29699C9.76945 4.48452 9.66409 4.73888 9.66409 5.00409C9.66409 5.26931 9.76945 5.52366 9.95698 5.7112C10.1445 5.89873 10.3989 6.00409 10.6641 6.00409V6.00409Z" fill="var(--fill-0, #1E1F26)"/>
</svg>
