<svg preserveAspectRatio="none" width="100%" height="100%" overflow="visible" style="display: block;" viewBox="0 0 20 20" fill="none" xmlns="http://www.w3.org/2000/svg">
<path id="Vector" d="M13.5 5C13.2348 5 12.9804 5.10536 12.7929 5.29289C12.6054 5.48043 12.5 5.73478 12.5 6V7.69L8.5 5.38C8.19612 5.20455 7.85142 5.11214 7.50052 5.11205C7.14962 5.11196 6.80487 5.20419 6.50089 5.37949C6.19691 5.55478 5.94441 5.80697 5.76872 6.11072C5.59304 6.41447 5.50036 6.7591 5.5 7.11V12.89C5.50036 13.2407 5.59295 13.5852 5.76847 13.8888C5.94398 14.1925 6.19627 14.4446 6.5 14.62C6.80404 14.7955 7.14893 14.8879 7.5 14.8879C7.85108 14.8879 8.19597 14.7955 8.5 14.62L12.5 12.31V14C12.5 14.2652 12.6054 14.5196 12.7929 14.7071C12.9804 14.8946 13.2348 15 13.5 15C13.7652 15 14.0196 14.8946 14.2071 14.7071C14.3946 14.5196 14.5 14.2652 14.5 14V6C14.5 5.73478 14.3946 5.48043 14.2071 5.29289C14.0196 5.10536 13.7652 5 13.5 5ZM12.5 10L7.5 12.89V7.11L12.5 9.99V10ZM10 0C8.02219 0 6.08879 0.58649 4.4443 1.6853C2.79981 2.78412 1.51809 4.3459 0.761209 6.17317C0.00433283 8.00043 -0.193701 10.0111 0.192152 11.9509C0.578004 13.8907 1.53041 15.6725 2.92894 17.0711C4.32746 18.4696 6.10929 19.422 8.0491 19.8079C9.98891 20.1937 11.9996 19.9957 13.8268 19.2388C15.6541 18.4819 17.2159 17.2002 18.3147 15.5557C19.4135 13.9112 20 11.9778 20 10C20 8.68678 19.7413 7.38642 19.2388 6.17317C18.7363 4.95991 17.9997 3.85752 17.0711 2.92893C16.1425 2.00035 15.0401 1.26375 13.8268 0.761205C12.6136 0.258658 11.3132 0 10 0V0ZM10 18C8.41775 18 6.87104 17.5308 5.55544 16.6518C4.23985 15.7727 3.21447 14.5233 2.60897 13.0615C2.00347 11.5997 1.84504 9.99113 2.15372 8.43928C2.4624 6.88743 3.22433 5.46197 4.34315 4.34315C5.46197 3.22433 6.88743 2.4624 8.43928 2.15372C9.99113 1.84504 11.5997 2.00346 13.0615 2.60896C14.5233 3.21447 15.7727 4.23984 16.6518 5.55544C17.5308 6.87103 18 8.41775 18 10C18 12.1217 17.1572 14.1566 15.6569 15.6569C14.1566 17.1571 12.1217 18 10 18V18Z" fill="var(--fill-0, #1E1F26)"/>
</svg>
