<svg preserveAspectRatio="none" width="100%" height="100%" overflow="visible" style="display: block;" viewBox="0 0 20 20" fill="none" xmlns="http://www.w3.org/2000/svg">
<path id="Vector" d="M19.92 0.62C19.8185 0.375651 19.6243 0.181475 19.38 0.0799999C19.2598 0.028759 19.1307 0.00157999 19 0H15C14.7348 0 14.4804 0.105357 14.2929 0.292893C14.1054 0.48043 14 0.734784 14 1C14 1.26522 14.1054 1.51957 14.2929 1.70711C14.4804 1.89464 14.7348 2 15 2H16.59L10 8.59L7.88 6.46C7.6917 6.2717 7.4363 6.16591 7.17 6.16591C6.9037 6.16591 6.6483 6.2717 6.46 6.46C6.2717 6.6483 6.16591 6.9037 6.16591 7.17C6.16591 7.4363 6.2717 7.6917 6.46 7.88L8.59 10L2 16.59V15C2 14.7348 1.89464 14.4804 1.70711 14.2929C1.51957 14.1054 1.26522 14 1 14C0.734784 14 0.48043 14.1054 0.292893 14.2929C0.105357 14.4804 0 14.7348 0 15V19C0.00157999 19.1307 0.028759 19.2598 0.0799999 19.38C0.181475 19.6243 0.375651 19.8185 0.62 19.92C0.740222 19.9712 0.869323 19.9984 1 20H5C5.26522 20 5.51957 19.8946 5.70711 19.7071C5.89464 19.5196 6 19.2652 6 19C6 18.7348 5.89464 18.4804 5.70711 18.2929C5.51957 18.1054 5.26522 18 5 18H3.41L10 11.41L12.12 13.54C12.2134 13.6327 12.3243 13.706 12.4461 13.7558C12.5679 13.8055 12.6984 13.8308 12.83 13.83C12.9616 13.8308 13.0921 13.8055 13.2139 13.7558C13.3357 13.706 13.4466 13.6327 13.54 13.54C13.6337 13.447 13.7081 13.3364 13.7589 13.2146C13.8097 13.0927 13.8358 12.962 13.8358 12.83C13.8358 12.698 13.8097 12.5673 13.7589 12.4454C13.7081 12.3236 13.6337 12.213 13.54 12.12L11.41 10L18 3.41V5C18 5.26522 18.1054 5.51957 18.2929 5.70711C18.4804 5.89464 18.7348 6 19 6C19.2652 6 19.5196 5.89464 19.7071 5.70711C19.8946 5.51957 20 5.26522 20 5V1C19.9984 0.869323 19.9712 0.740222 19.92 0.62Z" fill="var(--fill-0, #1E1F26)"/>
</svg>
