<svg preserveAspectRatio="none" width="100%" height="100%" overflow="visible" style="display: block;" viewBox="0 0 21 21.0029" fill="none" xmlns="http://www.w3.org/2000/svg">
<path id="Vector" d="M20 0.00291666C19.7348 0.00291666 19.4804 0.108273 19.2929 0.29581C19.1054 0.483346 19 0.7377 19 1.00292V1.00292C18.2442 0.434936 17.3429 0.0928667 16.4006 0.0163887C15.4583 -0.0600892 14.5136 0.132159 13.6761 0.570831C12.8386 1.0095 12.1427 1.67662 11.669 2.49481C11.1953 3.31299 10.9633 4.2487 10.9999 5.19341C11.0364 6.13811 11.3401 7.05309 11.8756 7.8322C12.4111 8.61132 13.1566 9.22264 14.0254 9.59526C14.8943 9.96788 15.851 10.0865 16.7846 9.93744C17.7182 9.78834 18.5904 9.37762 19.3 8.75292C19.5002 8.57787 19.6227 8.33046 19.6406 8.06509C19.6584 7.79973 19.57 7.53816 19.395 7.33792C19.22 7.13768 18.9725 7.01518 18.7072 6.99736C18.4418 6.97954 18.1802 7.06787 17.98 7.24292C17.5358 7.63498 16.9855 7.88676 16.3984 7.96649C15.8114 8.04622 15.2138 7.95034 14.6812 7.69095C14.1485 7.43155 13.7046 7.02024 13.4054 6.50889C13.1062 5.99754 12.9651 5.40905 12.9999 4.81762C13.0347 4.22618 13.2438 3.65829 13.6009 3.18555C13.958 2.71281 14.4471 2.35638 15.0065 2.16122C15.5659 1.96606 16.1705 1.9409 16.7442 2.08891C17.3179 2.23692 17.8349 2.55148 18.23 2.99292H17C16.7348 2.99292 16.4804 3.09827 16.2929 3.28581C16.1054 3.47335 16 3.7277 16 3.99292C16 4.25813 16.1054 4.51249 16.2929 4.70002C16.4804 4.88756 16.7348 4.99292 17 4.99292H20C20.2652 4.99292 20.5196 4.88756 20.7071 4.70002C20.8946 4.51249 21 4.25813 21 3.99292V0.992917C20.9974 0.729437 20.8908 0.477645 20.7036 0.292266C20.5163 0.106886 20.2635 0.00290349 20 0.00291666ZM17 12.0029C16.7348 12.0029 16.4804 12.1083 16.2929 12.2958C16.1054 12.4833 16 12.7377 16 13.0029V13.3929L14.5 11.9129C14.2426 11.6538 13.9364 11.4482 13.5992 11.3078C13.2619 11.1675 12.9003 11.0953 12.535 11.0953C12.1697 11.0953 11.8081 11.1675 11.4708 11.3078C11.1336 11.4482 10.8274 11.6538 10.57 11.9129L9.87 12.6129L7.41 10.1229C6.88742 9.60446 6.18113 9.31354 5.445 9.31354C4.70887 9.31354 4.00258 9.60446 3.48 10.1229L2 11.6029V6.00292C2 5.7377 2.10536 5.48335 2.29289 5.29581C2.48043 5.10827 2.73478 5.00292 3 5.00292H8C8.26522 5.00292 8.51957 4.89756 8.70711 4.71002C8.89464 4.52249 9 4.26813 9 4.00292C9 3.7377 8.89464 3.48335 8.70711 3.29581C8.51957 3.10827 8.26522 3.00292 8 3.00292H3C2.20435 3.00292 1.44129 3.31899 0.87868 3.8816C0.316071 4.44421 0 5.20727 0 6.00292V18.0029C0 18.7986 0.316071 19.5616 0.87868 20.1242C1.44129 20.6868 2.20435 21.0029 3 21.0029H15C15.7956 21.0029 16.5587 20.6868 17.1213 20.1242C17.6839 19.5616 18 18.7986 18 18.0029V13.0029C18 12.7377 17.8946 12.4833 17.7071 12.2958C17.5196 12.1083 17.2652 12.0029 17 12.0029ZM3 19.0029C2.73478 19.0029 2.48043 18.8976 2.29289 18.71C2.10536 18.5225 2 18.2681 2 18.0029V14.4329L4.9 11.5029C5.04691 11.3629 5.24206 11.2848 5.445 11.2848C5.64794 11.2848 5.84309 11.3629 5.99 11.5029L9.16 14.6729L13.5 19.0029H3ZM16 18.0029C15.9917 18.1931 15.9292 18.377 15.82 18.5329L11.31 14.0229L12.01 13.3229C12.1562 13.1776 12.3539 13.096 12.56 13.096C12.7661 13.096 12.9638 13.1776 13.11 13.3229L16 16.2229V18.0029Z" fill="var(--fill-0, #1E1F26)"/>
</svg>
