<svg preserveAspectRatio="none" width="100%" height="100%" overflow="visible" style="display: block;" viewBox="0 0 15.5605 20.1004" fill="none" xmlns="http://www.w3.org/2000/svg">
<path id="Vector" d="M2.76322 13.1404C2.79478 13.2956 2.85225 13.4444 2.93322 13.5804C3.25237 14.36 3.72508 15.0673 4.32322 15.6604C4.92478 16.2554 5.63406 16.7306 6.41322 17.0604C7.21387 17.4106 8.07939 17.5877 8.95322 17.5804C9.83017 17.5868 10.6988 17.4096 11.5032 17.0604C12.2793 16.7303 12.9852 16.2552 13.5832 15.6604C14.1863 15.0673 14.6655 14.3603 14.9932 13.5804C15.3188 12.7602 15.4753 11.8826 15.4532 11.0004C15.4512 10.1221 15.2779 9.25253 14.9432 8.44044C14.6153 7.66367 14.136 6.95999 13.5332 6.37044C12.9283 5.75809 12.2071 5.2728 11.412 4.94309C10.6169 4.61337 9.76396 4.44587 8.90322 4.45044C8.01506 4.4591 7.1377 4.64614 6.32322 5.00044C5.90207 5.18757 5.50017 5.41531 5.12322 5.68044C4.71173 5.9535 4.32969 6.26852 3.98322 6.62044V6.62044V1.23044H13.0332C13.2532 1.23044 13.3732 1.02044 13.3732 0.610439C13.3732 0.200439 13.2432 0.000439292 13.0232 0.000439292H3.23322C3.1766 -0.00232222 3.1201 0.00796407 3.06808 0.0305044C3.01606 0.0530446 2.96992 0.0872362 2.93322 0.130439C2.8947 0.168191 2.86421 0.213342 2.84359 0.263178C2.82297 0.313015 2.81264 0.366508 2.81322 0.420439V8.00044C2.81666 8.06013 2.83378 8.11823 2.86326 8.17025C2.89274 8.22227 2.93378 8.26681 2.98322 8.30044C3.10596 8.38817 3.24557 8.44946 3.39322 8.48044C3.5333 8.52361 3.68314 8.52361 3.82322 8.48044C3.90809 8.4555 3.98892 8.41845 4.06322 8.37044C4.116 8.3191 4.16295 8.26209 4.20322 8.20044C4.4573 7.84041 4.74528 7.50555 5.06322 7.20044C5.55453 6.69485 6.14442 6.29552 6.79635 6.02718C7.44827 5.75884 8.14835 5.62721 8.85322 5.64044C9.56507 5.63088 10.2712 5.76902 10.927 6.04614C11.5827 6.32325 12.1739 6.73331 12.6632 7.25044C13.1666 7.73612 13.5661 8.31888 13.8377 8.96345C14.1093 9.60803 14.2472 10.301 14.2432 11.0004C14.2372 11.6874 14.098 12.3666 13.8332 13.0004C13.575 13.669 13.1852 14.2789 12.6871 14.7942C12.189 15.3095 11.5926 15.7197 10.9332 16.0004C10.2793 16.2672 9.57943 16.4031 8.87322 16.4004C7.92077 16.408 6.98532 16.1481 6.17322 15.6504V11.0004C6.17803 10.336 6.4313 9.69749 6.88322 9.21044C7.12867 8.9218 7.43581 8.69197 7.78198 8.53793C8.12814 8.38389 8.50448 8.30956 8.88322 8.32044C9.25328 8.30504 9.62247 8.36739 9.96695 8.50346C10.3114 8.63953 10.6236 8.8463 10.8832 9.11044C11.1312 9.35718 11.3257 9.6523 11.4548 9.97745C11.5838 10.3026 11.6445 10.6508 11.6332 11.0004C11.6346 11.3632 11.5636 11.7226 11.4246 12.0576C11.2855 12.3926 11.081 12.6965 10.8231 12.9516C10.5652 13.2067 10.2591 13.4079 9.92256 13.5433C9.58605 13.6787 9.22592 13.7458 8.86322 13.7404H8.52322L8.15322 13.6704H8.00322C7.79322 13.6104 7.63322 13.7704 7.51322 14.1504C7.39322 14.5304 7.44322 14.7504 7.65322 14.8304C8.05888 14.9511 8.48 15.0117 8.90322 15.0104C9.42422 15.0172 9.94113 14.9178 10.4225 14.7184C10.9039 14.5189 11.3396 14.2236 11.7032 13.8504C12.0841 13.4822 12.384 13.0385 12.5837 12.5478C12.7835 12.057 12.8787 11.53 12.8632 11.0004C12.8738 10.4819 12.7761 9.9668 12.5763 9.48813C12.3766 9.00946 12.0792 8.5777 11.7032 8.22044C11.3402 7.84714 10.9043 7.55244 10.4227 7.35461C9.941 7.15678 9.42382 7.06006 8.90322 7.07044C8.37975 7.06086 7.8598 7.15787 7.37501 7.35557C6.89021 7.55327 6.4507 7.84753 6.08322 8.22044C5.72671 8.55166 5.44168 8.95227 5.24564 9.39766C5.0496 9.84306 4.94668 10.3238 4.94322 10.8104V14.6104C4.46703 14.0656 4.10034 13.4341 3.86322 12.7504C3.78322 12.5404 3.56322 12.5004 3.19322 12.6204C2.82322 12.7404 2.64322 12.9104 2.71322 13.1104L2.76322 13.1404ZM9.01322 2.14044C7.86729 2.11683 6.72925 2.3349 5.67322 2.78044C5.61529 2.78468 5.56066 2.80896 5.51869 2.84911C5.47672 2.88926 5.45003 2.94276 5.44322 3.00044C5.44781 3.14794 5.47827 3.29348 5.53322 3.43044C5.67322 3.78044 5.83322 3.91044 6.03322 3.84044C6.96738 3.47718 7.96091 3.29068 8.96322 3.29044C10.0227 3.2817 11.0722 3.49636 12.0432 3.92044C12.8869 4.28805 13.6666 4.78763 14.3532 5.40044C14.3762 5.42527 14.4041 5.44516 14.435 5.45891C14.4659 5.47267 14.4994 5.47999 14.5332 5.48044C14.6232 5.48044 14.7732 5.38044 14.9632 5.19044L15.1532 5.00044C15.1939 4.93807 15.2148 4.86488 15.2132 4.79044C15.2069 4.71338 15.1711 4.64173 15.1132 4.59044C14.3499 3.87254 13.462 3.29984 12.4932 2.90044C11.38 2.41124 10.1791 2.1527 8.96322 2.14044H9.01322ZM7.40322 12.0504C7.41067 12.1166 7.43241 12.1804 7.46694 12.2374C7.50148 12.2944 7.54797 12.3432 7.60322 12.3804V12.3804C7.6918 12.484 7.81747 12.5486 7.95322 12.5604C8.01553 12.5633 8.0765 12.5418 8.12322 12.5004L8.85322 11.7704L9.55322 12.4504C9.57804 12.483 9.60972 12.5098 9.646 12.5288C9.68229 12.5478 9.7223 12.5586 9.76322 12.5604C9.90223 12.5427 10.0301 12.4752 10.1232 12.3704C10.3232 12.1604 10.3532 11.9804 10.1932 11.8204L9.49322 11.1204L10.2332 10.3804C10.3532 10.2604 10.3132 10.0904 10.1032 9.89044C9.89322 9.69044 9.70322 9.62044 9.57322 9.75044L8.84322 10.4704L8.12322 9.73044C8.07859 9.70066 8.02679 9.68339 7.97322 9.68044C7.83938 9.70366 7.71854 9.77474 7.63322 9.88044C7.40322 10.1004 7.35322 10.2604 7.47322 10.3804L8.21322 11.1204L7.47322 11.8404C7.40953 11.894 7.36699 11.9684 7.35322 12.0504H7.40322ZM15.3332 16.6204C15.226 16.5154 15.1007 16.4307 14.9632 16.3704C14.9146 16.3556 14.8628 16.3543 14.8135 16.3666C14.7642 16.3789 14.7191 16.4044 14.6832 16.4404L14.6132 16.5104C13.8917 17.2283 13.0398 17.8019 12.1032 18.2004C10.6519 18.8112 9.05174 18.9766 7.50617 18.6757C5.9606 18.3747 4.5394 17.6211 3.42322 16.5104C2.67316 15.8033 2.07736 14.9488 1.67322 14.0004C1.44525 13.4287 1.27442 12.8358 1.16322 12.2304C1.16322 12.0204 0.913218 11.9404 0.533218 12.0004C0.153218 12.0604 -0.0267821 12.2004 0.00321794 12.4004C0.11146 13.1267 0.313132 13.8359 0.603218 14.5104C1.0709 15.5944 1.75094 16.5736 2.60322 17.3904C3.42576 18.2405 4.40781 18.9202 5.49322 19.3904C6.61419 19.8604 7.81772 20.1018 9.03322 20.1004C10.2483 20.0978 11.4511 19.8566 12.5732 19.3904C13.6586 18.9202 14.6407 18.2405 15.4632 17.3904L15.5232 17.3304C15.6132 17.1104 15.5432 16.8904 15.2832 16.6204H15.3332Z" fill="var(--fill-0, #1E1F26)"/>
</svg>
