<svg preserveAspectRatio="none" width="100%" height="100%" overflow="visible" style="display: block;" viewBox="0 0 20 20" fill="none" xmlns="http://www.w3.org/2000/svg">
<path id="Vector" d="M19 18H2V16H5C5.26522 16 5.51957 15.8946 5.70711 15.7071C5.89464 15.5196 6 15.2652 6 15C6 14.7348 5.89464 14.4804 5.70711 14.2929C5.51957 14.1054 5.26522 14 5 14H2V12H9C9.26522 12 9.51957 11.8946 9.70711 11.7071C9.89464 11.5196 10 11.2652 10 11C10 10.7348 9.89464 10.4804 9.70711 10.2929C9.51957 10.1054 9.26522 10 9 10H2V8H13C13.2652 8 13.5196 7.89464 13.7071 7.70711C13.8946 7.51957 14 7.26522 14 7C14 6.73478 13.8946 6.48043 13.7071 6.29289C13.5196 6.10536 13.2652 6 13 6H2V4H17C17.2652 4 17.5196 3.89464 17.7071 3.70711C17.8946 3.51957 18 3.26522 18 3C18 2.73478 17.8946 2.48043 17.7071 2.29289C17.5196 2.10536 17.2652 2 17 2H2V1C2 0.734784 1.89464 0.48043 1.70711 0.292893C1.51957 0.105357 1.26522 0 1 0C0.734784 0 0.48043 0.105357 0.292893 0.292893C0.105357 0.48043 0 0.734784 0 1V19C0 19.2652 0.105357 19.5196 0.292893 19.7071C0.48043 19.8946 0.734784 20 1 20H19C19.2652 20 19.5196 19.8946 19.7071 19.7071C19.8946 19.5196 20 19.2652 20 19C20 18.7348 19.8946 18.4804 19.7071 18.2929C19.5196 18.1054 19.2652 18 19 18Z" fill="var(--fill-0, #1E1F26)"/>
</svg>
