<svg preserveAspectRatio="none" width="100%" height="100%" overflow="visible" style="display: block;" viewBox="0 0 14.9478 20.0239" fill="none" xmlns="http://www.w3.org/2000/svg">
<path id="Vector" d="M14.62 0.233892C14.5024 0.135225 14.3636 0.0649601 14.2145 0.0285432C14.0654 -0.00787373 13.9099 -0.00946517 13.76 0.0238923L5.76 2.02389C5.53813 2.07864 5.3417 2.20774 5.20342 2.38969C5.06513 2.57163 4.99335 2.79546 5 3.02389V13.3739C4.53277 13.1457 4.01999 13.026 3.5 13.0239C2.80777 13.0239 2.13108 13.2292 1.55551 13.6137C0.979934 13.9983 0.53133 14.545 0.266423 15.1845C0.00151649 15.824 -0.0677952 16.5278 0.0672531 17.2067C0.202301 17.8856 0.535644 18.5093 1.02513 18.9988C1.51461 19.4882 2.13825 19.8216 2.81719 19.9566C3.49612 20.0917 4.19985 20.0224 4.83939 19.7575C5.47893 19.4926 6.02556 19.044 6.41015 18.4684C6.79473 17.8928 7 17.2161 7 16.5239V8.80389L14.24 7.02389H14.31L14.5 6.87389L14.65 6.77389C14.6986 6.72867 14.7421 6.67839 14.78 6.62389C14.819 6.57793 14.8526 6.52759 14.88 6.47389C14.9103 6.41782 14.9306 6.35692 14.94 6.29389C14.9504 6.23099 14.9504 6.1668 14.94 6.10389C14.9445 6.07741 14.9445 6.05037 14.94 6.02389V1.02389C14.9482 0.87677 14.9237 0.729662 14.8684 0.593091C14.8131 0.456521 14.7282 0.333864 14.62 0.233892V0.233892ZM3.5 18.0239C3.20333 18.0239 2.91332 17.9359 2.66665 17.7711C2.41997 17.6063 2.22771 17.372 2.11418 17.0979C2.00065 16.8238 1.97095 16.5222 2.02882 16.2313C2.0867 15.9403 2.22956 15.673 2.43934 15.4632C2.64912 15.2535 2.91639 15.1106 3.20737 15.0527C3.49834 14.9948 3.79994 15.0245 4.07403 15.1381C4.34812 15.2516 4.58238 15.4439 4.74721 15.6905C4.91203 15.9372 5 16.2272 5 16.5239C5 16.9217 4.84197 17.3032 4.56066 17.5846C4.27936 17.8659 3.89783 18.0239 3.5 18.0239ZM13 5.24389L7 6.74389V3.80389L13 2.30389V5.24389Z" fill="var(--fill-0, #1E1F26)"/>
</svg>
