<svg preserveAspectRatio="none" width="100%" height="100%" overflow="visible" style="display: block;" viewBox="0 0 20.0039 20.0029" fill="none" xmlns="http://www.w3.org/2000/svg">
<path id="Vector" d="M8.30388 8.75292C8.42149 8.67395 8.52098 8.57089 8.59576 8.45058C8.67054 8.33026 8.7189 8.19543 8.73764 8.05501C8.75639 7.9146 8.74508 7.7718 8.70448 7.63609C8.66388 7.50037 8.5949 7.37483 8.50212 7.26777C8.40935 7.16072 8.29488 7.0746 8.16631 7.01512C8.03774 6.95564 7.89801 6.92416 7.75635 6.92275C7.6147 6.92135 7.47436 6.95006 7.34464 7.00698C7.21492 7.06389 7.09877 7.14773 7.00388 7.25292C6.64033 7.57353 6.20449 7.80127 5.73369 7.91665C5.26288 8.03203 4.77113 8.03161 4.30053 7.91542C3.82993 7.79923 3.39449 7.57074 3.03148 7.2495C2.66847 6.92826 2.38872 6.52384 2.21615 6.07086C2.04359 5.61788 1.98336 5.12983 2.04062 4.64849C2.09788 4.16715 2.27093 3.70685 2.54494 3.307C2.81896 2.90715 3.18579 2.57965 3.61402 2.35253C4.04226 2.12542 4.51915 2.00546 5.00388 2.00292C5.42495 2.00377 5.84112 2.09325 6.22533 2.26554C6.60954 2.43783 6.95317 2.68907 7.23388 3.00292H6.00388C5.73867 3.00292 5.48431 3.10827 5.29678 3.29581C5.10924 3.48335 5.00388 3.7377 5.00388 4.00292C5.00388 4.26813 5.10924 4.52249 5.29678 4.71002C5.48431 4.89756 5.73867 5.00292 6.00388 5.00292H9.00388C9.2691 5.00292 9.52345 4.89756 9.71099 4.71002C9.89853 4.52249 10.0039 4.26813 10.0039 4.00292V1.00292C10.0039 0.7377 9.89853 0.483346 9.71099 0.29581C9.52345 0.108273 9.2691 0.00291666 9.00388 0.00291666C8.73867 0.00291666 8.48431 0.108273 8.29678 0.29581C8.10924 0.483346 8.00388 0.7377 8.00388 1.00292V1.00292C7.2481 0.434936 6.34678 0.0928667 5.40447 0.0163887C4.46216 -0.0600892 3.51747 0.132159 2.67999 0.570831C1.84251 1.0095 1.14657 1.67662 0.672878 2.49481C0.19919 3.31299 -0.0328264 4.2487 0.00374284 5.19341C0.040312 6.13811 0.343968 7.05309 0.879487 7.8322C1.41501 8.61132 2.16044 9.22264 3.02932 9.59526C3.89821 9.96788 4.85493 10.0865 5.78851 9.93744C6.72209 9.78834 7.59427 9.37762 8.30388 8.75292V8.75292ZM17.0039 4.00292H13.0039C12.7387 4.00292 12.4843 4.10827 12.2968 4.29581C12.1092 4.48335 12.0039 4.7377 12.0039 5.00292C12.0039 5.26813 12.1092 5.52249 12.2968 5.71002C12.4843 5.89756 12.7387 6.00292 13.0039 6.00292H17.0039C17.2691 6.00292 17.5235 6.10827 17.711 6.29581C17.8985 6.48335 18.0039 6.7377 18.0039 7.00292V16.7229L16.4339 15.2729C16.2495 15.1003 16.0065 15.0038 15.7539 15.0029H7.00388C6.73867 15.0029 6.48431 14.8976 6.29678 14.71C6.10924 14.5225 6.00388 14.2681 6.00388 14.0029V13.0029C6.00388 12.7377 5.89853 12.4833 5.71099 12.2958C5.52345 12.1083 5.2691 12.0029 5.00388 12.0029C4.73867 12.0029 4.48431 12.1083 4.29678 12.2958C4.10924 12.4833 4.00388 12.7377 4.00388 13.0029V14.0029C4.00388 14.7986 4.31995 15.5616 4.88256 16.1242C5.44517 16.6868 6.20823 17.0029 7.00388 17.0029H15.3639L18.3639 19.7329C18.5381 19.8965 18.7651 19.9923 19.0039 20.0029C19.141 20.0014 19.2767 19.9743 19.4039 19.9229C19.5828 19.8448 19.7349 19.7161 19.8415 19.5527C19.9481 19.3892 20.0046 19.1981 20.0039 19.0029V7.00292C20.0039 6.20727 19.6878 5.44421 19.1252 4.8816C18.5626 4.31899 17.7995 4.00292 17.0039 4.00292Z" fill="var(--fill-0, #1E1F26)"/>
</svg>
