<svg preserveAspectRatio="none" width="100%" height="100%" overflow="visible" style="display: block;" viewBox="0 0 14.0069 20.0015" fill="none" xmlns="http://www.w3.org/2000/svg">
<path id="Vector" d="M13.0834 5.00151C12.952 4.99057 12.8198 5.00573 12.6942 5.04612C12.5687 5.0865 12.4524 5.15131 12.352 5.23682C12.2517 5.32233 12.1692 5.42684 12.1094 5.54435C12.0495 5.66185 12.0135 5.79003 12.0034 5.92151L11.6534 10.4715C11.191 10.3284 10.7763 10.0622 10.4534 9.70151C10.3596 9.5951 10.2442 9.50988 10.1149 9.45151C9.98557 9.39313 9.84532 9.36295 9.70344 9.36295C9.56157 9.36295 9.42132 9.39313 9.29201 9.45151C9.1627 9.50988 9.04729 9.5951 8.95344 9.70151C8.70525 9.97122 8.40381 10.1865 8.06816 10.3338C7.73252 10.481 7.36997 10.5571 7.00345 10.5571C6.63692 10.5571 6.27437 10.481 5.93873 10.3338C5.60308 10.1865 5.30164 9.97122 5.05345 9.70151C4.9596 9.5951 4.84419 9.50988 4.71488 9.45151C4.58557 9.39313 4.44532 9.36295 4.30345 9.36295C4.16157 9.36295 4.02132 9.39313 3.89201 9.45151C3.7627 9.50988 3.64729 9.5951 3.55345 9.70151C3.22966 10.0611 2.81521 10.327 2.35345 10.4715L2.00345 5.92151C1.99335 5.79003 1.95735 5.66185 1.89753 5.54435C1.8377 5.42684 1.75522 5.32233 1.65485 5.23682C1.55447 5.15131 1.43817 5.0865 1.31265 5.04612C1.18712 5.00573 1.05485 4.99057 0.923445 5.00151C0.791972 5.0116 0.663793 5.0476 0.546286 5.10743C0.428778 5.16725 0.324264 5.24973 0.238757 5.35011C0.15325 5.45048 0.0884391 5.56678 0.0480546 5.69231C0.00767012 5.81783 -0.00749074 5.9501 0.00344505 6.08151L0.863445 17.2315C0.921506 17.9866 1.26303 18.6919 1.81947 19.2056C2.37591 19.7194 3.10609 20.0037 3.86344 20.0015H10.1634C10.9208 20.0037 11.651 19.7194 12.2074 19.2056C12.7639 18.6919 13.1054 17.9866 13.1634 17.2315L14.0034 6.08151C14.0144 5.9501 13.9992 5.81783 13.9588 5.69231C13.9185 5.56678 13.8536 5.45048 13.7681 5.35011C13.6826 5.24973 13.5781 5.16725 13.4606 5.10743C13.3431 5.0476 13.2149 5.0116 13.0834 5.00151ZM11.1434 17.0815C11.1233 17.3326 11.0091 17.5669 10.8237 17.7374C10.6383 17.908 10.3954 18.0023 10.1434 18.0015H3.85345C3.60152 18.0023 3.35858 17.908 3.17318 17.7374C2.98779 17.5669 2.8736 17.3326 2.85345 17.0815L2.50345 12.5015C3.15179 12.366 3.7648 12.097 4.30345 11.7115C5.09213 12.2722 6.03579 12.5734 7.00345 12.5734C7.9711 12.5734 8.91476 12.2722 9.70344 11.7115C10.2421 12.097 10.8551 12.366 11.5034 12.5015L11.1434 17.0815ZM7.00345 8.00151C7.86459 7.99887 8.68971 7.65561 9.29863 7.04669C9.90755 6.43777 10.2508 5.61265 10.2534 4.75151C10.2534 2.00151 7.67345 0.241507 7.56345 0.171507C7.39808 0.0597315 7.20305 0 7.00345 0C6.80385 0 6.60881 0.0597315 6.44344 0.171507C6.33344 0.251507 3.75345 2.00151 3.75345 4.75151C3.75608 5.61265 4.09934 6.43777 4.70826 7.04669C5.31718 7.65561 6.1423 7.99887 7.00345 8.00151V8.00151ZM7.00345 2.30151C7.72708 2.92123 8.1764 3.80189 8.25344 4.75151C8.25344 5.08303 8.12175 5.40097 7.88733 5.63539C7.65291 5.86981 7.33497 6.00151 7.00345 6.00151C6.67192 6.00151 6.35398 5.86981 6.11956 5.63539C5.88514 5.40097 5.75345 5.08303 5.75345 4.75151C5.83574 3.80339 6.2841 2.9246 7.00345 2.30151V2.30151Z" fill="var(--fill-0, #1E1F26)"/>
</svg>
