<svg preserveAspectRatio="none" width="100%" height="100%" overflow="visible" style="display: block;" viewBox="0 0 20 20" fill="none" xmlns="http://www.w3.org/2000/svg">
<path id="Vector" d="M17.5 0H2.5C1.83696 0 1.20107 0.263392 0.732233 0.732233C0.263392 1.20107 0 1.83696 0 2.5V17.5C0 18.163 0.263392 18.7989 0.732233 19.2678C1.20107 19.7366 1.83696 20 2.5 20H17.5C18.163 20 18.7989 19.7366 19.2678 19.2678C19.7366 18.7989 20 18.163 20 17.5V2.5C20 1.83696 19.7366 1.20107 19.2678 0.732233C18.7989 0.263392 18.163 0 17.5 0V0ZM12.67 3.67C12.6687 3.58164 12.6851 3.49391 12.7183 3.41201C12.7514 3.33012 12.8007 3.25572 12.8632 3.19323C12.9257 3.13075 13.0001 3.08145 13.082 3.04825C13.1639 3.01506 13.2516 2.99865 13.34 3C13.5135 3.00503 13.6784 3.07618 13.8011 3.19888C13.9238 3.32158 13.995 3.48655 14 3.66V12.56C13.9801 12.7223 13.9014 12.8718 13.7789 12.9801C13.6564 13.0885 13.4985 13.1483 13.335 13.1483C13.1715 13.1483 13.0136 13.0885 12.8911 12.9801C12.7686 12.8718 12.6899 12.7223 12.67 12.56V3.67ZM9.33 3.33C9.33 3.1523 9.40059 2.98189 9.52624 2.85624C9.65189 2.73059 9.8223 2.66 10 2.66V2.66C10.1777 2.66 10.3481 2.73059 10.4738 2.85624C10.5994 2.98189 10.67 3.1523 10.67 3.33V13C10.67 13.1777 10.5994 13.3481 10.4738 13.4738C10.3481 13.5994 10.1777 13.67 10 13.67C9.8223 13.67 9.65189 13.5994 9.52624 13.4738C9.40059 13.3481 9.33 13.1777 9.33 13V3.33ZM6 3.67C6.01994 3.50767 6.09857 3.35825 6.22106 3.24988C6.34356 3.14152 6.50145 3.0817 6.665 3.0817C6.82855 3.0817 6.98644 3.14152 7.10894 3.24988C7.23143 3.35825 7.31006 3.50767 7.33 3.67V12.57C7.33001 12.6575 7.31261 12.7442 7.27882 12.8249C7.24503 12.9056 7.19552 12.9788 7.13317 13.0403C7.07082 13.1017 6.99688 13.1501 6.91564 13.1827C6.83441 13.2152 6.74751 13.2313 6.66 13.23C6.48655 13.225 6.32158 13.1538 6.19888 13.0311C6.07618 12.9084 6.00503 12.7435 6 12.57V3.67ZM2.67 5C2.68994 4.83767 2.76857 4.68825 2.89106 4.57988C3.01356 4.47152 3.17145 4.4117 3.335 4.4117C3.49855 4.4117 3.65644 4.47152 3.77894 4.57988C3.90143 4.68825 3.98006 4.83767 4 5V11C3.99737 11.176 3.92563 11.3438 3.80026 11.4673C3.67489 11.5908 3.50598 11.66 3.33 11.66C3.15576 11.6574 2.98938 11.5871 2.86616 11.4638C2.74295 11.3406 2.67258 11.1742 2.67 11V5ZM17.1 15.17C15.044 16.6688 12.5423 17.4299 10 17.33C7.45765 17.4299 4.956 16.6688 2.9 15.17C2.79559 15.0479 2.73853 14.8924 2.73921 14.7317C2.7399 14.5711 2.79829 14.416 2.90373 14.2948C3.00918 14.1736 3.15466 14.0943 3.31367 14.0714C3.47268 14.0485 3.63463 14.0835 3.77 14.17C5.59188 15.4424 7.77943 16.0849 10 16C12.2222 16.0857 14.411 15.4393 16.23 14.16C16.3654 14.0735 16.5273 14.0385 16.6863 14.0614C16.8453 14.0843 16.9908 14.1636 17.0963 14.2848C17.2017 14.406 17.2601 14.5611 17.2608 14.7217C17.2615 14.8824 17.2044 15.0379 17.1 15.16V15.17ZM17.33 11C17.3101 11.1623 17.2314 11.3118 17.1089 11.4201C16.9864 11.5285 16.8285 11.5883 16.665 11.5883C16.5015 11.5883 16.3436 11.5285 16.2211 11.4201C16.0986 11.3118 16.0199 11.1623 16 11V5C16.0026 4.82404 16.0744 4.65618 16.1997 4.53269C16.3251 4.4092 16.494 4.33998 16.67 4.34C16.845 4.34 17.0129 4.40954 17.1367 4.53331C17.2605 4.65708 17.33 4.82496 17.33 5V11Z" fill="var(--fill-0, #1E1F26)"/>
</svg>
