<svg preserveAspectRatio="none" width="100%" height="100%" overflow="visible" style="display: block;" viewBox="0 0 20 21" fill="none" xmlns="http://www.w3.org/2000/svg">
<path id="Vector" d="M15.38 13.08C15.1969 13.0028 14.995 12.9819 14.8 13.02C14.7374 13.0309 14.6767 13.0512 14.62 13.08C14.5563 13.1019 14.4957 13.1322 14.44 13.17L14.29 13.29C14.1073 13.4816 14.0037 13.7352 14 14C13.9992 14.1316 14.0245 14.2621 14.0742 14.3839C14.124 14.5057 14.1973 14.6166 14.29 14.71C14.3869 14.8013 14.4985 14.8756 14.62 14.93C14.8031 15.0053 15.0044 15.0246 15.1984 14.9855C15.3924 14.9463 15.5705 14.8504 15.71 14.71C15.7983 14.6128 15.8694 14.5012 15.92 14.38C15.976 14.2613 16.0034 14.1312 16 14C15.9963 13.7352 15.8927 13.4816 15.71 13.29C15.6161 13.1974 15.5036 13.1258 15.38 13.08ZM18 9.18V6C18 5.20435 17.6839 4.44129 17.1213 3.87868C16.5587 3.31607 15.7956 3 15 3H14.22L13.45 0.680003C13.3829 0.481382 13.2551 0.308868 13.0846 0.186845C12.9142 0.0648223 12.7096 -0.000537828 12.5 3.33354e-06H7.5C7.29036 -0.000537828 7.08584 0.0648223 6.91537 0.186845C6.7449 0.308868 6.61709 0.481382 6.55 0.680003L5.78 3H5C4.20435 3 3.44129 3.31607 2.87868 3.87868C2.31607 4.44129 2 5.20435 2 6V9.18C1.41645 9.38632 0.910998 9.76807 0.552938 10.2729C0.194879 10.7778 0.00173951 11.3811 0 12V18C0 18.2652 0.105357 18.5196 0.292893 18.7071C0.48043 18.8946 0.734784 19 1 19H2V20C2 20.2652 2.10536 20.5196 2.29289 20.7071C2.48043 20.8946 2.73478 21 3 21C3.26522 21 3.51957 20.8946 3.70711 20.7071C3.89464 20.5196 4 20.2652 4 20V19H16V20C16 20.2652 16.1054 20.5196 16.2929 20.7071C16.4804 20.8946 16.7348 21 17 21C17.2652 21 17.5196 20.8946 17.7071 20.7071C17.8946 20.5196 18 20.2652 18 20V19H19C19.2652 19 19.5196 18.8946 19.7071 18.7071C19.8946 18.5196 20 18.2652 20 18V12C19.9983 11.3811 19.8051 10.7778 19.4471 10.2729C19.089 9.76807 18.5835 9.38632 18 9.18V9.18ZM8.22 2H11.78L12.11 3H7.89L8.22 2ZM4 6C4 5.73479 4.10536 5.48043 4.29289 5.2929C4.48043 5.10536 4.73478 5 5 5H15C15.2652 5 15.5196 5.10536 15.7071 5.2929C15.8946 5.48043 16 5.73479 16 6V9H4V6ZM18 17H2V12C2 11.7348 2.10536 11.4804 2.29289 11.2929C2.48043 11.1054 2.73478 11 3 11H17C17.2652 11 17.5196 11.1054 17.7071 11.2929C17.8946 11.4804 18 11.7348 18 12V17ZM4.62 13.08C4.49725 13.1276 4.3851 13.199 4.29 13.29C4.10727 13.4816 4.00368 13.7352 4 14C3.99917 14.1646 4.03901 14.3269 4.11596 14.4725C4.19291 14.618 4.30461 14.7423 4.44113 14.8343C4.57766 14.9263 4.73478 14.9832 4.89857 14.9999C5.06235 15.0166 5.22772 14.9926 5.38 14.93C5.50153 14.8756 5.61308 14.8013 5.71 14.71C5.80268 14.6166 5.87601 14.5057 5.92577 14.3839C5.97554 14.2621 6.00076 14.1316 6 14C5.99632 13.7352 5.89273 13.4816 5.71 13.29C5.56938 13.1512 5.3908 13.0572 5.19681 13.0199C5.00282 12.9825 4.80211 13.0034 4.62 13.08ZM11 13H9C8.73478 13 8.48043 13.1054 8.29289 13.2929C8.10536 13.4804 8 13.7348 8 14C8 14.2652 8.10536 14.5196 8.29289 14.7071C8.48043 14.8946 8.73478 15 9 15H11C11.2652 15 11.5196 14.8946 11.7071 14.7071C11.8946 14.5196 12 14.2652 12 14C12 13.7348 11.8946 13.4804 11.7071 13.2929C11.5196 13.1054 11.2652 13 11 13Z" fill="var(--fill-0, #1E1F26)"/>
</svg>
