<svg preserveAspectRatio="none" width="100%" height="100%" overflow="visible" style="display: block;" viewBox="0 0 22 15.0001" fill="none" xmlns="http://www.w3.org/2000/svg">
<path id="Vector" d="M21.1167 10.0313C20.9894 9.99853 20.8569 9.99127 20.7268 10.0099C20.5967 10.0285 20.4715 10.0727 20.3586 10.1399C20.2456 10.207 20.147 10.2958 20.0684 10.4012C19.9899 10.5066 19.933 10.6265 19.9009 10.7539C19.7178 11.4603 19.2834 12.0756 18.6792 12.4847C18.0749 12.8937 17.3422 13.0684 16.6184 12.9759C15.8946 12.8834 15.2293 12.5302 14.7473 11.9823C14.2653 11.4345 13.9996 10.7297 14 10V9.00002H21C21.1313 9.00006 21.2614 8.97421 21.3827 8.92397C21.5041 8.87373 21.6143 8.80007 21.7072 8.70721C21.8 8.61434 21.8737 8.50409 21.924 8.38275C21.9742 8.26141 22 8.13135 22 8.00002C22 7.34341 21.8707 6.69323 21.6194 6.08661C21.3681 5.47998 20.9998 4.92878 20.5355 4.46449C20.0712 4.0002 19.52 3.6319 18.9134 3.38063C18.3068 3.12935 17.6566 3.00002 17 3.00002C16.3434 3.00002 15.6932 3.12935 15.0866 3.38063C14.48 3.6319 13.9288 4.0002 13.4645 4.46449C13.0002 4.92878 12.6319 5.47998 12.3806 6.08661C12.1293 6.69323 12 7.34341 12 8.00002V10C11.9996 11.2172 12.4433 12.3927 13.248 13.306C14.0526 14.2192 15.1628 14.8075 16.3704 14.9604C17.5779 15.1134 18.7997 14.8204 19.8066 14.1366C20.8135 13.4527 21.5363 12.425 21.8394 11.2461C21.8717 11.1189 21.8787 10.9865 21.8599 10.8566C21.8411 10.7267 21.7969 10.6017 21.7298 10.4889C21.6627 10.3761 21.574 10.2776 21.4688 10.1991C21.3636 10.1206 21.244 10.0635 21.1167 10.0313V10.0313ZM17 5.00002C17.7934 5.00032 18.5546 5.31371 19.1182 5.87209C19.4311 6.19213 19.6697 6.57725 19.8168 7.00002H14.1843C14.3897 6.41677 14.7707 5.9114 15.2748 5.5533C15.779 5.19521 16.3816 5.00193 17 5.00002V5.00002ZM15 2.00002H19C19.2652 2.00002 19.5196 1.89467 19.7071 1.70713C19.8946 1.51959 20 1.26524 20 1.00002C20 0.734807 19.8946 0.480452 19.7071 0.292916C19.5196 0.10538 19.2652 2.2964e-05 19 2.2964e-05H15C14.7348 2.2964e-05 14.4804 0.10538 14.2929 0.292916C14.1054 0.480452 14 0.734807 14 1.00002C14 1.26524 14.1054 1.51959 14.2929 1.70713C14.4804 1.89467 14.7348 2.00002 15 2.00002V2.00002ZM8.918 6.71718C9.45169 6.14952 9.80734 5.43791 9.94098 4.67031C10.0746 3.90271 9.9804 3.11277 9.66995 2.39814C9.35951 1.68351 8.84646 1.07552 8.19422 0.649315C7.54198 0.223111 6.77914 -0.00262107 6 2.2964e-05H1C0.868668 -1.25099e-05 0.738616 0.0258287 0.617275 0.0760709C0.495933 0.126313 0.38568 0.199971 0.292814 0.292837C0.199948 0.385702 0.12629 0.495956 0.0760482 0.617297C0.0258061 0.738639 -3.54375e-05 0.868691 3.64731e-08 1.00002V14C-3.4123e-05 14.1314 0.0258084 14.2614 0.076051 14.3827C0.126294 14.5041 0.199952 14.6143 0.292817 14.7072C0.385682 14.8001 0.495935 14.8737 0.617276 14.924C0.738617 14.9742 0.868669 15.0001 1 15H6.5C7.47314 15.0018 8.42053 14.6875 9.19963 14.1044C9.97874 13.5213 10.5474 12.701 10.8201 11.7668C11.0928 10.8327 11.0548 9.83524 10.7118 8.92457C10.3687 8.0139 9.73924 7.23925 8.918 6.71718V6.71718ZM2 2.00002H6C6.53043 2.00002 7.03914 2.21074 7.41421 2.58581C7.78929 2.96088 8 3.46959 8 4.00002C8 4.53046 7.78929 5.03916 7.41421 5.41424C7.03914 5.78931 6.53043 6.00002 6 6.00002H2V2.00002ZM6.5 13H2V8.00002H6.5C7.16304 8.00002 7.79893 8.26341 8.26777 8.73226C8.73661 9.2011 9 9.83698 9 10.5C9 11.1631 8.73661 11.7989 8.26777 12.2678C7.79893 12.7366 7.16304 13 6.5 13Z" fill="var(--fill-0, #1E1F26)"/>
</svg>
