<svg preserveAspectRatio="none" width="100%" height="100%" overflow="visible" style="display: block;" viewBox="0 0 20 17.95" fill="none" xmlns="http://www.w3.org/2000/svg">
<path id="Vector" d="M4.62 10.03C4.4959 10.0749 4.3832 10.1466 4.28989 10.2399C4.19657 10.3332 4.12491 10.4459 4.08 10.57C4.00726 10.7518 3.98945 10.9508 4.02879 11.1426C4.06812 11.3343 4.16287 11.5103 4.30128 11.6487C4.43969 11.7872 4.61569 11.8819 4.80744 11.9212C4.99919 11.9606 5.19827 11.9428 5.38 11.87C5.50119 11.8194 5.6128 11.7484 5.71 11.66C5.79833 11.5628 5.86936 11.4512 5.92 11.33C5.97598 11.2113 6.00338 11.0812 6 10.95C5.99632 10.6853 5.89273 10.4317 5.71 10.24C5.56938 10.1013 5.3908 10.0073 5.19681 9.96989C5.00282 9.93252 4.80211 9.95344 4.62 10.03ZM17.76 6.03002L16.4 2.00002C16.1926 1.41325 15.8077 0.905526 15.2989 0.547183C14.7901 0.188841 14.1824 -0.0023769 13.56 2.23036e-05H6.44C5.81764 -0.0023769 5.20995 0.188841 4.7011 0.547183C4.19225 0.905526 3.80745 1.41325 3.6 2.00002L2.24 6.06002C1.60033 6.22753 1.03392 6.60169 0.628829 7.12432C0.223743 7.64696 0.00267662 8.28879 0 8.95002V12.95C0.00173951 13.569 0.194879 14.1722 0.552938 14.6771C0.910998 15.182 1.41645 15.5637 2 15.77V16.95C2 17.2152 2.10536 17.4696 2.29289 17.6571C2.48043 17.8447 2.73478 17.95 3 17.95C3.26522 17.95 3.51957 17.8447 3.70711 17.6571C3.89464 17.4696 4 17.2152 4 16.95V15.95H16V16.95C16 17.2152 16.1054 17.4696 16.2929 17.6571C16.4804 17.8447 16.7348 17.95 17 17.95C17.2652 17.95 17.5196 17.8447 17.7071 17.6571C17.8946 17.4696 18 17.2152 18 16.95V15.77C18.5835 15.5637 19.089 15.182 19.4471 14.6771C19.8051 14.1722 19.9983 13.569 20 12.95V8.95002C19.9973 8.28879 19.7763 7.64696 19.3712 7.12432C18.9661 6.60169 18.3997 6.22753 17.76 6.06002V6.03002ZM5.49 2.63002C5.55709 2.4314 5.6849 2.25889 5.85537 2.13686C6.02584 2.01484 6.23036 1.94948 6.44 1.95002H13.56C13.7781 1.93864 13.9939 1.99895 14.1744 2.12174C14.355 2.24452 14.4904 2.42304 14.56 2.63002L15.61 5.95002H4.39L5.49 2.63002ZM18 12.95C18 13.2152 17.8946 13.4696 17.7071 13.6571C17.5196 13.8447 17.2652 13.95 17 13.95H3C2.73478 13.95 2.48043 13.8447 2.29289 13.6571C2.10536 13.4696 2 13.2152 2 12.95V8.95002C2 8.68481 2.10536 8.43045 2.29289 8.24292C2.48043 8.05538 2.73478 7.95002 3 7.95002H17C17.2652 7.95002 17.5196 8.05538 17.7071 8.24292C17.8946 8.43045 18 8.68481 18 8.95002V12.95ZM14.62 10.03C14.4959 10.0749 14.3832 10.1466 14.2899 10.2399C14.1966 10.3332 14.1249 10.4459 14.08 10.57C14.0073 10.7518 13.9895 10.9508 14.0288 11.1426C14.0681 11.3343 14.1629 11.5103 14.3013 11.6487C14.4397 11.7872 14.6157 11.8819 14.8074 11.9212C14.9992 11.9606 15.1983 11.9428 15.38 11.87C15.5041 11.8251 15.6168 11.7535 15.7101 11.6601C15.8034 11.5668 15.8751 11.4541 15.92 11.33C15.976 11.2113 16.0034 11.0812 16 10.95C15.9963 10.6853 15.8927 10.4317 15.71 10.24C15.5694 10.1013 15.3908 10.0073 15.1968 9.96989C15.0028 9.93252 14.8021 9.95344 14.62 10.03V10.03ZM11 9.95002H9C8.73478 9.95002 8.48043 10.0554 8.29289 10.2429C8.10536 10.4305 8 10.6848 8 10.95C8 11.2152 8.10536 11.4696 8.29289 11.6571C8.48043 11.8447 8.73478 11.95 9 11.95H11C11.2652 11.95 11.5196 11.8447 11.7071 11.6571C11.8946 11.4696 12 11.2152 12 10.95C12 10.6848 11.8946 10.4305 11.7071 10.2429C11.5196 10.0554 11.2652 9.95002 11 9.95002Z" fill="var(--fill-0, #1E1F26)"/>
</svg>
