<svg preserveAspectRatio="none" width="100%" height="100%" overflow="visible" style="display: block;" viewBox="0 0 24 20.5" fill="none" xmlns="http://www.w3.org/2000/svg">
<path id="Vector" d="M24 3C24 2.20435 23.6839 1.44129 23.1213 0.87868C22.5587 0.316071 21.7956 0 21 0H3C2.20435 0 1.44129 0.316071 0.87868 0.87868C0.31607 1.44129 0 2.20435 0 3L0 17.5C0 18.2956 0.31607 19.0587 0.87868 19.6213C1.44129 20.1839 2.20435 20.5 3 20.5H21C21.7956 20.5 22.5587 20.1839 23.1213 19.6213C23.6839 19.0587 24 18.2956 24 17.5V3ZM9.65 2C9.73968 1.85529 9.86483 1.73587 10.0136 1.65306C10.1623 1.57025 10.3298 1.52678 10.5 1.52678C10.6702 1.52678 10.8377 1.57025 10.9864 1.65306C11.1352 1.73587 11.2603 1.85529 11.35 2C11.4476 2.14848 11.4997 2.32229 11.4997 2.5C11.4997 2.67771 11.4476 2.85152 11.35 3C11.2603 3.14471 11.1352 3.26413 10.9864 3.34694C10.8377 3.42975 10.6702 3.47322 10.5 3.47322C10.3298 3.47322 10.1623 3.42975 10.0136 3.34694C9.86483 3.26413 9.73968 3.14471 9.65 3C9.55236 2.85152 9.50033 2.67771 9.50033 2.5C9.50033 2.32229 9.55236 2.14848 9.65 2ZM6.15 2C6.23968 1.85529 6.36483 1.73587 6.51358 1.65306C6.66232 1.57025 6.82975 1.52678 7 1.52678C7.17025 1.52678 7.33768 1.57025 7.48642 1.65306C7.63517 1.73587 7.76032 1.85529 7.85 2C7.94764 2.14848 7.99967 2.32229 7.99967 2.5C7.99967 2.67771 7.94764 2.85152 7.85 3C7.76032 3.14471 7.63517 3.26413 7.48642 3.34694C7.33768 3.42975 7.17025 3.47322 7 3.47322C6.82975 3.47322 6.66232 3.42975 6.51358 3.34694C6.36483 3.26413 6.23968 3.14471 6.15 3C6.05236 2.85152 6.00033 2.67771 6.00033 2.5C6.00033 2.32229 6.05236 2.14848 6.15 2ZM2.59 2.09C2.66725 1.92652 2.78737 1.78704 2.93759 1.68641C3.08781 1.58578 3.2625 1.52776 3.44308 1.51853C3.62365 1.50929 3.80335 1.54919 3.96305 1.63397C4.12276 1.71876 4.25648 1.84525 4.35 2C4.44764 2.14848 4.49967 2.32229 4.49967 2.5C4.49967 2.67771 4.44764 2.85152 4.35 3C4.26032 3.14471 4.13517 3.26413 3.98642 3.34694C3.83768 3.42975 3.67025 3.47322 3.5 3.47322C3.32975 3.47322 3.16232 3.42975 3.01358 3.34694C2.86483 3.26413 2.73968 3.14471 2.65 3C2.55661 2.84955 2.50485 2.67701 2.5 2.5C2.50389 2.35888 2.53443 2.21977 2.59 2.09ZM22 17.5C22 17.7652 21.8946 18.0196 21.7071 18.2071C21.5196 18.3946 21.2652 18.5 21 18.5H3C2.73478 18.5 2.48043 18.3946 2.29289 18.2071C2.10536 18.0196 2 17.7652 2 17.5V5.25C2 5.1837 2.02634 5.12011 2.07322 5.07322C2.12011 5.02634 2.1837 5 2.25 5H21.75C21.8163 5 21.8799 5.02634 21.9268 5.07322C21.9737 5.12011 22 5.1837 22 5.25V17.5Z" fill="var(--fill-0, black)"/>
</svg>
