<svg preserveAspectRatio="none" width="100%" height="100%" overflow="visible" style="display: block;" viewBox="0 0 20.0099 20.0099" fill="none" xmlns="http://www.w3.org/2000/svg">
<path id="Vector" d="M9.29409 15.7141C9.38705 15.8078 9.49766 15.8822 9.61951 15.933C9.74137 15.9838 9.87208 16.0099 10.0041 16.0099C10.1361 16.0099 10.2668 15.9838 10.3887 15.933C10.5105 15.8822 10.6211 15.8078 10.7141 15.7141C10.8024 15.6169 10.8734 15.5053 10.9241 15.3841C10.977 15.2644 11.0043 15.135 11.0043 15.0041C11.0043 14.8732 10.977 14.7438 10.9241 14.6241C10.8734 14.5029 10.8024 14.3913 10.7141 14.2941C10.6211 14.2004 10.5105 14.126 10.3887 14.0752C10.2668 14.0244 10.1361 13.9983 10.0041 13.9983C9.87208 13.9983 9.74137 14.0244 9.61951 14.0752C9.49766 14.126 9.38705 14.2004 9.29409 14.2941C9.20576 14.3913 9.13473 14.5029 9.08409 14.6241C9.03119 14.7438 9.00386 14.8732 9.00386 15.0041C9.00386 15.135 9.03119 15.2644 9.08409 15.3841C9.13473 15.5053 9.20576 15.6169 9.29409 15.7141ZM6.66409 2.00409H14.0041C14.2693 2.00409 14.5237 2.10945 14.7112 2.29699C14.8987 2.48452 15.0041 2.73888 15.0041 3.00409V10.3441C15.0041 10.6093 15.1094 10.8637 15.297 11.0512C15.4845 11.2387 15.7389 11.3441 16.0041 11.3441C16.2693 11.3441 16.5237 11.2387 16.7112 11.0512C16.8987 10.8637 17.0041 10.6093 17.0041 10.3441V3.00409C17.0041 2.20844 16.688 1.44538 16.1254 0.882771C15.5628 0.320162 14.7997 0.00409162 14.0041 0.00409162H6.66409C6.39888 0.00409162 6.14452 0.109448 5.95698 0.296985C5.76945 0.484521 5.66409 0.738875 5.66409 1.00409C5.66409 1.26931 5.76945 1.52366 5.95698 1.7112C6.14452 1.89873 6.39888 2.00409 6.66409 2.00409V2.00409ZM19.7141 18.2941L1.71409 0.294092C1.52579 0.105788 1.27039 -1.9841e-09 1.00409 0C0.73779 1.9841e-09 0.482395 0.105788 0.294092 0.294092C0.105788 0.482395 1.9841e-09 0.73779 0 1.00409C-1.9841e-09 1.27039 0.105788 1.52579 0.294092 1.71409L3.00409 4.41409V17.0041C3.00409 17.7997 3.32016 18.5628 3.88277 19.1254C4.44538 19.688 5.20844 20.0041 6.00409 20.0041H14.0041C14.593 20.0036 15.1687 19.8298 15.6595 19.5044C16.1503 19.179 16.5344 18.7163 16.7641 18.1741L18.2941 19.7141C18.3871 19.8078 18.4977 19.8822 18.6195 19.933C18.7414 19.9838 18.8721 20.0099 19.0041 20.0099C19.1361 20.0099 19.2668 19.9838 19.3887 19.933C19.5105 19.8822 19.6211 19.8078 19.7141 19.7141C19.8078 19.6211 19.8822 19.5105 19.933 19.3887C19.9838 19.2668 20.0099 19.1361 20.0099 19.0041C20.0099 18.8721 19.9838 18.7414 19.933 18.6195C19.8822 18.4977 19.8078 18.3871 19.7141 18.2941V18.2941ZM15.0041 17.0041C15.0041 17.2693 14.8987 17.5237 14.7112 17.7112C14.5237 17.8987 14.2693 18.0041 14.0041 18.0041H6.00409C5.73888 18.0041 5.48452 17.8987 5.29699 17.7112C5.10945 17.5237 5.00409 17.2693 5.00409 17.0041V6.41409L15.0041 16.4141V17.0041Z" fill="var(--fill-0, #1E1F26)"/>
</svg>
