<svg preserveAspectRatio="none" width="100%" height="100%" overflow="visible" style="display: block;" viewBox="0 0 20 19" fill="none" xmlns="http://www.w3.org/2000/svg">
<path id="Vector" d="M12.29 8.29002L9 11.59L7.71 10.29C7.5217 10.1017 7.2663 9.99593 7 9.99593C6.7337 9.99593 6.4783 10.1017 6.29 10.29C6.1017 10.4783 5.99591 10.7337 5.99591 11C5.99591 11.2663 6.1017 11.5217 6.29 11.71L8.29 13.71C8.38296 13.8037 8.49356 13.8781 8.61542 13.9289C8.73728 13.9797 8.86799 14.0058 9 14.0058C9.13201 14.0058 9.26272 13.9797 9.38458 13.9289C9.50644 13.8781 9.61704 13.8037 9.71 13.71L13.71 9.71002C13.8983 9.52172 14.0041 9.26632 14.0041 9.00002C14.0041 8.73372 13.8983 8.47833 13.71 8.29002C13.5217 8.10172 13.2663 7.99593 13 7.99593C12.7337 7.99593 12.4783 8.10172 12.29 8.29002V8.29002ZM17 3.00002H10.72L10.4 2.00002C10.1926 1.41325 9.80775 0.905526 9.2989 0.547183C8.79005 0.188841 8.18236 -0.0023769 7.56 2.23036e-05H3C2.20435 2.23036e-05 1.44129 0.316093 0.87868 0.878702C0.316071 1.44131 0 2.20437 0 3.00002V16C0 16.7957 0.316071 17.5587 0.87868 18.1213C1.44129 18.684 2.20435 19 3 19H17C17.7956 19 18.5587 18.684 19.1213 18.1213C19.6839 17.5587 20 16.7957 20 16V6.00002C20 5.20437 19.6839 4.44131 19.1213 3.8787C18.5587 3.31609 17.7956 3.00002 17 3.00002ZM18 16C18 16.2652 17.8946 16.5196 17.7071 16.7071C17.5196 16.8947 17.2652 17 17 17H3C2.73478 17 2.48043 16.8947 2.29289 16.7071C2.10536 16.5196 2 16.2652 2 16V3.00002C2 2.73481 2.10536 2.48045 2.29289 2.29292C2.48043 2.10538 2.73478 2.00002 3 2.00002H7.56C7.76964 1.99948 7.97416 2.06484 8.14463 2.18686C8.3151 2.30889 8.44291 2.4814 8.51 2.68002L9.05 4.32002C9.11709 4.51864 9.2449 4.69116 9.41537 4.81318C9.58584 4.9352 9.79036 5.00056 10 5.00002H17C17.2652 5.00002 17.5196 5.10538 17.7071 5.29292C17.8946 5.48045 18 5.73481 18 6.00002V16Z" fill="var(--fill-0, #1E1F26)"/>
</svg>
