<svg preserveAspectRatio="none" width="100%" height="100%" overflow="visible" style="display: block;" viewBox="0 0 20 19" fill="none" xmlns="http://www.w3.org/2000/svg">
<path id="Vector" d="M12.71 8.29002C12.617 8.19629 12.5064 8.1219 12.3846 8.07113C12.2627 8.02036 12.132 7.99422 12 7.99422C11.868 7.99422 11.7373 8.02036 11.6154 8.07113C11.4936 8.1219 11.383 8.19629 11.29 8.29002L10 9.59002L8.71 8.29002C8.5217 8.10172 8.2663 7.99593 8 7.99593C7.7337 7.99593 7.4783 8.10172 7.29 8.29002C7.1017 8.47833 6.99591 8.73372 6.99591 9.00002C6.99591 9.26632 7.1017 9.52172 7.29 9.71002L8.59 11L7.29 12.29C7.19627 12.383 7.12188 12.4936 7.07111 12.6154C7.02034 12.7373 6.9942 12.868 6.9942 13C6.9942 13.132 7.02034 13.2627 7.07111 13.3846C7.12188 13.5065 7.19627 13.6171 7.29 13.71C7.38296 13.8037 7.49356 13.8781 7.61542 13.9289C7.73728 13.9797 7.86799 14.0058 8 14.0058C8.13201 14.0058 8.26272 13.9797 8.38458 13.9289C8.50644 13.8781 8.61704 13.8037 8.71 13.71L10 12.41L11.29 13.71C11.383 13.8037 11.4936 13.8781 11.6154 13.9289C11.7373 13.9797 11.868 14.0058 12 14.0058C12.132 14.0058 12.2627 13.9797 12.3846 13.9289C12.5064 13.8781 12.617 13.8037 12.71 13.71C12.8037 13.6171 12.8781 13.5065 12.9289 13.3846C12.9797 13.2627 13.0058 13.132 13.0058 13C13.0058 12.868 12.9797 12.7373 12.9289 12.6154C12.8781 12.4936 12.8037 12.383 12.71 12.29L11.41 11L12.71 9.71002C12.8037 9.61706 12.8781 9.50646 12.9289 9.3846C12.9797 9.26274 13.0058 9.13203 13.0058 9.00002C13.0058 8.86801 12.9797 8.7373 12.9289 8.61545C12.8781 8.49359 12.8037 8.38298 12.71 8.29002V8.29002ZM17 3.00002H10.72L10.4 2.00002C10.1926 1.41325 9.80775 0.905526 9.2989 0.547183C8.79005 0.188841 8.18236 -0.0023769 7.56 2.23036e-05H3C2.20435 2.23036e-05 1.44129 0.316093 0.87868 0.878702C0.316071 1.44131 0 2.20437 0 3.00002V16C0 16.7957 0.316071 17.5587 0.87868 18.1213C1.44129 18.684 2.20435 19 3 19H17C17.7956 19 18.5587 18.684 19.1213 18.1213C19.6839 17.5587 20 16.7957 20 16V6.00002C20 5.20437 19.6839 4.44131 19.1213 3.8787C18.5587 3.31609 17.7956 3.00002 17 3.00002ZM18 16C18 16.2652 17.8946 16.5196 17.7071 16.7071C17.5196 16.8947 17.2652 17 17 17H3C2.73478 17 2.48043 16.8947 2.29289 16.7071C2.10536 16.5196 2 16.2652 2 16V3.00002C2 2.73481 2.10536 2.48045 2.29289 2.29292C2.48043 2.10538 2.73478 2.00002 3 2.00002H7.56C7.76964 1.99948 7.97416 2.06484 8.14463 2.18686C8.3151 2.30889 8.44291 2.4814 8.51 2.68002L9.05 4.32002C9.11709 4.51864 9.2449 4.69116 9.41537 4.81318C9.58584 4.9352 9.79036 5.00056 10 5.00002H17C17.2652 5.00002 17.5196 5.10538 17.7071 5.29292C17.8946 5.48045 18 5.73481 18 6.00002V16Z" fill="var(--fill-0, #1E1F26)"/>
</svg>
