<svg preserveAspectRatio="none" width="100%" height="100%" overflow="visible" style="display: block;" viewBox="0 0 16 20" fill="none" xmlns="http://www.w3.org/2000/svg">
<path id="Vector" d="M4 15C3.80222 15 3.60888 15.0586 3.44443 15.1685C3.27998 15.2784 3.15181 15.4346 3.07612 15.6173C3.00043 15.8 2.98063 16.0011 3.01921 16.1951C3.0578 16.3891 3.15304 16.5673 3.29289 16.7071C3.43275 16.847 3.61093 16.9422 3.80491 16.9808C3.99889 17.0194 4.19996 16.9996 4.38268 16.9239C4.56541 16.8482 4.72159 16.72 4.83147 16.5556C4.94135 16.3911 5 16.1978 5 16C5 15.7348 4.89464 15.4804 4.70711 15.2929C4.51957 15.1054 4.26522 15 4 15V15ZM4 9C3.80222 9 3.60888 9.05865 3.44443 9.16853C3.27998 9.27841 3.15181 9.43459 3.07612 9.61732C3.00043 9.80004 2.98063 10.0011 3.01921 10.1951C3.0578 10.3891 3.15304 10.5673 3.29289 10.7071C3.43275 10.847 3.61093 10.9422 3.80491 10.9808C3.99889 11.0194 4.19996 10.9996 4.38268 10.9239C4.56541 10.8482 4.72159 10.72 4.83147 10.5556C4.94135 10.3911 5 10.1978 5 10C5 9.73478 4.89464 9.48043 4.70711 9.29289C4.51957 9.10536 4.26522 9 4 9V9ZM12 0H4C2.93913 0 1.92172 0.421427 1.17157 1.17157C0.421427 1.92172 0 2.93913 0 4V16C0 17.0609 0.421427 18.0783 1.17157 18.8284C1.92172 19.5786 2.93913 20 4 20H12C13.0609 20 14.0783 19.5786 14.8284 18.8284C15.5786 18.0783 16 17.0609 16 16V4C16 2.93913 15.5786 1.92172 14.8284 1.17157C14.0783 0.421427 13.0609 0 12 0ZM14 16C14 16.5304 13.7893 17.0391 13.4142 17.4142C13.0391 17.7893 12.5304 18 12 18H4C3.46957 18 2.96086 17.7893 2.58579 17.4142C2.21071 17.0391 2 16.5304 2 16V13.44C2.60399 13.8036 3.29504 13.997 4 14H12C12.705 13.997 13.396 13.8036 14 13.44V16ZM14 10C14 10.5304 13.7893 11.0391 13.4142 11.4142C13.0391 11.7893 12.5304 12 12 12H4C3.46957 12 2.96086 11.7893 2.58579 11.4142C2.21071 11.0391 2 10.5304 2 10V7.44C2.60399 7.80355 3.29504 7.99704 4 8H12C12.705 7.99704 13.396 7.80355 14 7.44V10ZM12 6H4C3.46957 6 2.96086 5.78929 2.58579 5.41421C2.21071 5.03914 2 4.53043 2 4C2 3.46957 2.21071 2.96086 2.58579 2.58579C2.96086 2.21071 3.46957 2 4 2H12C12.5304 2 13.0391 2.21071 13.4142 2.58579C13.7893 2.96086 14 3.46957 14 4C14 4.53043 13.7893 5.03914 13.4142 5.41421C13.0391 5.78929 12.5304 6 12 6V6Z" fill="var(--fill-0, #1E1F26)"/>
</svg>
