<svg preserveAspectRatio="none" width="100%" height="100%" overflow="visible" style="display: block;" viewBox="0 0 16 19.9937" fill="none" xmlns="http://www.w3.org/2000/svg">
<path id="Vector" d="M8.92001 12.9984C8.90004 12.9369 8.86959 12.8794 8.83001 12.8284L8.71001 12.6784C8.61704 12.5846 8.50644 12.5102 8.38458 12.4595C8.26272 12.4087 8.13202 12.3826 8.00001 12.3826C7.86799 12.3826 7.73729 12.4087 7.61543 12.4595C7.49357 12.5102 7.38297 12.5846 7.29001 12.6784C7.24233 12.7217 7.20183 12.7723 7.17001 12.8284C7.13043 12.8794 7.09998 12.9369 7.08001 12.9984C7.05105 13.0585 7.03084 13.1225 7.02001 13.1884C7.01511 13.2516 7.01511 13.3151 7.02001 13.3784C7.01653 13.5128 7.0439 13.6462 7.10001 13.7684C7.20177 14.0115 7.39544 14.2047 7.6389 14.3058C7.88235 14.407 8.15589 14.4079 8.40001 14.3084C8.52154 14.254 8.63309 14.1796 8.73001 14.0884C8.81996 13.9962 8.89126 13.8875 8.94001 13.7684C8.99254 13.645 9.01975 13.5124 9.02001 13.3784C9.02491 13.3151 9.02491 13.2516 9.02001 13.1884C8.99664 13.1203 8.96291 13.0562 8.92001 12.9984ZM8.00001 5.35836C7.73479 5.35836 7.48044 5.46371 7.2929 5.65125C7.10536 5.83878 7.00001 6.09314 7.00001 6.35836V9.35835C7.00001 9.62357 7.10536 9.87793 7.2929 10.0655C7.48044 10.253 7.73479 10.3584 8.00001 10.3584C8.26522 10.3584 8.51958 10.253 8.70711 10.0655C8.89465 9.87793 9.00001 9.62357 9.00001 9.35835V6.35836C9.00001 6.09314 8.89465 5.83878 8.70711 5.65125C8.51958 5.46371 8.26522 5.35836 8.00001 5.35836V5.35836ZM15.63 1.64836C15.5138 1.55438 15.3781 1.48763 15.2327 1.45302C15.0873 1.41841 14.9361 1.41681 14.79 1.44836C13.7214 1.6723 12.6183 1.67515 11.5486 1.45674C10.4789 1.23833 9.46525 0.80327 8.57001 0.178355C8.40261 0.062228 8.20374 0 8.00001 0C7.79627 0 7.5974 0.062228 7.43001 0.178355C6.53476 0.80327 5.52108 1.23833 4.45137 1.45674C3.38166 1.67515 2.27857 1.6723 1.21001 1.44836C1.06394 1.41681 0.912671 1.41841 0.767306 1.45302C0.621942 1.48763 0.486181 1.55438 0.370006 1.64836C0.253985 1.74247 0.160527 1.86139 0.0964981 1.99637C0.0324695 2.13135 -0.00050219 2.27896 5.78149e-06 2.42836V9.87836C-0.000883255 11.3121 0.340779 12.7253 0.996541 14.0003C1.6523 15.2753 2.60319 16.3752 3.77001 17.2084L7.42001 19.8084C7.58937 19.9289 7.7921 19.9937 8.00001 19.9937C8.20791 19.9937 8.41064 19.9289 8.58001 19.8084L12.23 17.2084C13.3968 16.3752 14.3477 15.2753 15.0035 14.0003C15.6592 12.7253 16.0009 11.3121 16 9.87836V2.42836C16.0005 2.27896 15.9675 2.13135 15.9035 1.99637C15.8395 1.86139 15.746 1.74247 15.63 1.64836V1.64836ZM14 9.87836C14.0008 10.9931 13.7353 12.0919 13.2257 13.0834C12.716 14.0748 11.977 14.9302 11.07 15.5784L8.00001 17.7684L4.93001 15.5784C4.02304 14.9302 3.28399 14.0748 2.77435 13.0834C2.26472 12.0919 1.99924 10.9931 2.00001 9.87836V3.57836C4.09643 3.75779 6.19605 3.27138 8.00001 2.18836C9.80397 3.27138 11.9036 3.75779 14 3.57836V9.87836Z" fill="var(--fill-0, #1E1F26)"/>
</svg>
