<svg preserveAspectRatio="none" width="100%" height="100%" overflow="visible" style="display: block;" viewBox="0 0 15.415 20.0008" fill="none" xmlns="http://www.w3.org/2000/svg">
<path id="Vector" d="M14.375 0.000800377C14.1098 0.000800377 13.8554 0.106157 13.6679 0.293694C13.4804 0.48123 13.375 0.735584 13.375 1.0008V11.3708C13.375 11.9012 13.1643 12.4099 12.7892 12.785C12.4142 13.1601 11.9054 13.3708 11.375 13.3708H3.37501L6.29501 10.4508C6.46583 10.2644 6.55973 10.0203 6.55782 9.76753C6.55591 9.51475 6.45834 9.27206 6.28473 9.08831C6.11111 8.90456 5.87435 8.79339 5.62208 8.77715C5.36981 8.76091 5.12075 8.84082 4.92501 9.0008L0.295014 13.6608C0.203737 13.7577 0.129371 13.8693 0.0750135 13.9908C-0.0250045 14.2343 -0.0250045 14.5073 0.0750135 14.7508C0.125579 14.8744 0.200384 14.9866 0.295014 15.0808L4.92501 19.7108C5.11127 19.8955 5.36267 19.9997 5.62501 20.0008C5.75662 20.0016 5.88708 19.9763 6.00892 19.9266C6.13076 19.8768 6.24157 19.8035 6.33501 19.7108C6.42874 19.6178 6.50314 19.5072 6.55391 19.3854C6.60467 19.2635 6.63081 19.1328 6.63081 19.0008C6.63081 18.8688 6.60467 18.7381 6.55391 18.6162C6.50314 18.4944 6.42874 18.3838 6.33501 18.2908L3.41501 15.3708H11.415C12.4759 15.3708 13.4933 14.9494 14.2434 14.1992C14.9936 13.4491 15.415 12.4317 15.415 11.3708V1.0008C15.4151 0.866044 15.388 0.732655 15.3353 0.608647C15.2825 0.484638 15.2053 0.372568 15.1081 0.279167C15.011 0.185766 14.896 0.112961 14.77 0.0651255C14.644 0.0172898 14.5097 -0.00458993 14.375 0.000800377Z" fill="var(--fill-0, #1E1F26)"/>
</svg>
