<svg preserveAspectRatio="none" width="100%" height="100%" overflow="visible" style="display: block;" viewBox="0 0 20 20" fill="none" xmlns="http://www.w3.org/2000/svg">
<path id="Vector" d="M6.5 12.1L2 16.6V15C2 14.4 1.6 14 1 14C0.4 14 0 14.4 0 15V19C0 19.1 -9.68575e-08 19.3 0.0999999 19.4C0.2 19.6 0.4 19.8 0.6 19.9C0.7 20 0.9 20 1 20H5C5.6 20 6 19.6 6 19C6 18.4 5.6 18 5 18H3.4L7.9 13.5C8.3 13.1 8.3 12.5 7.9 12.1C7.5 11.7 6.9 11.7 6.5 12.1ZM19.7 0.3C19.5 0.0999999 19.2 0 19 0H15C14.4 0 14 0.4 14 1C14 1.6 14.4 2 15 2H16.6L12.1 6.5C11.7 6.9 11.7 7.5 12.1 7.9C12.3 8.1 12.5 8.2 12.8 8.2C13.1 8.2 13.3 8.1 13.5 7.9L18 3.4V5C18 5.6 18.4 6 19 6C19.6 6 20 5.6 20 5V1C20 0.8 19.9 0.5 19.7 0.3ZM13.5 12.1L7.9 6.5C7.5 6.1 6.9 6.1 6.5 6.5C6.1 6.9 6.1 7.5 6.5 7.9L12.2 13.6C12.4 13.8 12.6 13.9 12.9 13.9C13.2 13.9 13.4 13.8 13.6 13.6C13.9 13.2 13.9 12.5 13.5 12.1Z" fill="var(--fill-0, #1E1F26)"/>
</svg>
