<svg preserveAspectRatio="none" width="100%" height="100%" overflow="visible" style="display: block;" viewBox="0 0 20.2275 19.9962" fill="none" xmlns="http://www.w3.org/2000/svg">
<path id="Vector" d="M7 14.9962C6.80222 14.9962 6.60888 15.0549 6.44443 15.1648C6.27998 15.2746 6.15181 15.4308 6.07612 15.6135C6.00043 15.7963 5.98063 15.9973 6.01921 16.1913C6.0578 16.3853 6.15304 16.5635 6.29289 16.7033C6.43275 16.8432 6.61093 16.9384 6.80491 16.977C6.99889 17.0156 7.19996 16.9958 7.38268 16.9201C7.56541 16.8444 7.72159 16.7163 7.83147 16.5518C7.94135 16.3874 8 16.194 8 15.9962C8 15.731 7.89464 15.4767 7.70711 15.2891C7.51957 15.1016 7.26522 14.9962 7 14.9962ZM4 14.9962C3.80222 14.9962 3.60888 15.0549 3.44443 15.1648C3.27998 15.2746 3.15181 15.4308 3.07612 15.6135C3.00043 15.7963 2.98063 15.9973 3.01921 16.1913C3.0578 16.3853 3.15304 16.5635 3.29289 16.7033C3.43275 16.8432 3.61093 16.9384 3.80491 16.977C3.99889 17.0156 4.19996 16.9958 4.38268 16.9201C4.56541 16.8444 4.72159 16.7163 4.83147 16.5518C4.94135 16.3874 5 16.194 5 15.9962C5 15.731 4.89464 15.4767 4.70711 15.2891C4.51957 15.1016 4.26522 14.9962 4 14.9962ZM10 14.9962C9.80222 14.9962 9.60888 15.0549 9.44443 15.1648C9.27998 15.2746 9.15181 15.4308 9.07612 15.6135C9.00043 15.7963 8.98063 15.9973 9.01921 16.1913C9.0578 16.3853 9.15304 16.5635 9.29289 16.7033C9.43275 16.8432 9.61093 16.9384 9.80491 16.977C9.99889 17.0156 10.2 16.9958 10.3827 16.9201C10.5654 16.8444 10.7216 16.7163 10.8315 16.5518C10.9414 16.3874 11 16.194 11 15.9962C11 15.731 10.8946 15.4767 10.7071 15.2891C10.5196 15.1016 10.2652 14.9962 10 14.9962ZM13.1 6.49623C13.1879 6.34469 13.3141 6.2189 13.4659 6.13147C13.6177 6.04403 13.7898 5.998 13.965 5.998C14.1402 5.998 14.3123 6.04403 14.4641 6.13147C14.6159 6.2189 14.7421 6.34469 14.83 6.49623C14.9619 6.72496 15.179 6.89224 15.4337 6.96155C15.6885 7.03087 15.9604 6.9966 16.19 6.86623C16.308 6.80432 16.4123 6.71946 16.4971 6.61664C16.5818 6.51383 16.6451 6.39512 16.6833 6.2675C16.7215 6.13988 16.7338 6.00591 16.7195 5.87346C16.7052 5.74102 16.6646 5.61276 16.6 5.49623C16.337 5.03927 15.9581 4.65971 15.5017 4.39578C15.0452 4.13186 14.5273 3.99289 14 3.99289C13.4727 3.99289 12.9548 4.13186 12.4983 4.39578C12.0419 4.65971 11.663 5.03927 11.4 5.49623C11.3156 5.71711 11.3121 5.96076 11.3903 6.18393C11.4685 6.4071 11.6232 6.59534 11.8271 6.71523C12.0309 6.83512 12.2706 6.87891 12.5036 6.83882C12.7367 6.79872 12.948 6.67734 13.1 6.49623ZM20.1 3.49623C19.4853 2.43312 18.6018 1.55041 17.5381 0.936734C16.4744 0.323056 15.268 0 14.04 0C12.812 0 11.6056 0.323056 10.5419 0.936734C9.4782 1.55041 8.59467 2.43312 7.98 3.49623C7.91388 3.61036 7.871 3.73645 7.85381 3.86723C7.83663 3.99801 7.84549 4.13089 7.87988 4.25823C7.91427 4.38557 7.97351 4.50485 8.0542 4.6092C8.13488 4.71355 8.23541 4.8009 8.35 4.86623C8.48759 4.94458 8.64182 4.98913 8.8 4.99623C8.97621 4.99693 9.14948 4.95106 9.30225 4.86325C9.45503 4.77545 9.5819 4.64883 9.67 4.49623C10.1089 3.73619 10.74 3.10506 11.5001 2.66626C12.2602 2.22746 13.1224 1.99645 14 1.99645C14.8776 1.99645 15.7398 2.22746 16.4999 2.66626C17.26 3.10506 17.8911 3.73619 18.33 4.49623C18.3953 4.61082 18.4827 4.71135 18.587 4.79203C18.6914 4.87272 18.8107 4.93196 18.938 4.96635C19.0653 5.00074 19.1982 5.0096 19.329 4.99242C19.4598 4.97524 19.5859 4.93235 19.7 4.86623C19.8171 4.80345 19.9205 4.71796 20.0042 4.61476C20.0879 4.51155 20.1502 4.39271 20.1874 4.26516C20.2247 4.13761 20.2361 4.00392 20.2211 3.87189C20.2061 3.73987 20.1649 3.61216 20.1 3.49623V3.49623ZM16 11.9962H15V8.99623C15 8.73101 14.8946 8.47666 14.7071 8.28912C14.5196 8.10159 14.2652 7.99623 14 7.99623C13.7348 7.99623 13.4804 8.10159 13.2929 8.28912C13.1054 8.47666 13 8.73101 13 8.99623V11.9962H3C2.20435 11.9962 1.44129 12.3123 0.87868 12.8749C0.31607 13.4375 0 14.2006 0 14.9962V16.9962C0 17.7919 0.31607 18.5549 0.87868 19.1176C1.44129 19.6802 2.20435 19.9962 3 19.9962H16C16.7956 19.9962 17.5587 19.6802 18.1213 19.1176C18.6839 18.5549 19 17.7919 19 16.9962V14.9962C19 14.2006 18.6839 13.4375 18.1213 12.8749C17.5587 12.3123 16.7956 11.9962 16 11.9962ZM17 16.9962C17 17.2614 16.8946 17.5158 16.7071 17.7033C16.5196 17.8909 16.2652 17.9962 16 17.9962H3C2.73478 17.9962 2.48043 17.8909 2.29289 17.7033C2.10536 17.5158 2 17.2614 2 16.9962V14.9962C2 14.731 2.10536 14.4767 2.29289 14.2891C2.48043 14.1016 2.73478 13.9962 3 13.9962H16C16.2652 13.9962 16.5196 14.1016 16.7071 14.2891C16.8946 14.4767 17 14.731 17 14.9962V16.9962Z" fill="var(--fill-0, #1E1F26)"/>
</svg>
