<svg preserveAspectRatio="none" width="100%" height="100%" overflow="visible" style="display: block;" viewBox="0 0 20.0076 20.0076" fill="none" xmlns="http://www.w3.org/2000/svg">
<path id="Vector" d="M19.0035 2.41409L19.7135 1.71409C19.9018 1.52579 20.0076 1.27039 20.0076 1.00409C20.0076 0.73779 19.9018 0.482395 19.7135 0.294092C19.5252 0.105788 19.2698 0 19.0035 0C18.7372 0 18.4818 0.105788 18.2935 0.294092L16.8935 1.70409L14.0635 4.53409L7.75351 10.8341C6.71955 10.1519 5.46918 9.87786 4.24468 10.065C3.02018 10.2521 1.90873 10.8871 1.1257 11.8469C0.342668 12.8068 -0.0561973 14.0231 0.0063911 15.2602C0.0689795 16.4974 0.588566 17.6672 1.46447 18.5431C2.34038 19.419 3.51024 19.9386 4.74737 20.0012C5.98451 20.0638 7.20083 19.6649 8.16066 18.8819C9.1205 18.0989 9.7555 16.9874 9.94262 15.7629C10.1298 14.5384 9.85568 13.2881 9.17351 12.2541L14.7635 6.65409L16.8835 8.78409C16.9768 8.87667 17.0873 8.94998 17.2089 8.99984C17.3305 9.04969 17.4607 9.07511 17.5921 9.07465C17.7234 9.07418 17.8535 9.04784 17.9747 8.99713C18.0959 8.94642 18.2059 8.87233 18.2985 8.77909C18.3911 8.68585 18.4644 8.57529 18.5143 8.45372C18.5641 8.33215 18.5895 8.20195 18.5891 8.07056C18.5886 7.93916 18.5623 7.80914 18.5116 7.68793C18.4608 7.56671 18.3868 7.45667 18.2935 7.36409L16.1735 5.24409L17.5935 3.83409L18.2935 4.53409C18.3861 4.62733 18.4961 4.70142 18.6174 4.75213C18.7386 4.80284 18.8686 4.82918 19 4.82965C19.1314 4.83011 19.2616 4.80469 19.3831 4.75484C19.5047 4.70498 19.6153 4.63167 19.7085 4.53909C19.8018 4.44651 19.8758 4.33647 19.9266 4.21525C19.9773 4.09404 20.0036 3.96402 20.0041 3.83263C20.0045 3.70123 19.9791 3.57103 19.9293 3.44946C19.8794 3.32789 19.8061 3.21733 19.7135 3.12409L19.0035 2.41409ZM5.00351 18.0041C4.41017 18.0041 3.83015 17.8281 3.3368 17.4985C2.84346 17.1689 2.45894 16.7003 2.23188 16.1521C2.00481 15.604 1.9454 15.0008 2.06116 14.4188C2.17691 13.8369 2.46264 13.3023 2.88219 12.8828C3.30175 12.4632 3.8363 12.1775 4.41824 12.0617C5.00019 11.946 5.60339 12.0054 6.15156 12.2325C6.69974 12.4595 7.16828 12.844 7.49792 13.3374C7.82757 13.8307 8.00351 14.4107 8.00351 15.0041C8.00351 15.7997 7.68744 16.5628 7.12484 17.1254C6.56223 17.688 5.79916 18.0041 5.00351 18.0041Z" fill="var(--fill-0, #1E1F26)"/>
</svg>
