<svg preserveAspectRatio="none" width="100%" height="100%" overflow="visible" style="display: block;" viewBox="0 0 20 15" fill="none" xmlns="http://www.w3.org/2000/svg">
<path id="Vector" d="M17 0H3C2.20435 0 1.44129 0.316071 0.87868 0.87868C0.316071 1.44129 0 2.20435 0 3V12C0 12.7956 0.316071 13.5587 0.87868 14.1213C1.44129 14.6839 2.20435 15 3 15H17C17.7956 15 18.5587 14.6839 19.1213 14.1213C19.6839 13.5587 20 12.7956 20 12V3C20 2.20435 19.6839 1.44129 19.1213 0.87868C18.5587 0.316071 17.7956 0 17 0ZM18 12C18 12.2652 17.8946 12.5196 17.7071 12.7071C17.5196 12.8946 17.2652 13 17 13H3C2.73478 13 2.48043 12.8946 2.29289 12.7071C2.10536 12.5196 2 12.2652 2 12V3C2 2.73478 2.10536 2.48043 2.29289 2.29289C2.48043 2.10536 2.73478 2 3 2H17C17.2652 2 17.5196 2.10536 17.7071 2.29289C17.8946 2.48043 18 2.73478 18 3V12ZM14 6C13.4683 6.00372 12.9472 6.14867 12.49 6.42C12.0345 6.14973 11.5156 6.00486 10.986 6.00012C10.4563 5.99538 9.9349 6.13094 9.47464 6.39302C9.01438 6.65511 8.63171 7.03437 8.36553 7.49226C8.09934 7.95015 7.95912 8.47036 7.95912 9C7.95912 9.52964 8.09934 10.0498 8.36553 10.5077C8.63171 10.9656 9.01438 11.3449 9.47464 11.607C9.9349 11.8691 10.4563 12.0046 10.986 11.9999C11.5156 11.9951 12.0345 11.8503 12.49 11.58C12.8878 11.816 13.3348 11.9568 13.796 11.9915C14.2573 12.0261 14.7203 11.9537 15.1489 11.7797C15.5775 11.6058 15.96 11.3351 16.2667 10.9888C16.5734 10.6426 16.7958 10.2301 16.9166 9.78357C17.0374 9.33709 17.0534 8.86871 16.9632 8.41504C16.873 7.96137 16.6792 7.5347 16.3968 7.16836C16.1144 6.80203 15.7511 6.50595 15.3353 6.30327C14.9195 6.10059 14.4625 5.9968 14 6V6ZM11.17 10C11.1134 10.0048 11.0566 10.0048 11 10C10.7348 10 10.4804 9.89464 10.2929 9.70711C10.1054 9.51957 10 9.26522 10 9C10 8.73478 10.1054 8.48043 10.2929 8.29289C10.4804 8.10536 10.7348 8 11 8C11.0566 7.99517 11.1134 7.99517 11.17 8C10.9437 8.62 10.9437 9.3 11.17 9.92V10ZM14 10C13.8022 10 13.6089 9.94135 13.4444 9.83147C13.28 9.72159 13.1518 9.56541 13.0761 9.38268C13.0004 9.19996 12.9806 8.99889 13.0192 8.80491C13.0578 8.61093 13.153 8.43275 13.2929 8.29289C13.4327 8.15304 13.6109 8.0578 13.8049 8.01921C13.9989 7.98063 14.2 8.00043 14.3827 8.07612C14.5654 8.15181 14.7216 8.27998 14.8315 8.44443C14.9414 8.60888 15 8.80222 15 9C15 9.26522 14.8946 9.51957 14.7071 9.70711C14.5196 9.89464 14.2652 10 14 10Z" fill="var(--fill-0, #1E1F26)"/>
</svg>
