<svg preserveAspectRatio="none" width="100%" height="100%" overflow="visible" style="display: block;" viewBox="0 0 20.0074 20.0853" fill="none" xmlns="http://www.w3.org/2000/svg">
<path id="Vector" d="M13.5366 12.1995C13.4437 12.1058 13.3331 12.0314 13.2112 11.9807C13.0894 11.9299 12.9586 11.9037 12.8266 11.9037C12.6946 11.9037 12.5639 11.9299 12.4421 11.9807C12.3202 12.0314 12.2096 12.1058 12.1166 12.1995C11.9304 12.3869 11.8258 12.6404 11.8258 12.9045C11.8258 13.1687 11.9304 13.4222 12.1166 13.6095L18.2966 19.7895C18.3896 19.8833 18.5002 19.9577 18.6221 20.0084C18.7439 20.0592 18.8746 20.0853 19.0066 20.0853C19.1386 20.0853 19.2694 20.0592 19.3912 20.0084C19.5131 19.9577 19.6237 19.8833 19.7166 19.7895C19.9029 19.6022 20.0074 19.3487 20.0074 19.0845C20.0074 18.8204 19.9029 18.5669 19.7166 18.3795L13.5366 12.1995ZM14.7666 9.70954C15.562 9.70884 16.3246 9.39231 16.8866 8.82954L19.7166 5.99954C19.9029 5.81218 20.0074 5.55873 20.0074 5.29454C20.0074 5.03036 19.9029 4.77691 19.7166 4.58954C19.6237 4.49582 19.5131 4.42142 19.3912 4.37065C19.2694 4.31988 19.1386 4.29375 19.0066 4.29375C18.8746 4.29375 18.7439 4.31988 18.6221 4.37065C18.5002 4.42142 18.3896 4.49582 18.2966 4.58954L15.4666 7.41954C15.2793 7.6058 15.0258 7.71034 14.7616 7.71034C14.4974 7.71034 14.244 7.6058 14.0566 7.41954L17.5966 3.87954C17.7829 3.69218 17.8874 3.43873 17.8874 3.17454C17.8874 2.91036 17.7829 2.65691 17.5966 2.46954C17.5037 2.37582 17.3931 2.30142 17.2712 2.25065C17.1494 2.19988 17.0186 2.17375 16.8866 2.17375C16.7546 2.17375 16.6239 2.19988 16.5021 2.25065C16.3802 2.30142 16.2696 2.37582 16.1766 2.46954L12.6466 5.99954C12.4604 5.81218 12.3558 5.55873 12.3558 5.29454C12.3558 5.03036 12.4604 4.77691 12.6466 4.58954L15.4666 1.75954C15.5713 1.6699 15.6563 1.55958 15.7164 1.43551C15.7764 1.31145 15.8101 1.17632 15.8154 1.0386C15.8208 0.900878 15.7975 0.763546 15.7473 0.635221C15.697 0.506896 15.6207 0.390348 15.5233 0.292893C15.4258 0.195438 15.3093 0.119181 15.181 0.0689061C15.0526 0.0186315 14.9153 -0.00457431 14.7776 0.000745182C14.6399 0.00606468 14.5047 0.0397947 14.3807 0.099818C14.2566 0.159841 14.1463 0.244862 14.0566 0.349544L11.2266 3.17954C10.6648 3.74205 10.3493 4.50454 10.3493 5.29954C10.3493 6.09455 10.6648 6.85704 11.2266 7.41954V7.41954L10.0066 8.65954L8.44663 7.11954C8.88938 6.3205 9.05681 5.39794 8.92307 4.49427C8.78933 3.59061 8.36185 2.75609 7.70663 2.11954C6.26663 0.679544 2.53663 -0.930456 0.776635 0.859544C-0.983365 2.64954 0.606635 6.33954 2.00663 7.78954C2.78846 8.57417 3.83962 9.03182 4.94663 9.06954H5.08663C5.76276 9.05992 6.42462 8.87377 7.00663 8.52954L8.57663 10.0695L0.296635 18.3495C0.204053 18.4428 0.130742 18.5533 0.0808885 18.6749C0.0310348 18.7965 0.00561433 18.9267 0.00607862 19.0581C0.00654291 19.1895 0.0328827 19.3195 0.0835943 19.4407C0.134306 19.5619 0.208396 19.672 0.301635 19.7645C0.394873 19.8571 0.505434 19.9304 0.627005 19.9803C0.748576 20.0301 0.878775 20.0556 1.01017 20.0551C1.14157 20.0546 1.27158 20.0283 1.3928 19.9776C1.51401 19.9269 1.62405 19.8528 1.71663 19.7595L10.7166 10.7595L12.6366 8.83954C12.917 9.11759 13.2494 9.33756 13.6149 9.48686C13.9804 9.63615 14.3718 9.71183 14.7666 9.70954V9.70954ZM6.43664 6.50954C6.24929 6.69578 6.02571 6.84158 5.77973 6.9379C5.53376 7.03423 5.27063 7.07903 5.00663 7.06954C4.42204 7.04437 3.86999 6.79344 3.46663 6.36954C2.38663 5.28954 1.62663 2.83954 2.19663 2.26954C2.38596 2.12673 2.61988 2.05584 2.85663 2.06954C4.13293 2.17127 5.34097 2.6875 6.29663 3.53954C6.70491 3.91726 6.94839 4.4403 6.97458 4.99589C7.00077 5.55147 6.80757 6.09509 6.43664 6.50954V6.50954Z" fill="var(--fill-0, #1E1F26)"/>
</svg>
