<svg preserveAspectRatio="none" width="100%" height="100%" overflow="visible" style="display: block;" viewBox="0 0 16 20" fill="none" xmlns="http://www.w3.org/2000/svg">
<path id="Vector" d="M15 4H12V1C12 0.734784 11.8946 0.48043 11.7071 0.292893C11.5196 0.105357 11.2652 0 11 0C10.7348 0 10.4804 0.105357 10.2929 0.292893C10.1054 0.48043 10 0.734784 10 1V4H6V1C6 0.734784 5.89464 0.48043 5.70711 0.292893C5.51957 0.105357 5.26522 0 5 0C4.73478 0 4.48043 0.105357 4.29289 0.292893C4.10536 0.48043 4 0.734784 4 1V4H1C0.734784 4 0.48043 4.10536 0.292893 4.29289C0.105357 4.48043 0 4.73478 0 5C0 5.26522 0.105357 5.51957 0.292893 5.70711C0.48043 5.89464 0.734784 6 1 6H2V11C1.99924 11.1316 2.02446 11.2621 2.07423 11.3839C2.12399 11.5057 2.19732 11.6166 2.29 11.71L5 14.41V19C5 19.2652 5.10536 19.5196 5.29289 19.7071C5.48043 19.8946 5.73478 20 6 20C6.26522 20 6.51957 19.8946 6.70711 19.7071C6.89464 19.5196 7 19.2652 7 19V15H9V19C9 19.2652 9.10536 19.5196 9.29289 19.7071C9.48043 19.8946 9.73478 20 10 20C10.2652 20 10.5196 19.8946 10.7071 19.7071C10.8946 19.5196 11 19.2652 11 19V14.41L13.71 11.71C13.8027 11.6166 13.876 11.5057 13.9258 11.3839C13.9755 11.2621 14.0008 11.1316 14 11V6H15C15.2652 6 15.5196 5.89464 15.7071 5.70711C15.8946 5.51957 16 5.26522 16 5C16 4.73478 15.8946 4.48043 15.7071 4.29289C15.5196 4.10536 15.2652 4 15 4ZM12 10.59L9.59 13H6.41L4 10.59V6H12V10.59ZM7 11H9C9.26522 11 9.51957 10.8946 9.70711 10.7071C9.89464 10.5196 10 10.2652 10 10C10 9.73478 9.89464 9.48043 9.70711 9.29289C9.51957 9.10536 9.26522 9 9 9H7C6.73478 9 6.48043 9.10536 6.29289 9.29289C6.10536 9.48043 6 9.73478 6 10C6 10.2652 6.10536 10.5196 6.29289 10.7071C6.48043 10.8946 6.73478 11 7 11V11Z" fill="var(--fill-0, #1E1F26)"/>
</svg>
