<svg preserveAspectRatio="none" width="100%" height="100%" overflow="visible" style="display: block;" viewBox="0 0 17.6107 20" fill="none" xmlns="http://www.w3.org/2000/svg">
<path id="Vector" d="M0 0L1.60267 17.9943L8.7948 20L16.0067 17.9869L17.6107 0H0ZM14.2813 4.12274L13.7476 10.1174L13.7495 10.1498L13.747 10.2239V10.2232L13.3678 14.4146L13.326 14.7869L8.80533 16.0372V16.0378L8.80167 16.041L4.289 14.7831L3.98326 11.3179H6.19626L6.35318 13.0802L8.80594 13.7446L8.80533 13.7457L11.2667 13.0714L11.527 10.2021H6.38122L6.33706 9.717L6.23613 8.5806L6.18389 7.97038H11.7227L11.9243 5.73868H3.48765L3.44333 5.2542L3.34307 4.1172L3.29015 3.507H14.3342L14.2813 4.12274Z" fill="var(--fill-0, #1E1F26)"/>
</svg>
