<svg preserveAspectRatio="none" width="100%" height="100%" overflow="visible" style="display: block;" viewBox="0 0 20.004 20.0013" fill="none" xmlns="http://www.w3.org/2000/svg">
<path id="Vector" d="M19.004 0H17.004H16.914H16.704L16.544 0.0699999L16.374 0.18C16.3258 0.218194 16.2822 0.261815 16.244 0.31C16.2049 0.359504 16.1713 0.41316 16.144 0.47C16.1091 0.525992 16.0821 0.586574 16.064 0.65V0.74L15.384 4H14.244L11.124 0.89C10.554 0.342433 9.79433 0.0366263 9.00397 0.0366263C8.21362 0.0366263 7.45392 0.342433 6.88397 0.89L3.76397 4H1.00397C0.827765 3.9993 0.654498 4.04517 0.501721 4.13298C0.348943 4.22078 0.222079 4.3474 0.133975 4.5C0.0462063 4.65202 0 4.82446 0 5C0 5.17554 0.0462063 5.34798 0.133975 5.5L4.13397 12.5L3.36397 14C3.24418 13.9902 3.12377 13.9902 3.00397 14C2.41063 14 1.83061 14.1759 1.33726 14.5056C0.843916 14.8352 0.459399 15.3038 0.232336 15.8519C0.00527303 16.4001 -0.054137 17.0033 0.0616187 17.5853C0.177374 18.1672 0.463097 18.7018 0.882654 19.1213C1.30221 19.5409 1.83676 19.8266 2.4187 19.9424C3.00065 20.0581 3.60385 19.9987 4.15202 19.7716C4.7002 19.5446 5.16874 19.1601 5.49838 18.6667C5.82803 18.1734 6.00397 17.5933 6.00397 17C6.00079 16.2227 5.69606 15.477 5.15397 14.92L6.15397 12.92L7.53397 12.78L11.474 18.69C11.7494 19.1056 12.1263 19.444 12.569 19.6732C13.0118 19.9024 13.5056 20.0149 14.004 20C14.3903 19.9992 14.7732 19.9281 15.134 19.79C15.7781 19.5395 16.316 19.0743 16.6567 18.473C16.9974 17.8718 17.1201 17.1713 17.004 16.49L16.004 11L17.794 2H19.004C19.2692 2 19.5235 1.89464 19.7111 1.70711C19.8986 1.51957 20.004 1.26522 20.004 1C20.004 0.734784 19.8986 0.48043 19.7111 0.292893C19.5235 0.105357 19.2692 0 19.004 0V0ZM3.00397 18C2.80619 18 2.61285 17.9414 2.4484 17.8315C2.28396 17.7216 2.15578 17.5654 2.08009 17.3827C2.00441 17.2 1.9846 16.9989 2.02319 16.8049C2.06177 16.6109 2.15702 16.4327 2.29687 16.2929C2.43672 16.153 2.6149 16.0578 2.80888 16.0192C3.00287 15.9806 3.20393 16.0004 3.38666 16.0761C3.56938 16.1518 3.72556 16.28 3.83544 16.4444C3.94533 16.6089 4.00397 16.8022 4.00397 17C4.00397 17.2652 3.89862 17.5196 3.71108 17.7071C3.52354 17.8946 3.26919 18 3.00397 18ZM8.30398 2.29C8.4909 2.10677 8.74222 2.00414 9.00397 2.00414C9.26573 2.00414 9.51705 2.10677 9.70397 2.29L11.414 4H6.59397L8.30398 2.29ZM5.55397 10.94L2.72397 6H15.004L14.184 10.08L5.55397 10.94ZM14.364 17.94C14.1507 18.0237 13.9151 18.0317 13.6967 17.9625C13.4782 17.8933 13.2902 17.7512 13.164 17.56L9.82397 12.56L14.194 12.13L15.004 16.82C15.0441 17.0507 15.0021 17.2881 14.8851 17.491C14.7681 17.6938 14.5837 17.8492 14.364 17.93V17.94Z" fill="var(--fill-0, #1E1F26)"/>
</svg>
