<svg preserveAspectRatio="none" width="100%" height="100%" overflow="visible" style="display: block;" viewBox="0 0 19.5001 22.03" fill="none" xmlns="http://www.w3.org/2000/svg">
<path id="Vector" d="M19.5 11.03C19.4995 10.8453 19.4478 10.6644 19.3507 10.5073C19.2536 10.3502 19.1149 10.2231 18.95 10.14L12.83 7.08V3.08C12.83 2.26313 12.5055 1.47972 11.9279 0.902111C11.3503 0.324499 10.5669 0 9.75003 0C8.93317 0 8.14976 0.324499 7.57215 0.902111C6.99453 1.47972 6.67003 2.26313 6.67003 3.08V7.08L0.550035 10.14C0.38512 10.2231 0.246437 10.3502 0.149358 10.5073C0.0522785 10.6644 0.000594418 10.8453 3.47121e-05 11.03V14.36C-0.00132256 14.5229 0.0371422 14.6837 0.112084 14.8283C0.187025 14.973 0.296173 15.0971 0.430035 15.19C0.563135 15.2812 0.716323 15.3388 0.876526 15.358C1.03673 15.3771 1.19919 15.3572 1.35003 15.3L6.67003 13.3V17.03L4.85003 17.63C4.65141 17.6971 4.4789 17.8249 4.35688 17.9954C4.23485 18.1658 4.16949 18.3704 4.17003 18.58V21.03C4.17058 21.1623 4.19738 21.2932 4.24888 21.4151C4.30038 21.5369 4.37555 21.6474 4.47003 21.74C4.6563 21.9247 4.90769 22.0289 5.17003 22.03H14.34C14.6053 22.03 14.8596 21.9246 15.0471 21.7371C15.2347 21.5496 15.34 21.2952 15.34 21.03V18.53C15.3406 18.3204 15.2752 18.1158 15.1532 17.9454C15.0312 17.7749 14.8587 17.6471 14.66 17.58L12.83 17.03V13.31L18.15 15.31C18.3009 15.3672 18.4633 15.3871 18.6235 15.368C18.7837 15.3488 18.9369 15.2912 19.07 15.2C19.2039 15.1071 19.313 14.983 19.388 14.8383C19.4629 14.6937 19.5014 14.5329 19.5 14.37V11.03ZM12.19 10.93C12.0378 10.871 11.8735 10.8502 11.7114 10.8694C11.5493 10.8886 11.3943 10.9472 11.26 11.04C11.1276 11.1319 11.0193 11.2545 10.9444 11.3972C10.8695 11.54 10.8303 11.6988 10.83 11.86V17.7C10.8302 17.9109 10.897 18.1163 11.0209 18.2869C11.1449 18.4576 11.3195 18.5846 11.52 18.65L13.33 19.25V20.03H6.16003V19.25L7.97004 18.65C8.17052 18.5846 8.34521 18.4576 8.46914 18.2869C8.59306 18.1163 8.65988 17.9109 8.66003 17.7V11.86C8.65977 11.6988 8.62053 11.54 8.54566 11.3972C8.47078 11.2545 8.3625 11.1319 8.23003 11.04C8.09577 10.9472 7.94082 10.8886 7.77871 10.8694C7.6166 10.8502 7.45226 10.871 7.30003 10.93L1.99003 12.93V11.65L8.10003 8.59C8.26682 8.50829 8.40755 8.38174 8.50646 8.22455C8.60537 8.06735 8.65855 7.88572 8.66003 7.7V3.11C8.66003 2.82357 8.77382 2.54886 8.97636 2.34632C9.1789 2.14379 9.4536 2.03 9.74003 2.03C10.0265 2.03 10.3012 2.14379 10.5037 2.34632C10.7062 2.54886 10.82 2.82357 10.82 3.11V7.7C10.8215 7.88572 10.8747 8.06735 10.9736 8.22455C11.0725 8.38174 11.2133 8.50829 11.38 8.59L17.49 11.65V12.92L12.19 10.93Z" fill="var(--fill-0, #1E1F26)"/>
</svg>
