<svg preserveAspectRatio="none" width="100%" height="100%" overflow="visible" style="display: block;" viewBox="0 0 19.9494 15.7802" fill="none" xmlns="http://www.w3.org/2000/svg">
<path id="Vector" d="M12.2667 10.0744L8.97675 13.3644L7.68675 12.0744C7.59379 11.9807 7.48318 11.9063 7.36133 11.8555C7.23947 11.8048 7.10876 11.7786 6.97675 11.7786C6.84474 11.7786 6.71403 11.8048 6.59217 11.8555C6.47031 11.9063 6.35971 11.9807 6.26675 12.0744C6.0805 12.2618 5.97596 12.5152 5.97596 12.7794C5.97596 13.0436 6.0805 13.2971 6.26675 13.4844L8.26675 15.4844C8.35971 15.5781 8.47031 15.6525 8.59217 15.7033C8.71403 15.7541 8.84474 15.7802 8.97675 15.7802C9.10876 15.7802 9.23947 15.7541 9.36133 15.7033C9.48318 15.6525 9.59379 15.5781 9.68675 15.4844L13.6867 11.4844C13.873 11.2971 13.9775 11.0436 13.9775 10.7794C13.9775 10.5152 13.873 10.2618 13.6867 10.0744C13.5938 9.98069 13.4832 9.90629 13.3613 9.85553C13.2395 9.80476 13.1088 9.77862 12.9767 9.77862C12.8447 9.77862 12.714 9.80476 12.5922 9.85553C12.4703 9.90629 12.3597 9.98069 12.2667 10.0744V10.0744ZM16.3967 4.20442C15.7851 2.80023 14.7297 1.63542 13.3925 0.888575C12.0553 0.141734 10.51 -0.145911 8.99363 0.0697421C7.47725 0.285395 6.07345 0.992442 4.99747 2.08248C3.92148 3.17251 3.23271 4.58537 3.03675 6.10442C2.20274 6.31135 1.45754 6.78135 0.911488 7.44484C0.365435 8.10832 0.0475591 8.93002 0.00492767 9.78825C-0.0377037 10.6465 0.197176 11.4956 0.674788 12.21C1.1524 12.9243 1.84735 13.4659 2.65675 13.7544C2.78448 13.8214 2.9252 13.86 3.06925 13.8676C3.21331 13.8751 3.35728 13.8514 3.4913 13.798C3.62532 13.7446 3.74621 13.6629 3.84567 13.5584C3.94513 13.454 4.02081 13.3292 4.06752 13.1927C4.11423 13.0563 4.13086 12.9113 4.11627 12.7678C4.10168 12.6243 4.05622 12.4856 3.983 12.3613C3.90977 12.237 3.81053 12.1301 3.69208 12.0477C3.57362 11.9654 3.43876 11.9097 3.29675 11.8844C2.90698 11.7435 2.57061 11.485 2.33414 11.1446C2.09767 10.8043 1.97279 10.3989 1.97675 9.98442C1.97675 9.45398 2.18746 8.94528 2.56253 8.5702C2.93761 8.19513 3.44632 7.98442 3.97675 7.98442C4.24196 7.98442 4.49632 7.87906 4.68386 7.69152C4.87139 7.50399 4.97675 7.24963 4.97675 6.98442C4.98164 5.80255 5.40504 4.66062 6.17182 3.76123C6.9386 2.86185 7.99918 2.26316 9.1654 2.07139C10.3316 1.87961 11.5281 2.10716 12.5425 2.71364C13.5569 3.32013 14.3237 4.26635 14.7067 5.38442C14.7654 5.55439 14.8688 5.70541 15.0061 5.82156C15.1434 5.93771 15.3094 6.0147 15.4867 6.04442C16.1528 6.17029 16.7566 6.51802 17.1998 7.03095C17.6429 7.54388 17.8993 8.19178 17.9271 8.86906C17.955 9.54634 17.7526 10.2131 17.3531 10.7607C16.9535 11.3082 16.3802 11.7043 15.7267 11.8844C15.4615 11.9176 15.2203 12.0547 15.0563 12.2657C14.8922 12.4767 14.8186 12.7442 14.8517 13.0094C14.8849 13.2746 15.0221 13.5158 15.233 13.6799C15.444 13.844 15.7115 13.9176 15.9767 13.8844H16.2267C17.2791 13.6063 18.212 12.9924 18.8838 12.1359C19.5555 11.2794 19.9294 10.227 19.9486 9.13869C19.9678 8.05035 19.6314 6.98546 18.9903 6.10574C18.3493 5.22602 17.4387 4.57952 16.3967 4.26442V4.20442Z" fill="var(--fill-0, #1E1F26)"/>
</svg>
