<svg preserveAspectRatio="none" width="100%" height="100%" overflow="visible" style="display: block;" viewBox="0 0 16.0285 20.0003" fill="none" xmlns="http://www.w3.org/2000/svg">
<path id="Vector" d="M14.0243 0.780299C13.9735 0.554717 13.8461 0.353712 13.6637 0.211498C13.4814 0.0692836 13.2554 -0.0053509 13.0243 0.000298731H3.02426C2.7931 -0.0053509 2.56712 0.0692836 2.3848 0.211498C2.20247 0.353712 2.07506 0.554717 2.02426 0.780299L0.0242626 9.7803C-0.00885304 9.92788 -0.00805967 10.0811 0.0265829 10.2283C0.0612254 10.3755 0.128814 10.513 0.224262 10.6303C0.320481 10.749 0.442619 10.8441 0.581298 10.9082C0.719977 10.9723 0.87151 11.0038 1.02426 11.0003H4.96426C5.00448 11.3321 5.02451 11.6661 5.02426 12.0003C5.03363 14.3574 4.10966 16.6223 2.45426 18.3003C2.31666 18.4407 2.22348 18.6185 2.18637 18.8116C2.14927 19.0046 2.16988 19.2043 2.24564 19.3857C2.3214 19.5671 2.44894 19.7221 2.61232 19.8314C2.77571 19.9408 2.96769 19.9995 3.16426 20.0003H12.8843C13.0808 19.9995 13.2728 19.9408 13.4362 19.8314C13.5996 19.7221 13.7271 19.5671 13.8029 19.3857C13.8786 19.2043 13.8993 19.0046 13.8622 18.8116C13.825 18.6185 13.7319 18.4407 13.5943 18.3003C11.9389 16.6223 11.0149 14.3574 11.0243 12.0003C11.024 11.6661 11.044 11.3321 11.0843 11.0003H12.0243V13.0003C12.0243 13.2655 12.1296 13.5199 12.3172 13.7074C12.5047 13.8949 12.759 14.0003 13.0243 14.0003C13.2895 14.0003 13.5438 13.8949 13.7314 13.7074C13.9189 13.5199 14.0243 13.2655 14.0243 13.0003V11.0003H15.0243C15.1737 11.0008 15.3213 10.9678 15.4562 10.9038C15.5912 10.8398 15.7101 10.7463 15.8043 10.6303C15.8997 10.513 15.9673 10.3755 16.0019 10.2283C16.0366 10.0811 16.0374 9.92788 16.0043 9.7803L14.0243 0.780299ZM5.24426 18.0003C6.41136 16.2173 7.0302 14.1313 7.02426 12.0003C7.02426 11.6703 7.02426 11.3303 6.97426 11.0003H9.07426C9.07426 11.3303 9.02426 11.6703 9.02426 12.0003C9.01832 14.1313 9.63717 16.2173 10.8043 18.0003H5.24426ZM2.24426 9.0003L3.82426 2.0003H12.2243L13.7743 9.0003H2.24426Z" fill="var(--fill-0, #1E1F26)"/>
</svg>
