<svg preserveAspectRatio="none" width="100%" height="100%" overflow="visible" style="display: block;" viewBox="0 0 17.9974 17.9974" fill="none" xmlns="http://www.w3.org/2000/svg">
<path id="Vector" d="M0.87736 12.88C0.315558 13.4425 0 14.205 0 15C0 15.795 0.315558 16.5575 0.87736 17.12C1.43986 17.6818 2.20236 17.9974 2.99736 17.9974C3.79236 17.9974 4.55486 17.6818 5.11736 17.12C5.64728 16.5513 5.93577 15.7991 5.92206 15.0219C5.90835 14.2447 5.5935 13.5032 5.04385 12.9535C4.4942 12.4039 3.75265 12.089 2.97545 12.0753C2.19825 12.0616 1.44606 12.3501 0.87736 12.88V12.88ZM3.70736 15.71C3.51906 15.8983 3.26366 16.0041 2.99736 16.0041C2.73106 16.0041 2.47566 15.8983 2.28736 15.71C2.09906 15.5217 1.99327 15.2663 1.99327 15C1.99327 14.7337 2.09906 14.4783 2.28736 14.29C2.38032 14.1963 2.49092 14.1219 2.61278 14.0711C2.73464 14.0203 2.86535 13.9942 2.99736 13.9942C3.12937 13.9942 3.26008 14.0203 3.38194 14.0711C3.5038 14.1219 3.6144 14.1963 3.70736 14.29C3.80109 14.383 3.87548 14.4936 3.92625 14.6154C3.97702 14.7373 4.00316 14.868 4.00316 15C4.00316 15.132 3.97702 15.2627 3.92625 15.3846C3.87548 15.5064 3.80109 15.617 3.70736 15.71ZM2.99736 8C2.73214 8 2.47779 8.10536 2.29025 8.29289C2.10272 8.48043 1.99736 8.73478 1.99736 9C1.99736 9.26522 2.10272 9.51957 2.29025 9.70711C2.47779 9.89464 2.73214 10 2.99736 10C4.32344 10 5.59521 10.5268 6.53289 11.4645C7.47058 12.4021 7.99736 13.6739 7.99736 15C7.99736 15.2652 8.10272 15.5196 8.29025 15.7071C8.47779 15.8946 8.73214 16 8.99736 16C9.26258 16 9.51693 15.8946 9.70447 15.7071C9.892 15.5196 9.99736 15.2652 9.99736 15C9.99736 13.1435 9.25986 11.363 7.94711 10.0503C6.63435 8.7375 4.85388 8 2.99736 8ZM2.99736 4C2.73214 4 2.47779 4.10536 2.29025 4.29289C2.10272 4.48043 1.99736 4.73478 1.99736 5C1.99736 5.26522 2.10272 5.51957 2.29025 5.70711C2.47779 5.89464 2.73214 6 2.99736 6C5.38431 6 7.67349 6.94821 9.36132 8.63604C11.0491 10.3239 11.9974 12.6131 11.9974 15C11.9974 15.2652 12.1027 15.5196 12.2903 15.7071C12.4778 15.8946 12.7321 16 12.9974 16C13.2626 16 13.5169 15.8946 13.7045 15.7071C13.892 15.5196 13.9974 15.2652 13.9974 15C13.9896 12.084 12.8326 9.28858 10.7774 7.22C8.70878 5.16472 5.91337 4.00775 2.99736 4V4ZM13.6074 4.39C10.7861 1.58754 6.97391 0.0101842 2.99736 0C2.73214 0 2.47779 0.105357 2.29025 0.292893C2.10272 0.48043 1.99736 0.734784 1.99736 1C1.99736 1.26522 2.10272 1.51957 2.29025 1.70711C2.47779 1.89464 2.73214 2 2.99736 2C6.44517 2 9.75178 3.36964 12.1897 5.80761C14.6277 8.24558 15.9974 11.5522 15.9974 15C15.9974 15.2652 16.1027 15.5196 16.2903 15.7071C16.4778 15.8946 16.7321 16 16.9974 16C17.2626 16 17.5169 15.8946 17.7045 15.7071C17.892 15.5196 17.9974 15.2652 17.9974 15C17.9872 11.0235 16.4098 7.21121 13.6074 4.39Z" fill="var(--fill-0, #1E1F26)"/>
</svg>
