<svg preserveAspectRatio="none" width="100%" height="100%" overflow="visible" style="display: block;" viewBox="0 0 20.0139 20.0099" fill="none" xmlns="http://www.w3.org/2000/svg">
<path id="Vector" d="M18.4969 11.9441L18.1569 12.1441C17.9289 12.2794 17.7639 12.4997 17.6983 12.7566C17.6326 13.0135 17.6717 13.286 17.8069 13.5141C17.8955 13.6634 18.0213 13.787 18.1721 13.873C18.3229 13.9589 18.4934 14.0041 18.6669 14.0041C18.8464 14.004 19.0226 13.9557 19.1769 13.8641L19.5169 13.6641C19.7172 13.5185 19.8562 13.3038 19.9073 13.0616C19.9583 12.8193 19.9177 12.5667 19.7933 12.3527C19.6689 12.1387 19.4695 11.9785 19.2337 11.903C18.9979 11.8275 18.7425 11.8421 18.5169 11.9441H18.4969ZM9.65695 4.36409L10.0069 4.15409L17.0069 8.15409L15.2469 9.15409C15.0543 9.26325 14.9033 9.43327 14.8177 9.63747C14.7321 9.84167 14.7167 10.0685 14.7739 10.2824C14.8311 10.4963 14.9577 10.6852 15.1338 10.8194C15.3099 10.9537 15.5255 11.0256 15.7469 11.0241C15.9221 11.0253 16.0945 10.9805 16.2469 10.8941L19.5069 9.00409C19.6608 8.91687 19.7889 8.79039 19.8779 8.63755C19.967 8.48471 20.0139 8.31099 20.0139 8.13409C20.0139 7.9572 19.967 7.78347 19.8779 7.63063C19.7889 7.47779 19.6608 7.35131 19.5069 7.26409L10.5069 2.07409C10.3549 1.98632 10.1825 1.94012 10.0069 1.94012C9.83141 1.94012 9.65897 1.98632 9.50695 2.07409L8.65695 2.56409C8.42621 2.6967 8.2576 2.91554 8.18821 3.17246C8.11882 3.42939 8.15434 3.70335 8.28695 3.93409C8.41956 4.16483 8.63839 4.33344 8.89532 4.40283C9.15224 4.47222 9.42621 4.4367 9.65695 4.30409V4.36409ZM1.71695 0.294092C1.62371 0.200853 1.51302 0.126892 1.3912 0.0764319C1.26938 0.0259715 1.13881 0 1.00695 0C0.875089 0 0.744521 0.0259715 0.622699 0.0764319C0.500877 0.126892 0.390187 0.200853 0.296948 0.294092C0.108644 0.482395 0.00285661 0.73779 0.00285661 1.00409C0.00285661 1.27039 0.108644 1.52579 0.296948 1.71409L3.93695 5.34409L0.506948 7.34409C0.35305 7.43131 0.225042 7.55779 0.135983 7.71063C0.0469233 7.86347 0 8.0372 0 8.21409C0 8.39099 0.0469233 8.56471 0.135983 8.71755C0.225042 8.87039 0.35305 8.99687 0.506948 9.08409L9.50695 14.2841C9.66079 14.3669 9.83227 14.4115 10.0069 14.4141C10.1814 14.4099 10.3526 14.3655 10.5069 14.2841L12.0069 13.4041L13.4569 14.8641L10.0169 16.8641L1.50695 11.9341C1.27621 11.8015 1.00224 11.766 0.745319 11.8354C0.488394 11.9047 0.269557 12.0734 0.136948 12.3041C0.0043401 12.5348 -0.0311764 12.8088 0.0382121 13.0657C0.107601 13.3226 0.27621 13.5415 0.506948 13.6741L9.50695 18.8741C9.65897 18.9619 9.83141 19.0081 10.0069 19.0081C10.1825 19.0081 10.3549 18.9619 10.5069 18.8741L14.9169 16.3241L18.2969 19.7141C18.3899 19.8078 18.5005 19.8822 18.6224 19.933C18.7442 19.9838 18.8749 20.0099 19.0069 20.0099C19.139 20.0099 19.2697 19.9838 19.3915 19.933C19.5134 19.8822 19.624 19.8078 19.7169 19.7141C19.8107 19.6211 19.8851 19.5105 19.9358 19.3887C19.9866 19.2668 20.0127 19.1361 20.0127 19.0041C20.0127 18.8721 19.9866 18.7414 19.9358 18.6195C19.8851 18.4977 19.8107 18.3871 19.7169 18.2941L1.71695 0.294092ZM10.0069 12.2941L3.00695 8.19409L5.40695 6.81409L10.5269 11.9441L10.0069 12.2941Z" fill="var(--fill-0, #1E1F26)"/>
</svg>
