<svg preserveAspectRatio="none" width="100%" height="100%" overflow="visible" style="display: block;" viewBox="0 0 18.0004 20.0311" fill="none" xmlns="http://www.w3.org/2000/svg">
<path id="Vector" d="M10.2104 3.72389C10.2901 3.73353 10.3707 3.73353 10.4504 3.72389L12.3904 3.23389C12.6476 3.17006 12.8689 3.00679 13.0058 2.77992C13.1426 2.55305 13.1839 2.28114 13.1204 2.02389C13.0566 1.76674 12.8933 1.54543 12.6665 1.40856C12.4396 1.27169 12.1677 1.23045 11.9104 1.29389L10.0004 1.75389C9.73521 1.78572 9.4935 1.9216 9.32846 2.13164C9.16343 2.34168 9.0886 2.60868 9.12042 2.87389C9.15225 3.13911 9.28813 3.38082 9.49817 3.54585C9.70821 3.71088 9.97521 3.78572 10.2404 3.75389L10.2104 3.72389ZM6.51042 7.02389H4.51042C4.24521 7.02389 3.99085 7.12925 3.80332 7.31679C3.61578 7.50432 3.51042 7.75868 3.51042 8.02389C3.51042 8.28911 3.61578 8.54346 3.80332 8.731C3.99085 8.91854 4.24521 9.02389 4.51042 9.02389H6.51042C6.77564 9.02389 7.02999 8.91854 7.21753 8.731C7.40507 8.54346 7.51042 8.28911 7.51042 8.02389C7.51042 7.75868 7.40507 7.50432 7.21753 7.31679C7.02999 7.12925 6.77564 7.02389 6.51042 7.02389ZM10.5104 7.02389C10.2452 7.02389 9.99085 7.12925 9.80332 7.31679C9.61578 7.50432 9.51042 7.75868 9.51042 8.02389C9.51042 8.28911 9.61578 8.54346 9.80332 8.731C9.99085 8.91854 10.2452 9.02389 10.5104 9.02389H12.5104C12.7756 9.02389 13.03 8.91854 13.2175 8.731C13.4051 8.54346 13.5104 8.28911 13.5104 8.02389C13.5104 7.75868 13.4051 7.50432 13.2175 7.31679C13.03 7.12925 12.7756 7.02389 12.5104 7.02389H10.5104ZM4.39042 5.17389H4.63042L6.57042 4.69389C6.83166 4.63024 7.05692 4.46542 7.19663 4.23569C7.33635 4.00595 7.37908 3.73013 7.31542 3.46889C7.25177 3.20765 7.08695 2.9824 6.85722 2.84269C6.62749 2.70297 6.35166 2.66024 6.09042 2.72389L4.15042 3.20389C3.88521 3.23572 3.6435 3.3716 3.47846 3.58164C3.31343 3.79168 3.2386 4.05868 3.27042 4.32389C3.30225 4.58911 3.43813 4.83082 3.64817 4.99585C3.85821 5.16088 4.12521 5.23572 4.39042 5.20389V5.17389ZM1.00042 8.53389C1.26564 8.53389 1.51999 8.42854 1.70753 8.241C1.89507 8.05346 2.00042 7.79911 2.00042 7.53389V5.53389C2.00042 5.26868 1.89507 5.01432 1.70753 4.82679C1.51999 4.63925 1.26564 4.53389 1.00042 4.53389C0.735208 4.53389 0.480854 4.63925 0.293318 4.82679C0.105781 5.01432 0.000424411 5.26868 0.000424411 5.53389V7.53389C0.000424411 7.79911 0.105781 8.05346 0.293318 8.241C0.480854 8.42854 0.735208 8.53389 1.00042 8.53389ZM17.6204 0.233892C17.5028 0.135225 17.3641 0.0649601 17.2149 0.0285432C17.0658 -0.00787373 16.9103 -0.00946517 16.7604 0.0238923L15.7604 0.263892C15.5033 0.327723 15.282 0.490998 15.1451 0.717865C15.0082 0.944732 14.967 1.21664 15.0304 1.47389C15.0852 1.69577 15.2143 1.8922 15.3962 2.03048C15.5782 2.16876 15.802 2.24055 16.0304 2.23389C16.0887 2.46826 16.2297 2.67364 16.4276 2.81208C16.6255 2.95053 16.8668 3.0127 17.1069 2.9871C17.347 2.9615 17.5698 2.84987 17.734 2.67282C17.8983 2.49577 17.9929 2.26527 18.0004 2.02389V1.02389C18.0012 0.871999 17.9674 0.721916 17.9016 0.585033C17.8358 0.44815 17.7396 0.328065 17.6204 0.233892V0.233892ZM17.0004 5.02389C16.7352 5.02389 16.4809 5.12925 16.2933 5.31679C16.1058 5.50432 16.0004 5.75868 16.0004 6.02389V7.16389C15.812 7.27569 15.6655 7.44627 15.5835 7.64942C15.5014 7.85257 15.4884 8.07704 15.5463 8.28833C15.6042 8.49962 15.73 8.68603 15.9042 8.81892C16.0783 8.95182 16.2913 9.02383 16.5104 9.02389H17.0004C17.2656 9.02389 17.52 8.91854 17.7075 8.731C17.8951 8.54346 18.0004 8.28911 18.0004 8.02389V6.02389C18.0004 5.75868 17.8951 5.50432 17.7075 5.31679C17.52 5.12925 17.2656 5.02389 17.0004 5.02389ZM17.0004 11.0239H1.00042C0.735208 11.0239 0.480854 11.1292 0.293318 11.3168C0.105781 11.5043 0.000424411 11.7587 0.000424411 12.0239V15.0239C-0.00623097 15.2523 0.0655575 15.4761 0.203838 15.6581C0.342119 15.84 0.538548 15.9691 0.760424 16.0239L16.7604 20.0239C16.8401 20.0335 16.9207 20.0335 17.0004 20.0239C17.2656 20.0239 17.52 19.9185 17.7075 19.731C17.8951 19.5435 18.0004 19.2891 18.0004 19.0239V12.0239C18.0004 11.7587 17.8951 11.5043 17.7075 11.3168C17.52 11.1292 17.2656 11.0239 17.0004 11.0239ZM16.0004 17.7439L2.00042 14.2439V13.0239H16.0004V17.7439Z" fill="var(--fill-0, #1E1F26)"/>
</svg>
