<svg preserveAspectRatio="none" width="100%" height="100%" overflow="visible" style="display: block;" viewBox="0 0 19.9934 18.9867" fill="none" xmlns="http://www.w3.org/2000/svg">
<path id="Vector" d="M16.4134 4.20671C15.8024 2.80272 14.7479 1.63779 13.4115 0.890438C12.0751 0.143088 10.5305 -0.145456 9.01439 0.0690207C7.49829 0.283498 6.09434 0.989164 5.01767 2.07789C3.941 3.16661 3.25101 4.57833 3.05342 6.09671C2.21564 6.30076 1.46622 6.77008 0.916867 7.43471C0.367514 8.09933 0.0476384 8.92369 0.00491486 9.78491C-0.0378086 10.6461 0.198908 11.4981 0.679783 12.2138C1.16066 12.9296 1.85994 13.4707 2.67342 13.7567C2.77713 13.7887 2.8849 13.8055 2.99342 13.8067C3.25864 13.8491 3.52985 13.7845 3.74739 13.627C3.96493 13.4694 4.11098 13.2319 4.15342 12.9667C4.19585 12.7015 4.13119 12.4303 3.97366 12.2127C3.81613 11.9952 3.57864 11.8491 3.31342 11.8067C2.93633 11.6706 2.60885 11.4243 2.37347 11.0997C2.1381 10.7752 2.00568 10.3874 1.99342 9.98671C1.99342 9.45628 2.20413 8.94757 2.57921 8.5725C2.95428 8.19743 3.46299 7.98671 3.99342 7.98671C4.25864 7.98671 4.51299 7.88135 4.70053 7.69382C4.88806 7.50628 4.99342 7.25193 4.99342 6.98671C4.99597 5.80399 5.41771 4.66046 6.18369 3.75929C6.94967 2.85813 8.01031 2.25766 9.17717 2.06458C10.344 1.87151 11.5415 2.09832 12.557 2.70472C13.5724 3.31112 14.34 4.25785 14.7234 5.37671C14.7806 5.54855 14.8833 5.70164 15.0207 5.81964C15.1581 5.93765 15.3249 6.01613 15.5034 6.04671C16.1048 6.15555 16.6585 6.44544 17.0906 6.8776C17.5227 7.30975 17.8125 7.86355 17.9212 8.46491C18.03 9.06627 17.9525 9.68649 17.6991 10.2426C17.4457 10.7987 17.0286 11.2642 16.5034 11.5767C16.2727 11.7093 16.1041 11.9282 16.0347 12.1851C15.9653 12.442 16.0008 12.716 16.1334 12.9467C16.266 13.1774 16.4849 13.3461 16.7418 13.4154C16.9987 13.4848 17.2727 13.4493 17.5034 13.3167C18.2616 12.8766 18.8908 12.2449 19.3278 11.4849C19.7649 10.7249 19.9944 9.8634 19.9934 8.98671C19.9904 7.91084 19.6404 6.86465 18.9954 6.00352C18.3505 5.14239 17.445 4.51225 16.4134 4.20671V4.20671ZM12.9934 13.2067V11.9867C12.9934 11.1911 12.6773 10.428 12.1147 9.86539C11.5521 9.30278 10.7891 8.98671 9.99342 8.98671C9.19777 8.98671 8.43471 9.30278 7.8721 9.86539C7.30949 10.428 6.99342 11.1911 6.99342 11.9867V13.1667C6.33205 13.4067 5.77606 13.8715 5.42265 14.4798C5.06923 15.0882 4.94088 15.8014 5.06002 16.4948C5.17916 17.1882 5.53822 17.8177 6.07443 18.2732C6.61063 18.7287 7.28988 18.9813 7.99342 18.9867H11.9934C12.697 18.9813 13.3762 18.7287 13.9124 18.2732C14.4486 17.8177 14.8077 17.1882 14.9268 16.4948C15.046 15.8014 14.9176 15.0882 14.5642 14.4798C14.2108 13.8715 13.6548 13.4067 12.9934 13.1667V13.2067ZM8.99342 11.9867C8.99342 11.7215 9.09878 11.4671 9.28631 11.2796C9.47385 11.0921 9.7282 10.9867 9.99342 10.9867C10.2586 10.9867 10.513 11.0921 10.7005 11.2796C10.8881 11.4671 10.9934 11.7215 10.9934 11.9867V12.9867H8.99342V11.9867ZM11.9934 16.9867H7.99342C7.7282 16.9867 7.47385 16.8814 7.28631 16.6938C7.09878 16.5063 6.99342 16.2519 6.99342 15.9867C6.99342 15.7215 7.09878 15.4671 7.28631 15.2796C7.47385 15.0921 7.7282 14.9867 7.99342 14.9867H11.9934C12.2586 14.9867 12.513 15.0921 12.7005 15.2796C12.8881 15.4671 12.9934 15.7215 12.9934 15.9867C12.9934 16.2519 12.8881 16.5063 12.7005 16.6938C12.513 16.8814 12.2586 16.9867 11.9934 16.9867Z" fill="var(--fill-0, #1E1F26)"/>
</svg>
