<svg preserveAspectRatio="none" width="100%" height="100%" overflow="visible" style="display: block;" viewBox="0 0 22 21.5" fill="none" xmlns="http://www.w3.org/2000/svg">
<path id="Vector" d="M10 3C10.1313 3.00007 10.2614 2.97426 10.3828 2.92403C10.5041 2.8738 10.6144 2.80015 10.7073 2.70727C10.8001 2.6144 10.8738 2.50413 10.924 2.38277C10.9743 2.26141 11.0001 2.13134 11 2V1C11 0.734784 10.8946 0.48043 10.7071 0.292893C10.5196 0.105357 10.2652 0 10 0C9.73478 0 9.48043 0.105357 9.29289 0.292893C9.10536 0.48043 9 0.734784 9 1V2C8.99993 2.13134 9.02574 2.26141 9.07597 2.38277C9.1262 2.50413 9.19985 2.6144 9.29273 2.70727C9.3856 2.80015 9.49587 2.8738 9.61723 2.92403C9.73859 2.97426 9.86866 3.00007 10 3V3ZM3 10C3.00007 9.86866 2.97426 9.73859 2.92403 9.61723C2.8738 9.49587 2.80015 9.3856 2.70727 9.29273C2.6144 9.19985 2.50413 9.1262 2.38277 9.07597C2.26141 9.02574 2.13134 8.99993 2 9H1C0.734784 9 0.48043 9.10536 0.292893 9.29289C0.105357 9.48043 0 9.73478 0 10C0 10.2652 0.105357 10.5196 0.292893 10.7071C0.48043 10.8946 0.734784 11 1 11H2C2.13134 11.0001 2.26141 10.9743 2.38277 10.924C2.50413 10.8738 2.6144 10.8001 2.70727 10.7073C2.80015 10.6144 2.8738 10.5041 2.92403 10.3828C2.97426 10.2614 3.00007 10.1313 3 10V10ZM3.63574 14.9502L2.92874 15.6572C2.74122 15.8447 2.63588 16.099 2.63588 16.3642C2.63588 16.6294 2.74122 16.8837 2.92874 17.0713C3.11626 17.2588 3.37058 17.3641 3.63577 17.3641C3.90096 17.3641 4.15528 17.2588 4.3428 17.0713L5.0498 16.3643C5.23732 16.1767 5.34266 15.9224 5.34266 15.6572C5.34266 15.392 5.23732 15.1377 5.0498 14.9502C4.86228 14.7627 4.60796 14.6573 4.34277 14.6573C4.07758 14.6573 3.82326 14.7627 3.63574 14.9502V14.9502ZM3.63574 5.0498C3.72859 5.14265 3.83882 5.2163 3.96013 5.26655C4.08144 5.3168 4.21146 5.34266 4.34277 5.34266C4.47408 5.34266 4.6041 5.3168 4.72541 5.26655C4.84672 5.2163 4.95695 5.14265 5.0498 5.0498C5.14265 4.95695 5.2163 4.84672 5.26655 4.72541C5.3168 4.6041 5.34266 4.47408 5.34266 4.34277C5.34266 4.21146 5.3168 4.08144 5.26655 3.96013C5.2163 3.83882 5.14265 3.72859 5.0498 3.63574L4.3428 2.92874C4.15529 2.74122 3.90096 2.63587 3.63578 2.63586C3.37059 2.63586 3.11626 2.7412 2.92874 2.92871C2.74122 3.11622 2.63587 3.37055 2.63586 3.63573C2.63586 3.90092 2.7412 4.15525 2.92871 4.34277L3.63574 5.0498ZM15.6572 5.3428C15.7886 5.34295 15.9186 5.31714 16.04 5.26686C16.1613 5.21658 16.2715 5.14281 16.3642 5.0498L17.0712 4.3428C17.2587 4.15528 17.3641 3.90096 17.3641 3.63577C17.3641 3.37058 17.2587 3.11626 17.0712 2.92874C16.8837 2.74122 16.6294 2.63588 16.3642 2.63588C16.099 2.63588 15.8447 2.74122 15.6572 2.92874L14.9502 3.63574C14.8104 3.77559 14.7152 3.95376 14.6766 4.14771C14.638 4.34166 14.6578 4.54269 14.7335 4.72539C14.8092 4.90809 14.9373 5.06426 15.1017 5.17414C15.2661 5.28403 15.4594 5.3427 15.6572 5.34274L15.6572 5.3428ZM12 10.5C11.9999 10.6313 12.0257 10.7614 12.076 10.8828C12.1262 11.0041 12.1999 11.1144 12.2927 11.2073C12.3856 11.3001 12.4959 11.3738 12.6172 11.424C12.7386 11.4743 12.8687 11.5001 13 11.5H18C18.7954 11.4991 19.5579 11.1828 20.1204 10.6204C20.6828 10.0579 20.9991 9.29538 21 8.5C21 8.23478 20.8946 7.98043 20.7071 7.79289C20.5196 7.60536 20.2652 7.5 20 7.5C19.7348 7.5 19.4804 7.60536 19.2929 7.79289C19.1054 7.98043 19 8.23478 19 8.5C18.9965 8.76413 18.89 9.01646 18.7032 9.20325C18.5165 9.39003 18.2641 9.49651 18 9.5H13C12.8687 9.49993 12.7386 9.52574 12.6172 9.57597C12.4959 9.6262 12.3856 9.69985 12.2927 9.79273C12.1999 9.8856 12.1262 9.99587 12.076 10.1172C12.0257 10.2386 11.9999 10.3687 12 10.5V10.5ZM19 13.5H14C13.7348 13.5 13.4804 13.6054 13.2929 13.7929C13.1054 13.9804 13 14.2348 13 14.5C13 14.7652 13.1054 15.0196 13.2929 15.2071C13.4804 15.3946 13.7348 15.5 14 15.5H19C19.2652 15.5 19.5196 15.6054 19.7071 15.7929C19.8946 15.9804 20 16.2348 20 16.5C20 16.7652 19.8946 17.0196 19.7071 17.2071C19.5196 17.3946 19.2652 17.5 19 17.5C18.7348 17.5 18.4804 17.6054 18.2929 17.7929C18.1054 17.9804 18 18.2348 18 18.5C18 18.7652 18.1054 19.0196 18.2929 19.2071C18.4804 19.3946 18.7348 19.5 19 19.5C19.7956 19.5 20.5587 19.1839 21.1213 18.6213C21.6839 18.0587 22 17.2956 22 16.5C22 15.7044 21.6839 14.9413 21.1213 14.3787C20.5587 13.8161 19.7956 13.5 19 13.5ZM8 17.5C7.80222 17.5 7.60888 17.5586 7.44443 17.6685C7.27998 17.7784 7.15181 17.9346 7.07612 18.1173C7.00043 18.3 6.98063 18.5011 7.01921 18.6951C7.0578 18.8891 7.15304 19.0673 7.29289 19.2071C7.43275 19.347 7.61093 19.4422 7.80491 19.4808C7.99889 19.5194 8.19996 19.4996 8.38268 19.4239C8.56541 19.3482 8.72159 19.22 8.83147 19.0556C8.94135 18.8911 9 18.6978 9 18.5C9 18.2348 8.89464 17.9804 8.70711 17.7929C8.51957 17.6054 8.26522 17.5 8 17.5ZM14 17.5H12C11.7348 17.5 11.4804 17.6054 11.2929 17.7929C11.1054 17.9804 11 18.2348 11 18.5C11 18.7652 11.1054 19.0196 11.2929 19.2071C11.4804 19.3946 11.7348 19.5 12 19.5H14C14.2641 19.5035 14.5165 19.61 14.7032 19.7968C14.89 19.9835 14.9965 20.2359 15 20.5C15 20.7652 15.1054 21.0196 15.2929 21.2071C15.4804 21.3946 15.7348 21.5 16 21.5C16.2652 21.5 16.5196 21.3946 16.7071 21.2071C16.8946 21.0196 17 20.7652 17 20.5C16.9991 19.7046 16.6828 18.9421 16.1204 18.3796C15.5579 17.8172 14.7954 17.5009 14 17.5ZM10 13.5C9.07174 13.5 8.1815 13.1313 7.52513 12.4749C6.86875 11.8185 6.5 10.9283 6.5 10C6.5 9.07174 6.86875 8.1815 7.52513 7.52513C8.1815 6.86875 9.07174 6.5 10 6.5C10.7972 6.49492 11.5711 6.76888 12.1875 7.27441C12.2892 7.35764 12.4063 7.42001 12.5321 7.45797C12.6579 7.49592 12.7899 7.50871 12.9207 7.49561C13.0514 7.48251 13.1783 7.44377 13.2941 7.38161C13.4098 7.31944 13.5122 7.23508 13.5954 7.13333C13.6785 7.03158 13.7408 6.91444 13.7786 6.78861C13.8165 6.66278 13.8292 6.53072 13.816 6.39998C13.8027 6.26925 13.7639 6.1424 13.7016 6.02668C13.6394 5.91097 13.5549 5.80865 13.4531 5.72559C12.4804 4.9266 11.2588 4.49303 10 4.5C8.54131 4.5 7.14236 5.07946 6.11091 6.11091C5.07946 7.14236 4.5 8.54131 4.5 10C4.5 11.4587 5.07946 12.8576 6.11091 13.8891C7.14236 14.9205 8.54131 15.5 10 15.5C10.2652 15.5 10.5196 15.3946 10.7071 15.2071C10.8946 15.0196 11 14.7652 11 14.5C11 14.2348 10.8946 13.9804 10.7071 13.7929C10.5196 13.6054 10.2652 13.5 10 13.5Z" fill="var(--fill-0, #1E1F26)"/>
</svg>
