<svg preserveAspectRatio="none" width="100%" height="100%" overflow="visible" style="display: block;" viewBox="0 0 20.8731 13.9296" fill="none" xmlns="http://www.w3.org/2000/svg">
<path id="Vector" d="M17.8438 5.46962C17.3699 4.41537 16.6016 3.52045 15.6312 2.89245C14.6608 2.26445 13.5297 1.93011 12.3738 1.92962C11.9049 1.93341 11.4382 1.99385 10.9838 2.10962C10.4146 1.30617 9.62087 0.688658 8.7021 0.334541C7.78333 -0.0195754 6.78046 -0.0945341 5.81926 0.119066C4.85806 0.332666 3.98132 0.825316 3.299 1.53523C2.61669 2.24514 2.15917 3.14071 1.98383 4.10962C1.32956 4.34516 0.777442 4.80067 0.421871 5.39826C0.0663002 5.99584 -0.0706351 6.69839 0.0344796 7.38577C0.139594 8.07315 0.48023 8.70267 0.998142 9.16668C1.51605 9.63069 2.17907 9.90038 2.87383 9.92962H3.87383C3.8634 10.0961 3.8634 10.2631 3.87383 10.4296C3.87383 11.3579 4.24258 12.2481 4.89895 12.9045C5.55533 13.5609 6.44557 13.9296 7.37383 13.9296H16.5438C17.5781 13.9294 18.5782 13.559 19.363 12.8854C20.1479 12.2118 20.6657 11.2796 20.8228 10.2573C20.9799 9.23498 20.7659 8.19023 20.2195 7.31207C19.673 6.4339 18.8303 5.78033 17.8438 5.46962ZM2.87383 7.92962C2.60861 7.92962 2.35426 7.82427 2.16672 7.63673C1.97918 7.44919 1.87383 7.19484 1.87383 6.92962C1.87383 6.66441 1.97918 6.41005 2.16672 6.22252C2.35426 6.03498 2.60861 5.92962 2.87383 5.92962C3.13904 5.92962 3.3934 5.82427 3.58093 5.63673C3.76847 5.44919 3.87383 5.19484 3.87383 4.92962C3.87383 4.13397 4.1899 3.37091 4.75251 2.8083C5.31512 2.24569 6.07818 1.92962 6.87383 1.92962C7.29321 1.93188 7.70746 2.02203 8.08984 2.19428C8.47222 2.36652 8.81424 2.61703 9.09383 2.92962C8.38415 3.39138 7.78023 3.9981 7.32178 4.70992C6.86332 5.42173 6.56071 6.22251 6.43383 7.05962C5.8686 7.21881 5.35267 7.51805 4.93383 7.92962H2.87383ZM16.5438 11.9296H7.37383C6.976 11.9296 6.59447 11.7716 6.31317 11.4903C6.03186 11.209 5.87383 10.8274 5.87383 10.4296C5.87383 10.0318 6.03186 9.65027 6.31317 9.36896C6.59447 9.08766 6.976 8.92962 7.37383 8.92962C7.63904 8.92962 7.8934 8.82427 8.08093 8.63673C8.26847 8.44919 8.37383 8.19484 8.37383 7.92962C8.37811 6.98532 8.71635 6.07298 9.32866 5.35409C9.94098 4.63521 10.7879 4.15613 11.7195 4.00166C12.6511 3.8472 13.6073 4.0273 14.4188 4.51009C15.2304 4.99289 15.845 5.74724 16.1538 6.63962C16.211 6.81146 16.3137 6.96456 16.4511 7.08256C16.5885 7.20056 16.7553 7.27904 16.9338 7.30962C17.5014 7.41575 18.0094 7.72885 18.3593 8.18823C18.7091 8.64761 18.8759 9.22054 18.8274 9.79593C18.7788 10.3713 18.5183 10.9082 18.0964 11.3024C17.6745 11.6966 17.1212 11.9202 16.5438 11.9296V11.9296Z" fill="var(--fill-0, #1E1F26)"/>
</svg>
