<svg preserveAspectRatio="none" width="100%" height="100%" overflow="visible" style="display: block;" viewBox="0 0 20 15" fill="none" xmlns="http://www.w3.org/2000/svg">
<path id="Vector" d="M0 9V11C0 11.2652 0.105357 11.5196 0.292893 11.7071C0.48043 11.8946 0.734784 12 1 12H11C11 12.7956 11.3161 13.5587 11.8787 14.1213C12.4413 14.6839 13.2044 15 14 15C14.7956 15 15.5587 14.6839 16.1213 14.1213C16.6839 13.5587 17 12.7956 17 12H19C19.2652 12 19.5196 11.8946 19.7071 11.7071C19.8946 11.5196 20 11.2652 20 11V3C20 2.20435 19.6839 1.44129 19.1213 0.87868C18.5587 0.316071 17.7956 0 17 0H7C6.20435 0 5.44129 0.316071 4.87868 0.87868C4.31607 1.44129 4 2.20435 4 3V10H2V9C2 8.73478 1.89464 8.48043 1.70711 8.29289C1.51957 8.10536 1.26522 8 1 8C0.734784 8 0.48043 8.10536 0.292893 8.29289C0.105357 8.48043 0 8.73478 0 9V9ZM13 12C13 11.8022 13.0586 11.6089 13.1685 11.4444C13.2784 11.28 13.4346 11.1518 13.6173 11.0761C13.8 11.0004 14.0011 10.9806 14.1951 11.0192C14.3891 11.0578 14.5673 11.153 14.7071 11.2929C14.847 11.4327 14.9422 11.6109 14.9808 11.8049C15.0194 11.9989 14.9996 12.2 14.9239 12.3827C14.8482 12.5654 14.72 12.7216 14.5556 12.8315C14.3911 12.9414 14.1978 13 14 13C13.7348 13 13.4804 12.8946 13.2929 12.7071C13.1054 12.5196 13 12.2652 13 12ZM6 6H18V10H16.22C15.9388 9.69064 15.5961 9.44347 15.2138 9.27433C14.8315 9.10519 14.418 9.01782 14 9.01782C13.582 9.01782 13.1685 9.10519 12.7862 9.27433C12.4039 9.44347 12.0612 9.69064 11.78 10H6V6ZM6 3C6 2.73478 6.10536 2.48043 6.29289 2.29289C6.48043 2.10536 6.73478 2 7 2H17C17.2652 2 17.5196 2.10536 17.7071 2.29289C17.8946 2.48043 18 2.73478 18 3V4H6V3Z" fill="var(--fill-0, #1E1F26)"/>
</svg>
