<svg preserveAspectRatio="none" width="100%" height="100%" overflow="visible" style="display: block;" viewBox="0 0 12 19.9952" fill="none" xmlns="http://www.w3.org/2000/svg">
<path id="Vector" d="M1 8.99501H11C11.2652 8.99501 11.5196 8.88966 11.7071 8.70212C11.8946 8.51458 12 8.26023 12 7.99501C12 7.7298 11.8946 7.47544 11.7071 7.28791C11.5196 7.10037 11.2652 6.99501 11 6.99501H7V3.40501L7.79 4.20501C7.88296 4.29874 7.99356 4.37314 8.11542 4.4239C8.23728 4.47467 8.36799 4.50081 8.5 4.50081C8.63201 4.50081 8.76272 4.47467 8.88458 4.4239C9.00644 4.37314 9.11704 4.29874 9.21 4.20501C9.30373 4.11205 9.37812 4.00145 9.42889 3.87959C9.47966 3.75773 9.5058 3.62703 9.5058 3.49501C9.5058 3.363 9.47966 3.2323 9.42889 3.11044C9.37812 2.98858 9.30373 2.87798 9.21 2.78501L6.71 0.285014C6.6149 0.193973 6.50275 0.122608 6.38 0.0750135C6.13654 -0.0250045 5.86346 -0.0250045 5.62 0.0750135C5.49725 0.122608 5.3851 0.193973 5.29 0.285014L2.79 2.78501C2.6017 2.97332 2.49591 3.22871 2.49591 3.49501C2.49591 3.76132 2.6017 4.01671 2.79 4.20501C2.9783 4.39332 3.2337 4.49911 3.5 4.49911C3.7663 4.49911 4.0217 4.39332 4.21 4.20501L5 3.40501V6.99501H1C0.734784 6.99501 0.48043 7.10037 0.292893 7.28791C0.105357 7.47544 0 7.7298 0 7.99501C0 8.26023 0.105357 8.51458 0.292893 8.70212C0.48043 8.88966 0.734784 8.99501 1 8.99501ZM11 10.995H1C0.734784 10.995 0.48043 11.1004 0.292893 11.2879C0.105357 11.4754 0 11.7298 0 11.995C0 12.2602 0.105357 12.5146 0.292893 12.7021C0.48043 12.8897 0.734784 12.995 1 12.995H5V16.585L4.21 15.785C4.11676 15.6918 4.00607 15.6178 3.88425 15.5674C3.76243 15.5169 3.63186 15.4909 3.5 15.4909C3.36814 15.4909 3.23757 15.5169 3.11575 15.5674C2.99393 15.6178 2.88324 15.6918 2.79 15.785C2.69676 15.8783 2.6228 15.9889 2.57234 16.1108C2.52188 16.2326 2.49591 16.3632 2.49591 16.495C2.49591 16.6269 2.52188 16.7574 2.57234 16.8793C2.6228 17.0011 2.69676 17.1118 2.79 17.205L5.29 19.705C5.3851 19.7961 5.49725 19.8674 5.62 19.915C5.7397 19.9679 5.86913 19.9952 6 19.9952C6.13087 19.9952 6.2603 19.9679 6.38 19.915C6.50275 19.8674 6.6149 19.7961 6.71 19.705L9.21 17.205C9.3983 17.0167 9.50409 16.7613 9.50409 16.495C9.50409 16.2287 9.3983 15.9733 9.21 15.785C9.0217 15.5967 8.7663 15.4909 8.5 15.4909C8.2337 15.4909 7.9783 15.5967 7.79 15.785L7 16.585V12.995H11C11.2652 12.995 11.5196 12.8897 11.7071 12.7021C11.8946 12.5146 12 12.2602 12 11.995C12 11.7298 11.8946 11.4754 11.7071 11.2879C11.5196 11.1004 11.2652 10.995 11 10.995Z" fill="var(--fill-0, #1E1F26)"/>
</svg>
