<svg preserveAspectRatio="none" width="100%" height="100%" overflow="visible" style="display: block;" viewBox="0 0 20 19" fill="none" xmlns="http://www.w3.org/2000/svg">
<path id="Vector" d="M10 7.34002C9.38144 7.01016 8.66486 6.91384 7.98116 7.06865C7.29745 7.22346 6.69226 7.61907 6.27613 8.18321C5.86 8.74735 5.66071 9.44237 5.71466 10.1413C5.76862 10.8402 6.07222 11.4964 6.57 11.99L9.29 14.71C9.38296 14.8037 9.49356 14.8781 9.61542 14.9289C9.73728 14.9797 9.86799 15.0058 10 15.0058C10.132 15.0058 10.2627 14.9797 10.3846 14.9289C10.5064 14.8781 10.617 14.8037 10.71 14.71L13.43 11.99C13.9278 11.4964 14.2314 10.8402 14.2853 10.1413C14.3393 9.44237 14.14 8.74735 13.7239 8.18321C13.3077 7.61907 12.7025 7.22346 12.0188 7.06865C11.3351 6.91384 10.6186 7.01016 10 7.34002V7.34002ZM12 10.57L10 12.57L8 10.57C7.8278 10.3975 7.73108 10.1638 7.73108 9.92002C7.73108 9.67629 7.8278 9.44251 8 9.27002C8.17249 9.09782 8.40626 9.0011 8.65 9.0011C8.89374 9.0011 9.12751 9.09782 9.3 9.27002C9.39296 9.36375 9.50356 9.43814 9.62542 9.48891C9.74728 9.53968 9.87799 9.56582 10.01 9.56582C10.142 9.56582 10.2727 9.53968 10.3946 9.48891C10.5164 9.43814 10.627 9.36375 10.72 9.27002C10.8946 9.10904 11.1248 9.02184 11.3623 9.02667C11.5997 9.0315 11.8261 9.12799 11.9941 9.29594C12.162 9.46389 12.2585 9.6903 12.2634 9.92777C12.2682 10.1652 12.181 10.3954 12.02 10.57H12ZM17 3.00002H10.72L10.4 2.00002C10.1926 1.41325 9.80775 0.905526 9.2989 0.547183C8.79005 0.188841 8.18236 -0.0023769 7.56 2.23036e-05H3C2.20435 2.23036e-05 1.44129 0.316093 0.87868 0.878702C0.316071 1.44131 0 2.20437 0 3.00002V16C0 16.7957 0.316071 17.5587 0.87868 18.1213C1.44129 18.684 2.20435 19 3 19H17C17.7956 19 18.5587 18.684 19.1213 18.1213C19.6839 17.5587 20 16.7957 20 16V6.00002C20 5.20437 19.6839 4.44131 19.1213 3.8787C18.5587 3.31609 17.7956 3.00002 17 3.00002ZM18 16C18 16.2652 17.8946 16.5196 17.7071 16.7071C17.5196 16.8947 17.2652 17 17 17H3C2.73478 17 2.48043 16.8947 2.29289 16.7071C2.10536 16.5196 2 16.2652 2 16V3.00002C2 2.73481 2.10536 2.48045 2.29289 2.29292C2.48043 2.10538 2.73478 2.00002 3 2.00002H7.56C7.76964 1.99948 7.97416 2.06484 8.14463 2.18686C8.3151 2.30889 8.44291 2.4814 8.51 2.68002L9.05 4.32002C9.11709 4.51864 9.2449 4.69116 9.41537 4.81318C9.58584 4.9352 9.79036 5.00056 10 5.00002H17C17.2652 5.00002 17.5196 5.10538 17.7071 5.29292C17.8946 5.48045 18 5.73481 18 6.00002V16Z" fill="var(--fill-0, #1E1F26)"/>
</svg>
