<svg preserveAspectRatio="none" width="100%" height="100%" overflow="visible" style="display: block;" viewBox="0 0 18.9873 18.9708" fill="none" xmlns="http://www.w3.org/2000/svg">
<path id="Vector" d="M7.36079 11.6008L7.21079 11.4808L7.03079 11.3808L6.85079 11.3308C6.69014 11.2986 6.52404 11.3064 6.36711 11.3535C6.21017 11.4006 6.06721 11.4855 5.95079 11.6008C5.85187 11.6914 5.77638 11.8046 5.73079 11.9308C5.67789 12.0505 5.65056 12.1799 5.65056 12.3108C5.65056 12.4417 5.67789 12.5711 5.73079 12.6908C5.83824 12.9311 6.0305 13.1233 6.27079 13.2308C6.39102 13.282 6.52012 13.3092 6.65079 13.3108C6.7846 13.3083 6.91681 13.2812 7.04079 13.2308C7.16267 13.1825 7.27206 13.1073 7.36079 13.0108C7.45433 12.9195 7.52907 12.8108 7.58079 12.6908C7.62861 12.5699 7.65239 12.4408 7.65079 12.3108C7.65417 12.1796 7.62677 12.0495 7.57079 11.9308C7.52498 11.8071 7.4534 11.6947 7.36079 11.6008V11.6008ZM0.990793 6.24079C1.1231 6.24024 1.25398 6.21344 1.37586 6.16195C1.49773 6.11045 1.60818 6.03528 1.70079 5.94079L5.94079 1.70079C6.12704 1.51343 6.23159 1.25998 6.23159 0.995793C6.23159 0.731607 6.12704 0.478155 5.94079 0.290793C5.75343 0.104542 5.49998 0 5.23579 0C4.97161 0 4.71816 0.104542 4.53079 0.290793L0.290793 4.53079C0.104542 4.71816 0 4.97161 0 5.23579C0 5.49998 0.104542 5.75343 0.290793 5.94079C0.475423 6.12921 0.727023 6.23704 0.990793 6.24079V6.24079ZM18.6708 13.0208C18.4834 12.8345 18.23 12.73 17.9658 12.73C17.7016 12.73 17.4482 12.8345 17.2608 13.0208L13.0208 17.2608C12.8804 17.4001 12.7844 17.5778 12.745 17.7717C12.7056 17.9655 12.7246 18.1666 12.7995 18.3496C12.8745 18.5327 13.002 18.6894 13.166 18.7999C13.3299 18.9105 13.523 18.97 13.7208 18.9708C13.8531 18.9702 13.984 18.9434 14.1059 18.8919C14.2277 18.8405 14.3382 18.7653 14.4308 18.6708L18.6708 14.4808C18.7707 14.3873 18.8504 14.2742 18.9048 14.1486C18.9593 14.0231 18.9873 13.8877 18.9873 13.7508C18.9873 13.6139 18.9593 13.4785 18.9048 13.353C18.8504 13.2274 18.7707 13.1143 18.6708 13.0208V13.0208ZM18.8408 7.36079C18.8427 6.56684 18.5299 5.8045 17.9708 5.24079L13.7208 0.990793C13.1485 0.447785 12.3897 0.145071 11.6008 0.145071C10.8119 0.145071 10.0531 0.447785 9.48079 0.990793L0.990793 9.48079C0.428991 10.0433 0.113433 10.8058 0.113433 11.6008C0.113433 12.3958 0.428991 13.1583 0.990793 13.7208L5.24079 17.9708C5.80329 18.5326 6.56579 18.8482 7.36079 18.8482C8.1558 18.8482 8.91829 18.5326 9.48079 17.9708L17.9708 9.48079C18.5299 8.91709 18.8427 8.15474 18.8408 7.36079V7.36079ZM16.5508 8.07079L8.07079 16.5508C7.97783 16.6445 7.86723 16.7189 7.74537 16.7697C7.62351 16.8205 7.4928 16.8466 7.36079 16.8466C7.22878 16.8466 7.09808 16.8205 6.97622 16.7697C6.85436 16.7189 6.74376 16.6445 6.65079 16.5508L2.41079 12.3108C2.31706 12.2178 2.24267 12.1072 2.1919 11.9854C2.14113 11.8635 2.11499 11.7328 2.11499 11.6008C2.11499 11.4688 2.14113 11.3381 2.1919 11.2162C2.24267 11.0944 2.31706 10.9838 2.41079 10.8908L10.8908 2.41079C10.9838 2.31706 11.0944 2.24267 11.2162 2.1919C11.3381 2.14113 11.4688 2.11499 11.6008 2.11499C11.7328 2.11499 11.8635 2.14113 11.9854 2.1919C12.1072 2.24267 12.2178 2.31706 12.3108 2.41079L16.5508 6.65079C16.6445 6.74376 16.7189 6.85436 16.7697 6.97622C16.8205 7.09808 16.8466 7.22878 16.8466 7.36079C16.8466 7.4928 16.8205 7.62351 16.7697 7.74537C16.7189 7.86723 16.6445 7.97783 16.5508 8.07079Z" fill="var(--fill-0, #1E1F26)"/>
</svg>
