<svg preserveAspectRatio="none" width="100%" height="100%" overflow="visible" style="display: block;" viewBox="0 0 20.0084 19.9963" fill="none" xmlns="http://www.w3.org/2000/svg">
<path id="Vector" d="M3.00844 15.9963C2.81065 15.9963 2.61731 16.055 2.45287 16.1649C2.28842 16.2747 2.16024 16.4309 2.08456 16.6136C2.00887 16.7964 1.98906 16.9974 2.02765 17.1914C2.06624 17.3854 2.16148 17.5636 2.30133 17.7034C2.44118 17.8433 2.61936 17.9385 2.81334 17.9771C3.00733 18.0157 3.20839 17.9959 3.39112 17.9202C3.57384 17.8445 3.73002 17.7163 3.8399 17.5519C3.94979 17.3874 4.00844 17.1941 4.00844 16.9963C4.00844 16.7311 3.90308 16.4767 3.71554 16.2892C3.52801 16.1017 3.27365 15.9963 3.00844 15.9963ZM17.0084 11.9963H10.0084C9.74322 11.9963 9.48887 12.1017 9.30133 12.2892C9.11379 12.4767 9.00844 12.7311 9.00844 12.9963C9.00844 13.2615 9.11379 13.5159 9.30133 13.7034C9.48887 13.891 9.74322 13.9963 10.0084 13.9963H17.0084C17.2737 13.9963 17.528 14.1017 17.7155 14.2892C17.9031 14.4767 18.0084 14.7311 18.0084 14.9963C18.0084 15.2615 17.9031 15.5159 17.7155 15.7034C17.528 15.891 17.2737 15.9963 17.0084 15.9963C16.7432 15.9963 16.4889 16.1017 16.3013 16.2892C16.1138 16.4767 16.0084 16.7311 16.0084 16.9963C16.0084 17.2615 16.1138 17.5159 16.3013 17.7034C16.4889 17.891 16.7432 17.9963 17.0084 17.9963C17.8041 17.9963 18.5671 17.6803 19.1298 17.1176C19.6924 16.555 20.0084 15.792 20.0084 14.9963C20.0084 14.2007 19.6924 13.4376 19.1298 12.875C18.5671 12.3124 17.8041 11.9963 17.0084 11.9963ZM12.0084 8.99632C12.0084 9.26154 12.1138 9.51589 12.3013 9.70343C12.4889 9.89096 12.7432 9.99632 13.0084 9.99632H17.0084C17.8041 9.99632 18.5671 9.68025 19.1298 9.11764C19.6924 8.55503 20.0084 7.79197 20.0084 6.99632C20.0084 6.7311 19.9031 6.47675 19.7155 6.28921C19.528 6.10168 19.2737 5.99632 19.0084 5.99632C18.7432 5.99632 18.4889 6.10168 18.3013 6.28921C18.1138 6.47675 18.0084 6.7311 18.0084 6.99632C18.0084 7.26154 17.9031 7.51589 17.7155 7.70343C17.528 7.89096 17.2737 7.99632 17.0084 7.99632H13.0084C12.7432 7.99632 12.4889 8.10168 12.3013 8.28921C12.1138 8.47675 12.0084 8.7311 12.0084 8.99632ZM8.00844 12.9963C8.00844 12.7311 7.90308 12.4767 7.71554 12.2892C7.52801 12.1017 7.27365 11.9963 7.00844 11.9963H4.00844C3.478 11.9963 2.96929 11.7856 2.59422 11.4105C2.21915 11.0355 2.00844 10.5268 2.00844 9.99632C2.00844 9.46589 2.21915 8.95718 2.59422 8.58211C2.96929 8.20703 3.478 7.99632 4.00844 7.99632C4.27365 7.99632 4.52801 7.89096 4.71554 7.70343C4.90308 7.51589 5.00844 7.26154 5.00844 6.99632C5.01099 5.8136 5.43272 4.67007 6.1987 3.7689C6.96469 2.86773 8.02533 2.26727 9.19218 2.07419C10.359 1.88112 11.5566 2.10793 12.572 2.71433C13.5874 3.32073 14.355 4.26746 14.7384 5.38632C14.8233 5.63828 15.0048 5.8462 15.243 5.96435C15.4811 6.08249 15.7565 6.10119 16.0084 6.01632C16.2604 5.93145 16.4683 5.74997 16.5865 5.5118C16.7046 5.27363 16.7233 4.99828 16.6384 4.74632C16.1292 3.24894 15.128 1.96814 13.7977 1.11259C12.4675 0.257045 10.8868 -0.122816 9.3131 0.0349022C7.7394 0.19262 6.26549 0.878621 5.13152 1.98113C3.99754 3.08364 3.27036 4.53767 3.06844 6.10632C2.11502 6.33464 1.27866 6.90515 0.718173 7.70951C0.157689 8.51386 -0.0878807 9.49605 0.0280989 10.4695C0.144078 11.443 0.61353 12.34 1.3473 12.9902C2.08107 13.6403 3.02806 13.9984 4.00844 13.9963H7.00844C7.27365 13.9963 7.52801 13.891 7.71554 13.7034C7.90308 13.5159 8.00844 13.2615 8.00844 12.9963ZM8.00844 8.99632C8.00844 9.1941 8.06708 9.38744 8.17697 9.55189C8.28685 9.71634 8.44303 9.84451 8.62575 9.9202C8.80848 9.99589 9.00954 10.0157 9.20353 9.97711C9.39751 9.93852 9.57569 9.84328 9.71554 9.70343C9.85539 9.56357 9.95064 9.38539 9.98922 9.19141C10.0278 8.99743 10.008 8.79636 9.93231 8.61364C9.85663 8.43091 9.72846 8.27473 9.56401 8.16485C9.39956 8.05497 9.20622 7.99632 9.00844 7.99632C8.74322 7.99632 8.48887 8.10168 8.30133 8.28921C8.11379 8.47675 8.00844 8.7311 8.00844 8.99632ZM12.0084 15.9963H7.00844C6.74322 15.9963 6.48887 16.1017 6.30133 16.2892C6.11379 16.4767 6.00844 16.7311 6.00844 16.9963C6.00844 17.2615 6.11379 17.5159 6.30133 17.7034C6.48887 17.891 6.74322 17.9963 7.00844 17.9963H12.0084C12.2737 17.9963 12.528 18.1017 12.7155 18.2892C12.9031 18.4767 13.0084 18.7311 13.0084 18.9963C13.0084 19.2615 13.1138 19.5159 13.3013 19.7034C13.4889 19.891 13.7432 19.9963 14.0084 19.9963C14.2737 19.9963 14.528 19.891 14.7155 19.7034C14.9031 19.5159 15.0084 19.2615 15.0084 18.9963C15.0084 18.2007 14.6924 17.4376 14.1298 16.875C13.5671 16.3124 12.8041 15.9963 12.0084 15.9963V15.9963Z" fill="var(--fill-0, #1E1F26)"/>
</svg>
