<svg preserveAspectRatio="none" width="100%" height="100%" overflow="visible" style="display: block;" viewBox="0 0 20.0049 19.9999" fill="none" xmlns="http://www.w3.org/2000/svg">
<path id="Vector" d="M19.7141 18.2941L18.1141 16.6941L1.71409 0.294092C1.62085 0.200853 1.51016 0.126892 1.38834 0.0764319C1.26652 0.0259715 1.13595 0 1.00409 0C0.872232 0 0.741664 0.0259715 0.619842 0.0764319C0.49802 0.126892 0.38733 0.200853 0.294092 0.294092C0.105788 0.482395 0 0.73779 0 1.00409C0 1.27039 0.105788 1.52579 0.294092 1.71409L1.69409 3.10409C1.25122 3.63853 1.00737 4.31001 1.00409 5.00409V16.0041C1.00409 16.7997 1.32016 17.5628 1.88277 18.1254C2.44538 18.688 3.20844 19.0041 4.00409 19.0041H16.0041C16.4511 19.0014 16.8918 18.8989 17.2941 18.7041L18.2941 19.7041C18.3871 19.7978 18.4977 19.8722 18.6195 19.923C18.7414 19.9738 18.8721 19.9999 19.0041 19.9999C19.1361 19.9999 19.2668 19.9738 19.3887 19.923C19.5105 19.8722 19.6211 19.7978 19.7141 19.7041C19.9003 19.5167 20.0049 19.2633 20.0049 18.9991C20.0049 18.7349 19.9003 18.4815 19.7141 18.2941ZM4.00409 17.0041C3.73888 17.0041 3.48452 16.8987 3.29699 16.7112C3.10945 16.5237 3.00409 16.2693 3.00409 16.0041V5.00409C3.00653 4.84334 3.0477 4.68555 3.12409 4.54409L15.5941 17.0041H4.00409ZM8.62409 4.00409C8.82216 4.0149 9.01255 4.08438 9.17103 4.20368C9.32951 4.32299 9.44892 4.48673 9.51409 4.67409L10.0541 6.31409C10.1195 6.51458 10.2465 6.68927 10.4172 6.8132C10.5878 6.93712 10.7932 7.00394 11.0041 7.00409H16.0041C16.2693 7.00409 16.5237 7.10945 16.7112 7.29699C16.8987 7.48452 17.0041 7.73887 17.0041 8.00409V12.3441C17.0041 12.6093 17.1094 12.8637 17.297 13.0512C17.4845 13.2387 17.7389 13.3441 18.0041 13.3441C18.2693 13.3441 18.5237 13.2387 18.7112 13.0512C18.8987 12.8637 19.0041 12.6093 19.0041 12.3441V8.00409C19.0041 7.20844 18.688 6.44538 18.1254 5.88277C17.5628 5.32016 16.7997 5.00409 16.0041 5.00409H11.7241L11.4041 4.00409C11.2063 3.44237 10.8459 2.95222 10.3686 2.59605C9.89133 2.23988 9.31886 2.03382 8.72409 2.00409C8.59277 1.99753 8.46144 2.01689 8.3376 2.06108C8.21376 2.10527 8.09984 2.17341 8.00234 2.26163C7.90484 2.34985 7.82567 2.4564 7.76935 2.57521C7.71303 2.69403 7.68066 2.82277 7.67409 2.95409C7.66753 3.08541 7.68689 3.21674 7.73108 3.34058C7.77527 3.46442 7.84341 3.57834 7.93163 3.67584C8.01985 3.77334 8.1264 3.85252 8.24521 3.90884C8.36403 3.96516 8.49277 3.99753 8.62409 4.00409V4.00409Z" fill="var(--fill-0, #1E1F26)"/>
</svg>
