<svg preserveAspectRatio="none" width="100%" height="100%" overflow="visible" style="display: block;" viewBox="0 0 17.9982 19.9982" fill="none" xmlns="http://www.w3.org/2000/svg">
<path id="Vector" d="M16.2882 1.70819C16.3812 1.80191 16.4918 1.87631 16.6136 1.92708C16.7355 1.97785 16.8662 2.00398 16.9982 2.00398C17.1302 2.00398 17.2609 1.97785 17.3828 1.92708C17.5046 1.87631 17.6152 1.80191 17.7082 1.70819C17.7965 1.61099 17.8675 1.49937 17.9182 1.37819C17.9694 1.25796 17.9966 1.12886 17.9982 0.998186C17.9989 0.86658 17.9737 0.736117 17.924 0.61428C17.8742 0.492442 17.8009 0.381626 17.7082 0.288186L17.5582 0.168186C17.5024 0.13034 17.4419 0.100075 17.3782 0.0781863C17.1961 0.0016069 16.9954 -0.0193158 16.8014 0.0180584C16.6074 0.0554325 16.4288 0.149429 16.2882 0.288186C16.1955 0.381626 16.1222 0.492442 16.0724 0.61428C16.0226 0.736117 15.9974 0.86658 15.9982 0.998186C15.9998 1.12886 16.0269 1.25796 16.0782 1.37819C16.1288 1.49937 16.1999 1.61099 16.2882 1.70819V1.70819ZM16.9982 2.99819C16.733 2.99819 16.4786 3.10354 16.2911 3.29108C16.1035 3.47862 15.9982 3.73297 15.9982 3.99819V7.99819C15.9982 8.2634 16.1035 8.51776 16.2911 8.70529C16.4786 8.89283 16.733 8.99819 16.9982 8.99819C17.2634 8.99819 17.5178 8.89283 17.7053 8.70529C17.8928 8.51776 17.9982 8.2634 17.9982 7.99819V3.99819C17.9982 3.73297 17.8928 3.47862 17.7053 3.29108C17.5178 3.10354 17.2634 2.99819 16.9982 2.99819ZM17.0582 10.9982C16.7958 10.9671 16.5317 11.0412 16.3237 11.2042C16.1157 11.3672 15.9807 11.6059 15.9482 11.8682C15.7361 13.5615 14.9127 15.1191 13.6328 16.2479C12.3529 17.3768 10.7048 17.9992 8.99819 17.9982H3.40819L4.04819 17.3682C4.23444 17.1808 4.33898 16.9274 4.33898 16.6632C4.33898 16.399 4.23444 16.1455 4.04819 15.9582C3.06568 14.9797 2.39589 13.7316 2.12377 12.3719C1.85165 11.0123 1.98947 9.60244 2.51973 8.32124C3.05 7.04003 3.94882 5.94517 5.10221 5.17552C6.2556 4.40587 7.61158 3.9961 8.99819 3.99819C10.2243 3.99633 11.4289 4.32077 12.4882 4.93819C12.7138 5.04014 12.9692 5.05479 13.2049 4.97931C13.4407 4.90382 13.6401 4.74357 13.7645 4.52955C13.889 4.31553 13.9296 4.06297 13.8785 3.82073C13.8275 3.57849 13.6884 3.36379 13.4882 3.21819C12.1273 2.41788 10.5769 1.99662 8.99819 1.99819C7.30565 2.00375 5.64899 2.48647 4.21837 3.39092C2.78776 4.29538 1.64118 5.58492 0.910255 7.1115C0.179332 8.63809 -0.106305 10.3398 0.0861309 12.0214C0.278567 13.703 0.941278 15.2962 1.99819 16.6182L0.288186 18.2882C0.149429 18.4288 0.0554325 18.6074 0.0180584 18.8014C-0.0193158 18.9954 0.0016069 19.1961 0.0781863 19.3782C0.153206 19.5608 0.280604 19.7171 0.444325 19.8275C0.608045 19.9378 0.800761 19.9972 0.998186 19.9982H8.99819C11.1912 19.9982 13.3087 19.1975 14.953 17.7465C16.5973 16.2955 17.6553 14.2941 17.9282 12.1182C17.945 11.9875 17.9358 11.8547 17.9011 11.7276C17.8664 11.6004 17.8069 11.4814 17.7261 11.3773C17.6452 11.2732 17.5446 11.1861 17.43 11.1211C17.3154 11.056 17.189 11.0142 17.0582 10.9982Z" fill="var(--fill-0, #1E1F26)"/>
</svg>
