<svg preserveAspectRatio="none" width="100%" height="100%" overflow="visible" style="display: block;" viewBox="0 0 20.0119 19.9967" fill="none" xmlns="http://www.w3.org/2000/svg">
<path id="Vector" d="M19.7309 18.3109L16.0209 14.6309C17.461 12.8353 18.1584 10.5562 17.9697 8.2622C17.781 5.9682 16.7206 3.83368 15.0064 2.29754C13.2923 0.761407 11.0547 -0.0595894 8.75382 0.00337096C6.45294 0.0663314 4.26362 1.00846 2.63604 2.63604C1.00846 4.26362 0.0663314 6.45294 0.00337096 8.75382C-0.0595894 11.0547 0.761407 13.2923 2.29754 15.0064C3.83368 16.7206 5.9682 17.781 8.2622 17.9697C10.5562 18.1584 12.8353 17.461 14.6309 16.0209L18.3109 19.7009C18.4039 19.7946 18.5145 19.869 18.6363 19.9198C18.7582 19.9706 18.8889 19.9967 19.0209 19.9967C19.1529 19.9967 19.2836 19.9706 19.4055 19.9198C19.5273 19.869 19.6379 19.7946 19.7309 19.7009C19.9111 19.5144 20.0119 19.2652 20.0119 19.0059C20.0119 18.7466 19.9111 18.4974 19.7309 18.3109ZM9.0209 16.0209C7.63643 16.0209 6.28305 15.6104 5.13191 14.8412C3.98076 14.072 3.08356 12.9788 2.55374 11.6997C2.02393 10.4206 1.88531 9.01314 2.1554 7.65527C2.4255 6.2974 3.09219 5.05012 4.07115 4.07115C5.05012 3.09219 6.2974 2.4255 7.65527 2.1554C9.01314 1.88531 10.4206 2.02393 11.6997 2.55374C12.9788 3.08356 14.072 3.98076 14.8412 5.13191C15.6104 6.28305 16.0209 7.63643 16.0209 9.0209C16.0209 10.8774 15.2834 12.6579 13.9706 13.9706C12.6579 15.2834 10.8774 16.0209 9.0209 16.0209ZM13.0209 8.0209H5.0209C4.75568 8.0209 4.50133 8.12626 4.31379 8.31379C4.12626 8.50133 4.0209 8.75568 4.0209 9.0209C4.0209 9.28612 4.12626 9.54047 4.31379 9.72801C4.50133 9.91554 4.75568 10.0209 5.0209 10.0209H13.0209C13.2861 10.0209 13.5405 9.91554 13.728 9.72801C13.9155 9.54047 14.0209 9.28612 14.0209 9.0209C14.0209 8.75568 13.9155 8.50133 13.728 8.31379C13.5405 8.12626 13.2861 8.0209 13.0209 8.0209Z" fill="var(--fill-0, #1E1F26)"/>
</svg>
