<svg preserveAspectRatio="none" width="100%" height="100%" overflow="visible" style="display: block;" viewBox="0 0 19.5 19.5" fill="none" xmlns="http://www.w3.org/2000/svg">
<path id="Vector" d="M2.75 7C2.2061 7 1.67442 7.16129 1.22218 7.46346C0.769948 7.76563 0.417474 8.19512 0.209333 8.69762C0.00119154 9.20012 -0.0532676 9.75305 0.0528417 10.2865C0.158951 10.8199 0.420863 11.31 0.805458 11.6945C1.19005 12.0791 1.68005 12.3411 2.2135 12.4472C2.74695 12.5533 3.29988 12.4988 3.80238 12.2907C4.30488 12.0825 4.73437 11.7301 5.03654 11.2778C5.33872 10.8256 5.5 10.2939 5.5 9.75C5.5 9.02066 5.21027 8.32118 4.69455 7.80546C4.17882 7.28973 3.47935 7 2.75 7ZM2.75 11C2.50277 11 2.2611 10.9267 2.05554 10.7893C1.84998 10.652 1.68976 10.4568 1.59515 10.2284C1.50054 9.99995 1.47579 9.74861 1.52402 9.50614C1.57225 9.26366 1.6913 9.04093 1.86612 8.86612C2.04093 8.6913 2.26366 8.57225 2.50614 8.52402C2.74861 8.47579 2.99995 8.50054 3.22836 8.59515C3.45676 8.68976 3.65199 8.84998 3.78934 9.05554C3.92669 9.2611 4 9.50277 4 9.75C4 10.0815 3.86831 10.3995 3.63388 10.6339C3.39946 10.8683 3.08152 11 2.75 11V11ZM9.75 7C9.2061 7 8.67442 7.16129 8.22218 7.46346C7.76995 7.76563 7.41747 8.19512 7.20933 8.69762C7.00119 9.20012 6.94673 9.75305 7.05284 10.2865C7.15895 10.8199 7.42086 11.31 7.80546 11.6945C8.19005 12.0791 8.68006 12.3411 9.2135 12.4472C9.74695 12.5533 10.2999 12.4988 10.8024 12.2907C11.3049 12.0825 11.7344 11.7301 12.0365 11.2778C12.3387 10.8256 12.5 10.2939 12.5 9.75C12.5 9.02066 12.2103 8.32118 11.6945 7.80546C11.1788 7.28973 10.4793 7 9.75 7ZM9.75 11C9.50277 11 9.2611 10.9267 9.05554 10.7893C8.84998 10.652 8.68976 10.4568 8.59515 10.2284C8.50054 9.99995 8.47579 9.74861 8.52402 9.50614C8.57225 9.26366 8.6913 9.04093 8.86612 8.86612C9.04093 8.6913 9.26366 8.57225 9.50614 8.52402C9.74861 8.47579 9.99995 8.50054 10.2284 8.59515C10.4568 8.68976 10.652 8.84998 10.7893 9.05554C10.9267 9.2611 11 9.50277 11 9.75C11 10.0815 10.8683 10.3995 10.6339 10.6339C10.3995 10.8683 10.0815 11 9.75 11V11ZM16.75 5.5C17.2939 5.5 17.8256 5.33872 18.2778 5.03654C18.7301 4.73437 19.0825 4.30488 19.2907 3.80238C19.4988 3.29988 19.5533 2.74695 19.4472 2.2135C19.3411 1.68005 19.0791 1.19005 18.6945 0.805458C18.31 0.420863 17.8199 0.158951 17.2865 0.0528417C16.7531 -0.0532676 16.2001 0.00119154 15.6976 0.209333C15.1951 0.417474 14.7656 0.769948 14.4635 1.22218C14.1613 1.67442 14 2.2061 14 2.75C14 3.47935 14.2897 4.17882 14.8055 4.69455C15.3212 5.21027 16.0207 5.5 16.75 5.5ZM16.75 1.5C16.9972 1.5 17.2389 1.57331 17.4445 1.71066C17.65 1.84802 17.8102 2.04324 17.9049 2.27165C17.9995 2.50005 18.0242 2.75139 17.976 2.99386C17.9278 3.23634 17.8087 3.45907 17.6339 3.63388C17.4591 3.8087 17.2363 3.92775 16.9939 3.97598C16.7514 4.02421 16.5001 3.99946 16.2716 3.90485C16.0432 3.81024 15.848 3.65003 15.7107 3.44446C15.5733 3.2389 15.5 2.99723 15.5 2.75C15.5 2.41848 15.6317 2.10054 15.8661 1.86612C16.1005 1.6317 16.4185 1.5 16.75 1.5ZM16.75 7C16.2061 7 15.6744 7.16129 15.2222 7.46346C14.7699 7.76563 14.4175 8.19512 14.2093 8.69762C14.0012 9.20012 13.9467 9.75305 14.0528 10.2865C14.159 10.8199 14.4209 11.31 14.8055 11.6945C15.1901 12.0791 15.6801 12.3411 16.2135 12.4472C16.747 12.5533 17.2999 12.4988 17.8024 12.2907C18.3049 12.0825 18.7344 11.7301 19.0365 11.2778C19.3387 10.8256 19.5 10.2939 19.5 9.75C19.5 9.02066 19.2103 8.32118 18.6945 7.80546C18.1788 7.28973 17.4793 7 16.75 7ZM16.75 11C16.5028 11 16.2611 10.9267 16.0555 10.7893C15.85 10.652 15.6898 10.4568 15.5952 10.2284C15.5005 9.99995 15.4758 9.74861 15.524 9.50614C15.5723 9.26366 15.6913 9.04093 15.8661 8.86612C16.0409 8.6913 16.2637 8.57225 16.5061 8.52402C16.7486 8.47579 16.9999 8.50054 17.2284 8.59515C17.4568 8.68976 17.652 8.84998 17.7893 9.05554C17.9267 9.2611 18 9.50277 18 9.75C18 10.0815 17.8683 10.3995 17.6339 10.6339C17.3995 10.8683 17.0815 11 16.75 11V11ZM2.75 1.2434e-06C2.2061 1.2434e-06 1.67442 0.161286 1.22218 0.46346C0.769948 0.765634 0.417474 1.19513 0.209333 1.69762C0.00119154 2.20012 -0.0532676 2.75305 0.0528417 3.2865C0.158951 3.81995 0.420863 4.30995 0.805458 4.69455C1.19005 5.07914 1.68005 5.34105 2.2135 5.44716C2.74695 5.55327 3.29988 5.49881 3.80238 5.29067C4.30488 5.08253 4.73437 4.73005 5.03654 4.27782C5.33872 3.82558 5.5 3.2939 5.5 2.75C5.5 2.02066 5.21027 1.32118 4.69455 0.805458C4.17882 0.289733 3.47935 1.2434e-06 2.75 1.2434e-06ZM2.75 4C2.50277 4 2.2611 3.92669 2.05554 3.78934C1.84998 3.65199 1.68976 3.45676 1.59515 3.22836C1.50054 2.99995 1.47579 2.74861 1.52402 2.50614C1.57225 2.26366 1.6913 2.04093 1.86612 1.86612C2.04093 1.6913 2.26366 1.57225 2.50614 1.52402C2.74861 1.47579 2.99995 1.50054 3.22836 1.59515C3.45676 1.68976 3.65199 1.84998 3.78934 2.05554C3.92669 2.2611 4 2.50277 4 2.75C4 3.08152 3.86831 3.39946 3.63388 3.63388C3.39946 3.86831 3.08152 4 2.75 4ZM9.75 14C9.2061 14 8.67442 14.1613 8.22218 14.4635C7.76995 14.7656 7.41747 15.1951 7.20933 15.6976C7.00119 16.2001 6.94673 16.7531 7.05284 17.2865C7.15895 17.8199 7.42086 18.31 7.80546 18.6945C8.19005 19.0791 8.68006 19.3411 9.2135 19.4472C9.74695 19.5533 10.2999 19.4988 10.8024 19.2907C11.3049 19.0825 11.7344 18.7301 12.0365 18.2778C12.3387 17.8256 12.5 17.2939 12.5 16.75C12.5 16.0207 12.2103 15.3212 11.6945 14.8055C11.1788 14.2897 10.4793 14 9.75 14ZM9.75 18C9.50277 18 9.2611 17.9267 9.05554 17.7893C8.84998 17.652 8.68976 17.4568 8.59515 17.2284C8.50054 16.9999 8.47579 16.7486 8.52402 16.5061C8.57225 16.2637 8.6913 16.0409 8.86612 15.8661C9.04093 15.6913 9.26366 15.5723 9.50614 15.524C9.74861 15.4758 9.99995 15.5005 10.2284 15.5952C10.4568 15.6898 10.652 15.85 10.7893 16.0555C10.9267 16.2611 11 16.5028 11 16.75C11 17.0815 10.8683 17.3995 10.6339 17.6339C10.3995 17.8683 10.0815 18 9.75 18V18ZM9.75 1.2434e-06C9.2061 1.2434e-06 8.67442 0.161286 8.22218 0.46346C7.76995 0.765634 7.41747 1.19513 7.20933 1.69762C7.00119 2.20012 6.94673 2.75305 7.05284 3.2865C7.15895 3.81995 7.42086 4.30995 7.80546 4.69455C8.19005 5.07914 8.68006 5.34105 9.2135 5.44716C9.74695 5.55327 10.2999 5.49881 10.8024 5.29067C11.3049 5.08253 11.7344 4.73005 12.0365 4.27782C12.3387 3.82558 12.5 3.2939 12.5 2.75C12.5 2.02066 12.2103 1.32118 11.6945 0.805458C11.1788 0.289733 10.4793 1.2434e-06 9.75 1.2434e-06ZM9.75 4C9.50277 4 9.2611 3.92669 9.05554 3.78934C8.84998 3.65199 8.68976 3.45676 8.59515 3.22836C8.50054 2.99995 8.47579 2.74861 8.52402 2.50614C8.57225 2.26366 8.6913 2.04093 8.86612 1.86612C9.04093 1.6913 9.26366 1.57225 9.50614 1.52402C9.74861 1.47579 9.99995 1.50054 10.2284 1.59515C10.4568 1.68976 10.652 1.84998 10.7893 2.05554C10.9267 2.2611 11 2.50277 11 2.75C11 3.08152 10.8683 3.39946 10.6339 3.63388C10.3995 3.86831 10.0815 4 9.75 4V4Z" fill="var(--fill-0, #1E1F26)"/>
</svg>
