<svg preserveAspectRatio="none" width="100%" height="100%" overflow="visible" style="display: block;" viewBox="0 0 18 18" fill="none" xmlns="http://www.w3.org/2000/svg">
<path id="Vector" d="M9 10C9.19778 10 9.39112 9.94135 9.55557 9.83147C9.72002 9.72159 9.84819 9.56541 9.92388 9.38268C9.99957 9.19996 10.0194 8.99889 9.98079 8.80491C9.9422 8.61093 9.84696 8.43275 9.70711 8.29289C9.56725 8.15304 9.38907 8.0578 9.19509 8.01922C9.00111 7.98063 8.80004 8.00043 8.61732 8.07612C8.43459 8.15181 8.27841 8.27998 8.16853 8.44443C8.05865 8.60888 8 8.80222 8 9C8 9.26522 8.10536 9.51957 8.29289 9.70711C8.48043 9.89464 8.73478 10 9 10ZM9 14C9.19778 14 9.39112 13.9414 9.55557 13.8315C9.72002 13.7216 9.84819 13.5654 9.92388 13.3827C9.99957 13.2 10.0194 12.9989 9.98079 12.8049C9.9422 12.6109 9.84696 12.4327 9.70711 12.2929C9.56725 12.153 9.38907 12.0578 9.19509 12.0192C9.00111 11.9806 8.80004 12.0004 8.61732 12.0761C8.43459 12.1518 8.27841 12.28 8.16853 12.4444C8.05865 12.6089 8 12.8022 8 13C8 13.2652 8.10536 13.5196 8.29289 13.7071C8.48043 13.8946 8.73478 14 9 14ZM9 6C9.19778 6 9.39112 5.94135 9.55557 5.83147C9.72002 5.72159 9.84819 5.56541 9.92388 5.38268C9.99957 5.19996 10.0194 4.99889 9.98079 4.80491C9.9422 4.61093 9.84696 4.43275 9.70711 4.29289C9.56725 4.15304 9.38907 4.0578 9.19509 4.01922C9.00111 3.98063 8.80004 4.00043 8.61732 4.07612C8.43459 4.15181 8.27841 4.27998 8.16853 4.44443C8.05865 4.60888 8 4.80222 8 5C8 5.26522 8.10536 5.51957 8.29289 5.70711C8.48043 5.89464 8.73478 6 9 6ZM5 2C5.19778 2 5.39112 1.94135 5.55557 1.83147C5.72002 1.72159 5.84819 1.56541 5.92388 1.38268C5.99957 1.19996 6.01937 0.998891 5.98079 0.80491C5.9422 0.610929 5.84696 0.432746 5.70711 0.292894C5.56725 0.153041 5.38907 0.0578004 5.19509 0.0192152C5.00111 -0.0193701 4.80004 0.000433282 4.61732 0.0761209C4.43459 0.151809 4.27841 0.279981 4.16853 0.44443C4.05865 0.60888 4 0.802219 4 1C4 1.26522 4.10536 1.51957 4.29289 1.70711C4.48043 1.89464 4.73478 2 5 2ZM5 10C5.19778 10 5.39112 9.94135 5.55557 9.83147C5.72002 9.72159 5.84819 9.56541 5.92388 9.38268C5.99957 9.19996 6.01937 8.99889 5.98079 8.80491C5.9422 8.61093 5.84696 8.43275 5.70711 8.29289C5.56725 8.15304 5.38907 8.0578 5.19509 8.01922C5.00111 7.98063 4.80004 8.00043 4.61732 8.07612C4.43459 8.15181 4.27841 8.27998 4.16853 8.44443C4.05865 8.60888 4 8.80222 4 9C4 9.26522 4.10536 9.51957 4.29289 9.70711C4.48043 9.89464 4.73478 10 5 10ZM17 2C17.1978 2 17.3911 1.94135 17.5556 1.83147C17.72 1.72159 17.8482 1.56541 17.9239 1.38268C17.9996 1.19996 18.0194 0.998891 17.9808 0.80491C17.9422 0.610929 17.847 0.432746 17.7071 0.292894C17.5673 0.153041 17.3891 0.0578004 17.1951 0.0192152C17.0011 -0.0193701 16.8 0.000433282 16.6173 0.0761209C16.4346 0.151809 16.2784 0.279981 16.1685 0.44443C16.0586 0.60888 16 0.802219 16 1C16 1.26522 16.1054 1.51957 16.2929 1.70711C16.4804 1.89464 16.7348 2 17 2ZM13 10C13.1978 10 13.3911 9.94135 13.5556 9.83147C13.72 9.72159 13.8482 9.56541 13.9239 9.38268C13.9996 9.19996 14.0194 8.99889 13.9808 8.80491C13.9422 8.61093 13.847 8.43275 13.7071 8.29289C13.5673 8.15304 13.3891 8.0578 13.1951 8.01922C13.0011 7.98063 12.8 8.00043 12.6173 8.07612C12.4346 8.15181 12.2784 8.27998 12.1685 8.44443C12.0586 8.60888 12 8.80222 12 9C12 9.26522 12.1054 9.51957 12.2929 9.70711C12.4804 9.89464 12.7348 10 13 10ZM9 2C9.19778 2 9.39112 1.94135 9.55557 1.83147C9.72002 1.72159 9.84819 1.56541 9.92388 1.38268C9.99957 1.19996 10.0194 0.998891 9.98079 0.80491C9.9422 0.610929 9.84696 0.432746 9.70711 0.292894C9.56725 0.153041 9.38907 0.0578004 9.19509 0.0192152C9.00111 -0.0193701 8.80004 0.000433282 8.61732 0.0761209C8.43459 0.151809 8.27841 0.279981 8.16853 0.44443C8.05865 0.60888 8 0.802219 8 1C8 1.26522 8.10536 1.51957 8.29289 1.70711C8.48043 1.89464 8.73478 2 9 2ZM13 2C13.1978 2 13.3911 1.94135 13.5556 1.83147C13.72 1.72159 13.8482 1.56541 13.9239 1.38268C13.9996 1.19996 14.0194 0.998891 13.9808 0.80491C13.9422 0.610929 13.847 0.432746 13.7071 0.292894C13.5673 0.153041 13.3891 0.0578004 13.1951 0.0192152C13.0011 -0.0193701 12.8 0.000433282 12.6173 0.0761209C12.4346 0.151809 12.2784 0.279981 12.1685 0.44443C12.0586 0.60888 12 0.802219 12 1C12 1.26522 12.1054 1.51957 12.2929 1.70711C12.4804 1.89464 12.7348 2 13 2ZM17 12C16.8022 12 16.6089 12.0587 16.4444 12.1685C16.28 12.2784 16.1518 12.4346 16.0761 12.6173C16.0004 12.8 15.9806 13.0011 16.0192 13.1951C16.0578 13.3891 16.153 13.5673 16.2929 13.7071C16.4327 13.847 16.6109 13.9422 16.8049 13.9808C16.9989 14.0194 17.2 13.9996 17.3827 13.9239C17.5654 13.8482 17.7216 13.72 17.8315 13.5556C17.9414 13.3911 18 13.1978 18 13C18 12.7348 17.8946 12.4804 17.7071 12.2929C17.5196 12.1054 17.2652 12 17 12ZM17 8C16.8022 8 16.6089 8.05865 16.4444 8.16853C16.28 8.27841 16.1518 8.43459 16.0761 8.61732C16.0004 8.80004 15.9806 9.00111 16.0192 9.19509C16.0578 9.38907 16.153 9.56726 16.2929 9.70711C16.4327 9.84696 16.6109 9.9422 16.8049 9.98079C16.9989 10.0194 17.2 9.99957 17.3827 9.92388C17.5654 9.84819 17.7216 9.72002 17.8315 9.55557C17.9414 9.39112 18 9.19778 18 9C18 8.73478 17.8946 8.48043 17.7071 8.29289C17.5196 8.10536 17.2652 8 17 8ZM17 16H1C0.734784 16 0.48043 16.1054 0.292893 16.2929C0.105357 16.4804 0 16.7348 0 17C0 17.2652 0.105357 17.5196 0.292893 17.7071C0.48043 17.8946 0.734784 18 1 18H17C17.2652 18 17.5196 17.8946 17.7071 17.7071C17.8946 17.5196 18 17.2652 18 17C18 16.7348 17.8946 16.4804 17.7071 16.2929C17.5196 16.1054 17.2652 16 17 16ZM17 4C16.8022 4 16.6089 4.05865 16.4444 4.16853C16.28 4.27841 16.1518 4.43459 16.0761 4.61732C16.0004 4.80004 15.9806 5.00111 16.0192 5.19509C16.0578 5.38907 16.153 5.56725 16.2929 5.70711C16.4327 5.84696 16.6109 5.9422 16.8049 5.98079C16.9989 6.01937 17.2 5.99957 17.3827 5.92388C17.5654 5.84819 17.7216 5.72002 17.8315 5.55557C17.9414 5.39112 18 5.19778 18 5C18 4.73478 17.8946 4.48043 17.7071 4.29289C17.5196 4.10536 17.2652 4 17 4ZM1 10C1.19778 10 1.39112 9.94135 1.55557 9.83147C1.72002 9.72159 1.84819 9.56541 1.92388 9.38268C1.99957 9.19996 2.01937 8.99889 1.98079 8.80491C1.9422 8.61093 1.84696 8.43275 1.70711 8.29289C1.56725 8.15304 1.38907 8.0578 1.19509 8.01922C1.00111 7.98063 0.800043 8.00043 0.617316 8.07612C0.43459 8.15181 0.278412 8.27998 0.16853 8.44443C0.0586491 8.60888 0 8.80222 0 9C0 9.26522 0.105357 9.51957 0.292893 9.70711C0.48043 9.89464 0.734784 10 1 10ZM1 6C1.19778 6 1.39112 5.94135 1.55557 5.83147C1.72002 5.72159 1.84819 5.56541 1.92388 5.38268C1.99957 5.19996 2.01937 4.99889 1.98079 4.80491C1.9422 4.61093 1.84696 4.43275 1.70711 4.29289C1.56725 4.15304 1.38907 4.0578 1.19509 4.01922C1.00111 3.98063 0.800043 4.00043 0.617316 4.07612C0.43459 4.15181 0.278412 4.27998 0.16853 4.44443C0.0586491 4.60888 0 4.80222 0 5C0 5.26522 0.105357 5.51957 0.292893 5.70711C0.48043 5.89464 0.734784 6 1 6ZM1 14C1.19778 14 1.39112 13.9414 1.55557 13.8315C1.72002 13.7216 1.84819 13.5654 1.92388 13.3827C1.99957 13.2 2.01937 12.9989 1.98079 12.8049C1.9422 12.6109 1.84696 12.4327 1.70711 12.2929C1.56725 12.153 1.38907 12.0578 1.19509 12.0192C1.00111 11.9806 0.800043 12.0004 0.617316 12.0761C0.43459 12.1518 0.278412 12.28 0.16853 12.4444C0.0586491 12.6089 0 12.8022 0 13C0 13.2652 0.105357 13.5196 0.292893 13.7071C0.48043 13.8946 0.734784 14 1 14ZM1 2C1.19778 2 1.39112 1.94135 1.55557 1.83147C1.72002 1.72159 1.84819 1.56541 1.92388 1.38268C1.99957 1.19996 2.01937 0.998891 1.98079 0.80491C1.9422 0.610929 1.84696 0.432746 1.70711 0.292894C1.56725 0.153041 1.38907 0.0578004 1.19509 0.0192152C1.00111 -0.0193701 0.800043 0.000433282 0.617316 0.0761209C0.43459 0.151809 0.278412 0.279981 0.16853 0.44443C0.0586491 0.60888 0 0.802219 0 1C0 1.26522 0.105357 1.51957 0.292893 1.70711C0.48043 1.89464 0.734784 2 1 2Z" fill="var(--fill-0, #1E1F26)"/>
</svg>
