<svg preserveAspectRatio="none" width="100%" height="100%" overflow="visible" style="display: block;" viewBox="0 0 20 19" fill="none" xmlns="http://www.w3.org/2000/svg">
<path id="Vector" d="M19 12C18.7348 12 18.4804 12.1054 18.2929 12.2929C18.1054 12.4804 18 12.7348 18 13V16C18 16.2652 17.8946 16.5196 17.7071 16.7071C17.5196 16.8946 17.2652 17 17 17H3C2.73478 17 2.48043 16.8946 2.29289 16.7071C2.10536 16.5196 2 16.2652 2 16V6.41L7.88 12.3C8.43878 12.8542 9.19298 13.1667 9.98 13.17C10.4792 13.1708 10.9707 13.0471 11.41 12.81C11.5258 12.7472 11.628 12.6621 11.7109 12.5597C11.7937 12.4573 11.8555 12.3395 11.8926 12.2131C11.9298 12.0868 11.9416 11.9543 11.9274 11.8233C11.9133 11.6924 11.8734 11.5655 11.81 11.45C11.7472 11.3342 11.6621 11.232 11.5597 11.1491C11.4573 11.0663 11.3395 11.0045 11.2131 10.9674C11.0868 10.9302 10.9543 10.9184 10.8233 10.9326C10.6924 10.9467 10.5655 10.9866 10.45 11.05C10.2645 11.145 10.0539 11.1798 9.84776 11.1493C9.64157 11.1188 9.45006 11.0246 9.3 10.88L3.41 5H10C10.2652 5 10.5196 4.89464 10.7071 4.70711C10.8946 4.51957 11 4.26522 11 4C11 3.73478 10.8946 3.48043 10.7071 3.29289C10.5196 3.10536 10.2652 3 10 3H3C2.20435 3 1.44129 3.31607 0.87868 3.87868C0.316071 4.44129 0 5.20435 0 6V16C0 16.7956 0.316071 17.5587 0.87868 18.1213C1.44129 18.6839 2.20435 19 3 19H17C17.7956 19 18.5587 18.6839 19.1213 18.1213C19.6839 17.5587 20 16.7956 20 16V13C20 12.7348 19.8946 12.4804 19.7071 12.2929C19.5196 12.1054 19.2652 12 19 12V12ZM19 0H14C13.7348 0 13.4804 0.105357 13.2929 0.292893C13.1054 0.48043 13 0.734784 13 1V9C13.0003 9.18243 13.0505 9.3613 13.1452 9.51725C13.2398 9.6732 13.3753 9.80028 13.537 9.88474C13.6988 9.9692 13.8805 10.0078 14.0625 9.9964C14.2446 9.98499 14.4201 9.92399 14.57 9.82L16.5 8.53L18.41 9.81C18.5833 9.9307 18.7888 9.99687 19 10C19.1415 9.99934 19.2812 9.96867 19.41 9.91C19.5854 9.83113 19.7344 9.70333 19.8391 9.54193C19.9437 9.38052 19.9996 9.19236 20 9V1C20 0.734784 19.8946 0.48043 19.7071 0.292893C19.5196 0.105357 19.2652 0 19 0ZM18 7.12L17.06 6.49C16.8946 6.37822 16.6996 6.31849 16.5 6.31849C16.3004 6.31849 16.1054 6.37822 15.94 6.49L15 7.12V2H18V7.12Z" fill="var(--fill-0, #1E1F26)"/>
</svg>
