<svg preserveAspectRatio="none" width="100%" height="100%" overflow="visible" style="display: block;" viewBox="0 0 14 20" fill="none" xmlns="http://www.w3.org/2000/svg">
<path id="Vector" d="M7 0C5.14348 0 3.36301 0.737498 2.05025 2.05025C0.737498 3.36301 0 5.14348 0 7V13C2.76642e-08 14.8565 0.737498 16.637 2.05025 17.9497C3.36301 19.2625 5.14348 20 7 20C8.85652 20 10.637 19.2625 11.9497 17.9497C13.2625 16.637 14 14.8565 14 13V7C14 5.14348 13.2625 3.36301 11.9497 2.05025C10.637 0.737498 8.85652 0 7 0V0ZM12 13C12 14.3261 11.4732 15.5979 10.5355 16.5355C9.59785 17.4732 8.32608 18 7 18C5.67392 18 4.40215 17.4732 3.46447 16.5355C2.52678 15.5979 2 14.3261 2 13V7C1.99976 5.84735 2.39778 4.73001 3.12669 3.8371C3.8556 2.94418 4.87064 2.33053 6 2.1V10C6 10.2652 6.10536 10.5196 6.29289 10.7071C6.48043 10.8946 6.73478 11 7 11C7.26522 11 7.51957 10.8946 7.70711 10.7071C7.89464 10.5196 8 10.2652 8 10V2.1C9.12936 2.33053 10.1444 2.94418 10.8733 3.8371C11.6022 4.73001 12.0002 5.84735 12 7V13Z" fill="var(--fill-0, #1E1F26)"/>
</svg>
