<svg preserveAspectRatio="none" width="100%" height="100%" overflow="visible" style="display: block;" viewBox="0 0 20.002 14" fill="none" xmlns="http://www.w3.org/2000/svg">
<path id="Vector" d="M7.00196 0C6.73674 0 6.48239 0.105357 6.29485 0.292893C6.10731 0.48043 6.00196 0.734784 6.00196 1V13C6.00196 13.2652 6.10731 13.5196 6.29485 13.7071C6.48239 13.8946 6.73674 14 7.00196 14C7.26717 14 7.52153 13.8946 7.70906 13.7071C7.8966 13.5196 8.00196 13.2652 8.00196 13V1C8.00196 0.734784 7.8966 0.48043 7.70906 0.292893C7.52153 0.105357 7.26717 0 7.00196 0ZM11.002 2H19.002C19.2672 2 19.5215 1.89464 19.7091 1.70711C19.8966 1.51957 20.002 1.26522 20.002 1C20.002 0.734784 19.8966 0.48043 19.7091 0.292893C19.5215 0.105357 19.2672 0 19.002 0H11.002C10.7367 0 10.4824 0.105357 10.2948 0.292893C10.1073 0.48043 10.002 0.734784 10.002 1C10.002 1.26522 10.1073 1.51957 10.2948 1.70711C10.4824 1.89464 10.7367 2 11.002 2V2ZM3.77196 4.69C3.68801 4.58874 3.58491 4.50504 3.46856 4.44369C3.35221 4.38234 3.2249 4.34454 3.09393 4.33246C2.96295 4.32039 2.83088 4.33427 2.70527 4.37331C2.57967 4.41236 2.463 4.4758 2.36196 4.56L0.361956 6.23C0.248715 6.32383 0.157566 6.44149 0.0950016 6.57458C0.0324376 6.70768 0 6.85293 0 7C0 7.14707 0.0324376 7.29232 0.0950016 7.42542C0.157566 7.55851 0.248715 7.67617 0.361956 7.77L2.36196 9.44C2.463 9.5242 2.57967 9.58764 2.70527 9.62669C2.83088 9.66573 2.96295 9.67961 3.09393 9.66754C3.2249 9.65546 3.35221 9.61766 3.46856 9.55631C3.58491 9.49496 3.68801 9.41126 3.77196 9.31C3.85616 9.20895 3.9196 9.09229 3.95864 8.96668C3.99769 8.84108 4.01157 8.70901 3.99949 8.57803C3.98742 8.44705 3.94962 8.31974 3.88827 8.2034C3.82692 8.08705 3.74321 7.98395 3.64196 7.9L2.56196 7L3.64196 6.1C3.74321 6.01605 3.82692 5.91295 3.88827 5.7966C3.94962 5.68026 3.98742 5.55295 3.99949 5.42197C4.01157 5.29099 3.99769 5.15892 3.95864 5.03332C3.9196 4.90771 3.85616 4.79105 3.77196 4.69ZM19.002 4H11.002C10.7367 4 10.4824 4.10536 10.2948 4.29289C10.1073 4.48043 10.002 4.73478 10.002 5C10.002 5.26522 10.1073 5.51957 10.2948 5.70711C10.4824 5.89464 10.7367 6 11.002 6H19.002C19.2672 6 19.5215 5.89464 19.7091 5.70711C19.8966 5.51957 20.002 5.26522 20.002 5C20.002 4.73478 19.8966 4.48043 19.7091 4.29289C19.5215 4.10536 19.2672 4 19.002 4ZM19.002 8H11.002C10.7367 8 10.4824 8.10536 10.2948 8.29289C10.1073 8.48043 10.002 8.73478 10.002 9C10.002 9.26522 10.1073 9.51957 10.2948 9.70711C10.4824 9.89464 10.7367 10 11.002 10H19.002C19.2672 10 19.5215 9.89464 19.7091 9.70711C19.8966 9.51957 20.002 9.26522 20.002 9C20.002 8.73478 19.8966 8.48043 19.7091 8.29289C19.5215 8.10536 19.2672 8 19.002 8ZM19.002 12H11.002C10.7367 12 10.4824 12.1054 10.2948 12.2929C10.1073 12.4804 10.002 12.7348 10.002 13C10.002 13.2652 10.1073 13.5196 10.2948 13.7071C10.4824 13.8946 10.7367 14 11.002 14H19.002C19.2672 14 19.5215 13.8946 19.7091 13.7071C19.8966 13.5196 20.002 13.2652 20.002 13C20.002 12.7348 19.8966 12.4804 19.7091 12.2929C19.5215 12.1054 19.2672 12 19.002 12Z" fill="var(--fill-0, #1E1F26)"/>
</svg>
