<svg preserveAspectRatio="none" width="100%" height="100%" overflow="visible" style="display: block;" viewBox="0 0 19.9814 15.4202" fill="none" xmlns="http://www.w3.org/2000/svg">
<path id="Vector" d="M19.71 9.08C19.617 8.98627 19.5064 8.91188 19.3846 8.86111C19.2627 8.81034 19.132 8.7842 19 8.7842C18.868 8.7842 18.7373 8.81034 18.6154 8.86111C18.4936 8.91188 18.383 8.98627 18.29 9.08L15.37 12V4C15.37 2.93913 14.9486 1.92172 14.1984 1.17157C13.4483 0.421427 12.4309 0 11.37 0H1C0.734784 0 0.48043 0.105357 0.292893 0.292893C0.105357 0.48043 0 0.734784 0 1C0 1.26522 0.105357 1.51957 0.292893 1.70711C0.48043 1.89464 0.734784 2 1 2H11.37C11.9004 2 12.4091 2.21071 12.7842 2.58579C13.1593 2.96086 13.37 3.46957 13.37 4V12L10.45 9.08C10.263 8.88772 10.0073 8.77759 9.73914 8.77384C9.47097 8.77009 9.21228 8.87302 9.02 9.06C8.82772 9.24698 8.71759 9.50268 8.71384 9.77086C8.71009 10.039 8.81302 10.2977 9 10.49L13.62 15.12C13.7169 15.2113 13.8285 15.2856 13.95 15.34C14.0697 15.3929 14.1991 15.4202 14.33 15.4202C14.4609 15.4202 14.5903 15.3929 14.71 15.34C14.8336 15.2894 14.9458 15.2146 15.04 15.12L19.67 10.49C19.8617 10.308 19.9735 10.0575 19.981 9.79325C19.9885 9.52904 19.891 9.2726 19.71 9.08Z" fill="var(--fill-0, #1E1F26)"/>
</svg>
