<svg preserveAspectRatio="none" width="100%" height="100%" overflow="visible" style="display: block;" viewBox="0 0 19.7969 19.8018" fill="none" xmlns="http://www.w3.org/2000/svg">
<path id="Vector" d="M11.832 4.33981C11.6926 4.11467 11.4696 3.954 11.2119 3.89306C10.9542 3.83212 10.6828 3.87588 10.4573 4.01474C10.2318 4.1536 10.0706 4.37623 10.0091 4.63379C9.94749 4.89135 9.99059 5.16282 10.1289 5.38864C10.3057 5.67478 10.4941 5.95603 10.6943 6.23239C10.8503 6.44631 11.0847 6.58965 11.3462 6.63098C11.6077 6.67232 11.8749 6.60827 12.0892 6.45288C12.3036 6.29749 12.4475 6.06345 12.4896 5.80207C12.5316 5.5407 12.4683 5.27332 12.3135 5.05856C12.1426 4.82322 11.9821 4.58363 11.832 4.33981ZM9.10253 13.5615C9.02456 13.4558 8.92653 13.3665 8.81406 13.2987C8.70158 13.231 8.57685 13.186 8.447 13.1664C8.31714 13.1468 8.1847 13.153 8.05723 13.1846C7.92976 13.2162 7.80976 13.2726 7.70409 13.3506C7.59841 13.4285 7.50913 13.5265 7.44134 13.639C7.37355 13.7515 7.32858 13.8762 7.30899 14.0061C7.2894 14.1359 7.29559 14.2684 7.32718 14.3959C7.35878 14.5233 7.41518 14.6433 7.49315 14.749C7.66307 14.9785 7.8203 15.2158 7.96873 15.458C8.03747 15.57 8.12758 15.6673 8.23393 15.7444C8.34028 15.8215 8.46079 15.877 8.58856 15.9075C8.71633 15.9381 8.84887 15.9432 8.97861 15.9225C9.10835 15.9019 9.23275 15.8558 9.3447 15.7871C9.45666 15.7184 9.55398 15.6282 9.63111 15.5219C9.70824 15.4155 9.76367 15.295 9.79423 15.1673C9.82479 15.0395 9.82989 14.907 9.80922 14.7772C9.78856 14.6475 9.74255 14.5231 9.67381 14.4111C9.49609 14.122 9.30566 13.8379 9.10253 13.5615V13.5615ZM5.39553 10.1328C5.28357 10.0642 5.1592 10.0183 5.02951 9.99774C4.89981 9.9772 4.76735 9.9824 4.63967 10.0131C4.51199 10.0437 4.39159 10.0992 4.28536 10.1764C4.17913 10.2536 4.08914 10.3509 4.02053 10.4629C3.95192 10.5748 3.90603 10.6992 3.88549 10.8289C3.86494 10.9586 3.87015 11.091 3.9008 11.2187C3.93145 11.3464 3.98695 11.4668 4.06413 11.573C4.1413 11.6793 4.23865 11.7693 4.35061 11.8379C4.5928 11.9863 4.83043 12.1458 5.0635 12.3164C5.16966 12.3942 5.29013 12.4503 5.41801 12.4815C5.54589 12.5126 5.67866 12.5183 5.80872 12.498C5.93878 12.4778 6.06356 12.4321 6.17592 12.3635C6.28828 12.2949 6.386 12.2049 6.46349 12.0985C6.54097 11.9921 6.5967 11.8714 6.62747 11.7435C6.65824 11.6155 6.66344 11.4827 6.64279 11.3527C6.62214 11.2227 6.57604 11.0981 6.50712 10.9859C6.43821 10.8738 6.34784 10.7763 6.2412 10.6992C5.96484 10.498 5.68294 10.3092 5.3955 10.1328H5.39553ZM15.4561 7.96578C15.2129 7.81636 14.9743 7.65653 14.7403 7.48628C14.5258 7.3309 14.2584 7.26693 13.9968 7.3084C13.7352 7.34987 13.5007 7.49339 13.3448 7.70749C13.1889 7.92159 13.1243 8.18879 13.1651 8.45049C13.2059 8.71218 13.3488 8.94701 13.5625 9.10347C13.8389 9.30465 14.1211 9.49377 14.4092 9.67085C14.5212 9.73959 14.6456 9.78561 14.7753 9.80627C14.905 9.82693 15.0376 9.82184 15.1653 9.79128C15.2931 9.76072 15.4136 9.7053 15.52 9.62817C15.6263 9.55104 15.7164 9.45372 15.7852 9.34176C15.8539 9.2298 15.8999 9.1054 15.9206 8.97566C15.9413 8.84592 15.9362 8.71339 15.9056 8.58561C15.875 8.45784 15.8196 8.33734 15.7425 8.23099C15.6654 8.12464 15.568 8.03452 15.4561 7.96578V7.96578ZM16.9023 2.90038C15.5177 1.51559 13.7536 0.572484 11.8329 0.190346C9.91233 -0.191791 7.92152 0.00420004 6.11229 0.753534C4.30306 1.50287 2.75668 2.77189 1.66869 4.40011C0.580711 6.02833 0 7.94262 0 9.90088C0 11.8592 0.580711 13.7734 1.66869 15.4017C2.75668 17.0299 4.30306 18.2989 6.11229 19.0482C7.92152 19.7976 9.91233 19.9936 11.8329 19.6114C13.7536 19.2293 15.5177 18.2862 16.9023 16.9014C18.7559 15.0431 19.7969 12.5256 19.7969 9.90088C19.7969 7.2762 18.7559 4.75865 16.9023 2.90038V2.90038ZM15.6289 15.6279C14.4078 16.8523 12.8241 17.6498 11.1133 17.9016C11.027 17.7408 10.8972 17.6076 10.7387 17.5172C10.5802 17.4268 10.3994 17.3829 10.2171 17.3906C10.0348 17.3982 9.85836 17.4571 9.70799 17.5604C9.55761 17.6638 9.43941 17.8074 9.36694 17.9749C7.40981 17.8508 5.56503 17.0175 4.17804 15.6312C2.79104 14.2448 1.95695 12.4004 1.83194 10.4433C1.99828 10.3697 2.14069 10.2509 2.24307 10.1006C2.34546 9.95018 2.40373 9.77416 2.41131 9.59239C2.41889 9.41063 2.37546 9.23037 2.28594 9.072C2.19643 8.91362 2.06439 8.78345 1.90476 8.69619C2.15475 6.98496 2.94988 5.39995 4.17213 4.17645C5.39437 2.95295 6.97857 2.1562 8.68955 1.90445C8.7765 2.05488 8.90127 2.17996 9.05148 2.26729C9.20169 2.35462 9.37212 2.40117 9.54587 2.40231C9.62311 2.40217 9.7001 2.39333 9.77536 2.37594C9.91929 2.3406 10.0534 2.27314 10.1675 2.17861C10.2817 2.08408 10.3729 1.96494 10.4345 1.83011C12.3938 1.95225 14.241 2.78574 15.629 4.17395C17.0171 5.56215 17.8503 7.4095 17.9722 9.3688C17.8067 9.44233 17.6649 9.56063 17.563 9.71037C17.4611 9.86011 17.403 10.0353 17.3953 10.2163C17.3877 10.3973 17.4307 10.5768 17.5196 10.7347C17.6084 10.8925 17.7396 11.0224 17.8983 11.1097C17.647 12.8205 16.8512 14.4048 15.6289 15.6279V15.6279Z" fill="var(--fill-0, #1E1F26)"/>
</svg>
