<svg preserveAspectRatio="none" width="100%" height="100%" overflow="visible" style="display: block;" viewBox="0 0 19.0737 19.0729" fill="none" xmlns="http://www.w3.org/2000/svg">
<path id="Vector" d="M18.27 13.6729L16.63 12.0329C16.4864 11.8997 16.3881 11.725 16.3486 11.5332C16.3092 11.3413 16.3306 11.142 16.41 10.9629C16.7587 10.214 16.9429 9.39902 16.95 8.57292C16.9547 8.53975 16.9547 8.50609 16.95 8.47292C16.9534 7.27631 16.5828 6.10855 15.89 5.13292C14.5511 3.26169 12.7766 1.74465 10.72 0.712918C9.41542 0.0742824 7.94449 -0.142713 6.51107 0.0920095C5.07765 0.326731 3.75275 1.00154 2.72 2.02292L2.05 2.69292C1.01788 3.72959 0.336474 5.06356 0.10151 6.50742C-0.133454 7.95129 0.0898324 9.43249 0.74 10.7429L0.84 10.9129C0.306336 11.4666 0.0056406 12.204 0 12.9729C0.00397046 13.5035 0.148608 14.0236 0.419159 14.4801C0.68971 14.9366 1.07649 15.3131 1.54006 15.5713C2.00363 15.8295 2.52738 15.9602 3.05792 15.9499C3.58845 15.9397 4.10676 15.7889 4.56 15.5129C4.74 15.6529 4.9 15.8029 5.08 15.9329C5.45851 16.1961 5.86833 16.4111 6.3 16.5729H6.39C6.57 16.6429 6.76 16.7029 6.96 16.7629H7.11C7.42121 16.8428 7.7393 16.8931 8.06 16.9129H8.34H8.46H8.68C8.89 16.9129 9.09 16.9129 9.3 16.8529H9.47C9.96167 16.7685 10.4394 16.6171 10.89 16.4029C11.0695 16.3306 11.2662 16.312 11.4561 16.3492C11.6461 16.3865 11.8211 16.4781 11.96 16.6129L13.42 18.0729C14.0535 18.7086 14.9126 19.0681 15.81 19.0729C16.5628 19.0648 17.2818 18.7593 17.81 18.2229L18.19 17.8429C18.7416 17.294 19.0583 16.5521 19.0732 15.7741C19.0881 14.996 18.8001 14.2426 18.27 13.6729ZM2.97 13.9929C2.77222 13.9929 2.57888 13.9343 2.41443 13.8244C2.24998 13.7145 2.12181 13.5583 2.04612 13.3756C1.97043 13.1929 1.95063 12.9918 1.98921 12.7978C2.0278 12.6038 2.12304 12.4257 2.26289 12.2858C2.40275 12.146 2.58093 12.0507 2.77491 12.0121C2.96889 11.9735 3.16996 11.9934 3.35268 12.069C3.53541 12.1447 3.69159 12.2729 3.80147 12.4373C3.91135 12.6018 3.97 12.7951 3.97 12.9929C3.97 13.2581 3.86464 13.5125 3.67711 13.7C3.48957 13.8876 3.23522 13.9929 2.97 13.9929ZM6.07 14.1329L5.81 13.9329C5.91413 13.6304 5.96817 13.3129 5.97 12.9929C5.97 12.1973 5.65393 11.4342 5.09132 10.8716C4.52871 10.309 3.76565 9.99292 2.97 9.99292C2.84 9.99292 2.72 9.99292 2.59 9.99292L2.5 9.83292C2.03488 8.89746 1.87445 7.83982 2.04126 6.80851C2.20806 5.77721 2.69371 4.82406 3.43 4.08292L4.1 3.41292C4.85065 2.69346 5.80693 2.22592 6.83572 2.07537C7.86452 1.92481 8.91467 2.09873 9.84 2.57292C11.5198 3.41313 12.979 4.63593 14.1 6.14292L6.07 14.1329ZM16.85 16.5029L16.48 16.8829C16.06 17.3029 15.41 17.2229 14.87 16.6829L13.41 15.2329C12.98 14.8058 12.4308 14.5188 11.8346 14.41C11.2384 14.3011 10.6232 14.3753 10.07 14.6229C9.75473 14.7774 9.41737 14.882 9.07 14.9329C8.87889 14.9694 8.68454 14.9862 8.49 14.9829H8.15H8.05L14.92 8.11292C14.99 8.79808 14.8725 9.48938 14.58 10.1129C14.3324 10.6661 14.2582 11.2813 14.367 11.8775C14.4759 12.4737 14.7628 13.023 15.19 13.4529L16.83 15.1029C17.0159 15.2872 17.1222 15.5371 17.1259 15.7988C17.1296 16.0606 17.0306 16.3134 16.85 16.5029V16.5029Z" fill="var(--fill-0, #1E1F26)"/>
</svg>
