<svg preserveAspectRatio="none" width="100%" height="100%" overflow="visible" style="display: block;" viewBox="0 0 20.0041 18.0041" fill="none" xmlns="http://www.w3.org/2000/svg">
<path id="Vector" d="M14.29 5.71409C14.383 5.80782 14.4936 5.88221 14.6154 5.93298C14.7373 5.98375 14.868 6.00989 15 6.00989C15.132 6.00989 15.2627 5.98375 15.3846 5.93298C15.5064 5.88221 15.617 5.80782 15.71 5.71409L19.71 1.71409C19.8983 1.52579 20.0041 1.27039 20.0041 1.00409C20.0041 0.73779 19.8983 0.482395 19.71 0.294092C19.5217 0.105788 19.2663 0 19 0C18.7337 0 18.4783 0.105788 18.29 0.294092L15 3.59409L13.71 2.29409C13.6168 2.20085 13.5061 2.12689 13.3842 2.07643C13.2624 2.02597 13.1319 2 13 2C12.7337 2 12.4783 2.10579 12.29 2.29409C12.1968 2.38733 12.1228 2.49802 12.0723 2.61984C12.0219 2.74166 11.9959 2.87223 11.9959 3.00409C11.9959 3.27039 12.1017 3.52579 12.29 3.71409L14.29 5.71409ZM19 5.00409C18.7348 5.00409 18.4804 5.10945 18.2929 5.29699C18.1054 5.48452 18 5.73888 18 6.00409V15.0041C18 15.2693 17.8946 15.5237 17.7071 15.7112C17.5196 15.8987 17.2652 16.0041 17 16.0041H3C2.73478 16.0041 2.48043 15.8987 2.29289 15.7112C2.10536 15.5237 2 15.2693 2 15.0041V5.41409L7.88 11.3041C8.44124 11.8608 9.19951 12.1734 9.99 12.1741C10.8004 12.1699 11.5764 11.8466 12.15 11.2741L13.87 9.55409C14.0583 9.36579 14.1641 9.11039 14.1641 8.84409C14.1641 8.57779 14.0583 8.3224 13.87 8.13409C13.6817 7.94579 13.4263 7.84 13.16 7.84C12.8937 7.84 12.6383 7.94579 12.45 8.13409L10.7 9.88409C10.5131 10.0673 10.2618 10.1699 10 10.1699C9.73825 10.1699 9.48693 10.0673 9.3 9.88409L3.41 4.00409H9C9.26522 4.00409 9.51957 3.89873 9.70711 3.7112C9.89464 3.52366 10 3.26931 10 3.00409C10 2.73888 9.89464 2.48452 9.70711 2.29699C9.51957 2.10945 9.26522 2.00409 9 2.00409H3C2.20435 2.00409 1.44129 2.32016 0.87868 2.88277C0.316071 3.44538 0 4.20844 0 5.00409V15.0041C0 15.7997 0.316071 16.5628 0.87868 17.1254C1.44129 17.688 2.20435 18.0041 3 18.0041H17C17.7956 18.0041 18.5587 17.688 19.1213 17.1254C19.6839 16.5628 20 15.7997 20 15.0041V6.00409C20 5.73888 19.8946 5.48452 19.7071 5.29699C19.5196 5.10945 19.2652 5.00409 19 5.00409Z" fill="var(--fill-0, #1E1F26)"/>
</svg>
