<svg preserveAspectRatio="none" width="100%" height="100%" overflow="visible" style="display: block;" viewBox="0 0 20.011 20" fill="none" xmlns="http://www.w3.org/2000/svg">
<path id="Vector" d="M5.60525 13.18C5.41694 12.9917 5.16155 12.8859 4.89525 12.8859C4.62894 12.8859 4.37355 12.9917 4.18525 13.18C3.99694 13.3683 3.89115 13.6237 3.89115 13.89C3.89115 14.1563 3.99694 14.4117 4.18525 14.6L5.24525 15.66C5.33821 15.7537 5.44881 15.8281 5.57067 15.8789C5.69253 15.9297 5.82323 15.9558 5.95525 15.9558C6.08726 15.9558 6.21796 15.9297 6.33982 15.8789C6.46168 15.8281 6.57228 15.7537 6.66525 15.66C6.75897 15.567 6.83337 15.4564 6.88414 15.3346C6.93491 15.2127 6.96104 15.082 6.96104 14.95C6.96104 14.818 6.93491 14.6873 6.88414 14.5654C6.83337 14.4436 6.75897 14.333 6.66525 14.24L5.60525 13.18ZM1.81525 7.78L0.755245 8.84C0.676959 8.91468 0.612619 9.00273 0.565245 9.1C0.421242 9.16952 0.296011 9.27256 0.200055 9.40048C0.1041 9.52839 0.0402195 9.67745 0.0137723 9.83516C-0.0126749 9.99286 -0.000917531 10.1546 0.0480583 10.3068C0.0970341 10.459 0.1818 10.5973 0.295245 10.71L1.35525 11.77C1.44821 11.8637 1.55881 11.9381 1.68067 11.9889C1.80253 12.0397 1.93323 12.0658 2.06525 12.0658C2.19726 12.0658 2.32796 12.0397 2.44982 11.9889C2.57168 11.9381 2.68228 11.8637 2.77525 11.77C2.86897 11.677 2.94337 11.5664 2.99414 11.4446C3.04491 11.3227 3.07104 11.192 3.07104 11.06C3.07104 10.928 3.04491 10.7973 2.99414 10.6754C2.94337 10.5536 2.86897 10.443 2.77525 10.35L2.41525 10L3.22525 9.19C3.38907 8.9987 3.47468 8.75262 3.46496 8.50095C3.45524 8.24927 3.3509 8.01053 3.17281 7.83244C2.99471 7.65434 2.75597 7.55001 2.5043 7.54029C2.25262 7.53057 2.00655 7.61617 1.81525 7.78V7.78ZM6.00525 8.57C5.74003 8.57 5.48568 8.67536 5.29814 8.86289C5.1106 9.05043 5.00525 9.30478 5.00525 9.57V11.07C5.00525 11.3352 5.1106 11.5896 5.29814 11.7771C5.48568 11.9646 5.74003 12.07 6.00525 12.07C6.27046 12.07 6.52482 11.9646 6.71235 11.7771C6.89989 11.5896 7.00525 11.3352 7.00525 11.07V9.57C7.00525 9.30478 6.89989 9.05043 6.71235 8.86289C6.52482 8.67536 6.27046 8.57 6.00525 8.57V8.57ZM19.7152 9.29L14.7152 4.29C14.5746 4.15124 14.396 4.05725 14.2021 4.01987C14.0081 3.9825 13.8074 4.00342 13.6252 4.08C13.4426 4.15502 13.2863 4.28242 13.176 4.44614C13.0656 4.60986 13.0062 4.80257 13.0052 5V15C13.0062 15.1974 13.0656 15.3901 13.176 15.5539C13.2863 15.7176 13.4426 15.845 13.6252 15.92C13.7439 15.976 13.8741 16.0034 14.0052 16C14.1369 16.0008 14.2673 15.9755 14.3892 15.9258C14.511 15.876 14.6218 15.8027 14.7152 15.71L19.7152 10.71C19.809 10.617 19.8834 10.5064 19.9341 10.3846C19.9849 10.2627 20.011 10.132 20.011 10C20.011 9.86799 19.9849 9.73728 19.9341 9.61542C19.8834 9.49356 19.809 9.38296 19.7152 9.29V9.29ZM15.0052 12.59V7.41L17.5952 10L15.0052 12.59ZM10.0052 0C9.74003 0 9.48567 0.105357 9.29814 0.292893C9.1106 0.48043 9.00525 0.734784 9.00525 1V19C9.00525 19.2652 9.1106 19.5196 9.29814 19.7071C9.48567 19.8946 9.74003 20 10.0052 20C10.2705 20 10.5248 19.8946 10.7124 19.7071C10.8999 19.5196 11.0052 19.2652 11.0052 19V1C11.0052 0.734784 10.8999 0.48043 10.7124 0.292893C10.5248 0.105357 10.2705 0 10.0052 0V0ZM6.38525 4.08C6.20313 4.00342 6.00242 3.9825 5.80843 4.01987C5.61444 4.05725 5.43587 4.15124 5.29525 4.29L4.64525 5C4.45899 5.18736 4.35445 5.44081 4.35445 5.705C4.35445 5.96919 4.45899 6.22264 4.64525 6.41C4.82988 6.59841 5.08148 6.70624 5.34525 6.71C5.50179 6.70906 5.65592 6.67138 5.79525 6.6C5.94548 6.63249 6.10119 6.62991 6.25026 6.59246C6.39934 6.55502 6.53778 6.4837 6.65483 6.38407C6.77187 6.28444 6.86437 6.15916 6.92515 6.01798C6.98592 5.87679 7.01333 5.7235 7.00525 5.57V5C7.00426 4.80257 6.94486 4.60986 6.83452 4.44614C6.72419 4.28242 6.56786 4.15502 6.38525 4.08Z" fill="var(--fill-0, #1E1F26)"/>
</svg>
