<svg preserveAspectRatio="none" width="100%" height="100%" overflow="visible" style="display: block;" viewBox="0 0 19.9773 19.9867" fill="none" xmlns="http://www.w3.org/2000/svg">
<path id="Vector" d="M6.00002 8.98671C5.7348 8.98671 5.48045 9.09207 5.29291 9.2796C5.10538 9.46714 5.00002 9.7215 5.00002 9.98671V12.9867C5.00002 13.2519 5.10538 13.5063 5.29291 13.6938C5.48045 13.8814 5.7348 13.9867 6.00002 13.9867C6.26524 13.9867 6.51959 13.8814 6.70713 13.6938C6.89466 13.5063 7.00002 13.2519 7.00002 12.9867V9.98671C7.00002 9.7215 6.89466 9.46714 6.70713 9.2796C6.51959 9.09207 6.26524 8.98671 6.00002 8.98671V8.98671ZM10 14.9867C9.7348 14.9867 9.48045 15.0921 9.29291 15.2796C9.10538 15.4671 9.00002 15.7215 9.00002 15.9867V18.9867C9.00002 19.2519 9.10538 19.5063 9.29291 19.6938C9.48045 19.8814 9.7348 19.9867 10 19.9867C10.2652 19.9867 10.5196 19.8814 10.7071 19.6938C10.8947 19.5063 11 19.2519 11 18.9867V15.9867C11 15.7215 10.8947 15.4671 10.7071 15.2796C10.5196 15.0921 10.2652 14.9867 10 14.9867ZM6.00002 14.9867C5.7348 14.9867 5.48045 15.0921 5.29291 15.2796C5.10538 15.4671 5.00002 15.7215 5.00002 15.9867V18.9867C5.00002 19.2519 5.10538 19.5063 5.29291 19.6938C5.48045 19.8814 5.7348 19.9867 6.00002 19.9867C6.26524 19.9867 6.51959 19.8814 6.70713 19.6938C6.89466 19.5063 7.00002 19.2519 7.00002 18.9867V15.9867C7.00002 15.7215 6.89466 15.4671 6.70713 15.2796C6.51959 15.0921 6.26524 14.9867 6.00002 14.9867V14.9867ZM16.42 4.20671C15.809 2.80272 14.7545 1.63779 13.4181 0.890438C12.0817 0.143088 10.5371 -0.145456 9.02099 0.0690207C7.50489 0.283498 6.10095 0.989164 5.02427 2.07789C3.9476 3.16661 3.25761 4.57833 3.06002 6.09671C2.18743 6.30768 1.41118 6.80604 0.856149 7.51162C0.301114 8.21721 -0.000433116 9.08899 1.98754e-05 9.98671C-0.00176561 10.5531 0.116767 11.1135 0.347772 11.6306C0.578778 12.1478 0.916988 12.61 1.34002 12.9867C1.43738 13.0802 1.55266 13.1531 1.67892 13.2008C1.80518 13.2486 1.9398 13.2703 2.07467 13.2646C2.20955 13.259 2.34188 13.2261 2.46369 13.1679C2.5855 13.1097 2.69428 13.0275 2.78346 12.9261C2.87264 12.8248 2.94037 12.7064 2.98259 12.5782C3.0248 12.45 3.04062 12.3146 3.02909 12.1801C3.01755 12.0456 2.97891 11.9148 2.91548 11.7956C2.85205 11.6765 2.76515 11.5714 2.66002 11.4867C2.45032 11.2975 2.28309 11.066 2.16933 10.8074C2.05557 10.5489 1.99787 10.2692 2.00002 9.98671C2.00002 9.45628 2.21073 8.94757 2.58581 8.5725C2.96088 8.19743 3.46959 7.98671 4.00002 7.98671C4.26524 7.98671 4.51959 7.88135 4.70713 7.69382C4.89466 7.50628 5.00002 7.25193 5.00002 6.98671C5.00257 5.80399 5.42431 4.66046 6.19029 3.75929C6.95627 2.85813 8.01691 2.25766 9.18377 2.06458C10.3506 1.87151 11.5482 2.09832 12.5636 2.70472C13.579 3.31112 14.3466 4.25785 14.73 5.37671C14.7872 5.54855 14.8899 5.70164 15.0273 5.81964C15.1647 5.93765 15.3315 6.01613 15.51 6.04671C16.2042 6.16645 16.8341 6.52664 17.2893 7.06418C17.7446 7.60171 17.9962 8.28231 18 8.98671C18.0153 9.723 17.7509 10.4377 17.26 10.9867C17.1004 11.1855 17.0227 11.4378 17.0429 11.692C17.063 11.9462 17.1795 12.183 17.3686 12.3542C17.5576 12.5253 17.8048 12.6178 18.0597 12.6127C18.3147 12.6076 18.558 12.5053 18.74 12.3267C19.2908 11.6973 19.6749 10.9397 19.8572 10.1234C20.0394 9.30707 20.0139 8.45808 19.7831 7.65415C19.5523 6.85022 19.1234 6.11704 18.5359 5.52174C17.9483 4.92645 17.2209 4.48806 16.42 4.24671V4.20671ZM10 8.98671C9.7348 8.98671 9.48045 9.09207 9.29291 9.2796C9.10538 9.46714 9.00002 9.7215 9.00002 9.98671V12.9867C9.00002 13.2519 9.10538 13.5063 9.29291 13.6938C9.48045 13.8814 9.7348 13.9867 10 13.9867C10.2652 13.9867 10.5196 13.8814 10.7071 13.6938C10.8947 13.5063 11 13.2519 11 12.9867V9.98671C11 9.7215 10.8947 9.46714 10.7071 9.2796C10.5196 9.09207 10.2652 8.98671 10 8.98671ZM14 8.98671C13.7348 8.98671 13.4804 9.09207 13.2929 9.2796C13.1054 9.46714 13 9.7215 13 9.98671V12.9867C13 13.2519 13.1054 13.5063 13.2929 13.6938C13.4804 13.8814 13.7348 13.9867 14 13.9867C14.2652 13.9867 14.5196 13.8814 14.7071 13.6938C14.8947 13.5063 15 13.2519 15 12.9867V9.98671C15 9.7215 14.8947 9.46714 14.7071 9.2796C14.5196 9.09207 14.2652 8.98671 14 8.98671ZM14 14.9867C13.7348 14.9867 13.4804 15.0921 13.2929 15.2796C13.1054 15.4671 13 15.7215 13 15.9867V18.9867C13 19.2519 13.1054 19.5063 13.2929 19.6938C13.4804 19.8814 13.7348 19.9867 14 19.9867C14.2652 19.9867 14.5196 19.8814 14.7071 19.6938C14.8947 19.5063 15 19.2519 15 18.9867V15.9867C15 15.7215 14.8947 15.4671 14.7071 15.2796C14.5196 15.0921 14.2652 14.9867 14 14.9867Z" fill="var(--fill-0, #1E1F26)"/>
</svg>
