<svg preserveAspectRatio="none" width="100%" height="100%" overflow="visible" style="display: block;" viewBox="0 0 18 18" fill="none" xmlns="http://www.w3.org/2000/svg">
<path id="Vector" d="M2 5C2 5.26522 2.10536 5.51957 2.29289 5.70711C2.48043 5.89464 2.73478 6 3 6C3.26522 6 3.51957 5.89464 3.70711 5.70711C3.89464 5.51957 4 5.26522 4 5V4H5C5.26522 4 5.51957 3.89464 5.70711 3.70711C5.89464 3.51957 6 3.26522 6 3C6 2.73478 5.89464 2.48043 5.70711 2.29289C5.51957 2.10536 5.26522 2 5 2H4V1C4 0.734784 3.89464 0.48043 3.70711 0.292893C3.51957 0.105357 3.26522 0 3 0C2.73478 0 2.48043 0.105357 2.29289 0.292893C2.10536 0.48043 2 0.734784 2 1V2H1C0.734784 2 0.48043 2.10536 0.292893 2.29289C0.105357 2.48043 0 2.73478 0 3C0 3.26522 0.105357 3.51957 0.292893 3.70711C0.48043 3.89464 0.734784 4 1 4H2V5ZM15 2H9C8.73478 2 8.48043 2.10536 8.29289 2.29289C8.10536 2.48043 8 2.73478 8 3C8 3.26522 8.10536 3.51957 8.29289 3.70711C8.48043 3.89464 8.73478 4 9 4H15C15.2652 4 15.5196 4.10536 15.7071 4.29289C15.8946 4.48043 16 4.73478 16 5V14.72L14.43 13.27C14.2456 13.0973 14.0026 13.0009 13.75 13H5C4.73478 13 4.48043 12.8946 4.29289 12.7071C4.10536 12.5196 4 12.2652 4 12V9C4 8.73478 3.89464 8.48043 3.70711 8.29289C3.51957 8.10536 3.26522 8 3 8C2.73478 8 2.48043 8.10536 2.29289 8.29289C2.10536 8.48043 2 8.73478 2 9V12C2 12.7956 2.31607 13.5587 2.87868 14.1213C3.44129 14.6839 4.20435 15 5 15H13.36L16.36 17.73C16.5342 17.8936 16.7613 17.9894 17 18C17.1372 17.9985 17.2728 17.9714 17.4 17.92C17.5789 17.8419 17.731 17.7132 17.8376 17.5497C17.9442 17.3863 18.0007 17.1952 18 17V5C18 4.20435 17.6839 3.44129 17.1213 2.87868C16.5587 2.31607 15.7956 2 15 2Z" fill="var(--fill-0, #1E1F26)"/>
</svg>
