<svg preserveAspectRatio="none" width="100%" height="100%" overflow="visible" style="display: block;" viewBox="0 0 19.9281 20.0656" fill="none" xmlns="http://www.w3.org/2000/svg">
<path id="Vector" d="M11.9544 16.0656C12.2196 16.0656 12.474 15.9602 12.6615 15.7727C12.849 15.5851 12.9544 15.3308 12.9544 15.0656V13.0656C12.9544 12.8004 12.849 12.546 12.6615 12.3585C12.474 12.1709 12.2196 12.0656 11.9544 12.0656C11.6892 12.0656 11.4348 12.1709 11.2473 12.3585C11.0597 12.546 10.9544 12.8004 10.9544 13.0656V15.0656C10.9544 15.3308 11.0597 15.5851 11.2473 15.7727C11.4348 15.9602 11.6892 16.0656 11.9544 16.0656ZM7.95438 16.0656C8.2196 16.0656 8.47395 15.9602 8.66149 15.7727C8.84903 15.5851 8.95438 15.3308 8.95438 15.0656V13.0656C8.95438 12.8004 8.84903 12.546 8.66149 12.3585C8.47395 12.1709 8.2196 12.0656 7.95438 12.0656C7.68917 12.0656 7.43481 12.1709 7.24728 12.3585C7.05974 12.546 6.95438 12.8004 6.95438 13.0656V15.0656C6.95438 15.3308 7.05974 15.5851 7.24728 15.7727C7.43481 15.9602 7.68917 16.0656 7.95438 16.0656ZM16.9544 4.06558H15.5744L13.8444 0.615579C13.7915 0.488632 13.713 0.373953 13.6139 0.278707C13.5147 0.183461 13.3969 0.109696 13.2679 0.062021C13.1389 0.0143462 13.0015 -0.00621351 12.8642 0.0016267C12.7269 0.0094669 12.5927 0.0455386 12.47 0.107587C12.3473 0.169636 12.2387 0.256329 12.151 0.362247C12.0633 0.468166 11.9984 0.591033 11.9603 0.723173C11.9222 0.855312 11.9118 0.993883 11.9297 1.13023C11.9476 1.26657 11.9935 1.39775 12.0644 1.51558L13.3344 4.06558H6.57438L7.84438 1.51558C7.94145 1.28249 7.94674 1.0213 7.8592 0.784466C7.77167 0.54763 7.59778 0.352676 7.37244 0.238745C7.14711 0.124813 6.88703 0.10034 6.6444 0.170238C6.40177 0.240136 6.19456 0.39923 6.06438 0.615579L4.33438 4.06558H2.95438C2.24757 4.07633 1.56726 4.33633 1.03343 4.79971C0.499605 5.2631 0.146556 5.9001 0.036553 6.59839C-0.0734502 7.29667 0.0666586 8.01137 0.432168 8.61643C0.797678 9.22149 1.36511 9.67805 2.03438 9.90558L2.77438 17.3656C2.849 18.1081 3.19773 18.7962 3.75245 19.2955C4.30718 19.7948 5.02808 20.0693 5.77438 20.0656H14.1544C14.9007 20.0693 15.6216 19.7948 16.1763 19.2955C16.731 18.7962 17.0798 18.1081 17.1544 17.3656L17.8944 9.90558C18.5651 9.67737 19.1334 9.21915 19.4987 8.61206C19.8639 8.00498 20.0025 7.28821 19.89 6.58872C19.7774 5.88923 19.4208 5.25217 18.8835 4.79035C18.3462 4.32854 17.6628 4.07179 16.9544 4.06558V4.06558ZM15.1444 17.1656C15.1195 17.4131 15.0033 17.6425 14.8184 17.8089C14.6334 17.9753 14.3932 18.0668 14.1444 18.0656H5.76438C5.51562 18.0668 5.27532 17.9753 5.09041 17.8089C4.9055 17.6425 4.78926 17.4131 4.76438 17.1656L4.05438 10.0656H15.8544L15.1444 17.1656ZM16.9544 8.06558H2.95438C2.68917 8.06558 2.43481 7.96022 2.24728 7.77269C2.05974 7.58515 1.95438 7.3308 1.95438 7.06558C1.95438 6.80036 2.05974 6.54601 2.24728 6.35847C2.43481 6.17094 2.68917 6.06558 2.95438 6.06558H16.9544C17.2196 6.06558 17.474 6.17094 17.6615 6.35847C17.849 6.54601 17.9544 6.80036 17.9544 7.06558C17.9544 7.3308 17.849 7.58515 17.6615 7.77269C17.474 7.96022 17.2196 8.06558 16.9544 8.06558Z" fill="var(--fill-0, #1E1F26)"/>
</svg>
