<svg preserveAspectRatio="none" width="100%" height="100%" overflow="visible" style="display: block;" viewBox="0 0 12.0041 12.0041" fill="none" xmlns="http://www.w3.org/2000/svg">
<path id="Vector" d="M11.0041 0.00409174C10.7389 0.00409174 10.4845 0.109449 10.297 0.296985C10.1094 0.484522 10.0041 0.738875 10.0041 1.00409V8.59409L1.71409 0.294092C1.52579 0.105788 1.27039 -1.9841e-09 1.00409 0C0.73779 1.9841e-09 0.482395 0.105788 0.294092 0.294092C0.105788 0.482395 1.9841e-09 0.73779 0 1.00409C-1.9841e-09 1.27039 0.105788 1.52579 0.294092 1.71409L8.59409 10.0041H1.00409C0.738875 10.0041 0.484522 10.1094 0.296985 10.297C0.109449 10.4845 0.00409174 10.7389 0.00409174 11.0041C0.00409174 11.2693 0.109449 11.5237 0.296985 11.7112C0.484522 11.8987 0.738875 12.0041 1.00409 12.0041H11.0041C11.1348 12.0025 11.2639 11.9753 11.3841 11.9241C11.6284 11.8226 11.8226 11.6284 11.9241 11.3841C11.9753 11.2639 12.0025 11.1348 12.0041 11.0041V1.00409C12.0041 0.738875 11.8987 0.484522 11.7112 0.296985C11.5237 0.109449 11.2693 0.00409174 11.0041 0.00409174Z" fill="var(--fill-0, #1E1F26)"/>
</svg>
