<svg preserveAspectRatio="none" width="100%" height="100%" overflow="visible" style="display: block;" viewBox="0 0 20 21.0083" fill="none" xmlns="http://www.w3.org/2000/svg">
<path id="Vector" d="M19 17.0318H12.82C12.6707 16.6124 12.4299 16.2315 12.1151 15.9167C11.8003 15.6019 11.4194 15.3612 11 15.2118V12.0318H14.17C15.2289 12.0666 16.2637 11.712 17.0787 11.0351C17.8937 10.3582 18.4323 9.40605 18.5924 8.3588C18.7526 7.31155 18.5233 6.24191 17.9478 5.35237C17.3724 4.46283 16.4909 3.81512 15.47 3.53184C14.9352 2.34691 14.0301 1.36773 12.8907 0.74165C11.7514 0.115569 10.4396 -0.123538 9.15264 0.0603108C7.86569 0.24416 6.67327 0.84102 5.75483 1.76107C4.83639 2.68111 4.24161 3.87457 4.06 5.16184C3.24619 5.39005 2.54245 5.90504 2.07876 6.61169C1.61507 7.31834 1.42276 8.16891 1.53734 9.00631C1.65192 9.84371 2.06565 10.6114 2.70212 11.1675C3.33859 11.7236 4.1548 12.0306 5 12.0318H9V15.2118C8.5806 15.3612 8.19969 15.6019 7.8849 15.9167C7.57011 16.2315 7.32932 16.6124 7.18 17.0318H1C0.734784 17.0318 0.48043 17.1372 0.292893 17.3247C0.105357 17.5123 0 17.7666 0 18.0318C0 18.2971 0.105357 18.5514 0.292893 18.7389C0.48043 18.9265 0.734784 19.0318 1 19.0318H7.18C7.3902 19.611 7.77363 20.1114 8.27816 20.465C8.7827 20.8186 9.38388 21.0083 10 21.0083C10.6161 21.0083 11.2173 20.8186 11.7218 20.465C12.2264 20.1114 12.6098 19.611 12.82 19.0318H19C19.2652 19.0318 19.5196 18.9265 19.7071 18.7389C19.8946 18.5514 20 18.2971 20 18.0318C20 17.7666 19.8946 17.5123 19.7071 17.3247C19.5196 17.1372 19.2652 17.0318 19 17.0318ZM5 10.0318C4.60218 10.0318 4.22064 9.8738 3.93934 9.5925C3.65804 9.31119 3.5 8.92966 3.5 8.53184C3.5 8.13401 3.65804 7.75248 3.93934 7.47118C4.22064 7.18987 4.60218 7.03184 5 7.03184C5.26522 7.03184 5.51957 6.92648 5.70711 6.73894C5.89464 6.55141 6 6.29705 6 6.03184C5.99738 5.08237 6.33259 4.16293 6.94569 3.43793C7.55878 2.71294 8.40978 2.22967 9.3465 2.07456C10.2832 1.91944 11.2446 2.10259 12.0586 2.59124C12.8727 3.0799 13.4864 3.84221 13.79 4.74184C13.8472 4.91368 13.9499 5.06677 14.0873 5.18477C14.2247 5.30277 14.3915 5.38125 14.57 5.41184C15.1113 5.5021 15.6027 5.7821 15.9564 6.20171C16.31 6.62131 16.5027 7.1531 16.5 7.70184C16.4974 8.31898 16.251 8.9101 15.8147 9.34649C15.3783 9.78288 14.7871 10.0292 14.17 10.0318H5ZM10 19.0318C9.80222 19.0318 9.60888 18.9732 9.44443 18.8633C9.27998 18.7534 9.15181 18.5972 9.07612 18.4145C9.00043 18.2318 8.98063 18.0307 9.01921 17.8367C9.0578 17.6428 9.15304 17.4646 9.29289 17.3247C9.43275 17.1849 9.61093 17.0896 9.80491 17.0511C9.99889 17.0125 10.2 17.0323 10.3827 17.108C10.5654 17.1836 10.7216 17.3118 10.8315 17.4763C10.9414 17.6407 11 17.8341 11 18.0318C11 18.2971 10.8946 18.5514 10.7071 18.7389C10.5196 18.9265 10.2652 19.0318 10 19.0318Z" fill="var(--fill-0, #1E1F26)"/>
</svg>
