<svg preserveAspectRatio="none" width="100%" height="100%" overflow="visible" style="display: block;" viewBox="0 0 20.0207 20.0196" fill="none" xmlns="http://www.w3.org/2000/svg">
<path id="Vector" d="M6.5011 12.0196C6.23589 12.0196 5.98153 12.125 5.794 12.3125C5.60646 12.5001 5.5011 12.7544 5.5011 13.0196V19.0196C5.5011 19.2848 5.60646 19.5392 5.794 19.7267C5.98153 19.9143 6.23589 20.0196 6.5011 20.0196C6.76632 20.0196 7.02067 19.9143 7.20821 19.7267C7.39575 19.5392 7.5011 19.2848 7.5011 19.0196V13.0196C7.5011 12.7544 7.39575 12.5001 7.20821 12.3125C7.02067 12.125 6.76632 12.0196 6.5011 12.0196ZM10.5011 11.0196C10.2359 11.0196 9.98153 11.125 9.794 11.3125C9.60646 11.5001 9.5011 11.7544 9.5011 12.0196V18.0196C9.5011 18.2848 9.60646 18.5392 9.794 18.7267C9.98153 18.9143 10.2359 19.0196 10.5011 19.0196C10.7663 19.0196 11.0207 18.9143 11.2082 18.7267C11.3957 18.5392 11.5011 18.2848 11.5011 18.0196V12.0196C11.5011 11.7544 11.3957 11.5001 11.2082 11.3125C11.0207 11.125 10.7663 11.0196 10.5011 11.0196ZM19.7011 5.08962C19.5796 4.96965 19.4295 4.88277 19.2649 4.83726C19.1004 4.79175 18.927 4.78912 18.7611 4.82962C18.548 4.87993 18.33 4.90676 18.1111 4.90962C17.3155 4.90962 16.5524 4.59355 15.9898 4.03094C15.4272 3.46834 15.1111 2.70527 15.1111 1.90962C15.1143 1.68741 15.1411 1.46616 15.1911 1.24962C15.2298 1.08526 15.2263 0.91378 15.1808 0.751161C15.1353 0.588541 15.0494 0.440081 14.9311 0.319624C14.8147 0.194239 14.6681 0.100816 14.5052 0.0482915C14.3424 -0.00423339 14.1688 -0.0141039 14.0011 0.0196241C13.0058 0.239363 12.1031 0.762182 11.4172 1.51612C10.7313 2.27006 10.296 3.21806 10.1711 4.22962C9.62648 4.08452 9.0647 4.01388 8.5011 4.01962C7.05996 4.01881 5.66667 4.53672 4.57598 5.47869C3.48528 6.42065 2.77007 7.72371 2.5611 9.14962C1.86474 9.34354 1.2455 9.7483 0.788439 10.3083C0.331382 10.8684 0.0589349 11.5562 0.00852367 12.2773C-0.0418876 12.9984 0.13221 13.7174 0.5069 14.3355C0.881591 14.9537 1.43849 15.4407 2.1011 15.7296C2.22854 15.7801 2.36405 15.8072 2.5011 15.8096C2.7323 15.8115 2.95701 15.7332 3.13698 15.5881C3.31696 15.443 3.44109 15.24 3.48824 15.0136C3.5354 14.7873 3.50267 14.5516 3.39562 14.3467C3.28857 14.1417 3.11382 13.9802 2.9011 13.8896C2.6328 13.7753 2.40424 13.5843 2.24412 13.3406C2.084 13.0969 1.99945 12.8112 2.0011 12.5196C2.0011 12.1218 2.15914 11.7403 2.44044 11.459C2.72175 11.1777 3.10328 11.0196 3.5011 11.0196C3.76632 11.0196 4.02067 10.9143 4.20821 10.7267C4.39575 10.5392 4.5011 10.2848 4.5011 10.0196C4.5011 8.95876 4.92253 7.94134 5.67268 7.1912C6.42282 6.44105 7.44024 6.01962 8.5011 6.01962C9.27376 6.02038 10.0289 6.25005 10.6711 6.67962V6.67962C11.4011 7.15447 11.9532 7.85777 12.2411 8.67962C12.2983 8.85146 12.401 9.00456 12.5384 9.12256C12.6758 9.24056 12.8426 9.31904 13.0211 9.34962C13.5024 9.39994 13.956 9.59952 14.3182 9.92043C14.6805 10.2413 14.9334 10.6675 15.0414 11.1392C15.1494 11.611 15.1072 12.1047 14.9206 12.5513C14.7341 12.9978 14.4126 13.3749 14.0011 13.6296C13.8908 13.7019 13.7958 13.7951 13.7215 13.904C13.6472 14.013 13.5952 14.1355 13.5682 14.2646C13.5413 14.3936 13.5401 14.5268 13.5646 14.6563C13.5891 14.7859 13.6389 14.9093 13.7111 15.0196C13.7833 15.1299 13.8766 15.2249 13.9855 15.2992C14.0945 15.3735 14.217 15.4256 14.346 15.4525C14.4751 15.4794 14.6082 15.4807 14.7378 15.4562C14.8673 15.4316 14.9908 15.3819 15.1011 15.3096C15.6921 14.91 16.1749 14.3703 16.5064 13.7386C16.838 13.1069 17.0079 12.403 17.0011 11.6896C17.005 10.9928 16.8367 10.3058 16.5111 9.68962C17.3699 9.4498 18.1477 8.98202 18.7622 8.33589C19.3766 7.68975 19.8047 6.88937 20.0011 6.01962C20.0348 5.85189 20.025 5.67831 19.9724 5.51548C19.9199 5.35266 19.8265 5.20603 19.7011 5.08962V5.08962ZM15.1111 7.90962C14.9713 7.92045 14.8309 7.92045 14.6911 7.90962C14.4713 7.77379 14.2405 7.65671 14.0011 7.55962C13.5892 6.66276 12.9644 5.88008 12.1811 5.27962C12.1811 5.15962 12.1811 5.02962 12.1811 4.90962C12.1811 4.4763 12.2749 4.04812 12.4562 3.65453C12.6374 3.26094 12.9018 2.91128 13.2311 2.62962C13.3859 3.69648 13.8814 4.68472 14.6437 5.447C15.406 6.20929 16.3942 6.70479 17.4611 6.85962C17.1718 7.19804 16.8109 7.46784 16.4044 7.64946C15.998 7.83107 15.5562 7.91994 15.1111 7.90962Z" fill="var(--fill-0, #1E1F26)"/>
</svg>
