<svg preserveAspectRatio="none" width="100%" height="100%" overflow="visible" style="display: block;" viewBox="0 0 18.995 20.0058" fill="none" xmlns="http://www.w3.org/2000/svg">
<path id="Vector" d="M17.995 15H3.40501L4.70501 13.71C4.89332 13.5217 4.99911 13.2663 4.99911 13C4.99911 12.7337 4.89332 12.4783 4.70501 12.29C4.51671 12.1017 4.26132 11.9959 3.99501 11.9959C3.72871 11.9959 3.47332 12.1017 3.28501 12.29L0.285014 15.29C0.193973 15.3851 0.122608 15.4972 0.0750135 15.62C-0.0250045 15.8635 -0.0250045 16.1365 0.0750135 16.38C0.122608 16.5028 0.193973 16.6149 0.285014 16.71L3.28501 19.71C3.37798 19.8037 3.48858 19.8781 3.61044 19.9289C3.7323 19.9797 3.863 20.0058 3.99501 20.0058C4.12703 20.0058 4.25773 19.9797 4.37959 19.9289C4.50145 19.8781 4.61205 19.8037 4.70501 19.71C4.79874 19.617 4.87314 19.5064 4.9239 19.3846C4.97467 19.2627 5.00081 19.132 5.00081 19C5.00081 18.868 4.97467 18.7373 4.9239 18.6154C4.87314 18.4936 4.79874 18.383 4.70501 18.29L3.40501 17H17.995C18.2602 17 18.5146 16.8946 18.7021 16.7071C18.8897 16.5196 18.995 16.2652 18.995 16C18.995 15.7348 18.8897 15.4804 18.7021 15.2929C18.5146 15.1054 18.2602 15 17.995 15ZM8.99501 8V12C8.99501 12.2652 9.10037 12.5196 9.28791 12.7071C9.47544 12.8946 9.7298 13 9.99501 13C10.2602 13 10.5146 12.8946 10.7021 12.7071C10.8897 12.5196 10.995 12.2652 10.995 12V2H12.995V12C12.995 12.2652 13.1004 12.5196 13.2879 12.7071C13.4754 12.8946 13.7298 13 13.995 13C14.2602 13 14.5146 12.8946 14.7021 12.7071C14.8897 12.5196 14.995 12.2652 14.995 12V2H15.995C16.2602 2 16.5146 1.89464 16.7021 1.70711C16.8897 1.51957 16.995 1.26522 16.995 1C16.995 0.734784 16.8897 0.48043 16.7021 0.292893C16.5146 0.105357 16.2602 0 15.995 0H8.99501C7.93415 0 6.91673 0.421427 6.16659 1.17157C5.41644 1.92172 4.99501 2.93913 4.99501 4C4.99501 5.06087 5.41644 6.07828 6.16659 6.82843C6.91673 7.57857 7.93415 8 8.99501 8V8ZM8.99501 2V6C8.46458 6 7.95587 5.78929 7.5808 5.41421C7.20573 5.03914 6.99501 4.53043 6.99501 4C6.99501 3.46957 7.20573 2.96086 7.5808 2.58579C7.95587 2.21071 8.46458 2 8.99501 2Z" fill="var(--fill-0, #1E1F26)"/>
</svg>
