<svg preserveAspectRatio="none" width="100%" height="100%" overflow="visible" style="display: block;" viewBox="0 0 20.0099 13.4551" fill="none" xmlns="http://www.w3.org/2000/svg">
<path id="Vector" d="M13.2828 5.30964e-07C12.1365 -0.000456391 11.0094 0.293998 10.0098 0.855051C8.98594 0.28276 7.8302 -0.0118739 6.65727 0.000377709C5.48435 0.0126293 4.33501 0.331341 3.32328 0.924894C2.31155 1.51845 1.4726 2.36621 0.889643 3.38409C0.30669 4.40196 0 5.55456 0 6.72755C0 7.90054 0.30669 9.05314 0.889643 10.071C1.4726 11.0889 2.31155 11.9367 3.32328 12.5302C4.33501 13.1238 5.48435 13.4425 6.65727 13.4547C7.8302 13.467 8.98594 13.1723 10.0098 12.6001C10.9072 13.1003 11.9073 13.3883 12.9333 13.4419C13.9593 13.4955 14.984 13.3134 15.9286 12.9095C16.8733 12.5055 17.7128 11.8905 18.3829 11.1117C19.0529 10.3329 19.5356 9.41085 19.7939 8.41645C20.0522 7.42205 20.0793 6.38169 19.873 5.37522C19.6667 4.36874 19.2326 3.4229 18.6039 2.61029C17.9753 1.79767 17.1688 1.13989 16.2464 0.687413C15.324 0.234938 14.3102 -0.000197831 13.2828 5.05989e-05V5.30964e-07ZM8.25527 11.1826C7.76776 11.357 7.25463 11.4491 6.7369 11.4551C5.48308 11.4551 4.28061 10.957 3.39402 10.0704C2.50744 9.18386 2.00936 7.98139 2.00936 6.72757C2.00936 5.47375 2.50744 4.27128 3.39402 3.3847C4.28061 2.49811 5.48308 2.00003 6.7369 2.00003C7.25463 2.00602 7.76777 2.09812 8.25527 2.27256C7.16044 3.49822 6.55527 5.08412 6.55527 6.72756C6.55527 8.371 7.16044 9.9569 8.25527 11.1826V11.1826ZM10.0098 10.1252C9.55015 9.68671 9.18422 9.15951 8.93419 8.57551C8.68417 7.9915 8.55526 7.36282 8.55526 6.72755C8.55526 6.09227 8.68417 5.46359 8.93419 4.87959C9.18422 4.29558 9.55015 3.76838 10.0098 3.3299C10.4695 3.76838 10.8355 4.29558 11.0855 4.87959C11.3355 5.46359 11.4644 6.09227 11.4644 6.72755C11.4644 7.36282 11.3355 7.9915 11.0855 8.57551C10.8355 9.15951 10.4695 9.68671 10.0098 10.1252V10.1252ZM13.2828 11.4551C12.7651 11.4491 12.2519 11.357 11.7644 11.1826C12.8593 9.9569 13.4644 8.371 13.4644 6.72756C13.4644 5.08412 12.8593 3.49822 11.7644 2.27256C12.2519 2.09812 12.7651 2.00602 13.2828 2.00003C14.5366 2.00003 15.7391 2.49811 16.6257 3.3847C17.5123 4.27128 18.0103 5.47375 18.0103 6.72757C18.0103 7.98139 17.5123 9.18386 16.6257 10.0704C15.7391 10.957 14.5366 11.4551 13.2828 11.4551V11.4551Z" fill="var(--fill-0, #1E1F26)"/>
</svg>
