<svg preserveAspectRatio="none" width="100%" height="100%" overflow="visible" style="display: block;" viewBox="0 0 19.9958 19.9908" fill="none" xmlns="http://www.w3.org/2000/svg">
<path id="Vector" d="M19.71 0.290793C19.5226 0.104542 19.2692 0 19.005 0C18.7408 0 18.4874 0.104542 18.3 0.290793L14.92 3.59079L13.7 2.39079C13.5104 2.20514 13.2548 2.10242 12.9894 2.10524C12.724 2.10805 12.4707 2.21616 12.285 2.40579C12.0993 2.59542 11.9966 2.85104 11.9994 3.1164C12.0023 3.38176 12.1104 3.63514 12.3 3.82079L14.22 5.70079C14.4069 5.88402 14.6582 5.98665 14.92 5.98665C15.1818 5.98665 15.4331 5.88402 15.62 5.70079L19.7 1.70079C19.8876 1.51475 19.9939 1.26204 19.9958 0.997855C19.9977 0.733667 19.8949 0.479473 19.71 0.290793V0.290793ZM17 6.99079C16.7348 6.99079 16.4804 7.09615 16.2929 7.28369C16.1054 7.47122 16 7.72558 16 7.99079V12.3808L14.52 10.9008C14.2626 10.6417 13.9564 10.436 13.6192 10.2957C13.2819 10.1554 12.9203 10.0831 12.555 10.0831C12.1897 10.0831 11.8281 10.1554 11.4908 10.2957C11.1536 10.436 10.8474 10.6417 10.59 10.9008L9.89 11.6008L7.41 9.11079C6.88742 8.59234 6.18113 8.30142 5.445 8.30142C4.70887 8.30142 4.00258 8.59234 3.48 9.11079L2 10.5908V4.99079C2 4.72558 2.10536 4.47122 2.29289 4.28369C2.48043 4.09615 2.73478 3.99079 3 3.99079H9C9.26522 3.99079 9.51957 3.88544 9.70711 3.6979C9.89464 3.51036 10 3.25601 10 2.99079C10 2.72558 9.89464 2.47122 9.70711 2.28369C9.51957 2.09615 9.26522 1.99079 9 1.99079H3C2.20435 1.99079 1.44129 2.30686 0.87868 2.86947C0.316071 3.43208 0 4.19514 0 4.99079V16.9908C0 17.7864 0.316071 18.5495 0.87868 19.1121C1.44129 19.6747 2.20435 19.9908 3 19.9908H15C15.7956 19.9908 16.5587 19.6747 17.1213 19.1121C17.6839 18.5495 18 17.7864 18 16.9908V7.99079C18 7.72558 17.8946 7.47122 17.7071 7.28369C17.5196 7.09615 17.2652 6.99079 17 6.99079ZM3 17.9908C2.73478 17.9908 2.48043 17.8854 2.29289 17.6979C2.10536 17.5104 2 17.256 2 16.9908V13.4208L4.9 10.5208C5.04691 10.3808 5.24206 10.3027 5.445 10.3027C5.64794 10.3027 5.84309 10.3808 5.99 10.5208L9.16 13.6908L13.45 17.9908H3ZM16 16.9908C15.9986 17.1822 15.9354 17.3681 15.82 17.5208L11.31 12.9908L12.01 12.2908C12.1562 12.1455 12.3539 12.0639 12.56 12.0639C12.7661 12.0639 12.9638 12.1455 13.11 12.2908L16 15.2108V16.9908Z" fill="var(--fill-0, #1E1F26)"/>
</svg>
