<svg preserveAspectRatio="none" width="100%" height="100%" overflow="visible" style="display: block;" viewBox="0 0 19.9598 19.9653" fill="none" xmlns="http://www.w3.org/2000/svg">
<path id="Vector" d="M19.8129 3.52532C19.6801 2.67374 19.281 1.88608 18.6729 1.27532V1.27532C18.0621 0.667207 17.2745 0.26813 16.4229 0.135319C14.214 -0.169115 11.9647 0.0417581 9.8509 0.751435C7.73711 1.46111 5.81622 2.65034 4.23859 4.22603C2.66095 5.80173 1.46937 7.72115 0.757095 9.83407C0.0448222 11.947 -0.168814 14.1961 0.132906 16.4053C0.265717 17.2569 0.664794 18.0446 1.27291 18.6553V18.6553C1.88367 19.2634 2.67132 19.6625 3.52291 19.7953C4.21063 19.9071 4.90616 19.964 5.60291 19.9653C9.40367 19.9382 13.0389 18.4065 15.7129 15.7053C17.3039 14.1391 18.504 12.2204 19.2162 10.1045C19.9285 7.98863 20.1329 5.73483 19.8129 3.52532V3.52532ZM2.18291 16.3353C2.15364 16.2572 2.13025 16.1769 2.11291 16.0953C1.83841 14.1971 2.01495 12.2609 2.62825 10.4436C3.24154 8.6263 4.27432 6.97905 5.64291 5.63532C7.9448 3.31158 11.0722 1.99233 14.3429 1.96532C14.9325 1.96221 15.5212 2.00904 16.1029 2.10532C16.1845 2.12266 16.2648 2.14606 16.3429 2.17532L11.4129 7.11532L10.6829 6.38532C10.5899 6.29159 10.4793 6.2172 10.3575 6.16643C10.2356 6.11566 10.1049 6.08952 9.97291 6.08952C9.84089 6.08952 9.71019 6.11566 9.58833 6.16643C9.46647 6.2172 9.35587 6.29159 9.26291 6.38532C9.07666 6.57268 8.97211 6.82613 8.97211 7.09032C8.97211 7.3545 9.07666 7.60796 9.26291 7.79532L9.99291 8.52532L8.53291 9.96532L7.80291 9.23532C7.61554 9.04907 7.36209 8.94453 7.09791 8.94453C6.83372 8.94453 6.58027 9.04907 6.39291 9.23532C6.29918 9.32828 6.22478 9.43888 6.17402 9.56074C6.12325 9.6826 6.09711 9.81331 6.09711 9.94532C6.09711 10.0773 6.12325 10.208 6.17402 10.3299C6.22478 10.4518 6.29918 10.5624 6.39291 10.6553L7.12291 11.3853L2.18291 16.3353ZM14.3029 14.3353C12.954 15.6948 11.3049 16.7188 9.48818 17.3249C7.67148 17.9311 5.7379 18.1025 3.84291 17.8253C3.76128 17.808 3.68106 17.7846 3.60291 17.7553L8.53291 12.8153L9.26291 13.5453C9.35549 13.6386 9.46553 13.7126 9.58674 13.7634C9.70796 13.8141 9.83798 13.8404 9.96937 13.8409C10.1008 13.8413 10.231 13.8159 10.3525 13.7661C10.4741 13.7162 10.5847 13.6429 10.6779 13.5503C10.7711 13.4577 10.8452 13.3477 10.8959 13.2265C10.9467 13.1053 10.973 12.9752 10.9735 12.8439C10.9739 12.7125 10.9485 12.5823 10.8987 12.4607C10.8488 12.3391 10.7755 12.2286 10.6829 12.1353L9.97291 11.4053L11.4129 9.96532L12.1429 10.6953C12.2363 10.788 12.3472 10.8613 12.469 10.9111C12.5908 10.9609 12.7213 10.9861 12.8529 10.9853C13.0507 10.9845 13.2438 10.925 13.4077 10.8145C13.5717 10.7039 13.6992 10.5472 13.7742 10.3642C13.8491 10.1811 13.8681 9.98 13.8287 9.78619C13.7893 9.59237 13.6933 9.41459 13.5529 9.27532L12.8229 8.54532L17.7629 3.61532C17.7922 3.69347 17.8156 3.77369 17.8329 3.85532C18.1041 5.7504 17.926 7.68271 17.3128 9.49624C16.6996 11.3098 15.6685 12.9537 14.3029 14.2953V14.3353Z" fill="var(--fill-0, #1E1F26)"/>
</svg>
