<svg preserveAspectRatio="none" width="100%" height="100%" overflow="visible" style="display: block;" viewBox="0 0 20 20" fill="none" xmlns="http://www.w3.org/2000/svg">
<path id="Vector" d="M3.41 2H5C5.26522 2 5.51957 1.89464 5.70711 1.70711C5.89464 1.51957 6 1.26522 6 1C6 0.734784 5.89464 0.48043 5.70711 0.292893C5.51957 0.105357 5.26522 0 5 0H1C0.869323 0.00157999 0.740222 0.028759 0.62 0.0799999C0.375651 0.181475 0.181475 0.375651 0.0799999 0.62C0.028759 0.740222 0.00157999 0.869323 0 1V5C0 5.26522 0.105357 5.51957 0.292893 5.70711C0.48043 5.89464 0.734784 6 1 6C1.26522 6 1.51957 5.89464 1.70711 5.70711C1.89464 5.51957 2 5.26522 2 5V3.41L7.79 9.21C7.88296 9.30373 7.99356 9.37812 8.11542 9.42889C8.23728 9.47966 8.36799 9.5058 8.5 9.5058C8.63201 9.5058 8.76272 9.47966 8.88458 9.42889C9.00644 9.37812 9.11704 9.30373 9.21 9.21C9.30373 9.11704 9.37812 9.00644 9.42889 8.88458C9.47966 8.76272 9.5058 8.63201 9.5058 8.5C9.5058 8.36799 9.47966 8.23728 9.42889 8.11542C9.37812 7.99356 9.30373 7.88296 9.21 7.79L3.41 2ZM19 14C18.7348 14 18.4804 14.1054 18.2929 14.2929C18.1054 14.4804 18 14.7348 18 15V16.59L12.21 10.79C12.0217 10.6017 11.7663 10.4959 11.5 10.4959C11.2337 10.4959 10.9783 10.6017 10.79 10.79C10.6017 10.9783 10.4959 11.2337 10.4959 11.5C10.4959 11.7663 10.6017 12.0217 10.79 12.21L16.59 18H15C14.7348 18 14.4804 18.1054 14.2929 18.2929C14.1054 18.4804 14 18.7348 14 19C14 19.2652 14.1054 19.5196 14.2929 19.7071C14.4804 19.8946 14.7348 20 15 20H19C19.1307 19.9984 19.2598 19.9712 19.38 19.92C19.6243 19.8185 19.8185 19.6243 19.92 19.38C19.9712 19.2598 19.9984 19.1307 20 19V15C20 14.7348 19.8946 14.4804 19.7071 14.2929C19.5196 14.1054 19.2652 14 19 14Z" fill="var(--fill-0, #1E1F26)"/>
</svg>
