<svg preserveAspectRatio="none" width="100%" height="100%" overflow="visible" style="display: block;" viewBox="0 0 9.99819 12" fill="none" xmlns="http://www.w3.org/2000/svg">
<path id="Vector" d="M8.99819 10H3.40819L6.70819 6.71C6.80191 6.61704 6.87631 6.50644 6.92708 6.38458C6.97785 6.26272 7.00398 6.13201 7.00398 6C7.00398 5.86799 6.97785 5.73728 6.92708 5.61542C6.87631 5.49356 6.80191 5.38296 6.70819 5.29L3.40819 2H8.99819C9.2634 2 9.51776 1.89464 9.70529 1.70711C9.89283 1.51957 9.99819 1.26522 9.99819 1C9.99819 0.734784 9.89283 0.48043 9.70529 0.292893C9.51776 0.105357 9.2634 0 8.99819 0H0.998186C0.800761 0.000985482 0.608044 0.0603878 0.444324 0.170721C0.280604 0.281054 0.153206 0.437381 0.0781861 0.62C0.00160672 0.802111 -0.0193157 1.00282 0.0180584 1.19681C0.0554325 1.3908 0.149429 1.56938 0.288186 1.71L4.58819 6L0.288186 10.29C0.149429 10.4306 0.0554325 10.6092 0.0180584 10.8032C-0.0193157 10.9972 0.00160672 11.1979 0.0781861 11.38C0.153206 11.5626 0.280604 11.7189 0.444324 11.8293C0.608044 11.9396 0.800761 11.999 0.998186 12H8.99819C9.2634 12 9.51776 11.8946 9.70529 11.7071C9.89283 11.5196 9.99819 11.2652 9.99819 11C9.99819 10.7348 9.89283 10.4804 9.70529 10.2929C9.51776 10.1054 9.2634 10 8.99819 10Z" fill="var(--fill-0, #1E1F26)"/>
</svg>
