<svg preserveAspectRatio="none" width="100%" height="100%" overflow="visible" style="display: block;" viewBox="0 0 21.5 17.5" fill="none" xmlns="http://www.w3.org/2000/svg">
<g id="Group">
<path id="Vector" d="M7.75 7.75C8.85457 7.75 9.75 6.85457 9.75 5.75C9.75 4.64543 8.85457 3.75 7.75 3.75C6.64543 3.75 5.75 4.64543 5.75 5.75C5.75 6.85457 6.64543 7.75 7.75 7.75Z" stroke="var(--stroke-0, black)" stroke-width="1.5"/>
<path id="Vector_2" d="M11.75 11.75C11.75 12.855 11.75 13.75 7.75 13.75C3.75 13.75 3.75 12.855 3.75 11.75C3.75 10.645 5.54 9.75 7.75 9.75C9.96 9.75 11.75 10.645 11.75 11.75Z" stroke="var(--stroke-0, black)" stroke-width="1.5"/>
<path id="Vector_3" d="M0.750001 8.75C0.750001 4.979 0.750001 3.093 1.922 1.922C3.093 0.750001 4.979 0.750001 8.75 0.750001H12.75C16.521 0.750001 18.407 0.750001 19.578 1.922C20.75 3.093 20.75 4.979 20.75 8.75C20.75 12.521 20.75 14.407 19.578 15.578C18.407 16.75 16.521 16.75 12.75 16.75H8.75C4.979 16.75 3.093 16.75 1.922 15.578C0.750001 14.407 0.750001 12.521 0.750001 8.75Z" stroke="var(--stroke-0, black)" stroke-width="1.5"/>
<path id="Vector_4" d="M17.75 8.75H13.75M17.75 5.75H12.75M17.75 11.75H14.75" stroke="var(--stroke-0, black)" stroke-width="1.5" stroke-linecap="round"/>
</g>
</svg>
