<svg preserveAspectRatio="none" width="100%" height="100%" overflow="visible" style="display: block;" viewBox="0 0 19.9934 17.0336" fill="none" xmlns="http://www.w3.org/2000/svg">
<path id="Vector" d="M16.4134 4.20671C15.8024 2.80272 14.7479 1.63779 13.4115 0.890438C12.0751 0.143088 10.5305 -0.145456 9.01439 0.0690207C7.49829 0.283498 6.09434 0.989164 5.01767 2.07789C3.941 3.16661 3.25101 4.57833 3.05342 6.09671C2.21564 6.30076 1.46622 6.77008 0.916867 7.43471C0.367514 8.09933 0.0476384 8.92369 0.00491486 9.78491C-0.0378086 10.6461 0.198908 11.4981 0.679783 12.2138C1.16066 12.9296 1.85994 13.4707 2.67342 13.7567C2.77713 13.7887 2.8849 13.8055 2.99342 13.8067C3.25864 13.8491 3.52985 13.7845 3.74739 13.627C3.96493 13.4694 4.11098 13.2319 4.15342 12.9667C4.19585 12.7015 4.13119 12.4303 3.97366 12.2127C3.81613 11.9952 3.57864 11.8491 3.31342 11.8067C2.93633 11.6706 2.60885 11.4243 2.37347 11.0997C2.1381 10.7752 2.00568 10.3874 1.99342 9.98671C1.99342 9.45628 2.20413 8.94757 2.57921 8.5725C2.95428 8.19743 3.46299 7.98671 3.99342 7.98671C4.25864 7.98671 4.51299 7.88135 4.70053 7.69382C4.88806 7.50628 4.99342 7.25193 4.99342 6.98671C4.99597 5.80399 5.41771 4.66046 6.18369 3.75929C6.94967 2.85813 8.01031 2.25766 9.17717 2.06458C10.344 1.87151 11.5415 2.09832 12.557 2.70472C13.5724 3.31112 14.34 4.25785 14.7234 5.37671C14.7806 5.54855 14.8833 5.70164 15.0207 5.81964C15.1581 5.93765 15.3249 6.01613 15.5034 6.04671C16.1048 6.15555 16.6585 6.44544 17.0906 6.8776C17.5227 7.30975 17.8125 7.86355 17.9212 8.46491C18.03 9.06627 17.9525 9.68649 17.6991 10.2426C17.4457 10.7987 17.0286 11.2642 16.5034 11.5767C16.2727 11.7093 16.1041 11.9282 16.0347 12.1851C15.9653 12.442 16.0008 12.716 16.1334 12.9467C16.266 13.1774 16.4849 13.3461 16.7418 13.4154C16.9987 13.4848 17.2727 13.4493 17.5034 13.3167C18.2616 12.8766 18.8908 12.2449 19.3278 11.4849C19.7649 10.7249 19.9944 9.8634 19.9934 8.98671C19.9904 7.91084 19.6404 6.86465 18.9954 6.00352C18.3505 5.14239 17.445 4.51225 16.4134 4.20671V4.20671ZM7.16342 10.2067C6.60445 10.7663 6.22393 11.479 6.06995 12.2548C5.91597 13.0306 5.99545 13.8347 6.29833 14.5653C6.60121 15.296 7.1139 15.9204 7.7716 16.3598C8.4293 16.7991 9.20248 17.0336 9.99342 17.0336C10.7844 17.0336 11.5575 16.7991 12.2152 16.3598C12.8729 15.9204 13.3856 15.296 13.6885 14.5653C13.9914 13.8347 14.0709 13.0306 13.9169 12.2548C13.7629 11.479 13.3824 10.7663 12.8234 10.2067C12.0673 9.47247 11.0574 9.05763 10.0034 9.04832C8.94948 9.039 7.93243 9.43594 7.16342 10.1567V10.2067ZM7.99342 12.9867C7.99342 12.4563 8.20413 11.9476 8.57921 11.5725C8.95428 11.1974 9.46299 10.9867 9.99342 10.9867C10.1657 10.9889 10.337 11.0125 10.5034 11.0567L8.06342 13.4867C8.01997 13.3235 7.99646 13.1556 7.99342 12.9867V12.9867ZM11.4034 14.3967C11.1555 14.6382 10.8492 14.8112 10.5144 14.8988C10.1796 14.9865 9.82784 14.9857 9.49342 14.8967L11.9234 12.4867C11.9677 12.6532 11.9912 12.8245 11.9934 12.9967C11.9886 13.5228 11.7766 14.0258 11.4034 14.3967Z" fill="var(--fill-0, #1E1F26)"/>
</svg>
