<svg preserveAspectRatio="none" width="100%" height="100%" overflow="visible" style="display: block;" viewBox="0 0 20.9933 20.968" fill="none" xmlns="http://www.w3.org/2000/svg">
<path id="Vector" d="M20.9933 12.968C20.9933 12.4376 20.7826 11.9289 20.4075 11.5538C20.0324 11.1787 19.5237 10.968 18.9933 10.968H12.9933C12.4628 10.968 11.9541 11.1787 11.5791 11.5538C11.204 11.9289 10.9933 12.4376 10.9933 12.968H7.99328V9.968H10.3233C11.1923 9.96945 12.0334 9.66165 12.6963 9.09967C13.3591 8.53769 13.8004 7.7582 13.9411 6.90067C14.0818 6.04314 13.9128 5.16351 13.4643 4.41917C13.0159 3.67483 12.3172 3.11435 11.4933 2.838C11.036 1.88444 10.2882 1.10043 9.35724 0.598655C8.42632 0.0968833 7.36028 -0.0968021 6.31235 0.0454401C5.26443 0.187682 4.28859 0.658527 3.52511 1.39029C2.76163 2.12205 2.24983 3.07705 2.06328 4.118C1.38607 4.34059 0.81024 4.79705 0.438981 5.40559C0.0677216 6.01414 -0.0747081 6.735 0.0372122 7.43902C0.149133 8.14303 0.508088 8.78419 1.04976 9.2476C1.59144 9.71102 2.28043 9.9664 2.99328 9.968H5.99328V17.968C5.99328 18.2332 6.09864 18.4876 6.28617 18.6751C6.47371 18.8626 6.72806 18.968 6.99328 18.968H10.9933C10.9933 19.4984 11.204 20.0071 11.5791 20.3822C11.9541 20.7573 12.4628 20.968 12.9933 20.968H18.9933C19.5237 20.968 20.0324 20.7573 20.4075 20.3822C20.7826 20.0071 20.9933 19.4984 20.9933 18.968V16.968C20.9896 16.6158 20.893 16.2709 20.7133 15.968C20.893 15.6651 20.9896 15.3202 20.9933 14.968V12.968ZM2.99328 7.968C2.72806 7.968 2.47371 7.86265 2.28617 7.67511C2.09864 7.48757 1.99328 7.23322 1.99328 6.968C1.99328 6.70279 2.09864 6.44843 2.28617 6.2609C2.47371 6.07336 2.72806 5.968 2.99328 5.968C3.2585 5.968 3.51285 5.86265 3.70039 5.67511C3.88792 5.48757 3.99328 5.23322 3.99328 4.968C3.98521 4.25436 4.23182 3.56121 4.68883 3.01304C5.14584 2.46487 5.78331 2.09757 6.48676 1.97712C7.19021 1.85667 7.91356 1.99094 8.52692 2.35583C9.14027 2.72073 9.60345 3.29233 9.83328 3.968C9.89194 4.13798 9.99535 4.28899 10.1326 4.40514C10.2699 4.52129 10.4359 4.59828 10.6133 4.628C11.0061 4.69302 11.3621 4.89788 11.6157 5.2048C11.8694 5.51172 12.0035 5.89999 11.9933 6.298C11.9933 6.74091 11.8173 7.16568 11.5041 7.47887C11.191 7.79206 10.7662 7.968 10.3233 7.968H2.99328ZM10.9933 16.968H7.99328V14.968H10.9933C10.9969 15.3202 11.0935 15.6651 11.2733 15.968C11.0935 16.2709 10.9969 16.6158 10.9933 16.968V16.968ZM12.9933 18.968V16.968H18.9933V18.968H12.9933ZM12.9933 14.968V12.968H18.9933V14.968H12.9933Z" fill="var(--fill-0, #1E1F26)"/>
</svg>
