<svg preserveAspectRatio="none" width="100%" height="100%" overflow="visible" style="display: block;" viewBox="0 0 18.0003 20" fill="none" xmlns="http://www.w3.org/2000/svg">
<path id="Vector" d="M15.0002 18H10.0002V12.94C12.1996 12.6941 14.2312 11.6465 15.707 9.99732C17.1828 8.34815 17.9992 6.21306 18.0002 4C18.0053 2.83662 17.7775 1.68399 17.3302 0.61C17.2785 0.489982 17.2038 0.381266 17.1102 0.29L17.0002 0.21C16.9364 0.157425 16.8657 0.113698 16.7902 0.0799999C16.7016 0.0389504 16.6071 0.01196 16.5102 0H16.4102H1.59022H1.50022C1.40099 0.00455157 1.30311 0.0248028 1.21022 0.0599999C1.1375 0.102455 1.06738 0.149204 1.00022 0.2L0.880218 0.29C0.786679 0.381266 0.711937 0.489982 0.660218 0.61C0.216406 1.6847 -0.00799505 2.8373 0.000217536 4C0.00126801 6.21306 0.817671 8.34815 2.29344 9.99732C3.7692 11.6465 5.80086 12.6941 8.00022 12.94V18H3.00022C2.735 18 2.48065 18.1054 2.29311 18.2929C2.10557 18.4804 2.00022 18.7348 2.00022 19C2.00022 19.2652 2.10557 19.5196 2.29311 19.7071C2.48065 19.8946 2.735 20 3.00022 20H15.0002C15.2654 20 15.5198 19.8946 15.7073 19.7071C15.8949 19.5196 16.0002 19.2652 16.0002 19C16.0002 18.7348 15.8949 18.4804 15.7073 18.2929C15.5198 18.1054 15.2654 18 15.0002 18ZM2.00022 4C1.99835 3.32272 2.09606 2.64885 2.29022 2H15.7102C15.9044 2.64885 16.0021 3.32272 16.0002 4C16.0002 5.85652 15.2627 7.63699 13.95 8.94975C12.6372 10.2625 10.8567 11 9.00022 11C7.1437 11 5.36322 10.2625 4.05047 8.94975C2.73772 7.63699 2.00022 5.85652 2.00022 4Z" fill="var(--fill-0, #1E1F26)"/>
</svg>
