<svg preserveAspectRatio="none" width="100%" height="100%" overflow="visible" style="display: block;" viewBox="0 0 18 19.9958" fill="none" xmlns="http://www.w3.org/2000/svg">
<path id="Vector" d="M17 1.9958C17.1966 1.99499 17.3886 1.93625 17.5519 1.82694C17.7153 1.71763 17.8429 1.56259 17.9186 1.38119C17.9944 1.1998 18.015 1.0001 17.9779 0.807055C17.9408 0.614009 17.8476 0.436182 17.71 0.295798C17.617 0.20207 17.5064 0.127676 17.3846 0.0769069C17.2627 0.0261382 17.132 0 17 0C16.868 0 16.7373 0.0261382 16.6154 0.0769069C16.4936 0.127676 16.383 0.20207 16.29 0.295798C16.2 0.387949 16.1287 0.496605 16.08 0.615798C16.024 0.734478 15.9966 0.864622 16 0.995798C16 1.26101 16.1054 1.51537 16.2929 1.70291C16.4804 1.89044 16.7348 1.9958 17 1.9958ZM17 10.9958C16.7348 10.9958 16.4804 11.1012 16.2929 11.2887C16.1054 11.4762 16 11.7306 16 11.9958V12.3858L14.52 10.9058C14.2626 10.6467 13.9564 10.441 13.6192 10.3007C13.2819 10.1604 12.9203 10.0881 12.555 10.0881C12.1897 10.0881 11.8281 10.1604 11.4908 10.3007C11.1536 10.441 10.8474 10.6467 10.59 10.9058L9.89 11.6058L7.41 9.1158C6.87897 8.61366 6.17585 8.33387 5.445 8.33387C4.71415 8.33387 4.01103 8.61366 3.48 9.1158L2 10.5958V4.9958C2 4.73058 2.10536 4.47623 2.29289 4.28869C2.48043 4.10116 2.73478 3.9958 3 3.9958H13C13.2652 3.9958 13.5196 3.89044 13.7071 3.7029C13.8946 3.51537 14 3.26101 14 2.9958C14 2.73058 13.8946 2.47623 13.7071 2.28869C13.5196 2.10116 13.2652 1.9958 13 1.9958H3C2.20435 1.9958 1.44129 2.31187 0.87868 2.87448C0.316071 3.43709 0 4.20015 0 4.9958V16.9958C0 17.7914 0.316071 18.5545 0.87868 19.1171C1.44129 19.6797 2.20435 19.9958 3 19.9958H15C15.7956 19.9958 16.5587 19.6797 17.1213 19.1171C17.6839 18.5545 18 17.7914 18 16.9958V11.9958C18 11.7306 17.8946 11.4762 17.7071 11.2887C17.5196 11.1012 17.2652 10.9958 17 10.9958ZM3 17.9958C2.73478 17.9958 2.48043 17.8904 2.29289 17.7029C2.10536 17.5154 2 17.261 2 16.9958V13.4258L4.9 10.5258C5.04691 10.3858 5.24206 10.3077 5.445 10.3077C5.64794 10.3077 5.84309 10.3858 5.99 10.5258L9.16 13.6958L13.45 17.9958H3ZM16 16.9958C15.9917 17.186 15.9292 17.3699 15.82 17.5258L11.31 12.9958L12.01 12.2958C12.1562 12.1505 12.3539 12.0689 12.56 12.0689C12.7661 12.0689 12.9638 12.1505 13.11 12.2958L16 15.2158V16.9958ZM17 2.9958C16.7348 2.9958 16.4804 3.10116 16.2929 3.28869C16.1054 3.47623 16 3.73058 16 3.9958V7.9958C16 8.26101 16.1054 8.51537 16.2929 8.7029C16.4804 8.89044 16.7348 8.9958 17 8.9958C17.2652 8.9958 17.5196 8.89044 17.7071 8.7029C17.8946 8.51537 18 8.26101 18 7.9958V3.9958C18 3.73058 17.8946 3.47623 17.7071 3.28869C17.5196 3.10116 17.2652 2.9958 17 2.9958Z" fill="var(--fill-0, #1E1F26)"/>
</svg>
