<svg preserveAspectRatio="none" width="100%" height="100%" overflow="visible" style="display: block;" viewBox="0 0 20 20" fill="none" xmlns="http://www.w3.org/2000/svg">
<path id="Vector" d="M0 12.67C0 13.2004 0.210714 13.7091 0.585786 14.0842C0.960859 14.4593 1.46957 14.67 2 14.67C2.53043 14.67 3.03914 14.4593 3.41421 14.0842C3.78929 13.7091 4 13.2004 4 12.67V10.67H2C1.46957 10.67 0.960859 10.8807 0.585786 11.2558C0.210714 11.6309 0 12.1396 0 12.67V12.67ZM12.64 9.33C13.1704 9.33 13.6791 9.11929 14.0542 8.74421C14.4293 8.36914 14.64 7.86043 14.64 7.33V2C14.64 1.46957 14.4293 0.960859 14.0542 0.585786C13.6791 0.210714 13.1704 0 12.64 0C12.1096 0 11.6009 0.210714 11.2258 0.585786C10.8507 0.960859 10.64 1.46957 10.64 2V7.33C10.64 7.59434 10.6924 7.85605 10.7941 8.10001C10.8959 8.34398 11.045 8.56535 11.2328 8.75133C11.4207 8.93731 11.6435 9.08421 11.8885 9.18354C12.1335 9.28286 12.3957 9.33264 12.66 9.33H12.64ZM19.96 7.33C19.96 6.79957 19.7493 6.29086 19.3742 5.91579C18.9991 5.54071 18.4904 5.33 17.96 5.33C17.4296 5.33 16.9209 5.54071 16.5458 5.91579C16.1707 6.29086 15.96 6.79957 15.96 7.33V9.33H17.96C18.226 9.33532 18.4904 9.28752 18.7377 9.18939C18.9849 9.09127 19.2102 8.9448 19.4001 8.75855C19.5901 8.5723 19.741 8.35002 19.844 8.10472C19.947 7.85942 20.0001 7.59604 20 7.33H19.96ZM7.34 10.67C6.80957 10.67 6.30086 10.8807 5.92579 11.2558C5.55071 11.6309 5.34 12.1396 5.34 12.67V18C5.34 18.5304 5.55071 19.0391 5.92579 19.4142C6.30086 19.7893 6.80957 20 7.34 20C7.87043 20 8.37914 19.7893 8.75421 19.4142C9.12929 19.0391 9.34 18.5304 9.34 18V12.67C9.34 12.1396 9.12929 11.6309 8.75421 11.2558C8.37914 10.8807 7.87043 10.67 7.34 10.67ZM12.66 16H10.66V18C10.66 18.3956 10.7773 18.7822 10.9971 19.1111C11.2168 19.44 11.5292 19.6964 11.8946 19.8478C12.2601 19.9991 12.6622 20.0387 13.0502 19.9616C13.4381 19.8844 13.7945 19.6939 14.0742 19.4142C14.3539 19.1345 14.5444 18.7781 14.6216 18.3902C14.6987 18.0022 14.6591 17.6001 14.5078 17.2346C14.3564 16.8692 14.1 16.5568 13.7711 16.3371C13.4422 16.1173 13.0556 16 12.66 16ZM18 10.67H12.66C12.1296 10.67 11.6209 10.8807 11.2458 11.2558C10.8707 11.6309 10.66 12.1396 10.66 12.67C10.66 13.2004 10.8707 13.7091 11.2458 14.0842C11.6209 14.4593 12.1296 14.67 12.66 14.67H18C18.5304 14.67 19.0391 14.4593 19.4142 14.0842C19.7893 13.7091 20 13.2004 20 12.67C20 12.1396 19.7893 11.6309 19.4142 11.2558C19.0391 10.8807 18.5304 10.67 18 10.67V10.67ZM7.34 5.33H2C1.46957 5.33 0.960859 5.54071 0.585786 5.91579C0.210714 6.29086 0 6.79957 0 7.33C0 7.86043 0.210714 8.36914 0.585786 8.74421C0.960859 9.11929 1.46957 9.33 2 9.33H7.34C7.87043 9.33 8.37914 9.11929 8.75421 8.74421C9.12929 8.36914 9.34 7.86043 9.34 7.33C9.34 6.79957 9.12929 6.29086 8.75421 5.91579C8.37914 5.54071 7.87043 5.33 7.34 5.33V5.33ZM7.34 0C6.80957 0 6.30086 0.210714 5.92579 0.585786C5.55071 0.960859 5.34 1.46957 5.34 2C5.34 2.53043 5.55071 3.03914 5.92579 3.41421C6.30086 3.78929 6.80957 4 7.34 4H9.34V2C9.34 1.46957 9.12929 0.960859 8.75421 0.585786C8.37914 0.210714 7.87043 0 7.34 0Z" fill="var(--fill-0, #1E1F26)"/>
</svg>
