<svg preserveAspectRatio="none" width="100%" height="100%" overflow="visible" style="display: block;" viewBox="0 0 18.88 20" fill="none" xmlns="http://www.w3.org/2000/svg">
<path id="Vector" d="M8.88 0C6.31638 0.00731219 3.85349 0.998914 2 2.77V1C2 0.734784 1.89464 0.48043 1.70711 0.292893C1.51957 0.105357 1.26522 0 1 0C0.734784 0 0.48043 0.105357 0.292893 0.292893C0.105357 0.48043 0 0.734784 0 1V5.5C0 5.76522 0.105357 6.01957 0.292893 6.20711C0.48043 6.39464 0.734784 6.5 1 6.5H5.5C5.76522 6.5 6.01957 6.39464 6.20711 6.20711C6.39464 6.01957 6.5 5.76522 6.5 5.5C6.5 5.23478 6.39464 4.98043 6.20711 4.79289C6.01957 4.60536 5.76522 4.5 5.5 4.5H3.1C4.01171 3.53701 5.1485 2.81576 6.40813 2.40114C7.66775 1.98651 9.01069 1.89152 10.3161 2.1247C11.6216 2.35788 12.8486 2.91193 13.8868 3.73699C14.925 4.56205 15.7418 5.63226 16.2637 6.85133C16.7857 8.0704 16.9964 9.4001 16.8769 10.7208C16.7574 12.0415 16.3115 13.3118 15.5793 14.4174C14.847 15.5231 13.8514 16.4293 12.682 17.0547C11.5126 17.68 10.2061 18.0049 8.88 18C8.61478 18 8.36043 18.1054 8.17289 18.2929C7.98536 18.4804 7.88 18.7348 7.88 19C7.88 19.2652 7.98536 19.5196 8.17289 19.7071C8.36043 19.8946 8.61478 20 8.88 20C11.5322 20 14.0757 18.9464 15.9511 17.0711C17.8264 15.1957 18.88 12.6522 18.88 10C18.88 7.34784 17.8264 4.8043 15.9511 2.92893C14.0757 1.05357 11.5322 0 8.88 0V0ZM8.88 6C8.61478 6 8.36043 6.10536 8.17289 6.29289C7.98536 6.48043 7.88 6.73478 7.88 7V10C7.88 10.2652 7.98536 10.5196 8.17289 10.7071C8.36043 10.8946 8.61478 11 8.88 11H10.88C11.1452 11 11.3996 10.8946 11.5871 10.7071C11.7746 10.5196 11.88 10.2652 11.88 10C11.88 9.73478 11.7746 9.48043 11.5871 9.29289C11.3996 9.10536 11.1452 9 10.88 9H9.88V7C9.88 6.73478 9.77464 6.48043 9.58711 6.29289C9.39957 6.10536 9.14522 6 8.88 6Z" fill="var(--fill-0, #1E1F26)"/>
</svg>
