<svg preserveAspectRatio="none" width="100%" height="100%" overflow="visible" style="display: block;" viewBox="0 0 20.0213 20.0008" fill="none" xmlns="http://www.w3.org/2000/svg">
<path id="Vector" d="M19.71 5.38079L14.62 0.290793C14.4326 0.104542 14.1792 0 13.915 0C13.6508 0 13.3974 0.104542 13.21 0.290793C13.1163 0.383756 13.0419 0.494357 12.9911 0.616216C12.9403 0.738075 12.9142 0.868781 12.9142 1.00079C12.9142 1.1328 12.9403 1.26351 12.9911 1.38537C13.0419 1.50723 13.1163 1.61783 13.21 1.71079L15 3.54079L9.58001 9.00079L8.58001 8.00079C8.3013 7.72111 7.97012 7.4992 7.60546 7.34779C7.24081 7.19637 6.84985 7.11843 6.45501 7.11843C6.06017 7.11843 5.66921 7.19637 5.30455 7.34779C4.9399 7.4992 4.60872 7.72111 4.33001 8.00079L0.880009 11.4208C0.60016 11.7003 0.378341 12.0324 0.227316 12.3979C0.0762903 12.7635 -0.000960164 13.1553 9.00736e-06 13.5508V17.0008C9.00736e-06 17.7964 0.31608 18.5595 0.878689 19.1221C1.4413 19.6847 2.20436 20.0008 3.00001 20.0008H6.45001C6.84553 20.0018 7.23733 19.9245 7.60288 19.7735C7.96843 19.6225 8.30051 19.4006 8.58001 19.1208L12 15.6908C12.2797 15.4121 12.5016 15.0809 12.653 14.7162C12.8044 14.3516 12.8824 13.9606 12.8824 13.5658C12.8824 13.1709 12.8044 12.78 12.653 12.4153C12.5016 12.0507 12.2797 11.7195 12 11.4408L11 10.4408L16.46 5.00079L18.29 6.83079C18.383 6.92452 18.4936 6.99891 18.6154 7.04968C18.7373 7.10045 18.868 7.12659 19 7.12659C19.132 7.12659 19.2627 7.10045 19.3846 7.04968C19.5064 6.99891 19.617 6.92452 19.71 6.83079C19.8083 6.73737 19.8867 6.62492 19.9402 6.50029C19.9937 6.37565 20.0213 6.24143 20.0213 6.10579C20.0213 5.97015 19.9937 5.83594 19.9402 5.7113C19.8867 5.58666 19.8083 5.47421 19.71 5.38079V5.38079ZM10.6 14.2708L7.16001 17.7108C7.06657 17.8035 6.95575 17.8768 6.83392 17.9266C6.71208 17.9763 6.58162 18.0016 6.45001 18.0008H3.00001C2.73479 18.0008 2.48044 17.8954 2.2929 17.7079C2.10537 17.5204 2.00001 17.266 2.00001 17.0008V13.5508C1.99925 13.4192 2.02447 13.2887 2.07424 13.1669C2.124 13.045 2.19733 12.9342 2.29001 12.8408L5.73001 9.40079C5.91737 9.21454 6.17082 9.11 6.43501 9.11C6.6992 9.11 6.95265 9.21454 7.14001 9.40079L8.14001 10.4008L7.25001 11.3008C7.06376 11.4882 6.95922 11.7416 6.95922 12.0058C6.95922 12.27 7.06376 12.5234 7.25001 12.7108C7.34814 12.8084 7.46548 12.8846 7.59458 12.9345C7.72368 12.9844 7.86173 13.007 8.00001 13.0008C8.26235 12.9997 8.51375 12.8955 8.70001 12.7108L9.60001 11.8208L10.6 12.8208C10.6983 12.9142 10.7767 13.0267 10.8302 13.1513C10.8837 13.2759 10.9113 13.4102 10.9113 13.5458C10.9113 13.6814 10.8837 13.8156 10.8302 13.9403C10.7767 14.0649 10.6983 14.1774 10.6 14.2708Z" fill="var(--fill-0, #1E1F26)"/>
</svg>
