<svg preserveAspectRatio="none" width="100%" height="100%" overflow="visible" style="display: block;" viewBox="0 0 21 19" fill="none" xmlns="http://www.w3.org/2000/svg">
<path id="Vector" d="M19 4.18V3C19 2.20435 18.6839 1.44129 18.1213 0.87868C17.5587 0.31607 16.7956 0 16 0C15.2044 0 14.4413 0.31607 13.8787 0.87868C13.3161 1.44129 13 2.20435 13 3V4.18C12.4165 4.38631 11.911 4.76807 11.5529 5.27293C11.1949 5.7778 11.0017 6.38106 11 7V9C11 9.79565 11.3161 10.5587 11.8787 11.1213C12.4413 11.6839 13.2044 12 14 12H18C18.7956 12 19.5587 11.6839 20.1213 11.1213C20.6839 10.5587 21 9.79565 21 9V7C20.9983 6.38106 20.8051 5.7778 20.4471 5.27293C20.089 4.76807 19.5835 4.38631 19 4.18V4.18ZM15 3C15 2.73478 15.1054 2.48043 15.2929 2.29289C15.4804 2.10536 15.7348 2 16 2C16.2652 2 16.5196 2.10536 16.7071 2.29289C16.8946 2.48043 17 2.73478 17 3V4H15V3ZM19 9C19 9.26522 18.8946 9.51957 18.7071 9.70711C18.5196 9.89464 18.2652 10 18 10H14C13.7348 10 13.4804 9.89464 13.2929 9.70711C13.1054 9.51957 13 9.26522 13 9V7C13 6.73478 13.1054 6.48043 13.2929 6.29289C13.4804 6.10536 13.7348 6 14 6H18C18.2652 6 18.5196 6.10536 18.7071 6.29289C18.8946 6.48043 19 6.73478 19 7V9ZM19 14C18.7348 14 18.4804 14.1054 18.2929 14.2929C18.1054 14.4804 18 14.7348 18 15V16C18 16.2652 17.8946 16.5196 17.7071 16.7071C17.5196 16.8946 17.2652 17 17 17H3C2.73478 17 2.48043 16.8946 2.29289 16.7071C2.10536 16.5196 2 16.2652 2 16V6.41L7.88 12.29C7.97258 12.3832 8.08262 12.4573 8.20384 12.508C8.32505 12.5588 8.45507 12.5851 8.58646 12.5856C8.71786 12.586 8.84806 12.5606 8.96963 12.5107C9.0912 12.4609 9.20176 12.3876 9.295 12.295C9.38824 12.2024 9.46233 12.0924 9.51304 11.9712C9.56375 11.8499 9.59009 11.7199 9.59056 11.5885C9.59102 11.4571 9.5656 11.3269 9.51575 11.2054C9.46589 11.0838 9.39258 10.9732 9.3 10.88L3.41 5H9C9.26522 5 9.51957 4.89464 9.70711 4.70711C9.89464 4.51957 10 4.26522 10 4C10 3.73478 9.89464 3.48043 9.70711 3.29289C9.51957 3.10536 9.26522 3 9 3H3C2.20435 3 1.44129 3.31607 0.87868 3.87868C0.316071 4.44129 0 5.20435 0 6V16C0 16.7956 0.316071 17.5587 0.87868 18.1213C1.44129 18.6839 2.20435 19 3 19H17C17.7956 19 18.5587 18.6839 19.1213 18.1213C19.6839 17.5587 20 16.7956 20 16V15C20 14.7348 19.8946 14.4804 19.7071 14.2929C19.5196 14.1054 19.2652 14 19 14V14Z" fill="var(--fill-0, #1E1F26)"/>
</svg>
