<svg preserveAspectRatio="none" width="100%" height="100%" overflow="visible" style="display: block;" viewBox="0 0 18.995 20.0058" fill="none" xmlns="http://www.w3.org/2000/svg">
<path id="Vector" d="M18.92 15.62C18.8724 15.4972 18.801 15.3851 18.71 15.29L15.71 12.29C15.5217 12.1017 15.2663 11.9959 15 11.9959C14.7337 11.9959 14.4783 12.1017 14.29 12.29C14.1017 12.4783 13.9959 12.7337 13.9959 13C13.9959 13.2663 14.1017 13.5217 14.29 13.71L15.59 15H1C0.734784 15 0.48043 15.1054 0.292893 15.2929C0.105357 15.4804 0 15.7348 0 16C0 16.2652 0.105357 16.5196 0.292893 16.7071C0.48043 16.8946 0.734784 17 1 17H15.59L14.29 18.29C14.1963 18.383 14.1219 18.4936 14.0711 18.6154C14.0203 18.7373 13.9942 18.868 13.9942 19C13.9942 19.132 14.0203 19.2627 14.0711 19.3846C14.1219 19.5064 14.1963 19.617 14.29 19.71C14.383 19.8037 14.4936 19.8781 14.6154 19.9289C14.7373 19.9797 14.868 20.0058 15 20.0058C15.132 20.0058 15.2627 19.9797 15.3846 19.9289C15.5064 19.8781 15.617 19.8037 15.71 19.71L18.71 16.71C18.801 16.6149 18.8724 16.5028 18.92 16.38C19.02 16.1365 19.02 15.8635 18.92 15.62V15.62ZM6 8V12C6 12.2652 6.10536 12.5196 6.29289 12.7071C6.48043 12.8946 6.73478 13 7 13C7.26522 13 7.51957 12.8946 7.70711 12.7071C7.89464 12.5196 8 12.2652 8 12V2H10V12C10 12.2652 10.1054 12.5196 10.2929 12.7071C10.4804 12.8946 10.7348 13 11 13C11.2652 13 11.5196 12.8946 11.7071 12.7071C11.8946 12.5196 12 12.2652 12 12V2H13C13.2652 2 13.5196 1.89464 13.7071 1.70711C13.8946 1.51957 14 1.26522 14 1C14 0.734784 13.8946 0.48043 13.7071 0.292893C13.5196 0.105357 13.2652 0 13 0H6C4.93913 0 3.92172 0.421427 3.17157 1.17157C2.42143 1.92172 2 2.93913 2 4C2 5.06087 2.42143 6.07828 3.17157 6.82843C3.92172 7.57857 4.93913 8 6 8V8ZM6 2V6C5.46957 6 4.96086 5.78929 4.58579 5.41421C4.21071 5.03914 4 4.53043 4 4C4 3.46957 4.21071 2.96086 4.58579 2.58579C4.96086 2.21071 5.46957 2 6 2V2Z" fill="var(--fill-0, #1E1F26)"/>
</svg>
