<svg preserveAspectRatio="none" width="100%" height="100%" overflow="visible" style="display: block;" viewBox="0 0 20.0054 20.0124" fill="none" xmlns="http://www.w3.org/2000/svg">
<path id="Vector" d="M19.6127 9.80846L16.3627 7.27846L19.6227 4.71846C19.7517 4.61724 19.8538 4.48587 19.9201 4.3359C19.9863 4.18593 20.0147 4.02197 20.0027 3.85846C19.9868 3.69556 19.9333 3.53856 19.8466 3.39977C19.7598 3.26097 19.6421 3.14415 19.5027 3.05846L14.3627 0.128457C14.1822 0.0269039 13.9746 -0.0160944 13.7686 0.00540108C13.5626 0.0268966 13.3683 0.111825 13.2127 0.248457L10.0027 3.04846L6.79269 0.248457C6.63703 0.111825 6.44279 0.0268966 6.23679 0.00540108C6.03079 -0.0160944 5.8232 0.0269039 5.64269 0.128457L0.502689 3.05846C0.363241 3.14415 0.245531 3.26097 0.158784 3.39977C0.072037 3.53856 0.0186098 3.69556 0.00268889 3.85846C-0.00932599 4.02197 0.0190484 4.18593 0.0853136 4.3359C0.151579 4.48587 0.253702 4.61724 0.382689 4.71846L3.64269 7.27846L0.392689 9.76846C0.261874 9.86859 0.157823 9.99949 0.0897844 10.1495C0.021746 10.2996 -0.00817216 10.4641 0.00268889 10.6285C0.0137695 10.7927 0.0652009 10.9516 0.152421 11.0911C0.239642 11.2307 0.359955 11.3465 0.502689 11.4285L3.91269 13.4285V15.8985C3.9134 16.0693 3.9579 16.2372 4.04193 16.386C4.12596 16.5348 4.24672 16.6596 4.39269 16.7485L9.48269 19.8785C9.63471 19.9662 9.80715 20.0124 9.98269 20.0124C10.1582 20.0124 10.3307 19.9662 10.4827 19.8785L15.5727 16.7485C15.7187 16.6596 15.8394 16.5348 15.9235 16.386C16.0075 16.2372 16.052 16.0693 16.0527 15.8985V13.4185L19.4627 11.4685C19.6054 11.3865 19.7257 11.2707 19.813 11.1311C19.9002 10.9916 19.9516 10.8327 19.9627 10.6685C19.9782 10.5075 19.9545 10.3452 19.8936 10.1954C19.8326 10.0456 19.7362 9.91282 19.6127 9.80846V9.80846ZM14.0027 2.21846L17.2327 4.05846L14.6827 6.05846L11.6827 4.21846L14.0027 2.21846ZM12.9127 7.33846L10.0027 9.33846L7.09269 7.33846L10.0027 5.54846L12.9127 7.33846ZM2.79269 4.05846L6.00269 2.21846L8.31269 4.21846L5.31269 6.05846L2.79269 4.05846ZM2.79269 10.4485L5.29269 8.52846L8.29269 10.6085L6.07269 12.3385L2.79269 10.4485ZM14.0827 15.3085L10.0027 17.8285L5.91269 15.3085V14.5085C6.05878 14.5443 6.21109 14.5468 6.35826 14.5156C6.50543 14.4844 6.64367 14.4205 6.76269 14.3285L10.0027 11.8285L13.2427 14.3285C13.4172 14.4639 13.6317 14.5378 13.8527 14.5385C13.9324 14.5481 14.013 14.5481 14.0927 14.5385L14.0827 15.3085ZM13.9327 12.3085L11.7027 10.6085L14.7027 8.52846L17.2127 10.4685L13.9327 12.3085Z" fill="var(--fill-0, #1E1F26)"/>
</svg>
