<svg preserveAspectRatio="none" width="100%" height="100%" overflow="visible" style="display: block;" viewBox="0 0 20.0181 18.1664" fill="none" xmlns="http://www.w3.org/2000/svg">
<path id="Vector" d="M19.7002 5.08294C19.5787 4.96297 19.4285 4.87609 19.264 4.83058C19.0995 4.78507 18.926 4.78244 18.7602 4.82294C18.5471 4.87325 18.3291 4.90008 18.1102 4.90294C17.3145 4.90294 16.5514 4.58687 15.9888 4.02426C15.4262 3.46166 15.1102 2.69859 15.1102 1.90294C15.1127 1.68069 15.1395 1.45937 15.1902 1.24294C15.2307 1.0771 15.228 0.903642 15.1825 0.739099C15.137 0.574555 15.0501 0.424403 14.9302 0.302944C14.8117 0.181098 14.6642 0.0914484 14.5014 0.0424576C14.3387 -0.00653329 14.1662 -0.013249 14.0002 0.0229442C13.008 0.252581 12.1095 0.779732 11.4251 1.53388C10.7406 2.28802 10.3028 3.23319 10.1702 4.24294C9.62798 4.08281 9.06549 4.00197 8.50016 4.00294C7.06642 4.00033 5.67913 4.5112 4.58952 5.44306C3.4999 6.37492 2.78 7.66615 2.56016 9.08294C1.81749 9.29343 1.1646 9.74222 0.702024 10.3602C0.239448 10.9782 -0.00716456 11.7311 0.000158502 12.5029C0.000528571 13.0459 0.128295 13.5811 0.373184 14.0657C0.618073 14.5503 0.973251 14.9706 1.41016 15.2929C1.51507 15.3804 1.63677 15.4454 1.76777 15.484C1.89877 15.5226 2.03629 15.5339 2.17184 15.5173C2.30739 15.5007 2.43811 15.4566 2.55594 15.3875C2.67377 15.3185 2.7762 15.226 2.85693 15.1159C2.93766 15.0057 2.99497 14.8802 3.02534 14.7471C3.0557 14.6139 3.05847 14.476 3.03347 14.3417C3.00848 14.2075 2.95625 14.0797 2.88001 13.9664C2.80376 13.8531 2.70512 13.7567 2.59016 13.6829C2.4061 13.5464 2.25677 13.3684 2.15428 13.1634C2.05178 12.9584 1.99898 12.7321 2.00016 12.5029C2.00016 12.1051 2.15819 11.7236 2.4395 11.4423C2.7208 11.161 3.10233 11.0029 3.50016 11.0029C3.76538 11.0029 4.01973 10.8976 4.20726 10.7101C4.3948 10.5225 4.50016 10.2682 4.50016 10.0029C4.50199 9.28477 4.69715 8.58033 5.06514 7.96359C5.43313 7.34685 5.96038 6.84056 6.59153 6.49788C7.22268 6.1552 7.93445 5.98876 8.65211 6.01605C9.36977 6.04333 10.0668 6.26333 10.6702 6.65294V6.65294C11.4022 7.12551 11.9549 7.82961 12.2402 8.65294C12.2988 8.82292 12.4022 8.97393 12.5395 9.09008C12.6768 9.20623 12.8428 9.28322 13.0202 9.31294C13.5173 9.39493 13.9745 9.63587 14.3232 9.99964C14.6718 10.3634 14.8932 10.8304 14.954 11.3306C15.0148 11.8308 14.9119 12.3372 14.6606 12.7739C14.4093 13.2107 14.0232 13.5542 13.5602 13.7529C13.4391 13.8051 13.3295 13.8808 13.2377 13.9755C13.146 14.0702 13.0739 14.1821 13.0255 14.3048C12.9772 14.4274 12.9536 14.5585 12.9561 14.6903C12.9586 14.8221 12.9872 14.9522 13.0402 15.0729C13.1182 15.2518 13.2469 15.4039 13.4104 15.5106C13.5739 15.6172 13.765 15.6736 13.9602 15.6729C14.0983 15.6709 14.2345 15.6402 14.3602 15.5829C15.1376 15.2441 15.7985 14.6844 16.2607 13.9733C16.7229 13.2622 16.9661 12.431 16.9602 11.5829C16.9641 10.8861 16.7957 10.1991 16.4702 9.58294C17.3251 9.35682 18.1037 8.90533 18.7247 8.27561C19.3456 7.64588 19.7861 6.86101 20.0002 6.00294C20.0321 5.83674 20.0213 5.66515 19.9689 5.50424C19.9164 5.34333 19.8239 5.19838 19.7002 5.08294ZM15.1102 7.90294C14.9704 7.91377 14.8299 7.91377 14.6902 7.90294C14.4594 7.77931 14.2185 7.6756 13.9702 7.59294C13.5635 6.6928 12.9378 5.90892 12.1502 5.31294C12.1502 5.19294 12.1502 5.06294 12.1502 4.94294C12.1501 4.50962 12.244 4.08144 12.4252 3.68785C12.6065 3.29426 12.8709 2.9446 13.2002 2.66294C13.357 3.72798 13.8534 4.71397 14.6155 5.47429C15.3776 6.2346 16.3647 6.72864 17.4302 6.88294C17.1404 7.21013 16.7826 7.47005 16.3819 7.64451C15.9811 7.81897 15.5471 7.90376 15.1102 7.89294V7.90294ZM10.5002 14.0029H9.73016L10.1202 13.3329C10.2528 13.1022 10.2883 12.8282 10.2189 12.5713C10.1495 12.3144 9.9809 12.0956 9.75016 11.9629C9.51942 11.8303 9.24545 11.7948 8.98853 11.8642C8.7316 11.9336 8.51277 12.1022 8.38016 12.3329L8.00016 13.0029L7.62016 12.3329C7.48755 12.1022 7.26871 11.9336 7.01179 11.8642C6.75486 11.7948 6.4809 11.8303 6.25016 11.9629C6.01942 12.0956 5.85081 12.3144 5.78142 12.5713C5.71203 12.8282 5.74755 13.1022 5.88016 13.3329L6.27016 14.0029H5.50016C5.23494 14.0029 4.98059 14.1083 4.79305 14.2958C4.60552 14.4834 4.50016 14.7377 4.50016 15.0029C4.50016 15.2682 4.60552 15.5225 4.79305 15.7101C4.98059 15.8976 5.23494 16.0029 5.50016 16.0029H6.27016L5.88016 16.6629C5.74755 16.8937 5.71203 17.1676 5.78142 17.4246C5.85081 17.6815 6.01942 17.9003 6.25016 18.0329C6.4809 18.1656 6.75486 18.2011 7.01179 18.1317C7.26871 18.0623 7.48755 17.8937 7.62016 17.6629L8.00016 17.0029L8.38016 17.6629C8.44582 17.7772 8.53334 17.8774 8.63772 17.9578C8.74211 18.0382 8.86131 18.0973 8.98853 18.1317C9.11575 18.166 9.24848 18.175 9.37916 18.1581C9.50984 18.1411 9.63591 18.0986 9.75016 18.0329C9.86441 17.9673 9.96461 17.8798 10.045 17.7754C10.1255 17.671 10.1845 17.5518 10.2189 17.4246C10.2533 17.2974 10.2622 17.1646 10.2453 17.0339C10.2283 16.9033 10.1858 16.7772 10.1202 16.6629L9.73016 16.0029H10.5002C10.7654 16.0029 11.0197 15.8976 11.2073 15.7101C11.3948 15.5225 11.5002 15.2682 11.5002 15.0029C11.5002 14.7377 11.3948 14.4834 11.2073 14.2958C11.0197 14.1083 10.7654 14.0029 10.5002 14.0029Z" fill="var(--fill-0, #1E1F26)"/>
</svg>
