<svg preserveAspectRatio="none" width="100%" height="100%" overflow="visible" style="display: block;" viewBox="0 0 20.0038 20" fill="none" xmlns="http://www.w3.org/2000/svg">
<path id="Vector" d="M18.5349 1.46C17.8351 0.762004 16.9442 0.287055 15.9746 0.0951534C15.0051 -0.0967487 14.0004 0.00300553 13.0875 0.381815C12.1746 0.760624 11.3945 1.40149 10.8456 2.22346C10.2968 3.04544 10.0038 4.01163 10.0038 5C10.0038 5.98837 10.2968 6.95457 10.8456 7.77654C11.3945 8.59851 12.1746 9.23938 13.0875 9.61819C14.0004 9.997 15.0051 10.0968 15.9746 9.90485C16.9442 9.71295 17.8351 9.238 18.5349 8.54C19.0005 8.07555 19.37 7.52379 19.622 6.91634C19.8741 6.30889 20.0038 5.65768 20.0038 5C20.0038 4.34233 19.8741 3.69112 19.622 3.08367C19.37 2.47621 19.0005 1.92446 18.5349 1.46V1.46ZM12.8749 2.88C13.437 2.31723 14.1995 2.0007 14.9949 2C15.4385 2.00413 15.8757 2.10659 16.2749 2.3L12.2749 6.3C12.008 5.73809 11.9223 5.1071 12.0298 4.49438C12.1373 3.88165 12.4326 3.31749 12.8749 2.88V2.88ZM17.1149 7.12C16.6767 7.55471 16.1151 7.84367 15.5066 7.94747C14.8981 8.05126 14.2724 7.96485 13.7149 7.7L17.7149 3.7C17.9818 4.26191 18.0675 4.8929 17.96 5.50563C17.8525 6.11835 17.5572 6.68251 17.1149 7.12V7.12ZM5.9949 8C5.21381 7.99688 4.43979 8.14811 3.71731 8.445C2.99483 8.74188 2.33812 9.17858 1.7849 9.73V9.73C0.938331 10.5657 0.359273 11.6342 0.121295 12.7997C-0.116683 13.9652 -0.00284082 15.1751 0.448358 16.2758C0.899558 17.3765 1.66775 18.3182 2.65534 18.9813C3.64293 19.6444 4.80534 19.999 5.9949 20C7.53694 19.9992 9.01949 19.4048 10.1349 18.34L10.2549 18.26C10.2759 18.2219 10.2993 18.1852 10.3249 18.15C11.1379 17.3011 11.6836 16.2322 11.8944 15.0759C12.1051 13.9195 11.9716 12.7268 11.5104 11.6457C11.0492 10.5646 10.2806 9.64273 9.30009 8.99462C8.31957 8.3465 7.17027 8.00065 5.9949 8V8ZM3.1649 16.83C2.54599 16.2042 2.15077 15.3917 2.04048 14.5185C1.9302 13.6453 2.11101 12.76 2.5549 12L7.9949 17.44C7.23487 17.8839 6.34964 18.0647 5.47641 17.9544C4.60319 17.8441 3.79071 17.4489 3.1649 16.83V16.83ZM9.4349 16L3.9949 10.56C4.60063 10.2005 5.29056 10.0073 5.9949 10C6.695 10.0042 7.38174 10.1921 7.98647 10.5449C8.5912 10.8977 9.09274 11.403 9.44096 12.0104C9.78919 12.6178 9.9719 13.3059 9.97084 14.006C9.96977 14.7061 9.78497 15.3937 9.4349 16Z" fill="var(--fill-0, #1E1F26)"/>
</svg>
