<svg preserveAspectRatio="none" width="100%" height="100%" overflow="visible" style="display: block;" viewBox="0 0 21.0001 19.9999" fill="none" xmlns="http://www.w3.org/2000/svg">
<path id="Vector" d="M10.0001 15.9999H5.00005C4.73484 15.9999 4.48048 16.1053 4.29295 16.2928C4.10541 16.4803 4.00005 16.7347 4.00005 16.9999C4.00005 17.2651 4.10541 17.5195 4.29295 17.707C4.48048 17.8945 4.73484 17.9999 5.00005 17.9999H10.0001C10.2642 18.0034 10.5165 18.1099 10.7033 18.2966C10.8901 18.4834 10.9966 18.7358 11.0001 18.9999C11.0001 19.2651 11.1054 19.5195 11.2929 19.707C11.4805 19.8945 11.7348 19.9999 12.0001 19.9999C12.2653 19.9999 12.5196 19.8945 12.7072 19.707C12.8947 19.5195 13.0001 19.2651 13.0001 18.9999C12.9992 18.2045 12.6828 17.442 12.1204 16.8795C11.558 16.3171 10.7954 16.0008 10.0001 15.9999ZM12.0001 5.99989C12.1978 5.99989 12.3912 5.94125 12.5556 5.83136C12.7201 5.72148 12.8482 5.5653 12.9239 5.38258C12.9996 5.19985 13.0194 4.99879 12.9808 4.8048C12.9423 4.61082 12.847 4.43264 12.7072 4.29279C12.5673 4.15294 12.3891 4.05769 12.1951 4.01911C12.0012 3.98052 11.8001 4.00033 11.6174 4.07601C11.4346 4.1517 11.2785 4.27988 11.1686 4.44432C11.0587 4.60877 11.0001 4.80211 11.0001 4.99989C11.0001 5.26511 11.1054 5.51946 11.2929 5.707C11.4805 5.89454 11.7348 5.99989 12.0001 5.99989ZM16.0001 5.99989H18.0001C18.7954 5.99903 19.558 5.68268 20.1204 5.12026C20.6828 4.55783 20.9992 3.79528 21.0001 2.99989C21.0001 2.73468 20.8947 2.48032 20.7072 2.29279C20.5196 2.10525 20.2653 1.99989 20.0001 1.99989C19.7348 1.99989 19.4805 2.10525 19.2929 2.29279C19.1054 2.48032 19.0001 2.73468 19.0001 2.99989C18.9966 3.26403 18.8901 3.51636 18.7033 3.70314C18.5165 3.88993 18.2642 3.9964 18.0001 3.99989H16.0001C15.7348 3.99989 15.4805 4.10525 15.2929 4.29279C15.1054 4.48032 15.0001 4.73468 15.0001 4.99989C15.0001 5.26511 15.1054 5.51946 15.2929 5.707C15.4805 5.89454 15.7348 5.99989 16.0001 5.99989ZM18.0001 11.9999H15.8387C16.4126 11.1022 16.8024 10.0993 16.9854 9.04969C17.0147 8.87899 16.9992 8.7036 16.9404 8.54069C16.8815 8.37778 16.7814 8.23293 16.6498 8.12033C16.5182 8.00772 16.3596 7.93121 16.1896 7.89829C16.0195 7.86537 15.8439 7.87716 15.6797 7.93251C15.0614 8.14261 14.4128 8.24983 13.7598 8.24989C12.1546 8.24931 10.6151 7.61204 9.47916 6.47789C8.34318 5.34374 7.70343 3.80532 7.70025 2.20009C7.70699 1.84856 7.73963 1.498 7.7979 1.15126C7.82401 0.981659 7.806 0.808188 7.7456 0.647564C7.6852 0.48694 7.58446 0.344576 7.45308 0.234188C7.32169 0.1238 7.16409 0.0491084 6.99546 0.0173078C6.82683 -0.0144927 6.65285 -0.00232982 6.49028 0.0526245C5.33105 0.439336 4.27535 1.08547 3.40355 1.94181C2.53175 2.79816 1.86685 3.84215 1.45947 4.99428C1.0521 6.14641 0.912992 7.37631 1.05274 8.59032C1.19249 9.80434 1.60742 10.9705 2.26592 11.9999H1.00005C0.734837 11.9999 0.480483 12.1053 0.292946 12.2928C0.10541 12.4803 5.32393e-05 12.7347 5.32393e-05 12.9999C5.32393e-05 13.2651 0.10541 13.5195 0.292946 13.707C0.480483 13.8945 0.734837 13.9999 1.00005 13.9999H6.00005C6.26527 13.9999 6.51962 13.8945 6.70716 13.707C6.8947 13.5195 7.00005 13.2651 7.00005 12.9999C7.00005 12.7347 6.8947 12.4803 6.70716 12.2928C6.51962 12.1053 6.26527 11.9999 6.00005 11.9999H4.83056C4.18293 11.3716 3.68462 10.6058 3.3724 9.75924C3.06017 8.91263 2.942 8.00673 3.02659 7.10835C3.11118 6.20998 3.39639 5.34206 3.86116 4.56862C4.32594 3.79517 4.95842 3.13594 5.71196 2.63954C5.82817 4.69575 6.72656 6.62961 8.22294 8.04465C9.71933 9.45968 11.7003 10.2487 13.7598 10.2499C14.0233 10.2501 14.2867 10.237 14.5489 10.2108C14.2381 10.88 13.8071 11.4864 13.2773 11.9999H10.0001C9.73484 11.9999 9.48048 12.1053 9.29295 12.2928C9.10541 12.4803 9.00005 12.7347 9.00005 12.9999C9.00005 13.2651 9.10541 13.5195 9.29295 13.707C9.48048 13.8945 9.73484 13.9999 10.0001 13.9999H18.0001C18.2653 13.9999 18.5196 14.1053 18.7072 14.2928C18.8947 14.4803 19.0001 14.7347 19.0001 14.9999C19.0001 15.2651 18.8947 15.5195 18.7072 15.707C18.5196 15.8945 18.2653 15.9999 18.0001 15.9999C17.7348 15.9999 17.4805 16.1053 17.2929 16.2928C17.1054 16.4803 17.0001 16.7347 17.0001 16.9999C17.0001 17.2651 17.1054 17.5195 17.2929 17.707C17.4805 17.8945 17.7348 17.9999 18.0001 17.9999C18.7957 17.9999 19.5588 17.6838 20.1214 17.1212C20.684 16.5586 21.0001 15.7955 21.0001 14.9999C21.0001 14.2042 20.684 13.4412 20.1214 12.8786C19.5588 12.316 18.7957 11.9999 18.0001 11.9999ZM0.620173 16.08C0.498934 16.1306 0.387284 16.2016 0.290093 16.29C0.105441 16.4803 0.00151883 16.7347 5.32393e-05 16.9999C-0.00165466 17.1646 0.0377537 17.3271 0.114707 17.4727C0.191661 17.6183 0.303728 17.7424 0.440753 17.8337C0.577779 17.9251 0.735433 17.9808 0.899429 17.9958C1.06343 18.0109 1.22858 17.9847 1.37993 17.9198C1.50106 17.869 1.61269 17.798 1.71005 17.7099C1.80303 17.6167 1.87654 17.5059 1.92633 17.384C1.97611 17.2621 2.00117 17.1316 2.00005 16.9999C1.99614 16.7352 1.89259 16.4817 1.71005 16.2899C1.56932 16.1514 1.39077 16.0575 1.19685 16.0202C1.00293 15.9828 0.802298 16.0036 0.620173 16.08V16.08Z" fill="var(--fill-0, #1E1F26)"/>
</svg>
