<svg preserveAspectRatio="none" width="100%" height="100%" overflow="visible" style="display: block;" viewBox="0 0 20 19" fill="none" xmlns="http://www.w3.org/2000/svg">
<path id="Vector" d="M10 11C9.73478 11 9.48043 11.1054 9.29289 11.2929C9.10536 11.4805 9 11.7348 9 12V14C9 14.2652 9.10536 14.5196 9.29289 14.7071C9.48043 14.8947 9.73478 15 10 15C10.2652 15 10.5196 14.8947 10.7071 14.7071C10.8946 14.5196 11 14.2652 11 14V12C11 11.7348 10.8946 11.4805 10.7071 11.2929C10.5196 11.1054 10.2652 11 10 11ZM17 3.00002H10.72L10.4 2.00002C10.1926 1.41325 9.80775 0.905526 9.2989 0.547183C8.79005 0.188841 8.18236 -0.0023769 7.56 2.23036e-05H3C2.20435 2.23036e-05 1.44129 0.316093 0.87868 0.878702C0.316071 1.44131 0 2.20437 0 3.00002V16C0 16.7957 0.316071 17.5587 0.87868 18.1213C1.44129 18.684 2.20435 19 3 19H17C17.7956 19 18.5587 18.684 19.1213 18.1213C19.6839 17.5587 20 16.7957 20 16V6.00002C20 5.20437 19.6839 4.44131 19.1213 3.8787C18.5587 3.31609 17.7956 3.00002 17 3.00002ZM18 16C18 16.2652 17.8946 16.5196 17.7071 16.7071C17.5196 16.8947 17.2652 17 17 17H3C2.73478 17 2.48043 16.8947 2.29289 16.7071C2.10536 16.5196 2 16.2652 2 16V3.00002C2 2.73481 2.10536 2.48045 2.29289 2.29292C2.48043 2.10538 2.73478 2.00002 3 2.00002H7.56C7.76964 1.99948 7.97416 2.06484 8.14463 2.18686C8.3151 2.30889 8.44291 2.4814 8.51 2.68002L9.05 4.32002C9.11709 4.51864 9.2449 4.69116 9.41537 4.81318C9.58584 4.9352 9.79036 5.00056 10 5.00002H17C17.2652 5.00002 17.5196 5.10538 17.7071 5.29292C17.8946 5.48045 18 5.73481 18 6.00002V16ZM10.71 8.29002C10.5694 8.15126 10.3908 8.05727 10.1968 8.01989C10.0028 7.98252 9.80211 8.00344 9.62 8.08002C9.49636 8.12584 9.38387 8.19742 9.29 8.29002C9.10727 8.48166 9.00368 8.73525 9 9.00002C9.0011 9.26236 9.10526 9.51376 9.29 9.70002C9.38296 9.79375 9.49356 9.86814 9.61542 9.91891C9.73728 9.96968 9.86799 9.99582 10 9.99582C10.132 9.99582 10.2627 9.96968 10.3846 9.91891C10.5064 9.86814 10.617 9.79375 10.71 9.70002C10.8947 9.51376 10.9989 9.26236 11 9.00002C10.9984 8.86934 10.9712 8.74024 10.92 8.62002C10.8742 8.49638 10.8026 8.38389 10.71 8.29002V8.29002Z" fill="var(--fill-0, #1E1F26)"/>
</svg>
