<svg preserveAspectRatio="none" width="100%" height="100%" overflow="visible" style="display: block;" viewBox="0 0 14 20.16" fill="none" xmlns="http://www.w3.org/2000/svg">
<path id="Vector" d="M6.29 6.87C6.38296 6.96373 6.49356 7.03812 6.61542 7.08889C6.73728 7.13966 6.86799 7.1658 7 7.1658C7.13201 7.1658 7.26272 7.13966 7.38458 7.08889C7.50644 7.03812 7.61704 6.96373 7.71 6.87L9.71 4.87C9.89625 4.68264 10.0008 4.42919 10.0008 4.165C10.0008 3.90081 9.89625 3.64736 9.71 3.46C9.61704 3.36627 9.50644 3.29188 9.38458 3.24111C9.26272 3.19034 9.13201 3.1642 9 3.1642C8.86799 3.1642 8.73728 3.19034 8.61542 3.24111C8.49356 3.29188 8.38296 3.36627 8.29 3.46L8 3.75V1C8 0.734784 7.89464 0.48043 7.70711 0.292893C7.51957 0.105357 7.26522 0 7 0C6.73478 0 6.48043 0.105357 6.29289 0.292893C6.10536 0.48043 6 0.734784 6 1V3.75L5.71 3.46C5.61704 3.36627 5.50644 3.29188 5.38458 3.24111C5.26272 3.19034 5.13201 3.1642 5 3.1642C4.86799 3.1642 4.73728 3.19034 4.61542 3.24111C4.49356 3.29188 4.38296 3.36627 4.29 3.46C4.10375 3.64736 3.99921 3.90081 3.99921 4.165C3.99921 4.42919 4.10375 4.68264 4.29 4.87L6.29 6.87ZM11 9.16H3C2.20435 9.16 1.44129 9.47607 0.87868 10.0387C0.316071 10.6013 0 11.3644 0 12.16V17.16C0 17.9556 0.316071 18.7187 0.87868 19.2813C1.44129 19.8439 2.20435 20.16 3 20.16H11C11.7956 20.16 12.5587 19.8439 13.1213 19.2813C13.6839 18.7187 14 17.9556 14 17.16V12.16C14 11.3644 13.6839 10.6013 13.1213 10.0387C12.5587 9.47607 11.7956 9.16 11 9.16V9.16ZM10.58 11.16L7.7 14.08C7.51307 14.2632 7.26175 14.3659 7 14.3659C6.73825 14.3659 6.48693 14.2632 6.3 14.08L3.42 11.16H10.58ZM12 17.16C12 17.4252 11.8946 17.6796 11.7071 17.8671C11.5196 18.0546 11.2652 18.16 11 18.16H3C2.73478 18.16 2.48043 18.0546 2.29289 17.8671C2.10536 17.6796 2 17.4252 2 17.16V12.57L4.88 15.45C5.4425 16.0118 6.205 16.3274 7 16.3274C7.795 16.3274 8.5575 16.0118 9.12 15.45L12 12.57V17.16Z" fill="var(--fill-0, #1E1F26)"/>
</svg>
