<svg preserveAspectRatio="none" width="100%" height="100%" overflow="visible" style="display: block;" viewBox="0 0 20.0008 15.4202" fill="none" xmlns="http://www.w3.org/2000/svg">
<path id="Vector" d="M19.0008 0.04H9.63079C8.30471 0.04 7.03294 0.566784 6.09526 1.50447C5.15758 2.44215 4.63079 3.71392 4.63079 5.04V12.04L1.71079 9.08C1.61783 8.98627 1.50723 8.91188 1.38537 8.86111C1.26351 8.81034 1.1328 8.7842 1.00079 8.7842C0.868781 8.7842 0.738075 8.81034 0.616216 8.86111C0.494357 8.91188 0.383756 8.98627 0.290793 9.08C0.104542 9.26736 0 9.52081 0 9.785C0 10.0492 0.104542 10.3026 0.290793 10.49L4.92079 15.12C5.015 15.2146 5.12721 15.2894 5.25079 15.34C5.37049 15.3929 5.49992 15.4202 5.63079 15.4202C5.76166 15.4202 5.89109 15.3929 6.01079 15.34C6.13232 15.2856 6.24387 15.2113 6.34079 15.12L11.0008 10.49C11.1646 10.2987 11.2502 10.0526 11.2405 9.80095C11.2308 9.54927 11.1265 9.31053 10.9484 9.13244C10.7703 8.95434 10.5315 8.85001 10.2798 8.84029C10.0282 8.83057 9.78209 8.91617 9.59079 9.08L6.63079 12V5C6.63079 4.20435 6.94686 3.44129 7.50947 2.87868C8.07208 2.31607 8.83514 2 9.63079 2H19.0008C19.266 2 19.5204 1.89464 19.7079 1.70711C19.8954 1.51957 20.0008 1.26522 20.0008 1C20.0008 0.734784 19.8954 0.48043 19.7079 0.292893C19.5204 0.105357 19.266 0 19.0008 0V0.04Z" fill="var(--fill-0, #1E1F26)"/>
</svg>
