<svg preserveAspectRatio="none" width="100%" height="100%" overflow="visible" style="display: block;" viewBox="0 0 20.1712 21.0115" fill="none" xmlns="http://www.w3.org/2000/svg">
<path id="Vector" d="M20.0428 6.10145L19.0428 2.23145C18.9409 1.84713 18.7637 1.48689 18.5214 1.17166C18.2791 0.856443 17.9765 0.592531 17.6313 0.395271C17.2861 0.19801 16.9051 0.0713362 16.5105 0.0226123C16.1159 -0.0261116 15.7156 0.00408662 15.3328 0.111451L13.4028 0.631451C13.2751 0.665094 13.1554 0.723688 13.0504 0.803854C12.9455 0.884019 12.8575 0.984168 12.7915 1.09852C12.7255 1.21287 12.6828 1.33917 12.6658 1.47011C12.6489 1.60106 12.6581 1.73406 12.6928 1.86145L12.9528 2.86145L2.33279 5.67145C2.07713 5.73952 1.85886 5.90613 1.72579 6.1348C1.59271 6.36346 1.55567 6.63554 1.62279 6.89145L1.88279 7.89145L0.882786 8.15145C0.61757 8.1846 0.376385 8.32175 0.212291 8.53273C0.0481967 8.74371 -0.025366 9.01124 0.00778603 9.27645C0.0409381 9.54167 0.178089 9.78285 0.389068 9.94695C0.600046 10.111 0.86757 10.1846 1.13279 10.1515C1.21914 10.1618 1.30643 10.1618 1.39279 10.1515L2.39279 9.88145L2.65279 10.8815C2.72169 11.1339 2.88684 11.3494 3.11279 11.4815C3.26422 11.5713 3.4367 11.6196 3.61279 11.6215C3.69879 11.6366 3.78678 11.6366 3.87279 11.6215L7.14279 10.5915V11.0115C7.14348 11.4555 7.24612 11.8934 7.44279 12.2915L2.44279 17.2915C2.25448 17.4784 2.14817 17.7326 2.14723 17.9979C2.14629 18.2633 2.25081 18.5181 2.43779 18.7065C2.62476 18.8948 2.87889 19.0011 3.14425 19.002C3.40961 19.0029 3.66448 18.8984 3.85279 18.7115L8.85279 13.7115L9.13279 13.8215V20.0115C9.13279 20.2767 9.23814 20.531 9.42568 20.7186C9.61322 20.9061 9.86757 21.0115 10.1328 21.0115C10.398 21.0115 10.6524 20.9061 10.8399 20.7186C11.0274 20.531 11.1328 20.2767 11.1328 20.0115V13.8315C11.2319 13.7975 11.3287 13.7574 11.4228 13.7115L16.4228 18.7115C16.6111 18.8984 16.866 19.0029 17.1313 19.002C17.3967 19.0011 17.6508 18.8948 17.8378 18.7065C18.0248 18.5181 18.1293 18.2633 18.1283 17.9979C18.1274 17.7326 18.0211 17.4784 17.8328 17.2915L12.8328 12.2915C13.0269 11.892 13.1326 11.4554 13.1428 11.0115V9.01145L14.4928 8.65145L14.7428 9.65145C14.8014 9.86961 14.9321 10.0615 15.1137 10.1959C15.2953 10.3303 15.517 10.3992 15.7428 10.3915H16.0028L17.9328 9.87145C18.3229 9.76907 18.6883 9.58908 19.0072 9.34226C19.3262 9.09543 19.5921 8.78684 19.7891 8.43491C19.986 8.08298 20.11 7.69496 20.1536 7.29402C20.1972 6.89309 20.1595 6.48749 20.0428 6.10145V6.10145ZM11.1428 11.0115C11.1418 11.2689 11.0415 11.5161 10.8628 11.7015V11.7015C10.6774 11.8801 10.4303 11.9804 10.1728 11.9815C9.91045 11.9803 9.65905 11.8762 9.47279 11.6915C9.28804 11.5052 9.18389 11.2538 9.18279 10.9915V9.99145L11.1428 9.51145V11.0115ZM4.33279 9.27145L3.81279 7.34145L13.4728 4.75145L13.7328 5.75145L13.9928 6.75145L4.33279 9.27145ZM18.0128 7.37145C17.9472 7.48622 17.8595 7.58685 17.7548 7.66752C17.6501 7.7482 17.5305 7.80731 17.4028 7.84145L16.4028 8.10145L15.6228 5.20145L15.1428 3.27145L14.8828 2.27145L15.8828 2.01145C16.0102 1.97673 16.1432 1.96757 16.2741 1.98451C16.4051 2.00146 16.5314 2.04417 16.6457 2.11018C16.7601 2.17619 16.8602 2.26419 16.9404 2.3691C17.0205 2.47402 17.0791 2.59377 17.1128 2.72145L18.1128 6.59145C18.1497 6.72147 18.1599 6.85763 18.1427 6.99169C18.1255 7.12576 18.0813 7.25494 18.0128 7.37145Z" fill="var(--fill-0, #1E1F26)"/>
</svg>
