<svg preserveAspectRatio="none" width="100%" height="100%" overflow="visible" style="display: block;" viewBox="0 0 20.0556 20.0556" fill="none" xmlns="http://www.w3.org/2000/svg">
<path id="Vector" d="M19.0278 16.3078V9.74782C19.2983 9.59738 19.5301 9.38624 19.7051 9.131C19.8801 8.87576 19.9935 8.58339 20.0364 8.27689C20.0792 7.9704 20.0503 7.65814 19.952 7.3647C19.8537 7.07125 19.6887 6.80462 19.4698 6.58579C19.251 6.36695 18.9844 6.20189 18.6909 6.10359C18.3975 6.00528 18.0852 5.97641 17.7787 6.01926C17.4722 6.06211 17.1799 6.17549 16.9246 6.3505C16.6694 6.52551 16.4582 6.75736 16.3078 7.02781H13.0278V3.74781C13.2983 3.59738 13.5301 3.38624 13.7051 3.131C13.8801 2.87576 13.9935 2.58339 14.0364 2.27689C14.0792 1.9704 14.0503 1.65814 13.952 1.3647C13.8537 1.07125 13.6887 0.804619 13.4698 0.585787C13.251 0.366955 12.9844 0.201892 12.6909 0.103586C12.3975 0.00528037 12.0852 -0.0235853 11.7787 0.0192604C11.4722 0.0621061 11.1799 0.175494 10.9246 0.350502C10.6694 0.52551 10.4582 0.757362 10.3078 1.02781H3.74781C3.59738 0.757362 3.38624 0.52551 3.131 0.350502C2.87576 0.175494 2.58339 0.0621061 2.27689 0.0192604C1.9704 -0.0235853 1.65814 0.00528037 1.3647 0.103586C1.07125 0.201892 0.804619 0.366955 0.585787 0.585787C0.366955 0.804619 0.201892 1.07125 0.103586 1.3647C0.00528037 1.65814 -0.0235853 1.9704 0.0192604 2.27689C0.0621061 2.58339 0.175494 2.87576 0.350502 3.131C0.52551 3.38624 0.757362 3.59738 1.02781 3.74781V10.3078C0.757362 10.4582 0.52551 10.6694 0.350502 10.9246C0.175494 11.1799 0.0621061 11.4722 0.0192604 11.7787C-0.0235853 12.0852 0.00528037 12.3975 0.103586 12.6909C0.201892 12.9844 0.366955 13.251 0.585787 13.4698C0.804619 13.6887 1.07125 13.8537 1.3647 13.952C1.65814 14.0503 1.9704 14.0792 2.27689 14.0364C2.58339 13.9935 2.87576 13.8801 3.131 13.7051C3.38624 13.5301 3.59738 13.2983 3.74781 13.0278H7.02781V16.3078C6.75736 16.4582 6.52551 16.6694 6.3505 16.9246C6.17549 17.1799 6.06211 17.4722 6.01926 17.7787C5.97641 18.0852 6.00528 18.3975 6.10359 18.6909C6.20189 18.9844 6.36695 19.251 6.58579 19.4698C6.80462 19.6887 7.07125 19.8537 7.3647 19.952C7.65814 20.0503 7.9704 20.0792 8.27689 20.0364C8.58339 19.9935 8.87576 19.8801 9.131 19.7051C9.38624 19.5301 9.59738 19.2983 9.74782 19.0278H16.3078C16.4582 19.2983 16.6694 19.5301 16.9246 19.7051C17.1799 19.8801 17.4722 19.9935 17.7787 20.0364C18.0852 20.0792 18.3975 20.0503 18.6909 19.952C18.9844 19.8537 19.251 19.6887 19.4698 19.4698C19.6887 19.251 19.8537 18.9844 19.952 18.6909C20.0503 18.3975 20.0792 18.0852 20.0364 17.7787C19.9935 17.4722 19.8801 17.1799 19.7051 16.9246C19.5301 16.6694 19.2983 16.4582 19.0278 16.3078ZM6.02781 8.02781C6.02992 8.37684 6.12333 8.71924 6.29876 9.02098C6.4742 9.32273 6.72554 9.5733 7.02781 9.74782V11.0278H3.74781C3.57739 10.7271 3.32854 10.4782 3.02781 10.3078V3.74781C3.32854 3.57739 3.57739 3.32854 3.74781 3.02781H10.3078C10.4782 3.32854 10.7271 3.57739 11.0278 3.74781V7.02781H9.74782C9.52511 6.6524 9.18571 6.36016 8.78139 6.19567C8.37707 6.03118 7.93004 6.00348 7.50851 6.1168C7.08698 6.23011 6.71409 6.47822 6.44674 6.82326C6.17939 7.16831 6.03227 7.59134 6.02781 8.02781V8.02781ZM11.0278 9.02781V10.3078C10.7271 10.4782 10.4782 10.7271 10.3078 11.0278H9.02781V9.74782C9.32854 9.57739 9.57739 9.32854 9.74782 9.02781H11.0278ZM17.0278 16.3078C16.7271 16.4782 16.4782 16.7271 16.3078 17.0278H9.74782C9.57739 16.7271 9.32854 16.4782 9.02781 16.3078V13.0278H10.3078C10.4582 13.2983 10.6694 13.5301 10.9246 13.7051C11.1799 13.8801 11.4722 13.9935 11.7787 14.0364C12.0852 14.0792 12.3975 14.0503 12.6909 13.952C12.9844 13.8537 13.251 13.6887 13.4698 13.4698C13.6887 13.251 13.8537 12.9844 13.952 12.6909C14.0503 12.3975 14.0792 12.0852 14.0364 11.7787C13.9935 11.4722 13.8801 11.1799 13.7051 10.9246C13.5301 10.6694 13.2983 10.4582 13.0278 10.3078V9.02781H16.3078C16.4782 9.32854 16.7271 9.57739 17.0278 9.74782V16.3078Z" fill="var(--fill-0, #1E1F26)"/>
</svg>
