<svg preserveAspectRatio="none" width="100%" height="100%" overflow="visible" style="display: block;" viewBox="0 0 19.9623 15.9867" fill="none" xmlns="http://www.w3.org/2000/svg">
<path id="Vector" d="M9.29844 8.27671C9.15741 8.41658 9.06123 8.59528 9.02216 8.79003C8.98309 8.98478 9.0029 9.18675 9.07906 9.37019C9.15523 9.55364 9.2843 9.71024 9.44982 9.82004C9.61534 9.92984 9.80981 9.98787 10.0084 9.98671H10.1984C10.2647 9.97744 10.3289 9.95716 10.3884 9.92671C10.4499 9.90674 10.5074 9.87629 10.5584 9.83671L10.7084 9.71671C10.8022 9.62375 10.8766 9.51315 10.9273 9.39129C10.9781 9.26943 11.0042 9.13872 11.0042 9.00671C11.0042 8.8747 10.9781 8.74399 10.9273 8.62214C10.8766 8.50028 10.8022 8.38967 10.7084 8.29671C10.5237 8.10778 10.2718 7.99962 10.0076 7.99588C9.74337 7.99213 9.48843 8.09309 9.29844 8.27671V8.27671ZM10.0084 10.9867C9.74322 10.9867 9.48887 11.0921 9.30133 11.2796C9.11379 11.4671 9.00844 11.7215 9.00844 11.9867V14.9867C9.00844 15.2519 9.11379 15.5063 9.30133 15.6938C9.48887 15.8814 9.74322 15.9867 10.0084 15.9867C10.2737 15.9867 10.528 15.8814 10.7155 15.6938C10.9031 15.5063 11.0084 15.2519 11.0084 14.9867V11.9867C11.0084 11.7215 10.9031 11.4671 10.7155 11.2796C10.528 11.0921 10.2737 10.9867 10.0084 10.9867ZM16.4284 4.20671C15.8174 2.80272 14.7629 1.63779 13.4265 0.890438C12.0901 0.143088 10.5455 -0.145456 9.0294 0.0690207C7.51331 0.283498 6.10936 0.989165 5.03269 2.07789C3.95602 3.16661 3.26602 4.57833 3.06844 6.09671C2.11502 6.32503 1.27866 6.89554 0.718173 7.6999C0.157689 8.50426 -0.0878807 9.48644 0.0280989 10.4599C0.144078 11.4334 0.61353 12.3304 1.3473 12.9806C2.08107 13.6307 3.02806 13.9888 4.00844 13.9867H6.00844C6.27365 13.9867 6.52801 13.8814 6.71554 13.6938C6.90308 13.5063 7.00844 13.2519 7.00844 12.9867C7.00844 12.7215 6.90308 12.4671 6.71554 12.2796C6.52801 12.0921 6.27365 11.9867 6.00844 11.9867H4.00844C3.478 11.9867 2.96929 11.776 2.59422 11.4009C2.21915 11.0259 2.00844 10.5171 2.00844 9.98671C2.00844 9.45628 2.21915 8.94757 2.59422 8.5725C2.96929 8.19743 3.478 7.98671 4.00844 7.98671C4.27365 7.98671 4.52801 7.88135 4.71554 7.69382C4.90308 7.50628 5.00844 7.25193 5.00844 6.98671C5.01099 5.80399 5.43272 4.66046 6.1987 3.75929C6.96469 2.85813 8.02533 2.25766 9.19218 2.06459C10.359 1.87151 11.5566 2.09832 12.572 2.70472C13.5874 3.31112 14.355 4.25785 14.7384 5.37671C14.7956 5.54855 14.8983 5.70164 15.0357 5.81964C15.1731 5.93765 15.3399 6.01613 15.5184 6.04671C16.2126 6.16645 16.8425 6.52664 17.2978 7.06418C17.753 7.60171 18.0046 8.28231 18.0084 8.98671C18.0084 9.78236 17.6924 10.5454 17.1298 11.108C16.5671 11.6706 15.8041 11.9867 15.0084 11.9867H14.0084C13.7432 11.9867 13.4889 12.0921 13.3013 12.2796C13.1138 12.4671 13.0084 12.7215 13.0084 12.9867C13.0084 13.2519 13.1138 13.5063 13.3013 13.6938C13.4889 13.8814 13.7432 13.9867 14.0084 13.9867H15.0084C16.2021 13.9757 17.3523 13.538 18.2514 12.7528C19.1504 11.9676 19.7389 10.8866 19.9104 9.70536C20.0819 8.52408 19.8252 7.32041 19.1866 6.31194C18.548 5.30346 17.5696 4.55673 16.4284 4.20671V4.20671Z" fill="var(--fill-0, #1E1F26)"/>
</svg>
