<svg preserveAspectRatio="none" width="100%" height="100%" overflow="visible" style="display: block;" viewBox="0 0 20 20" fill="none" xmlns="http://www.w3.org/2000/svg">
<path id="Vector" d="M10 0C8.02219 0 6.08879 0.58649 4.4443 1.6853C2.79981 2.78412 1.51809 4.3459 0.761209 6.17317C0.00433283 8.00043 -0.193701 10.0111 0.192152 11.9509C0.578004 13.8907 1.53041 15.6725 2.92894 17.0711C4.32746 18.4696 6.10929 19.422 8.0491 19.8079C9.98891 20.1937 11.9996 19.9957 13.8268 19.2388C15.6541 18.4819 17.2159 17.2002 18.3147 15.5557C19.4135 13.9112 20 11.9778 20 10C20 8.68678 19.7413 7.38642 19.2388 6.17317C18.7363 4.95991 17.9997 3.85752 17.0711 2.92893C16.1425 2.00035 15.0401 1.26375 13.8268 0.761205C12.6136 0.258658 11.3132 0 10 0V0ZM10 18C7.87827 18 5.84344 17.1571 4.34315 15.6569C2.84286 14.1566 2 12.1217 2 10C1.9978 8.22334 2.59302 6.49755 3.69 5.1L5.2 6.61C4.82876 6.88843 4.52718 7.24918 4.31895 7.66389C4.11073 8.0786 4.00155 8.53596 4 9V11C4.00304 11.6578 4.22222 12.2964 4.6238 12.8175C5.02538 13.3385 5.5871 13.7132 6.22247 13.8836C6.85784 14.0541 7.53163 14.0111 8.14012 13.7611C8.74861 13.511 9.25805 13.0679 9.59 12.5C9.6723 12.3868 9.72994 12.2577 9.75918 12.1208C9.78842 11.984 9.78862 11.8426 9.75977 11.7056C9.73092 11.5687 9.67365 11.4394 9.59168 11.326C9.50971 11.2126 9.40485 11.1177 9.28388 11.0473C9.16292 10.977 9.02854 10.9328 8.88944 10.9177C8.75034 10.9026 8.60961 10.9168 8.47635 10.9595C8.34309 11.0021 8.22026 11.0723 8.11582 11.1654C8.01137 11.2585 7.92763 11.3725 7.87 11.5C7.792 11.6328 7.68437 11.7458 7.5555 11.8302C7.42664 11.9146 7.28002 11.9681 7.12708 11.9865C6.97414 12.0049 6.81903 11.9877 6.67383 11.9363C6.52863 11.8848 6.39727 11.8006 6.29 11.69C6.19651 11.6014 6.12245 11.4942 6.07253 11.3755C6.0226 11.2567 5.99791 11.1288 6 11V9C6.0049 8.79672 6.07165 8.59976 6.19136 8.43539C6.31106 8.27102 6.47803 8.14704 6.67 8.08L10 11.46C10.0926 12.1008 10.39 12.6944 10.8478 13.1522C11.3056 13.61 11.8992 13.9074 12.54 14L14.9 16.36C13.4959 17.4391 11.7708 18.0165 10 18V18ZM16.31 14.9L14.79 13.38C15.1138 13.1442 15.3861 12.8448 15.59 12.5C15.6723 12.3868 15.7299 12.2577 15.7592 12.1208C15.7884 11.984 15.7886 11.8426 15.7598 11.7056C15.7309 11.5687 15.6737 11.4394 15.5917 11.326C15.5097 11.2126 15.4048 11.1177 15.2839 11.0473C15.1629 10.977 15.0285 10.9328 14.8894 10.9177C14.7503 10.9026 14.6096 10.9168 14.4763 10.9595C14.3431 11.0021 14.2203 11.0723 14.1158 11.1654C14.0114 11.2585 13.9276 11.3725 13.87 11.5C13.7407 11.6972 13.5459 11.8425 13.32 11.91L12 10.59V9C11.9989 8.77698 12.0723 8.55998 12.2087 8.38351C12.3451 8.20703 12.5365 8.0812 12.7526 8.02603C12.9687 7.97086 13.197 7.98951 13.4013 8.07901C13.6056 8.16851 13.7741 8.32374 13.88 8.52C14.0169 8.74637 14.238 8.90926 14.4948 8.97298C14.7516 9.03671 15.0231 8.99608 15.25 8.86C15.3634 8.79218 15.4623 8.70255 15.5409 8.59629C15.6195 8.49003 15.6762 8.36924 15.7078 8.24091C15.7395 8.11259 15.7453 7.97927 15.7251 7.84866C15.7049 7.71805 15.659 7.59275 15.59 7.48C15.4612 7.26537 15.3067 7.06724 15.13 6.89C14.7354 6.48383 14.2339 6.19765 13.6835 6.06453C13.1331 5.93141 12.5562 5.9568 12.0196 6.13776C11.483 6.31871 11.0086 6.64785 10.6512 7.08711C10.2938 7.52637 10.068 8.05782 10 8.62L9.65 8.27C9.68833 8.13849 9.69923 8.00051 9.68203 7.86462C9.66483 7.72872 9.61989 7.59781 9.55 7.48C9.42122 7.26537 9.26674 7.06724 9.09 6.89C8.63955 6.43577 8.05323 6.14086 7.42 6.05L5.1 3.69C6.49755 2.59302 8.22335 1.99779 10 2C12.1217 2 14.1566 2.84285 15.6569 4.34315C17.1572 5.84344 18 7.87827 18 10C18.0022 11.7767 17.407 13.5025 16.31 14.9Z" fill="var(--fill-0, #1E1F26)"/>
</svg>
