<svg preserveAspectRatio="none" width="100%" height="100%" overflow="visible" style="display: block;" viewBox="0 0 17.8497 20" fill="none" xmlns="http://www.w3.org/2000/svg">
<path id="Vector" d="M4.88583 6H11.8722L11.695 8H6.92489C6.65967 8 6.40532 8.10536 6.21778 8.29289C6.03025 8.48043 5.92489 8.73478 5.92489 9C5.92489 9.26522 6.03025 9.51957 6.21778 9.70711C6.40532 9.89464 6.65967 10 6.92489 10H11.5177L11.254 12.9766L8.92489 13.5049L6.59677 12.9756L6.50106 11.9111C6.48939 11.7803 6.45207 11.6531 6.39123 11.5367C6.33039 11.4203 6.24722 11.317 6.14647 11.2328C6.04573 11.1486 5.92937 11.085 5.80405 11.0457C5.67874 11.0064 5.54691 10.9922 5.4161 11.0039C5.28529 11.0156 5.15806 11.0529 5.04168 11.1137C4.92529 11.1746 4.82203 11.2577 4.73779 11.3585C4.65355 11.4592 4.58997 11.5756 4.5507 11.7009C4.51142 11.8262 4.49721 11.958 4.50888 12.0889L4.66903 13.8788C4.68795 14.0895 4.77306 14.2887 4.91218 14.448C5.0513 14.6073 5.23727 14.7185 5.44345 14.7656L8.70321 15.5058C8.84921 15.5384 9.00058 15.5384 9.14657 15.5058L12.4073 14.7656C12.6136 14.7184 12.7997 14.6071 12.9389 14.4476C13.078 14.2882 13.163 14.0887 13.1817 13.8779L13.6133 9.00996L13.6153 8.99996L13.6145 8.99605L13.961 5.08785C13.9731 4.94969 13.9562 4.81054 13.9117 4.67922C13.8671 4.54789 13.7957 4.42726 13.7021 4.32498C13.6084 4.2227 13.4945 4.14099 13.3676 4.08504C13.2407 4.02909 13.1036 4.00012 12.9649 3.99996H4.88583C4.62061 3.99996 4.36626 4.10532 4.17872 4.29285C3.99119 4.48039 3.88583 4.73474 3.88583 4.99996C3.88583 5.26518 3.99119 5.51953 4.17872 5.70707C4.36626 5.8946 4.62061 5.99996 4.88583 5.99996V6ZM17.588 0.32519C17.4942 0.222783 17.3801 0.140994 17.253 0.0850133C17.1259 0.0290324 16.9886 8.22161e-05 16.8497 1.06469e-07H1.00009C0.861256 -6.39675e-05 0.72393 0.028793 0.596863 0.0847319C0.469796 0.140671 0.355774 0.222465 0.262064 0.324903C0.168353 0.427341 0.0970088 0.548177 0.0525761 0.67971C0.0081435 0.811243 -0.00840282 0.950589 0.00399144 1.08887L1.44735 17.2832C1.46535 17.4856 1.54464 17.6777 1.67463 17.8338C1.80462 17.99 1.97913 18.1028 2.17489 18.1572L8.64755 19.9629C8.82317 20.0123 9.00904 20.0123 9.18466 19.9629L15.6749 18.1504C15.8707 18.0959 16.0452 17.9831 16.1752 17.827C16.3051 17.6708 16.3844 17.4787 16.4024 17.2764L17.8458 1.08886C17.8581 0.950655 17.8415 0.811409 17.7971 0.679949C17.7527 0.54849 17.6815 0.427684 17.588 0.32519V0.32519ZM14.4718 16.4102L8.9161 17.962L3.37802 16.417L2.09286 2H15.7569L14.4718 16.4102Z" fill="var(--fill-0, #1E1F26)"/>
</svg>
