<svg preserveAspectRatio="none" width="100%" height="100%" overflow="visible" style="display: block;" viewBox="0 0 17.7922 20.0001" fill="none" xmlns="http://www.w3.org/2000/svg">
<path id="Vector" d="M7.99908 8.43793C7.69317 8.61454 7.44651 8.8779 7.29028 9.1947C7.13405 9.5115 7.07527 9.86752 7.12138 10.2177C7.16749 10.5679 7.31641 10.8966 7.54932 11.1622C7.78222 11.4277 8.08865 11.6183 8.42984 11.7097C8.77103 11.8011 9.13167 11.7893 9.46615 11.6757C9.80063 11.5622 10.0939 11.352 10.3089 11.0717C10.524 10.7915 10.6511 10.4538 10.6741 10.1013C10.6972 9.74885 10.6153 9.39745 10.4386 9.09155C10.2018 8.68139 9.81172 8.38211 9.35422 8.25954C8.89672 8.13696 8.40927 8.20113 7.99908 8.43793V8.43793ZM16.0038 10.3756C15.8865 10.2416 15.7628 10.1073 15.6326 9.97253C15.7236 9.87695 15.8116 9.78145 15.8966 9.68604C17.5024 7.88177 18.1802 6.07233 17.5522 4.9845C16.95 3.9415 15.1588 3.63068 12.9163 4.06671C12.6954 4.10992 12.4757 4.15867 12.2573 4.21295C12.2155 4.06879 12.171 3.92546 12.1238 3.78295C11.3631 1.49042 10.1342 -0.000789686 8.87814 3.13736e-07C7.67373 0.000550314 6.50967 1.39709 5.76708 3.5575C5.69402 3.77063 5.62643 3.98553 5.56432 4.20221C5.41826 4.16638 5.2716 4.13328 5.12432 4.10291C2.75832 3.61713 0.852647 3.93707 0.225877 5.02551C-0.375123 6.06927 0.253407 7.77533 1.75439 9.49762C1.90325 9.66803 2.05632 9.83462 2.21361 9.99738C2.02819 10.1884 1.85261 10.3793 1.68896 10.5691C0.224357 12.2671 -0.368233 13.9453 0.231797 14.9845C0.851487 16.058 2.73034 16.4089 5.0172 15.9589C5.20253 15.9221 5.38684 15.8808 5.57012 15.8349C5.63726 16.0692 5.71091 16.3016 5.79107 16.5319C6.53039 18.6489 7.68792 20.0005 8.88807 20.0001C10.1275 19.9993 11.37 18.5472 12.1228 16.3413C12.1823 16.167 12.2385 15.986 12.2919 15.7996C12.5286 15.8585 12.7669 15.9107 13.0067 15.9564C15.2101 16.3732 16.9592 16.0454 17.5582 15.0054C18.1767 13.9311 17.539 12.1293 16.0037 10.3756H16.0038ZM0.966267 5.45184C1.35213 4.78184 2.90951 4.52045 4.95235 4.93984C5.08291 4.96669 5.2157 4.99669 5.35073 5.02984C5.15128 5.91211 5.01055 6.80662 4.92947 7.70751C4.19237 8.22606 3.4896 8.79178 2.82558 9.40111C2.67928 9.24981 2.53688 9.09484 2.3984 8.93621L2.39846 8.93627C1.11239 7.46057 0.604077 6.08081 0.966267 5.45184ZM4.85293 11.1799C4.34237 10.7933 3.86788 10.3973 3.43722 9.99893C3.86758 9.60306 4.34237 9.20834 4.85189 8.82278C4.83358 9.21555 4.82451 9.60861 4.82467 10.002C4.82494 10.3948 4.83436 10.7874 4.85293 11.1799V11.1799ZM4.85232 15.1205C3.98558 15.3133 3.09077 15.3448 2.21261 15.2137C1.97187 15.1949 1.73754 15.127 1.52409 15.0141C1.31064 14.9013 1.1226 14.7458 0.971607 14.5574C0.607537 13.9267 1.08337 12.5794 2.33593 11.1271C2.4934 10.9451 2.65604 10.7679 2.82384 10.5954C3.48796 11.2079 4.19187 11.7759 4.93096 12.2955C5.01316 13.2079 5.15554 14.1138 5.35717 15.0075C5.18985 15.0493 5.02156 15.087 4.85232 15.1205ZM11.9534 7.08118C11.6181 6.86985 11.2785 6.6653 10.9348 6.46753C10.5966 6.27286 10.2544 6.08551 9.90804 5.90546C10.501 5.65613 11.0839 5.44318 11.6467 5.26965C11.7793 5.86795 11.8817 6.47256 11.9534 7.08118V7.08118ZM6.57508 3.83521C7.21131 1.98407 8.15271 0.85468 8.8786 0.85437C9.65168 0.854 10.6561 2.07263 11.3129 4.052C11.3556 4.18103 11.3959 4.31079 11.4339 4.44128C10.571 4.70891 9.72681 5.03336 8.90677 5.41248C8.09014 5.0289 7.24856 4.70084 6.38777 4.43054C6.44531 4.23059 6.50774 4.03215 6.57508 3.83521ZM6.17471 5.259C6.76169 5.44379 7.33898 5.65807 7.90438 5.901C7.20382 6.26253 6.52136 6.65633 5.85702 7.0824C5.93728 6.4444 6.04408 5.83313 6.17471 5.259ZM5.85848 12.9197C6.18978 13.1318 6.52592 13.336 6.86691 13.5324C7.21473 13.7327 7.56719 13.9245 7.92428 14.108C7.35455 14.3593 6.7723 14.5812 6.17983 14.7729C6.04769 14.1908 5.93972 13.5688 5.85848 12.9197ZM11.3142 16.0652C11.0481 16.9123 10.6284 17.7032 10.0761 18.3984L10.076 18.3985C9.93952 18.5976 9.76363 18.7667 9.55922 18.8952C9.35482 19.0236 9.12624 19.1088 8.88761 19.1455C8.1594 19.1459 7.22995 18.0605 6.59769 16.25C6.52323 16.036 6.45472 15.82 6.39218 15.6021C7.25709 15.323 8.10208 14.9857 8.92136 14.5924C9.74814 14.9739 10.5991 15.3008 11.4687 15.5709C11.4212 15.7368 11.3697 15.9016 11.3142 16.0652ZM11.6764 14.741C11.1072 14.565 10.5158 14.3485 9.91427 14.0955C10.2534 13.917 10.595 13.7285 10.939 13.53C11.292 13.3262 11.6361 13.1172 11.9711 12.9031C11.9044 13.5204 11.806 14.1338 11.6764 14.741V14.741ZM12.1227 9.99829C12.1234 10.6056 12.1045 11.2124 12.0658 11.8187C11.5731 12.1522 11.053 12.4777 10.5118 12.7902C9.97288 13.1013 9.43889 13.3873 8.91508 13.6461C8.36386 13.3819 7.82328 13.0972 7.29332 12.7921C6.76634 12.4887 6.25144 12.1657 5.74864 11.8231C5.70268 11.2169 5.67952 10.6097 5.67918 10.0013L5.6793 10.0015C5.67888 9.39362 5.70152 8.78634 5.74724 8.17969C6.23979 7.84332 6.75615 7.51801 7.29002 7.20978C7.82634 6.90009 8.36702 6.61536 8.90471 6.3573C9.44913 6.62189 9.98374 6.90544 10.5085 7.20795C11.0351 7.51062 11.5515 7.83018 12.0575 8.16663C12.101 8.77625 12.1227 9.3868 12.1228 9.99829H12.1227ZM13.0794 4.90546C15.0008 4.53174 16.4494 4.78314 16.8123 5.41168C17.1989 6.0813 16.6449 7.56018 15.2585 9.11804L15.2584 9.1181C15.1818 9.20404 15.1024 9.29034 15.02 9.37701C14.3445 8.76638 13.6282 8.20246 12.8761 7.68915C12.8002 6.79812 12.6647 5.91316 12.4706 5.04022C12.6775 4.98932 12.8804 4.9444 13.0794 4.90546V4.90546ZM12.9495 8.79016C13.4569 9.16057 13.9447 9.55705 14.4109 9.978C13.9467 10.4059 13.4605 10.8092 12.9542 11.1863C12.9697 10.7904 12.9773 10.3942 12.9771 9.99789C12.9769 9.59522 12.9677 9.19265 12.9495 8.79016V8.79016ZM16.8176 14.5789C16.4542 15.2101 15.0498 15.4733 13.1654 15.1168C12.9495 15.076 12.7279 15.0275 12.5007 14.9712C12.6901 14.087 12.8196 13.1911 12.8881 12.2894C13.639 11.7672 14.3531 11.1938 15.0252 10.5736C15.1428 10.6957 15.2547 10.8174 15.3609 10.9384V10.9383C15.9619 11.5919 16.4375 12.3505 16.7639 13.1763C16.8683 13.394 16.9269 13.6308 16.9362 13.872C16.9454 14.1133 16.9051 14.3539 16.8176 14.5789V14.5789Z" fill="var(--fill-0, #1E1F26)"/>
</svg>
