<svg preserveAspectRatio="none" width="100%" height="100%" overflow="visible" style="display: block;" viewBox="0 0 20.0279 18.9974" fill="none" xmlns="http://www.w3.org/2000/svg">
<path id="Vector" d="M9.58823 13.994H8.32823L9.18823 12.494C9.26059 12.3802 9.30917 12.2529 9.33106 12.1198C9.35295 11.9867 9.34769 11.8506 9.31561 11.7196C9.28352 11.5886 9.22526 11.4655 9.14435 11.3576C9.06343 11.2497 8.96153 11.1592 8.84476 11.0918C8.728 11.0243 8.59879 10.9811 8.4649 10.9648C8.33102 10.9486 8.19523 10.9595 8.0657 10.9971C7.93617 11.0347 7.81558 11.0981 7.71119 11.1835C7.60679 11.2689 7.52075 11.3745 7.45823 11.494L5.72823 14.494C5.64072 14.6456 5.59452 14.8175 5.59425 14.9925C5.59398 15.1675 5.63966 15.3396 5.72672 15.4914C5.81378 15.6432 5.93916 15.7696 6.09034 15.8578C6.24153 15.946 6.41321 15.9929 6.58823 15.994H7.85823L7.00823 17.494C6.87563 17.7247 6.84011 17.9987 6.9095 18.2556C6.97889 18.5126 7.1475 18.7314 7.37823 18.864C7.60897 18.9966 7.88294 19.0321 8.13986 18.9627C8.39679 18.8933 8.61563 18.7247 8.74823 18.494L10.4782 15.494C10.566 15.342 10.6122 15.1695 10.6122 14.994C10.6122 14.8185 10.566 14.646 10.4782 14.494C10.3885 14.3384 10.2585 14.2099 10.1018 14.1219C9.94523 14.0339 9.76781 13.9897 9.58823 13.994V13.994ZM19.7082 5.064C19.5878 4.94567 19.4393 4.85977 19.2767 4.8143C19.1141 4.76884 18.9426 4.76529 18.7782 4.804C18.5616 4.85351 18.3404 4.88032 18.1182 4.884C17.3226 4.884 16.5595 4.56793 15.9969 4.00532C15.4343 3.44271 15.1182 2.67965 15.1182 1.884C15.1211 1.66506 15.1479 1.4471 15.1982 1.234C15.238 1.06893 15.235 0.89646 15.1897 0.732846C15.1443 0.569233 15.058 0.419862 14.939 0.29881C14.8199 0.177758 14.672 0.0890112 14.5092 0.0409323C14.3463 -0.0071467 14.1739 -0.0129744 14.0082 0.0239984C13.013 0.243737 12.1102 0.766556 11.4244 1.5205C10.7385 2.27444 10.3031 3.22243 10.1782 4.234C9.635 4.07877 9.0732 3.99803 8.50823 3.994C7.06709 3.99318 5.6738 4.5111 4.58311 5.45306C3.49241 6.39502 2.7772 7.69808 2.56823 9.124C1.85994 9.31796 1.23089 9.7304 0.770601 10.3026C0.310316 10.8748 0.0422626 11.5777 0.00459549 12.3111C-0.0330716 13.0445 0.161568 13.7711 0.560808 14.3874C0.960048 15.0038 1.54354 15.4785 2.22823 15.744C2.35249 15.803 2.48759 15.8358 2.62509 15.8402C2.76259 15.8447 2.89953 15.8207 3.02734 15.7698C3.15515 15.7189 3.27109 15.6422 3.36789 15.5445C3.4647 15.4467 3.5403 15.3301 3.58996 15.2018C3.63963 15.0735 3.66228 14.9363 3.65652 14.7989C3.65075 14.6614 3.61669 14.5266 3.55645 14.4029C3.49622 14.2793 3.41112 14.1693 3.30646 14.08C3.20181 13.9907 3.07986 13.924 2.94823 13.884C2.62607 13.7533 2.35931 13.5148 2.19354 13.2092C2.02778 12.9036 1.9733 12.5499 2.03944 12.2086C2.10558 11.8673 2.28821 11.5596 2.55612 11.3381C2.82403 11.1165 3.16058 10.9949 3.50823 10.994C3.77345 10.994 4.0278 10.8886 4.21534 10.7011C4.40288 10.5136 4.50823 10.2592 4.50823 9.994C4.50823 8.93313 4.92966 7.91572 5.67981 7.16557C6.42995 6.41543 7.44737 5.994 8.50823 5.994C9.28421 5.99338 10.0429 6.22308 10.6882 6.654V6.654C11.4152 7.13216 11.9664 7.83432 12.2582 8.654C12.3154 8.82584 12.4181 8.97893 12.5555 9.09693C12.6929 9.21493 12.8597 9.29341 13.0382 9.324C13.5556 9.41561 14.0269 9.67942 14.3755 10.0726C14.7241 10.4658 14.9295 10.9653 14.9585 11.4899C14.9874 12.0146 14.8382 12.5336 14.535 12.9628C14.2318 13.3919 13.7924 13.706 13.2882 13.854C13.023 13.8898 12.7829 14.0295 12.6207 14.2424C12.4584 14.4552 12.3874 14.7238 12.4232 14.989C12.459 15.2542 12.5987 15.4943 12.8116 15.6566C13.0244 15.8188 13.293 15.8898 13.5582 15.854C13.6476 15.8686 13.7388 15.8686 13.8282 15.854C14.7447 15.6015 15.5527 15.0545 16.1274 14.2972C16.7021 13.54 17.0116 12.6146 17.0082 11.664C17.0121 10.9671 16.8438 10.2801 16.5182 9.664C17.377 9.42417 18.1549 8.95639 18.7693 8.31026C19.3838 7.66413 19.8119 6.86375 20.0082 5.994C20.042 5.82627 20.0321 5.65269 19.9796 5.48986C19.927 5.32703 19.8336 5.1804 19.7082 5.064V5.064ZM15.1182 7.884C14.9785 7.89528 14.838 7.89528 14.6982 7.884C14.4799 7.73439 14.249 7.6039 14.0082 7.494C13.5984 6.59584 12.9732 5.81269 12.1882 5.214C12.1882 5.094 12.1882 4.964 12.1882 4.844C12.1882 4.41068 12.282 3.98249 12.4633 3.5889C12.6446 3.19531 12.9089 2.84566 13.2382 2.564C13.3931 3.63085 13.8886 4.61909 14.6509 5.38138C15.4131 6.14366 16.4014 6.63916 17.4682 6.794C17.1829 7.13972 16.8236 7.41709 16.4169 7.60572C16.0103 7.79435 15.5665 7.88944 15.1182 7.884V7.884Z" fill="var(--fill-0, #1E1F26)"/>
</svg>
