<svg preserveAspectRatio="none" width="100%" height="100%" overflow="visible" style="display: block;" viewBox="0 0 20 8" fill="none" xmlns="http://www.w3.org/2000/svg">
<path id="Vector" d="M16 2.15987e-06C14.9391 2.15987e-06 13.9217 0.421429 13.1716 1.17157C12.4214 1.92172 12 2.93914 12 4C12.003 4.70496 12.1965 5.39601 12.56 6H7.44C7.80355 5.39601 7.99705 4.70496 8 4C8 3.20888 7.76541 2.43552 7.32588 1.77772C6.88635 1.11993 6.26164 0.607234 5.53074 0.304484C4.79983 0.00173313 3.99556 -0.0774802 3.21964 0.0768607C2.44372 0.231202 1.73098 0.612165 1.17157 1.17157C0.612165 1.73098 0.231202 2.44372 0.0768607 3.21964C-0.0774802 3.99557 0.00173313 4.79983 0.304484 5.53074C0.607234 6.26164 1.11992 6.88635 1.77772 7.32588C2.43552 7.76541 3.20888 8 4 8H16C17.0609 8 18.0783 7.57858 18.8284 6.82843C19.5786 6.07828 20 5.06087 20 4C20 2.93914 19.5786 1.92172 18.8284 1.17157C18.0783 0.421429 17.0609 2.15987e-06 16 2.15987e-06V2.15987e-06ZM4 6C3.60444 6 3.21776 5.8827 2.88886 5.66294C2.55996 5.44318 2.30362 5.13082 2.15224 4.76537C2.00087 4.39992 1.96126 3.99778 2.03843 3.60982C2.1156 3.22186 2.30608 2.86549 2.58579 2.58579C2.86549 2.30608 3.22186 2.1156 3.60982 2.03843C3.99778 1.96126 4.39992 2.00087 4.76537 2.15224C5.13082 2.30362 5.44318 2.55996 5.66294 2.88886C5.8827 3.21776 6 3.60444 6 4C6 4.53044 5.78929 5.03914 5.41422 5.41422C5.03914 5.78929 4.53043 6 4 6ZM16 6C15.6044 6 15.2178 5.8827 14.8889 5.66294C14.56 5.44318 14.3036 5.13082 14.1522 4.76537C14.0009 4.39992 13.9613 3.99778 14.0384 3.60982C14.1156 3.22186 14.3061 2.86549 14.5858 2.58579C14.8655 2.30608 15.2219 2.1156 15.6098 2.03843C15.9978 1.96126 16.3999 2.00087 16.7654 2.15224C17.1308 2.30362 17.4432 2.55996 17.6629 2.88886C17.8827 3.21776 18 3.60444 18 4C18 4.53044 17.7893 5.03914 17.4142 5.41422C17.0391 5.78929 16.5304 6 16 6Z" fill="var(--fill-0, #1E1F26)"/>
</svg>
