<svg preserveAspectRatio="none" width="100%" height="100%" overflow="visible" style="display: block;" viewBox="0 0 20.0099 20.0099" fill="none" xmlns="http://www.w3.org/2000/svg">
<path id="Vector" d="M19.7141 18.2941L1.71409 0.294092C1.52579 0.105788 1.27039 -1.9841e-09 1.00409 0C0.73779 1.9841e-09 0.482395 0.105788 0.294092 0.294092C0.105788 0.482395 1.9841e-09 0.73779 0 1.00409C-1.9841e-09 1.27039 0.105788 1.52579 0.294092 1.71409L1.29409 2.71409C1.10269 3.11717 1.00362 3.55788 1.00409 4.00409V12.0041C1.00409 12.7997 1.32016 13.5628 1.88277 14.1254C2.44538 14.688 3.20844 15.0041 4.00409 15.0041H7.00409V17.0041H4.00409C3.73888 17.0041 3.48452 17.1094 3.29699 17.297C3.10945 17.4845 3.00409 17.7389 3.00409 18.0041C3.00409 18.2693 3.10945 18.5237 3.29699 18.7112C3.48452 18.8987 3.73888 19.0041 4.00409 19.0041H16.0041C16.2079 19.002 16.4062 18.9376 16.5724 18.8197C16.7386 18.7017 16.8648 18.5358 16.9341 18.3441L18.2941 19.7141C18.3871 19.8078 18.4977 19.8822 18.6195 19.933C18.7414 19.9838 18.8721 20.0099 19.0041 20.0099C19.1361 20.0099 19.2668 19.9838 19.3887 19.933C19.5105 19.8822 19.6211 19.8078 19.7141 19.7141C19.8078 19.6211 19.8822 19.5105 19.933 19.3887C19.9838 19.2668 20.0099 19.1361 20.0099 19.0041C20.0099 18.8721 19.9838 18.7414 19.933 18.6195C19.8822 18.4977 19.8078 18.3871 19.7141 18.2941V18.2941ZM3.00409 4.41409L7.59409 9.00409H3.00409V4.41409ZM11.0041 17.0041H9.00409V15.0041H11.0041V17.0041ZM4.00409 13.0041C3.73888 13.0041 3.48452 12.8987 3.29699 12.7112C3.10945 12.5237 3.00409 12.2693 3.00409 12.0041V11.0041H9.59409L11.5941 13.0041H4.00409ZM13.0041 17.0041V15.0041H13.5941L15.5941 17.0041H13.0041ZM7.66409 3.00409H16.0041C16.2693 3.00409 16.5237 3.10945 16.7112 3.29699C16.8987 3.48452 17.0041 3.73888 17.0041 4.00409V9.00409H15.6641C15.3989 9.00409 15.1445 9.10945 14.957 9.29698C14.7694 9.48452 14.6641 9.73887 14.6641 10.0041C14.6641 10.2693 14.7694 10.5237 14.957 10.7112C15.1445 10.8987 15.3989 11.0041 15.6641 11.0041H17.0041V12.0041C17.0096 12.0406 17.0096 12.0776 17.0041 12.1141C16.9778 12.2428 16.9771 12.3754 17.0021 12.5044C17.0271 12.6333 17.0772 12.7561 17.1496 12.8657C17.2221 12.9753 17.3154 13.0695 17.4242 13.143C17.5331 13.2165 17.6554 13.2679 17.7841 13.2941H17.9841C18.218 13.2988 18.4462 13.2213 18.6289 13.0752C18.8117 12.929 18.9373 12.7234 18.9841 12.4941C19.0049 12.3316 19.0116 12.1677 19.0041 12.0041V4.00409C19.0041 3.20844 18.688 2.44538 18.1254 1.88277C17.5628 1.32016 16.7997 1.00409 16.0041 1.00409H7.66409C7.39888 1.00409 7.14452 1.10945 6.95698 1.29698C6.76945 1.48452 6.66409 1.73888 6.66409 2.00409C6.66409 2.26931 6.76945 2.52366 6.95698 2.7112C7.14452 2.89873 7.39888 3.00409 7.66409 3.00409V3.00409Z" fill="var(--fill-0, #1E1F26)"/>
</svg>
