<svg preserveAspectRatio="none" width="100%" height="100%" overflow="visible" style="display: block;" viewBox="0 0 20.0079 17.587" fill="none" xmlns="http://www.w3.org/2000/svg">
<path id="Vector" d="M19.874 16.0869L10.874 0.506948C10.7868 0.35305 10.6603 0.225042 10.5074 0.135983C10.3546 0.0469233 10.1809 0 10.004 0C9.82708 0 9.65335 0.0469233 9.50051 0.135983C9.34767 0.225042 9.22119 0.35305 9.13398 0.506948L0.133975 16.0869C0.0462063 16.239 0 16.4114 0 16.5869C0 16.7625 0.0462063 16.9349 0.133975 17.0869C0.222079 17.2396 0.348943 17.3662 0.501721 17.454C0.654498 17.5418 0.827765 17.5876 1.00397 17.5869H19.004C19.1802 17.5876 19.3535 17.5418 19.5062 17.454C19.659 17.3662 19.7859 17.2396 19.874 17.0869C19.9617 16.9349 20.0079 16.7625 20.0079 16.5869C20.0079 16.4114 19.9617 16.239 19.874 16.0869V16.0869ZM2.73397 15.5869L10.004 3.00695L17.274 15.5869H2.73397Z" fill="var(--fill-0, #1E1F26)"/>
</svg>
