<svg preserveAspectRatio="none" width="100%" height="100%" overflow="visible" style="display: block;" viewBox="0 0 20.2009 14.45" fill="none" xmlns="http://www.w3.org/2000/svg">
<path id="Vector" d="M15.0396 4C15.4351 4 15.8218 3.8827 16.1507 3.66294C16.4796 3.44318 16.7359 3.13082 16.8873 2.76537C17.0387 2.39992 17.0783 1.99778 17.0011 1.60982C16.924 1.22186 16.7335 0.865492 16.4538 0.585787C16.1741 0.306082 15.8177 0.115601 15.4297 0.0384303C15.0418 -0.0387401 14.6396 0.000866564 14.2742 0.152242C13.9087 0.303617 13.5964 0.559962 13.3766 0.88886C13.1569 1.21776 13.0396 1.60444 13.0396 2C13.0396 2.53043 13.2503 3.03914 13.6254 3.41421C14.0004 3.78929 14.5091 4 15.0396 4ZM0.749564 8.64C0.947718 8.70335 1.13875 8.78713 1.31956 8.89C1.94149 9.25381 2.64904 9.44556 3.36956 9.44556C4.09009 9.44556 4.79763 9.25381 5.41956 8.89C5.81064 8.67103 6.25136 8.55605 6.69956 8.55605C7.14777 8.55605 7.58849 8.67103 7.97956 8.89L8.18956 8.99C8.79637 9.28541 9.46619 9.428 10.1407 9.40534C10.8152 9.38268 11.474 9.19547 12.0596 8.86C12.4506 8.64103 12.8914 8.52605 13.3396 8.52605C13.7878 8.52605 14.2285 8.64103 14.6196 8.86C15.2533 9.22219 15.9696 9.41505 16.6996 9.42C17.4039 9.41269 18.0938 9.21951 18.6996 8.86C18.8804 8.75713 19.0714 8.67335 19.2696 8.61C19.4174 8.59983 19.5611 8.55694 19.6903 8.48444C19.8195 8.41194 19.9309 8.31163 20.0166 8.19078C20.1023 8.06993 20.1601 7.93154 20.1858 7.78563C20.2114 7.63972 20.2044 7.48993 20.1651 7.34709C20.1258 7.20424 20.0552 7.07192 19.9585 6.95967C19.8618 6.84743 19.7414 6.75807 19.6059 6.69807C19.4705 6.63806 19.3234 6.6089 19.1753 6.61269C19.0272 6.61648 18.8818 6.65314 18.7496 6.72C18.4006 6.82829 18.0651 6.97591 17.7496 7.16C17.4303 7.34431 17.0682 7.44135 16.6996 7.44135C16.3309 7.44135 15.9688 7.34431 15.6496 7.16C14.9568 6.7692 14.1749 6.56387 13.3796 6.56387C12.5842 6.56387 11.8023 6.7692 11.1096 7.16C11.0155 7.20599 10.9186 7.24607 10.8196 7.28L12.3796 5.72C12.4153 5.67368 12.4455 5.62334 12.4696 5.57C12.5148 5.52081 12.555 5.46721 12.5896 5.41C12.5942 5.34675 12.5942 5.28325 12.5896 5.22C12.5953 5.1568 12.5953 5.09321 12.5896 5.03C12.5944 4.9701 12.5944 4.90991 12.5896 4.85C12.5953 4.7868 12.5953 4.72321 12.5896 4.66C12.56 4.60121 12.5266 4.54443 12.4896 4.49C12.4636 4.4324 12.43 4.37858 12.3896 4.33L9.31956 1C9.2388 0.911947 9.14423 0.83764 9.03956 0.780001C8.96987 0.770773 8.89926 0.770773 8.82956 0.780001C8.77327 0.770854 8.71586 0.770854 8.65956 0.780001C8.52645 0.726436 8.38235 0.705851 8.23956 0.720001L4.69956 2.04C4.45033 2.13026 4.24712 2.31579 4.13462 2.55581C4.02211 2.79582 4.0095 3.07069 4.09956 3.32C4.18983 3.56924 4.37535 3.77244 4.61537 3.88495C4.85539 3.99746 5.13025 4.01006 5.37956 3.92L8.30956 2.85L10.3096 4.97L8.40956 6.87C7.77297 6.62253 7.08942 6.51929 6.40813 6.56771C5.72684 6.61612 5.06477 6.81499 4.46956 7.15C4.15032 7.33431 3.78819 7.43135 3.41956 7.43135C3.05094 7.43135 2.6888 7.33431 2.36956 7.15C2.05398 6.96591 1.7185 6.81829 1.36956 6.71C1.24161 6.66226 1.10524 6.64124 0.968856 6.64822C0.83247 6.65521 0.698959 6.69005 0.576556 6.75061C0.454152 6.81117 0.34545 6.89616 0.25715 7.00034C0.168851 7.10452 0.102825 7.22568 0.0631444 7.35635C0.0234636 7.48702 0.0109684 7.62444 0.0264293 7.76013C0.0418901 7.89581 0.0849793 8.0269 0.15304 8.14529C0.221101 8.26369 0.312692 8.36689 0.422165 8.44853C0.531638 8.53018 0.656674 8.58853 0.789564 8.62L0.749564 8.64ZM18.7496 11.73C18.4006 11.8383 18.0651 11.9859 17.7496 12.17C17.4303 12.3543 17.0682 12.4513 16.6996 12.4513C16.3309 12.4513 15.9688 12.3543 15.6496 12.17C14.9568 11.7792 14.1749 11.5739 13.3796 11.5739C12.5842 11.5739 11.8023 11.7792 11.1096 12.17C10.7876 12.3571 10.4219 12.4556 10.0496 12.4556C9.67722 12.4556 9.31151 12.3571 8.98956 12.17C8.29683 11.7792 7.51493 11.5739 6.71956 11.5739C5.9242 11.5739 5.1423 11.7792 4.44956 12.17C4.13032 12.3543 3.76819 12.4513 3.39956 12.4513C3.03094 12.4513 2.6688 12.3543 2.34956 12.17C2.03398 11.9859 1.6985 11.8383 1.34956 11.73C1.22161 11.6823 1.08524 11.6612 0.948856 11.6682C0.81247 11.6752 0.678959 11.7101 0.556556 11.7706C0.434152 11.8312 0.32545 11.9162 0.23715 12.0203C0.148851 12.1245 0.0828252 12.2457 0.0431444 12.3764C0.00346359 12.507 -0.00903161 12.6444 0.00642927 12.7801C0.0218902 12.9158 0.0649793 13.0469 0.13304 13.1653C0.201101 13.2837 0.292692 13.3869 0.402165 13.4685C0.511638 13.5502 0.636674 13.6085 0.769564 13.64C0.967718 13.7033 1.15875 13.7871 1.33956 13.89C1.96149 14.2538 2.66904 14.4456 3.38956 14.4456C4.11009 14.4456 4.81763 14.2538 5.43956 13.89C5.83064 13.671 6.27136 13.556 6.71956 13.556C7.16777 13.556 7.60849 13.671 7.99956 13.89C8.62686 14.2487 9.33695 14.4374 10.0596 14.4374C10.7822 14.4374 11.4923 14.2487 12.1196 13.89C12.5106 13.671 12.9514 13.556 13.3996 13.556C13.8478 13.556 14.2885 13.671 14.6796 13.89C15.3133 14.2522 16.0296 14.4451 16.7596 14.45C17.4639 14.4427 18.1538 14.2495 18.7596 13.89C18.9404 13.7871 19.1314 13.7033 19.3296 13.64C19.4556 13.6019 19.573 13.5394 19.6749 13.4559C19.7768 13.3725 19.8612 13.2698 19.9234 13.1538C19.9857 13.0377 20.0244 12.9105 20.0375 12.7795C20.0505 12.6484 20.0376 12.5161 19.9996 12.39C19.9615 12.2639 19.8989 12.1466 19.8155 12.0447C19.7321 11.9428 19.6294 11.8583 19.5133 11.7961C19.3973 11.7339 19.2701 11.6952 19.139 11.6821C19.008 11.669 18.8756 11.6819 18.7496 11.72V11.73Z" fill="var(--fill-0, #1E1F26)"/>
</svg>
