<svg preserveAspectRatio="none" width="100%" height="100%" overflow="visible" style="display: block;" viewBox="0 0 19.8814 20.0073" fill="none" xmlns="http://www.w3.org/2000/svg">
<path id="Vector" d="M18.4817 4.90729C18.4608 4.87234 18.4374 4.83893 18.4117 4.80729C17.1183 2.67857 15.077 1.10919 12.6873 0.406354C10.2977 -0.296486 7.73172 -0.0821915 5.49174 1.00729H5.42174C3.87631 1.80314 2.56502 2.9881 1.61722 4.44529C0.669413 5.90248 0.117833 7.58158 0.0168801 9.31696C-0.0840729 11.0523 0.269088 12.7841 1.04153 14.3413C1.81397 15.8986 2.97901 17.2276 4.42174 18.1973L4.75174 18.3973L4.85174 18.4673C6.36238 19.4252 8.1037 19.9573 9.89174 20.0073H10.1017C11.8481 19.9688 13.5539 19.4736 15.0493 18.5709C16.5447 17.6682 17.7776 16.3895 18.6252 14.8622C19.4728 13.3349 19.9056 11.6122 19.8804 9.86563C19.8552 8.11906 19.373 6.40955 18.4817 4.90729V4.90729ZM16.8917 6.06729C17.1589 6.5299 17.3767 7.01924 17.5417 7.52729C16.5726 7.21204 15.5609 7.0468 14.5417 7.03729C14.4394 7.01733 14.3341 7.01733 14.2317 7.03729C13.0031 7.05358 11.7886 7.30124 10.6517 7.76729C9.95882 7.33305 9.338 6.79321 8.81174 6.16729C10.034 5.45057 11.4217 5.06444 12.8385 5.04691C14.2553 5.02938 15.6522 5.38104 16.8917 6.06729V6.06729ZM9.89174 2.00729C11.2967 2.00004 12.678 2.36953 13.8917 3.07729C13.5603 3.03246 13.2262 3.00908 12.8917 3.00729C11.0564 3.01081 9.25733 3.51938 7.69174 4.47729C7.39638 3.86063 7.1813 3.20865 7.05174 2.53729C7.95791 2.188 8.92059 2.00834 9.89174 2.00729V2.00729ZM3.89174 4.71729C4.2908 4.27376 4.73673 3.87476 5.22174 3.52729C5.55564 4.80212 6.1407 5.99746 6.94262 7.04322C7.74454 8.08898 8.74718 8.96411 9.89174 9.61729C9.82042 10.6175 9.55909 11.5949 9.12174 12.4973C7.58973 11.9319 6.26745 10.9111 5.33253 9.57221C4.39761 8.23329 3.89484 6.64032 3.89174 5.00729V4.71729ZM1.89174 10.0073C1.89353 9.20381 2.01486 8.40507 2.25174 7.63729C2.64709 9.08913 3.36496 10.433 4.35188 11.5688C5.33881 12.7047 6.56932 13.6031 7.95175 14.1973C7.15585 15.1299 6.15231 15.8629 5.02174 16.3373C4.05045 15.592 3.26317 14.6338 2.72052 13.5363C2.17787 12.4389 1.89433 11.2316 1.89174 10.0073V10.0073ZM9.75174 18.0073C8.86013 17.9944 7.97734 17.8286 7.14174 17.5173C8.45343 16.7088 9.5592 15.6065 10.3717 14.2973C11.2926 12.8298 11.8164 11.1482 11.8917 9.41729C12.4688 9.22759 13.0663 9.10675 13.6717 9.05729C14.099 10.7726 13.946 12.5811 13.2368 14.2003C12.5276 15.8195 11.3021 17.1582 9.75174 18.0073V18.0073ZM13.9717 16.8873C15.2208 15.1814 15.8934 13.1216 15.8917 11.0073C15.8873 10.3765 15.8271 9.74742 15.7117 9.12729C16.4637 9.26018 17.1939 9.49572 17.8817 9.82729V10.0073C17.8808 11.393 17.5199 12.7547 16.8345 13.959C16.1491 15.1632 15.1626 16.1689 13.9717 16.8773V16.8873Z" fill="var(--fill-0, #1E1F26)"/>
</svg>
