<svg preserveAspectRatio="none" width="100%" height="100%" overflow="visible" style="display: block;" viewBox="0 0 22.0011 22" fill="none" xmlns="http://www.w3.org/2000/svg">
<path id="Vector" d="M6.5011 14C6.23589 14 5.98153 14.1054 5.794 14.2929C5.60646 14.4804 5.5011 14.7348 5.5011 15V16C5.5011 16.2652 5.60646 16.5196 5.794 16.7071C5.98153 16.8946 6.23589 17 6.5011 17C6.76632 17 7.02067 16.8946 7.20821 16.7071C7.39575 16.5196 7.5011 16.2652 7.5011 16V15C7.5011 14.7348 7.39575 14.4804 7.20821 14.2929C7.02067 14.1054 6.76632 14 6.5011 14ZM21.0011 6H19.9011C19.7678 5.37352 19.5204 4.77691 19.1711 4.24L20.0011 3.47C20.0943 3.37676 20.1683 3.26607 20.2188 3.14425C20.2692 3.02243 20.2952 2.89186 20.2952 2.76C20.2952 2.62814 20.2692 2.49757 20.2188 2.37575C20.1683 2.25393 20.0943 2.14324 20.0011 2.05C19.9079 1.95676 19.7972 1.8828 19.6754 1.83234C19.5535 1.78188 19.423 1.75591 19.2911 1.75591C19.1592 1.75591 19.0287 1.78188 18.9069 1.83234C18.785 1.8828 18.6743 1.95676 18.5811 2.05L17.8111 2.83C17.2616 2.47014 16.6465 2.22208 16.0011 2.1V1C16.0011 0.734784 15.8957 0.48043 15.7082 0.292893C15.5207 0.105357 15.2663 0 15.0011 0C14.7359 0 14.4815 0.105357 14.294 0.292893C14.1065 0.48043 14.0011 0.734784 14.0011 1V2.1C13.3746 2.23329 12.778 2.48075 12.2411 2.83L11.4711 2.05C11.3779 1.95676 11.2672 1.8828 11.1454 1.83234C11.0235 1.78188 10.893 1.75591 10.7611 1.75591C10.6292 1.75591 10.4987 1.78188 10.3769 1.83234C10.255 1.8828 10.1443 1.95676 10.0511 2.05C9.8628 2.2383 9.75701 2.4937 9.75701 2.76C9.75701 3.0263 9.8628 3.2817 10.0511 3.47L10.8311 4.24C10.4346 4.84404 10.172 5.526 10.0611 6.24C9.55458 6.0888 9.02965 6.00804 8.5011 6C7.05996 5.99918 5.66667 6.5171 4.57598 7.45906C3.48528 8.40102 2.77007 9.70409 2.5611 11.13C1.86474 11.3239 1.24549 11.7287 0.788438 12.2887C0.331382 12.8487 0.0589349 13.5365 0.00852367 14.2576C-0.0418876 14.9787 0.13221 15.6978 0.5069 16.3159C0.881591 16.9341 1.43849 17.4211 2.1011 17.71C2.22854 17.7605 2.36405 17.7876 2.5011 17.79C2.7323 17.7919 2.95701 17.7136 3.13698 17.5685C3.31696 17.4233 3.44109 17.2203 3.48824 16.994C3.5354 16.7676 3.50267 16.532 3.39562 16.327C3.28857 16.1221 3.11382 15.9606 2.9011 15.87C2.6328 15.7557 2.40424 15.5647 2.24412 15.321C2.084 15.0772 1.99945 14.7916 2.0011 14.5C2.0011 14.1022 2.15914 13.7206 2.44044 13.4393C2.72175 13.158 3.10328 13 3.5011 13C3.76632 13 4.02067 12.8946 4.20821 12.7071C4.39575 12.5196 4.5011 12.2652 4.5011 12C4.50539 11.0557 4.84363 10.1434 5.45594 9.42447C6.06826 8.70558 6.91516 8.22651 7.84676 8.07204C8.77835 7.91757 9.73456 8.09767 10.5461 8.58047C11.3577 9.06326 11.9723 9.81761 12.2811 10.71C12.3383 10.8818 12.441 11.0349 12.5784 11.1529C12.7158 11.2709 12.8826 11.3494 13.0611 11.38C13.5256 11.4488 13.9582 11.6569 14.3019 11.9768C14.6456 12.2967 14.8841 12.7133 14.986 13.1717C15.0878 13.63 15.0482 14.1085 14.8724 14.5439C14.6965 14.9792 14.3927 15.351 14.0011 15.61C13.8908 15.6822 13.7958 15.7755 13.7215 15.8844C13.6472 15.9934 13.5952 16.1159 13.5682 16.2449C13.5413 16.374 13.5401 16.5071 13.5646 16.6367C13.5891 16.7662 13.6389 16.8897 13.7111 17C13.857 17.2228 14.0854 17.3785 14.346 17.4329C14.4751 17.4598 14.6082 17.4611 14.7378 17.4365C14.8673 17.412 14.9908 17.3622 15.1011 17.29C15.6908 16.8891 16.1727 16.3491 16.5041 15.7177C16.8354 15.0864 17.0062 14.383 17.0011 13.67C16.998 13.0042 16.8441 12.3478 16.5511 11.75C16.9779 11.6101 17.3847 11.4151 17.7611 11.17L18.5311 11.95C18.6212 12.0548 18.7321 12.1397 18.8567 12.1995C18.9814 12.2592 19.117 12.2925 19.2551 12.2972C19.3933 12.3019 19.5309 12.2779 19.6593 12.2268C19.7877 12.1756 19.9041 12.0984 20.0011 12C20.0948 11.907 20.1692 11.7964 20.22 11.6746C20.2708 11.5527 20.2969 11.422 20.2969 11.29C20.2969 11.158 20.2708 11.0273 20.22 10.9054C20.1692 10.7836 20.0948 10.673 20.0011 10.58L19.2211 9.81C19.5634 9.25666 19.7944 8.64183 19.9011 8H21.0011C21.2663 8 21.5207 7.89464 21.7082 7.70711C21.8957 7.51957 22.0011 7.26522 22.0011 7C22.0011 6.73478 21.8957 6.48043 21.7082 6.29289C21.5207 6.10536 21.2663 6 21.0011 6ZM17.1311 9.12C16.8516 9.39985 16.5195 9.62167 16.154 9.77269C15.7884 9.92372 15.3966 10.001 15.0011 10H14.9411C14.6298 9.80263 14.2935 9.64791 13.9411 9.54C13.4979 8.58293 12.8076 7.76136 11.9411 7.16C11.9411 7.1 11.9411 7.06 11.9411 7C11.9391 6.20605 12.252 5.4437 12.8111 4.88C13.3862 4.33857 14.1463 4.03707 14.9361 4.03707C15.726 4.03707 16.486 4.33857 17.0611 4.88C17.3408 5.15871 17.5627 5.48989 17.7141 5.85454C17.8655 6.2192 17.9435 6.61016 17.9435 7.005C17.9435 7.39984 17.8655 7.7908 17.7141 8.15546C17.5627 8.52011 17.3408 8.85129 17.0611 9.13L17.1311 9.12ZM6.5011 19C6.23589 19 5.98153 19.1054 5.794 19.2929C5.60646 19.4804 5.5011 19.7348 5.5011 20V21C5.5011 21.2652 5.60646 21.5196 5.794 21.7071C5.98153 21.8946 6.23589 22 6.5011 22C6.76632 22 7.02067 21.8946 7.20821 21.7071C7.39575 21.5196 7.5011 21.2652 7.5011 21V20C7.5011 19.7348 7.39575 19.4804 7.20821 19.2929C7.02067 19.1054 6.76632 19 6.5011 19ZM10.5011 18C10.2359 18 9.98153 18.1054 9.794 18.2929C9.60646 18.4804 9.5011 18.7348 9.5011 19V20C9.5011 20.2652 9.60646 20.5196 9.794 20.7071C9.98153 20.8946 10.2359 21 10.5011 21C10.7663 21 11.0207 20.8946 11.2082 20.7071C11.3957 20.5196 11.5011 20.2652 11.5011 20V19C11.5011 18.7348 11.3957 18.4804 11.2082 18.2929C11.0207 18.1054 10.7663 18 10.5011 18ZM10.5011 13C10.2359 13 9.98153 13.1054 9.794 13.2929C9.60646 13.4804 9.5011 13.7348 9.5011 14V15C9.5011 15.2652 9.60646 15.5196 9.794 15.7071C9.98153 15.8946 10.2359 16 10.5011 16C10.7663 16 11.0207 15.8946 11.2082 15.7071C11.3957 15.5196 11.5011 15.2652 11.5011 15V14C11.5011 13.7348 11.3957 13.4804 11.2082 13.2929C11.0207 13.1054 10.7663 13 10.5011 13Z" fill="var(--fill-0, #1E1F26)"/>
</svg>
