<svg preserveAspectRatio="none" width="100%" height="100%" overflow="visible" style="display: block;" viewBox="0 0 20.0049 19.9999" fill="none" xmlns="http://www.w3.org/2000/svg">
<path id="Vector" d="M9.66409 5.00409H13.0041V6.00409C13.0041 6.26931 13.1094 6.52366 13.297 6.7112C13.4845 6.89873 13.7389 7.00409 14.0041 7.00409C14.2693 7.00409 14.5237 6.89873 14.7112 6.7112C14.8987 6.52366 15.0041 6.26931 15.0041 6.00409V5.00409H16.0041C16.2693 5.00409 16.5237 5.10945 16.7112 5.29699C16.8987 5.48452 17.0041 5.73888 17.0041 6.00409V9.00409H15.6641C15.3989 9.00409 15.1445 9.10945 14.957 9.29698C14.7694 9.48452 14.6641 9.73887 14.6641 10.0041C14.6641 10.2693 14.7694 10.5237 14.957 10.7112C15.1445 10.8987 15.3989 11.0041 15.6641 11.0041H17.0041V12.3441C17.0041 12.6093 17.1094 12.8637 17.297 13.0512C17.4845 13.2387 17.7389 13.3441 18.0041 13.3441C18.2693 13.3441 18.5237 13.2387 18.7112 13.0512C18.8987 12.8637 19.0041 12.6093 19.0041 12.3441V6.00409C19.0041 5.20844 18.688 4.44538 18.1254 3.88277C17.5628 3.32016 16.7997 3.00409 16.0041 3.00409H15.0041V2.00409C15.0041 1.73888 14.8987 1.48452 14.7112 1.29698C14.5237 1.10945 14.2693 1.00409 14.0041 1.00409C13.7389 1.00409 13.4845 1.10945 13.297 1.29698C13.1094 1.48452 13.0041 1.73888 13.0041 2.00409V3.00409H9.66409C9.39887 3.00409 9.14452 3.10945 8.95698 3.29699C8.76945 3.48452 8.66409 3.73888 8.66409 4.00409C8.66409 4.26931 8.76945 4.52366 8.95698 4.7112C9.14452 4.89873 9.39887 5.00409 9.66409 5.00409V5.00409ZM19.7141 18.2941L18.1141 16.6941L1.71409 0.294092C1.62085 0.200853 1.51016 0.126892 1.38834 0.0764319C1.26652 0.0259715 1.13595 0 1.00409 0C0.872232 0 0.741664 0.0259715 0.619842 0.0764319C0.49802 0.126892 0.38733 0.200853 0.294092 0.294092C0.105788 0.482395 0 0.73779 0 1.00409C0 1.27039 0.105788 1.52579 0.294092 1.71409L2.20409 3.61409C1.83285 3.89252 1.53126 4.25327 1.32304 4.66798C1.11482 5.08269 1.00564 5.54005 1.00409 6.00409V16.0041C1.00409 16.7997 1.32016 17.5628 1.88277 18.1254C2.44538 18.688 3.20844 19.0041 4.00409 19.0041H16.0041C16.4511 19.0014 16.8918 18.8989 17.2941 18.7041L18.2941 19.7041C18.3871 19.7978 18.4977 19.8722 18.6195 19.923C18.7414 19.9738 18.8721 19.9999 19.0041 19.9999C19.1361 19.9999 19.2668 19.9738 19.3887 19.923C19.5105 19.8722 19.6211 19.7978 19.7141 19.7041C19.9003 19.5167 20.0049 19.2633 20.0049 18.9991C20.0049 18.7349 19.9003 18.4815 19.7141 18.2941ZM3.00409 6.00409C3.00622 5.80029 3.07057 5.602 3.18853 5.43579C3.30649 5.26958 3.47242 5.14338 3.66409 5.07409L7.59409 9.00409H3.00409V6.00409ZM4.00409 17.0041C3.73888 17.0041 3.48452 16.8987 3.29699 16.7112C3.10945 16.5237 3.00409 16.2693 3.00409 16.0041V11.0041H9.59409L15.5941 17.0041H4.00409Z" fill="var(--fill-0, #1E1F26)"/>
</svg>
