<svg preserveAspectRatio="none" width="100%" height="100%" overflow="visible" style="display: block;" viewBox="0 0 19.9637 16.9867" fill="none" xmlns="http://www.w3.org/2000/svg">
<path id="Vector" d="M10.5468 9.15671C10.3814 9.04494 10.1864 8.9852 9.98676 8.9852C9.78716 8.9852 9.59212 9.04494 9.42676 9.15671C9.31676 9.23671 6.73676 11.0167 6.73676 13.7367C6.73676 14.5987 7.07917 15.4253 7.68866 16.0348C8.29815 16.6443 9.1248 16.9867 9.98676 16.9867C10.8487 16.9867 11.6754 16.6443 12.2849 16.0348C12.8943 15.4253 13.2368 14.5987 13.2368 13.7367C13.2368 10.9867 10.6568 9.22671 10.5468 9.15671ZM9.98676 14.9867C9.65524 14.9867 9.33729 14.855 9.10287 14.6206C8.86845 14.3862 8.73676 14.0682 8.73676 13.7367C8.81905 12.7886 9.26741 11.9098 9.98676 11.2867C10.7104 11.9064 11.1597 12.7871 11.2368 13.7367C11.2368 14.0682 11.1051 14.3862 10.8706 14.6206C10.6362 14.855 10.3183 14.9867 9.98676 14.9867V14.9867ZM16.4068 4.20671C15.7957 2.80272 14.7412 1.63779 13.4048 0.890438C12.0684 0.143088 10.5238 -0.145456 9.00772 0.0690207C7.49163 0.283498 6.08768 0.989164 5.01101 2.07789C3.93434 3.16661 3.24435 4.57833 3.04676 6.09671C2.12592 6.32267 1.31529 6.86838 0.759449 7.63651C0.203606 8.40465 -0.061304 9.34526 0.0119671 10.2906C0.0852382 11.2359 0.491926 12.1244 1.15949 12.7978C1.82706 13.4711 2.7121 13.8853 3.65676 13.9667H3.73676C3.98868 13.9675 4.23162 13.8732 4.41702 13.7026C4.60242 13.5321 4.71661 13.2978 4.73676 13.0467C4.74769 12.9153 4.73253 12.783 4.69215 12.6575C4.65176 12.532 4.58695 12.4157 4.50145 12.3153C4.41594 12.2149 4.31142 12.1325 4.19392 12.0726C4.07641 12.0128 3.94823 11.9768 3.81676 11.9667C3.31975 11.9243 2.85653 11.6977 2.51796 11.3314C2.1794 10.9651 1.98994 10.4855 1.98676 9.98671C1.98676 9.45628 2.19747 8.94757 2.57254 8.5725C2.94762 8.19743 3.45632 7.98671 3.98676 7.98671C4.25197 7.98671 4.50633 7.88135 4.69386 7.69382C4.8814 7.50628 4.98676 7.25193 4.98676 6.98671C4.98931 5.80399 5.41104 4.66046 6.17703 3.75929C6.94301 2.85813 8.00365 2.25766 9.17051 2.06458C10.3374 1.87151 11.5349 2.09832 12.5503 2.70472C13.5658 3.31112 14.3334 4.25785 14.7168 5.37671C14.7739 5.54855 14.8767 5.70164 15.014 5.81964C15.1514 5.93765 15.3183 6.01613 15.4968 6.04671C16.1498 6.16615 16.7448 6.49883 17.1885 6.99265C17.6322 7.48646 17.8996 8.11352 17.9488 8.77558C17.998 9.43764 17.8261 10.0973 17.4602 10.6512C17.0943 11.2052 16.555 11.6221 15.9268 11.8367C15.684 11.9261 15.4853 12.1062 15.3724 12.339C15.2596 12.5718 15.2414 12.8393 15.3217 13.0853C15.4019 13.3313 15.5744 13.5366 15.8029 13.6581C16.0313 13.7795 16.298 13.8077 16.5468 13.7367C17.5538 13.4006 18.4276 12.7527 19.0419 11.8868C19.6561 11.0209 19.9787 9.98199 19.9631 8.9205C19.9476 7.859 19.5945 6.83001 18.9551 5.98254C18.3157 5.13507 17.4232 4.51311 16.4068 4.20671V4.20671Z" fill="var(--fill-0, #1E1F26)"/>
</svg>
