<svg preserveAspectRatio="none" width="100%" height="100%" overflow="visible" style="display: block;" viewBox="0 0 20 20" fill="none" xmlns="http://www.w3.org/2000/svg">
<path id="Vector" d="M7.17 8.17C7.30161 8.17076 7.43207 8.14554 7.55391 8.09577C7.67574 8.04601 7.78656 7.97268 7.88 7.88C7.97373 7.78704 8.04812 7.67644 8.09889 7.55458C8.14966 7.43272 8.1758 7.30201 8.1758 7.17C8.1758 7.03799 8.14966 6.90728 8.09889 6.78542C8.04812 6.66356 7.97373 6.55296 7.88 6.46L3.41 2H5C5.26522 2 5.51957 1.89464 5.70711 1.70711C5.89464 1.51957 6 1.26522 6 1C6 0.734784 5.89464 0.48043 5.70711 0.292893C5.51957 0.105357 5.26522 0 5 0H1C0.869323 0.00157999 0.740222 0.028759 0.62 0.0799999C0.375651 0.181475 0.181475 0.375651 0.0799999 0.62C0.028759 0.740222 0.00157999 0.869323 0 1V5C0 5.26522 0.105357 5.51957 0.292893 5.70711C0.48043 5.89464 0.734784 6 1 6C1.26522 6 1.51957 5.89464 1.70711 5.70711C1.89464 5.51957 2 5.26522 2 5V3.41L6.46 7.88C6.55344 7.97268 6.66426 8.04601 6.78609 8.09577C6.90793 8.14554 7.03839 8.17076 7.17 8.17V8.17ZM13.54 6.46C13.447 6.36627 13.3364 6.29188 13.2146 6.24111C13.0927 6.19034 12.962 6.1642 12.83 6.1642C12.698 6.1642 12.5673 6.19034 12.4454 6.24111C12.3236 6.29188 12.213 6.36627 12.12 6.46L6.46 12.12C6.36627 12.213 6.29188 12.3236 6.24111 12.4454C6.19034 12.5673 6.1642 12.698 6.1642 12.83C6.1642 12.962 6.19034 13.0927 6.24111 13.2146C6.29188 13.3364 6.36627 13.447 6.46 13.54C6.55344 13.6327 6.66426 13.706 6.78609 13.7558C6.90793 13.8055 7.03839 13.8308 7.17 13.83C7.30161 13.8308 7.43207 13.8055 7.55391 13.7558C7.67574 13.706 7.78656 13.6327 7.88 13.54L13.54 7.88C13.6337 7.78704 13.7081 7.67644 13.7589 7.55458C13.8097 7.43272 13.8358 7.30201 13.8358 7.17C13.8358 7.03799 13.8097 6.90728 13.7589 6.78542C13.7081 6.66356 13.6337 6.55296 13.54 6.46ZM19 14C18.7348 14 18.4804 14.1054 18.2929 14.2929C18.1054 14.4804 18 14.7348 18 15V16.59L13.54 12.12C13.3517 11.9317 13.0963 11.8259 12.83 11.8259C12.5637 11.8259 12.3083 11.9317 12.12 12.12C11.9317 12.3083 11.8259 12.5637 11.8259 12.83C11.8259 13.0963 11.9317 13.3517 12.12 13.54L16.59 18H15C14.7348 18 14.4804 18.1054 14.2929 18.2929C14.1054 18.4804 14 18.7348 14 19C14 19.2652 14.1054 19.5196 14.2929 19.7071C14.4804 19.8946 14.7348 20 15 20H19C19.1307 19.9984 19.2598 19.9712 19.38 19.92C19.6243 19.8185 19.8185 19.6243 19.92 19.38C19.9712 19.2598 19.9984 19.1307 20 19V15C20 14.7348 19.8946 14.4804 19.7071 14.2929C19.5196 14.1054 19.2652 14 19 14Z" fill="var(--fill-0, #1E1F26)"/>
</svg>
