<svg preserveAspectRatio="none" width="100%" height="100%" overflow="visible" style="display: block;" viewBox="0 0 18 18" fill="none" xmlns="http://www.w3.org/2000/svg">
<path id="Vector" d="M5 16C4.80222 16 4.60888 16.0586 4.44443 16.1685C4.27998 16.2784 4.15181 16.4346 4.07612 16.6173C4.00043 16.8 3.98063 17.0011 4.01922 17.1951C4.0578 17.3891 4.15304 17.5673 4.29289 17.7071C4.43275 17.847 4.61093 17.9422 4.80491 17.9808C4.99889 18.0194 5.19996 17.9996 5.38268 17.9239C5.56541 17.8482 5.72159 17.72 5.83147 17.5556C5.94135 17.3911 6 17.1978 6 17C6 16.7348 5.89464 16.4804 5.70711 16.2929C5.51957 16.1054 5.26522 16 5 16V16ZM5 8C4.80222 8 4.60888 8.05865 4.44443 8.16853C4.27998 8.27841 4.15181 8.43459 4.07612 8.61732C4.00043 8.80004 3.98063 9.00111 4.01922 9.19509C4.0578 9.38907 4.15304 9.56725 4.29289 9.70711C4.43275 9.84696 4.61093 9.9422 4.80491 9.98079C4.99889 10.0194 5.19996 9.99957 5.38268 9.92388C5.56541 9.84819 5.72159 9.72002 5.83147 9.55557C5.94135 9.39112 6 9.19778 6 9C6 8.73478 5.89464 8.48043 5.70711 8.29289C5.51957 8.10536 5.26522 8 5 8V8ZM9 16C8.80222 16 8.60888 16.0586 8.44443 16.1685C8.27998 16.2784 8.15181 16.4346 8.07612 16.6173C8.00043 16.8 7.98063 17.0011 8.01922 17.1951C8.0578 17.3891 8.15304 17.5673 8.29289 17.7071C8.43275 17.847 8.61093 17.9422 8.80491 17.9808C8.99889 18.0194 9.19996 17.9996 9.38268 17.9239C9.56541 17.8482 9.72159 17.72 9.83147 17.5556C9.94135 17.3911 10 17.1978 10 17C10 16.7348 9.89464 16.4804 9.70711 16.2929C9.51957 16.1054 9.26522 16 9 16ZM1 4C0.802219 4 0.60888 4.05865 0.44443 4.16853C0.279981 4.27841 0.151809 4.43459 0.0761209 4.61732C0.000433282 4.80004 -0.0193701 5.00111 0.0192152 5.19509C0.0578004 5.38907 0.153041 5.56725 0.292894 5.70711C0.432746 5.84696 0.610929 5.9422 0.80491 5.98079C0.998891 6.01937 1.19996 5.99957 1.38268 5.92388C1.56541 5.84819 1.72159 5.72002 1.83147 5.55557C1.94135 5.39112 2 5.19778 2 5C2 4.73478 1.89464 4.48043 1.70711 4.29289C1.51957 4.10536 1.26522 4 1 4ZM1 16C0.802219 16 0.60888 16.0586 0.44443 16.1685C0.279981 16.2784 0.151809 16.4346 0.0761209 16.6173C0.000433282 16.8 -0.0193701 17.0011 0.0192152 17.1951C0.0578004 17.3891 0.153041 17.5673 0.292894 17.7071C0.432746 17.847 0.610929 17.9422 0.80491 17.9808C0.998891 18.0194 1.19996 17.9996 1.38268 17.9239C1.56541 17.8482 1.72159 17.72 1.83147 17.5556C1.94135 17.3911 2 17.1978 2 17C2 16.7348 1.89464 16.4804 1.70711 16.2929C1.51957 16.1054 1.26522 16 1 16ZM1 2H17C17.2652 2 17.5196 1.89464 17.7071 1.70711C17.8946 1.51957 18 1.26522 18 1C18 0.734784 17.8946 0.48043 17.7071 0.292893C17.5196 0.105357 17.2652 0 17 0H1C0.734784 0 0.48043 0.105357 0.292894 0.292893C0.105357 0.48043 5.39967e-07 0.734784 5.39967e-07 1C5.39967e-07 1.26522 0.105357 1.51957 0.292894 1.70711C0.48043 1.89464 0.734784 2 1 2V2ZM1 12C0.802219 12 0.60888 12.0586 0.44443 12.1685C0.279981 12.2784 0.151809 12.4346 0.0761209 12.6173C0.000433282 12.8 -0.0193701 13.0011 0.0192152 13.1951C0.0578004 13.3891 0.153041 13.5673 0.292894 13.7071C0.432746 13.847 0.610929 13.9422 0.80491 13.9808C0.998891 14.0194 1.19996 13.9996 1.38268 13.9239C1.56541 13.8482 1.72159 13.72 1.83147 13.5556C1.94135 13.3911 2 13.1978 2 13C2 12.7348 1.89464 12.4804 1.70711 12.2929C1.51957 12.1054 1.26522 12 1 12ZM1 8C0.802219 8 0.60888 8.05865 0.44443 8.16853C0.279981 8.27841 0.151809 8.43459 0.0761209 8.61732C0.000433282 8.80004 -0.0193701 9.00111 0.0192152 9.19509C0.0578004 9.38907 0.153041 9.56725 0.292894 9.70711C0.432746 9.84696 0.610929 9.9422 0.80491 9.98079C0.998891 10.0194 1.19996 9.99957 1.38268 9.92388C1.56541 9.84819 1.72159 9.72002 1.83147 9.55557C1.94135 9.39112 2 9.19778 2 9C2 8.73478 1.89464 8.48043 1.70711 8.29289C1.51957 8.10536 1.26522 8 1 8ZM9 4C8.80222 4 8.60888 4.05865 8.44443 4.16853C8.27998 4.27841 8.15181 4.43459 8.07612 4.61732C8.00043 4.80004 7.98063 5.00111 8.01922 5.19509C8.0578 5.38907 8.15304 5.56725 8.29289 5.70711C8.43275 5.84696 8.61093 5.9422 8.80491 5.98079C8.99889 6.01937 9.19996 5.99957 9.38268 5.92388C9.56541 5.84819 9.72159 5.72002 9.83147 5.55557C9.94135 5.39112 10 5.19778 10 5C10 4.73478 9.89464 4.48043 9.70711 4.29289C9.51957 4.10536 9.26522 4 9 4ZM17 12C16.8022 12 16.6089 12.0586 16.4444 12.1685C16.28 12.2784 16.1518 12.4346 16.0761 12.6173C16.0004 12.8 15.9806 13.0011 16.0192 13.1951C16.0578 13.3891 16.153 13.5673 16.2929 13.7071C16.4327 13.847 16.6109 13.9422 16.8049 13.9808C16.9989 14.0194 17.2 13.9996 17.3827 13.9239C17.5654 13.8482 17.7216 13.72 17.8315 13.5556C17.9414 13.3911 18 13.1978 18 13C18 12.7348 17.8946 12.4804 17.7071 12.2929C17.5196 12.1054 17.2652 12 17 12ZM17 16C16.8022 16 16.6089 16.0586 16.4444 16.1685C16.28 16.2784 16.1518 16.4346 16.0761 16.6173C16.0004 16.8 15.9806 17.0011 16.0192 17.1951C16.0578 17.3891 16.153 17.5673 16.2929 17.7071C16.4327 17.847 16.6109 17.9422 16.8049 17.9808C16.9989 18.0194 17.2 17.9996 17.3827 17.9239C17.5654 17.8482 17.7216 17.72 17.8315 17.5556C17.9414 17.3911 18 17.1978 18 17C18 16.7348 17.8946 16.4804 17.7071 16.2929C17.5196 16.1054 17.2652 16 17 16ZM9 12C8.80222 12 8.60888 12.0586 8.44443 12.1685C8.27998 12.2784 8.15181 12.4346 8.07612 12.6173C8.00043 12.8 7.98063 13.0011 8.01922 13.1951C8.0578 13.3891 8.15304 13.5673 8.29289 13.7071C8.43275 13.847 8.61093 13.9422 8.80491 13.9808C8.99889 14.0194 9.19996 13.9996 9.38268 13.9239C9.56541 13.8482 9.72159 13.72 9.83147 13.5556C9.94135 13.3911 10 13.1978 10 13C10 12.7348 9.89464 12.4804 9.70711 12.2929C9.51957 12.1054 9.26522 12 9 12ZM17 4C16.8022 4 16.6089 4.05865 16.4444 4.16853C16.28 4.27841 16.1518 4.43459 16.0761 4.61732C16.0004 4.80004 15.9806 5.00111 16.0192 5.19509C16.0578 5.38907 16.153 5.56725 16.2929 5.70711C16.4327 5.84696 16.6109 5.9422 16.8049 5.98079C16.9989 6.01937 17.2 5.99957 17.3827 5.92388C17.5654 5.84819 17.7216 5.72002 17.8315 5.55557C17.9414 5.39112 18 5.19778 18 5C18 4.73478 17.8946 4.48043 17.7071 4.29289C17.5196 4.10536 17.2652 4 17 4ZM17 8C16.8022 8 16.6089 8.05865 16.4444 8.16853C16.28 8.27841 16.1518 8.43459 16.0761 8.61732C16.0004 8.80004 15.9806 9.00111 16.0192 9.19509C16.0578 9.38907 16.153 9.56725 16.2929 9.70711C16.4327 9.84696 16.6109 9.9422 16.8049 9.98079C16.9989 10.0194 17.2 9.99957 17.3827 9.92388C17.5654 9.84819 17.7216 9.72002 17.8315 9.55557C17.9414 9.39112 18 9.19778 18 9C18 8.73478 17.8946 8.48043 17.7071 8.29289C17.5196 8.10536 17.2652 8 17 8ZM9 8C8.80222 8 8.60888 8.05865 8.44443 8.16853C8.27998 8.27841 8.15181 8.43459 8.07612 8.61732C8.00043 8.80004 7.98063 9.00111 8.01922 9.19509C8.0578 9.38907 8.15304 9.56725 8.29289 9.70711C8.43275 9.84696 8.61093 9.9422 8.80491 9.98079C8.99889 10.0194 9.19996 9.99957 9.38268 9.92388C9.56541 9.84819 9.72159 9.72002 9.83147 9.55557C9.94135 9.39112 10 9.19778 10 9C10 8.73478 9.89464 8.48043 9.70711 8.29289C9.51957 8.10536 9.26522 8 9 8ZM13 8C12.8022 8 12.6089 8.05865 12.4444 8.16853C12.28 8.27841 12.1518 8.43459 12.0761 8.61732C12.0004 8.80004 11.9806 9.00111 12.0192 9.19509C12.0578 9.38907 12.153 9.56725 12.2929 9.70711C12.4327 9.84696 12.6109 9.9422 12.8049 9.98079C12.9989 10.0194 13.2 9.99957 13.3827 9.92388C13.5654 9.84819 13.7216 9.72002 13.8315 9.55557C13.9414 9.39112 14 9.19778 14 9C14 8.73478 13.8946 8.48043 13.7071 8.29289C13.5196 8.10536 13.2652 8 13 8ZM13 16C12.8022 16 12.6089 16.0586 12.4444 16.1685C12.28 16.2784 12.1518 16.4346 12.0761 16.6173C12.0004 16.8 11.9806 17.0011 12.0192 17.1951C12.0578 17.3891 12.153 17.5673 12.2929 17.7071C12.4327 17.847 12.6109 17.9422 12.8049 17.9808C12.9989 18.0194 13.2 17.9996 13.3827 17.9239C13.5654 17.8482 13.7216 17.72 13.8315 17.5556C13.9414 17.3911 14 17.1978 14 17C14 16.7348 13.8946 16.4804 13.7071 16.2929C13.5196 16.1054 13.2652 16 13 16Z" fill="var(--fill-0, #1E1F26)"/>
</svg>
