<svg preserveAspectRatio="none" width="100%" height="100%" overflow="visible" style="display: block;" viewBox="0 0 19.9947 17.9979" fill="none" xmlns="http://www.w3.org/2000/svg">
<path id="Vector" d="M11.5084 11.9944H9.23843L10.6884 9.49442C10.7541 9.38017 10.7966 9.2541 10.8136 9.12342C10.8305 8.99274 10.8215 8.86001 10.7872 8.73279C10.7528 8.60557 10.6937 8.48637 10.6133 8.38198C10.5329 8.2776 10.4327 8.19008 10.3184 8.12442C10.2042 8.05876 10.0781 8.01624 9.94744 7.9993C9.81676 7.98236 9.68402 7.99132 9.55681 8.02568C9.42959 8.06004 9.31039 8.11912 9.206 8.19954C9.10162 8.27997 9.0141 8.38017 8.94843 8.49442L6.63844 12.4944C6.55067 12.6464 6.50446 12.8189 6.50446 12.9944C6.50446 13.17 6.55067 13.3424 6.63844 13.4944C6.72654 13.647 6.8534 13.7736 7.00618 13.8614C7.15896 13.9492 7.33223 13.9951 7.50844 13.9944H9.77844L8.32843 16.4944C8.19583 16.7252 8.16031 16.9991 8.2297 17.256C8.29909 17.513 8.4677 17.7318 8.69843 17.8644C8.92917 17.997 9.20314 18.0325 9.46006 17.9632C9.71699 17.8938 9.93583 17.7252 10.0684 17.4944L12.3784 13.4944C12.4662 13.3424 12.5124 13.17 12.5124 12.9944C12.5124 12.8189 12.4662 12.6464 12.3784 12.4944C12.2903 12.3418 12.1635 12.2152 12.0107 12.1274C11.8579 12.0396 11.6846 11.9937 11.5084 11.9944ZM16.4284 4.20442C15.8167 2.80023 14.7614 1.63542 13.4242 0.888575C12.087 0.141734 10.5417 -0.145911 9.02532 0.069742C7.50893 0.285395 6.10514 0.992442 5.02915 2.08248C3.95317 3.17251 3.2644 4.58537 3.06844 6.10442C2.11502 6.33274 1.27866 6.90325 0.718173 7.70761C0.157689 8.51196 -0.0878807 9.49415 0.0280989 10.4676C0.144078 11.4411 0.61353 12.3381 1.3473 12.9883C2.08107 13.6384 3.02806 13.9965 4.00844 13.9944C4.27365 13.9944 4.52801 13.8891 4.71554 13.7015C4.90308 13.514 5.00844 13.2596 5.00844 12.9944C5.00844 12.7292 4.90308 12.4748 4.71554 12.2873C4.52801 12.0998 4.27365 11.9944 4.00844 11.9944C3.478 11.9944 2.96929 11.7837 2.59422 11.4086C2.21915 11.0336 2.00844 10.5249 2.00844 9.99442C2.00844 9.46399 2.21915 8.95528 2.59422 8.5802C2.96929 8.20513 3.478 7.99442 4.00844 7.99442C4.27365 7.99442 4.52801 7.88906 4.71554 7.70152C4.90308 7.51399 5.00844 7.25963 5.00844 6.99442C5.01099 5.8117 5.43272 4.66817 6.1987 3.767C6.96469 2.86583 8.02533 2.26537 9.19218 2.07229C10.359 1.87921 11.5566 2.10602 12.572 2.71243C13.5874 3.31883 14.355 4.26556 14.7384 5.38442C14.7971 5.55439 14.9005 5.70541 15.0378 5.82156C15.175 5.93771 15.3411 6.0147 15.5184 6.04442C16.2514 6.17967 16.9078 6.58295 17.3598 7.17569C17.8117 7.76842 18.0268 8.50817 17.9631 9.25082C17.8995 9.99346 17.5616 10.6858 17.0154 11.193C16.4692 11.7002 15.7538 11.9859 15.0084 11.9944C14.7432 11.9944 14.4889 12.0998 14.3013 12.2873C14.1138 12.4748 14.0084 12.7292 14.0084 12.9944C14.0084 13.2596 14.1138 13.514 14.3013 13.7015C14.4889 13.8891 14.7432 13.9944 15.0084 13.9944C16.2078 13.9911 17.366 13.5568 18.2718 12.7707C19.1776 11.9846 19.7707 10.8991 19.9429 9.71216C20.115 8.52522 19.8548 7.31594 19.2097 6.30488C18.5645 5.29382 17.5774 4.54834 16.4284 4.20442Z" fill="var(--fill-0, #1E1F26)"/>
</svg>
