<svg preserveAspectRatio="none" width="100%" height="100%" overflow="visible" style="display: block;" viewBox="0 0 22.0058 20.0099" fill="none" xmlns="http://www.w3.org/2000/svg">
<path id="Vector" d="M5 9.00409C4.80222 9.00409 4.60888 9.06274 4.44443 9.17262C4.27998 9.2825 4.15181 9.43868 4.07612 9.62141C4.00043 9.80413 3.98063 10.0052 4.01921 10.1992C4.0578 10.3932 4.15304 10.5713 4.29289 10.7112C4.43275 10.8511 4.61093 10.9463 4.80491 10.9849C4.99889 11.0235 5.19996 11.0037 5.38268 10.928C5.56541 10.8523 5.72159 10.7241 5.83147 10.5597C5.94135 10.3952 6 10.2019 6 10.0041C6 9.73887 5.89464 9.48452 5.70711 9.29698C5.51957 9.10945 5.26522 9.00409 5 9.00409ZM10.86 7.45409L3.71 0.294092C3.61676 0.200853 3.50607 0.126892 3.38425 0.0764319C3.26243 0.0259715 3.13186 0 3 0C2.86814 0 2.73757 0.0259715 2.61575 0.0764319C2.49393 0.126892 2.38324 0.200853 2.29 0.294092C2.1017 0.482395 1.99591 0.73779 1.99591 1.00409C1.99591 1.27039 2.1017 1.52579 2.29 1.71409L3.59 3.00409H3C2.20435 3.00409 1.44129 3.32016 0.87868 3.88277C0.31607 4.44538 0 5.20844 0 6.00409V14.0041C0 14.7997 0.31607 15.5628 0.87868 16.1254C1.44129 16.688 2.20435 17.0041 3 17.0041H17.59L20.29 19.7141C20.383 19.8078 20.4936 19.8822 20.6154 19.933C20.7373 19.9838 20.868 20.0099 21 20.0099C21.132 20.0099 21.2627 19.9838 21.3846 19.933C21.5064 19.8822 21.617 19.8078 21.71 19.7141C21.8037 19.6211 21.8781 19.5105 21.9289 19.3887C21.9797 19.2668 22.0058 19.1361 22.0058 19.0041C22.0058 18.8721 21.9797 18.7414 21.9289 18.6195C21.8781 18.4977 21.8037 18.3871 21.71 18.2941L10.86 7.45409ZM10.12 9.54409L11.46 10.8841C11.3185 10.9605 11.1608 11.0016 11 11.0041C10.7348 11.0041 10.4804 10.8987 10.2929 10.7112C10.1054 10.5237 10 10.2693 10 10.0041C10.0024 9.84334 10.0436 9.68555 10.12 9.54409ZM3 15.0041C2.73478 15.0041 2.48043 14.8987 2.29289 14.7112C2.10536 14.5237 2 14.2693 2 14.0041V6.00409C2 5.73888 2.10536 5.48452 2.29289 5.29699C2.48043 5.10945 2.73478 5.00409 3 5.00409H5.59L8.69 8.10409C8.24713 8.63853 8.00328 9.31001 8 10.0041C8 10.7997 8.31607 11.5628 8.87868 12.1254C9.44129 12.688 10.2044 13.0041 11 13.0041C11.6941 13.0008 12.3656 12.757 12.9 12.3141L15.59 15.0041H3ZM19 3.00409H11.66C11.3948 3.00409 11.1404 3.10945 10.9529 3.29699C10.7654 3.48452 10.66 3.73888 10.66 4.00409C10.66 4.26931 10.7654 4.52366 10.9529 4.7112C11.1404 4.89873 11.3948 5.00409 11.66 5.00409H19C19.2652 5.00409 19.5196 5.10945 19.7071 5.29699C19.8946 5.48452 20 5.73888 20 6.00409V13.3441C20 13.6093 20.1054 13.8637 20.2929 14.0512C20.4804 14.2387 20.7348 14.3441 21 14.3441C21.2652 14.3441 21.5196 14.2387 21.7071 14.0512C21.8946 13.8637 22 13.6093 22 13.3441V6.00409C22 5.20844 21.6839 4.44538 21.1213 3.88277C20.5587 3.32016 19.7956 3.00409 19 3.00409ZM18 10.0041C18 9.80631 17.9414 9.61297 17.8315 9.44852C17.7216 9.28407 17.5654 9.1559 17.3827 9.08021C17.2 9.00452 16.9989 8.98472 16.8049 9.02331C16.6109 9.06189 16.4327 9.15713 16.2929 9.29698C16.153 9.43684 16.0578 9.61502 16.0192 9.809C15.9806 10.003 16.0004 10.204 16.0761 10.3868C16.1518 10.5695 16.28 10.7257 16.4444 10.8356C16.6089 10.9454 16.8022 11.0041 17 11.0041C17.2652 11.0041 17.5196 10.8987 17.7071 10.7112C17.8946 10.5237 18 10.2693 18 10.0041Z" fill="var(--fill-0, #1E1F26)"/>
</svg>
