<svg preserveAspectRatio="none" width="100%" height="100%" overflow="visible" style="display: block;" viewBox="0 0 20 18.9772" fill="none" xmlns="http://www.w3.org/2000/svg">
<path id="Vector" d="M11.64 6.45723L11.35 8.18723C11.3019 8.47766 11.3374 8.77578 11.4525 9.04674C11.5677 9.31769 11.7575 9.55025 12 9.71723C12.2268 9.88251 12.4965 9.97891 12.7767 9.99487C13.057 10.0108 13.3359 9.94569 13.58 9.80723L15 8.99723L16.44 9.78723C16.68 9.92444 16.954 9.99071 17.2301 9.97832C17.5063 9.96593 17.7733 9.87539 18 9.71723C18.2354 9.54934 18.4191 9.31896 18.5305 9.05213C18.6418 8.78529 18.6763 8.49263 18.63 8.20723L18.34 6.47723L19.54 5.25723C19.738 5.05595 19.8769 4.80411 19.9415 4.52923C20.006 4.25435 19.9937 3.96701 19.906 3.69863C19.8183 3.43025 19.6584 3.19116 19.444 3.00749C19.2295 2.82382 18.9687 2.70265 18.69 2.65723L17.07 2.41723L16.34 0.867229C16.2195 0.608149 16.0274 0.388891 15.7865 0.235255C15.5456 0.0816201 15.2657 0 14.98 0C14.6943 0 14.4144 0.0816201 14.1735 0.235255C13.9326 0.388891 13.7405 0.608149 13.62 0.867229L12.89 2.41723L11.27 2.65723C10.9913 2.70265 10.7305 2.82382 10.516 3.00749C10.3016 3.19116 10.1417 3.43025 10.054 3.69863C9.96625 3.96701 9.95399 4.25435 10.0185 4.52923C10.0831 4.80411 10.222 5.05595 10.42 5.25723L11.64 6.45723ZM13.47 4.32723C13.7152 4.29006 13.9475 4.19307 14.1463 4.04482C14.3451 3.89657 14.5044 3.70163 14.61 3.47723L15 2.64723L15.39 3.47723C15.4972 3.70147 15.6567 3.89666 15.8551 4.04633C16.0535 4.196 16.285 4.29577 16.53 4.33723L17.53 4.47723L16.8 5.21723C16.6308 5.39265 16.5047 5.60507 16.4318 5.83765C16.3589 6.07024 16.3412 6.3166 16.38 6.55723L16.54 7.55723L15.75 7.12723C15.5298 7.00463 15.282 6.94029 15.03 6.94029C14.778 6.94029 14.5302 7.00463 14.31 7.12723L13.52 7.55723L13.68 6.55723C13.7196 6.31813 13.7022 6.07306 13.6292 5.84196C13.5562 5.61085 13.4297 5.40023 13.26 5.22723L12.53 4.47723L13.47 4.32723ZM19 11.9772C18.7348 11.9772 18.4804 12.0826 18.2929 12.2701C18.1054 12.4577 18 12.712 18 12.9772V15.9772C18 16.2424 17.8946 16.4968 17.7071 16.6843C17.5196 16.8719 17.2652 16.9772 17 16.9772H3C2.73478 16.9772 2.48043 16.8719 2.29289 16.6843C2.10536 16.4968 2 16.2424 2 15.9772V6.38723L7.88 12.2672C8.15394 12.5462 8.48077 12.7677 8.84135 12.9188C9.20194 13.0699 9.58904 13.1475 9.98 13.1472H10.25C10.5137 13.1243 10.7577 12.9978 10.9282 12.7953C11.0988 12.5929 11.1822 12.331 11.16 12.0672C11.1487 11.9357 11.1115 11.8077 11.0505 11.6907C10.9895 11.5736 10.9059 11.4698 10.8045 11.3852C10.7032 11.3006 10.5861 11.2369 10.4601 11.1978C10.334 11.1586 10.2014 11.1449 10.07 11.1572C9.92884 11.1717 9.78624 11.154 9.65289 11.1055C9.51953 11.057 9.39889 10.979 9.3 10.8772L3.41 4.97723H7C7.26522 4.97723 7.51957 4.87187 7.70711 4.68434C7.89464 4.4968 8 4.24245 8 3.97723C8 3.71201 7.89464 3.45766 7.70711 3.27012C7.51957 3.08259 7.26522 2.97723 7 2.97723H3C2.20435 2.97723 1.44129 3.2933 0.87868 3.85591C0.316071 4.41852 0 5.18158 0 5.97723V15.9772C0 16.7729 0.316071 17.5359 0.87868 18.0985C1.44129 18.6612 2.20435 18.9772 3 18.9772H17C17.7956 18.9772 18.5587 18.6612 19.1213 18.0985C19.6839 17.5359 20 16.7729 20 15.9772V12.9772C20 12.712 19.8946 12.4577 19.7071 12.2701C19.5196 12.0826 19.2652 11.9772 19 11.9772V11.9772Z" fill="var(--fill-0, #1E1F26)"/>
</svg>
