<svg preserveAspectRatio="none" width="100%" height="100%" overflow="visible" style="display: block;" viewBox="0 0 19.958 19.9664" fill="none" xmlns="http://www.w3.org/2000/svg">
<path id="Vector" d="M9.96827 0C8.296 0.00171061 6.65086 0.422765 5.18339 1.22463C3.71591 2.0265 2.47296 3.18359 1.56827 4.59V4.59C0.295831 6.58555 -0.227589 8.96773 0.0910898 11.3129C0.409769 13.658 1.54989 15.8142 3.30869 17.3978C5.0675 18.9815 7.33098 19.89 9.6966 19.9618C12.0622 20.0336 14.3766 19.264 16.2283 17.79V17.79C17.8398 16.4929 19.0094 14.7278 19.5759 12.7382C20.1423 10.7485 20.0777 8.63211 19.3911 6.68067C18.7044 4.72923 17.4294 3.03878 15.7418 1.84228C14.0542 0.645776 12.037 0.00211688 9.96827 0V0ZM11.9683 2.26C13.3501 2.61769 14.6111 3.33858 15.6204 4.34789C16.6297 5.3572 17.3506 6.61817 17.7083 8C16.0363 8.04709 14.4043 8.52223 12.9683 9.38C12.2472 8.56199 11.4428 7.82132 10.5683 7.17C11.4494 5.68096 11.9316 3.98983 11.9683 2.26V2.26ZM9.96827 2C9.96498 3.43503 9.57087 4.84205 8.82827 6.07C8.67827 5.99 8.53827 5.9 8.38827 5.83C7.10063 5.15059 5.7238 4.65574 4.29827 4.36C5.04131 3.61252 5.92473 3.01923 6.89778 2.61423C7.87082 2.20922 8.9143 2.00048 9.96827 2V2ZM2.96827 6.16C4.53668 6.37788 6.05568 6.86504 7.45827 7.6L7.58827 7.68C6.85018 8.4174 5.97383 9.0019 5.00944 9.40001C4.04506 9.79812 3.01159 10.002 1.96827 10C1.97383 8.65633 2.31774 7.33571 2.96827 6.16V6.16ZM7.96827 17.74C6.58643 17.3823 5.32546 16.6614 4.31615 15.6521C3.30684 14.6428 2.58596 13.3818 2.22827 12C3.56392 11.9703 4.87975 11.6707 6.09652 11.119C7.31328 10.5673 8.4058 9.77509 9.30827 8.79C10.0312 9.32439 10.7009 9.92718 11.3083 10.59C10.2956 11.4929 9.47732 12.5924 8.90313 13.8216C8.32893 15.0508 8.01086 16.384 7.96827 17.74V17.74ZM9.96827 18C9.97042 16.9014 10.1988 15.815 10.6393 14.8085C11.0797 13.802 11.7227 12.8971 12.5283 12.15C12.5883 12.23 12.6483 12.3 12.6983 12.38C13.5363 13.6632 14.1579 15.0753 14.5383 16.56C13.1999 17.4997 11.6036 18.0027 9.96827 18ZM16.1783 15C15.744 13.677 15.1389 12.4163 14.3783 11.25L14.1683 11C15.331 10.3532 16.6378 10.0093 17.9683 10C17.9583 11.8219 17.3269 13.5858 16.1783 15Z" fill="var(--fill-0, #1E1F26)"/>
</svg>
