<svg preserveAspectRatio="none" width="100%" height="100%" overflow="visible" style="display: block;" viewBox="0 0 20 20" fill="none" xmlns="http://www.w3.org/2000/svg">
<path id="Vector" d="M9 9.72V13C9 13.2652 9.10536 13.5196 9.29289 13.7071C9.48043 13.8946 9.73478 14 10 14C10.2652 14 10.5196 13.8946 10.7071 13.7071C10.8946 13.5196 11 13.2652 11 13V9.72C11.3023 9.54549 11.5536 9.29491 11.7291 8.99317C11.9045 8.69143 11.9979 8.34903 12 8C12 7.46957 11.7893 6.96086 11.4142 6.58579C11.0391 6.21071 10.5304 6 10 6C9.46957 6 8.96086 6.21071 8.58579 6.58579C8.21071 6.96086 8 7.46957 8 8C8.00211 8.34903 8.09552 8.69143 8.27095 8.99317C8.44638 9.29491 8.69772 9.54549 9 9.72V9.72ZM19 0H1C0.734784 0 0.48043 0.105357 0.292893 0.292893C0.105357 0.48043 0 0.734784 0 1V19C0 19.2652 0.105357 19.5196 0.292893 19.7071C0.48043 19.8946 0.734784 20 1 20H19C19.2652 20 19.5196 19.8946 19.7071 19.7071C19.8946 19.5196 20 19.2652 20 19V1C20 0.734784 19.8946 0.48043 19.7071 0.292893C19.5196 0.105357 19.2652 0 19 0V0ZM18 18H2V2H18V18Z" fill="var(--fill-0, #1E1F26)"/>
</svg>
