<svg preserveAspectRatio="none" width="100%" height="100%" overflow="visible" style="display: block;" viewBox="0 0 11 15.9823" fill="none" xmlns="http://www.w3.org/2000/svg">
<path id="Vector" d="M10.43 0.0822097C10.2676 0.0119517 10.0895 -0.0139583 9.91379 0.00712359C9.73811 0.0282055 9.57116 0.0955244 9.43 0.20221L4.65 3.98221H1C0.734784 3.98221 0.48043 4.08757 0.292893 4.2751C0.105357 4.46264 0 4.71699 0 4.98221V10.9822C0 11.2474 0.105357 11.5018 0.292893 11.6893C0.48043 11.8769 0.734784 11.9822 1 11.9822H4.65L9.38 15.7622C9.55594 15.9034 9.77444 15.9809 10 15.9822C10.1494 15.9847 10.297 15.9503 10.43 15.8822C10.6002 15.8012 10.744 15.6737 10.8448 15.5144C10.9457 15.3552 10.9995 15.1707 11 14.9822V0.98221C10.9995 0.793724 10.9457 0.609226 10.8448 0.449988C10.744 0.290751 10.6002 0.163258 10.43 0.0822097V0.0822097ZM9 12.9022L5.62 10.2022C5.44406 10.061 5.22556 9.98352 5 9.98221H2V5.98221H5C5.22556 5.9809 5.44406 5.90337 5.62 5.76221L9 3.06221V12.9022Z" fill="var(--fill-0, #1E1F26)"/>
</svg>
