<svg preserveAspectRatio="none" width="100%" height="100%" overflow="visible" style="display: block;" viewBox="0 0 20.0207 20.0378" fill="none" xmlns="http://www.w3.org/2000/svg">
<path id="Vector" d="M7.2111 14.3159C7.116 14.2248 7.00386 14.1535 6.8811 14.1059C6.69899 14.0293 6.49828 14.0084 6.30429 14.0457C6.1103 14.0831 5.93173 14.1771 5.7911 14.3159C5.70277 14.4131 5.63175 14.5247 5.5811 14.6459C5.52512 14.7646 5.49772 14.8947 5.5011 15.0259C5.50192 15.1897 5.54295 15.3507 5.6206 15.4949C5.69824 15.6392 5.81011 15.7621 5.94639 15.8529C6.08267 15.9438 6.23918 15.9998 6.40216 16.016C6.56514 16.0322 6.72961 16.0081 6.8811 15.9459C7.00229 15.8952 7.1139 15.8242 7.2111 15.7359C7.34986 15.5952 7.44386 15.4167 7.48123 15.2227C7.51861 15.0287 7.49768 14.828 7.4211 14.6459C7.37046 14.5247 7.29944 14.4131 7.2111 14.3159V14.3159ZM7.2111 18.3159C7.1139 18.2275 7.00229 18.1565 6.8811 18.1059C6.69899 18.0293 6.49828 18.0084 6.30429 18.0457C6.1103 18.0831 5.93173 18.1771 5.7911 18.3159C5.70277 18.4131 5.63175 18.5247 5.5811 18.6459C5.51632 18.7979 5.49025 18.9637 5.50521 19.1283C5.52018 19.2929 5.57572 19.4513 5.66686 19.5892C5.75801 19.7271 5.88192 19.8402 6.0275 19.9185C6.17308 19.9968 6.33581 20.0378 6.5011 20.0378C6.6664 20.0378 6.82912 19.9968 6.97471 19.9185C7.12029 19.8402 7.2442 19.7271 7.33535 19.5892C7.42649 19.4513 7.48203 19.2929 7.497 19.1283C7.51196 18.9637 7.48589 18.7979 7.4211 18.6459C7.37046 18.5247 7.29944 18.4131 7.2111 18.3159ZM11.0611 12.1959L10.8811 12.1059L10.7011 12.0259C10.5061 11.9878 10.3042 12.0087 10.1211 12.0859C9.99746 12.1317 9.88497 12.2033 9.7911 12.2959C9.69842 12.3893 9.6251 12.5001 9.57533 12.622C9.52557 12.7438 9.50034 12.8743 9.5011 13.0059C9.50034 13.1375 9.52557 13.2679 9.57533 13.3898C9.6251 13.5116 9.69842 13.6224 9.7911 13.7159C9.88831 13.8042 9.99992 13.8752 10.1211 13.9259C10.2408 13.9788 10.3702 14.0061 10.5011 14.0061C10.632 14.0061 10.7614 13.9788 10.8811 13.9259C11.0023 13.8752 11.1139 13.8042 11.2111 13.7159C11.3934 13.5321 11.4974 13.2847 11.5011 13.0259C11.4974 12.7611 11.3938 12.5075 11.2111 12.3159L11.0611 12.1959ZM11.2111 16.3159C11.0705 16.1771 10.8919 16.0831 10.6979 16.0457C10.5039 16.0084 10.3032 16.0293 10.1211 16.1059C9.99701 16.1508 9.88431 16.2224 9.79099 16.3158C9.69767 16.4091 9.62602 16.5218 9.5811 16.6459C9.50452 16.828 9.4836 17.0287 9.52098 17.2227C9.55835 17.4167 9.65235 17.5952 9.7911 17.7359C9.88831 17.8242 9.99992 17.8952 10.1211 17.9459C10.2408 17.9988 10.3702 18.0261 10.5011 18.0261C10.632 18.0261 10.7614 17.9988 10.8811 17.9459C11.0023 17.8952 11.1139 17.8242 11.2111 17.7359C11.3499 17.5952 11.4439 17.4167 11.4812 17.2227C11.5186 17.0287 11.4977 16.828 11.4211 16.6459C11.3705 16.5247 11.2994 16.4131 11.2111 16.3159ZM19.7011 5.09587C19.5796 4.9759 19.4295 4.88902 19.2649 4.84351C19.1004 4.79799 18.927 4.79537 18.7611 4.83587C18.548 4.88618 18.33 4.913 18.1111 4.91587C17.3155 4.91587 16.5524 4.5998 15.9898 4.03719C15.4272 3.47458 15.1111 2.71152 15.1111 1.91587C15.114 1.69693 15.1408 1.47897 15.1911 1.26587C15.2372 1.09882 15.239 0.922663 15.1965 0.754671C15.154 0.586679 15.0686 0.432617 14.9486 0.307589C14.8286 0.182562 14.6782 0.0908592 14.5121 0.0414723C14.346 -0.00791459 14.1699 -0.0132909 14.0011 0.0258707C13.0058 0.245609 12.1031 0.768428 11.4172 1.52237C10.7313 2.27631 10.296 3.2243 10.1711 4.23587C9.62648 4.09077 9.0647 4.02013 8.5011 4.02587C7.05996 4.02505 5.66667 4.54297 4.57598 5.48493C3.48528 6.42689 2.77007 7.72996 2.5611 9.15587C1.86474 9.34978 1.2455 9.75455 0.788439 10.3146C0.331382 10.8746 0.0589349 11.5624 0.00852367 12.2835C-0.0418876 13.0046 0.13221 13.7236 0.5069 14.3418C0.881591 14.96 1.43849 15.447 2.1011 15.7359C2.22854 15.7864 2.36405 15.8135 2.5011 15.8159C2.7323 15.8178 2.95701 15.7395 3.13698 15.5943C3.31696 15.4492 3.44109 15.2462 3.48824 15.0199C3.5354 14.7935 3.50267 14.5578 3.39562 14.3529C3.28857 14.148 3.11382 13.9865 2.9011 13.8959C2.6328 13.7816 2.40424 13.5906 2.24412 13.3468C2.084 13.1031 1.99945 12.8175 2.0011 12.5259C2.0011 12.128 2.15914 11.7465 2.44044 11.4652C2.72175 11.1839 3.10328 11.0259 3.5011 11.0259C3.76632 11.0259 4.02067 10.9205 4.20821 10.733C4.39575 10.5454 4.5011 10.2911 4.5011 10.0259C4.5011 8.965 4.92253 7.94759 5.67268 7.19744C6.42282 6.4473 7.44024 6.02587 8.5011 6.02587C9.27927 6.03144 10.0394 6.26054 10.6911 6.68587V6.68587C11.4218 7.16242 11.9766 7.86475 12.2711 8.68587C12.3283 8.85771 12.431 9.0108 12.5684 9.1288C12.7058 9.2468 12.8726 9.32529 13.0511 9.35587C13.5301 9.4113 13.98 9.61462 14.3381 9.93756C14.6962 10.2605 14.9448 10.687 15.0493 11.1578C15.1538 11.6285 15.109 12.1202 14.9211 12.5643C14.7333 13.0084 14.4117 13.383 14.0011 13.6359C13.8908 13.7081 13.7958 13.8013 13.7215 13.9103C13.6472 14.0192 13.5952 14.1417 13.5682 14.2708C13.5413 14.3999 13.5401 14.533 13.5646 14.6626C13.5891 14.7921 13.6389 14.9156 13.7111 15.0259C13.7833 15.1362 13.8766 15.2312 13.9855 15.3055C14.0945 15.3797 14.217 15.4318 14.346 15.4587C14.4751 15.4857 14.6082 15.4869 14.7378 15.4624C14.8673 15.4379 14.9908 15.3881 15.1011 15.3159C15.6908 14.915 16.1727 14.375 16.5041 13.7436C16.8354 13.1122 17.0062 12.4089 17.0011 11.6959C17.005 10.999 16.8367 10.312 16.5111 9.69587C17.3699 9.45605 18.1477 8.98826 18.7622 8.34213C19.3766 7.696 19.8047 6.89562 20.0011 6.02587C20.0348 5.85814 20.025 5.68456 19.9724 5.52173C19.9199 5.3589 19.8265 5.21228 19.7011 5.09587V5.09587ZM15.1111 7.91587C14.9713 7.9267 14.8309 7.9267 14.6911 7.91587C14.4713 7.78003 14.2405 7.66295 14.0011 7.56587C13.5892 6.669 12.9644 5.88633 12.1811 5.28587C12.1811 5.16587 12.1811 5.03587 12.1811 4.91587C12.1811 4.48255 12.2749 4.05436 12.4562 3.66077C12.6374 3.26718 12.9018 2.91753 13.2311 2.63587C13.3859 3.70273 13.8814 4.69096 14.6437 5.45325C15.406 6.21553 16.3942 6.71103 17.4611 6.86587C17.1718 7.20429 16.8109 7.47409 16.4044 7.6557C15.998 7.83731 15.5562 7.92619 15.1111 7.91587Z" fill="var(--fill-0, #1E1F26)"/>
</svg>
