<svg preserveAspectRatio="none" width="100%" height="100%" overflow="visible" style="display: block;" viewBox="0 0 21.7994 21.8502" fill="none" xmlns="http://www.w3.org/2000/svg">
<g id="Vector">
<path fill-rule="evenodd" clip-rule="evenodd" d="M4.41872 0.256282C4.76043 0.59799 4.76043 1.15201 4.41872 1.49372C0.860427 5.05201 0.860427 10.898 4.41872 14.4563C4.76043 14.798 4.76043 15.352 4.41872 15.6937C4.07701 16.0354 3.52299 16.0354 3.18128 15.6937C-1.06043 11.452 -1.06043 4.49799 3.18128 0.256282C3.52299 -0.0854272 4.07701 -0.0854272 4.41872 0.256282Z" fill="var(--fill-0, black)"/>
<path fill-rule="evenodd" clip-rule="evenodd" d="M7.30764 3.0454C7.65536 3.38099 7.66519 3.93492 7.3296 4.28264C6.5161 5.12554 6.00693 6.21566 5.88268 7.38049C5.75844 8.54531 6.0262 9.71831 6.64361 10.7138C6.8983 11.1245 6.77185 11.6639 6.36117 11.9186C5.95049 12.1733 5.41109 12.0468 5.15639 11.6362C4.33378 10.3097 3.97701 8.74687 4.14256 7.19487C4.3081 5.64288 4.98651 4.19042 6.0704 3.06736C6.40599 2.71964 6.95993 2.70981 7.30764 3.0454Z" fill="var(--fill-0, black)"/>
<path fill-rule="evenodd" clip-rule="evenodd" d="M10.9 6.85C10.2787 6.85 9.775 7.35368 9.775 7.975C9.775 8.59632 10.2787 9.1 10.9 9.1C11.5213 9.1 12.025 8.59632 12.025 7.975C12.025 7.35368 11.5213 6.85 10.9 6.85ZM8.025 7.975C8.025 6.38718 9.31218 5.1 10.9 5.1C12.4878 5.1 13.775 6.38718 13.775 7.975C13.775 9.56282 12.4878 10.85 10.9 10.85C9.31218 10.85 8.025 9.56282 8.025 7.975Z" fill="var(--fill-0, black)"/>
<path fill-rule="evenodd" clip-rule="evenodd" d="M14.4813 3.15628C14.823 2.81457 15.377 2.81457 15.7187 3.15628C18.0223 5.45983 18.3052 9.02036 16.6441 11.7053C16.3899 12.1163 15.8506 12.2434 15.4397 11.9891C15.0287 11.7349 14.9016 11.1956 15.1559 10.7847C16.4148 8.74965 16.1777 6.09017 14.4813 4.39372C14.1396 4.05201 14.1396 3.49799 14.4813 3.15628Z" fill="var(--fill-0, black)"/>
<path fill-rule="evenodd" clip-rule="evenodd" d="M17.3806 0.256916C17.722 -0.0851427 18.276 -0.0857107 18.6181 0.255648C19.6266 1.26206 20.4266 2.45748 20.9725 3.77349C21.5184 5.0895 21.7994 6.50026 21.7994 7.925C21.7994 9.34974 21.5184 10.7605 20.9725 12.0765C20.4266 13.3925 19.6266 14.5879 18.6181 15.5944C18.276 15.9357 17.722 15.9351 17.3806 15.5931C17.0393 15.251 17.0399 14.697 17.3819 14.3556C18.2275 13.5118 18.8984 12.5094 19.3561 11.406C19.8138 10.3025 20.0494 9.11963 20.0494 7.925C20.0494 6.73037 19.8138 5.54748 19.3561 4.44402C18.8984 3.34056 18.2275 2.33821 17.3819 1.49435C17.0399 1.15299 17.0393 0.598975 17.3806 0.256916Z" fill="var(--fill-0, black)"/>
<path fill-rule="evenodd" clip-rule="evenodd" d="M7.525 16.975C7.525 16.4918 7.91675 16.1 8.4 16.1H13.4C13.8832 16.1 14.275 16.4918 14.275 16.975C14.275 17.4582 13.8832 17.85 13.4 17.85H8.4C7.91675 17.85 7.525 17.4582 7.525 16.975Z" fill="var(--fill-0, black)"/>
<path fill-rule="evenodd" clip-rule="evenodd" d="M10.9 9.1C11.2679 9.1 11.5966 9.33018 11.7223 9.67597L15.7223 20.676C15.8875 21.1301 15.6532 21.6322 15.199 21.7973C14.7449 21.9625 14.2428 21.7282 14.0777 21.274L10.9 12.5354L7.72232 21.274C7.55717 21.7282 7.05513 21.9625 6.60098 21.7973C6.14682 21.6322 5.91253 21.1301 6.07768 20.676L10.0777 9.67597C10.2034 9.33018 10.5321 9.1 10.9 9.1Z" fill="var(--fill-0, black)"/>
</g>
</svg>
