<svg preserveAspectRatio="none" width="100%" height="100%" overflow="visible" style="display: block;" viewBox="0 0 22.945 25.2038" fill="none" xmlns="http://www.w3.org/2000/svg">
<g id="Illustration">
<path id="Vector" d="M13.8082 12.6555C13.8082 12.6555 13.1766 13.5601 12.1681 14.4922C11.3296 15.2666 10.7187 15.5214 10.7711 15.6887L10.6362 15.5971C10.4742 15.3471 9.0017 13.0716 8.9517 13.038C9.03632 12.2547 9.01733 10.6587 9.01733 10.6587C8.16123 10.9611 7.27268 11.0349 6.61084 10.5062C4.3195 8.67624 7.20561 4.01496 8.05377 2.75233C8.05978 2.77276 8.35236 3.75147 8.72884 3.93971C9.10892 4.12963 9.76572 4.06063 10.1285 4.31979C10.4915 4.57896 10.5432 5.28744 10.7853 5.49491C11.0271 5.70239 12.0123 5.87524 12.1333 6.18609C12.2542 6.49718 12.0294 7.08474 12.3578 7.36145C12.6862 7.63792 13.0663 7.44775 13.2391 7.89708C13.412 8.3464 12.8605 8.95992 13.206 9.34001C13.5517 9.7201 13.8029 9.84703 13.7685 10.4283C13.7339 11.0099 13.2216 11.6523 13.5327 12.1881C13.6204 12.3394 13.7152 12.4956 13.8082 12.6555Z" fill="var(--fill-0, #CC927A)" stroke="var(--stroke-0, black)" stroke-width="0.213696" stroke-linecap="round" stroke-linejoin="round"/>
<path id="Vector_2" d="M22.8379 16.0825C22.8194 16.2683 20.1987 20.7104 20.0314 20.8404C19.9545 20.9003 18.0906 21.7987 16.088 22.7548C15.3985 23.0839 14.6926 23.42 14.0375 23.7311C15.3564 21.7487 16.9801 19.1576 16.9801 18.9708C16.9801 18.6645 15.5559 18.1589 15.51 17.9906C15.4639 17.8221 17.1179 16.8573 17.072 16.6124C17.0595 16.5463 16.9207 16.259 16.7032 15.8798C16.5553 15.6214 16.3707 15.3207 16.1651 15.0177C16.5443 15.0375 17.0085 15.3283 17.4727 15.3283C17.5446 15.3283 17.6261 15.325 17.7131 15.3197C18.1899 15.2911 18.8327 15.2033 18.9933 15.2764C19.1835 15.363 19.8229 16.0715 20.3069 15.8123C20.7906 15.5529 21.0671 15.363 21.119 15.1901C21.1288 15.1569 21.1224 15.0853 21.1063 14.9882C21.3577 15.0526 21.508 15.0923 21.5183 15.0976C21.5467 15.1117 21.7496 15.2322 21.9878 15.3858C22.3722 15.6334 22.8495 15.9678 22.8379 16.0825Z" fill="var(--fill-0, #F5D256)" stroke="var(--stroke-0, black)" stroke-width="0.213696" stroke-linecap="round" stroke-linejoin="round"/>
<path id="Vector_3" d="M16.9801 18.9697C16.9801 19.1168 15.9723 20.7562 14.8998 22.4145C14.6108 22.8612 14.3173 23.3093 14.0375 23.73C13.5956 23.9399 13.1765 24.1382 12.8018 24.3152C12.3142 24.5457 11.9007 24.7405 11.6067 24.8777C11.4634 24.6207 11.3598 24.4214 11.3598 24.4214C11.3598 24.4214 13.2085 18.9014 13.9752 16.0083C14.1627 15.3003 14.2856 14.7496 14.3005 14.4757C14.3103 14.2942 14.3158 14.1406 14.3175 14.0108C14.3303 13.9726 14.3394 13.9389 14.3447 13.91C14.4483 14.4976 14.1718 15.1717 14.6385 15.4309C14.9491 15.6032 15.3513 15.3549 15.6977 15.1746C15.872 15.084 16.0321 15.0104 16.1593 15.0162C16.1612 15.0162 16.1631 15.0164 16.1651 15.0166C16.3706 15.3196 16.5553 15.6203 16.7031 15.8788C16.9207 16.2579 17.0594 16.5452 17.0719 16.6113C17.1178 16.8563 15.4638 17.821 15.51 17.9895C15.5179 18.0181 15.565 18.0561 15.6383 18.1013C15.9975 18.3235 16.9801 18.7153 16.9801 18.9697Z" fill="var(--fill-0, #F5D256)" stroke="var(--stroke-0, black)" stroke-width="0.213696" stroke-linecap="round" stroke-linejoin="round"/>
<path id="Vector_4" d="M8.83732 3.57721C8.86569 4.01451 9.08494 4.43595 9.4268 4.71001C9.65254 4.89104 9.92372 5.00716 10.1584 5.17689C10.524 5.44134 10.7918 5.83777 10.901 6.27556C10.9373 6.42173 10.9592 6.57751 11.0481 6.69916C11.1993 6.90567 11.4941 6.94822 11.6814 7.12276C12.0903 7.50332 11.7915 8.2558 12.1319 8.69888C12.2187 8.81187 12.341 8.89433 12.4221 9.01165C12.5622 9.21504 12.5538 9.48213 12.5427 9.72879C12.4766 11.2006 12.5504 12.7873 13.4354 13.9653C13.5847 14.1638 13.7931 14.3631 14.0407 14.3415C14.3232 14.3167 14.4944 14.0247 14.6021 13.7624C14.9814 12.8385 15.173 11.8478 15.2875 10.8556C15.3858 10.0038 15.4274 9.13089 15.225 8.29764C15.0336 7.51006 14.6331 6.79244 14.2665 6.06977C13.9571 5.45985 13.6549 4.82012 13.1365 4.37392C12.6901 3.98975 12.122 3.78324 11.5676 3.58466C11.1585 3.43801 10.7495 3.2916 10.3404 3.14495C9.87564 2.97859 9.31309 2.82569 8.92651 3.13221" fill="var(--fill-0, #BA735A)"/>
<path id="Vector_5" d="M5.22968 5.43874C5.04529 6.29604 4.89984 7.16728 4.90633 8.04429C4.91282 8.9213 5.0775 9.80865 5.48427 10.5857C5.67852 10.9566 6.01101 11.3408 6.4274 11.2946C6.78032 11.2557 7.02938 10.9037 7.08323 10.553C7.13684 10.202 7.04405 9.8476 6.97409 9.49973C6.89163 9.08959 6.84042 8.672 6.84643 8.25393C6.86999 6.58958 7.77513 5.08871 8.4764 3.57894C8.6043 3.30343 8.72787 3.01855 8.75119 2.71587C8.75768 2.63317 8.75407 2.54302 8.70263 2.47787C8.64925 2.41031 8.55766 2.38675 8.47183 2.37834C8.19753 2.35069 7.92322 2.43267 7.67079 2.5435C6.99813 2.83896 6.43124 3.34262 5.98264 3.92441C5.53428 4.50644 5.19747 5.16636 4.90128 5.83878" fill="var(--fill-0, #FFC7B3)"/>
<path id="Vector_6" d="M10.64 11.2467C10.2383 11.7419 9.66492 12.0956 9.04179 12.2319C9.03938 11.7816 9.04203 11.3311 9.04996 10.8808C9.05116 10.8084 9.05381 10.7322 9.09107 10.6702C9.13266 10.6014 9.20911 10.563 9.28171 10.5288C9.5928 10.3824 9.90822 10.2454 10.2157 10.0913C10.3739 10.012 10.5302 9.92854 10.6816 9.83695C10.7888 9.77204 11.0122 9.54365 11.1278 9.53115C11.4093 9.50061 11.1812 10.1901 11.1324 10.3387C11.0247 10.6676 10.8581 10.9774 10.64 11.2462V11.2467Z" fill="var(--fill-0, #B27059)"/>
<path id="Vector_7" d="M14.3173 14.0125C14.3164 14.0769 14.3147 14.1471 14.3118 14.2236C14.3092 14.3015 14.3053 14.3859 14.3003 14.4775C14.2238 15.8711 11.3596 24.4232 11.3596 24.4232H11.0403C11.0403 24.4232 8.21457 16.3664 7.99027 14.6445C7.98378 14.5962 7.97969 14.553 7.97752 14.515C7.95541 14.112 7.96647 13.844 7.99363 13.6666C8.02969 13.6598 8.06479 13.6531 8.09893 13.6464C8.08691 13.7286 8.21192 14.1507 8.39512 14.6895C8.79371 15.8627 9.46806 17.5893 9.60245 17.5686C9.64981 17.5614 9.75078 17.4669 9.87291 17.3222C10.2549 16.8683 10.8432 15.9182 10.6355 15.598L10.7704 15.6896C10.7704 15.6896 11.349 17.61 11.7183 17.6348C12.0005 17.6535 13.3177 15.8516 13.9748 14.708C14.0438 14.5881 14.1053 14.4753 14.1577 14.3726C14.2303 14.2308 14.2851 14.1082 14.3173 14.0125Z" fill="var(--fill-0, #C9C4FE)" stroke="var(--stroke-0, black)" stroke-width="0.213696" stroke-linecap="round" stroke-linejoin="round"/>
<path id="Vector_8" d="M14.3122 14.2235C14.3095 14.3014 14.3057 14.3858 14.3006 14.4774C14.2242 15.871 11.36 24.4231 11.36 24.4231H11.0407C11.0407 24.4231 8.21494 16.3663 7.99064 14.6445C8.04281 14.5411 8.09954 14.4401 8.16061 14.3418C8.23898 14.4574 8.31735 14.5733 8.39549 14.6894C8.83111 15.3371 9.25543 15.9936 9.59585 16.6954C9.69586 16.9012 9.78817 17.1103 9.87328 17.3221C10.3856 18.5954 10.6416 19.9678 10.746 21.3394C10.7724 21.687 10.8436 22.1116 11.1727 22.2267C12.6502 19.9871 12.826 17.1317 13.9751 14.7079C13.991 14.6743 14.0071 14.6406 14.0235 14.607C14.0629 14.5257 14.1042 14.4445 14.1581 14.3726C14.1744 14.3507 14.1917 14.3295 14.2107 14.3098C14.242 14.2771 14.2761 14.2485 14.3122 14.2235Z" fill="var(--fill-0, #A2A0F2)"/>
<path id="Vector_9" d="M11.1957 0.691639C11.8148 0.359394 12.6319 0.442575 13.1712 0.892861C13.269 0.9746 13.3599 1.06836 13.4743 1.1251C13.8075 1.29098 14.2239 1.09841 14.5751 1.22174C14.8516 1.31887 15.0374 1.62539 14.9959 1.91532C14.9721 2.08048 14.8841 2.24324 14.9218 2.40575C14.9838 2.67261 15.3279 2.75122 15.601 2.72838C15.8741 2.70578 16.1799 2.64424 16.3979 2.81012C16.6345 2.98995 16.6383 3.34647 16.5592 3.63304C16.4799 3.91937 16.3395 4.20089 16.3652 4.49683C16.7903 4.71969 17.404 4.39081 17.7531 4.72041C18.0099 4.96298 17.9255 5.38249 17.8257 5.72123C17.7259 6.05997 17.6538 6.48573 17.9224 6.71508C18.2147 6.96486 18.7138 6.79249 19.0092 7.03843C19.3297 7.30528 19.1737 7.81255 19.0482 8.21018C18.9047 8.66576 18.8385 9.14561 18.8542 9.62306C18.8583 9.74832 18.8708 9.88174 18.9475 9.98103C19.0612 10.1289 19.2773 10.1512 19.4612 10.119C19.6449 10.0868 19.823 10.013 20.0096 10.0147C20.4522 10.0188 20.7851 10.4518 20.8743 10.8852C20.9635 11.3189 20.8818 11.7673 20.8856 12.2099C20.8873 12.4164 20.9662 12.6823 21.1724 12.6883C21.241 13.1138 20.777 13.5379 20.9537 13.9309C21.0025 14.0396 21.0941 14.1223 21.1609 14.2209C21.3205 14.4572 21.32 14.7909 21.1595 15.0265C20.9989 15.2621 20.6883 15.3847 20.4101 15.3222" stroke="var(--stroke-0, black)" stroke-width="0.213696" stroke-linecap="round" stroke-linejoin="round"/>
<path id="Vector_10" d="M10.7782 0.404529C11.3973 0.0722843 12.2144 0.155466 12.7537 0.605751C12.8515 0.68749 12.9424 0.78125 13.0568 0.837986C13.39 1.00387 13.8064 0.811301 14.1577 0.934631C14.4341 1.03176 14.62 1.33828 14.5784 1.62821C14.5546 1.79337 14.4666 1.95613 14.5043 2.11864C14.5664 2.3855 14.9104 2.46411 15.1835 2.44127C15.4566 2.41867 15.7624 2.35713 15.9804 2.52301C16.217 2.70284 16.2208 3.05936 16.1418 3.34593C16.0624 3.63226 15.922 3.91378 15.9477 4.20972C16.3728 4.43258 16.9865 4.1037 17.3356 4.4333C17.5924 4.67587 17.508 5.09539 17.4082 5.43412C17.3085 5.77286 17.2363 6.19862 17.5049 6.42797C17.7972 6.67776 18.2963 6.50538 18.5918 6.75132C18.9122 7.01817 18.7562 7.52544 18.6307 7.92307C18.4872 8.37865 18.4211 8.8585 18.4367 9.33595C18.4408 9.46121 18.4533 9.59464 18.53 9.69392C18.6437 9.84178 18.8598 9.86413 19.0437 9.83192C19.2274 9.7997 19.4055 9.7259 19.5921 9.72758C20.0347 9.73167 20.3677 10.1646 20.4568 10.5981C20.546 11.0318 20.4643 11.4802 20.4681 11.9228C20.4698 12.1293 20.5487 12.3952 20.755 12.4012C20.8235 12.8267 20.3595 13.2508 20.5362 13.6438C20.585 13.7525 20.6766 13.8352 20.7434 13.9338C20.903 14.1701 20.9026 14.5038 20.742 14.7394C20.5814 14.975 20.2708 15.0976 19.9926 15.0351" stroke="var(--stroke-0, black)" stroke-width="0.213696" stroke-linecap="round" stroke-linejoin="round"/>
<path id="Vector_11" d="M6.08087 1.83818C5.83301 1.69177 5.4986 1.78457 5.28848 1.98147C5.07836 2.17836 4.96585 2.45579 4.86993 2.72721C4.77401 2.99864 4.68481 3.28015 4.50643 3.50614C4.24102 3.84199 3.80396 4.02109 3.57629 4.38387C3.25318 4.89859 3.46137 5.58207 3.29477 6.1665C3.17481 6.58722 2.8642 6.93894 2.77429 7.36686C2.59686 8.21046 3.31352 9.11656 2.9606 9.90318C2.83126 10.1919 2.57667 10.4037 2.4043 10.6689C2.17086 11.0278 2.0985 11.4875 2.21029 11.901C2.2627 12.0947 2.35405 12.2837 2.34636 12.4842C2.34011 12.6518 2.26486 12.8083 2.19105 12.9588C2.03118 13.2855 1.87131 13.6124 1.71144 13.9392C1.64412 14.0764 1.57561 14.2202 1.57609 14.3731C1.57705 14.6445 1.78957 14.8623 1.98767 15.0482C2.05594 15.1124 2.12831 15.1787 2.21918 15.2023C2.33217 15.2316 2.44973 15.1888 2.5584 15.1467C2.96205 14.9907 3.36569 14.8344 3.76934 14.6784" stroke="var(--stroke-0, black)" stroke-width="0.213696" stroke-linecap="round" stroke-linejoin="round"/>
<path id="Vector_12" d="M6.62872 1.10723C6.38086 0.960816 6.04645 1.05361 5.83633 1.25051C5.62621 1.4474 5.5137 1.72484 5.41778 1.99626C5.32186 2.26768 5.23267 2.5492 5.05428 2.77518C4.78887 3.11103 4.35181 3.29014 4.12414 3.65291C3.80103 4.16763 4.00923 4.85111 3.84262 5.43554C3.72266 5.85626 3.41205 6.20798 3.32214 6.63591C3.14472 7.4795 3.86137 8.3856 3.50845 9.17222C3.37911 9.46095 3.12452 9.67275 2.95215 9.93792C2.71871 10.2969 2.64635 10.7565 2.75814 11.17C2.81055 11.3638 2.9019 11.5527 2.89421 11.7532C2.88796 11.9208 2.81271 12.0773 2.73891 12.2278C2.57903 12.5545 2.41916 12.8815 2.25929 13.2082C2.19198 13.3455 2.12346 13.4892 2.12394 13.6421C2.1249 13.9136 2.33742 14.1314 2.53552 14.3172C2.6038 14.3814 2.67616 14.4477 2.76703 14.4713C2.88003 14.5006 2.99759 14.4578 3.10625 14.4158C3.5099 14.2597 3.91354 14.1035 4.31719 13.9475" stroke="var(--stroke-0, black)" stroke-width="0.213696" stroke-linecap="round" stroke-linejoin="round"/>
<path id="Vector_13" d="M8.2748 2.43226C8.2748 2.43226 8.1909 2.54742 8.05363 2.75176" stroke="var(--stroke-0, black)" stroke-width="0.213696" stroke-linecap="round" stroke-linejoin="round"/>
<path id="Vector_14" d="M11.2468 9.42762C10.7155 9.81324 9.88246 10.3527 9.01603 10.6583" stroke="var(--stroke-0, black)" stroke-width="0.213696" stroke-linecap="round" stroke-linejoin="round"/>
<path id="Vector_15" d="M21.1068 14.988C21.096 14.9231 21.0811 14.8467 21.0638 14.7625C20.9722 14.3161 20.8181 13.6576 20.9123 13.3754C21.0505 12.9606 21.1715 12.4421 20.7048 12.2002C20.2382 11.9584 20.1519 11.7682 20.1692 11.2324C20.1824 10.8143 19.9749 10.3962 19.7023 9.96972C19.6256 9.84976 19.5439 9.72932 19.4605 9.60791C19.4359 9.57233 19.4148 9.53819 19.3958 9.50501C19.1244 9.02251 19.4254 8.77754 19.1667 8.25994C19.1104 8.14743 19.0371 8.05871 18.9556 7.98395C18.6363 7.69113 18.1921 7.6154 18.1644 7.18868C18.1623 7.15574 18.1608 7.1216 18.1601 7.08674C18.1466 6.55448 18.2577 5.81931 17.836 5.495C17.7887 5.45845 17.743 5.42287 17.6995 5.38729C17.3357 5.09327 17.1016 4.82882 16.9617 4.39368C16.9593 4.38647 16.9569 4.37926 16.9547 4.37181C16.7999 3.87272 16.7821 3.47652 16.2188 3.23419C16.2164 3.23323 16.214 3.23203 16.2116 3.23107C16.0032 3.1426 15.894 2.98056 15.8209 2.79665C15.6937 2.47738 15.6752 2.09321 15.4339 1.91771C15.311 1.82828 15.1646 1.80592 15.0083 1.79991C14.6809 1.78741 14.3092 1.84799 14.0169 1.52032C13.9138 1.40492 13.8325 1.28856 13.7618 1.17798C13.5356 0.825056 13.4176 0.531276 13.0493 0.518054C12.8783 0.512043 12.6728 0.549066 12.4627 0.590897C12.1427 0.655087 11.8119 0.730815 11.5743 0.683936C11.526 0.674319 11.4815 0.659895 11.4419 0.638979C11.0791 0.448816 11.1308 0.0687296 10.6644 0.206965C10.3514 0.299762 10.1393 0.407946 9.96072 0.511082C9.87297 0.561567 9.7934 0.610851 9.71382 0.656289C9.71382 0.656289 8.98033 -0.127925 8.49663 0.177394C8.01269 0.482473 7.48764 1.00753 7.29074 1.05128C7.2328 1.06426 7.13496 1.0657 7.01956 1.06811C6.74333 1.07388 6.36685 1.08494 6.19712 1.27005C5.95647 1.53258 5.80333 2.26102 5.51917 2.43267C5.23477 2.60432 4.44719 3.15125 4.3378 3.43565C4.22842 3.71982 4.3378 4.09173 4.18466 4.48552C4.03152 4.87931 3.55046 5.55726 3.4192 5.92917C3.28794 6.30109 3.76924 6.76051 3.63797 7.17593C3.50671 7.5916 3.11292 8.24792 3.09104 8.5542C3.08672 8.61622 3.09104 8.67825 3.10066 8.74388C3.13744 9.00064 3.24827 9.3086 3.17855 9.86659C3.16244 9.99593 3.12975 10.114 3.08696 10.2231C2.89824 10.7054 2.51022 11.015 2.4566 11.354C2.43016 11.5218 2.50685 11.7252 2.59797 11.9353C2.73259 12.2459 2.89799 12.5717 2.80664 12.8195C2.80664 12.8195 2.80063 12.8229 2.78957 12.8296C2.69028 12.889 2.18759 13.2023 2.12869 13.4977C2.09599 13.6607 2.23831 13.9192 2.36549 14.1786C2.47007 14.3918 2.56455 14.6055 2.54339 14.7666C3.88199 14.3819 5.84444 14.0502 7.22703 13.8052C7.34964 13.69 7.47225 13.5905 7.59221 13.5129C7.79007 13.3847 7.9812 13.3155 8.15597 13.3309C8.1942 13.3213 8.22305 13.341 8.22305 13.341C8.37787 13.0852 8.65602 12.8395 8.95173 13.0381C9.03635 12.2548 9.01736 10.6587 9.01736 10.6587C8.16126 10.9612 7.27271 11.035 6.61087 10.5063C5.70236 9.78076 5.60788 8.61021 5.87738 7.38293C6.28752 5.51447 7.54197 3.51451 8.0538 2.75241C8.05981 2.77285 8.35239 3.75155 8.72887 3.93979C9.10895 4.12971 9.76575 4.06072 10.1285 4.31988C10.4915 4.57904 10.5432 5.28752 10.7853 5.495C11.0272 5.70247 12.0124 5.87532 12.1333 6.18617C12.2542 6.49726 12.0294 7.08482 12.3578 7.36153C12.6862 7.638 13.0663 7.44784 13.2392 7.89716C13.412 8.34648 12.8605 8.96001 13.206 9.34009C13.5517 9.72018 13.8029 9.84712 13.7686 10.4284C13.7339 11.01 13.2216 11.6523 13.5327 12.1882C13.6205 12.3394 13.7152 12.4957 13.8082 12.6556C13.8169 12.6702 13.8255 12.6851 13.8339 12.7003C13.9356 12.8758 14.0342 13.0551 14.1186 13.2362C14.2023 13.4155 14.272 13.5963 14.3167 13.7766C14.328 13.8216 14.3374 13.8663 14.3453 13.911C14.4489 14.4985 14.1724 15.1727 14.6391 15.4318C15.1057 15.691 15.7796 14.9998 16.1599 15.0171C16.1618 15.0171 16.1637 15.0173 16.1657 15.0176C16.5448 15.0373 17.009 15.3282 17.4733 15.3282C17.9375 15.3282 18.8039 15.19 18.9938 15.2763C19.184 15.3628 19.8235 16.0713 20.3074 15.8121C20.7911 15.5527 21.0676 15.3628 21.1195 15.19C21.1294 15.1568 21.1229 15.0851 21.1068 14.988ZM14.1782 13.341C14.1782 13.341 14.2054 13.3059 14.2357 13.3316C14.2162 13.3338 14.1972 13.3366 14.1782 13.341Z" fill="var(--fill-0, #3D0027)" stroke="var(--stroke-0, black)" stroke-width="0.213696" stroke-linecap="round" stroke-linejoin="round"/>
<path id="Vector_16" d="M21.1068 14.988C21.096 14.9231 21.0811 14.8467 21.0638 14.7625C20.9722 14.3161 20.8181 13.6576 20.9123 13.3754C21.0505 12.9606 21.1715 12.4421 20.7048 12.2002C20.2382 11.9584 20.1519 11.7682 20.1692 11.2324C20.1824 10.8143 19.9749 10.3962 19.7023 9.96972C19.6256 9.84976 19.5439 9.72932 19.4605 9.60791C19.4359 9.57233 19.4148 9.53819 19.3958 9.50501C19.1244 9.02251 19.4254 8.77754 19.1667 8.25994C19.1104 8.14743 19.0371 8.05871 18.9556 7.98395C18.6363 7.69113 18.1921 7.6154 18.1644 7.18868C18.1623 7.15574 18.1608 7.1216 18.1601 7.08674C18.1466 6.55448 18.2577 5.81931 17.836 5.495C17.7887 5.45845 17.743 5.42287 17.6995 5.38729C17.3357 5.09327 17.1016 4.82882 16.9617 4.39368C16.9593 4.38647 16.9569 4.37926 16.9547 4.37181C16.7999 3.87272 16.7821 3.47652 16.2188 3.23419C16.2164 3.23323 16.214 3.23203 16.2116 3.23107C16.0032 3.1426 15.894 2.98056 15.8209 2.79665C15.6937 2.47738 15.6752 2.09321 15.4339 1.91771C15.311 1.82828 15.1646 1.80592 15.0083 1.79991C14.6809 1.78741 14.3092 1.84799 14.0169 1.52032C13.9138 1.40492 13.8325 1.28856 13.7618 1.17798C13.5356 0.825056 13.4176 0.531276 13.0493 0.518054C12.8783 0.512043 12.6728 0.549066 12.4627 0.590897C12.1427 0.655087 11.8119 0.730815 11.5743 0.683936C11.526 0.674319 11.4815 0.659895 11.4419 0.638979C11.0791 0.448816 11.1308 0.0687296 10.6644 0.206965C10.3514 0.299762 10.1393 0.407946 9.96072 0.511082C9.87297 0.561567 9.7934 0.610851 9.71382 0.656289C9.71382 0.656289 8.98033 -0.127925 8.49663 0.177394C8.01269 0.482473 7.48764 1.00753 7.29074 1.05128C7.2328 1.06426 7.13496 1.0657 7.01956 1.06811C6.74333 1.07388 6.36685 1.08494 6.19712 1.27005C5.95647 1.53258 5.80333 2.26102 5.51917 2.43267C5.23477 2.60432 4.44719 3.15125 4.3378 3.43565C4.22842 3.71982 4.3378 4.09173 4.18466 4.48552C4.03152 4.87931 3.55046 5.55726 3.4192 5.92917C3.28794 6.30109 3.76924 6.76051 3.63797 7.17593C3.50671 7.5916 3.11292 8.24792 3.09104 8.5542C3.08672 8.61622 3.09104 8.67825 3.10066 8.74388C3.13744 9.00064 3.24827 9.3086 3.17855 9.86659C3.16244 9.99593 3.12975 10.114 3.08696 10.2231C2.89824 10.7054 2.51022 11.015 2.4566 11.354C2.43016 11.5218 2.50685 11.7252 2.59797 11.9353C2.73259 12.2459 2.89799 12.5717 2.80664 12.8195C2.80664 12.8195 2.80063 12.8229 2.78957 12.8296C2.69028 12.889 2.18759 13.2023 2.12869 13.4977C2.09599 13.6607 2.23831 13.9192 2.36549 14.1786C2.47007 14.3918 2.56455 14.6055 2.54339 14.7666C3.88199 14.3819 5.84444 14.0502 7.22703 13.8052C7.34964 13.69 7.47225 13.5905 7.59221 13.5129C7.79007 13.3847 7.9812 13.3155 8.15597 13.3309C8.1942 13.3213 8.22305 13.341 8.22305 13.341C8.37787 13.0852 8.65602 12.8395 8.95173 13.0381C9.03635 12.2548 9.01736 10.6587 9.01736 10.6587C8.16126 10.9612 7.27271 11.035 6.61087 10.5063C5.70236 9.78076 5.60788 8.61021 5.87738 7.38293C6.28752 5.51447 7.54197 3.51451 8.0538 2.75241C8.05693 2.76275 8.13482 3.02359 8.26055 3.30127C8.38076 3.56668 8.54471 3.84796 8.72887 3.93979C8.94644 4.04846 9.25464 4.07226 9.54626 4.12154C9.76431 4.15808 9.97322 4.20905 10.1285 4.31988C10.3252 4.46028 10.4305 4.73266 10.5242 4.98581C10.6036 5.19977 10.6745 5.39979 10.7853 5.495C10.9916 5.67194 11.7393 5.82388 12.0292 6.05755C12.0792 6.09794 12.1155 6.14049 12.1333 6.18617C12.1583 6.25036 12.1686 6.32633 12.172 6.40903C12.185 6.72661 12.0972 7.14204 12.3578 7.36153C12.6862 7.638 13.0663 7.44784 13.2392 7.89716C13.412 8.34648 12.8605 8.96001 13.206 9.34009C13.5517 9.72018 13.8029 9.84712 13.7686 10.4284C13.7339 11.01 13.2216 11.6523 13.5327 12.1882C13.6205 12.3394 13.7152 12.4957 13.8082 12.6556C13.8169 12.6702 13.8255 12.6851 13.8339 12.7003C13.9356 12.8758 14.0342 13.0551 14.1186 13.2362C14.2023 13.4155 14.272 13.5963 14.3167 13.7766C14.3263 13.8153 14.3347 13.8538 14.3419 13.8922C14.3431 13.8985 14.3441 13.9047 14.3453 13.911C14.4489 14.4985 14.1724 15.1727 14.6391 15.4318C15.1057 15.691 15.7796 14.9998 16.1599 15.0171C16.1618 15.0171 16.1637 15.0173 16.1657 15.0176C16.5448 15.0373 17.009 15.3282 17.4733 15.3282C17.9375 15.3282 18.8039 15.19 18.9938 15.2763C19.184 15.3628 19.8235 16.0713 20.3074 15.8121C20.7911 15.5527 21.0676 15.3628 21.1195 15.19C21.1294 15.1568 21.1229 15.0851 21.1068 14.988ZM14.1782 13.341C14.1782 13.341 14.2054 13.3059 14.2357 13.3316C14.2162 13.3338 14.1972 13.3366 14.1782 13.341Z" fill="var(--fill-0, #3D0027)" stroke="var(--stroke-0, black)" stroke-width="0.213696" stroke-linecap="round" stroke-linejoin="round"/>
<path id="Vector_17" d="M11.0406 24.4229C11.0406 24.4229 10.9045 24.6847 10.7286 24.995C10.3203 24.882 9.63685 24.6859 8.85096 24.4575C7.48688 22.4527 5.42033 19.1819 5.42033 18.9711C5.42033 18.6648 6.84451 18.1592 6.89043 17.991C6.93634 17.8224 5.28257 16.8577 5.32849 16.6127C5.36167 16.4353 6.30239 14.6724 7.22652 13.8057C7.35874 13.6816 7.49073 13.5758 7.61958 13.4958C7.80734 13.379 7.98885 13.3167 8.15546 13.3314C8.10281 13.3446 8.03213 13.4136 7.9939 13.6662C7.96674 13.8437 7.95568 14.1117 7.97779 14.5146C8.02371 15.352 9.12022 18.7603 9.98809 21.3475C10.5648 23.0665 11.0406 24.4229 11.0406 24.4229Z" fill="var(--fill-0, #F5D256)" stroke="var(--stroke-0, black)" stroke-width="0.213696" stroke-linecap="round" stroke-linejoin="round"/>
<path id="Vector_18" d="M8.22219 13.3406C8.15464 13.4522 8.11065 13.5659 8.09887 13.6452C8.06473 13.6519 8.02963 13.6587 7.99357 13.6654C8.03179 13.4127 8.10247 13.3437 8.15512 13.3305C8.19335 13.3209 8.22219 13.3406 8.22219 13.3406Z" stroke="var(--stroke-0, black)" stroke-width="0.213696" stroke-linecap="round" stroke-linejoin="round"/>
<path id="Vector_19" d="M14.2356 13.3313C14.2161 13.3335 14.1971 13.3364 14.1781 13.3407C14.1781 13.3407 14.2053 13.3056 14.2356 13.3313Z" stroke="var(--stroke-0, black)" stroke-width="0.213696" stroke-linecap="round" stroke-linejoin="round"/>
<path id="Vector_20" d="M8.85065 24.4564C8.22775 24.2756 7.54066 24.0748 6.87473 23.8796C5.17792 23.3822 3.61959 22.9214 3.61959 22.9214L0.106982 16.5835C0.106982 16.5835 0.0697183 16.1933 1.24051 15.3011C1.48573 15.1143 1.9538 14.935 2.54256 14.766C3.65902 14.4453 5.20942 14.1611 6.49536 13.9334C6.7514 13.8882 6.99685 13.8452 7.2262 13.8046C6.30207 14.6712 5.36135 16.4342 5.32818 16.6116C5.28226 16.8566 6.93603 17.8213 6.89011 17.9899C6.8442 18.1581 5.42001 18.6637 5.42001 18.97C5.42001 19.1808 7.48657 22.4516 8.85065 24.4564Z" fill="var(--fill-0, #F5D256)" stroke="var(--stroke-0, black)" stroke-width="0.213696" stroke-linecap="round" stroke-linejoin="round"/>
<path id="Vector_21" d="M10.7284 24.9947C10.9708 25.0617 11.1162 25.0992 11.1287 25.0968C11.1415 25.0944 11.3155 25.0146 11.6066 24.8788" stroke="var(--stroke-0, black)" stroke-width="0.213696" stroke-linecap="round" stroke-linejoin="round"/>
<path id="Vector_22" d="M2.78957 12.829C2.84775 13.0627 2.88766 13.2999 2.85112 13.5358C2.80808 13.8144 2.62369 14.0904 2.36549 14.1779C2.23831 13.9185 2.09599 13.6601 2.12869 13.4971C2.18759 13.2016 2.69028 12.8884 2.78957 12.829Z" fill="var(--fill-0, #6D1151)"/>
<path id="Vector_23" d="M3.08624 10.2229C3.09057 10.3662 3.08047 10.508 3.04272 10.6463C2.95161 10.9797 2.70615 11.2564 2.62586 11.5927C2.59893 11.7055 2.59148 11.8202 2.59725 11.9351C2.50613 11.725 2.42944 11.5216 2.45589 11.3538C2.5095 11.0148 2.89752 10.7052 3.08624 10.2229Z" fill="var(--fill-0, #6D1151)"/>
<path id="Vector_24" d="M7.01797 1.06849C6.60374 1.52887 6.17918 1.98445 5.67769 2.3465C5.38944 2.55446 5.06801 2.73957 4.87785 3.0396C4.6021 3.47498 4.66725 4.04595 4.47012 4.5222C4.26312 5.0225 3.77221 5.41027 3.73062 5.94999C3.69215 6.44668 4.05685 6.92028 3.97415 7.41144C3.88472 7.94106 3.32216 8.25912 3.09907 8.74426C3.08969 8.67863 3.08512 8.61661 3.08945 8.55458C3.11133 8.2483 3.50512 7.59198 3.63638 7.17632C3.76764 6.76089 3.28634 6.30147 3.41761 5.92956C3.54887 5.55764 4.02993 4.87969 4.18307 4.4859C4.33621 4.09211 4.22682 3.7202 4.33621 3.43604C4.44559 3.15163 5.23317 2.6047 5.51758 2.43305C5.80174 2.2614 5.95488 1.53296 6.19553 1.27044C6.36526 1.08532 6.74174 1.07426 7.01797 1.06849Z" fill="var(--fill-0, #6D1151)"/>
<path id="Vector_25" d="M9.98831 21.3475C9.93542 21.4201 9.84479 21.4692 9.75944 21.4449C9.68564 21.424 9.63635 21.3562 9.59332 21.2927C8.35017 19.4524 7.60875 17.2769 7.46955 15.0606C7.43661 14.5793 7.43613 14.0793 7.58038 13.6143C7.59264 13.5746 7.60586 13.5352 7.6198 13.4958C7.80756 13.379 7.98907 13.3167 8.15568 13.3314C8.10303 13.3446 8.03235 13.4136 7.99412 13.6662C7.96695 13.8437 7.9559 14.1117 7.97801 14.5146C8.02393 15.352 9.12044 18.7603 9.98831 21.3475Z" fill="var(--fill-0, #FFE8A9)"/>
<path id="Vector_26" d="M9.6019 17.5681C9.40572 17.5982 8.05991 13.9074 8.09838 13.6458C8.11016 13.5665 8.15415 13.4528 8.22171 13.3412C8.37004 13.0963 8.63161 12.8604 8.91336 13.0157C8.92563 13.0225 8.93813 13.0299 8.95039 13.0383C8.99631 13.0693 10.2452 14.996 10.5719 15.5001C10.6003 15.5441 10.6219 15.5773 10.6349 15.5975C10.9088 16.0199 9.79831 17.5378 9.6019 17.5681Z" fill="var(--fill-0, #49A2A6)" stroke="var(--stroke-0, black)" stroke-width="0.213696" stroke-linecap="round" stroke-linejoin="round"/>
<path id="Vector_27" d="M14.3181 14.012C14.0414 14.8369 12.072 17.6581 11.719 17.6345C11.5205 17.6213 11.2611 17.0592 11.0642 16.5428C10.8947 16.0993 10.7711 15.6894 10.7711 15.6894C10.7187 15.5221 11.3296 15.2672 12.1681 14.4929C12.4629 14.2205 12.7254 13.9503 12.9495 13.7046C13.4918 13.1093 13.8082 12.6561 13.8082 12.6561C13.8169 12.6708 13.8255 12.6857 13.8339 12.7009C14.0469 13.0781 14.2469 13.6281 14.3179 13.8317C14.3188 13.8863 14.3188 13.9459 14.3181 14.012Z" fill="var(--fill-0, #49A2A6)" stroke="var(--stroke-0, black)" stroke-width="0.213696" stroke-linecap="round" stroke-linejoin="round"/>
<path id="Vector_28" d="M14.3175 14.011C14.3183 13.9449 14.3183 13.8853 14.3173 13.8309C14.3351 13.8814 14.3447 13.9105 14.3447 13.9105C14.3394 13.9394 14.3303 13.973 14.3175 14.011Z" stroke="var(--stroke-0, black)" stroke-width="0.213696" stroke-linecap="round" stroke-linejoin="round"/>
<path id="Vector_29" d="M8.22177 13.3405C8.19966 13.3357 8.1773 13.3323 8.1547 13.3304C8.19292 13.3208 8.22177 13.3405 8.22177 13.3405Z" stroke="var(--stroke-0, black)" stroke-width="0.213696" stroke-linecap="round" stroke-linejoin="round"/>
<path id="Vector_30" d="M14.2356 13.3313C14.2161 13.3335 14.1971 13.3364 14.1781 13.3407C14.1781 13.3407 14.2053 13.3056 14.2356 13.3313Z" stroke="var(--stroke-0, black)" stroke-width="0.213696" stroke-linecap="round" stroke-linejoin="round"/>
<path id="Vector_31" d="M14.3173 14.0115C14.318 13.9454 14.318 13.8858 14.317 13.8314C14.317 13.8122 14.3163 13.7942 14.3158 13.7766C14.3271 13.8216 14.3365 13.8663 14.3444 13.911C14.3392 13.9398 14.33 13.9735 14.3173 14.0115Z" stroke="var(--stroke-0, black)" stroke-width="0.213696" stroke-linecap="round" stroke-linejoin="round"/>
<path id="Vector_32" d="M7.77041 6.06434C7.77041 6.06434 7.15664 7.25172 7.36868 7.41905C7.58072 7.58637 8.11635 6.98391 8.11635 6.98391" stroke="var(--stroke-0, black)" stroke-width="0.213696" stroke-linecap="round" stroke-linejoin="round"/>
<g id="Group">
<path id="Vector_33" d="M8.94329 8.92672C8.46776 9.22386 7.96915 8.713 7.96915 8.713C7.96915 8.713 8.3829 8.71516 8.76515 8.46513C9.1474 8.21511 9.27217 7.94056 9.27217 7.94056C9.27217 7.94056 9.41858 8.62981 8.94329 8.92672Z" fill="var(--fill-0, #E938B5)" stroke="var(--stroke-0, black)" stroke-width="0.213696" stroke-linecap="round" stroke-linejoin="round"/>
<path id="Vector_34" d="M9.27217 7.94066C9.27217 7.94066 9.1474 8.21521 8.76515 8.46524C8.3829 8.71526 7.96915 8.7131 7.96915 8.7131C7.96915 8.7131 8.18985 8.18684 8.31702 8.21233C8.44444 8.23781 8.51224 8.31234 8.5632 8.21136C8.61417 8.11063 8.55479 8.0087 8.68196 7.94066C8.80938 7.87287 9.27217 7.94066 9.27217 7.94066Z" fill="var(--fill-0, #E938B5)" stroke="var(--stroke-0, black)" stroke-width="0.213696" stroke-linecap="round" stroke-linejoin="round"/>
<path id="Vector_35" d="M9.3986 7.57655L9.27286 7.94125" stroke="var(--stroke-0, black)" stroke-width="0.213696" stroke-linecap="round" stroke-linejoin="round"/>
<path id="Vector_36" d="M9.15421 7.51229C9.22056 7.49089 9.29437 7.50435 9.35736 7.53464C9.42034 7.56494 9.4742 7.61085 9.52684 7.65653C9.55762 7.68322 9.59031 7.71375 9.59656 7.7539" stroke="var(--stroke-0, black)" stroke-width="0.213696" stroke-linecap="round" stroke-linejoin="round"/>
</g>
<path id="Vector_37" d="M21.9871 15.3854C21.6 15.9042 21.0478 16.3014 20.4321 16.5065C19.7588 16.7308 19.0181 16.7288 18.3367 16.5283C18.1754 16.481 18.0175 16.4226 17.8646 16.3533C17.4826 16.1805 17.1095 15.9384 16.7024 15.8795C16.6361 15.8699 16.5688 15.8651 16.5005 15.8663C16.0505 15.8742 15.6507 16.1406 15.286 16.4045C15.09 16.5464 14.8612 16.6971 14.6301 16.6887C14.588 16.687 14.5462 16.6803 14.5041 16.6671C14.2859 16.5988 14.1529 16.3819 14.0524 16.1764C14.0255 16.1213 13.9995 16.0656 13.9745 16.0091C14.162 15.3011 14.2849 14.7503 14.2998 14.4765C14.3097 14.295 14.3152 14.1413 14.3169 14.0115C14.3296 13.9733 14.3387 13.9396 14.344 13.9108C14.4476 14.4983 14.1712 15.1724 14.6378 15.4316C14.9484 15.604 15.3506 15.3556 15.6971 15.1753C15.8713 15.0847 16.0315 15.0111 16.1586 15.0169C16.1606 15.0169 16.1625 15.0171 16.1644 15.0174C16.5435 15.0371 17.0078 15.328 17.472 15.328C17.5439 15.328 17.6254 15.3246 17.7124 15.3193C18.1891 15.2907 18.832 15.203 18.9926 15.2761C19.1827 15.3626 19.8222 16.0711 20.3062 15.8119C20.7899 15.5525 21.0663 15.3626 21.1183 15.1898C21.1281 15.1566 21.1216 15.0849 21.1055 14.9878C21.357 15.0522 21.5073 15.0919 21.5176 15.0972C21.546 15.1114 21.7489 15.2318 21.9871 15.3854Z" fill="var(--fill-0, #E0B836)"/>
<path id="Vector_38" d="M18.3716 17.0482C18.3266 17.1511 18.2254 17.2162 18.1297 17.2754C17.6864 17.5482 17.2434 17.8214 16.8003 18.0942C17.1309 18.3132 17.6396 18.2998 17.8211 18.6524C17.9103 18.8255 17.8838 19.0337 17.8446 19.2246C17.5768 20.5235 16.8421 21.647 16.088 22.7545C15.3985 23.0837 14.6926 23.4198 14.0375 23.7308C15.3564 21.7484 16.9801 19.1573 16.9801 18.9705C16.9801 18.6642 15.5559 18.1586 15.51 17.9904C15.4639 17.8218 17.1179 16.8571 17.072 16.6121C17.0594 16.546 16.9207 16.2587 16.7032 15.8796C16.5553 15.6211 16.3707 15.3204 16.1651 15.0175C16.5443 15.0372 17.0085 15.3281 17.4727 15.3281C17.5446 15.3281 17.6261 15.3247 17.7131 15.3194C17.9814 15.6954 18.2221 16.0921 18.3375 16.5284C18.3593 16.6114 18.3766 16.6955 18.3889 16.7813C18.4017 16.8708 18.4077 16.9653 18.3716 17.0482Z" fill="var(--fill-0, #E0B836)"/>
<path id="Vector_39" d="M16.9792 18.9709C16.9792 19.1181 15.9714 20.7574 14.899 22.4157C14.7357 22.4612 14.5636 22.4693 14.4037 22.4169C14.5268 21.895 14.8326 21.4349 15.1701 21.0182C15.5077 20.6016 15.8834 20.2143 16.1823 19.7691C16.2808 19.6224 16.3741 19.4469 16.3258 19.2772C16.2642 19.0611 16.0145 18.9714 15.8019 18.8986C15.5892 18.826 15.3461 18.6906 15.3432 18.4661C15.3411 18.299 15.4791 18.1716 15.6375 18.1026C15.9967 18.3247 16.9792 18.7166 16.9792 18.9709Z" fill="var(--fill-0, #FFE8A9)"/>
<path id="Vector_40" d="M8.85022 24.4564C8.22732 24.2756 7.54023 24.0748 6.8743 23.8796C6.57427 23.4524 6.28915 23.0142 6.00474 22.5766C5.62706 21.996 5.24962 21.4154 4.87194 20.8349C4.7325 20.6206 4.59138 20.4024 4.5171 20.1576C4.39809 19.7662 4.46348 19.334 4.63898 18.9645C4.81448 18.595 5.0936 18.2829 5.40252 18.0149C5.45469 17.9699 5.51094 17.9204 5.52417 17.8528C5.55133 17.7151 5.39507 17.6201 5.26885 17.5581C4.79573 17.3256 4.40026 16.9383 4.15817 16.4702C4.11417 16.3851 4.07426 16.2921 4.08388 16.1969C4.09542 16.0837 4.17427 15.9901 4.25096 15.9057C4.61374 15.5059 5.00609 15.1333 5.42344 14.791C5.77732 14.5008 6.14058 14.2234 6.49494 13.9334C6.75097 13.8882 6.99643 13.8452 7.22578 13.8046C6.30165 14.6712 5.36093 16.4342 5.32775 16.6116C5.28184 16.8566 6.93561 17.8213 6.88969 17.9899C6.84377 18.1581 5.41959 18.6637 5.41959 18.97C5.41959 19.1808 7.48614 22.4516 8.85022 24.4564Z" fill="var(--fill-0, #E0B836)"/>
<path id="Vector_41" d="M10.5725 15.5001C10.5539 15.654 10.5244 15.8069 10.4676 15.9507C10.4397 16.0211 10.4032 16.0918 10.3421 16.1367C10.2015 16.2404 9.9897 16.1601 9.88488 16.0204C9.78006 15.8805 9.74977 15.7009 9.70409 15.5324C9.59254 15.1193 9.37618 14.7441 9.19082 14.3584C9.02494 14.0135 8.78357 13.5146 8.87493 13.1196C8.88382 13.0814 8.8968 13.0468 8.91387 13.0158C8.92613 13.0225 8.93863 13.0299 8.95089 13.0384C8.99681 13.0694 10.2457 14.996 10.5725 15.5001Z" fill="var(--fill-0, #63BABA)"/>
<path id="Vector_42" d="M22.8379 16.0825C22.8194 16.2683 20.1987 20.7104 20.0314 20.8404C19.928 20.921 16.5952 22.5168 14.0375 23.7311C15.3564 21.7487 16.9801 19.1576 16.9801 18.9708C16.9801 18.6645 15.5559 18.1589 15.51 17.9906C15.4639 17.8221 17.1179 16.8573 17.072 16.6124C17.051 16.5011 16.6726 15.7649 16.1651 15.0177C16.5443 15.0375 17.0085 15.3283 17.4727 15.3283C17.9369 15.3283 18.8034 15.1901 18.9933 15.2764C19.1835 15.363 19.8229 16.0715 20.3069 15.8123C20.7906 15.5529 21.0671 15.363 21.119 15.1901C21.1288 15.1569 21.1224 15.0853 21.1062 14.9882C21.3577 15.0526 21.508 15.0923 21.5183 15.0976C21.5926 15.1346 22.8564 15.8967 22.8379 16.0825Z" stroke="var(--stroke-0, black)" stroke-width="0.213696" stroke-linecap="round" stroke-linejoin="round"/>
<path id="Vector_43" d="M16.9801 18.9697C16.9801 19.1565 15.3563 21.7476 14.0375 23.73C13.021 24.2125 12.1269 24.6347 11.6067 24.8777C11.4634 24.6207 11.3598 24.4214 11.3598 24.4214C11.3598 24.4214 14.224 15.8694 14.3005 14.4757C14.3103 14.2942 14.3158 14.1406 14.3175 14.0108C14.3303 13.9726 14.3394 13.9389 14.3447 13.91C14.4483 14.4976 14.1718 15.1717 14.6385 15.4309C15.1051 15.69 15.779 14.9989 16.1593 15.0162C16.1612 15.0162 16.1631 15.0164 16.1651 15.0166C16.6726 15.7638 17.051 16.5 17.0719 16.6113C17.1178 16.8563 15.4638 17.821 15.51 17.9895C15.5559 18.1578 16.9801 18.6634 16.9801 18.9697Z" stroke="var(--stroke-0, black)" stroke-width="0.213696" stroke-linecap="round" stroke-linejoin="round"/>
<path id="Vector_44" d="M11.0406 24.4229C11.0406 24.4229 10.9045 24.6847 10.7286 24.995C10.3203 24.882 9.63685 24.6859 8.85096 24.4575C7.48688 22.4527 5.42033 19.1819 5.42033 18.9711C5.42033 18.6648 6.84451 18.1592 6.89043 17.991C6.93634 17.8224 5.28257 16.8577 5.32849 16.6127C5.36167 16.4353 6.30239 14.6724 7.22652 13.8057C7.55155 13.5006 7.87466 13.3066 8.15546 13.3314C8.10281 13.3446 8.03213 13.4136 7.9939 13.6662C7.96674 13.8437 7.95568 14.1117 7.97779 14.5146C8.05424 15.9083 11.0406 24.4229 11.0406 24.4229Z" stroke="var(--stroke-0, black)" stroke-width="0.213696" stroke-linecap="round" stroke-linejoin="round"/>
<path id="Vector_45" d="M8.85065 24.4564C6.64057 23.8147 3.61959 22.9214 3.61959 22.9214L0.106982 16.5835C0.106982 16.5835 0.0697183 16.1933 1.24051 15.3011C1.48573 15.1143 1.9538 14.935 2.54256 14.766C3.88116 14.3813 5.84361 14.0496 7.2262 13.8046C6.30207 14.6712 5.36135 16.4342 5.32818 16.6116C5.28226 16.8566 6.93603 17.8213 6.89011 17.9899C6.8442 18.1581 5.42001 18.6637 5.42001 18.97C5.42001 19.1808 7.48657 22.4516 8.85065 24.4564Z" stroke="var(--stroke-0, black)" stroke-width="0.213696" stroke-linecap="round" stroke-linejoin="round"/>
<path id="Vector_46" d="M13.0478 13.9098C13.0163 14.2327 12.9766 14.5757 12.7728 14.8282C12.5487 15.1051 12.1744 15.2121 11.9092 15.4501C11.5729 15.7525 11.4546 16.2199 11.289 16.6408C11.2813 16.6603 11.2721 16.6812 11.2534 16.6908C11.2209 16.7072 11.1841 16.6795 11.1591 16.6533C11.1269 16.6194 11.0952 16.5827 11.0642 16.5432C10.8947 16.0997 10.7711 15.6898 10.7711 15.6898C10.7187 15.5225 11.3296 15.2676 12.1681 14.4933C12.4629 14.2209 12.7254 13.9507 12.9495 13.705C12.9858 13.7216 13.0187 13.7446 13.036 13.7795C13.056 13.8192 13.0521 13.8658 13.0478 13.9098Z" fill="var(--fill-0, #63BABA)"/>
<path id="Vector_47" d="M11.4405 0.639494C11.4802 0.66041 11.5247 0.674834 11.573 0.684451C11.5562 0.689259 11.5396 0.694548 11.523 0.699596C11.0585 0.844082 10.2395 1.08689 9.95939 0.511597C10.138 0.408461 10.3501 0.300277 10.6631 0.20748C11.1295 0.0692445 11.0778 0.449331 11.4405 0.639494Z" fill="var(--fill-0, #6D1151)"/>
<path id="Vector_48" d="M13.7605 1.17828C13.5069 1.1326 13.2614 1.06793 13.0484 0.928732C12.9234 0.846993 12.814 0.741934 12.6823 0.671735C12.6114 0.633991 12.5373 0.608026 12.4613 0.591198C12.6715 0.549367 12.877 0.512344 13.0479 0.518354C13.4162 0.531576 13.5343 0.825356 13.7605 1.17828Z" fill="var(--fill-0, #6D1151)"/>
<path id="Vector_49" d="M15.8198 2.79618C15.6354 2.71493 15.4258 2.65098 15.2787 2.52164C15.0784 2.34542 15.0205 2.07424 15.0072 1.79945C15.1635 1.80546 15.3099 1.82782 15.4328 1.91725C15.6741 2.09275 15.6926 2.47692 15.8198 2.79618Z" fill="var(--fill-0, #6D1151)"/>
<path id="Vector_50" d="M16.9531 4.37188C16.9553 4.37933 16.9577 4.38654 16.9601 4.39375C16.9216 4.37068 16.8836 4.34736 16.8461 4.32331C16.5451 4.13003 16.2564 3.85091 16.2254 3.49463C16.2179 3.40832 16.2261 3.31985 16.2172 3.23426C16.7805 3.4766 16.7983 3.87279 16.9531 4.37188Z" fill="var(--fill-0, #6D1151)"/>
<path id="Vector_51" d="M18.1589 7.08717C17.5846 6.78209 17.3314 5.93994 17.6983 5.38772C17.7418 5.4233 17.7875 5.45888 17.8348 5.49542C18.2565 5.81974 18.1454 6.55491 18.1589 7.08717Z" fill="var(--fill-0, #6D1151)"/>
<path id="Vector_52" d="M19.3957 9.50435C19.1856 9.42021 18.9245 9.36636 18.7819 9.19855C18.5675 8.94636 18.71 8.5646 18.8497 8.26457C18.8903 8.1773 18.9283 8.08113 18.9555 7.98329C19.037 8.05805 19.1103 8.14677 19.1666 8.25928C19.4253 8.77688 19.1243 9.02185 19.3957 9.50435Z" fill="var(--fill-0, #6D1151)"/>
<path id="Vector_53" d="M21.0629 14.7625C20.9499 14.6885 20.8519 14.589 20.7797 14.4757C20.6033 14.1995 20.559 13.8576 20.5747 13.5302C20.5896 13.2126 20.6559 12.8878 20.5715 12.5813C20.4477 12.1325 20.0347 11.8303 19.7979 11.4295C19.57 11.0441 19.5152 10.5609 19.6508 10.1342C19.6681 10.0799 19.6885 10.025 19.7015 9.96975C19.9741 10.3962 20.1816 10.8143 20.1684 11.2324C20.1511 11.7683 20.2374 11.9584 20.704 12.2003C21.1706 12.4421 21.0497 12.9607 20.9115 13.3754C20.8172 13.6576 20.9713 14.3161 21.0629 14.7625Z" fill="var(--fill-0, #6D1151)"/>
<path id="Vector_54" d="M9.6019 17.5682C9.40572 17.5982 8.05991 13.9075 8.09838 13.6459C8.11016 13.5666 8.15415 13.4529 8.22171 13.3413C8.37653 13.0855 8.65469 12.8398 8.95039 13.0384C9.00039 13.0721 10.4729 15.3475 10.6349 15.5975C10.9088 16.0199 9.79831 17.5379 9.6019 17.5682Z" stroke="var(--stroke-0, black)" stroke-width="0.213696" stroke-linecap="round" stroke-linejoin="round"/>
<path id="Vector_55" d="M14.3181 14.012C14.0414 14.8369 12.072 17.6581 11.719 17.6345C11.3498 17.6098 10.7711 15.6894 10.7711 15.6894C10.7187 15.5221 11.3296 15.2672 12.1681 14.4929C13.1766 13.5608 13.8082 12.6561 13.8082 12.6561C13.8169 12.6708 13.8255 12.6857 13.8339 12.7009C14.0469 13.0781 14.2469 13.6281 14.3179 13.8317C14.3188 13.8863 14.3188 13.9459 14.3181 14.012Z" stroke="var(--stroke-0, black)" stroke-width="0.213696" stroke-linecap="round" stroke-linejoin="round"/>
<path id="Vector_56" d="M8.11662 2.79701C7.94978 2.9713 8.03224 3.45837 8.08056 3.69469C8.10484 3.81322 8.13201 3.93751 8.21086 4.02934C8.30149 4.13512 8.44334 4.17912 8.57844 4.21253C8.88569 4.2885 9.20014 4.3361 9.51628 4.35414C9.6134 4.35966 9.71293 4.36303 9.80261 4.40029C9.98772 4.47747 10.0863 4.67845 10.1481 4.86909C10.2099 5.05974 10.2558 5.26601 10.3918 5.41314C10.6936 5.73937 11.3008 5.63816 11.5643 5.99589C11.7078 6.19086 11.6951 6.45507 11.6884 6.69716C11.6816 6.93925 11.7004 7.21163 11.8809 7.37295C12.0524 7.52633 12.3072 7.52441 12.537 7.52272C12.7668 7.52104 13.0272 7.54172 13.1734 7.71914C13.3174 7.89367 13.2917 8.15019 13.2332 8.36872C13.1748 8.58725 13.0902 8.813 13.1421 9.03321C13.1527 9.07817 13.195 9.13226 13.2337 9.10702" stroke="var(--stroke-0, black)" stroke-width="0.213696" stroke-linecap="round" stroke-linejoin="round"/>
<path id="Vector_57" d="M8.04949 2.87391C7.72326 3.21698 7.63431 3.76487 7.83505 4.19376C8.03603 4.62265 8.51372 4.90489 8.98612 4.87387C9.2537 4.85632 9.55878 4.75848 9.76529 4.92965C9.92444 5.06163 9.94367 5.29507 10.0377 5.47922C10.1622 5.72324 10.4218 5.8759 10.6889 5.93672C10.956 5.99754 11.2342 5.97975 11.5075 5.96148" stroke="var(--stroke-0, black)" stroke-width="0.213696" stroke-linecap="round" stroke-linejoin="round"/>
<path id="Vector_58" d="M8.95146 13.0378C8.65576 12.8393 8.37761 13.085 8.22278 13.3408C8.22278 13.3408 8.19393 13.321 8.15571 13.3307C7.98093 13.3153 7.78981 13.3845 7.59195 13.5126C7.5845 13.4215 7.57993 13.3302 7.5768 13.2395C7.56839 13.0001 7.56719 12.7558 7.49122 12.5284C7.41525 12.3012 7.24793 12.0892 7.01569 12.0296C6.7873 11.9709 6.55074 12.0675 6.31538 12.0834C5.79225 12.1183 5.30783 11.7307 5.09579 11.2514C4.88375 10.772 4.89769 10.2224 4.98304 9.70505C5.11694 8.89079 5.42539 8.1371 5.84803 7.43174C5.85764 7.41564 5.8675 7.39929 5.87712 7.3827C5.60762 8.60999 5.7021 9.78054 6.6106 10.5061C7.27245 11.0348 8.161 10.9609 9.01709 10.6585C9.01709 10.6585 9.03609 12.2546 8.95146 13.0378Z" fill="var(--fill-0, #210017)"/>
<path id="Vector_59" d="M9.20834 3.43869C9.38504 3.62333 9.45861 3.87648 9.54587 4.12121C9.25426 4.07193 8.94605 4.04813 8.72848 3.93946C8.54433 3.84763 8.38037 3.56635 8.26017 3.30094C8.5614 3.14636 8.97034 3.18963 9.20834 3.43869Z" fill="var(--fill-0, #6D1151)"/>
<path id="Vector_60" d="M12.0283 6.05796C11.7384 5.82428 10.9907 5.67234 10.7844 5.4954C10.6736 5.4002 10.6027 5.20018 10.5234 4.98622C10.6801 5.03021 10.8397 5.06988 10.989 5.12589C11.4352 5.29298 11.8074 5.63676 12.0283 6.05796Z" fill="var(--fill-0, #6D1151)"/>
<path id="Vector_61" d="M14.341 13.8925C14.3338 13.8541 14.3254 13.8156 14.3158 13.7769C14.2711 13.5966 14.2014 13.4158 14.1177 13.2364C14.0333 13.0554 13.9348 12.8761 13.8331 12.7006C13.8247 12.6854 13.816 12.6705 13.8073 12.6559C13.7143 12.496 13.6196 12.3397 13.5318 12.1885C13.2207 11.6526 13.7331 11.0103 13.7677 10.4287C13.8021 9.8474 13.5508 9.72046 13.2051 9.34038C12.8597 8.96029 13.4111 8.34677 13.2383 7.89744C13.0654 7.44812 12.6854 7.63828 12.357 7.36181C12.0964 7.14232 12.1841 6.72689 12.1711 6.40931C12.2004 6.50836 12.2216 6.60981 12.2339 6.71271C12.243 6.79012 12.2481 6.87018 12.2836 6.93941C12.3853 7.13751 12.657 7.14376 12.8741 7.19304C13.4234 7.3183 13.8016 7.9448 13.6568 8.48909C13.5886 8.7456 13.4234 8.97928 13.4198 9.24469C13.4191 9.30119 13.4268 9.36009 13.4571 9.40769C13.5152 9.49832 13.634 9.52188 13.7343 9.56179C14.1547 9.72912 14.3084 10.2623 14.2502 10.7112C14.1918 11.16 13.9824 11.5767 13.9035 12.0224C13.8848 12.1282 13.8737 12.2378 13.8973 12.3426C13.9312 12.4926 14.0314 12.6169 14.1095 12.7491C14.3132 13.0944 14.3629 13.4886 14.341 13.8925Z" fill="var(--fill-0, #6D1151)"/>
<path id="Vector_62" d="M21.1068 14.988C21.039 14.5772 20.8002 13.7107 20.9123 13.3754C21.0505 12.9606 21.1714 12.4421 20.7048 12.2002C20.2382 11.9584 20.1519 11.7682 20.1692 11.2324C20.1862 10.6967 19.8408 10.1611 19.4604 9.60791C19.0804 9.05497 19.4431 8.81312 19.1667 8.25994C18.8902 7.707 18.199 7.72431 18.1644 7.18868C18.1298 6.6528 18.2853 5.8407 17.836 5.495C17.3867 5.14929 17.1102 4.87282 16.9547 4.37181C16.7991 3.87055 16.7818 3.47316 16.2116 3.23107C15.6413 2.98922 15.8142 2.19418 15.4338 1.91771C15.0538 1.64124 14.4489 2.00426 14.0169 1.52032C13.5849 1.03637 13.5329 0.535363 13.0492 0.518054C12.5653 0.500744 11.8049 0.829143 11.4419 0.638979C11.0791 0.448816 11.1308 0.0687296 10.6644 0.206965C10.1977 0.3452 9.95565 0.518054 9.7138 0.656289C9.7138 0.656289 8.98031 -0.127925 8.49661 0.177394C8.01266 0.482473 7.48761 1.00753 7.29072 1.05128C7.09406 1.09503 6.43775 1.00753 6.1971 1.27005C5.95645 1.53258 5.80331 2.26102 5.51914 2.43267C5.23474 2.60432 4.44716 3.15125 4.33778 3.43565C4.22839 3.71982 4.33778 4.09173 4.18464 4.48552C4.03149 4.87931 3.55044 5.55726 3.41917 5.92917C3.28791 6.30109 3.76921 6.76051 3.63795 7.17593C3.50668 7.5916 3.11289 8.24792 3.09102 8.5542C3.06914 8.86024 3.26603 9.16652 3.17852 9.86659C3.09102 10.5664 2.52221 10.9383 2.45658 11.354C2.39095 11.7697 2.95975 12.4039 2.80661 12.8195C2.80661 12.8195 2.19405 13.1696 2.12866 13.4977C2.06928 13.7946 2.59048 14.4096 2.54336 14.7666C3.88196 14.3819 5.84442 14.0502 7.22701 13.8052C7.55204 13.5001 7.87515 13.3061 8.15595 13.3309C8.19417 13.3213 8.22302 13.341 8.22302 13.341C8.37784 13.0852 8.656 12.8395 8.9517 13.0381C9.03632 12.2548 9.01733 10.6587 9.01733 10.6587C8.16124 10.9612 7.27269 11.035 6.61084 10.5063C4.3195 8.67633 7.20561 4.01504 8.05377 2.75241C8.05978 2.77285 8.35236 3.75155 8.72884 3.93979C9.10893 4.12971 9.76572 4.06072 10.1285 4.31988C10.4915 4.57904 10.5432 5.28752 10.7853 5.495C11.0271 5.70247 12.0123 5.87532 12.1333 6.18617C12.2542 6.49726 12.0294 7.08482 12.3578 7.36153C12.6862 7.638 13.0663 7.44784 13.2391 7.89716C13.412 8.34648 12.8605 8.96001 13.206 9.34009C13.5517 9.72018 13.8029 9.84712 13.7685 10.4284C13.7339 11.01 13.2216 11.6523 13.5327 12.1882C13.6204 12.3394 13.7152 12.4957 13.8082 12.6556C13.8169 12.6702 13.8255 12.6851 13.8339 12.7003C13.9356 12.8758 14.0342 13.0551 14.1186 13.2362C14.2022 13.4155 14.2719 13.5963 14.3167 13.7766C14.328 13.8216 14.3373 13.8663 14.3453 13.911C14.4489 14.4985 14.1724 15.1727 14.639 15.4318C15.1057 15.691 15.7795 14.9998 16.1599 15.0171C16.1618 15.0171 16.1637 15.0173 16.1656 15.0176C16.5448 15.0373 17.009 15.3282 17.4732 15.3282C17.9375 15.3282 18.8039 15.19 18.9938 15.2763C19.184 15.3628 19.8235 16.0713 20.3074 15.8121C20.7911 15.5527 21.0676 15.3628 21.1195 15.19C21.1294 15.1568 21.1229 15.0851 21.1068 14.988ZM14.1782 13.341C14.1782 13.341 14.2054 13.3059 14.2356 13.3316C14.2162 13.3338 14.1972 13.3366 14.1782 13.341Z" stroke="var(--stroke-0, black)" stroke-width="0.213696" stroke-linecap="round" stroke-linejoin="round"/>
<g id="Group_2">
<path id="Vector_63" d="M8.16349 5.31309H10.3789V5.7314C10.3789 6.33122 9.89203 6.81805 9.29221 6.81805H9.25038C8.65056 6.81805 8.16373 6.33122 8.16373 5.7314V5.31309H8.16349Z" fill="var(--fill-0, #E86F3A)" stroke="var(--stroke-0, black)" stroke-width="0.213696" stroke-linecap="round" stroke-linejoin="round"/>
<path id="Vector_64" d="M5.19865 5.31309H7.41401V5.7314C7.41401 6.33122 6.92718 6.81805 6.32736 6.81805H6.28553C5.68571 6.81805 5.19889 6.33122 5.19889 5.7314V5.31309H5.19865Z" fill="var(--fill-0, #E86F3A)" stroke="var(--stroke-0, black)" stroke-width="0.213696" stroke-linecap="round" stroke-linejoin="round"/>
<path id="Vector_65" d="M7.41495 5.73156C7.41495 5.73156 7.65993 5.34402 8.16455 5.73156" stroke="var(--stroke-0, black)" stroke-width="0.213696" stroke-linecap="round" stroke-linejoin="round"/>
</g>
</g>
</svg>
