<svg preserveAspectRatio="none" width="100%" height="100%" overflow="visible" style="display: block;" viewBox="0 0 20 20" fill="none" xmlns="http://www.w3.org/2000/svg">
<path id="Vector" d="M7 9C6.80222 9 6.60888 9.05865 6.44443 9.16853C6.27998 9.27841 6.15181 9.43459 6.07612 9.61732C6.00043 9.80004 5.98063 10.0011 6.01921 10.1951C6.0578 10.3891 6.15304 10.5673 6.29289 10.7071C6.43275 10.847 6.61093 10.9422 6.80491 10.9808C6.99889 11.0194 7.19996 10.9996 7.38268 10.9239C7.56541 10.8482 7.72159 10.72 7.83147 10.5556C7.94135 10.3911 8 10.1978 8 10C8 9.73478 7.89464 9.48043 7.70711 9.29289C7.51957 9.10536 7.26522 9 7 9ZM15 0H5C3.67392 0 2.40215 0.526784 1.46447 1.46447C0.526784 2.40215 0 3.67392 0 5V15C0 16.3261 0.526784 17.5979 1.46447 18.5355C2.40215 19.4732 3.67392 20 5 20H15C16.3261 20 17.5979 19.4732 18.5355 18.5355C19.4732 17.5979 20 16.3261 20 15V5C20 3.67392 19.4732 2.40215 18.5355 1.46447C17.5979 0.526784 16.3261 0 15 0V0ZM18 15C18 15.7956 17.6839 16.5587 17.1213 17.1213C16.5587 17.6839 15.7956 18 15 18H5C4.20435 18 3.44129 17.6839 2.87868 17.1213C2.31607 16.5587 2 15.7956 2 15V5C2 4.20435 2.31607 3.44129 2.87868 2.87868C3.44129 2.31607 4.20435 2 5 2H15C15.7956 2 16.5587 2.31607 17.1213 2.87868C17.6839 3.44129 18 4.20435 18 5V15ZM13 9C12.8022 9 12.6089 9.05865 12.4444 9.16853C12.28 9.27841 12.1518 9.43459 12.0761 9.61732C12.0004 9.80004 11.9806 10.0011 12.0192 10.1951C12.0578 10.3891 12.153 10.5673 12.2929 10.7071C12.4327 10.847 12.6109 10.9422 12.8049 10.9808C12.9989 11.0194 13.2 10.9996 13.3827 10.9239C13.5654 10.8482 13.7216 10.72 13.8315 10.5556C13.9414 10.3911 14 10.1978 14 10C14 9.73478 13.8946 9.48043 13.7071 9.29289C13.5196 9.10536 13.2652 9 13 9Z" fill="var(--fill-0, #1E1F26)"/>
</svg>
