<svg preserveAspectRatio="none" width="100%" height="100%" overflow="visible" style="display: block;" viewBox="0 0 17.3944 19.0094" fill="none" xmlns="http://www.w3.org/2000/svg">
<path id="Vector" d="M12.8444 4C13.2399 4 13.6266 3.8827 13.9555 3.66294C14.2844 3.44318 14.5407 3.13082 14.6921 2.76537C14.8435 2.39992 14.8831 1.99778 14.8059 1.60982C14.7288 1.22186 14.5383 0.865492 14.2586 0.585787C13.9789 0.306082 13.6225 0.115601 13.2345 0.0384303C12.8466 -0.0387401 12.4444 0.000866564 12.079 0.152242C11.7135 0.303617 11.4012 0.559962 11.1814 0.88886C10.9617 1.21776 10.8444 1.60444 10.8444 2C10.8444 2.53043 11.0551 3.03914 11.4301 3.41421C11.8052 3.78929 12.3139 4 12.8444 4ZM9.54435 15.4C9.14354 15.9248 8.61903 16.3422 8.01763 16.615C7.41623 16.8878 6.75666 17.0074 6.09777 16.9632C5.43889 16.919 4.80119 16.7124 4.2416 16.3618C3.68201 16.0111 3.21793 15.5274 2.89078 14.9538C2.56363 14.3802 2.38359 13.7345 2.36672 13.0743C2.34986 12.4142 2.4967 11.7601 2.79413 11.1705C3.09157 10.5809 3.53035 10.0742 4.07131 9.69542C4.61227 9.31668 5.23858 9.07777 5.89435 9C6.15957 8.97083 6.40233 8.83749 6.56924 8.62933C6.73615 8.42116 6.81353 8.15522 6.78435 7.89C6.75518 7.62478 6.62184 7.38202 6.41368 7.21511C6.20551 7.04821 5.93957 6.97083 5.67435 7C4.08305 7.08885 2.59223 7.8062 1.52983 8.99424C0.467438 10.1823 -0.079494 11.7437 0.0093535 13.335C0.098201 14.9263 0.815551 16.4171 2.00359 17.4795C3.19164 18.5419 4.75305 19.0888 6.34435 19C7.27582 19 8.1945 18.7831 9.02764 18.3666C9.86077 17.95 10.5855 17.3452 11.1444 16.6C11.3035 16.3878 11.3718 16.1211 11.3343 15.8586C11.2968 15.596 11.1565 15.3591 10.9444 15.2C10.7322 15.0409 10.4655 14.9725 10.2029 15.0101C9.94038 15.0476 9.70348 15.1878 9.54435 15.4V15.4ZM16.3444 17H15.3444V12C15.3444 11.7348 15.239 11.4804 15.0515 11.2929C14.8639 11.1054 14.6096 11 14.3444 11H9.77435L11.4644 6.34V6.03C11.4693 5.9701 11.4693 5.9099 11.4644 5.85C11.47 5.7868 11.47 5.72321 11.4644 5.66C11.4383 5.60134 11.4082 5.54454 11.3744 5.49C11.3443 5.43545 11.3074 5.38503 11.2644 5.34C11.2214 5.28913 11.1708 5.24527 11.1144 5.21C11.1144 5.21 11.1144 5.15 11.0344 5.13L6.55435 2.55H6.43435C6.37304 2.52408 6.30943 2.50399 6.24435 2.49H5.84435C5.77488 2.50436 5.70762 2.5279 5.64435 2.56H5.53435L2.84435 4.13C2.65317 4.23831 2.50298 4.40657 2.417 4.60877C2.33102 4.81098 2.31403 5.03588 2.36866 5.24871C2.42329 5.46154 2.5465 5.65045 2.71924 5.78625C2.89198 5.92204 3.10464 5.99717 3.32435 6C3.50629 6.00479 3.68608 5.95985 3.84435 5.87L6.07435 4.57L9.31435 6.45L7.42435 11.66C7.41949 11.7132 7.41949 11.7668 7.42435 11.82C7.41499 11.8796 7.41499 11.9404 7.42435 12C7.44279 12.1283 7.46951 12.2552 7.50435 12.38L7.61435 12.53C7.6416 12.5892 7.67881 12.6434 7.72435 12.69C7.7671 12.7257 7.81413 12.7559 7.86435 12.78C7.92386 12.8258 7.98746 12.8659 8.05435 12.9C8.16335 12.9396 8.2784 12.9599 8.39435 12.96H13.3944V17.96C13.3944 18.2252 13.4997 18.4796 13.6872 18.6671C13.8748 18.8546 14.1291 18.96 14.3944 18.96H16.3944C16.6596 18.96 16.9139 18.8546 17.1015 18.6671C17.289 18.4796 17.3944 18.2252 17.3944 17.96C17.3944 17.6948 17.289 17.4404 17.1015 17.2529C16.9139 17.0654 16.6596 16.96 16.3944 16.96L16.3444 17Z" fill="var(--fill-0, #1E1F26)"/>
</svg>
