<svg preserveAspectRatio="none" width="100%" height="100%" overflow="visible" style="display: block;" viewBox="0 0 12.0989 20.0002" fill="none" xmlns="http://www.w3.org/2000/svg">
<path id="Vector" d="M11.0495 6.61008L10.0495 0.840083C10.0111 0.603458 9.88906 0.388475 9.70552 0.234295C9.52197 0.0801156 9.28915 -0.00300208 9.04945 8.28891e-05H3.04945C2.80976 -0.00300208 2.57694 0.0801156 2.39339 0.234295C2.20985 0.388475 2.08779 0.603458 2.04945 0.840083L1.04945 6.61008C0.365823 7.60842 0 8.79011 0 10.0001C0 11.2101 0.365823 12.3917 1.04945 13.3901L2.04945 19.1601C2.08779 19.3967 2.20985 19.6117 2.39339 19.7659C2.57694 19.92 2.80976 20.0032 3.04945 20.0001H9.04945C9.28915 20.0032 9.52197 19.92 9.70552 19.7659C9.88906 19.6117 10.0111 19.3967 10.0495 19.1601L11.0495 13.3901C11.7331 12.3917 12.0989 11.2101 12.0989 10.0001C12.0989 8.79011 11.7331 7.60842 11.0495 6.61008ZM3.89946 2.00008H8.19945L8.63945 4.59008C7.83087 4.20314 6.94586 4.00228 6.04945 4.00228C5.15305 4.00228 4.26804 4.20314 3.45945 4.59008L3.89946 2.00008ZM8.19945 18.0001H3.89946L3.45945 15.4101C4.26804 15.797 5.15305 15.9979 6.04945 15.9979C6.94586 15.9979 7.83087 15.797 8.63945 15.4101L8.19945 18.0001ZM6.04945 14.0001C5.25833 14.0001 4.48497 13.7655 3.82717 13.326C3.16938 12.8864 2.65669 12.2617 2.35394 11.5308C2.05119 10.7999 1.97197 9.99565 2.12631 9.21972C2.28065 8.4438 2.66162 7.73107 3.22103 7.17166C3.78044 6.61225 4.49317 6.23128 5.26909 6.07694C6.04502 5.9226 6.84928 6.00181 7.58019 6.30456C8.31109 6.60732 8.93581 7.12001 9.37533 7.7778C9.81486 8.4356 10.0495 9.20896 10.0495 10.0001C10.0495 11.0609 9.62803 12.0784 8.87788 12.8285C8.12774 13.5787 7.11032 14.0001 6.04945 14.0001Z" fill="var(--fill-0, #1E1F26)"/>
</svg>
