<svg preserveAspectRatio="none" width="100%" height="100%" overflow="visible" style="display: block;" viewBox="0 0 20.0099 20.0099" fill="none" xmlns="http://www.w3.org/2000/svg">
<path id="Vector" d="M19.7141 18.2941L3.71409 2.29409L1.71409 0.294092C1.52579 0.105788 1.27039 -1.9841e-09 1.00409 0C0.73779 1.9841e-09 0.482395 0.105788 0.294092 0.294092C0.105788 0.482395 1.9841e-09 0.73779 0 1.00409C-1.9841e-09 1.27039 0.105788 1.52579 0.294092 1.71409L2.00409 3.41409V9.88409C2.00479 11.3162 2.34722 12.7274 3.00291 14.0005C3.65861 15.2736 4.60865 16.3719 5.77409 17.2041L9.42409 19.8141C9.59345 19.9347 9.79619 19.9995 10.0041 19.9995C10.212 19.9995 10.4147 19.9347 10.5841 19.8141L14.2341 17.2041C14.5362 16.9904 14.8235 16.7565 15.0941 16.5041L18.2941 19.7141C18.3871 19.8078 18.4977 19.8822 18.6195 19.933C18.7414 19.9838 18.8721 20.0099 19.0041 20.0099C19.1361 20.0099 19.2668 19.9838 19.3887 19.933C19.5105 19.8822 19.6211 19.8078 19.7141 19.7141C19.8078 19.6211 19.8822 19.5105 19.933 19.3887C19.9838 19.2668 20.0099 19.1361 20.0099 19.0041C20.0099 18.8721 19.9838 18.7414 19.933 18.6195C19.8822 18.4977 19.8078 18.3871 19.7141 18.2941V18.2941ZM13.0741 15.5841L10.0041 17.7741L6.93409 15.5841C6.02713 14.9359 5.28808 14.0806 4.77844 13.0891C4.26881 12.0977 4.00332 10.9988 4.00409 9.88409V5.41409L13.6741 15.0941C13.4841 15.2641 13.2841 15.4241 13.0741 15.5841ZM8.07409 3.07409C8.74639 2.84897 9.39326 2.55403 10.0041 2.19409C11.8033 3.28884 13.9068 3.77615 16.0041 3.58409V9.88409C16.0047 10.2796 15.9713 10.6744 15.9041 11.0641C15.8827 11.1941 15.8872 11.3271 15.9174 11.4554C15.9476 11.5837 16.0028 11.7048 16.08 11.8117C16.1571 11.9186 16.2546 12.0091 16.3669 12.0782C16.4791 12.1472 16.6039 12.1934 16.7341 12.2141H16.8941C17.1338 12.2172 17.3666 12.1341 17.5502 11.9799C17.7337 11.8257 17.8558 11.6107 17.8941 11.3741C17.9726 10.8779 18.0127 10.3764 18.0141 9.87409V2.43409C18.0131 2.28639 17.9794 2.14073 17.9155 2.00759C17.8515 1.87446 17.7588 1.75715 17.6441 1.66409C17.5299 1.56983 17.3962 1.50209 17.2527 1.46577C17.1092 1.42946 16.9594 1.42547 16.8141 1.45409C15.7444 1.68614 14.6381 1.69306 13.5655 1.47442C12.493 1.25578 11.4776 0.816355 10.5841 0.184092C10.4167 0.0679643 10.2178 0.00573623 10.0141 0.00573623C9.81036 0.00573623 9.61149 0.0679643 9.44409 0.184092C8.82753 0.60941 8.15429 0.946031 7.44409 1.18409C7.31934 1.22611 7.20408 1.2923 7.1049 1.37886C7.00572 1.46543 6.92457 1.57068 6.86607 1.68861C6.80757 1.80654 6.77286 1.93484 6.76395 2.06618C6.75503 2.19752 6.77207 2.32934 6.81409 2.45409C6.85612 2.57885 6.9223 2.6941 7.00886 2.79328C7.09543 2.89246 7.20068 2.97362 7.31861 3.03212C7.55679 3.15027 7.83214 3.16896 8.08409 3.08409L8.07409 3.07409Z" fill="var(--fill-0, #1E1F26)"/>
</svg>
