<svg preserveAspectRatio="none" width="100%" height="100%" overflow="visible" style="display: block;" viewBox="0 0 12.0099 18.0099" fill="none" xmlns="http://www.w3.org/2000/svg">
<path id="Vector" d="M5.29409 6.71409C5.38705 6.80782 5.49766 6.88221 5.61951 6.93298C5.74137 6.98375 5.87208 7.00989 6.00409 7.00989C6.1361 7.00989 6.26681 6.98375 6.38867 6.93298C6.51053 6.88221 6.62113 6.80782 6.71409 6.71409L11.7141 1.71409C11.9024 1.52579 12.0082 1.27039 12.0082 1.00409C12.0082 0.73779 11.9024 0.482395 11.7141 0.294092C11.5258 0.105788 11.2704 0 11.0041 0C10.7378 0 10.4824 0.105788 10.2941 0.294092L6.00409 4.59409L1.71409 0.294092C1.52579 0.105788 1.27039 0 1.00409 0C0.73779 0 0.482395 0.105788 0.294092 0.294092C0.105788 0.482395 0 0.73779 0 1.00409C0 1.27039 0.105788 1.52579 0.294092 1.71409L5.29409 6.71409ZM6.71409 11.2941C6.62113 11.2004 6.51053 11.126 6.38867 11.0752C6.26681 11.0244 6.1361 10.9983 6.00409 10.9983C5.87208 10.9983 5.74137 11.0244 5.61951 11.0752C5.49766 11.126 5.38705 11.2004 5.29409 11.2941L0.294092 16.2941C0.105788 16.4824 0 16.7378 0 17.0041C0 17.2704 0.105788 17.5258 0.294092 17.7141C0.482395 17.9024 0.73779 18.0082 1.00409 18.0082C1.27039 18.0082 1.52579 17.9024 1.71409 17.7141L6.00409 13.4141L10.2941 17.7141C10.3871 17.8078 10.4977 17.8822 10.6195 17.933C10.7414 17.9838 10.8721 18.0099 11.0041 18.0099C11.1361 18.0099 11.2668 17.9838 11.3887 17.933C11.5105 17.8822 11.6211 17.8078 11.7141 17.7141C11.8078 17.6211 11.8822 17.5105 11.933 17.3887C11.9838 17.2668 12.0099 17.1361 12.0099 17.0041C12.0099 16.8721 11.9838 16.7414 11.933 16.6195C11.8822 16.4977 11.8078 16.3871 11.7141 16.2941L6.71409 11.2941Z" fill="var(--fill-0, #1E1F26)"/>
</svg>
