<svg preserveAspectRatio="none" width="100%" height="100%" overflow="visible" style="display: block;" viewBox="0 0 19.97 16.1648" fill="none" xmlns="http://www.w3.org/2000/svg">
<path id="Vector" d="M12.5001 12.0013H11.7301L12.1201 11.3313C12.2527 11.1006 12.2883 10.8266 12.2189 10.5697C12.1495 10.3128 11.9809 10.094 11.7501 9.96135C11.5194 9.82874 11.2454 9.79322 10.9885 9.86261C10.7316 9.932 10.5127 10.1006 10.3801 10.3313L10.0001 11.0013L9.62013 10.3313C9.48752 10.1006 9.26868 9.932 9.01176 9.86261C8.75483 9.79322 8.48087 9.82874 8.25013 9.96135C8.01939 10.094 7.85078 10.3128 7.78139 10.5697C7.712 10.8266 7.74752 11.1006 7.88013 11.3313L8.27013 12.0013H7.50013C7.23491 12.0013 6.98056 12.1067 6.79302 12.2942C6.60548 12.4818 6.50013 12.7361 6.50013 13.0013C6.50013 13.2666 6.60548 13.5209 6.79302 13.7085C6.98056 13.896 7.23491 14.0013 7.50013 14.0013H8.27013L7.88013 14.6613C7.74752 14.8921 7.712 15.1661 7.78139 15.423C7.85078 15.6799 8.01939 15.8987 8.25013 16.0313C8.48087 16.164 8.75483 16.1995 9.01176 16.1301C9.26868 16.0607 9.48752 15.8921 9.62013 15.6613L10.0001 15.0013L10.3801 15.6613C10.5127 15.8921 10.7316 16.0607 10.9885 16.1301C11.2454 16.1995 11.5194 16.164 11.7501 16.0313C11.9809 15.8987 12.1495 15.6799 12.2189 15.423C12.2883 15.1661 12.2527 14.8921 12.1201 14.6613L11.7301 14.0013H12.5001C12.7653 14.0013 13.0197 13.896 13.2072 13.7085C13.3948 13.5209 13.5001 13.2666 13.5001 13.0013C13.5001 12.7361 13.3948 12.4818 13.2072 12.2942C13.0197 12.1067 12.7653 12.0013 12.5001 12.0013V12.0013ZM16.4201 4.21135C15.8105 2.80773 14.7577 1.64256 13.4229 0.894183C12.0881 0.145807 10.5448 -0.144539 9.02925 0.0675888C7.51373 0.279716 6.10948 0.982629 5.03143 2.06873C3.95339 3.15484 3.26096 4.56429 3.06013 6.08135C2.18252 6.2935 1.4025 6.79632 0.846927 7.50803C0.291353 8.21975 -0.00709229 9.09849 0.000127995 10.0013C0.00370965 10.9452 0.340928 11.8573 0.952151 12.5765C1.56337 13.2957 2.40922 13.7756 3.34013 13.9313H3.50013C3.76534 13.9526 4.02813 13.8676 4.23067 13.695C4.43321 13.5225 4.55891 13.2766 4.58013 13.0113C4.60135 12.7461 4.51634 12.4833 4.3438 12.2808C4.17127 12.0783 3.92534 11.9526 3.66013 11.9313C3.19054 11.8504 2.76529 11.6044 2.46095 11.2378C2.15662 10.8711 1.9932 10.4078 2.00013 9.93135C2.00013 9.40092 2.21084 8.89221 2.58591 8.51714C2.96099 8.14206 3.46969 7.93135 4.00013 7.93135C4.26534 7.93135 4.5197 7.82599 4.70723 7.63846C4.89477 7.45092 5.00013 7.19657 5.00013 6.93135C5.00268 5.74863 5.42441 4.6051 6.1904 3.70393C6.95638 2.80276 8.01702 2.2023 9.18388 2.00922C10.3507 1.81615 11.5483 2.04296 12.5637 2.64936C13.5791 3.25576 14.3467 4.20249 14.7301 5.32135C14.7888 5.49133 14.8922 5.64234 15.0295 5.75849C15.1667 5.87464 15.3328 5.95163 15.5101 5.98135C16.1469 6.09699 16.7291 6.41543 17.17 6.88913C17.6109 7.36283 17.8868 7.96641 17.9566 8.60978C18.0263 9.25315 17.8861 9.90182 17.557 10.459C17.2278 11.0162 16.7273 11.452 16.1301 11.7013C15.9975 11.7415 15.8746 11.8088 15.7693 11.899C15.6641 11.9891 15.5787 12.1002 15.5186 12.2251C15.4586 12.3501 15.4251 12.4861 15.4204 12.6246C15.4157 12.7632 15.4399 12.9012 15.4914 13.0298C15.5429 13.1585 15.6205 13.2751 15.7195 13.3722C15.8184 13.4693 15.9364 13.5447 16.0661 13.5938C16.1957 13.6428 16.3341 13.6644 16.4726 13.6571C16.611 13.6498 16.7464 13.6138 16.8701 13.5513C17.8248 13.1591 18.6347 12.4811 19.1887 11.6103C19.7427 10.7395 20.0136 9.71854 19.9643 8.68762C19.915 7.6567 19.5479 6.66629 18.9133 5.85232C18.2788 5.03834 17.4079 4.44068 16.4201 4.14135V4.21135Z" fill="var(--fill-0, #1E1F26)"/>
</svg>
