<svg preserveAspectRatio="none" width="100%" height="100%" overflow="visible" style="display: block;" viewBox="0 0 20 20.0003" fill="none" xmlns="http://www.w3.org/2000/svg">
<path id="Vector" d="M7.29 9.71C7.38296 9.80373 7.49356 9.87812 7.61542 9.92889C7.73728 9.97966 7.86799 10.0058 8 10.0058C8.13201 10.0058 8.26272 9.97966 8.38458 9.92889C8.50644 9.87812 8.61704 9.80373 8.71 9.71L10 8.41L11.29 9.71C11.383 9.80373 11.4936 9.87812 11.6154 9.92889C11.7373 9.97966 11.868 10.0058 12 10.0058C12.132 10.0058 12.2627 9.97966 12.3846 9.92889C12.5064 9.87812 12.617 9.80373 12.71 9.71C12.8037 9.61704 12.8781 9.50644 12.9289 9.38458C12.9797 9.26272 13.0058 9.13201 13.0058 9C13.0058 8.86799 12.9797 8.73728 12.9289 8.61542C12.8781 8.49356 12.8037 8.38296 12.71 8.29L11.41 7L12.71 5.71C12.8983 5.5217 13.0041 5.2663 13.0041 5C13.0041 4.7337 12.8983 4.4783 12.71 4.29C12.5217 4.1017 12.2663 3.99591 12 3.99591C11.7337 3.99591 11.4783 4.1017 11.29 4.29L10 5.59L8.71 4.29C8.5217 4.1017 8.2663 3.99591 8 3.99591C7.7337 3.99591 7.4783 4.1017 7.29 4.29C7.1017 4.4783 6.99591 4.7337 6.99591 5C6.99591 5.2663 7.1017 5.5217 7.29 5.71L8.59 7L7.29 8.29C7.19627 8.38296 7.12188 8.49356 7.07111 8.61542C7.02034 8.73728 6.9942 8.86799 6.9942 9C6.9942 9.13201 7.02034 9.26272 7.07111 9.38458C7.12188 9.50644 7.19627 9.61704 7.29 9.71V9.71ZM19 12H18V2H19C19.2652 2 19.5196 1.89464 19.7071 1.70711C19.8946 1.51957 20 1.26522 20 1C20 0.734784 19.8946 0.48043 19.7071 0.292893C19.5196 0.105357 19.2652 0 19 0H1C0.734784 0 0.48043 0.105357 0.292893 0.292893C0.105357 0.48043 0 0.734784 0 1C0 1.26522 0.105357 1.51957 0.292893 1.70711C0.48043 1.89464 0.734784 2 1 2H2V12H1C0.734784 12 0.48043 12.1054 0.292893 12.2929C0.105357 12.4804 0 12.7348 0 13C0 13.2652 0.105357 13.5196 0.292893 13.7071C0.48043 13.8946 0.734784 14 1 14H9V15.15L4.45 18.15C4.26333 18.2655 4.11988 18.4393 4.04177 18.6445C3.96366 18.8496 3.95523 19.0748 4.01779 19.2852C4.08035 19.4957 4.21042 19.6797 4.38793 19.8089C4.56544 19.938 4.78053 20.0052 5 20C5.1966 20.0022 5.38896 19.9428 5.55 19.83L9 17.55V19C9 19.2652 9.10536 19.5196 9.29289 19.7071C9.48043 19.8946 9.73478 20 10 20C10.2652 20 10.5196 19.8946 10.7071 19.7071C10.8946 19.5196 11 19.2652 11 19V17.55L14.45 19.83C14.611 19.9428 14.8034 20.0022 15 20C15.2136 19.9984 15.4212 19.9283 15.5921 19.8002C15.7631 19.672 15.8885 19.4925 15.95 19.2879C16.0115 19.0832 16.0058 18.8643 15.9338 18.6631C15.8619 18.462 15.7273 18.2892 15.55 18.17L11 15.17V14H19C19.2652 14 19.5196 13.8946 19.7071 13.7071C19.8946 13.5196 20 13.2652 20 13C20 12.7348 19.8946 12.4804 19.7071 12.2929C19.5196 12.1054 19.2652 12 19 12ZM16 12H4V2H16V12Z" fill="var(--fill-0, #1E1F26)"/>
</svg>
