<svg preserveAspectRatio="none" width="100%" height="100%" overflow="visible" style="display: block;" viewBox="0 0 8.00989 14.0099" fill="none" xmlns="http://www.w3.org/2000/svg">
<path id="Vector" d="M3.29409 4.71409C3.38705 4.80782 3.49766 4.88221 3.61951 4.93298C3.74137 4.98375 3.87208 5.00989 4.00409 5.00989C4.1361 5.00989 4.26681 4.98375 4.38867 4.93298C4.51053 4.88221 4.62113 4.80782 4.71409 4.71409L7.71409 1.71409C7.9024 1.52579 8.00818 1.27039 8.00818 1.00409C8.00818 0.73779 7.9024 0.482395 7.71409 0.294092C7.52579 0.105788 7.27039 0 7.00409 0C6.73779 0 6.4824 0.105788 6.29409 0.294092L4.00409 2.59409L1.71409 0.294092C1.52579 0.105788 1.27039 -1.9841e-09 1.00409 0C0.73779 1.9841e-09 0.482395 0.105788 0.294092 0.294092C0.105788 0.482395 1.9841e-09 0.73779 0 1.00409C-1.9841e-09 1.27039 0.105788 1.52579 0.294092 1.71409L3.29409 4.71409ZM4.71409 9.29409C4.62113 9.20036 4.51053 9.12597 4.38867 9.0752C4.26681 9.02443 4.1361 8.99829 4.00409 8.99829C3.87208 8.99829 3.74137 9.02443 3.61951 9.0752C3.49766 9.12597 3.38705 9.20036 3.29409 9.29409L0.294092 12.2941C0.105788 12.4824 0 12.7378 0 13.0041C0 13.2704 0.105788 13.5258 0.294092 13.7141C0.482395 13.9024 0.73779 14.0082 1.00409 14.0082C1.27039 14.0082 1.52579 13.9024 1.71409 13.7141L4.00409 11.4141L6.29409 13.7141C6.38705 13.8078 6.49766 13.8822 6.61951 13.933C6.74137 13.9838 6.87208 14.0099 7.00409 14.0099C7.1361 14.0099 7.26681 13.9838 7.38867 13.933C7.51053 13.8822 7.62113 13.8078 7.71409 13.7141C7.80782 13.6211 7.88221 13.5105 7.93298 13.3887C7.98375 13.2668 8.00989 13.1361 8.00989 13.0041C8.00989 12.8721 7.98375 12.7414 7.93298 12.6195C7.88221 12.4977 7.80782 12.3871 7.71409 12.2941L4.71409 9.29409Z" fill="var(--fill-0, #1E1F26)"/>
</svg>
