<svg preserveAspectRatio="none" width="100%" height="100%" overflow="visible" style="display: block;" viewBox="0 0 20.0099 20.0099" fill="none" xmlns="http://www.w3.org/2000/svg">
<path id="Vector" d="M5.00409 8.00409C4.80631 8.00409 4.61297 8.06274 4.44852 8.17262C4.28407 8.2825 4.1559 8.43868 4.08021 8.62141C4.00452 8.80413 3.98472 9.0052 4.02331 9.19918C4.06189 9.39316 4.15713 9.57135 4.29699 9.7112C4.43684 9.85105 4.61502 9.94629 4.809 9.98488C5.00298 10.0235 5.20405 10.0037 5.38678 9.92797C5.5695 9.85228 5.72568 9.72411 5.83556 9.55966C5.94544 9.39521 6.00409 9.20187 6.00409 9.00409C6.00409 8.73887 5.89873 8.48452 5.7112 8.29698C5.52366 8.10945 5.26931 8.00409 5.00409 8.00409ZM1.71409 0.294092C1.62085 0.200853 1.51016 0.126892 1.38834 0.0764319C1.26652 0.0259715 1.13595 0 1.00409 0C0.872232 0 0.741664 0.0259715 0.619842 0.0764319C0.49802 0.126892 0.38733 0.200853 0.294092 0.294092C0.105788 0.482395 0 0.73779 0 1.00409C0 1.27039 0.105788 1.52579 0.294092 1.71409L2.62409 4.00409C1.89599 4.09704 1.22723 4.4537 0.744399 5.00656C0.261571 5.55942 -0.00181756 6.2701 0.00409162 7.00409V13.0041C0.00409162 13.7997 0.320162 14.5628 0.882771 15.1254C1.44538 15.688 2.20844 16.0041 3.00409 16.0041H4.00409V19.0041C4.00409 19.2693 4.10945 19.5237 4.29699 19.7112C4.48452 19.8987 4.73888 20.0041 5.00409 20.0041H15.0041C15.2693 20.0041 15.5237 19.8987 15.7112 19.7112C15.8987 19.5237 16.0041 19.2693 16.0041 19.0041V17.4141L18.2941 19.7141C18.3871 19.8078 18.4977 19.8822 18.6195 19.933C18.7414 19.9838 18.8721 20.0099 19.0041 20.0099C19.1361 20.0099 19.2668 19.9838 19.3887 19.933C19.5105 19.8822 19.6211 19.8078 19.7141 19.7141C19.8078 19.6211 19.8822 19.5105 19.933 19.3887C19.9838 19.2668 20.0099 19.1361 20.0099 19.0041C20.0099 18.8721 19.9838 18.7414 19.933 18.6195C19.8822 18.4977 19.8078 18.3871 19.7141 18.2941L1.71409 0.294092ZM4.00409 13.0041V14.0041H3.00409C2.73888 14.0041 2.48452 13.8987 2.29699 13.7112C2.10945 13.5237 2.00409 13.2693 2.00409 13.0041V7.00409C2.00409 6.73888 2.10945 6.48452 2.29699 6.29699C2.48452 6.10945 2.73888 6.00409 3.00409 6.00409H4.59409L10.5941 12.0041H5.00409C4.73888 12.0041 4.48452 12.1094 4.29699 12.297C4.10945 12.4845 4.00409 12.7389 4.00409 13.0041ZM14.0041 18.0041H6.00409V14.0041H12.5941L14.0041 15.4141V18.0041ZM17.0041 4.00409H16.0041V1.00409C16.0041 0.738875 15.8987 0.484521 15.7112 0.296985C15.5237 0.109448 15.2693 0.00409162 15.0041 0.00409162H6.66409C6.39888 0.00409162 6.14452 0.109448 5.95698 0.296985C5.76945 0.484521 5.66409 0.738875 5.66409 1.00409C5.66409 1.26931 5.76945 1.52366 5.95698 1.7112C6.14452 1.89873 6.39888 2.00409 6.66409 2.00409H14.0041V4.00409H10.6641C10.3989 4.00409 10.1445 4.10945 9.95698 4.29699C9.76945 4.48452 9.66409 4.73888 9.66409 5.00409C9.66409 5.26931 9.76945 5.52366 9.95698 5.7112C10.1445 5.89873 10.3989 6.00409 10.6641 6.00409H17.0041C17.2693 6.00409 17.5237 6.10945 17.7112 6.29699C17.8987 6.48452 18.0041 6.73888 18.0041 7.00409V13.0041C18.0096 13.0406 18.0096 13.0776 18.0041 13.1141C17.9778 13.2428 17.9771 13.3754 18.0021 13.5044C18.0271 13.6333 18.0772 13.7561 18.1496 13.8657C18.2221 13.9753 18.3154 14.0695 18.4242 14.143C18.5331 14.2165 18.6554 14.2679 18.7841 14.2941H18.9841C19.218 14.2988 19.4462 14.2213 19.6289 14.0752C19.8117 13.929 19.9373 13.7234 19.9841 13.4941C20.0049 13.3316 20.0116 13.1677 20.0041 13.0041V7.00409C20.0041 6.20844 19.688 5.44538 19.1254 4.88277C18.5628 4.32016 17.7997 4.00409 17.0041 4.00409Z" fill="var(--fill-0, #1E1F26)"/>
</svg>
