<svg preserveAspectRatio="none" width="100%" height="100%" overflow="visible" style="display: block;" viewBox="0 0 20.0099 20.0099" fill="none" xmlns="http://www.w3.org/2000/svg">
<path id="Vector" d="M2.9158 11.1241C3.00587 11.2682 3.13118 11.387 3.2799 11.4692C3.42863 11.5515 3.59585 11.5944 3.7658 11.5941C3.95077 11.5994 4.13358 11.5533 4.29389 11.4608C4.4542 11.3684 4.58573 11.2333 4.67383 11.0706C4.76193 10.9079 4.80315 10.7239 4.7929 10.5391C4.78266 10.3544 4.72135 10.1761 4.6158 10.0241C3.30737 7.94596 2.46471 5.60903 2.1458 3.17409C2.12427 3.02974 2.1346 2.88243 2.17606 2.7425C2.21752 2.60257 2.28911 2.47341 2.3858 2.36409C2.47951 2.25742 2.59486 2.17193 2.72418 2.11331C2.85349 2.05468 2.99381 2.02427 3.1358 2.02409H6.1358C6.36974 2.01937 6.59794 2.09684 6.78066 2.24302C6.96337 2.38919 7.08905 2.59482 7.1358 2.82409C7.1358 3.05409 7.2158 3.26409 7.2658 3.49409V3.62409C7.38216 4.14887 7.5393 4.66377 7.7358 5.16409L6.3458 5.82409C6.22569 5.87993 6.11788 5.95907 6.02861 6.05692C5.93934 6.15477 5.87041 6.26938 5.8258 6.39409C5.77491 6.51607 5.74871 6.64693 5.74871 6.77909C5.74871 6.91126 5.77491 7.04211 5.8258 7.16409C5.9258 7.37409 6.0258 7.58409 6.1458 7.80409C6.21113 7.91868 6.29848 8.01921 6.40283 8.09989C6.50718 8.18058 6.62645 8.23982 6.75379 8.27421C6.88113 8.3086 7.01402 8.31746 7.1448 8.30028C7.27558 8.2831 7.40166 8.24021 7.5158 8.17409C7.67921 8.0804 7.81284 7.94247 7.9013 7.77617C7.98976 7.60987 8.02945 7.42196 8.0158 7.23409L8.5858 7.02409C9.03821 6.8157 9.39658 6.44599 9.59078 5.98731C9.78498 5.52863 9.80103 5.01399 9.6358 4.54409C9.47431 4.12084 9.34396 3.68635 9.2458 3.24409V3.14409C9.2458 2.94409 9.1658 2.74409 9.1358 2.56409C9.02588 1.8557 8.66593 1.21008 8.12112 0.744151C7.57631 0.278221 6.88267 0.0227832 6.1658 0.0240916H3.1658C2.73632 0.0178424 2.31051 0.103888 1.91717 0.27641C1.52382 0.448931 1.1721 0.703906 0.885798 1.02409C0.601253 1.34743 0.389668 1.72825 0.265428 2.14065C0.141189 2.55306 0.107209 2.98738 0.165798 3.41409C0.512949 6.153 1.45128 8.78373 2.9158 11.1241V11.1241ZM17.5258 10.9141L16.9258 10.8041H16.8458C16.3934 10.7073 15.9488 10.577 15.5158 10.4141C15.0531 10.2481 14.5456 10.2584 14.09 10.4428C13.6344 10.6273 13.2627 10.973 13.0458 11.4141L12.8358 11.8741C12.1537 11.4795 11.5108 11.0208 10.9158 10.5041L19.7158 1.71409C19.809 1.62085 19.883 1.51016 19.9335 1.38834C19.9839 1.26652 20.0099 1.13595 20.0099 1.00409C20.0099 0.872232 19.9839 0.741664 19.9335 0.619842C19.883 0.49802 19.809 0.38733 19.7158 0.294092C19.6226 0.200853 19.5119 0.126892 19.39 0.0764319C19.2682 0.0259715 19.1377 0 19.0058 0C18.8739 0 18.7434 0.0259715 18.6215 0.0764319C18.4997 0.126892 18.389 0.200853 18.2958 0.294092L0.295798 18.2941C0.20207 18.3871 0.127676 18.4977 0.0769069 18.6195C0.0261382 18.7414 0 18.8721 0 19.0041C0 19.1361 0.0261382 19.2668 0.0769069 19.3887C0.127676 19.5105 0.20207 19.6211 0.295798 19.7141C0.388761 19.8078 0.499363 19.8822 0.621222 19.933C0.743081 19.9838 0.873786 20.0099 1.0058 20.0099C1.13781 20.0099 1.26852 19.9838 1.39037 19.933C1.51223 19.8822 1.62284 19.8078 1.7158 19.7141L6.3058 15.1141C9.1784 17.6953 12.7663 19.3446 16.5958 19.8441C16.7289 19.854 16.8626 19.854 16.9958 19.8441C17.7319 19.8479 18.4437 19.581 18.9958 19.0941C19.3122 18.8111 19.5649 18.4643 19.7373 18.0764C19.9096 17.6886 19.9978 17.2685 19.9958 16.8441V13.8441C19.9905 13.1443 19.7407 12.4684 19.2896 11.9333C18.8385 11.3982 18.2146 11.0377 17.5258 10.9141V10.9141ZM18.0058 16.9141C18.0056 17.0561 17.9752 17.1964 17.9166 17.3257C17.858 17.455 17.7725 17.5704 17.6658 17.6641C17.5565 17.7608 17.4273 17.8324 17.2874 17.8738C17.1475 17.9153 17.0001 17.9256 16.8558 17.9041C13.4587 17.4596 10.274 16.0031 7.7158 13.7241L9.4858 11.9541C10.5054 12.8428 11.6428 13.5865 12.8658 14.1641C12.9878 14.215 13.1186 14.2412 13.2508 14.2412C13.383 14.2412 13.5138 14.215 13.6358 14.1641C13.7605 14.1195 13.8751 14.0505 13.973 13.9613C14.0708 13.872 14.15 13.7642 14.2058 13.6441L14.8258 12.2341C15.3476 12.4277 15.8822 12.5847 16.4258 12.7041H16.5358L17.2258 12.8341C17.4514 12.8849 17.6524 13.0123 17.7946 13.1946C17.9368 13.377 18.0114 13.6029 18.0058 13.8341V16.9141Z" fill="var(--fill-0, #1E1F26)"/>
</svg>
