<svg preserveAspectRatio="none" width="100%" height="100%" overflow="visible" style="display: block;" viewBox="0 0 20.0059 20.9608" fill="none" xmlns="http://www.w3.org/2000/svg">
<path id="Vector" d="M17 9.96079C16.7348 9.96079 16.4804 10.0661 16.2929 10.2537C16.1054 10.4412 16 10.6956 16 10.9608V13.3508L14.5 11.8708C13.973 11.3648 13.2706 11.0822 12.54 11.0822C11.8094 11.0822 11.107 11.3648 10.58 11.8708L9.88 12.5708L7.39 10.0808C6.86912 9.56295 6.16449 9.27229 5.43 9.27229C4.69551 9.27229 3.99088 9.56295 3.47 10.0808L2 11.5708V5.96079C2 5.69558 2.10536 5.44122 2.29289 5.25369C2.48043 5.06615 2.73478 4.96079 3 4.96079H9C9.26522 4.96079 9.51957 4.85544 9.70711 4.6679C9.89464 4.48036 10 4.22601 10 3.96079C10 3.69558 9.89464 3.44122 9.70711 3.25369C9.51957 3.06615 9.26522 2.96079 9 2.96079H3C2.20435 2.96079 1.44129 3.27686 0.87868 3.83947C0.316071 4.40208 0 5.16514 0 5.96079V17.9608C0 18.7564 0.316071 19.5195 0.87868 20.0821C1.44129 20.6447 2.20435 20.9608 3 20.9608H15C15.7956 20.9608 16.5587 20.6447 17.1213 20.0821C17.6839 19.5195 18 18.7564 18 17.9608V10.9608C18 10.6956 17.8946 10.4412 17.7071 10.2537C17.5196 10.0661 17.2652 9.96079 17 9.96079ZM3 18.9608C2.73478 18.9608 2.48043 18.8554 2.29289 18.6679C2.10536 18.4804 2 18.226 2 17.9608V14.4008L4.88 11.4808C4.95271 11.4058 5.03975 11.3462 5.13595 11.3054C5.23214 11.2647 5.33554 11.2437 5.44 11.2437C5.54446 11.2437 5.64786 11.2647 5.74405 11.3054C5.84025 11.3462 5.92729 11.4058 6 11.4808L9.17 14.6508L13.43 18.9108L3 18.9608ZM16 17.9608C15.9965 18.1534 15.9375 18.3409 15.83 18.5008L11.29 13.9808L11.99 13.2908C12.1362 13.1455 12.3339 13.0639 12.54 13.0639C12.7461 13.0639 12.9438 13.1455 13.09 13.2908L16 16.1808V17.9608ZM19.72 2.71079L17.3 0.290793C17.1126 0.104542 16.8592 0 16.595 0C16.3308 0 16.0774 0.104542 15.89 0.290793L11.31 4.87079C11.2137 4.96257 11.1367 5.07264 11.0835 5.19455C11.0302 5.31647 11.0018 5.44778 11 5.58079V8.00079C11 8.26601 11.1054 8.52036 11.2929 8.7079C11.4804 8.89544 11.7348 9.00079 12 9.00079H14.42C14.6823 8.99969 14.9337 8.89554 15.12 8.71079L19.7 4.13079C19.7951 4.03916 19.871 3.92961 19.9235 3.80846C19.976 3.68732 20.004 3.55697 20.0058 3.42496C20.0077 3.29294 19.9834 3.16187 19.9343 3.03929C19.8853 2.91672 19.8124 2.80507 19.72 2.71079V2.71079ZM14 7.00079H13V6.00079L16.6 2.41079L17.6 3.41079L14 7.00079Z" fill="var(--fill-0, #1E1F26)"/>
</svg>
