<svg preserveAspectRatio="none" width="100%" height="100%" overflow="visible" style="display: block;" viewBox="0 0 20.1915 20.0405" fill="none" xmlns="http://www.w3.org/2000/svg">
<path id="Vector" d="M2.7931 8.6031C3.05831 8.63758 3.32636 8.56528 3.53828 8.40213C3.7502 8.23897 3.88862 7.99832 3.9231 7.7331C3.95758 7.46788 3.88529 7.19983 3.72213 6.98792C3.55897 6.776 3.31831 6.63758 3.0531 6.6031L1.2931 6.1631C1.16478 6.12376 1.02987 6.11066 0.896382 6.12456C0.762897 6.13847 0.633577 6.1791 0.516127 6.24404C0.398677 6.30898 0.2955 6.3969 0.212745 6.50255C0.129989 6.60821 0.0693471 6.72944 0.0344327 6.85903C-0.00048172 6.98861 -0.00895455 7.1239 0.00951926 7.25683C0.0279931 7.38976 0.0730354 7.51761 0.141963 7.63277C0.21089 7.74792 0.302291 7.84802 0.410721 7.92711C0.519151 8.0062 0.642391 8.06265 0.773098 8.0931L2.5331 8.5631C2.61688 8.59105 2.70479 8.60458 2.7931 8.6031V8.6031ZM6.6531 3.0131C6.7117 3.23126 6.84244 3.42315 7.02402 3.55753C7.20561 3.6919 7.42734 3.76083 7.6531 3.7531C7.73921 3.76693 7.82698 3.76693 7.9131 3.7531C8.16691 3.68288 8.38278 3.51538 8.51384 3.28697C8.6449 3.05855 8.68057 2.78765 8.6131 2.5331L8.1431 0.773098C8.11265 0.642391 8.0562 0.519151 7.97711 0.410721C7.89803 0.302291 7.79792 0.21089 7.68277 0.141963C7.56761 0.0730354 7.43976 0.0279931 7.30683 0.00951926C7.1739 -0.00895455 7.03861 -0.00048172 6.90903 0.0344327C6.77944 0.0693471 6.65821 0.129989 6.55255 0.212745C6.4469 0.2955 6.35898 0.398677 6.29404 0.516127C6.2291 0.633577 6.18847 0.762897 6.17456 0.896382C6.16066 1.02987 6.17376 1.16478 6.2131 1.2931L6.6531 3.0131ZM11.4831 13.0131C11.3897 12.9148 11.2772 12.8365 11.1526 12.7829C11.028 12.7294 10.8937 12.7018 10.7581 12.7018C10.6225 12.7018 10.4882 12.7294 10.3636 12.7829C10.239 12.8365 10.1265 12.9148 10.0331 13.0131L6.5331 16.5731C6.12158 16.9679 5.57338 17.1884 5.0031 17.1884C4.43282 17.1884 3.88461 16.9679 3.4731 16.5731C3.27052 16.3731 3.10968 16.1349 2.9999 15.8722C2.89012 15.6096 2.83359 15.3278 2.83359 15.0431C2.83359 14.7584 2.89012 14.4766 2.9999 14.214C3.10968 13.9513 3.27052 13.7131 3.4731 13.5131L7.0331 10.0131C7.13778 9.92345 7.2228 9.81313 7.28282 9.68907C7.34285 9.565 7.37658 9.42987 7.3819 9.29215C7.38722 9.15443 7.36401 9.0171 7.31374 8.88877C7.26346 8.76045 7.1872 8.6439 7.08975 8.54645C6.99229 8.44899 6.87575 8.37273 6.74742 8.32246C6.6191 8.27219 6.48176 8.24898 6.34404 8.2543C6.20633 8.25962 6.07119 8.29335 5.94713 8.35337C5.82306 8.41339 5.71275 8.49842 5.6231 8.6031L2.0331 12.0931C1.64439 12.4818 1.33604 12.9433 1.12567 13.4512C0.915302 13.959 0.807026 14.5034 0.807026 15.0531C0.807026 15.6028 0.915302 16.1472 1.12567 16.655C1.33604 17.1629 1.64439 17.6244 2.0331 18.0131C2.42181 18.4018 2.88328 18.7102 3.39116 18.9205C3.89904 19.1309 4.44338 19.2392 4.9931 19.2392C5.54282 19.2392 6.08716 19.1309 6.59504 18.9205C7.10292 18.7102 7.56439 18.4018 7.9531 18.0131L11.4831 14.4831C11.5846 14.3895 11.6656 14.2758 11.721 14.1493C11.7764 14.0228 11.805 13.8862 11.805 13.7481C11.805 13.61 11.7764 13.4734 11.721 13.3469C11.6656 13.2204 11.5846 13.1067 11.4831 13.0131ZM3.2131 4.6031C3.39936 4.78784 3.65076 4.89199 3.9131 4.8931C4.0447 4.89386 4.17517 4.86863 4.297 4.81887C4.41884 4.7691 4.52966 4.69578 4.6231 4.6031C4.80935 4.41574 4.91389 4.16228 4.91389 3.8981C4.91389 3.63391 4.80935 3.38046 4.6231 3.1931L3.3331 1.9031C3.1418 1.73927 2.89572 1.65367 2.64404 1.66339C2.39237 1.67311 2.15363 1.77744 1.97553 1.95553C1.79744 2.13363 1.69311 2.37237 1.68339 2.62404C1.67367 2.87572 1.75927 3.1218 1.9231 3.3131L3.2131 4.6031ZM19.2931 11.9331L17.5331 11.4631C17.4027 11.418 17.2643 11.4004 17.1268 11.4114C16.9892 11.4224 16.8554 11.4617 16.7338 11.527C16.6122 11.5922 16.5054 11.6819 16.4201 11.7904C16.3349 11.8989 16.273 12.0239 16.2384 12.1574C16.2038 12.291 16.1972 12.4303 16.219 12.5666C16.2409 12.7028 16.2907 12.8331 16.3654 12.9492C16.44 13.0652 16.5379 13.1646 16.6528 13.241C16.7677 13.3174 16.8972 13.3692 17.0331 13.3931L18.7931 13.8631H19.0531C19.3183 13.8976 19.5864 13.8253 19.7983 13.6621C20.0102 13.499 20.1486 13.2583 20.1831 12.9931C20.2176 12.7279 20.1453 12.4598 19.9821 12.2479C19.819 12.036 19.5783 11.8976 19.3131 11.8631L19.2931 11.9331ZM13.4131 17.0131C13.3784 16.8863 13.319 16.7676 13.2384 16.6638C13.1578 16.56 13.0575 16.4731 12.9432 16.4081C12.829 16.3431 12.703 16.3012 12.5726 16.2849C12.4422 16.2686 12.3098 16.2782 12.1831 16.3131C11.9293 16.3833 11.7134 16.5508 11.5824 16.7792C11.4513 17.0076 11.4156 17.2785 11.4831 17.5331L11.9531 19.2931C12.0117 19.5113 12.1424 19.7032 12.324 19.8375C12.5056 19.9719 12.7273 20.0408 12.9531 20.0331C13.0395 20.0429 13.1267 20.0429 13.2131 20.0331C13.3408 19.9995 13.4605 19.9409 13.5654 19.8607C13.6704 19.7805 13.7584 19.6804 13.8244 19.566C13.8904 19.4517 13.9331 19.3254 13.95 19.1944C13.967 19.0635 13.9578 18.9305 13.9231 18.8031L13.4131 17.0131ZM16.8531 15.4431C16.6618 15.2793 16.4157 15.1937 16.164 15.2034C15.9124 15.2131 15.6736 15.3174 15.4955 15.4955C15.3174 15.6736 15.2131 15.9124 15.2034 16.164C15.1937 16.4157 15.2793 16.6618 15.4431 16.8531L16.7331 18.1431C16.9205 18.3293 17.1739 18.4339 17.4381 18.4339C17.7023 18.4339 17.9557 18.3293 18.1431 18.1431C18.3293 17.9557 18.4339 17.7023 18.4339 17.4381C18.4339 17.1739 18.3293 16.9205 18.1431 16.7331L16.8531 15.4431ZM19.2331 5.0131C19.2486 4.18154 19.0146 3.36441 18.5611 2.6672C18.1076 1.96999 17.4556 1.42472 16.6891 1.10178C15.9227 0.778835 15.077 0.693049 14.2613 0.855495C13.4456 1.01794 12.6973 1.42116 12.1131 2.0131L8.5831 5.5731C8.48855 5.66831 8.41367 5.78121 8.36275 5.90535C8.31183 6.0295 8.28586 6.16245 8.28633 6.29663C8.28679 6.43081 8.31368 6.56359 8.36546 6.68738C8.41724 6.81117 8.49289 6.92355 8.5881 7.0181C8.68331 7.11265 8.79621 7.18752 8.92035 7.23844C9.04449 7.28936 9.17745 7.31533 9.31163 7.31487C9.44581 7.3144 9.57859 7.28751 9.70238 7.23574C9.82617 7.18396 9.93855 7.10831 10.0331 7.0131L13.5331 3.4531C13.9446 3.05829 14.4928 2.83784 15.0631 2.83784C15.6334 2.83784 16.1816 3.05829 16.5931 3.4531C16.7957 3.65309 16.9565 3.89132 17.0663 4.15396C17.1761 4.41661 17.2326 4.69844 17.2326 4.9831C17.2326 5.26776 17.1761 5.54959 17.0663 5.81223C16.9565 6.07488 16.7957 6.31311 16.5931 6.5131L13.0331 10.0131C12.8468 10.2005 12.7423 10.4539 12.7423 10.7181C12.7423 10.9823 12.8468 11.2357 13.0331 11.4231C13.2205 11.6093 13.4739 11.7139 13.7381 11.7139C14.0023 11.7139 14.2557 11.6093 14.4431 11.4231L18.0331 7.9331C18.7985 7.15345 19.2291 6.10566 19.2331 5.0131V5.0131Z" fill="var(--fill-0, #1E1F26)"/>
</svg>
