<svg preserveAspectRatio="none" width="100%" height="100%" overflow="visible" style="display: block;" viewBox="0 0 12.0292 22.0001" fill="none" xmlns="http://www.w3.org/2000/svg">
<path id="Vector" d="M6.00125 14C5.60569 14 5.21901 14.1173 4.89011 14.3371C4.56121 14.5568 4.30486 14.8692 4.15349 15.2346C4.00211 15.6001 3.96251 16.0022 4.03968 16.3902C4.11685 16.7781 4.30733 17.1345 4.58704 17.4142C4.86674 17.6939 5.22311 17.8844 5.61107 17.9616C5.99903 18.0387 6.40116 17.9991 6.76661 17.8478C7.13207 17.6964 7.44442 17.44 7.66419 17.1111C7.88395 16.7822 8.00125 16.3956 8.00125 16C8.00125 15.4696 7.79053 14.9609 7.41546 14.5858C7.04039 14.2107 6.53168 14 6.00125 14ZM10.5012 12V4.5C10.5012 3.30653 10.0271 2.16193 9.18323 1.31802C8.33931 0.474106 7.19472 0 6.00125 0C4.80777 0 3.66318 0.474106 2.81927 1.31802C1.97535 2.16193 1.50125 3.30653 1.50125 4.5V12C0.810091 12.7832 0.335376 13.7333 0.12406 14.7562C-0.087255 15.7792 -0.0278489 16.8396 0.296403 17.8326C0.620654 18.8255 1.19852 19.7166 1.97283 20.4177C2.74714 21.1188 3.69107 21.6056 4.71125 21.83C5.13504 21.9266 5.5669 21.9835 6.00125 22C7.16187 22.0054 8.29915 21.6741 9.27526 21.0461C10.2514 20.4182 11.0244 19.5207 11.5007 18.4623C11.977 17.4038 12.1361 16.23 11.9587 15.083C11.7813 13.936 11.275 12.8651 10.5012 12V12ZM8.50125 19.07C7.7056 19.7755 6.66229 20.136 5.60083 20.0722C4.53938 20.0085 3.54672 19.5256 2.84125 18.73C2.13577 17.9344 1.77526 16.891 1.83902 15.8296C1.90279 14.7681 2.3856 13.7755 3.18125 13.07C3.27574 12.9774 3.35091 12.8669 3.4024 12.7451C3.4539 12.6232 3.4807 12.4923 3.48125 12.36V4.5C3.48125 3.83696 3.74464 3.20107 4.21348 2.73223C4.68232 2.26339 5.31821 2 5.98125 2C6.64429 2 7.28017 2.26339 7.74901 2.73223C8.21786 3.20107 8.48125 3.83696 8.48125 4.5V12.44C8.4818 12.5723 8.5086 12.7032 8.56009 12.8251C8.61159 12.9469 8.68676 13.0574 8.78125 13.15C9.19 13.5449 9.50991 14.0223 9.71967 14.5505C9.92943 15.0787 10.0242 15.6456 9.99773 16.2133C9.97123 16.781 9.82406 17.3366 9.56602 17.843C9.30798 18.3493 8.945 18.7949 8.50125 19.15V19.07Z" fill="var(--fill-0, #1E1F26)"/>
</svg>
