<svg preserveAspectRatio="none" width="100%" height="100%" overflow="visible" style="display: block;" viewBox="0 0 20 20" fill="none" xmlns="http://www.w3.org/2000/svg">
<path id="Vector" d="M13.5 5.38C13.196 5.20446 12.8511 5.11205 12.5 5.11205C12.1489 5.11205 11.804 5.20446 11.5 5.38L7.5 7.69V6C7.5 5.73478 7.39465 5.48043 7.20711 5.29289C7.01957 5.10536 6.76522 5 6.5 5C6.23479 5 5.98043 5.10536 5.7929 5.29289C5.60536 5.48043 5.5 5.73478 5.5 6V14C5.5 14.2652 5.60536 14.5196 5.7929 14.7071C5.98043 14.8946 6.23479 15 6.5 15C6.76522 15 7.01957 14.8946 7.20711 14.7071C7.39465 14.5196 7.5 14.2652 7.5 14V12.31L11.5 14.62C11.804 14.7955 12.1489 14.8879 12.5 14.8879C12.8511 14.8879 13.196 14.7955 13.5 14.62C13.8037 14.4446 14.056 14.1925 14.2315 13.8888C14.4071 13.5852 14.4996 13.2407 14.5 12.89V7.11C14.4996 6.75927 14.4071 6.41481 14.2315 6.11116C14.056 5.80752 13.8037 5.55536 13.5 5.38V5.38ZM12.5 12.89L7.5 10L12.5 7.11V12.89ZM10 0C8.02219 0 6.08879 0.58649 4.4443 1.6853C2.79981 2.78412 1.51809 4.3459 0.761209 6.17317C0.00433283 8.00043 -0.193701 10.0111 0.192152 11.9509C0.578004 13.8907 1.53041 15.6725 2.92894 17.0711C4.32746 18.4696 6.10929 19.422 8.0491 19.8079C9.98891 20.1937 11.9996 19.9957 13.8268 19.2388C15.6541 18.4819 17.2159 17.2002 18.3147 15.5557C19.4135 13.9112 20 11.9778 20 10C20 8.68678 19.7413 7.38642 19.2388 6.17317C18.7363 4.95991 17.9997 3.85752 17.0711 2.92893C16.1425 2.00035 15.0401 1.26375 13.8268 0.761205C12.6136 0.258658 11.3132 0 10 0V0ZM10 18C8.41775 18 6.87104 17.5308 5.55544 16.6518C4.23985 15.7727 3.21447 14.5233 2.60897 13.0615C2.00347 11.5997 1.84504 9.99113 2.15372 8.43928C2.4624 6.88743 3.22433 5.46197 4.34315 4.34315C5.46197 3.22433 6.88743 2.4624 8.43928 2.15372C9.99113 1.84504 11.5997 2.00346 13.0615 2.60896C14.5233 3.21447 15.7727 4.23984 16.6518 5.55544C17.5308 6.87103 18 8.41775 18 10C18 12.1217 17.1572 14.1566 15.6569 15.6569C14.1566 17.1571 12.1217 18 10 18V18Z" fill="var(--fill-0, #1E1F26)"/>
</svg>
