<svg preserveAspectRatio="none" width="100%" height="100%" overflow="visible" style="display: block;" viewBox="0 0 20.0116 10.0116" fill="none" xmlns="http://www.w3.org/2000/svg">
<path id="Vector" d="M19.7158 0.295798C19.6228 0.20207 19.5122 0.127676 19.3904 0.0769072C19.2685 0.0261385 19.1378 0 19.0058 0C18.8738 0 18.7431 0.0261385 18.6212 0.0769072C18.4994 0.127676 18.3888 0.20207 18.2958 0.295798L12.0058 6.5958L7.7158 2.2958C7.62284 2.20207 7.51223 2.12768 7.39038 2.07691C7.26852 2.02614 7.13781 2 7.0058 2C6.87379 2 6.74308 2.02614 6.62122 2.07691C6.49936 2.12768 6.38876 2.20207 6.2958 2.2958L0.295798 8.2958C0.20207 8.38876 0.127676 8.49936 0.0769069 8.62122C0.0261382 8.74308 0 8.87379 0 9.0058C0 9.13781 0.0261382 9.26852 0.0769069 9.39038C0.127676 9.51223 0.20207 9.62283 0.295798 9.7158C0.388761 9.80953 0.499363 9.88392 0.621222 9.93469C0.743081 9.98546 0.873786 10.0116 1.0058 10.0116C1.13781 10.0116 1.26852 9.98546 1.39037 9.93469C1.51223 9.88392 1.62284 9.80953 1.7158 9.7158L7.0058 4.4158L11.2958 8.7158C11.3888 8.80953 11.4994 8.88392 11.6212 8.93469C11.7431 8.98546 11.8738 9.0116 12.0058 9.0116C12.1378 9.0116 12.2685 8.98546 12.3904 8.93469C12.5122 8.88392 12.6228 8.80953 12.7158 8.7158L19.7158 1.7158C19.8095 1.62284 19.8839 1.51223 19.9347 1.39038C19.9855 1.26852 20.0116 1.13781 20.0116 1.0058C20.0116 0.873786 19.9855 0.743081 19.9347 0.621222C19.8839 0.499362 19.8095 0.388761 19.7158 0.295798V0.295798Z" fill="var(--fill-0, #1E1F26)"/>
</svg>
