<svg preserveAspectRatio="none" width="100%" height="100%" overflow="visible" style="display: block;" viewBox="0 0 20.0147 20.0147" fill="none" xmlns="http://www.w3.org/2000/svg">
<path id="Vector" d="M14.2958 4.29894L7.2958 11.2989C7.20207 11.3919 7.12768 11.5025 7.07691 11.6244C7.02614 11.7462 7 11.8769 7 12.0089C7 12.1409 7.02614 12.2717 7.07691 12.3935C7.12768 12.5154 7.20207 12.626 7.2958 12.7189C7.38876 12.8127 7.49936 12.8871 7.62122 12.9378C7.74308 12.9886 7.87379 13.0147 8.0058 13.0147C8.13781 13.0147 8.26852 12.9886 8.39038 12.9378C8.51223 12.8871 8.62284 12.8127 8.7158 12.7189L15.7158 5.71894C15.9041 5.53063 16.0099 5.27524 16.0099 5.00894C16.0099 4.74264 15.9041 4.48724 15.7158 4.29894C15.5275 4.11063 15.2721 4.00485 15.0058 4.00485C14.7395 4.00485 14.4841 4.11063 14.2958 4.29894ZM18.5458 1.46894C18.0813 1.00331 17.5296 0.633877 16.9221 0.381813C16.3147 0.129748 15.6635 0 15.0058 0C14.3481 0 13.6969 0.129748 13.0895 0.381813C12.482 0.633877 11.9303 1.00331 11.4658 1.46894L3.2958 9.69894C3.11105 9.8852 3.0069 10.1366 3.0058 10.3989V15.5889L0.295798 18.2989C0.20207 18.3919 0.127676 18.5025 0.0769069 18.6244C0.0261382 18.7462 0 18.8769 0 19.0089C0 19.1409 0.0261382 19.2717 0.0769069 19.3935C0.127676 19.5154 0.20207 19.626 0.295798 19.7189C0.388761 19.8127 0.499363 19.8871 0.621222 19.9378C0.743081 19.9886 0.873786 20.0147 1.0058 20.0147C1.13781 20.0147 1.26852 19.9886 1.39037 19.9378C1.51223 19.8871 1.62284 19.8127 1.7158 19.7189L4.4258 17.0089H9.6158C9.87814 17.0078 10.1295 16.9037 10.3158 16.7189L18.5458 8.54894C19.0114 8.08448 19.3809 7.53273 19.6329 6.92527C19.885 6.31782 20.0147 5.66661 20.0147 5.00894C20.0147 4.35126 19.885 3.70005 19.6329 3.0926C19.3809 2.48515 19.0114 1.93339 18.5458 1.46894V1.46894ZM17.1258 7.12894L9.2058 15.0089H5.0058V10.8089L12.8858 2.88894C13.4545 2.35902 14.2067 2.07053 14.9839 2.08424C15.7611 2.09795 16.5026 2.4128 17.0523 2.96245C17.6019 3.5121 17.9168 4.25364 17.9305 5.03085C17.9442 5.80805 17.6557 6.56024 17.1258 7.12894V7.12894Z" fill="var(--fill-0, #1E1F26)"/>
</svg>
