<svg preserveAspectRatio="none" width="100%" height="100%" overflow="visible" style="display: block;" viewBox="0 0 20 20" fill="none" xmlns="http://www.w3.org/2000/svg">
<path id="Vector" d="M8 7H5C4.73479 7 4.48043 7.10536 4.2929 7.29289C4.10536 7.48043 4 7.73478 4 8C4 8.26522 4.10536 8.51957 4.2929 8.70711C4.48043 8.89464 4.73479 9 5 9H5.5V12C5.5 12.2652 5.60536 12.5196 5.7929 12.7071C5.98043 12.8946 6.23479 13 6.5 13C6.76522 13 7.01957 12.8946 7.20711 12.7071C7.39465 12.5196 7.5 12.2652 7.5 12V9H8C8.26522 9 8.51957 8.89464 8.70711 8.70711C8.89465 8.51957 9 8.26522 9 8C9 7.73478 8.89465 7.48043 8.70711 7.29289C8.51957 7.10536 8.26522 7 8 7ZM15.38 7.08C15.1979 7.00342 14.9972 6.9825 14.8032 7.01987C14.6092 7.05725 14.4306 7.15124 14.29 7.29L13 8.59L11.71 7.29C11.5694 7.15124 11.3908 7.05725 11.1968 7.01987C11.0028 6.9825 10.8021 7.00342 10.62 7.08C10.4374 7.15502 10.2811 7.28242 10.1707 7.44614C10.0604 7.60986 10.001 7.80257 10 8V12C10 12.2652 10.1054 12.5196 10.2929 12.7071C10.4804 12.8946 10.7348 13 11 13C11.2652 13 11.5196 12.8946 11.7071 12.7071C11.8946 12.5196 12 12.2652 12 12V10.41L12.29 10.71C12.383 10.8037 12.4936 10.8781 12.6154 10.9289C12.7373 10.9797 12.868 11.0058 13 11.0058C13.132 11.0058 13.2627 10.9797 13.3846 10.9289C13.5064 10.8781 13.617 10.8037 13.71 10.71L14 10.41V12C14 12.2652 14.1054 12.5196 14.2929 12.7071C14.4804 12.8946 14.7348 13 15 13C15.2652 13 15.5196 12.8946 15.7071 12.7071C15.8946 12.5196 16 12.2652 16 12V8C15.999 7.80257 15.9396 7.60986 15.8293 7.44614C15.719 7.28242 15.5626 7.15502 15.38 7.08ZM10 0C8.02219 0 6.08879 0.58649 4.4443 1.6853C2.79981 2.78412 1.51809 4.3459 0.761209 6.17317C0.00433283 8.00043 -0.193701 10.0111 0.192152 11.9509C0.578004 13.8907 1.53041 15.6725 2.92894 17.0711C4.32746 18.4696 6.10929 19.422 8.0491 19.8079C9.98891 20.1937 11.9996 19.9957 13.8268 19.2388C15.6541 18.4819 17.2159 17.2002 18.3147 15.5557C19.4135 13.9112 20 11.9778 20 10C20 8.68678 19.7413 7.38642 19.2388 6.17317C18.7363 4.95991 17.9997 3.85752 17.0711 2.92893C16.1425 2.00035 15.0401 1.26375 13.8268 0.761205C12.6136 0.258658 11.3132 0 10 0V0ZM10 18C8.41775 18 6.87104 17.5308 5.55544 16.6518C4.23985 15.7727 3.21447 14.5233 2.60897 13.0615C2.00347 11.5997 1.84504 9.99113 2.15372 8.43928C2.4624 6.88743 3.22433 5.46197 4.34315 4.34315C5.46197 3.22433 6.88743 2.4624 8.43928 2.15372C9.99113 1.84504 11.5997 2.00346 13.0615 2.60896C14.5233 3.21447 15.7727 4.23984 16.6518 5.55544C17.5308 6.87103 18 8.41775 18 10C18 12.1217 17.1572 14.1566 15.6569 15.6569C14.1566 17.1571 12.1217 18 10 18V18Z" fill="var(--fill-0, #1E1F26)"/>
</svg>
