<svg preserveAspectRatio="none" width="100%" height="100%" overflow="visible" style="display: block;" viewBox="0 0 24 26.3558" fill="none" xmlns="http://www.w3.org/2000/svg">
<g id="Layer 10">
<path fill-rule="evenodd" clip-rule="evenodd" d="M12.9884 0.192251C12.8287 0.687907 12.3581 1.24891 10.6452 2.98544C8.79822 4.85797 8.48805 5.25059 8.29576 5.95943C8.19956 6.31406 8.17476 6.7146 8.22602 7.08564C8.24803 7.24492 8.27017 7.34224 8.2752 7.30188C8.29972 7.10531 8.38418 6.76861 8.45192 6.59732C8.54327 6.36625 8.64938 6.18821 8.88047 5.87808C9.2508 5.38117 9.5382 5.07254 10.8353 3.77909C12.4199 2.19898 12.6768 1.90667 12.932 1.39417C13.0229 1.21148 13.0235 1.20678 13.0418 0.608585C13.052 0.27759 13.0585 0.0037822 13.0564 0.000112634C13.0542 -0.00355693 13.0236 0.0828976 12.9884 0.192251ZM13.0139 1.79753C12.9434 2.0211 12.7071 2.45893 12.5503 2.6562C12.3724 2.88008 11.7501 3.53989 10.7991 4.513C10.444 4.87629 9.99228 5.33866 9.7952 5.54048C9.23491 6.11426 9.08927 6.28732 8.89736 6.60739C8.51381 7.24698 8.35853 7.67306 8.36071 8.07982C8.36174 8.27202 8.38198 8.3733 8.47207 8.6376C8.53261 8.81521 8.59074 8.97608 8.60129 8.9951C8.6118 9.01413 8.62141 8.87542 8.62264 8.68686C8.62458 8.39332 8.63648 8.31027 8.70551 8.10918C8.9525 7.38959 9.41688 6.82715 11.5294 4.68914C12.0957 4.11596 12.5997 3.58754 12.6494 3.51488C12.8931 3.15832 13.0247 2.76112 13.0743 2.23238C13.0984 1.97519 13.1003 1.82759 13.0803 1.76776L13.051 1.6801L13.0139 1.79753ZM12.9946 3.41947C12.9034 3.73776 12.7326 4.04559 12.5101 4.29283C12.3938 4.422 11.8677 4.97572 11.3408 5.52331C9.38302 7.55822 9.25814 7.70609 9.06524 8.2183C8.92929 8.57921 8.88388 9.07175 8.95743 9.38775C9.0343 9.71818 9.28646 10.0338 9.50654 10.075C9.5637 10.0858 9.61749 10.0875 9.62606 10.0789C9.63464 10.0704 9.60063 10.0167 9.55045 9.95955C9.32086 9.69819 9.26907 9.08229 9.44547 8.71099C9.64936 8.28177 10.1395 7.71827 11.5139 6.33311C12.7466 5.09074 12.7971 5.02563 12.9597 4.46897C13.0324 4.22 13.048 4.10518 13.0625 3.71304C13.0718 3.45872 13.0713 3.25067 13.0612 3.25067C13.0512 3.25067 13.0212 3.32662 12.9946 3.41947ZM14.2673 4.4176C14.3785 4.53643 14.4945 4.76706 14.525 4.92981C14.5502 5.06359 14.4503 5.48113 14.3375 5.71372C14.2064 5.98435 14.0343 6.20755 13.5094 6.78814C12.7126 7.66927 12.4608 7.98712 12.3533 8.24719C12.2772 8.43116 12.2188 8.89027 12.22 9.29595L12.2211 9.69443L12.3029 9.44411C12.4056 9.12967 12.5395 8.87712 12.7099 8.67641C12.8366 8.5271 12.9318 8.42512 13.5689 7.75608C14.3002 6.98806 14.5302 6.71568 14.6663 6.45682C14.8803 6.04982 14.971 5.4857 14.8797 5.12949C14.775 4.72138 14.6207 4.48943 14.3791 4.377C14.173 4.28109 14.1481 4.29013 14.2673 4.4176ZM15.1068 5.44704C15.1548 5.68677 15.1899 6.06012 15.1739 6.16005C15.144 6.34717 15.046 6.57648 14.8721 6.86646C14.6349 7.2621 14.6059 7.29551 13.4642 8.49082C13.1558 8.81374 12.857 9.13079 12.8003 9.19537C12.608 9.41414 12.3141 9.95312 12.2439 10.2155C12.2131 10.3309 12.1972 10.3521 12.152 10.3377C12.119 10.3272 11.9316 10.3905 11.6807 10.4968C11.4516 10.5938 11.0527 10.762 10.7942 10.8706C10.5357 10.9791 10.0928 11.1661 9.8101 11.2861C9.52736 11.406 9.09115 11.5903 8.84072 11.6955C8.5903 11.8007 8.26644 11.9378 8.12104 12.0002C7.97563 12.0626 7.61873 12.214 7.32791 12.3368C7.0371 12.4596 6.59427 12.6471 6.34385 12.7533C6.09343 12.8596 5.74974 13.0049 5.5801 13.0761C5.07189 13.2895 5.02101 13.311 4.66948 13.4611C4.17533 13.6722 3.22781 14.0729 2.74542 14.2749C2.60001 14.3358 2.24972 14.4837 1.96698 14.6035C1.68425 14.7234 1.24803 14.9077 0.997607 15.0131C0.0234745 15.4232 0.0628369 15.4023 0.0455644 15.5197C0.0222994 15.6782 -0.00957223 16.1382 0.00273588 16.1381C0.00866963 16.138 0.119296 16.0973 0.248546 16.0475C0.377795 15.9978 0.53642 15.9398 0.601045 15.9187C0.66567 15.8976 0.751592 15.866 0.791982 15.8485C0.832373 15.831 1.05048 15.7491 1.27667 15.6666C1.50286 15.584 1.8135 15.4695 1.96698 15.412C2.32039 15.2798 2.58762 15.1812 2.77479 15.1142C2.85557 15.0853 3.04725 15.0144 3.20073 14.9567C3.35421 14.8989 3.66485 14.7842 3.89104 14.7016C4.11723 14.6191 4.33534 14.5372 4.37573 14.5197C4.41612 14.5022 4.50204 14.4703 4.56667 14.4489C4.63129 14.4275 4.7767 14.3752 4.88979 14.3328C5.00288 14.2903 5.16151 14.2311 5.24229 14.2013C5.32307 14.1715 5.49492 14.1077 5.62417 14.0596C5.75342 14.0115 6.08388 13.8895 6.35854 13.7886C6.6332 13.6876 6.93723 13.5759 7.03416 13.5402C7.1311 13.5046 7.33928 13.4272 7.49682 13.3683C7.796 13.2565 8.14407 13.128 8.62776 12.9509C8.90923 12.8478 9.06312 12.7904 9.41354 12.6579C9.6124 12.5826 9.78539 12.5188 10.1993 12.3677C10.6674 12.1968 11.0463 12.0573 11.2495 11.981C11.3545 11.9416 11.5065 11.8845 11.5873 11.8543C11.6681 11.824 11.828 11.7635 11.9427 11.72L12.1512 11.6409L12.4421 11.7514C12.602 11.8121 12.8188 11.8935 12.9238 11.9323C13.0289 11.9711 13.1809 12.0277 13.2617 12.0582C13.3424 12.0886 13.5011 12.1481 13.6142 12.1903C13.7273 12.2325 13.8859 12.2919 13.9667 12.3224C14.0474 12.3528 14.1995 12.4095 14.3045 12.4482C14.4095 12.487 14.6276 12.5675 14.7892 12.6272C14.9507 12.6868 15.1135 12.7483 15.1508 12.7638C15.1882 12.7793 15.3468 12.8387 15.5033 12.8959C15.6599 12.953 15.8185 13.0125 15.8558 13.028C15.8932 13.0435 16.0518 13.1029 16.2083 13.1601C16.3649 13.2173 16.5235 13.2767 16.5608 13.2922C16.5982 13.3077 16.7568 13.3671 16.9133 13.4243C17.0699 13.4815 17.2285 13.5409 17.2658 13.5564C17.3032 13.5719 17.4618 13.6317 17.6183 13.6893C17.7749 13.7469 18.0582 13.8525 18.2481 13.924C18.4379 13.9954 18.7518 14.1133 18.9457 14.186C19.1396 14.2586 19.4535 14.3765 19.6434 14.448C19.8332 14.5194 20.1166 14.625 20.2731 14.6826C20.4296 14.7402 20.5882 14.8001 20.6256 14.8156C20.6629 14.8311 20.8216 14.8905 20.9781 14.9477C21.1346 15.0048 21.2932 15.0643 21.3306 15.0798C21.3679 15.0953 21.5307 15.1567 21.6923 15.2163C21.8538 15.276 22.0719 15.3573 22.177 15.3971C22.5177 15.5263 22.7482 15.6122 22.8232 15.6379C22.8636 15.6517 23.0222 15.7111 23.1757 15.7699C23.3292 15.8287 23.5774 15.922 23.7274 15.9772L24 16.0776L23.9918 15.7228L23.9835 15.368L23.7926 15.2847C23.6876 15.2389 23.3174 15.0812 22.9701 14.9342C21.8709 14.4692 21.437 14.285 21.1048 14.1422C20.9271 14.0658 20.5702 13.9139 20.3117 13.8046C20.0532 13.6953 19.6896 13.5408 19.5038 13.4614C19.318 13.3819 19.1065 13.2921 19.0338 13.2618C18.9611 13.2315 18.7629 13.1475 18.5932 13.0751C18.4236 13.0027 18.1526 12.8875 17.991 12.8192C17.8295 12.7508 17.6047 12.6557 17.4917 12.6079C17.3786 12.5601 17.2464 12.5034 17.1979 12.482C17.1494 12.4607 16.8718 12.3426 16.581 12.2197C16.0853 12.0103 15.8202 11.8973 15.6117 11.8068C15.5632 11.7858 15.4244 11.7272 15.3032 11.6766C15.182 11.626 14.9639 11.5333 14.8185 11.4707C14.5871 11.3709 14.0768 11.1528 13.7373 11.0085L13.6254 10.961L13.9897 10.5919C14.9353 9.63396 15.2173 9.24346 15.4966 8.5055C15.5772 8.2924 15.5798 8.26838 15.5779 7.7569C15.5768 7.46627 15.563 7.18885 15.5474 7.14042C15.5197 7.05519 15.5181 7.05742 15.4978 7.20882C15.4563 7.51803 15.3282 7.92673 15.2136 8.11523C14.9641 8.52557 14.2512 9.34923 13.4094 10.1995L12.9385 10.6751L12.7549 10.5979C12.654 10.5555 12.5713 10.5105 12.5713 10.4981C12.5713 10.444 12.8848 10.0943 13.7786 9.15134C14.4889 8.4019 14.9649 7.85032 15.0656 7.65991C15.1478 7.50447 15.2787 7.15501 15.3318 6.9496C15.4091 6.6504 15.42 5.99439 15.3509 5.80816C15.298 5.66598 15.1319 5.36434 15.1065 5.36434C15.0975 5.36434 15.0977 5.40157 15.1068 5.44704ZM11.6754 13.1467C11.3078 13.279 10.5586 13.5418 10.3829 13.6C10.3183 13.6214 10.0737 13.7073 9.83947 13.7908C9.60521 13.8744 9.34083 13.9666 9.25197 13.9957C9.16311 14.0248 8.89874 14.1172 8.66447 14.2012C8.43021 14.2851 8.16583 14.3773 8.07697 14.4062C7.98812 14.435 7.72374 14.5273 7.48948 14.6112C7.25521 14.6952 7.01066 14.7815 6.94604 14.8029C6.88141 14.8243 6.61704 14.9165 6.35854 15.0077C6.10004 15.099 5.83567 15.191 5.77104 15.2123C5.70642 15.2336 5.46187 15.3194 5.2276 15.4029C4.99334 15.4864 4.62982 15.6143 4.41979 15.687C4.20976 15.7597 3.94539 15.8521 3.83229 15.8923C3.7192 15.9324 3.57379 15.983 3.50917 16.0047C3.44454 16.0263 3.14128 16.1313 2.83522 16.2379C2.52916 16.3445 2.27471 16.4318 2.26975 16.4318C2.26478 16.4318 2.26073 16.5851 2.26073 16.7725C2.26073 17.0808 2.26549 17.1114 2.31052 17.0941C2.37391 17.0698 2.55936 17.0128 3.31823 16.784C3.51501 16.7247 3.79405 16.6404 4.22885 16.5089C4.82828 16.3277 5.2766 16.193 5.75635 16.0501C6.03909 15.9659 6.44226 15.8451 6.65229 15.7815C6.86232 15.718 7.14652 15.6324 7.28385 15.5914C7.42118 15.5503 7.63929 15.4842 7.76854 15.4444C8.12371 15.3352 8.6101 15.1887 9.70729 14.8607C9.96579 14.7834 10.3623 14.6641 10.5885 14.5955C10.8147 14.527 11.2266 14.4025 11.5037 14.319L12.0076 14.167L12.4878 14.3164C12.7519 14.3985 13.0472 14.4915 13.1442 14.5229C13.2411 14.5544 13.7104 14.6999 14.187 14.8463C15.065 15.1159 15.3814 15.2141 15.6998 15.3158C15.7967 15.3468 16.0743 15.4331 16.3167 15.5075C16.559 15.582 16.949 15.7025 17.1832 15.7753C17.7978 15.9663 18.0559 16.0463 18.2554 16.1078C18.3523 16.1376 18.6299 16.2233 18.8723 16.2982C19.2898 16.4273 19.4644 16.4817 19.9961 16.6481C20.1212 16.6873 20.3425 16.7554 20.4879 16.7996C20.6333 16.8438 20.825 16.9036 20.9138 16.9324C21.0027 16.9613 21.1944 17.0204 21.3398 17.0639C21.4852 17.1074 21.6524 17.1606 21.7114 17.1823L21.8187 17.2216L21.8668 17.0102C21.8933 16.8939 21.9225 16.7457 21.9315 16.6808C21.9478 16.5647 21.9463 16.5624 21.8349 16.5302C21.7726 16.5122 21.5895 16.4486 21.4279 16.389C21.2663 16.3295 21.1011 16.2696 21.0607 16.2561C21.0203 16.2426 20.8749 16.1893 20.7376 16.1377C20.6003 16.0861 20.435 16.0266 20.3704 16.0054C20.3058 15.9841 20.1405 15.9252 20.0032 15.8745C19.6505 15.7443 16.7341 14.6897 15.9788 14.4193C15.8738 14.3817 15.6755 14.3097 15.5382 14.2593C15.4009 14.2088 15.2357 14.15 15.171 14.1285C15.1064 14.107 14.9412 14.0476 14.8038 13.9966C14.3091 13.8127 14.2293 13.7836 14.1135 13.7452C14.0489 13.7238 13.8837 13.6646 13.7463 13.6137C12.9095 13.3032 12.1127 13.0267 12.0599 13.0284C12.0261 13.0295 11.8531 13.0827 11.6754 13.1467ZM11.3229 15.4936C10.5664 15.5301 9.69201 15.6547 8.92885 15.8347C7.92531 16.0714 6.7363 16.4938 5.90396 16.9093L5.47879 17.1216L5.48757 17.5177C5.49239 17.7355 5.49888 17.9163 5.50202 17.9194C5.50514 17.9225 5.68591 17.8367 5.90376 17.7287C6.85148 17.2586 7.93207 16.8944 9.04635 16.6694C9.91135 16.4948 10.324 16.4458 11.2495 16.408C13.659 16.3096 15.0212 16.5107 16.9335 17.2472C17.1402 17.3268 17.8793 17.6621 18.2105 17.8265C18.6582 18.0488 18.6073 18.0706 18.6447 17.6401C18.6738 17.3038 18.6722 17.2647 18.6277 17.2296C18.6007 17.2083 18.3538 17.0805 18.0792 16.9456C16.6574 16.2475 14.9907 15.7618 13.3846 15.5774C12.9449 15.527 11.9342 15.457 11.8076 15.4683C11.7834 15.4705 11.5653 15.4818 11.3229 15.4936ZM11.7195 17.0509C9.90815 17.185 7.73858 17.6987 6.12354 18.3759L5.88854 18.4744L5.87896 18.8108C5.87371 18.9958 5.87849 19.5199 5.88963 19.9753L5.90987 20.8033L6.11952 20.6977C6.85642 20.3268 7.97634 19.9742 9.04635 19.7762C10.1312 19.5755 10.6764 19.5289 11.9398 19.5289C13.145 19.5289 13.6779 19.5672 14.657 19.7245C16.1046 19.9571 17.289 20.3577 18.0581 20.875L18.2055 20.9742L18.2224 20.5304C18.2316 20.2863 18.2468 19.7353 18.256 19.3059L18.2728 18.5251L18.176 18.4516C17.6639 18.0629 16.5557 17.6804 15.1857 17.4193C14.4121 17.2719 13.156 17.1034 12.5273 17.0626C12.3819 17.0532 12.2166 17.0411 12.1601 17.0357C12.1035 17.0303 11.9053 17.0372 11.7195 17.0509ZM10.7079 17.9595C10.9228 18.0922 10.9436 18.4042 10.7499 18.5896C10.6728 18.6635 10.6375 18.6755 10.4964 18.6755C10.3451 18.6755 10.3248 18.6671 10.2337 18.5678C10.1795 18.5086 10.1266 18.4265 10.1162 18.3852C10.076 18.2251 10.169 18.0254 10.3264 17.9342C10.4168 17.8817 10.6019 17.894 10.7079 17.9595ZM12.3061 17.9371C12.4204 17.9949 12.5126 18.1551 12.5126 18.2959C12.5126 18.466 12.4134 18.6067 12.2546 18.6619C12.1456 18.6999 12.1158 18.6999 12.0068 18.6619C11.6008 18.5206 11.7016 17.9004 12.1307 17.9004C12.1873 17.9004 12.2662 17.917 12.3061 17.9371ZM14.0313 18.1039C14.1659 18.1859 14.2259 18.3178 14.209 18.4943C14.1623 18.9799 13.4525 18.9314 13.4529 18.4427C13.4531 18.1427 13.7804 17.951 14.0313 18.1039ZM9.01498 18.2798C9.06239 18.3135 9.12328 18.4002 9.15157 18.4742C9.2006 18.6026 9.20039 18.6131 9.14628 18.7454C9.10122 18.8555 9.0635 18.8964 8.95799 18.9497C8.81006 19.0245 8.70389 19.0167 8.56856 18.9211C8.3956 18.7989 8.35101 18.5688 8.46678 18.3957C8.60038 18.1958 8.82903 18.1475 9.01498 18.2798ZM15.6776 18.5034C15.8577 18.6213 15.9117 18.873 15.7944 19.0471C15.7114 19.1701 15.617 19.2197 15.4648 19.2201C15.2962 19.2205 15.1732 19.1347 15.1117 18.9736C15.0633 18.847 15.0632 18.8313 15.1093 18.7105C15.1364 18.6398 15.183 18.5598 15.213 18.5327C15.3324 18.4246 15.5376 18.4117 15.6776 18.5034ZM7.23641 18.7829C7.58542 19.0572 7.3159 19.6053 6.89407 19.479C6.72599 19.4287 6.6376 19.3078 6.6376 19.1284C6.6376 18.9611 6.67132 18.8812 6.78089 18.7887C6.88679 18.6993 7.12623 18.6963 7.23641 18.7829ZM17.3953 18.87C17.4328 18.887 17.4947 18.9466 17.5329 19.0024C17.7142 19.2668 17.5194 19.6201 17.1972 19.611C16.8317 19.6006 16.6992 19.1334 16.9957 18.9003C17.082 18.8325 17.2799 18.8174 17.3953 18.87ZM11.881 20.4239C11.8326 20.4558 11.7698 20.5248 11.7415 20.5773C11.6936 20.6664 11.6901 20.8641 11.6901 23.5136V26.3543H12.116H12.542V23.5204C12.542 20.3996 12.5503 20.5409 12.3601 20.425C12.2304 20.346 12.0004 20.3454 11.881 20.4239ZM10.2234 20.8867C10.168 20.9149 10.0953 20.9753 10.0619 21.0209C10.0016 21.103 10.001 21.1261 9.99322 23.729L9.98541 26.3543H10.4118H10.8382V23.7802C10.8382 21.2231 10.8378 21.2052 10.7764 21.0784C10.6721 20.8631 10.4326 20.7801 10.2234 20.8867ZM13.517 20.9534C13.4609 20.9876 13.396 21.0651 13.3634 21.1368C13.3092 21.2561 13.307 21.3598 13.3064 23.8076L13.3057 26.3543H13.747H14.1882L14.1802 23.7782C14.1729 21.4031 14.1683 21.195 14.1216 21.1096C14.0103 20.9064 13.718 20.8309 13.517 20.9534ZM8.58519 21.3073C8.4971 21.3509 8.4446 21.4039 8.4016 21.4927C8.34238 21.6149 8.34135 21.6575 8.34135 23.9857V26.3543H8.78197H9.2226L9.22195 23.9837C9.22134 21.6993 9.21922 21.6086 9.1642 21.4874C9.12061 21.3914 9.07731 21.3482 8.98125 21.3046C8.81984 21.2314 8.73753 21.2319 8.58519 21.3073ZM15.2592 21.2817C15.2107 21.2987 15.1465 21.334 15.1166 21.3601C14.9766 21.4823 14.9801 21.4154 14.9801 23.9602V26.3543H15.4065H15.833L15.8251 23.9196L15.8173 21.4849L15.7308 21.3947C15.6504 21.3109 15.4942 21.2437 15.3913 21.2487C15.3671 21.2499 15.3076 21.2648 15.2592 21.2817ZM6.97051 21.572C6.85518 21.6054 6.73357 21.7456 6.71119 21.8709C6.7019 21.9229 6.69806 22.9496 6.70267 24.1525L6.71104 26.3396L7.14432 26.3477L7.5776 26.3558V24.1162C7.5776 21.5772 7.59238 21.7344 7.34154 21.6059C7.20504 21.5359 7.12161 21.5283 6.97051 21.572ZM16.958 21.572C16.8427 21.6054 16.7211 21.7456 16.6987 21.8709C16.6894 21.9229 16.6855 22.9496 16.6902 24.1525L16.6985 26.3396H17.1245H17.5504L17.5579 24.1084C17.5665 21.577 17.5809 21.7349 17.329 21.6059C17.1925 21.5359 17.1091 21.5283 16.958 21.572Z" fill="var(--fill-0, #B98D3B)"/>
<path fill-rule="evenodd" clip-rule="evenodd" d="M12.9884 0.192251C12.8287 0.687907 12.3581 1.24891 10.6452 2.98544C8.79822 4.85797 8.48805 5.25059 8.29576 5.95943C8.19956 6.31406 8.17476 6.7146 8.22602 7.08564C8.24803 7.24492 8.27017 7.34224 8.2752 7.30188C8.29972 7.10531 8.38418 6.76861 8.45192 6.59732C8.54327 6.36625 8.64938 6.18821 8.88047 5.87808C9.2508 5.38117 9.5382 5.07254 10.8353 3.77909C12.4199 2.19898 12.6768 1.90667 12.932 1.39417C13.0229 1.21148 13.0235 1.20678 13.0418 0.608585C13.052 0.27759 13.0585 0.0037822 13.0564 0.000112634C13.0542 -0.00355693 13.0236 0.0828976 12.9884 0.192251ZM13.0139 1.79753C12.9434 2.0211 12.7071 2.45893 12.5503 2.6562C12.3724 2.88008 11.7501 3.53989 10.7991 4.513C10.444 4.87629 9.99228 5.33866 9.7952 5.54048C9.23491 6.11426 9.08927 6.28732 8.89736 6.60739C8.51381 7.24698 8.35853 7.67306 8.36071 8.07982C8.36174 8.27202 8.38198 8.3733 8.47207 8.6376C8.53261 8.81521 8.59074 8.97608 8.60129 8.9951C8.6118 9.01413 8.62141 8.87542 8.62264 8.68686C8.62458 8.39332 8.63648 8.31027 8.70551 8.10918C8.9525 7.38959 9.41688 6.82715 11.5294 4.68914C12.0957 4.11596 12.5997 3.58754 12.6494 3.51488C12.8931 3.15832 13.0247 2.76112 13.0743 2.23238C13.0984 1.97519 13.1003 1.82759 13.0803 1.76776L13.051 1.6801L13.0139 1.79753ZM12.9946 3.41947C12.9034 3.73776 12.7326 4.04559 12.5101 4.29283C12.3938 4.422 11.8677 4.97572 11.3408 5.52331C9.38302 7.55822 9.25814 7.70609 9.06524 8.2183C8.92929 8.57921 8.88388 9.07175 8.95743 9.38775C9.0343 9.71818 9.28646 10.0338 9.50654 10.075C9.5637 10.0858 9.61749 10.0875 9.62606 10.0789C9.63464 10.0704 9.60063 10.0167 9.55045 9.95955C9.32086 9.69819 9.26907 9.08229 9.44547 8.71099C9.64936 8.28177 10.1395 7.71827 11.5139 6.33311C12.7466 5.09074 12.7971 5.02563 12.9597 4.46897C13.0324 4.22 13.048 4.10518 13.0625 3.71304C13.0718 3.45872 13.0713 3.25067 13.0612 3.25067C13.0512 3.25067 13.0212 3.32662 12.9946 3.41947ZM14.2673 4.4176C14.3785 4.53643 14.4945 4.76706 14.525 4.92981C14.5502 5.06359 14.4503 5.48113 14.3375 5.71372C14.2064 5.98435 14.0343 6.20755 13.5094 6.78814C12.7126 7.66927 12.4608 7.98712 12.3533 8.24719C12.2772 8.43116 12.2188 8.89027 12.22 9.29595L12.2211 9.69443L12.3029 9.44411C12.4056 9.12967 12.5395 8.87712 12.7099 8.67641C12.8366 8.5271 12.9318 8.42512 13.5689 7.75608C14.3002 6.98806 14.5302 6.71568 14.6663 6.45682C14.8803 6.04982 14.971 5.4857 14.8797 5.12949C14.775 4.72138 14.6207 4.48943 14.3791 4.377C14.173 4.28109 14.1481 4.29013 14.2673 4.4176ZM15.1068 5.44704C15.1548 5.68677 15.1899 6.06012 15.1739 6.16005C15.144 6.34717 15.046 6.57648 14.8721 6.86646C14.6349 7.2621 14.6059 7.29551 13.4642 8.49082C13.1558 8.81374 12.857 9.13079 12.8003 9.19537C12.608 9.41414 12.3141 9.95312 12.2439 10.2155C12.2131 10.3309 12.1972 10.3521 12.152 10.3377C12.119 10.3272 11.9316 10.3905 11.6807 10.4968C11.4516 10.5938 11.0527 10.762 10.7942 10.8706C10.5357 10.9791 10.0928 11.1661 9.8101 11.2861C9.52736 11.406 9.09115 11.5903 8.84072 11.6955C8.5903 11.8007 8.26644 11.9378 8.12104 12.0002C7.97563 12.0626 7.61873 12.214 7.32791 12.3368C7.0371 12.4596 6.59427 12.6471 6.34385 12.7533C6.09343 12.8596 5.74974 13.0049 5.5801 13.0761C5.07189 13.2895 5.02101 13.311 4.66948 13.4611C4.17533 13.6722 3.22781 14.0729 2.74542 14.2749C2.60001 14.3358 2.24972 14.4837 1.96698 14.6035C1.68425 14.7234 1.24803 14.9077 0.997607 15.0131C0.0234745 15.4232 0.0628369 15.4023 0.0455644 15.5197C0.0222994 15.6782 -0.00957223 16.1382 0.00273588 16.1381C0.00866963 16.138 0.119296 16.0973 0.248546 16.0475C0.377795 15.9978 0.53642 15.9398 0.601045 15.9187C0.66567 15.8976 0.751592 15.866 0.791982 15.8485C0.832373 15.831 1.05048 15.7491 1.27667 15.6666C1.50286 15.584 1.8135 15.4695 1.96698 15.412C2.32039 15.2798 2.58762 15.1812 2.77479 15.1142C2.85557 15.0853 3.04725 15.0144 3.20073 14.9567C3.35421 14.8989 3.66485 14.7842 3.89104 14.7016C4.11723 14.6191 4.33534 14.5372 4.37573 14.5197C4.41612 14.5022 4.50204 14.4703 4.56667 14.4489C4.63129 14.4275 4.7767 14.3752 4.88979 14.3328C5.00288 14.2903 5.16151 14.2311 5.24229 14.2013C5.32307 14.1715 5.49492 14.1077 5.62417 14.0596C5.75342 14.0115 6.08388 13.8895 6.35854 13.7886C6.6332 13.6876 6.93723 13.5759 7.03416 13.5402C7.1311 13.5046 7.33928 13.4272 7.49682 13.3683C7.796 13.2565 8.14407 13.128 8.62776 12.9509C8.90923 12.8478 9.06312 12.7904 9.41354 12.6579C9.6124 12.5826 9.78539 12.5188 10.1993 12.3677C10.6674 12.1968 11.0463 12.0573 11.2495 11.981C11.3545 11.9416 11.5065 11.8845 11.5873 11.8543C11.6681 11.824 11.828 11.7635 11.9427 11.72L12.1512 11.6409L12.4421 11.7514C12.602 11.8121 12.8188 11.8935 12.9238 11.9323C13.0289 11.9711 13.1809 12.0277 13.2617 12.0582C13.3424 12.0886 13.5011 12.1481 13.6142 12.1903C13.7273 12.2325 13.8859 12.2919 13.9667 12.3224C14.0474 12.3528 14.1995 12.4095 14.3045 12.4482C14.4095 12.487 14.6276 12.5675 14.7892 12.6272C14.9507 12.6868 15.1135 12.7483 15.1508 12.7638C15.1882 12.7793 15.3468 12.8387 15.5033 12.8959C15.6599 12.953 15.8185 13.0125 15.8558 13.028C15.8932 13.0435 16.0518 13.1029 16.2083 13.1601C16.3649 13.2173 16.5235 13.2767 16.5608 13.2922C16.5982 13.3077 16.7568 13.3671 16.9133 13.4243C17.0699 13.4815 17.2285 13.5409 17.2658 13.5564C17.3032 13.5719 17.4618 13.6317 17.6183 13.6893C17.7749 13.7469 18.0582 13.8525 18.2481 13.924C18.4379 13.9954 18.7518 14.1133 18.9457 14.186C19.1396 14.2586 19.4535 14.3765 19.6434 14.448C19.8332 14.5194 20.1166 14.625 20.2731 14.6826C20.4296 14.7402 20.5882 14.8001 20.6256 14.8156C20.6629 14.8311 20.8216 14.8905 20.9781 14.9477C21.1346 15.0048 21.2932 15.0643 21.3306 15.0798C21.3679 15.0953 21.5307 15.1567 21.6923 15.2163C21.8538 15.276 22.0719 15.3573 22.177 15.3971C22.5177 15.5263 22.7482 15.6122 22.8232 15.6379C22.8636 15.6517 23.0222 15.7111 23.1757 15.7699C23.3292 15.8287 23.5774 15.922 23.7274 15.9772L24 16.0776L23.9918 15.7228L23.9835 15.368L23.7926 15.2847C23.6876 15.2389 23.3174 15.0812 22.9701 14.9342C21.8709 14.4692 21.437 14.285 21.1048 14.1422C20.9271 14.0658 20.5702 13.9139 20.3117 13.8046C20.0532 13.6953 19.6896 13.5408 19.5038 13.4614C19.318 13.3819 19.1065 13.2921 19.0338 13.2618C18.9611 13.2315 18.7629 13.1475 18.5932 13.0751C18.4236 13.0027 18.1526 12.8875 17.991 12.8192C17.8295 12.7508 17.6047 12.6557 17.4917 12.6079C17.3786 12.5601 17.2464 12.5034 17.1979 12.482C17.1494 12.4607 16.8718 12.3426 16.581 12.2197C16.0853 12.0103 15.8202 11.8973 15.6117 11.8068C15.5632 11.7858 15.4244 11.7272 15.3032 11.6766C15.182 11.626 14.9639 11.5333 14.8185 11.4707C14.5871 11.3709 14.0768 11.1528 13.7373 11.0085L13.6254 10.961L13.9897 10.5919C14.9353 9.63396 15.2173 9.24346 15.4966 8.5055C15.5772 8.2924 15.5798 8.26838 15.5779 7.7569C15.5768 7.46627 15.563 7.18885 15.5474 7.14042C15.5197 7.05519 15.5181 7.05742 15.4978 7.20882C15.4563 7.51803 15.3282 7.92673 15.2136 8.11523C14.9641 8.52557 14.2512 9.34923 13.4094 10.1995L12.9385 10.6751L12.7549 10.5979C12.654 10.5555 12.5713 10.5105 12.5713 10.4981C12.5713 10.444 12.8848 10.0943 13.7786 9.15134C14.4889 8.4019 14.9649 7.85032 15.0656 7.65991C15.1478 7.50447 15.2787 7.15501 15.3318 6.9496C15.4091 6.6504 15.42 5.99439 15.3509 5.80816C15.298 5.66598 15.1319 5.36434 15.1065 5.36434C15.0975 5.36434 15.0977 5.40157 15.1068 5.44704ZM11.6754 13.1467C11.3078 13.279 10.5586 13.5418 10.3829 13.6C10.3183 13.6214 10.0737 13.7073 9.83947 13.7908C9.60521 13.8744 9.34083 13.9666 9.25197 13.9957C9.16311 14.0248 8.89874 14.1172 8.66447 14.2012C8.43021 14.2851 8.16583 14.3773 8.07697 14.4062C7.98812 14.435 7.72374 14.5273 7.48948 14.6112C7.25521 14.6952 7.01066 14.7815 6.94604 14.8029C6.88141 14.8243 6.61704 14.9165 6.35854 15.0077C6.10004 15.099 5.83567 15.191 5.77104 15.2123C5.70642 15.2336 5.46187 15.3194 5.2276 15.4029C4.99334 15.4864 4.62982 15.6143 4.41979 15.687C4.20976 15.7597 3.94539 15.8521 3.83229 15.8923C3.7192 15.9324 3.57379 15.983 3.50917 16.0047C3.44454 16.0263 3.14128 16.1313 2.83522 16.2379C2.52916 16.3445 2.27471 16.4318 2.26975 16.4318C2.26478 16.4318 2.26073 16.5851 2.26073 16.7725C2.26073 17.0808 2.26549 17.1114 2.31052 17.0941C2.37391 17.0698 2.55936 17.0128 3.31823 16.784C3.51501 16.7247 3.79405 16.6404 4.22885 16.5089C4.82828 16.3277 5.2766 16.193 5.75635 16.0501C6.03909 15.9659 6.44226 15.8451 6.65229 15.7815C6.86232 15.718 7.14652 15.6324 7.28385 15.5914C7.42118 15.5503 7.63929 15.4842 7.76854 15.4444C8.12371 15.3352 8.6101 15.1887 9.70729 14.8607C9.96579 14.7834 10.3623 14.6641 10.5885 14.5955C10.8147 14.527 11.2266 14.4025 11.5037 14.319L12.0076 14.167L12.4878 14.3164C12.7519 14.3985 13.0472 14.4915 13.1442 14.5229C13.2411 14.5544 13.7104 14.6999 14.187 14.8463C15.065 15.1159 15.3814 15.2141 15.6998 15.3158C15.7967 15.3468 16.0743 15.4331 16.3167 15.5075C16.559 15.582 16.949 15.7025 17.1832 15.7753C17.7978 15.9663 18.0559 16.0463 18.2554 16.1078C18.3523 16.1376 18.6299 16.2233 18.8723 16.2982C19.2898 16.4273 19.4644 16.4817 19.9961 16.6481C20.1212 16.6873 20.3425 16.7554 20.4879 16.7996C20.6333 16.8438 20.825 16.9036 20.9138 16.9324C21.0027 16.9613 21.1944 17.0204 21.3398 17.0639C21.4852 17.1074 21.6524 17.1606 21.7114 17.1823L21.8187 17.2216L21.8668 17.0102C21.8933 16.8939 21.9225 16.7457 21.9315 16.6808C21.9478 16.5647 21.9463 16.5624 21.8349 16.5302C21.7726 16.5122 21.5895 16.4486 21.4279 16.389C21.2663 16.3295 21.1011 16.2696 21.0607 16.2561C21.0203 16.2426 20.8749 16.1893 20.7376 16.1377C20.6003 16.0861 20.435 16.0266 20.3704 16.0054C20.3058 15.9841 20.1405 15.9252 20.0032 15.8745C19.6505 15.7443 16.7341 14.6897 15.9788 14.4193C15.8738 14.3817 15.6755 14.3097 15.5382 14.2593C15.4009 14.2088 15.2357 14.15 15.171 14.1285C15.1064 14.107 14.9412 14.0476 14.8038 13.9966C14.3091 13.8127 14.2293 13.7836 14.1135 13.7452C14.0489 13.7238 13.8837 13.6646 13.7463 13.6137C12.9095 13.3032 12.1127 13.0267 12.0599 13.0284C12.0261 13.0295 11.8531 13.0827 11.6754 13.1467ZM11.3229 15.4936C10.5664 15.5301 9.69201 15.6547 8.92885 15.8347C7.92531 16.0714 6.7363 16.4938 5.90396 16.9093L5.47879 17.1216L5.48757 17.5177C5.49239 17.7355 5.49888 17.9163 5.50202 17.9194C5.50514 17.9225 5.68591 17.8367 5.90376 17.7287C6.85148 17.2586 7.93207 16.8944 9.04635 16.6694C9.91135 16.4948 10.324 16.4458 11.2495 16.408C13.659 16.3096 15.0212 16.5107 16.9335 17.2472C17.1402 17.3268 17.8793 17.6621 18.2105 17.8265C18.6582 18.0488 18.6073 18.0706 18.6447 17.6401C18.6738 17.3038 18.6722 17.2647 18.6277 17.2296C18.6007 17.2083 18.3538 17.0805 18.0792 16.9456C16.6574 16.2475 14.9907 15.7618 13.3846 15.5774C12.9449 15.527 11.9342 15.457 11.8076 15.4683C11.7834 15.4705 11.5653 15.4818 11.3229 15.4936ZM11.7195 17.0509C9.90815 17.185 7.73858 17.6987 6.12354 18.3759L5.88854 18.4744L5.87896 18.8108C5.87371 18.9958 5.87849 19.5199 5.88963 19.9753L5.90987 20.8033L6.11952 20.6977C6.85642 20.3268 7.97634 19.9742 9.04635 19.7762C10.1312 19.5755 10.6764 19.5289 11.9398 19.5289C13.145 19.5289 13.6779 19.5672 14.657 19.7245C16.1046 19.9571 17.289 20.3577 18.0581 20.875L18.2055 20.9742L18.2224 20.5304C18.2316 20.2863 18.2468 19.7353 18.256 19.3059L18.2728 18.5251L18.176 18.4516C17.6639 18.0629 16.5557 17.6804 15.1857 17.4193C14.4121 17.2719 13.156 17.1034 12.5273 17.0626C12.3819 17.0532 12.2166 17.0411 12.1601 17.0357C12.1035 17.0303 11.9053 17.0372 11.7195 17.0509ZM10.7079 17.9595C10.9228 18.0922 10.9436 18.4042 10.7499 18.5896C10.6728 18.6635 10.6375 18.6755 10.4964 18.6755C10.3451 18.6755 10.3248 18.6671 10.2337 18.5678C10.1795 18.5086 10.1266 18.4265 10.1162 18.3852C10.076 18.2251 10.169 18.0254 10.3264 17.9342C10.4168 17.8817 10.6019 17.894 10.7079 17.9595ZM12.3061 17.9371C12.4204 17.9949 12.5126 18.1551 12.5126 18.2959C12.5126 18.466 12.4134 18.6067 12.2546 18.6619C12.1456 18.6999 12.1158 18.6999 12.0068 18.6619C11.6008 18.5206 11.7016 17.9004 12.1307 17.9004C12.1873 17.9004 12.2662 17.917 12.3061 17.9371ZM14.0313 18.1039C14.1659 18.1859 14.2259 18.3178 14.209 18.4943C14.1623 18.9799 13.4525 18.9314 13.4529 18.4427C13.4531 18.1427 13.7804 17.951 14.0313 18.1039ZM9.01498 18.2798C9.06239 18.3135 9.12328 18.4002 9.15157 18.4742C9.2006 18.6026 9.20039 18.6131 9.14628 18.7454C9.10122 18.8555 9.0635 18.8964 8.95799 18.9497C8.81006 19.0245 8.70389 19.0167 8.56856 18.9211C8.3956 18.7989 8.35101 18.5688 8.46678 18.3957C8.60038 18.1958 8.82903 18.1475 9.01498 18.2798ZM15.6776 18.5034C15.8577 18.6213 15.9117 18.873 15.7944 19.0471C15.7114 19.1701 15.617 19.2197 15.4648 19.2201C15.2962 19.2205 15.1732 19.1347 15.1117 18.9736C15.0633 18.847 15.0632 18.8313 15.1093 18.7105C15.1364 18.6398 15.183 18.5598 15.213 18.5327C15.3324 18.4246 15.5376 18.4117 15.6776 18.5034ZM7.23641 18.7829C7.58542 19.0572 7.3159 19.6053 6.89407 19.479C6.72599 19.4287 6.6376 19.3078 6.6376 19.1284C6.6376 18.9611 6.67132 18.8812 6.78089 18.7887C6.88679 18.6993 7.12623 18.6963 7.23641 18.7829ZM17.3953 18.87C17.4328 18.887 17.4947 18.9466 17.5329 19.0024C17.7142 19.2668 17.5194 19.6201 17.1972 19.611C16.8317 19.6006 16.6992 19.1334 16.9957 18.9003C17.082 18.8325 17.2799 18.8174 17.3953 18.87ZM11.881 20.4239C11.8326 20.4558 11.7698 20.5248 11.7415 20.5773C11.6936 20.6664 11.6901 20.8641 11.6901 23.5136V26.3543H12.116H12.542V23.5204C12.542 20.3996 12.5503 20.5409 12.3601 20.425C12.2304 20.346 12.0004 20.3454 11.881 20.4239ZM10.2234 20.8867C10.168 20.9149 10.0953 20.9753 10.0619 21.0209C10.0016 21.103 10.001 21.1261 9.99322 23.729L9.98541 26.3543H10.4118H10.8382V23.7802C10.8382 21.2231 10.8378 21.2052 10.7764 21.0784C10.6721 20.8631 10.4326 20.7801 10.2234 20.8867ZM13.517 20.9534C13.4609 20.9876 13.396 21.0651 13.3634 21.1368C13.3092 21.2561 13.307 21.3598 13.3064 23.8076L13.3057 26.3543H13.747H14.1882L14.1802 23.7782C14.1729 21.4031 14.1683 21.195 14.1216 21.1096C14.0103 20.9064 13.718 20.8309 13.517 20.9534ZM8.58519 21.3073C8.4971 21.3509 8.4446 21.4039 8.4016 21.4927C8.34238 21.6149 8.34135 21.6575 8.34135 23.9857V26.3543H8.78197H9.2226L9.22195 23.9837C9.22134 21.6993 9.21922 21.6086 9.1642 21.4874C9.12061 21.3914 9.07731 21.3482 8.98125 21.3046C8.81984 21.2314 8.73753 21.2319 8.58519 21.3073ZM15.2592 21.2817C15.2107 21.2987 15.1465 21.334 15.1166 21.3601C14.9766 21.4823 14.9801 21.4154 14.9801 23.9602V26.3543H15.4065H15.833L15.8251 23.9196L15.8173 21.4849L15.7308 21.3947C15.6504 21.3109 15.4942 21.2437 15.3913 21.2487C15.3671 21.2499 15.3076 21.2648 15.2592 21.2817ZM6.97051 21.572C6.85518 21.6054 6.73357 21.7456 6.71119 21.8709C6.7019 21.9229 6.69806 22.9496 6.70267 24.1525L6.71104 26.3396L7.14432 26.3477L7.5776 26.3558V24.1162C7.5776 21.5772 7.59238 21.7344 7.34154 21.6059C7.20504 21.5359 7.12161 21.5283 6.97051 21.572ZM16.958 21.572C16.8427 21.6054 16.7211 21.7456 16.6987 21.8709C16.6894 21.9229 16.6855 22.9496 16.6902 24.1525L16.6985 26.3396H17.1245H17.5504L17.5579 24.1084C17.5665 21.577 17.5809 21.7349 17.329 21.6059C17.1925 21.5359 17.1091 21.5283 16.958 21.572Z" fill="var(--fill-0, #B98D3B)"/>
<path fill-rule="evenodd" clip-rule="evenodd" d="M12.9884 0.192251C12.8287 0.687907 12.3581 1.24891 10.6452 2.98544C8.79822 4.85797 8.48805 5.25059 8.29576 5.95943C8.19956 6.31406 8.17476 6.7146 8.22602 7.08564C8.24803 7.24492 8.27017 7.34224 8.2752 7.30188C8.29972 7.10531 8.38418 6.76861 8.45192 6.59732C8.54327 6.36625 8.64938 6.18821 8.88047 5.87808C9.2508 5.38117 9.5382 5.07254 10.8353 3.77909C12.4199 2.19898 12.6768 1.90667 12.932 1.39417C13.0229 1.21148 13.0235 1.20678 13.0418 0.608585C13.052 0.27759 13.0585 0.0037822 13.0564 0.000112634C13.0542 -0.00355693 13.0236 0.0828976 12.9884 0.192251ZM13.0139 1.79753C12.9434 2.0211 12.7071 2.45893 12.5503 2.6562C12.3724 2.88008 11.7501 3.53989 10.7991 4.513C10.444 4.87629 9.99228 5.33866 9.7952 5.54048C9.23491 6.11426 9.08927 6.28732 8.89736 6.60739C8.51381 7.24698 8.35853 7.67306 8.36071 8.07982C8.36174 8.27202 8.38198 8.3733 8.47207 8.6376C8.53261 8.81521 8.59074 8.97608 8.60129 8.9951C8.6118 9.01413 8.62141 8.87542 8.62264 8.68686C8.62458 8.39332 8.63648 8.31027 8.70551 8.10918C8.9525 7.38959 9.41688 6.82715 11.5294 4.68914C12.0957 4.11596 12.5997 3.58754 12.6494 3.51488C12.8931 3.15832 13.0247 2.76112 13.0743 2.23238C13.0984 1.97519 13.1003 1.82759 13.0803 1.76776L13.051 1.6801L13.0139 1.79753ZM12.9946 3.41947C12.9034 3.73776 12.7326 4.04559 12.5101 4.29283C12.3938 4.422 11.8677 4.97572 11.3408 5.52331C9.38302 7.55822 9.25814 7.70609 9.06524 8.2183C8.92929 8.57921 8.88388 9.07175 8.95743 9.38775C9.0343 9.71818 9.28646 10.0338 9.50654 10.075C9.5637 10.0858 9.61749 10.0875 9.62606 10.0789C9.63464 10.0704 9.60063 10.0167 9.55045 9.95955C9.32086 9.69819 9.26907 9.08229 9.44547 8.71099C9.64936 8.28177 10.1395 7.71827 11.5139 6.33311C12.7466 5.09074 12.7971 5.02563 12.9597 4.46897C13.0324 4.22 13.048 4.10518 13.0625 3.71304C13.0718 3.45872 13.0713 3.25067 13.0612 3.25067C13.0512 3.25067 13.0212 3.32662 12.9946 3.41947ZM14.2673 4.4176C14.3785 4.53643 14.4945 4.76706 14.525 4.92981C14.5502 5.06359 14.4503 5.48113 14.3375 5.71372C14.2064 5.98435 14.0343 6.20755 13.5094 6.78814C12.7126 7.66927 12.4608 7.98712 12.3533 8.24719C12.2772 8.43116 12.2188 8.89027 12.22 9.29595L12.2211 9.69443L12.3029 9.44411C12.4056 9.12967 12.5395 8.87712 12.7099 8.67641C12.8366 8.5271 12.9318 8.42512 13.5689 7.75608C14.3002 6.98806 14.5302 6.71568 14.6663 6.45682C14.8803 6.04982 14.971 5.4857 14.8797 5.12949C14.775 4.72138 14.6207 4.48943 14.3791 4.377C14.173 4.28109 14.1481 4.29013 14.2673 4.4176ZM15.1068 5.44704C15.1548 5.68677 15.1899 6.06012 15.1739 6.16005C15.144 6.34717 15.046 6.57648 14.8721 6.86646C14.6349 7.2621 14.6059 7.29551 13.4642 8.49082C13.1558 8.81374 12.857 9.13079 12.8003 9.19537C12.608 9.41414 12.3141 9.95312 12.2439 10.2155C12.2131 10.3309 12.1972 10.3521 12.152 10.3377C12.119 10.3272 11.9316 10.3905 11.6807 10.4968C11.4516 10.5938 11.0527 10.762 10.7942 10.8706C10.5357 10.9791 10.0928 11.1661 9.8101 11.2861C9.52736 11.406 9.09115 11.5903 8.84072 11.6955C8.5903 11.8007 8.26644 11.9378 8.12104 12.0002C7.97563 12.0626 7.61873 12.214 7.32791 12.3368C7.0371 12.4596 6.59427 12.6471 6.34385 12.7533C6.09343 12.8596 5.74974 13.0049 5.5801 13.0761C5.07189 13.2895 5.02101 13.311 4.66948 13.4611C4.17533 13.6722 3.22781 14.0729 2.74542 14.2749C2.60001 14.3358 2.24972 14.4837 1.96698 14.6035C1.68425 14.7234 1.24803 14.9077 0.997607 15.0131C0.0234745 15.4232 0.0628369 15.4023 0.0455644 15.5197C0.0222994 15.6782 -0.00957223 16.1382 0.00273588 16.1381C0.00866963 16.138 0.119296 16.0973 0.248546 16.0475C0.377795 15.9978 0.53642 15.9398 0.601045 15.9187C0.66567 15.8976 0.751592 15.866 0.791982 15.8485C0.832373 15.831 1.05048 15.7491 1.27667 15.6666C1.50286 15.584 1.8135 15.4695 1.96698 15.412C2.32039 15.2798 2.58762 15.1812 2.77479 15.1142C2.85557 15.0853 3.04725 15.0144 3.20073 14.9567C3.35421 14.8989 3.66485 14.7842 3.89104 14.7016C4.11723 14.6191 4.33534 14.5372 4.37573 14.5197C4.41612 14.5022 4.50204 14.4703 4.56667 14.4489C4.63129 14.4275 4.7767 14.3752 4.88979 14.3328C5.00288 14.2903 5.16151 14.2311 5.24229 14.2013C5.32307 14.1715 5.49492 14.1077 5.62417 14.0596C5.75342 14.0115 6.08388 13.8895 6.35854 13.7886C6.6332 13.6876 6.93723 13.5759 7.03416 13.5402C7.1311 13.5046 7.33928 13.4272 7.49682 13.3683C7.796 13.2565 8.14407 13.128 8.62776 12.9509C8.90923 12.8478 9.06312 12.7904 9.41354 12.6579C9.6124 12.5826 9.78539 12.5188 10.1993 12.3677C10.6674 12.1968 11.0463 12.0573 11.2495 11.981C11.3545 11.9416 11.5065 11.8845 11.5873 11.8543C11.6681 11.824 11.828 11.7635 11.9427 11.72L12.1512 11.6409L12.4421 11.7514C12.602 11.8121 12.8188 11.8935 12.9238 11.9323C13.0289 11.9711 13.1809 12.0277 13.2617 12.0582C13.3424 12.0886 13.5011 12.1481 13.6142 12.1903C13.7273 12.2325 13.8859 12.2919 13.9667 12.3224C14.0474 12.3528 14.1995 12.4095 14.3045 12.4482C14.4095 12.487 14.6276 12.5675 14.7892 12.6272C14.9507 12.6868 15.1135 12.7483 15.1508 12.7638C15.1882 12.7793 15.3468 12.8387 15.5033 12.8959C15.6599 12.953 15.8185 13.0125 15.8558 13.028C15.8932 13.0435 16.0518 13.1029 16.2083 13.1601C16.3649 13.2173 16.5235 13.2767 16.5608 13.2922C16.5982 13.3077 16.7568 13.3671 16.9133 13.4243C17.0699 13.4815 17.2285 13.5409 17.2658 13.5564C17.3032 13.5719 17.4618 13.6317 17.6183 13.6893C17.7749 13.7469 18.0582 13.8525 18.2481 13.924C18.4379 13.9954 18.7518 14.1133 18.9457 14.186C19.1396 14.2586 19.4535 14.3765 19.6434 14.448C19.8332 14.5194 20.1166 14.625 20.2731 14.6826C20.4296 14.7402 20.5882 14.8001 20.6256 14.8156C20.6629 14.8311 20.8216 14.8905 20.9781 14.9477C21.1346 15.0048 21.2932 15.0643 21.3306 15.0798C21.3679 15.0953 21.5307 15.1567 21.6923 15.2163C21.8538 15.276 22.0719 15.3573 22.177 15.3971C22.5177 15.5263 22.7482 15.6122 22.8232 15.6379C22.8636 15.6517 23.0222 15.7111 23.1757 15.7699C23.3292 15.8287 23.5774 15.922 23.7274 15.9772L24 16.0776L23.9918 15.7228L23.9835 15.368L23.7926 15.2847C23.6876 15.2389 23.3174 15.0812 22.9701 14.9342C21.8709 14.4692 21.437 14.285 21.1048 14.1422C20.9271 14.0658 20.5702 13.9139 20.3117 13.8046C20.0532 13.6953 19.6896 13.5408 19.5038 13.4614C19.318 13.3819 19.1065 13.2921 19.0338 13.2618C18.9611 13.2315 18.7629 13.1475 18.5932 13.0751C18.4236 13.0027 18.1526 12.8875 17.991 12.8192C17.8295 12.7508 17.6047 12.6557 17.4917 12.6079C17.3786 12.5601 17.2464 12.5034 17.1979 12.482C17.1494 12.4607 16.8718 12.3426 16.581 12.2197C16.0853 12.0103 15.8202 11.8973 15.6117 11.8068C15.5632 11.7858 15.4244 11.7272 15.3032 11.6766C15.182 11.626 14.9639 11.5333 14.8185 11.4707C14.5871 11.3709 14.0768 11.1528 13.7373 11.0085L13.6254 10.961L13.9897 10.5919C14.9353 9.63396 15.2173 9.24346 15.4966 8.5055C15.5772 8.2924 15.5798 8.26838 15.5779 7.7569C15.5768 7.46627 15.563 7.18885 15.5474 7.14042C15.5197 7.05519 15.5181 7.05742 15.4978 7.20882C15.4563 7.51803 15.3282 7.92673 15.2136 8.11523C14.9641 8.52557 14.2512 9.34923 13.4094 10.1995L12.9385 10.6751L12.7549 10.5979C12.654 10.5555 12.5713 10.5105 12.5713 10.4981C12.5713 10.444 12.8848 10.0943 13.7786 9.15134C14.4889 8.4019 14.9649 7.85032 15.0656 7.65991C15.1478 7.50447 15.2787 7.15501 15.3318 6.9496C15.4091 6.6504 15.42 5.99439 15.3509 5.80816C15.298 5.66598 15.1319 5.36434 15.1065 5.36434C15.0975 5.36434 15.0977 5.40157 15.1068 5.44704ZM11.6754 13.1467C11.3078 13.279 10.5586 13.5418 10.3829 13.6C10.3183 13.6214 10.0737 13.7073 9.83947 13.7908C9.60521 13.8744 9.34083 13.9666 9.25197 13.9957C9.16311 14.0248 8.89874 14.1172 8.66447 14.2012C8.43021 14.2851 8.16583 14.3773 8.07697 14.4062C7.98812 14.435 7.72374 14.5273 7.48948 14.6112C7.25521 14.6952 7.01066 14.7815 6.94604 14.8029C6.88141 14.8243 6.61704 14.9165 6.35854 15.0077C6.10004 15.099 5.83567 15.191 5.77104 15.2123C5.70642 15.2336 5.46187 15.3194 5.2276 15.4029C4.99334 15.4864 4.62982 15.6143 4.41979 15.687C4.20976 15.7597 3.94539 15.8521 3.83229 15.8923C3.7192 15.9324 3.57379 15.983 3.50917 16.0047C3.44454 16.0263 3.14128 16.1313 2.83522 16.2379C2.52916 16.3445 2.27471 16.4318 2.26975 16.4318C2.26478 16.4318 2.26073 16.5851 2.26073 16.7725C2.26073 17.0808 2.26549 17.1114 2.31052 17.0941C2.37391 17.0698 2.55936 17.0128 3.31823 16.784C3.51501 16.7247 3.79405 16.6404 4.22885 16.5089C4.82828 16.3277 5.2766 16.193 5.75635 16.0501C6.03909 15.9659 6.44226 15.8451 6.65229 15.7815C6.86232 15.718 7.14652 15.6324 7.28385 15.5914C7.42118 15.5503 7.63929 15.4842 7.76854 15.4444C8.12371 15.3352 8.6101 15.1887 9.70729 14.8607C9.96579 14.7834 10.3623 14.6641 10.5885 14.5955C10.8147 14.527 11.2266 14.4025 11.5037 14.319L12.0076 14.167L12.4878 14.3164C12.7519 14.3985 13.0472 14.4915 13.1442 14.5229C13.2411 14.5544 13.7104 14.6999 14.187 14.8463C15.065 15.1159 15.3814 15.2141 15.6998 15.3158C15.7967 15.3468 16.0743 15.4331 16.3167 15.5075C16.559 15.582 16.949 15.7025 17.1832 15.7753C17.7978 15.9663 18.0559 16.0463 18.2554 16.1078C18.3523 16.1376 18.6299 16.2233 18.8723 16.2982C19.2898 16.4273 19.4644 16.4817 19.9961 16.6481C20.1212 16.6873 20.3425 16.7554 20.4879 16.7996C20.6333 16.8438 20.825 16.9036 20.9138 16.9324C21.0027 16.9613 21.1944 17.0204 21.3398 17.0639C21.4852 17.1074 21.6524 17.1606 21.7114 17.1823L21.8187 17.2216L21.8668 17.0102C21.8933 16.8939 21.9225 16.7457 21.9315 16.6808C21.9478 16.5647 21.9463 16.5624 21.8349 16.5302C21.7726 16.5122 21.5895 16.4486 21.4279 16.389C21.2663 16.3295 21.1011 16.2696 21.0607 16.2561C21.0203 16.2426 20.8749 16.1893 20.7376 16.1377C20.6003 16.0861 20.435 16.0266 20.3704 16.0054C20.3058 15.9841 20.1405 15.9252 20.0032 15.8745C19.6505 15.7443 16.7341 14.6897 15.9788 14.4193C15.8738 14.3817 15.6755 14.3097 15.5382 14.2593C15.4009 14.2088 15.2357 14.15 15.171 14.1285C15.1064 14.107 14.9412 14.0476 14.8038 13.9966C14.3091 13.8127 14.2293 13.7836 14.1135 13.7452C14.0489 13.7238 13.8837 13.6646 13.7463 13.6137C12.9095 13.3032 12.1127 13.0267 12.0599 13.0284C12.0261 13.0295 11.8531 13.0827 11.6754 13.1467ZM11.3229 15.4936C10.5664 15.5301 9.69201 15.6547 8.92885 15.8347C7.92531 16.0714 6.7363 16.4938 5.90396 16.9093L5.47879 17.1216L5.48757 17.5177C5.49239 17.7355 5.49888 17.9163 5.50202 17.9194C5.50514 17.9225 5.68591 17.8367 5.90376 17.7287C6.85148 17.2586 7.93207 16.8944 9.04635 16.6694C9.91135 16.4948 10.324 16.4458 11.2495 16.408C13.659 16.3096 15.0212 16.5107 16.9335 17.2472C17.1402 17.3268 17.8793 17.6621 18.2105 17.8265C18.6582 18.0488 18.6073 18.0706 18.6447 17.6401C18.6738 17.3038 18.6722 17.2647 18.6277 17.2296C18.6007 17.2083 18.3538 17.0805 18.0792 16.9456C16.6574 16.2475 14.9907 15.7618 13.3846 15.5774C12.9449 15.527 11.9342 15.457 11.8076 15.4683C11.7834 15.4705 11.5653 15.4818 11.3229 15.4936ZM11.7195 17.0509C9.90815 17.185 7.73858 17.6987 6.12354 18.3759L5.88854 18.4744L5.87896 18.8108C5.87371 18.9958 5.87849 19.5199 5.88963 19.9753L5.90987 20.8033L6.11952 20.6977C6.85642 20.3268 7.97634 19.9742 9.04635 19.7762C10.1312 19.5755 10.6764 19.5289 11.9398 19.5289C13.145 19.5289 13.6779 19.5672 14.657 19.7245C16.1046 19.9571 17.289 20.3577 18.0581 20.875L18.2055 20.9742L18.2224 20.5304C18.2316 20.2863 18.2468 19.7353 18.256 19.3059L18.2728 18.5251L18.176 18.4516C17.6639 18.0629 16.5557 17.6804 15.1857 17.4193C14.4121 17.2719 13.156 17.1034 12.5273 17.0626C12.3819 17.0532 12.2166 17.0411 12.1601 17.0357C12.1035 17.0303 11.9053 17.0372 11.7195 17.0509ZM10.7079 17.9595C10.9228 18.0922 10.9436 18.4042 10.7499 18.5896C10.6728 18.6635 10.6375 18.6755 10.4964 18.6755C10.3451 18.6755 10.3248 18.6671 10.2337 18.5678C10.1795 18.5086 10.1266 18.4265 10.1162 18.3852C10.076 18.2251 10.169 18.0254 10.3264 17.9342C10.4168 17.8817 10.6019 17.894 10.7079 17.9595ZM12.3061 17.9371C12.4204 17.9949 12.5126 18.1551 12.5126 18.2959C12.5126 18.466 12.4134 18.6067 12.2546 18.6619C12.1456 18.6999 12.1158 18.6999 12.0068 18.6619C11.6008 18.5206 11.7016 17.9004 12.1307 17.9004C12.1873 17.9004 12.2662 17.917 12.3061 17.9371ZM14.0313 18.1039C14.1659 18.1859 14.2259 18.3178 14.209 18.4943C14.1623 18.9799 13.4525 18.9314 13.4529 18.4427C13.4531 18.1427 13.7804 17.951 14.0313 18.1039ZM9.01498 18.2798C9.06239 18.3135 9.12328 18.4002 9.15157 18.4742C9.2006 18.6026 9.20039 18.6131 9.14628 18.7454C9.10122 18.8555 9.0635 18.8964 8.95799 18.9497C8.81006 19.0245 8.70389 19.0167 8.56856 18.9211C8.3956 18.7989 8.35101 18.5688 8.46678 18.3957C8.60038 18.1958 8.82903 18.1475 9.01498 18.2798ZM15.6776 18.5034C15.8577 18.6213 15.9117 18.873 15.7944 19.0471C15.7114 19.1701 15.617 19.2197 15.4648 19.2201C15.2962 19.2205 15.1732 19.1347 15.1117 18.9736C15.0633 18.847 15.0632 18.8313 15.1093 18.7105C15.1364 18.6398 15.183 18.5598 15.213 18.5327C15.3324 18.4246 15.5376 18.4117 15.6776 18.5034ZM7.23641 18.7829C7.58542 19.0572 7.3159 19.6053 6.89407 19.479C6.72599 19.4287 6.6376 19.3078 6.6376 19.1284C6.6376 18.9611 6.67132 18.8812 6.78089 18.7887C6.88679 18.6993 7.12623 18.6963 7.23641 18.7829ZM17.3953 18.87C17.4328 18.887 17.4947 18.9466 17.5329 19.0024C17.7142 19.2668 17.5194 19.6201 17.1972 19.611C16.8317 19.6006 16.6992 19.1334 16.9957 18.9003C17.082 18.8325 17.2799 18.8174 17.3953 18.87ZM11.881 20.4239C11.8326 20.4558 11.7698 20.5248 11.7415 20.5773C11.6936 20.6664 11.6901 20.8641 11.6901 23.5136V26.3543H12.116H12.542V23.5204C12.542 20.3996 12.5503 20.5409 12.3601 20.425C12.2304 20.346 12.0004 20.3454 11.881 20.4239ZM10.2234 20.8867C10.168 20.9149 10.0953 20.9753 10.0619 21.0209C10.0016 21.103 10.001 21.1261 9.99322 23.729L9.98541 26.3543H10.4118H10.8382V23.7802C10.8382 21.2231 10.8378 21.2052 10.7764 21.0784C10.6721 20.8631 10.4326 20.7801 10.2234 20.8867ZM13.517 20.9534C13.4609 20.9876 13.396 21.0651 13.3634 21.1368C13.3092 21.2561 13.307 21.3598 13.3064 23.8076L13.3057 26.3543H13.747H14.1882L14.1802 23.7782C14.1729 21.4031 14.1683 21.195 14.1216 21.1096C14.0103 20.9064 13.718 20.8309 13.517 20.9534ZM8.58519 21.3073C8.4971 21.3509 8.4446 21.4039 8.4016 21.4927C8.34238 21.6149 8.34135 21.6575 8.34135 23.9857V26.3543H8.78197H9.2226L9.22195 23.9837C9.22134 21.6993 9.21922 21.6086 9.1642 21.4874C9.12061 21.3914 9.07731 21.3482 8.98125 21.3046C8.81984 21.2314 8.73753 21.2319 8.58519 21.3073ZM15.2592 21.2817C15.2107 21.2987 15.1465 21.334 15.1166 21.3601C14.9766 21.4823 14.9801 21.4154 14.9801 23.9602V26.3543H15.4065H15.833L15.8251 23.9196L15.8173 21.4849L15.7308 21.3947C15.6504 21.3109 15.4942 21.2437 15.3913 21.2487C15.3671 21.2499 15.3076 21.2648 15.2592 21.2817ZM6.97051 21.572C6.85518 21.6054 6.73357 21.7456 6.71119 21.8709C6.7019 21.9229 6.69806 22.9496 6.70267 24.1525L6.71104 26.3396L7.14432 26.3477L7.5776 26.3558V24.1162C7.5776 21.5772 7.59238 21.7344 7.34154 21.6059C7.20504 21.5359 7.12161 21.5283 6.97051 21.572ZM16.958 21.572C16.8427 21.6054 16.7211 21.7456 16.6987 21.8709C16.6894 21.9229 16.6855 22.9496 16.6902 24.1525L16.6985 26.3396H17.1245H17.5504L17.5579 24.1084C17.5665 21.577 17.5809 21.7349 17.329 21.6059C17.1925 21.5359 17.1091 21.5283 16.958 21.572Z" fill="var(--fill-0, #B98D3B)"/>
</g>
</svg>
