<svg preserveAspectRatio="none" width="100%" height="100%" overflow="visible" style="display: block;" viewBox="0 0 3 13.5" fill="none" xmlns="http://www.w3.org/2000/svg">
<path id="Vector" d="M1.5 0C0.675 0 0 0.675 0 1.5C0 2.325 0.675 3 1.5 3C2.325 3 3 2.325 3 1.5C3 0.675 2.325 0 1.5 0ZM1.5 10.5C0.675 10.5 0 11.175 0 12C0 12.825 0.675 13.5 1.5 13.5C2.325 13.5 3 12.825 3 12C3 11.175 2.325 10.5 1.5 10.5ZM1.5 5.25C0.675 5.25 0 5.925 0 6.75C0 7.575 0.675 8.25 1.5 8.25C2.325 8.25 3 7.575 3 6.75C3 5.925 2.325 5.25 1.5 5.25Z" fill="var(--fill-0, #525866)"/>
</svg>
