<svg preserveAspectRatio="none" width="100%" height="100%" overflow="visible" style="display: block;" viewBox="0 0 19.9947 19.9631" fill="none" xmlns="http://www.w3.org/2000/svg">
<path id="Vector" d="M19.1174 7.84572L12.1174 0.845722C11.5451 0.302714 10.7863 0 9.99736 0C9.20846 0 8.44964 0.302714 7.87736 0.845722L0.87736 7.84572C0.315558 8.40822 0 9.17072 0 9.96572C0 10.7607 0.315558 11.5232 0.87736 12.0857L7.87736 19.0857C8.43986 19.6475 9.20236 19.9631 9.99736 19.9631C10.7924 19.9631 11.5549 19.6475 12.1174 19.0857L19.1174 12.0857C19.6792 11.5232 19.9947 10.7607 19.9947 9.96572C19.9947 9.17072 19.6792 8.40822 19.1174 7.84572V7.84572ZM17.7074 10.6757L10.7074 17.6757C10.6144 17.7694 10.5038 17.8438 10.3819 17.8946C10.2601 17.9454 10.1294 17.9715 9.99736 17.9715C9.86535 17.9715 9.73464 17.9454 9.61278 17.8946C9.49092 17.8438 9.38032 17.7694 9.28736 17.6757L2.28736 10.6757C2.19363 10.5828 2.11924 10.4722 2.06847 10.3503C2.0177 10.2284 1.99156 10.0977 1.99156 9.96572C1.99156 9.83371 2.0177 9.703 2.06847 9.58114C2.11924 9.45929 2.19363 9.34869 2.28736 9.25572L9.28736 2.25572C9.38032 2.16199 9.49092 2.0876 9.61278 2.03683C9.73464 1.98606 9.86535 1.95992 9.99736 1.95992C10.1294 1.95992 10.2601 1.98606 10.3819 2.03683C10.5038 2.0876 10.6144 2.16199 10.7074 2.25572L17.7074 9.25572C17.8011 9.34869 17.8755 9.45929 17.9263 9.58114C17.977 9.703 18.0032 9.83371 18.0032 9.96572C18.0032 10.0977 17.977 10.2284 17.9263 10.3503C17.8755 10.4722 17.8011 10.5828 17.7074 10.6757ZM12.2074 7.25572C12.0191 7.06742 11.7637 6.96163 11.4974 6.96163C11.2311 6.96163 10.9757 7.06742 10.7874 7.25572C10.5991 7.44403 10.4933 7.69942 10.4933 7.96572C10.4933 8.23202 10.5991 8.48742 10.7874 8.67572L11.0874 8.96572H7.49736C7.23214 8.96572 6.97779 9.07108 6.79025 9.25862C6.60272 9.44615 6.49736 9.7005 6.49736 9.96572V11.9657C6.49736 12.2309 6.60272 12.4853 6.79025 12.6728C6.97779 12.8604 7.23214 12.9657 7.49736 12.9657C7.76258 12.9657 8.01693 12.8604 8.20447 12.6728C8.392 12.4853 8.49736 12.2309 8.49736 11.9657V10.9657H11.0874L10.7874 11.2557C10.6936 11.3487 10.6192 11.4593 10.5685 11.5811C10.5177 11.703 10.4916 11.8337 10.4916 11.9657C10.4916 12.0977 10.5177 12.2284 10.5685 12.3503C10.6192 12.4722 10.6936 12.5828 10.7874 12.6757C10.8803 12.7695 10.9909 12.8438 11.1128 12.8946C11.2346 12.9454 11.3653 12.9715 11.4974 12.9715C11.6294 12.9715 11.7601 12.9454 11.8819 12.8946C12.0038 12.8438 12.1144 12.7695 12.2074 12.6757L14.2074 10.6757C14.3011 10.5828 14.3755 10.4722 14.4263 10.3503C14.477 10.2284 14.5032 10.0977 14.5032 9.96572C14.5032 9.83371 14.477 9.703 14.4263 9.58114C14.3755 9.45929 14.3011 9.34869 14.2074 9.25572L12.2074 7.25572Z" fill="var(--fill-0, #1E1F26)"/>
</svg>
