<svg preserveAspectRatio="none" width="100%" height="100%" overflow="visible" style="display: block;" viewBox="0 0 16 20.0084" fill="none" xmlns="http://www.w3.org/2000/svg">
<path id="Vector" d="M15 11.0084H13C12.7348 11.0084 12.4804 11.1138 12.2929 11.3013C12.1054 11.4889 12 11.7432 12 12.0084C12 12.2736 12.1054 12.528 12.2929 12.7155C12.4804 12.9031 12.7348 13.0084 13 13.0084H13.91C13.7016 14.2349 13.1171 15.3662 12.2374 16.2459C11.3578 17.1255 10.2264 17.71 9 17.9184V9.00843H10C10.2652 9.00843 10.5196 8.90307 10.7071 8.71553C10.8946 8.528 11 8.27364 11 8.00843C11 7.74321 10.8946 7.48886 10.7071 7.30132C10.5196 7.11378 10.2652 7.00843 10 7.00843H9V5.82843C9.66721 5.59253 10.2296 5.12836 10.5876 4.51795C10.9457 3.90754 11.0765 3.19019 10.9568 2.49269C10.8371 1.7952 10.4747 1.16246 9.93366 0.706322C9.39259 0.25018 8.70769 0 8 0C7.29231 0 6.60741 0.25018 6.06634 0.706322C5.52527 1.16246 5.16288 1.7952 5.0432 2.49269C4.92353 3.19019 5.05429 3.90754 5.41237 4.51795C5.77045 5.12836 6.33279 5.59253 7 5.82843V7.00843H6C5.73478 7.00843 5.48043 7.11378 5.29289 7.30132C5.10536 7.48886 5 7.74321 5 8.00843C5 8.27364 5.10536 8.528 5.29289 8.71553C5.48043 8.90307 5.73478 9.00843 6 9.00843H7V17.9184C5.77356 17.71 4.64222 17.1255 3.76256 16.2459C2.8829 15.3662 2.29842 14.2349 2.09 13.0084H3C3.26522 13.0084 3.51957 12.9031 3.70711 12.7155C3.89464 12.528 4 12.2736 4 12.0084C4 11.7432 3.89464 11.4889 3.70711 11.3013C3.51957 11.1138 3.26522 11.0084 3 11.0084H1C0.734784 11.0084 0.48043 11.1138 0.292893 11.3013C0.105357 11.4889 0 11.7432 0 12.0084C0 14.1302 0.842855 16.165 2.34315 17.6653C3.84344 19.1656 5.87827 20.0084 8 20.0084C10.1217 20.0084 12.1566 19.1656 13.6569 17.6653C15.1571 16.165 16 14.1302 16 12.0084C16 11.7432 15.8946 11.4889 15.7071 11.3013C15.5196 11.1138 15.2652 11.0084 15 11.0084ZM8 4.00843C7.80222 4.00843 7.60888 3.94978 7.44443 3.8399C7.27998 3.73002 7.15181 3.57384 7.07612 3.39111C7.00043 3.20838 6.98063 3.00732 7.01921 2.81334C7.0578 2.61936 7.15304 2.44117 7.29289 2.30132C7.43275 2.16147 7.61093 2.06623 7.80491 2.02764C7.99889 1.98906 8.19996 2.00886 8.38268 2.08455C8.56541 2.16024 8.72159 2.28841 8.83147 2.45286C8.94135 2.61731 9 2.81065 9 3.00843C9 3.27364 8.89464 3.528 8.70711 3.71553C8.51957 3.90307 8.26522 4.00843 8 4.00843Z" fill="var(--fill-0, #1E1F26)"/>
</svg>
