<svg preserveAspectRatio="none" width="100%" height="100%" overflow="visible" style="display: block;" viewBox="0 0 19.9773 18.9867" fill="none" xmlns="http://www.w3.org/2000/svg">
<path id="Vector" d="M10 14.9867C9.80224 14.9867 9.6089 15.0454 9.44445 15.1552C9.28 15.2651 9.15183 15.4213 9.07614 15.604C9.00045 15.7868 8.98065 15.9878 9.01923 16.1818C9.05782 16.3758 9.15306 16.554 9.29291 16.6938C9.43277 16.8337 9.61095 16.9289 9.80493 16.9675C9.99891 17.0061 10.2 16.9863 10.3827 16.9106C10.5654 16.8349 10.7216 16.7067 10.8315 16.5423C10.9414 16.3778 11 16.1845 11 15.9867C11 15.7215 10.8947 15.4671 10.7071 15.2796C10.5196 15.0921 10.2652 14.9867 10 14.9867ZM6.00002 8.98671C5.80224 8.98671 5.6089 9.04536 5.44445 9.15524C5.28 9.26512 5.15183 9.4213 5.07614 9.60403C5.00045 9.78675 4.98065 9.98782 5.01923 10.1818C5.05782 10.3758 5.15306 10.554 5.29291 10.6938C5.43277 10.8337 5.61095 10.9289 5.80493 10.9675C5.99891 11.0061 6.19998 10.9863 6.3827 10.9106C6.56543 10.8349 6.72161 10.7067 6.83149 10.5423C6.94137 10.3778 7.00002 10.1845 7.00002 9.98671C7.00002 9.7215 6.89466 9.46714 6.70713 9.2796C6.51959 9.09207 6.26524 8.98671 6.00002 8.98671V8.98671ZM10 10.9867C9.80224 10.9867 9.6089 11.0454 9.44445 11.1552C9.28 11.2651 9.15183 11.4213 9.07614 11.604C9.00045 11.7868 8.98065 11.9878 9.01923 12.1818C9.05782 12.3758 9.15306 12.554 9.29291 12.6938C9.43277 12.8337 9.61095 12.9289 9.80493 12.9675C9.99891 13.0061 10.2 12.9863 10.3827 12.9106C10.5654 12.8349 10.7216 12.7067 10.8315 12.5423C10.9414 12.3778 11 12.1845 11 11.9867C11 11.7215 10.8947 11.4671 10.7071 11.2796C10.5196 11.0921 10.2652 10.9867 10 10.9867ZM6.00002 16.9867C5.80224 16.9867 5.6089 17.0454 5.44445 17.1552C5.28 17.2651 5.15183 17.4213 5.07614 17.604C5.00045 17.7868 4.98065 17.9878 5.01923 18.1818C5.05782 18.3758 5.15306 18.554 5.29291 18.6938C5.43277 18.8337 5.61095 18.9289 5.80493 18.9675C5.99891 19.0061 6.19998 18.9863 6.3827 18.9106C6.56543 18.8349 6.72161 18.7067 6.83149 18.5423C6.94137 18.3778 7.00002 18.1845 7.00002 17.9867C7.00002 17.7215 6.89466 17.4671 6.70713 17.2796C6.51959 17.0921 6.26524 16.9867 6.00002 16.9867V16.9867ZM6.00002 12.9867C5.80224 12.9867 5.6089 13.0454 5.44445 13.1552C5.28 13.2651 5.15183 13.4213 5.07614 13.604C5.00045 13.7868 4.98065 13.9878 5.01923 14.1818C5.05782 14.3758 5.15306 14.554 5.29291 14.6938C5.43277 14.8337 5.61095 14.9289 5.80493 14.9675C5.99891 15.0061 6.19998 14.9863 6.3827 14.9106C6.56543 14.8349 6.72161 14.7067 6.83149 14.5423C6.94137 14.3778 7.00002 14.1845 7.00002 13.9867C7.00002 13.7215 6.89466 13.4671 6.70713 13.2796C6.51959 13.0921 6.26524 12.9867 6.00002 12.9867V12.9867ZM14 12.9867C13.8022 12.9867 13.6089 13.0454 13.4444 13.1552C13.28 13.2651 13.1518 13.4213 13.0761 13.604C13.0005 13.7868 12.9806 13.9878 13.0192 14.1818C13.0578 14.3758 13.1531 14.554 13.2929 14.6938C13.4328 14.8337 13.6109 14.9289 13.8049 14.9675C13.9989 15.0061 14.2 14.9863 14.3827 14.9106C14.5654 14.8349 14.7216 14.7067 14.8315 14.5423C14.9414 14.3778 15 14.1845 15 13.9867C15 13.7215 14.8947 13.4671 14.7071 13.2796C14.5196 13.0921 14.2652 12.9867 14 12.9867ZM10 6.98671C9.80224 6.98671 9.6089 7.04536 9.44445 7.15524C9.28 7.26512 9.15183 7.4213 9.07614 7.60403C9.00045 7.78675 8.98065 7.98782 9.01923 8.1818C9.05782 8.37578 9.15306 8.55397 9.29291 8.69382C9.43277 8.83367 9.61095 8.92891 9.80493 8.9675C9.99891 9.00608 10.2 8.98628 10.3827 8.91059C10.5654 8.8349 10.7216 8.70673 10.8315 8.54228C10.9414 8.37783 11 8.18449 11 7.98671C11 7.72149 10.8947 7.46714 10.7071 7.2796C10.5196 7.09207 10.2652 6.98671 10 6.98671ZM14 8.98671C13.8022 8.98671 13.6089 9.04536 13.4444 9.15524C13.28 9.26512 13.1518 9.4213 13.0761 9.60403C13.0005 9.78675 12.9806 9.98782 13.0192 10.1818C13.0578 10.3758 13.1531 10.554 13.2929 10.6938C13.4328 10.8337 13.6109 10.9289 13.8049 10.9675C13.9989 11.0061 14.2 10.9863 14.3827 10.9106C14.5654 10.8349 14.7216 10.7067 14.8315 10.5423C14.9414 10.3778 15 10.1845 15 9.98671C15 9.7215 14.8947 9.46714 14.7071 9.2796C14.5196 9.09207 14.2652 8.98671 14 8.98671ZM16.42 4.20671C15.809 2.80272 14.7545 1.63779 13.4181 0.890438C12.0817 0.143088 10.5371 -0.145456 9.02099 0.0690207C7.50489 0.283498 6.10095 0.989164 5.02427 2.07789C3.9476 3.16661 3.25761 4.57833 3.06002 6.09671C2.18743 6.30768 1.41118 6.80604 0.856149 7.51162C0.301114 8.21721 -0.000433116 9.08899 1.98754e-05 9.98671C-0.00176561 10.5531 0.116767 11.1135 0.347772 11.6306C0.578778 12.1478 0.916988 12.61 1.34002 12.9867C1.43738 13.0802 1.55266 13.1531 1.67892 13.2008C1.80518 13.2486 1.9398 13.2703 2.07467 13.2646C2.20955 13.259 2.34188 13.2261 2.46369 13.1679C2.5855 13.1097 2.69428 13.0275 2.78346 12.9261C2.87264 12.8248 2.94037 12.7064 2.98259 12.5782C3.0248 12.45 3.04062 12.3146 3.02909 12.1801C3.01755 12.0456 2.97891 11.9148 2.91548 11.7956C2.85205 11.6765 2.76515 11.5714 2.66002 11.4867C2.45032 11.2975 2.28309 11.066 2.16933 10.8074C2.05557 10.5489 1.99787 10.2692 2.00002 9.98671C2.00002 9.45628 2.21073 8.94757 2.58581 8.5725C2.96088 8.19743 3.46959 7.98671 4.00002 7.98671C4.26524 7.98671 4.51959 7.88135 4.70713 7.69382C4.89466 7.50628 5.00002 7.25193 5.00002 6.98671C5.00257 5.80399 5.42431 4.66046 6.19029 3.75929C6.95627 2.85813 8.01691 2.25766 9.18377 2.06458C10.3506 1.87151 11.5482 2.09832 12.5636 2.70472C13.579 3.31112 14.3466 4.25785 14.73 5.37671C14.7872 5.54855 14.8899 5.70164 15.0273 5.81964C15.1647 5.93765 15.3315 6.01613 15.51 6.04671C16.2042 6.16645 16.8341 6.52664 17.2893 7.06418C17.7446 7.60171 17.9962 8.28231 18 8.98671C18.0153 9.723 17.7509 10.4377 17.26 10.9867C17.1004 11.1855 17.0227 11.4378 17.0429 11.692C17.063 11.9462 17.1795 12.183 17.3686 12.3542C17.5576 12.5253 17.8048 12.6178 18.0597 12.6127C18.3147 12.6076 18.558 12.5053 18.74 12.3267C19.2908 11.6973 19.6749 10.9397 19.8572 10.1234C20.0394 9.30707 20.0139 8.45808 19.7831 7.65415C19.5523 6.85022 19.1234 6.11704 18.5359 5.52174C17.9483 4.92645 17.2209 4.48806 16.42 4.24671V4.20671ZM14 16.9867C13.8022 16.9867 13.6089 17.0454 13.4444 17.1552C13.28 17.2651 13.1518 17.4213 13.0761 17.604C13.0005 17.7868 12.9806 17.9878 13.0192 18.1818C13.0578 18.3758 13.1531 18.554 13.2929 18.6938C13.4328 18.8337 13.6109 18.9289 13.8049 18.9675C13.9989 19.0061 14.2 18.9863 14.3827 18.9106C14.5654 18.8349 14.7216 18.7067 14.8315 18.5423C14.9414 18.3778 15 18.1845 15 17.9867C15 17.7215 14.8947 17.4671 14.7071 17.2796C14.5196 17.0921 14.2652 16.9867 14 16.9867Z" fill="var(--fill-0, #1E1F26)"/>
</svg>
