<svg preserveAspectRatio="none" width="100%" height="100%" overflow="visible" style="display: block;" viewBox="0 0 20.1381 19.9884" fill="none" xmlns="http://www.w3.org/2000/svg">
<path id="Vector" d="M12.9868 0.00163606C11.3498 0.00296125 9.76506 0.577957 8.50809 1.62665C7.25112 2.67534 6.40144 4.13139 6.10679 5.74164C5.24521 6.20646 4.51046 6.87503 3.96663 7.68904C3.4228 8.50305 3.0864 9.43776 2.98679 10.4116C2.24253 10.739 1.58934 11.243 1.08383 11.8798C0.57832 12.5166 0.235738 13.2671 0.0857777 14.0662C-0.0641828 14.8654 -0.0169972 15.689 0.223244 16.4658C0.463486 17.2426 0.889535 17.949 1.46447 18.524C2.0394 19.0989 2.74586 19.5249 3.52264 19.7652C4.29941 20.0054 5.12305 20.0526 5.92218 19.9026C6.72131 19.7527 7.47181 19.4101 8.10864 18.9046C8.74546 18.3991 9.24941 17.7459 9.57679 17.0016C10.5478 16.9052 11.4806 16.5733 12.2944 16.0349C13.1081 15.4964 13.7783 14.7676 14.2468 13.9116C15.9977 13.6308 17.5768 12.6958 18.665 11.2957C19.7532 9.89555 20.2695 8.13458 20.1095 6.36851C19.9495 4.60244 19.1252 2.9629 17.8031 1.7811C16.481 0.599297 14.7597 -0.0366818 12.9868 0.00163606V0.00163606ZM7.98679 15.4316C7.98679 15.5316 7.98679 15.6316 7.91679 15.7416C7.78762 16.2563 7.52424 16.7276 7.15351 17.1072C6.78279 17.4869 6.31798 17.7615 5.80651 17.9029C5.29505 18.0443 4.75522 18.0476 4.2421 17.9123C3.72898 17.7769 3.26093 17.508 2.8857 17.1327C2.51046 16.7575 2.24147 16.2894 2.10617 15.7763C1.97087 15.2632 1.97409 14.7234 2.11551 14.2119C2.25693 13.7004 2.53149 13.2356 2.91117 12.8649C3.29086 12.4942 3.76209 12.2308 4.27679 12.1016V12.1016L4.55679 12.0016C5.02637 11.9139 5.51025 11.9419 5.96658 12.0832C6.4229 12.2245 6.83791 12.4749 7.1757 12.8127C7.51349 13.1505 7.76388 13.5655 7.90521 14.0218C8.04653 14.4782 8.07453 14.9621 7.98679 15.4316ZM12.9868 11.7616C12.9736 11.8258 12.9569 11.8893 12.9368 11.9516C12.8938 12.1357 12.837 12.3162 12.7668 12.4916C12.5366 13.0754 12.1722 13.5969 11.7032 14.0138C11.2341 14.4307 10.6736 14.7314 10.0668 14.8916C10.0668 14.7116 10.0668 14.5416 10.0068 14.3616C9.94679 14.1816 10.0068 14.0916 10.0068 13.9616C10.0068 13.8316 9.88679 13.5816 9.82679 13.3916C9.76679 13.2016 9.75679 13.1516 9.70679 13.0316C9.62058 12.8411 9.52031 12.6573 9.40679 12.4816C9.40679 12.3916 9.31679 12.2916 9.25679 12.2016C9.07892 11.9409 8.87812 11.6966 8.65679 11.4716L8.45679 11.3016C8.28916 11.1475 8.11215 11.0039 7.92679 10.8716C7.81784 10.8008 7.70425 10.7373 7.58679 10.6816C7.42673 10.5799 7.25964 10.4897 7.08679 10.4116C6.95763 10.3564 6.82375 10.3129 6.68679 10.2816C6.51843 10.2133 6.34444 10.1598 6.16679 10.1216C6.02679 10.1216 5.87679 10.1216 5.72679 10.0616L5.11679 10.0016C5.27597 9.3959 5.57517 8.83601 5.99029 8.36705C6.40541 7.89809 6.92485 7.53315 7.50679 7.30164C7.6783 7.23001 7.85561 7.17314 8.03679 7.13164L8.23679 7.08164C8.48345 7.02976 8.73473 7.00296 8.98679 7.00164C10.0477 7.00164 11.0651 7.42306 11.8152 8.17321C12.5654 8.92335 12.9868 9.94077 12.9868 11.0016C12.9855 11.257 12.9587 11.5116 12.9068 11.7616H12.9868ZM14.9868 11.6016C14.9868 11.4016 14.9868 11.2016 14.9868 11.0016C14.9868 9.41034 14.3546 7.88421 13.2294 6.759C12.1042 5.63378 10.5781 5.00164 8.98679 5.00164C8.78679 5.00164 8.58679 5.00164 8.38679 5.00164C8.71641 4.26019 9.22153 3.6101 9.85854 3.10749C10.4955 2.60488 11.2453 2.26485 12.0431 2.11676C12.8409 1.96867 13.6627 2.01696 14.4377 2.25747C15.2126 2.49798 15.9174 2.92349 16.4912 3.49724C17.0649 4.071 17.4904 4.77578 17.7309 5.55073C17.9715 6.32569 18.0198 7.14753 17.8717 7.94532C17.7236 8.74311 17.3835 9.49288 16.8809 10.1299C16.3783 10.7669 15.7282 11.272 14.9868 11.6016V11.6016Z" fill="var(--fill-0, #1E1F26)"/>
</svg>
