<svg preserveAspectRatio="none" width="100%" height="100%" overflow="visible" style="display: block;" viewBox="0 0 20 20.0084" fill="none" xmlns="http://www.w3.org/2000/svg">
<path id="Vector" d="M18 14.18V14C17.9983 13.3811 17.8051 12.7778 17.4471 12.2729C17.089 11.7681 16.5836 11.3863 16 11.18V5H17C17.2652 5 17.5196 4.89464 17.7071 4.70711C17.8946 4.51957 18 4.26522 18 4C18 3.73478 17.8946 3.48043 17.7071 3.29289C17.5196 3.10536 17.2652 3 17 3H5C5 2.20435 4.68393 1.44129 4.12132 0.87868C3.55871 0.316071 2.79565 0 2 0H1C0.734785 0 0.480431 0.105357 0.292894 0.292893C0.105358 0.48043 1.31026e-06 0.734784 1.31026e-06 1C1.31026e-06 1.26522 0.105358 1.51957 0.292894 1.70711C0.480431 1.89464 0.734785 2 1 2H2C2.26522 2 2.51957 2.10536 2.70711 2.29289C2.89464 2.48043 3 2.73478 3 3V10.42C2.17371 10.7806 1.4603 11.358 0.93528 12.0909C0.410265 12.8238 0.0931846 13.685 0.0176033 14.5834C-0.057978 15.4818 0.110753 16.3839 0.505934 17.1942C0.901115 18.0046 1.50804 18.693 2.26247 19.1866C3.01689 19.6802 3.89074 19.9606 4.79152 19.9982C5.69229 20.0358 6.58647 19.8292 7.3794 19.4001C8.17233 18.9711 8.83451 18.3356 9.29583 17.5611C9.75716 16.7865 10.0005 15.9016 10 15C10.0009 14.3113 9.85787 13.6301 9.58 13H15C15.2652 13 15.5196 13.1054 15.7071 13.2929C15.8946 13.4804 16 13.7348 16 14V14.18C15.3328 14.4159 14.7704 14.8801 14.4124 15.4905C14.0543 16.1009 13.9235 16.8182 14.0432 17.5157C14.1629 18.2132 14.5253 18.846 15.0663 19.3021C15.6074 19.7582 16.2923 20.0084 17 20.0084C17.7077 20.0084 18.3926 19.7582 18.9337 19.3021C19.4747 18.846 19.8371 18.2132 19.9568 17.5157C20.0765 16.8182 19.9457 16.1009 19.5876 15.4905C19.2296 14.8801 18.6672 14.4159 18 14.18V14.18ZM5 18C4.40666 18 3.82664 17.8241 3.33329 17.4944C2.83994 17.1648 2.45543 16.6962 2.22836 16.1481C2.0013 15.5999 1.94189 14.9967 2.05765 14.4147C2.1734 13.8328 2.45912 13.2982 2.87868 12.8787C3.29824 12.4591 3.83279 12.1734 4.41473 12.0576C4.99667 11.9419 5.59987 12.0013 6.14805 12.2284C6.69623 12.4554 7.16477 12.8399 7.49441 13.3333C7.82405 13.8266 8 14.4067 8 15C8 15.7956 7.68393 16.5587 7.12132 17.1213C6.55871 17.6839 5.79565 18 5 18ZM14 11H8C7.13694 10.3463 6.08268 9.99487 5 10V9H14V11ZM14 7H5V5H14V7ZM17 18C16.8022 18 16.6089 17.9414 16.4444 17.8315C16.28 17.7216 16.1518 17.5654 16.0761 17.3827C16.0004 17.2 15.9806 16.9989 16.0192 16.8049C16.0578 16.6109 16.153 16.4327 16.2929 16.2929C16.4327 16.153 16.6109 16.0578 16.8049 16.0192C16.9989 15.9806 17.2 16.0004 17.3827 16.0761C17.5654 16.1518 17.7216 16.28 17.8315 16.4444C17.9414 16.6089 18 16.8022 18 17C18 17.2652 17.8946 17.5196 17.7071 17.7071C17.5196 17.8946 17.2652 18 17 18ZM5 14C4.80222 14 4.60888 14.0586 4.44443 14.1685C4.27998 14.2784 4.15181 14.4346 4.07612 14.6173C4.00043 14.8 3.98063 15.0011 4.01922 15.1951C4.0578 15.3891 4.15304 15.5673 4.29289 15.7071C4.43275 15.847 4.61093 15.9422 4.80491 15.9808C4.99889 16.0194 5.19996 15.9996 5.38268 15.9239C5.56541 15.8482 5.72159 15.72 5.83147 15.5556C5.94135 15.3911 6 15.1978 6 15C6 14.7348 5.89464 14.4804 5.70711 14.2929C5.51957 14.1054 5.26522 14 5 14Z" fill="var(--fill-0, #1E1F26)"/>
</svg>
