<svg preserveAspectRatio="none" width="100%" height="100%" overflow="visible" style="display: block;" viewBox="0 0 22.0022 22.006" fill="none" xmlns="http://www.w3.org/2000/svg">
<path id="Vector" d="M11.0008 0.00702505C9.56759 -0.0451275 8.13862 0.193721 6.80023 0.709151C5.46184 1.22458 4.24179 2.0059 3.21374 3.00593C2.18569 4.00596 1.37096 5.20396 0.818753 6.5276C0.266545 7.85124 -0.0116905 9.27306 0.000845793 10.7072C-0.017946 12.185 0.276592 13.65 0.865056 15.0057C1.45352 16.3614 2.32255 17.577 3.41491 18.5725L3.46664 20.2629C3.4813 20.7302 3.67724 21.1734 4.01299 21.4988C4.34874 21.8242 4.79793 22.0061 5.26547 22.006C5.51555 22.0057 5.76288 21.9539 5.99203 21.8537L7.91293 21.007C8.92023 21.2752 9.95842 21.4098 11.0008 21.4074C12.4341 21.4596 13.8632 21.2208 15.2016 20.7054C16.5401 20.1899 17.7602 19.4086 18.7883 18.4086C19.8165 17.4086 20.6313 16.2106 21.1836 14.8869C21.7359 13.5633 22.0142 12.1414 22.0018 10.7072C22.0142 9.27301 21.7359 7.85116 21.1836 6.52751C20.6313 5.20385 19.8165 4.00585 18.7883 3.00583C17.7602 2.00581 16.5401 1.22451 15.2016 0.709096C13.8632 0.193685 12.4342 -0.0451446 11.0008 0.00702505V0.00702505ZM11.0008 19.4074C10.1108 19.41 9.2245 19.292 8.36609 19.0568C7.96857 18.9496 7.5463 18.982 7.1698 19.1486L5.45593 19.9045L5.41101 18.4113C5.40106 18.1695 5.3427 17.9321 5.23937 17.7132C5.13604 17.4942 4.98985 17.2983 4.80944 17.1369C3.90999 16.3273 3.19405 15.3348 2.70965 14.2259C2.22525 13.1169 1.98358 11.9172 2.00085 10.7072C1.99444 9.53739 2.22514 8.37839 2.679 7.30017C3.13287 6.22196 3.8005 5.24688 4.6416 4.43381C5.4827 3.62073 6.47982 2.9865 7.57279 2.56941C8.66576 2.15232 9.8319 1.96101 11.0008 2.00703C12.1683 1.96734 13.3317 2.16301 14.4219 2.58237C15.5121 3.00173 16.5068 3.63621 17.3466 4.44801C18.1865 5.25982 18.8544 6.23235 19.3106 7.30768C19.7667 8.38301 20.0018 9.53914 20.0018 10.7072C20.0018 11.8753 19.7667 13.0314 19.3106 14.1068C18.8544 15.1821 18.1865 16.1546 17.3466 16.9664C16.5068 17.7782 15.5121 18.4127 14.4219 18.8321C13.3317 19.2514 12.1683 19.4471 11.0008 19.4074ZM14.7352 7.59198L12.4227 10.3469L9.07605 8.29023C8.8718 8.16451 8.62911 8.11654 8.39239 8.15511C8.15568 8.19367 7.94076 8.31618 7.78698 8.50023L4.73523 12.1369C4.65036 12.2374 4.58617 12.3536 4.54631 12.479C4.50646 12.6043 4.49173 12.7363 4.50298 12.8673C4.51423 12.9984 4.55122 13.1259 4.61185 13.2426C4.67248 13.3593 4.75554 13.4629 4.85629 13.5475C4.95703 13.632 5.07347 13.6959 5.19893 13.7353C5.32439 13.7748 5.45641 13.7891 5.58741 13.7775C5.71842 13.7658 5.84583 13.7284 5.96236 13.6674C6.07889 13.6065 6.18224 13.5231 6.26648 13.4221L8.76448 10.4465L12.1112 12.5021C12.3153 12.6279 12.5579 12.6761 12.7946 12.6377C13.0313 12.5993 13.2463 12.477 13.4002 12.2931L16.2664 8.87714C16.3518 8.77673 16.4165 8.66043 16.4567 8.53493C16.497 8.40943 16.512 8.27721 16.5009 8.14587C16.4899 8.01454 16.453 7.88669 16.3923 7.76969C16.3316 7.65268 16.2484 7.54882 16.1475 7.46409C16.0465 7.37936 15.9298 7.31543 15.8041 7.27599C15.6783 7.23654 15.546 7.22235 15.4148 7.23424C15.2835 7.24612 15.1559 7.28385 15.0393 7.34525C14.9226 7.40664 14.8193 7.4905 14.7352 7.59198V7.59198Z" fill="var(--fill-0, #1E1F26)"/>
</svg>
