<svg preserveAspectRatio="none" width="100%" height="100%" overflow="visible" style="display: block;" viewBox="0 0 18.2709 21.9995" fill="none" xmlns="http://www.w3.org/2000/svg">
<path id="Vector" d="M17.6419 14.7436C17.0301 14.482 16.5089 14.0458 16.1435 13.4897C15.7781 12.9336 15.5846 12.2821 15.5873 11.6166C15.5952 11.0227 15.7543 10.4405 16.0495 9.92499C16.3447 9.40951 16.7664 8.97773 17.2748 8.67036C17.3898 8.59928 17.4892 8.50562 17.567 8.39504C17.6448 8.28446 17.6993 8.15925 17.7273 8.02699C17.7554 7.89472 17.7563 7.75814 17.73 7.62552C17.7038 7.49289 17.6509 7.36697 17.5746 7.25536C17.1176 6.59082 16.5219 6.03337 15.8285 5.62148C15.1351 5.20958 14.3606 4.95306 13.5585 4.86963C14.3051 3.68476 14.6439 2.28832 14.5233 0.893046C14.4998 0.639689 14.379 0.405299 14.1863 0.239061C13.9937 0.0728238 13.7442 -0.012338 13.4901 0.00144634C11.773 0.154484 10.1813 0.96434 9.04674 2.26219C8.32751 3.09557 7.81999 4.09018 7.56725 5.1616C7.04506 4.98488 6.49836 4.89129 5.94713 4.88426C4.92661 4.91318 3.93089 5.20529 3.05648 5.73227C2.18208 6.25926 1.45868 7.00322 0.956406 7.89205C-0.931294 11.1694 0.223496 16.0805 2.26841 19.0366C3.08872 20.2211 4.31968 21.9995 6.17661 21.9995C6.21323 21.9995 6.25034 21.9995 6.28745 21.9975C6.90962 21.9622 7.51874 21.8045 8.07993 21.5336C8.52818 21.3064 9.02273 21.1854 9.52525 21.1801C9.99781 21.1858 10.4625 21.3015 10.8827 21.518C11.4965 21.8084 12.1655 21.9639 12.8446 21.974C14.7577 21.9379 15.8876 20.2875 16.7127 19.0814C17.3638 18.1235 17.8733 17.0765 18.2254 15.973C18.3005 15.7323 18.2821 15.4721 18.174 15.2443C18.0659 15.0165 17.8759 14.8377 17.6419 14.7436V14.7436ZM10.5609 3.56787C11.0861 2.98036 11.7442 2.527 12.4803 2.24561C12.3193 3.03784 11.963 3.77733 11.4437 4.39697C11.0913 4.81984 10.6624 5.17267 10.1796 5.43705L10.1766 5.43805C10.1483 5.44977 10.12 5.46051 10.0916 5.47223C9.90511 5.54547 9.67463 5.63629 9.49691 5.69488C9.66854 4.9082 10.0343 4.17699 10.5609 3.56787V3.56787ZM15.0624 17.9526C14.2586 19.1265 13.6264 19.9595 12.808 19.9741C12.4124 19.9729 12.0234 19.8725 11.6766 19.6821C11.0062 19.3555 10.271 19.1839 9.52526 19.1801C8.75363 19.184 7.99249 19.3591 7.29674 19.6928C6.95847 19.8655 6.58943 19.9697 6.2108 19.9994H6.18102C5.36802 19.9994 4.49352 18.7368 3.91295 17.8979C2.46031 15.7983 1.12047 11.6147 2.68981 8.89008C3.01889 8.30048 3.49479 7.80597 4.07134 7.45453C4.64788 7.10309 5.30548 6.90665 5.98033 6.88428L6.01402 6.88328C6.5833 6.93166 7.13921 7.08217 7.65514 7.32762C7.78649 7.37937 7.91588 7.43113 8.0443 7.47898C8.07701 7.49266 8.1107 7.50535 8.14488 7.51609C8.50074 7.65922 8.87875 7.73951 9.26207 7.7534C9.80481 7.71026 10.335 7.56759 10.8261 7.3325C11.5183 6.99652 12.2793 6.82634 13.0487 6.83543C13.8717 6.86763 14.6618 7.16728 15.2992 7.68895C14.7545 8.19081 14.3208 8.80108 14.026 9.48054C13.7311 10.16 13.5817 10.8936 13.5873 11.6343V11.6353C13.5816 12.5319 13.8035 13.4153 14.2322 14.2028C14.6609 14.9903 15.2824 15.6562 16.0385 16.1382C15.7752 16.7744 15.4481 17.3823 15.0624 17.9526V17.9526Z" fill="var(--fill-0, #1E1F26)"/>
</svg>
