<svg preserveAspectRatio="none" width="100%" height="100%" overflow="visible" style="display: block;" viewBox="0 0 20.004 20.025" fill="none" xmlns="http://www.w3.org/2000/svg">
<path id="Vector" d="M16.9982 12.025C16.8708 11.992 16.7381 11.9844 16.6078 12.0027C16.4775 12.021 16.3521 12.0648 16.2387 12.1317C16.1254 12.1986 16.0263 12.2872 15.9473 12.3925C15.8683 12.4977 15.8108 12.6175 15.7782 12.745C15.3958 14.2536 14.5216 15.5917 13.2938 16.5478C12.0659 17.504 10.5544 18.0238 8.99819 18.025H3.40819L4.04819 17.395C4.23444 17.2077 4.33898 16.9542 4.33898 16.69C4.33898 16.4258 4.23444 16.1724 4.04819 15.985C3.06568 15.0066 2.39589 13.7584 2.12377 12.3987C1.85165 11.0391 1.98947 9.62927 2.51973 8.34807C3.05 7.06686 3.94882 5.972 5.10221 5.20235C6.2556 4.43269 7.61158 4.02293 8.99819 4.02501C9.2634 4.02501 9.51776 3.91966 9.70529 3.73212C9.89283 3.54458 9.99819 3.29023 9.99819 3.02501C9.99819 2.7598 9.89283 2.50544 9.70529 2.31791C9.51776 2.13037 9.2634 2.02501 8.99819 2.02501C7.30565 2.03058 5.64899 2.51329 4.21837 3.41775C2.78776 4.32221 1.64118 5.61175 0.910255 7.13833C0.179332 8.66491 -0.106305 10.3667 0.0861309 12.0482C0.278567 13.7298 0.941278 15.323 1.99819 16.645L0.288186 18.315C0.149429 18.4556 0.0554325 18.6342 0.0180584 18.8282C-0.0193158 19.0222 0.0016069 19.2229 0.0781863 19.405C0.153206 19.5876 0.280604 19.744 0.444325 19.8543C0.608045 19.9646 0.800761 20.024 0.998186 20.025H8.99819C10.9944 20.0263 12.9345 19.3639 14.513 18.1419C16.0916 16.92 17.2191 15.2079 17.7182 13.275C17.7558 13.1456 17.7669 13.01 17.7508 12.8763C17.7347 12.7425 17.6918 12.6134 17.6245 12.4966C17.5573 12.3799 17.4671 12.2779 17.3595 12.1969C17.2519 12.1158 17.129 12.0574 16.9982 12.025ZM19.7082 3.28501L16.7082 0.285014C16.6131 0.193973 16.5009 0.122608 16.3782 0.0750135C16.1347 -0.0250045 15.8616 -0.0250045 15.6182 0.0750135C15.4954 0.122608 15.3833 0.193973 15.2882 0.285014L12.2882 3.28501C12.0999 3.47332 11.9941 3.72871 11.9941 3.99501C11.9941 4.26131 12.0999 4.51671 12.2882 4.70501C12.4765 4.89332 12.7319 4.9991 12.9982 4.9991C13.2645 4.9991 13.5199 4.89332 13.7082 4.70501L14.9982 3.43501V9.02501C14.9982 9.29023 15.1035 9.54458 15.2911 9.73212C15.4786 9.91966 15.733 10.025 15.9982 10.025C16.2634 10.025 16.5178 9.91966 16.7053 9.73212C16.8928 9.54458 16.9982 9.29023 16.9982 9.02501V3.43501L18.2882 4.73501C18.3812 4.82874 18.4918 4.90314 18.6136 4.9539C18.7355 5.00467 18.8662 5.03081 18.9982 5.03081C19.1302 5.03081 19.2609 5.00467 19.3828 4.9539C19.5046 4.90314 19.6152 4.82874 19.7082 4.73501C19.8019 4.64205 19.8763 4.53145 19.9271 4.40959C19.9778 4.28773 20.004 4.15703 20.004 4.02501C20.004 3.893 19.9778 3.7623 19.9271 3.64044C19.8763 3.51858 19.8019 3.40798 19.7082 3.31501V3.28501Z" fill="var(--fill-0, #1E1F26)"/>
</svg>
