<svg preserveAspectRatio="none" width="100%" height="100%" overflow="visible" style="display: block;" viewBox="0 0 19 10" fill="none" xmlns="http://www.w3.org/2000/svg">
<path id="Vector" d="M7 0H1C0.734784 0 0.48043 0.105357 0.292893 0.292893C0.105357 0.48043 0 0.734784 0 1C0 1.26522 0.105357 1.51957 0.292893 1.70711C0.48043 1.89464 0.734784 2 1 2H3V9C3 9.26522 3.10536 9.51957 3.29289 9.70711C3.48043 9.89464 3.73478 10 4 10C4.26522 10 4.51957 9.89464 4.70711 9.70711C4.89464 9.51957 5 9.26522 5 9V2H7C7.26522 2 7.51957 1.89464 7.70711 1.70711C7.89464 1.51957 8 1.26522 8 1C8 0.734784 7.89464 0.48043 7.70711 0.292893C7.51957 0.105357 7.26522 0 7 0ZM18.92 0.62C18.8185 0.375651 18.6243 0.181475 18.38 0.0799999C18.1365 -0.0200181 17.8635 -0.0200181 17.62 0.0799999C17.4972 0.127594 17.3851 0.198959 17.29 0.29L14.5 3.09L11.71 0.29C11.6149 0.198959 11.5028 0.127594 11.38 0.0799999C11.1365 -0.0200181 10.8635 -0.0200181 10.62 0.0799999C10.3757 0.181475 10.1815 0.375651 10.08 0.62C10.0288 0.740222 10.0016 0.869323 10 1V9C10 9.26522 10.1054 9.51957 10.2929 9.70711C10.4804 9.89464 10.7348 10 11 10C11.2652 10 11.5196 9.89464 11.7071 9.70711C11.8946 9.51957 12 9.26522 12 9V3.41L13.79 5.21C13.883 5.30373 13.9936 5.37812 14.1154 5.42889C14.2373 5.47966 14.368 5.5058 14.5 5.5058C14.632 5.5058 14.7627 5.47966 14.8846 5.42889C15.0064 5.37812 15.117 5.30373 15.21 5.21L17 3.41V9C17 9.26522 17.1054 9.51957 17.2929 9.70711C17.4804 9.89464 17.7348 10 18 10C18.2652 10 18.5196 9.89464 18.7071 9.70711C18.8946 9.51957 19 9.26522 19 9V1C18.9984 0.869323 18.9712 0.740222 18.92 0.62V0.62Z" fill="var(--fill-0, #1E1F26)"/>
</svg>
