<svg preserveAspectRatio="none" width="100%" height="100%" overflow="visible" style="display: block;" viewBox="0 0 20 10.0034" fill="none" xmlns="http://www.w3.org/2000/svg">
<path id="Vector" d="M4.69 8H2V2H4.31C4.57522 2 4.82957 1.89464 5.01711 1.70711C5.20464 1.51957 5.31 1.26522 5.31 1C5.31 0.734784 5.20464 0.48043 5.01711 0.292893C4.82957 0.105357 4.57522 0 4.31 0H2C1.46957 0 0.960859 0.210714 0.585786 0.585786C0.210714 0.960859 0 1.46957 0 2V8C0 8.53043 0.210714 9.03914 0.585786 9.41421C0.960859 9.78929 1.46957 10 2 10H4.69C4.95522 10 5.20957 9.89464 5.39711 9.70711C5.58464 9.51957 5.69 9.26522 5.69 9C5.69 8.73478 5.58464 8.48043 5.39711 8.29289C5.20957 8.10536 4.95522 8 4.69 8ZM11.89 5.44C11.9145 5.38158 11.9345 5.32141 11.95 5.26C11.9547 5.19342 11.9547 5.12658 11.95 5.06C11.95 5.06 11.95 5.06 11.95 5C11.95 4.94 11.95 4.92 11.95 4.88C11.9441 4.8111 11.9272 4.74358 11.9 4.68C11.8794 4.62067 11.8526 4.56369 11.82 4.51C11.7926 4.45316 11.7591 4.3995 11.72 4.35L11.56 4.22L11.47 4.13H11.41L11.23 4.07H11.03H7.73L9.18 1.57C9.31261 1.33926 9.34812 1.0653 9.27874 0.808371C9.20935 0.551446 9.04074 0.332608 8.81 0.2C8.57926 0.0673916 8.3053 0.0318751 8.04837 0.101264C7.79145 0.170652 7.57261 0.339262 7.44 0.57L5.13 4.57C5.13 4.57 5.13 4.57 5.13 4.63C5.10554 4.68842 5.08548 4.74859 5.07 4.81C5.0653 4.87658 5.0653 4.94342 5.07 5.01L5 5C5 5 5 5.08 5 5.12C5.00592 5.1889 5.0228 5.25642 5.05 5.32C5.07059 5.37933 5.09741 5.43631 5.13 5.49C5.15736 5.54684 5.1909 5.6005 5.23 5.65L5.39 5.78C5.41743 5.81246 5.44754 5.84257 5.48 5.87H5.55H5.64C5.75051 5.93611 5.87275 5.98025 6 6H9.27L7.82 8.5C7.68739 8.73074 7.65188 9.0047 7.72126 9.26163C7.79065 9.51855 7.95926 9.73739 8.19 9.87C8.42074 10.0026 8.6947 10.0381 8.95163 9.96874C9.20855 9.89935 9.42739 9.73074 9.56 9.5L11.87 5.5C11.87 5.5 11.88 5.46 11.89 5.44ZM19 3C18.7348 3 18.4804 3.10536 18.2929 3.29289C18.1054 3.48043 18 3.73478 18 4V6C18 6.26522 18.1054 6.51957 18.2929 6.70711C18.4804 6.89464 18.7348 7 19 7C19.2652 7 19.5196 6.89464 19.7071 6.70711C19.8946 6.51957 20 6.26522 20 6V4C20 3.73478 19.8946 3.48043 19.7071 3.29289C19.5196 3.10536 19.2652 3 19 3ZM15 0H12.31C12.0448 0 11.7904 0.105357 11.6029 0.292893C11.4154 0.48043 11.31 0.734784 11.31 1C11.31 1.26522 11.4154 1.51957 11.6029 1.70711C11.7904 1.89464 12.0448 2 12.31 2H15V8H12.69C12.4248 8 12.1704 8.10536 11.9829 8.29289C11.7954 8.48043 11.69 8.73478 11.69 9C11.69 9.26522 11.7954 9.51957 11.9829 9.70711C12.1704 9.89464 12.4248 10 12.69 10H15C15.5304 10 16.0391 9.78929 16.4142 9.41421C16.7893 9.03914 17 8.53043 17 8V2C17 1.46957 16.7893 0.960859 16.4142 0.585786C16.0391 0.210714 15.5304 0 15 0V0Z" fill="var(--fill-0, #1E1F26)"/>
</svg>
