<svg preserveAspectRatio="none" width="100%" height="100%" overflow="visible" style="display: block;" viewBox="0 0 13.5459 19.9981" fill="none" xmlns="http://www.w3.org/2000/svg">
<path id="Vector" d="M7.64778 3.92651C7.69158 3.92366 7.73547 3.93055 7.77629 3.94669C7.81711 3.96283 7.85384 3.98781 7.88385 4.01985C7.91385 4.05188 7.93638 4.09017 7.94982 4.13196C7.96326 4.17374 7.96727 4.21799 7.96156 4.26151C7.96356 4.35343 7.96504 4.44535 7.96516 4.53726C7.96577 5.12967 7.96278 5.72214 7.96724 6.31449C7.97053 6.74802 8.04671 6.83149 8.46663 6.88358C9.5146 6.98005 10.5699 6.9647 11.6146 6.8378C12.1558 6.80025 12.6872 6.67396 13.1874 6.46396C13.3107 6.42614 13.4149 6.34281 13.4789 6.23092C13.5429 6.11902 13.5619 5.98695 13.5321 5.86154C13.3332 4.47709 12.7142 3.18704 11.7586 2.16569C10.8031 1.14434 9.55703 0.440924 8.18886 0.15048C6.97406 -0.113292 5.7095 -0.0290677 4.54042 0.39348C3.51411 0.750892 2.58982 1.35195 1.84687 2.1451C0.703173 3.28268 0.0417393 4.81717 0 6.42974C0.0213863 8.37018 0.547125 10.2717 1.52558 11.9475C1.64519 12.1923 1.83649 12.395 2.07404 12.5284C2.3116 12.6619 2.58415 12.7199 2.85547 12.6948C3.50879 12.6791 4.16279 12.6912 4.81653 12.6912V12.6877C5.51111 12.6877 6.20567 12.6879 6.90021 12.6882C7.14948 12.6888 7.34675 12.7483 7.34479 13.0605C7.34021 13.7857 7.34546 14.5109 7.34144 15.2361C7.34015 15.4562 7.2782 15.6681 7.01532 15.6702C6.75141 15.6722 6.68891 15.4612 6.68561 15.2407C6.68049 14.8935 6.6858 14.5461 6.68622 14.1989C6.68671 13.7479 6.6128 13.6421 6.16303 13.5599C5.38598 13.4333 4.59411 13.4266 3.81503 13.54C3.53952 13.5619 3.26927 13.6276 3.01449 13.7348C2.80264 13.8345 2.71841 13.9798 2.82131 14.2021C2.92837 14.4333 3.02822 14.6693 3.15451 14.8899C4.18178 16.6184 5.32665 18.2742 6.58102 19.8456C6.73495 20.0451 6.85415 20.0492 7.01211 19.8561C7.3608 19.4297 7.72702 19.0176 8.07205 18.5882C9.42485 16.9497 10.6221 15.1888 11.6484 13.3283C12.3338 12.1182 12.8374 10.8137 13.1429 9.45688C13.2105 9.28316 13.2369 9.09611 13.2199 8.91046C13.2028 8.72482 13.1429 8.54568 13.0448 8.38716C12.9467 8.22864 12.8131 8.09508 12.6546 7.99702C12.496 7.89896 12.3169 7.83908 12.1312 7.8221C11.583 7.70087 11.0221 7.64659 10.4608 7.66045C9.55178 7.65368 8.64266 7.65697 7.73361 7.65777C7.4888 7.65801 7.30673 7.5877 7.30654 7.30047C7.30606 6.2893 7.30471 5.27807 7.30838 4.26696C7.30921 4.0511 7.41327 3.91851 7.64778 3.92651Z" fill="var(--fill-0, #1E1F26)"/>
</svg>
