<svg preserveAspectRatio="none" width="100%" height="100%" overflow="visible" style="display: block;" viewBox="0 0 20.0116 20.0116" fill="none" xmlns="http://www.w3.org/2000/svg">
<path id="Vector" d="M19.7158 0.295798C19.6228 0.20207 19.5122 0.127676 19.3904 0.0769069C19.2685 0.0261382 19.1378 0 19.0058 0C18.8738 0 18.7431 0.0261382 18.6212 0.0769069C18.4994 0.127676 18.3888 0.20207 18.2958 0.295798L0.295798 18.2958C0.20207 18.3888 0.127676 18.4994 0.0769069 18.6212C0.0261382 18.7431 0 18.8738 0 19.0058C0 19.1378 0.0261382 19.2685 0.0769069 19.3904C0.127676 19.5122 0.20207 19.6228 0.295798 19.7158C0.388761 19.8095 0.499363 19.8839 0.621222 19.9347C0.743081 19.9855 0.873786 20.0116 1.0058 20.0116C1.13781 20.0116 1.26852 19.9855 1.39037 19.9347C1.51223 19.8839 1.62284 19.8095 1.7158 19.7158L19.7158 1.7158C19.8095 1.62284 19.8839 1.51223 19.9347 1.39038C19.9855 1.26852 20.0116 1.13781 20.0116 1.0058C20.0116 0.873786 19.9855 0.743081 19.9347 0.621222C19.8839 0.499363 19.8095 0.388761 19.7158 0.295798V0.295798Z" fill="var(--fill-0, #1E1F26)"/>
</svg>
