<svg preserveAspectRatio="none" width="100%" height="100%" overflow="visible" style="display: block;" viewBox="0 0 20.0099 20.0099" fill="none" xmlns="http://www.w3.org/2000/svg">
<path id="Vector" d="M9.62409 5.92409C9.74431 5.97533 9.87341 6.00251 10.0041 6.00409H16.0041C16.2693 6.00409 16.5237 6.10945 16.7112 6.29699C16.8987 6.48452 17.0041 6.73888 17.0041 7.00409V12.3441C17.0041 12.6093 17.1094 12.8637 17.297 13.0512C17.4845 13.2387 17.7389 13.3441 18.0041 13.3441C18.2693 13.3441 18.5237 13.2387 18.7112 13.0512C18.8987 12.8637 19.0041 12.6093 19.0041 12.3441V7.00409C19.0041 6.20844 18.688 5.44538 18.1254 4.88277C17.5628 4.32016 16.7997 4.00409 16.0041 4.00409H12.4141L14.7141 1.71409C14.8073 1.62085 14.8813 1.51016 14.9318 1.38834C14.9822 1.26652 15.0082 1.13595 15.0082 1.00409C15.0082 0.872232 14.9822 0.741664 14.9318 0.619842C14.8813 0.49802 14.8073 0.38733 14.7141 0.294092C14.6209 0.200853 14.5102 0.126892 14.3883 0.0764319C14.2665 0.0259715 14.136 0 14.0041 0C13.7378 0 13.4824 0.105788 13.2941 0.294092L9.29409 4.29409C9.20305 4.3892 9.13169 4.50134 9.08409 4.62409C8.98407 4.86755 8.98407 5.14063 9.08409 5.38409C9.18557 5.62844 9.37974 5.82262 9.62409 5.92409V5.92409ZM19.7141 18.2941L1.71409 0.294092C1.52579 0.105788 1.27039 -1.9841e-09 1.00409 0C0.73779 1.9841e-09 0.482395 0.105788 0.294092 0.294092C0.105788 0.482395 1.9841e-09 0.73779 0 1.00409C-1.9841e-09 1.27039 0.105788 1.52579 0.294092 1.71409L2.83409 4.24409C2.29185 4.47375 1.82918 4.85792 1.50377 5.34871C1.17835 5.83951 1.00457 6.41522 1.00409 7.00409V15.0041C1.00409 15.7997 1.32016 16.5628 1.88277 17.1254C2.44538 17.688 3.20844 18.0041 4.00409 18.0041V19.0041C4.00409 19.2693 4.10945 19.5237 4.29699 19.7112C4.48452 19.8987 4.73888 20.0041 5.00409 20.0041C5.26931 20.0041 5.52366 19.8987 5.7112 19.7112C5.89873 19.5237 6.00409 19.2693 6.00409 19.0041V18.0041H14.0041V19.0041C14.0041 19.2693 14.1094 19.5237 14.297 19.7112C14.4845 19.8987 14.7389 20.0041 15.0041 20.0041C15.2693 20.0041 15.5237 19.8987 15.7112 19.7112C15.8987 19.5237 16.0041 19.2693 16.0041 19.0041V18.0041C16.1822 17.9995 16.3595 17.9794 16.5341 17.9441L18.2941 19.7141C18.3871 19.8078 18.4977 19.8822 18.6195 19.933C18.7414 19.9838 18.8721 20.0099 19.0041 20.0099C19.1361 20.0099 19.2668 19.9838 19.3887 19.933C19.5105 19.8822 19.6211 19.8078 19.7141 19.7141C19.8078 19.6211 19.8822 19.5105 19.933 19.3887C19.9838 19.2668 20.0099 19.1361 20.0099 19.0041C20.0099 18.8721 19.9838 18.7414 19.933 18.6195C19.8822 18.4977 19.8078 18.3871 19.7141 18.2941V18.2941ZM4.00409 16.0041C3.73888 16.0041 3.48452 15.8987 3.29699 15.7112C3.10945 15.5237 3.00409 15.2693 3.00409 15.0041V7.00409C3.00409 6.73888 3.10945 6.48452 3.29699 6.29699C3.48452 6.10945 3.73888 6.00409 4.00409 6.00409H4.59409L14.5941 16.0041H4.00409Z" fill="var(--fill-0, #1E1F26)"/>
</svg>
