<svg preserveAspectRatio="none" width="100%" height="100%" overflow="visible" style="display: block;" viewBox="0 0 20.011 20.4079" fill="none" xmlns="http://www.w3.org/2000/svg">
<path id="Vector" d="M8.26409 3.20397L10.0041 2.20397L17.0041 6.20397L13.8541 8.03397C13.6254 8.16589 13.4581 8.38292 13.3888 8.63771C13.3195 8.8925 13.3537 9.16436 13.4841 9.39397C13.5494 9.50856 13.6368 9.60909 13.7411 9.68978C13.8455 9.77046 13.9647 9.82971 14.0921 9.8641C14.2194 9.89849 14.3523 9.90735 14.4831 9.89016C14.6139 9.87298 14.74 9.83009 14.8541 9.76398L19.5041 7.07397C19.658 6.98676 19.786 6.86028 19.8751 6.70744C19.9641 6.5546 20.011 6.38087 20.011 6.20397C20.011 6.02708 19.9641 5.85335 19.8751 5.70051C19.786 5.54767 19.658 5.42119 19.5041 5.33397L10.5041 0.133975C10.3521 0.0462062 10.1796 0 10.0041 0C9.82855 0 9.65611 0.0462062 9.50409 0.133975L7.26409 1.43397C7.1495 1.4993 7.04897 1.58666 6.96829 1.69101C6.8876 1.79535 6.82836 1.91463 6.79397 2.04197C6.75958 2.16931 6.75072 2.3022 6.7679 2.43298C6.78509 2.56375 6.82797 2.68984 6.89409 2.80397C6.95687 2.92108 7.04236 3.0245 7.14556 3.1082C7.24877 3.19189 7.36762 3.25418 7.49517 3.29142C7.62272 3.32866 7.75641 3.34011 7.88843 3.32509C8.02045 3.31008 8.14816 3.2689 8.26409 3.20397V3.20397ZM1.71409 0.493975C1.62085 0.400736 1.51016 0.326775 1.38834 0.276315C1.26652 0.225855 1.13595 0.199883 1.00409 0.199883C0.872232 0.199883 0.741664 0.225855 0.619842 0.276315C0.49802 0.326775 0.38733 0.400736 0.294092 0.493975C0.105788 0.682278 0 0.937673 0 1.20397C0 1.47028 0.105788 1.72567 0.294092 1.91397L2.54409 4.20397L0.544092 5.37397C0.390194 5.46119 0.262186 5.58767 0.173126 5.74051C0.0840666 5.89335 0.0371433 6.06708 0.0371433 6.24397C0.0371433 6.42087 0.0840666 6.5946 0.173126 6.74744C0.262186 6.90028 0.390194 7.02676 0.544092 7.11397L9.54409 12.314C9.69611 12.4017 9.86855 12.4479 10.0441 12.4479C10.2196 12.4479 10.3921 12.4017 10.5441 12.314L10.6441 12.254L11.7141 13.324L10.0441 14.324L1.50409 9.33397C1.38984 9.26831 1.26378 9.2258 1.1331 9.20886C1.00242 9.19192 0.869678 9.20088 0.742462 9.23524C0.615246 9.2696 0.496043 9.32867 0.391658 9.4091C0.287274 9.48953 0.199752 9.58972 0.134091 9.70397C0.0684306 9.81822 0.0259159 9.94429 0.00897467 10.075C-0.00796653 10.2056 0.000997532 10.3384 0.0353552 10.4656C0.0697129 10.5928 0.128791 10.712 0.209217 10.8164C0.289643 10.9208 0.389842 11.0083 0.504092 11.074L9.50409 16.274C9.65649 16.3604 9.82891 16.4052 10.0041 16.404C10.1793 16.4052 10.3517 16.3604 10.5041 16.274L13.1341 14.754L14.2041 15.824L10.0041 18.204L1.50409 13.334C1.27335 13.2014 0.999387 13.1658 0.742462 13.2352C0.485537 13.3046 0.2667 13.4732 0.134092 13.704C0.00148349 13.9347 -0.034033 14.2087 0.0353554 14.4656C0.104744 14.7225 0.273353 14.9414 0.504092 15.074L9.50409 20.274C9.65611 20.3617 9.82855 20.4079 10.0041 20.4079C10.1796 20.4079 10.3521 20.3617 10.5041 20.274L15.6741 17.274L18.2941 19.904C18.3871 19.9977 18.4977 20.0721 18.6195 20.1229C18.7414 20.1736 18.8721 20.1998 19.0041 20.1998C19.1361 20.1998 19.2668 20.1736 19.3887 20.1229C19.5105 20.0721 19.6211 19.9977 19.7141 19.904C19.8078 19.811 19.8822 19.7004 19.933 19.5786C19.9838 19.4567 20.0099 19.326 20.0099 19.194C20.0099 19.062 19.9838 18.9313 19.933 18.8094C19.8822 18.6875 19.8078 18.5769 19.7141 18.484L1.71409 0.493975ZM3.00409 6.20397L4.00409 5.62397L6.75409 8.37397L3.00409 6.20397ZM18.5041 9.33397L16.3841 10.554C16.1534 10.6866 15.9847 10.9054 15.9154 11.1623C15.846 11.4193 15.8815 11.6932 16.0141 11.924C16.1467 12.1547 16.3655 12.3233 16.6225 12.3927C16.8794 12.4621 17.1534 12.4266 17.3841 12.294L19.5041 11.074C19.6183 11.0083 19.7185 10.9208 19.799 10.8164C19.8794 10.712 19.9385 10.5928 19.9728 10.4656C20.0072 10.3384 20.0161 10.2056 19.9992 10.075C19.9823 9.94429 19.9398 9.81822 19.8741 9.70397C19.8084 9.58972 19.7209 9.48953 19.6165 9.4091C19.5121 9.32867 19.3929 9.2696 19.2657 9.23524C19.1385 9.20088 19.0058 9.19192 18.8751 9.20886C18.7444 9.2258 18.6183 9.26831 18.5041 9.33397Z" fill="var(--fill-0, #1E1F26)"/>
</svg>
