<svg preserveAspectRatio="none" width="100%" height="100%" overflow="visible" style="display: block;" viewBox="0 0 20 20" fill="none" xmlns="http://www.w3.org/2000/svg">
<path id="Vector" d="M7 9C7.19779 9 7.39113 8.94135 7.55557 8.83147C7.72002 8.72159 7.8482 8.56541 7.92388 8.38268C7.99957 8.19996 8.01937 7.99889 7.98079 7.80491C7.9422 7.61093 7.84696 7.43275 7.70711 7.29289C7.56726 7.15304 7.38908 7.0578 7.19509 7.01921C7.00111 6.98063 6.80005 7.00043 6.61732 7.07612C6.43459 7.15181 6.27842 7.27998 6.16853 7.44443C6.05865 7.60888 6 7.80222 6 8C6 8.26522 6.10536 8.51957 6.2929 8.70711C6.48043 8.89464 6.73479 9 7 9ZM13 9C13.1978 9 13.3911 8.94135 13.5556 8.83147C13.72 8.72159 13.8482 8.56541 13.9239 8.38268C13.9996 8.19996 14.0194 7.99889 13.9808 7.80491C13.9422 7.61093 13.847 7.43275 13.7071 7.29289C13.5673 7.15304 13.3891 7.0578 13.1951 7.01921C13.0011 6.98063 12.8 7.00043 12.6173 7.07612C12.4346 7.15181 12.2784 7.27998 12.1685 7.44443C12.0587 7.60888 12 7.80222 12 8C12 8.26522 12.1054 8.51957 12.2929 8.70711C12.4804 8.89464 12.7348 9 13 9ZM14 12C14 11.7348 13.8946 11.4804 13.7071 11.2929C13.5196 11.1054 13.2652 11 13 11C12.7348 11 12.4804 11.1054 12.2929 11.2929C12.1054 11.4804 12 11.7348 12 12H11C11 11.7348 10.8946 11.4804 10.7071 11.2929C10.5196 11.1054 10.2652 11 10 11C9.73479 11 9.48043 11.1054 9.2929 11.2929C9.10536 11.4804 9 11.7348 9 12H8C8 11.7348 7.89465 11.4804 7.70711 11.2929C7.51957 11.1054 7.26522 11 7 11C6.73479 11 6.48043 11.1054 6.2929 11.2929C6.10536 11.4804 6 11.7348 6 12C5.73479 12 5.48043 12.1054 5.2929 12.2929C5.10536 12.4804 5 12.7348 5 13C5 13.2652 5.10536 13.5196 5.2929 13.7071C5.48043 13.8946 5.73479 14 6 14C6 14.2652 6.10536 14.5196 6.2929 14.7071C6.48043 14.8946 6.73479 15 7 15C7.26522 15 7.51957 14.8946 7.70711 14.7071C7.89465 14.5196 8 14.2652 8 14H9C9 14.2652 9.10536 14.5196 9.2929 14.7071C9.48043 14.8946 9.73479 15 10 15C10.2652 15 10.5196 14.8946 10.7071 14.7071C10.8946 14.5196 11 14.2652 11 14H12C12 14.2652 12.1054 14.5196 12.2929 14.7071C12.4804 14.8946 12.7348 15 13 15C13.2652 15 13.5196 14.8946 13.7071 14.7071C13.8946 14.5196 14 14.2652 14 14C14.2652 14 14.5196 13.8946 14.7071 13.7071C14.8946 13.5196 15 13.2652 15 13C15 12.7348 14.8946 12.4804 14.7071 12.2929C14.5196 12.1054 14.2652 12 14 12ZM10 0C8.02219 0 6.08879 0.58649 4.4443 1.6853C2.79981 2.78412 1.51809 4.3459 0.761209 6.17317C0.00433283 8.00043 -0.193701 10.0111 0.192152 11.9509C0.578004 13.8907 1.53041 15.6725 2.92894 17.0711C4.32746 18.4696 6.10929 19.422 8.0491 19.8079C9.98891 20.1937 11.9996 19.9957 13.8268 19.2388C15.6541 18.4819 17.2159 17.2002 18.3147 15.5557C19.4135 13.9112 20 11.9778 20 10C20 8.68678 19.7413 7.38642 19.2388 6.17317C18.7363 4.95991 17.9997 3.85752 17.0711 2.92893C16.1425 2.00035 15.0401 1.26375 13.8268 0.761205C12.6136 0.258658 11.3132 0 10 0V0ZM10 18C8.41775 18 6.87104 17.5308 5.55544 16.6518C4.23985 15.7727 3.21447 14.5233 2.60897 13.0615C2.00347 11.5997 1.84504 9.99113 2.15372 8.43928C2.4624 6.88743 3.22433 5.46197 4.34315 4.34315C5.46197 3.22433 6.88743 2.4624 8.43928 2.15372C9.99113 1.84504 11.5997 2.00346 13.0615 2.60896C14.5233 3.21447 15.7727 4.23984 16.6518 5.55544C17.5308 6.87103 18 8.41775 18 10C18 12.1217 17.1572 14.1566 15.6569 15.6569C14.1566 17.1571 12.1217 18 10 18V18Z" fill="var(--fill-0, #1E1F26)"/>
</svg>
