<svg preserveAspectRatio="none" width="100%" height="100%" overflow="visible" style="display: block;" viewBox="0 0 20 16" fill="none" xmlns="http://www.w3.org/2000/svg">
<path id="Vector" d="M19 4C18.7348 4 18.4804 4.10536 18.2929 4.29289C18.1054 4.48043 18 4.73478 18 5V13C18 13.2652 17.8946 13.5196 17.7071 13.7071C17.5196 13.8946 17.2652 14 17 14H3C2.73478 14 2.48043 13.8946 2.29289 13.7071C2.10536 13.5196 2 13.2652 2 13V3.41L7.88 9.29C8.4425 9.8518 9.205 10.1674 10 10.1674C10.795 10.1674 11.5575 9.8518 12.12 9.29L15.71 5.71C15.8983 5.5217 16.0041 5.2663 16.0041 5C16.0041 4.7337 15.8983 4.4783 15.71 4.29C15.5217 4.1017 15.2663 3.99591 15 3.99591C14.7337 3.99591 14.4783 4.1017 14.29 4.29L10.71 7.88C10.617 7.97373 10.5064 8.04812 10.3846 8.09889C10.2627 8.14966 10.132 8.1758 10 8.1758C9.86799 8.1758 9.73728 8.14966 9.61542 8.09889C9.49356 8.04812 9.38296 7.97373 9.29 7.88L3.41 2H11C11.2652 2 11.5196 1.89464 11.7071 1.70711C11.8946 1.51957 12 1.26522 12 1C12 0.734784 11.8946 0.48043 11.7071 0.292893C11.5196 0.105357 11.2652 0 11 0H3C2.20435 0 1.44129 0.316071 0.87868 0.87868C0.316071 1.44129 0 2.20435 0 3V13C0 13.7956 0.316071 14.5587 0.87868 15.1213C1.44129 15.6839 2.20435 16 3 16H17C17.7956 16 18.5587 15.6839 19.1213 15.1213C19.6839 14.5587 20 13.7956 20 13V5C20 4.73478 19.8946 4.48043 19.7071 4.29289C19.5196 4.10536 19.2652 4 19 4ZM15 2H19C19.2652 2 19.5196 1.89464 19.7071 1.70711C19.8946 1.51957 20 1.26522 20 1C20 0.734784 19.8946 0.48043 19.7071 0.292893C19.5196 0.105357 19.2652 0 19 0H15C14.7348 0 14.4804 0.105357 14.2929 0.292893C14.1054 0.48043 14 0.734784 14 1C14 1.26522 14.1054 1.51957 14.2929 1.70711C14.4804 1.89464 14.7348 2 15 2Z" fill="var(--fill-0, #1E1F26)"/>
</svg>
