<svg preserveAspectRatio="none" width="100%" height="100%" overflow="visible" style="display: block;" viewBox="0 0 20.5635 22" fill="none" xmlns="http://www.w3.org/2000/svg">
<path id="Vector" d="M10.2607 4C6.61715 4 6.61715 9.12207 6.61715 10.8574C6.61715 12.8105 6.61715 18 10.2773 18C13.9316 18 13.9316 12.8379 13.9316 10.8945C13.9316 6.31933 12.6963 4 10.2607 4ZM10.2773 16C9.17574 16 8.61715 14.2695 8.61715 10.8047C8.61715 8.61328 8.9023 6 10.2607 6C11.7148 6 11.9316 9.0664 11.9316 10.8945C11.9316 14.2822 11.375 16 10.2773 16V16ZM10.2783 0C4.22652 0 0 4.48144 0 10.8984C0 16.3554 3.84668 22 10.2852 22C16.7188 22 20.5635 16.3555 20.5635 10.8984C20.5634 4.48144 16.334 0 10.2783 0H10.2783ZM10.2851 20C5.09861 20 1.99998 15.3721 1.99998 10.8984C1.99998 5.57617 5.32713 2 10.2783 2C15.2344 2 18.5635 5.57617 18.5635 10.8984C18.5634 15.3721 15.4668 20 10.2851 20H10.2851Z" fill="var(--fill-0, #1E1F26)"/>
</svg>
