<svg preserveAspectRatio="none" width="100%" height="100%" overflow="visible" style="display: block;" viewBox="0 0 12.0041 12.0041" fill="none" xmlns="http://www.w3.org/2000/svg">
<path id="Vector" d="M11 10.0041H3.41L11.71 1.71409C11.8983 1.52579 12.0041 1.27039 12.0041 1.00409C12.0041 0.73779 11.8983 0.482395 11.71 0.294092C11.5217 0.105788 11.2663 0 11 0C10.7337 0 10.4783 0.105788 10.29 0.294092L2 8.59409V1.00409C2 0.738875 1.89464 0.484522 1.70711 0.296985C1.51957 0.109449 1.26522 0.00409174 1 0.00409174C0.734784 0.00409174 0.48043 0.109449 0.292893 0.296985C0.105357 0.484522 0 0.738875 0 1.00409V11.0041C0.00157999 11.1348 0.028759 11.2639 0.0799999 11.3841C0.181475 11.6284 0.375651 11.8226 0.62 11.9241C0.740222 11.9753 0.869323 12.0025 1 12.0041H11C11.2652 12.0041 11.5196 11.8987 11.7071 11.7112C11.8946 11.5237 12 11.2693 12 11.0041C12 10.7389 11.8946 10.4845 11.7071 10.297C11.5196 10.1094 11.2652 10.0041 11 10.0041Z" fill="var(--fill-0, #1E1F26)"/>
</svg>
