<svg preserveAspectRatio="none" width="100%" height="100%" overflow="visible" style="display: block;" viewBox="0 0 20.0099 20.0099" fill="none" xmlns="http://www.w3.org/2000/svg">
<path id="Vector" d="M20.0041 8.94409C19.9937 8.85223 19.9736 8.76172 19.9441 8.67409V8.58409C19.896 8.48127 19.8319 8.38676 19.7541 8.30409V8.30409L13.7541 2.30409C13.6714 2.22631 13.5769 2.16217 13.4741 2.11409H13.3841C13.2825 2.05583 13.1703 2.01844 13.0541 2.00409H8.66409C8.39887 2.00409 8.14452 2.10945 7.95698 2.29699C7.76945 2.48452 7.66409 2.73888 7.66409 3.00409C7.66409 3.26931 7.76945 3.52366 7.95698 3.7112C8.14452 3.89873 8.39887 4.00409 8.66409 4.00409H12.0041V7.00409C12.0041 7.79974 12.3202 8.5628 12.8828 9.12541C13.4454 9.68802 14.2084 10.0041 15.0041 10.0041H18.0041V13.3441C18.0041 13.6093 18.1094 13.8637 18.297 14.0512C18.4845 14.2387 18.7389 14.3441 19.0041 14.3441C19.2693 14.3441 19.5237 14.2387 19.7112 14.0512C19.8987 13.8637 20.0041 13.6093 20.0041 13.3441V9.00409C20.0041 9.00409 20.0041 9.00409 20.0041 8.94409ZM15.0041 8.00409C14.7389 8.00409 14.4845 7.89873 14.297 7.7112C14.1094 7.52366 14.0041 7.26931 14.0041 7.00409V5.41409L16.5941 8.00409H15.0041ZM1.71409 0.294092C1.62085 0.200853 1.51016 0.126892 1.38834 0.0764319C1.26652 0.0259715 1.13595 0 1.00409 0C0.872232 0 0.741664 0.0259715 0.619842 0.0764319C0.49802 0.126892 0.38733 0.200853 0.294092 0.294092C0.105788 0.482395 0 0.73779 0 1.00409C0 1.27039 0.105788 1.52579 0.294092 1.71409L1.20409 2.61409C0.832852 2.89252 0.531263 3.25327 0.323041 3.66798C0.114818 4.08269 0.00564038 4.54005 0.00409162 5.00409V15.0041C0.00409162 15.7997 0.320162 16.5628 0.882771 17.1254C1.44538 17.688 2.20844 18.0041 3.00409 18.0041H16.5941L18.2941 19.7141C18.3871 19.8078 18.4977 19.8822 18.6195 19.933C18.7414 19.9838 18.8721 20.0099 19.0041 20.0099C19.1361 20.0099 19.2668 19.9838 19.3887 19.933C19.5105 19.8822 19.6211 19.8078 19.7141 19.7141C19.8078 19.6211 19.8822 19.5105 19.933 19.3887C19.9838 19.2668 20.0099 19.1361 20.0099 19.0041C20.0099 18.8721 19.9838 18.7414 19.933 18.6195C19.8822 18.4977 19.8078 18.3871 19.7141 18.2941L1.71409 0.294092ZM3.00409 16.0041C2.73888 16.0041 2.48452 15.8987 2.29699 15.7112C2.10945 15.5237 2.00409 15.2693 2.00409 15.0041V5.00409C2.00622 4.80029 2.07057 4.602 2.18853 4.43579C2.30649 4.26958 2.47242 4.14338 2.66409 4.07409L14.5941 16.0041H3.00409Z" fill="var(--fill-0, #1E1F26)"/>
</svg>
