<svg preserveAspectRatio="none" width="100%" height="100%" overflow="visible" style="display: block;" viewBox="0 0 19.5129 21.9881" fill="none" xmlns="http://www.w3.org/2000/svg">
<path id="Vector" d="M18.676 9.64629C18.3616 9.47637 15.6653 7.91191 14.6536 7.32305L14.6506 7.32105L2.39574 0.245912C2.18696 0.118464 1.95286 0.0381737 1.70981 0.0106575C1.46675 -0.0168588 1.22062 0.00906381 0.988635 0.0866117C0.962455 0.0960117 0.937855 0.105472 0.912405 0.117122C0.853314 0.136382 0.795553 0.159505 0.739495 0.186342C0.505181 0.326395 0.312949 0.527018 0.183028 0.767098C0.0531062 1.00718 -0.00970088 1.27784 0.00121487 1.5506V20.536C-0.00622199 20.7901 0.053962 21.0416 0.175613 21.2648C0.297264 21.488 0.476018 21.675 0.693595 21.8065C0.743777 21.831 0.79548 21.8523 0.848385 21.8702C0.877315 21.8835 0.904895 21.8952 0.934745 21.9057C1.07796 21.9576 1.22878 21.9855 1.38109 21.9881C1.67359 21.9849 1.96014 21.9051 2.21215 21.7567C2.60082 21.5311 14.6506 14.574 14.6506 14.574L18.6711 12.2527C18.9197 12.1282 19.1295 11.9381 19.2779 11.703C19.4263 11.4679 19.5075 11.1967 19.5129 10.9187C19.5007 10.651 19.4165 10.3915 19.2692 10.1676C19.122 9.94365 18.917 9.76357 18.676 9.64629V9.64629ZM2.00121 18.8323V3.09515L9.94133 10.9542L2.00121 18.8323ZM7.01921 16.6706L11.3627 12.361L12.5123 13.4989C11.2476 14.2291 9.11095 15.4629 7.01921 16.6707V16.6706ZM11.361 9.54561L6.96315 5.19262L12.5168 8.39892L11.361 9.54561ZM14.3078 12.4623L12.7824 10.9525L14.3101 9.4367C15.0304 9.85498 16.153 10.506 16.926 10.951L14.3078 12.4623Z" fill="var(--fill-0, #1E1F26)"/>
</svg>
