<svg preserveAspectRatio="none" width="100%" height="100%" overflow="visible" style="display: block;" viewBox="0 0 17 17" fill="none" xmlns="http://www.w3.org/2000/svg">
<path id="Vector" d="M13.5 0H3.5C2.57174 0 1.6815 0.368749 1.02513 1.02513C0.368749 1.6815 0 2.57174 0 3.5V13.5C0 14.4283 0.368749 15.3185 1.02513 15.9749C1.6815 16.6313 2.57174 17 3.5 17H13.5C14.4283 17 15.3185 16.6313 15.9749 15.9749C16.6313 15.3185 17 14.4283 17 13.5V3.5C17 2.57174 16.6313 1.6815 15.9749 1.02513C15.3185 0.368749 14.4283 0 13.5 0V0ZM7 2H10V5H7V2ZM5 15H3.5C3.10218 15 2.72064 14.842 2.43934 14.5607C2.15804 14.2794 2 13.8978 2 13.5V12H5V15ZM10 15H7V12H10V15ZM15 13.5C15 13.8978 14.842 14.2794 14.5607 14.5607C14.2794 14.842 13.8978 15 13.5 15H12V12H15V13.5ZM15 10H2V3.5C2 3.10218 2.15804 2.72064 2.43934 2.43934C2.72064 2.15804 3.10218 2 3.5 2H5V6C5 6.26522 5.10536 6.51957 5.29289 6.70711C5.48043 6.89464 5.73478 7 6 7H15V10ZM15 5H12V2H13.5C13.8978 2 14.2794 2.15804 14.5607 2.43934C14.842 2.72064 15 3.10218 15 3.5V5Z" fill="var(--fill-0, #1E1F26)"/>
</svg>
