<svg preserveAspectRatio="none" width="100%" height="100%" overflow="visible" style="display: block;" viewBox="0 0 19.9608 20" fill="none" xmlns="http://www.w3.org/2000/svg">
<path id="Vector" d="M9.96075 0C9.24086 0.00273772 8.52337 0.0832042 7.82075 0.24H7.70075C5.51729 0.755853 3.57072 1.99098 2.17403 3.74679C0.777341 5.50261 0.0116733 7.6771 0.000132399 9.92064C-0.0114085 12.1642 0.731849 14.3464 2.1104 16.1165C3.48896 17.8866 5.42271 19.1417 7.60076 19.68H7.74075C8.46565 19.8733 9.21077 19.9807 9.96075 20C12.6129 20 15.1565 18.9464 17.0318 17.0711C18.9072 15.1957 19.9608 12.6522 19.9608 10C19.9608 7.34784 18.9072 4.8043 17.0318 2.92893C15.1565 1.05357 12.6129 0 9.96075 0V0ZM7.96075 17.74C6.24876 17.2925 4.73343 16.2901 3.65191 14.8896C2.57039 13.4891 1.98372 11.7695 1.98372 10C1.98372 8.2305 2.57039 6.51093 3.65191 5.11041C4.73343 3.70989 6.24876 2.70746 7.96075 2.26C9.67275 2.70746 11.1881 3.70989 12.2696 5.11041C13.3511 6.51093 13.9378 8.2305 13.9378 10C13.9378 11.7695 13.3511 13.4891 12.2696 14.8896C11.1881 16.2901 9.67275 17.2925 7.96075 17.74V17.74ZM12.4908 17.58C13.5817 16.6412 14.4572 15.478 15.0574 14.1698C15.6575 12.8616 15.9682 11.4393 15.9682 10C15.9682 8.56071 15.6575 7.13839 15.0574 5.83019C14.4572 4.522 13.5817 3.35878 12.4908 2.42C14.0768 2.95526 15.4551 3.97458 16.4313 5.3344C17.4076 6.69422 17.9327 8.32602 17.9327 10C17.9327 11.674 17.4076 13.3058 16.4313 14.6656C15.4551 16.0254 14.0768 17.0447 12.4908 17.58V17.58Z" fill="var(--fill-0, #1E1F26)"/>
</svg>
