<svg preserveAspectRatio="none" width="100%" height="100%" overflow="visible" style="display: block;" viewBox="0 0 18 18" fill="none" xmlns="http://www.w3.org/2000/svg">
<path id="Vector" d="M1 4C0.802219 4 0.60888 4.05865 0.44443 4.16853C0.279981 4.27841 0.151809 4.43459 0.0761209 4.61732C0.000433282 4.80004 -0.0193701 5.00111 0.0192152 5.19509C0.0578004 5.38907 0.153041 5.56725 0.292894 5.70711C0.432746 5.84696 0.610929 5.9422 0.80491 5.98079C0.998891 6.01937 1.19996 5.99957 1.38268 5.92388C1.56541 5.84819 1.72159 5.72002 1.83147 5.55557C1.94135 5.39112 2 5.19778 2 5C2 4.73478 1.89464 4.48043 1.70711 4.29289C1.51957 4.10536 1.26522 4 1 4ZM1 0C0.802219 0 0.60888 0.0586491 0.44443 0.16853C0.279981 0.278412 0.151809 0.43459 0.0761209 0.617316C0.000433282 0.800043 -0.0193701 1.00111 0.0192152 1.19509C0.0578004 1.38907 0.153041 1.56725 0.292894 1.70711C0.432746 1.84696 0.610929 1.9422 0.80491 1.98079C0.998891 2.01937 1.19996 1.99957 1.38268 1.92388C1.56541 1.84819 1.72159 1.72002 1.83147 1.55557C1.94135 1.39112 2 1.19778 2 1C2 0.734784 1.89464 0.48043 1.70711 0.292893C1.51957 0.105357 1.26522 0 1 0V0ZM5 16C4.80222 16 4.60888 16.0586 4.44443 16.1685C4.27998 16.2784 4.15181 16.4346 4.07612 16.6173C4.00043 16.8 3.98063 17.0011 4.01922 17.1951C4.0578 17.3891 4.15304 17.5673 4.29289 17.7071C4.43275 17.847 4.61093 17.9422 4.80491 17.9808C4.99889 18.0194 5.19996 17.9996 5.38268 17.9239C5.56541 17.8482 5.72159 17.72 5.83147 17.5556C5.94135 17.3911 6 17.1978 6 17C6 16.7348 5.89464 16.4804 5.70711 16.2929C5.51957 16.1054 5.26522 16 5 16ZM1 16C0.802219 16 0.60888 16.0586 0.44443 16.1685C0.279981 16.2784 0.151809 16.4346 0.0761209 16.6173C0.000433282 16.8 -0.0193701 17.0011 0.0192152 17.1951C0.0578004 17.3891 0.153041 17.5673 0.292894 17.7071C0.432746 17.847 0.610929 17.9422 0.80491 17.9808C0.998891 18.0194 1.19996 17.9996 1.38268 17.9239C1.56541 17.8482 1.72159 17.72 1.83147 17.5556C1.94135 17.3911 2 17.1978 2 17C2 16.7348 1.89464 16.4804 1.70711 16.2929C1.51957 16.1054 1.26522 16 1 16ZM5 8C4.80222 8 4.60888 8.05865 4.44443 8.16853C4.27998 8.27841 4.15181 8.43459 4.07612 8.61732C4.00043 8.80004 3.98063 9.00111 4.01922 9.19509C4.0578 9.38907 4.15304 9.56725 4.29289 9.70711C4.43275 9.84696 4.61093 9.9422 4.80491 9.98079C4.99889 10.0194 5.19996 9.99957 5.38268 9.92388C5.56541 9.84819 5.72159 9.72002 5.83147 9.55557C5.94135 9.39112 6 9.19778 6 9C6 8.73478 5.89464 8.48043 5.70711 8.29289C5.51957 8.10536 5.26522 8 5 8ZM5 0C4.80222 0 4.60888 0.0586491 4.44443 0.16853C4.27998 0.278412 4.15181 0.43459 4.07612 0.617316C4.00043 0.800043 3.98063 1.00111 4.01922 1.19509C4.0578 1.38907 4.15304 1.56725 4.29289 1.70711C4.43275 1.84696 4.61093 1.9422 4.80491 1.98079C4.99889 2.01937 5.19996 1.99957 5.38268 1.92388C5.56541 1.84819 5.72159 1.72002 5.83147 1.55557C5.94135 1.39112 6 1.19778 6 1C6 0.734784 5.89464 0.48043 5.70711 0.292893C5.51957 0.105357 5.26522 0 5 0V0ZM1 8C0.802219 8 0.60888 8.05865 0.44443 8.16853C0.279981 8.27841 0.151809 8.43459 0.0761209 8.61732C0.000433282 8.80004 -0.0193701 9.00111 0.0192152 9.19509C0.0578004 9.38907 0.153041 9.56725 0.292894 9.70711C0.432746 9.84696 0.610929 9.9422 0.80491 9.98079C0.998891 10.0194 1.19996 9.99957 1.38268 9.92388C1.56541 9.84819 1.72159 9.72002 1.83147 9.55557C1.94135 9.39112 2 9.19778 2 9C2 8.73478 1.89464 8.48043 1.70711 8.29289C1.51957 8.10536 1.26522 8 1 8ZM1 12C0.802219 12 0.60888 12.0586 0.44443 12.1685C0.279981 12.2784 0.151809 12.4346 0.0761209 12.6173C0.000433282 12.8 -0.0193701 13.0011 0.0192152 13.1951C0.0578004 13.3891 0.153041 13.5673 0.292894 13.7071C0.432746 13.847 0.610929 13.9422 0.80491 13.9808C0.998891 14.0194 1.19996 13.9996 1.38268 13.9239C1.56541 13.8482 1.72159 13.72 1.83147 13.5556C1.94135 13.3911 2 13.1978 2 13C2 12.7348 1.89464 12.4804 1.70711 12.2929C1.51957 12.1054 1.26522 12 1 12ZM13 0C12.8022 0 12.6089 0.0586491 12.4444 0.16853C12.28 0.278412 12.1518 0.43459 12.0761 0.617316C12.0004 0.800043 11.9806 1.00111 12.0192 1.19509C12.0578 1.38907 12.153 1.56725 12.2929 1.70711C12.4327 1.84696 12.6109 1.9422 12.8049 1.98079C12.9989 2.01937 13.2 1.99957 13.3827 1.92388C13.5654 1.84819 13.7216 1.72002 13.8315 1.55557C13.9414 1.39112 14 1.19778 14 1C14 0.734784 13.8946 0.48043 13.7071 0.292893C13.5196 0.105357 13.2652 0 13 0V0ZM13 8C12.8022 8 12.6089 8.05865 12.4444 8.16853C12.28 8.27841 12.1518 8.43459 12.0761 8.61732C12.0004 8.80004 11.9806 9.00111 12.0192 9.19509C12.0578 9.38907 12.153 9.56725 12.2929 9.70711C12.4327 9.84696 12.6109 9.9422 12.8049 9.98079C12.9989 10.0194 13.2 9.99957 13.3827 9.92388C13.5654 9.84819 13.7216 9.72002 13.8315 9.55557C13.9414 9.39112 14 9.19778 14 9C14 8.73478 13.8946 8.48043 13.7071 8.29289C13.5196 8.10536 13.2652 8 13 8ZM9 16C8.80222 16 8.60888 16.0586 8.44443 16.1685C8.27998 16.2784 8.15181 16.4346 8.07612 16.6173C8.00043 16.8 7.98063 17.0011 8.01922 17.1951C8.0578 17.3891 8.15304 17.5673 8.29289 17.7071C8.43275 17.847 8.61093 17.9422 8.80491 17.9808C8.99889 18.0194 9.19996 17.9996 9.38268 17.9239C9.56541 17.8482 9.72159 17.72 9.83147 17.5556C9.94135 17.3911 10 17.1978 10 17C10 16.7348 9.89464 16.4804 9.70711 16.2929C9.51957 16.1054 9.26522 16 9 16ZM9 0C8.80222 0 8.60888 0.0586491 8.44443 0.16853C8.27998 0.278412 8.15181 0.43459 8.07612 0.617316C8.00043 0.800043 7.98063 1.00111 8.01922 1.19509C8.0578 1.38907 8.15304 1.56725 8.29289 1.70711C8.43275 1.84696 8.61093 1.9422 8.80491 1.98079C8.99889 2.01937 9.19996 1.99957 9.38268 1.92388C9.56541 1.84819 9.72159 1.72002 9.83147 1.55557C9.94135 1.39112 10 1.19778 10 1C10 0.734784 9.89464 0.48043 9.70711 0.292893C9.51957 0.105357 9.26522 0 9 0V0ZM17 0C16.7348 0 16.4804 0.105357 16.2929 0.292893C16.1054 0.48043 16 0.734784 16 1V17C16 17.2652 16.1054 17.5196 16.2929 17.7071C16.4804 17.8946 16.7348 18 17 18C17.2652 18 17.5196 17.8946 17.7071 17.7071C17.8946 17.5196 18 17.2652 18 17V1C18 0.734784 17.8946 0.48043 17.7071 0.292893C17.5196 0.105357 17.2652 0 17 0V0ZM13 16C12.8022 16 12.6089 16.0586 12.4444 16.1685C12.28 16.2784 12.1518 16.4346 12.0761 16.6173C12.0004 16.8 11.9806 17.0011 12.0192 17.1951C12.0578 17.3891 12.153 17.5673 12.2929 17.7071C12.4327 17.847 12.6109 17.9422 12.8049 17.9808C12.9989 18.0194 13.2 17.9996 13.3827 17.9239C13.5654 17.8482 13.7216 17.72 13.8315 17.5556C13.9414 17.3911 14 17.1978 14 17C14 16.7348 13.8946 16.4804 13.7071 16.2929C13.5196 16.1054 13.2652 16 13 16ZM9 4C8.80222 4 8.60888 4.05865 8.44443 4.16853C8.27998 4.27841 8.15181 4.43459 8.07612 4.61732C8.00043 4.80004 7.98063 5.00111 8.01922 5.19509C8.0578 5.38907 8.15304 5.56725 8.29289 5.70711C8.43275 5.84696 8.61093 5.9422 8.80491 5.98079C8.99889 6.01937 9.19996 5.99957 9.38268 5.92388C9.56541 5.84819 9.72159 5.72002 9.83147 5.55557C9.94135 5.39112 10 5.19778 10 5C10 4.73478 9.89464 4.48043 9.70711 4.29289C9.51957 4.10536 9.26522 4 9 4ZM9 12C8.80222 12 8.60888 12.0586 8.44443 12.1685C8.27998 12.2784 8.15181 12.4346 8.07612 12.6173C8.00043 12.8 7.98063 13.0011 8.01922 13.1951C8.0578 13.3891 8.15304 13.5673 8.29289 13.7071C8.43275 13.847 8.61093 13.9422 8.80491 13.9808C8.99889 14.0194 9.19996 13.9996 9.38268 13.9239C9.56541 13.8482 9.72159 13.72 9.83147 13.5556C9.94135 13.3911 10 13.1978 10 13C10 12.7348 9.89464 12.4804 9.70711 12.2929C9.51957 12.1054 9.26522 12 9 12ZM9 8C8.80222 8 8.60888 8.05865 8.44443 8.16853C8.27998 8.27841 8.15181 8.43459 8.07612 8.61732C8.00043 8.80004 7.98063 9.00111 8.01922 9.19509C8.0578 9.38907 8.15304 9.56725 8.29289 9.70711C8.43275 9.84696 8.61093 9.9422 8.80491 9.98079C8.99889 10.0194 9.19996 9.99957 9.38268 9.92388C9.56541 9.84819 9.72159 9.72002 9.83147 9.55557C9.94135 9.39112 10 9.19778 10 9C10 8.73478 9.89464 8.48043 9.70711 8.29289C9.51957 8.10536 9.26522 8 9 8Z" fill="var(--fill-0, #1E1F26)"/>
</svg>
