<svg preserveAspectRatio="none" width="100%" height="100%" overflow="visible" style="display: block;" viewBox="0 0 19.0374 19.99" fill="none" xmlns="http://www.w3.org/2000/svg">
<path id="Vector" d="M18.7314 8.27999L17.0014 6.55999C17.4205 5.8802 17.6453 5.09856 17.6514 4.29999C17.6494 3.44841 17.3952 2.6165 16.9208 1.90925C16.4465 1.20201 15.7733 0.651142 14.9861 0.326168C14.199 0.00119471 13.3332 -0.0833146 12.4981 0.0833064C11.663 0.249927 10.8959 0.66021 10.2938 1.26237C9.69159 1.86453 9.28131 2.63158 9.11469 3.46671C8.94807 4.30183 9.03257 5.1676 9.35755 5.95474C9.68252 6.74188 10.2334 7.41511 10.9406 7.88946C11.6479 8.36381 12.4798 8.61801 13.3314 8.61999C14.1282 8.62094 14.91 8.40302 15.5914 7.98999L17.3114 9.71999C17.4043 9.81372 17.5149 9.88811 17.6368 9.93888C17.7587 9.98965 17.8894 10.0158 18.0214 10.0158C18.1534 10.0158 18.2841 9.98965 18.4059 9.93888C18.5278 9.88811 18.6384 9.81372 18.7314 9.71999C18.8282 9.62671 18.9051 9.51487 18.9577 9.39116C19.0103 9.26745 19.0374 9.13441 19.0374 8.99999C19.0374 8.86557 19.0103 8.73253 18.9577 8.60882C18.9051 8.48511 18.8282 8.37327 18.7314 8.27999V8.27999ZM14.9714 5.98999C14.6434 6.31394 14.2263 6.53284 13.7734 6.61876C13.3205 6.70468 12.8523 6.65372 12.4284 6.47239C12.0046 6.29105 11.6444 5.98756 11.3938 5.60064C11.1432 5.21372 11.0135 4.76092 11.0214 4.29999C11.0212 3.99681 11.0812 3.69661 11.1979 3.4168C11.3146 3.13699 11.4858 2.88314 11.7014 2.66999C12.136 2.23825 12.7238 1.99595 13.3364 1.99595C13.949 1.99595 14.5367 2.23825 14.9714 2.66999C15.1863 2.88455 15.3569 3.1394 15.4733 3.41996C15.5896 3.70051 15.6495 4.00126 15.6495 4.30499C15.6495 4.60872 15.5896 4.90947 15.4733 5.19002C15.3569 5.47058 15.1863 5.72543 14.9714 5.93999V5.98999ZM17.0214 11.99C16.894 11.9569 16.7613 11.9493 16.631 11.9676C16.5007 11.986 16.3752 12.0298 16.2619 12.0967C16.1486 12.1636 16.0495 12.2522 15.9705 12.3574C15.8915 12.4627 15.834 12.5825 15.8014 12.71C15.419 14.2185 14.5448 15.5566 13.3169 16.5128C12.0891 17.469 10.5776 17.9888 9.02137 17.99H3.43137L4.07137 17.36C4.25762 17.1726 4.36216 16.9192 4.36216 16.655C4.36216 16.3908 4.25762 16.1374 4.07137 15.95C3.42441 15.2899 2.91458 14.5082 2.57131 13.65C2.22804 12.7918 2.05813 11.8742 2.07137 10.95C2.07663 9.57029 2.48949 8.22291 3.2581 7.07711C4.02671 5.93132 5.11678 5.03821 6.39137 4.50999C6.63802 4.41186 6.83559 4.21977 6.94061 3.97597C7.04563 3.73217 7.0495 3.45664 6.95137 3.20999C6.85324 2.96334 6.66115 2.76577 6.41735 2.66075C6.17355 2.55573 5.89802 2.55186 5.65137 2.64999C4.34522 3.17356 3.18004 3.99611 2.24939 5.05158C1.31874 6.10706 0.648549 7.36606 0.292635 8.72748C-0.0632797 10.0889 -0.0950011 11.5148 0.200018 12.8907C0.495038 14.2666 1.10858 15.5542 1.99137 16.65L0.31137 18.28C0.172612 18.4206 0.0786158 18.5992 0.0412417 18.7932C0.00386758 18.9872 0.0247902 19.1879 0.10137 19.37C0.17639 19.5526 0.303788 19.7089 0.467508 19.8193C0.631228 19.9296 0.823944 19.989 1.02137 19.99H9.02137C11.0176 19.9913 12.9577 19.3288 14.5362 18.1069C16.1148 16.8849 17.2423 15.1729 17.7414 13.24C17.779 13.1106 17.7901 12.975 17.774 12.8412C17.7579 12.7075 17.7149 12.5783 17.6477 12.4616C17.5804 12.3448 17.4903 12.2429 17.3827 12.1618C17.275 12.0808 17.1522 12.0224 17.0214 11.99Z" fill="var(--fill-0, #1E1F26)"/>
</svg>
