<svg preserveAspectRatio="none" width="100%" height="100%" overflow="visible" style="display: block;" viewBox="0 0 20.0599 20.0799" fill="none" xmlns="http://www.w3.org/2000/svg">
<path id="Vector" d="M17.9058 13.5441H13.4058C13.1406 13.5441 12.8862 13.6494 12.6987 13.837C12.5112 14.0245 12.4058 14.2789 12.4058 14.5441C12.4058 14.8093 12.5112 15.0637 12.6987 15.2512C12.8862 15.4387 13.1406 15.5441 13.4058 15.5441H15.8058C15.0616 16.3302 14.1656 16.957 13.1721 17.3868C12.1786 17.8165 11.1082 18.0401 10.0258 18.0441C8.95431 18.043 7.89374 17.8289 6.9058 17.4141L5.4158 18.9041C6.8362 19.6551 8.41906 20.0466 10.0258 20.0441C12.5894 20.0368 15.0523 19.0452 16.9058 17.2741V19.0441C16.9058 19.3093 17.0112 19.5637 17.1987 19.7512C17.3862 19.9387 17.6406 20.0441 17.9058 20.0441C18.171 20.0441 18.4254 19.9387 18.6129 19.7512C18.8004 19.5637 18.9058 19.3093 18.9058 19.0441V14.5441C18.9058 14.2789 18.8004 14.0245 18.6129 13.837C18.4254 13.6494 18.171 13.5441 17.9058 13.5441ZM16.3358 5.14409L17.7658 3.71409L19.7658 1.71409C19.859 1.62085 19.933 1.51016 19.9835 1.38834C20.0339 1.26652 20.0599 1.13595 20.0599 1.00409C20.0599 0.872232 20.0339 0.741664 19.9835 0.619842C19.933 0.49802 19.859 0.38733 19.7658 0.294092C19.6726 0.200853 19.5619 0.126892 19.44 0.0764319C19.3182 0.0259715 19.1877 0 19.0558 0C18.9239 0 18.7934 0.0259715 18.6715 0.0764319C18.5497 0.126892 18.439 0.200853 18.3458 0.294092L16.3458 2.29409C14.5656 0.830681 12.3303 0.0348696 10.0258 0.0440916C7.46218 0.0514038 4.99929 1.04301 3.1458 2.81409V1.04409C3.1458 0.778875 3.04044 0.524521 2.85291 0.336985C2.66537 0.149448 2.41101 0.0440916 2.1458 0.0440916C1.88058 0.0440916 1.62623 0.149448 1.43869 0.336985C1.25116 0.524521 1.1458 0.778875 1.1458 1.04409V5.54409C1.1458 5.80931 1.25116 6.06366 1.43869 6.2512C1.62623 6.43873 1.88058 6.54409 2.1458 6.54409H6.6458C6.91101 6.54409 7.16537 6.43873 7.3529 6.2512C7.54044 6.06366 7.6458 5.80931 7.6458 5.54409C7.6458 5.27888 7.54044 5.02452 7.3529 4.83699C7.16537 4.64945 6.91101 4.54409 6.6458 4.54409H4.2458C5.60205 3.10125 7.44906 2.21803 9.42358 2.06814C11.3981 1.91825 13.3573 2.51252 14.9158 3.73409L3.7158 14.9341C2.62162 13.5389 2.0266 11.8172 2.0258 10.0441C2.0258 9.77887 1.92044 9.52452 1.73291 9.33698C1.54537 9.14945 1.29101 9.04409 1.0258 9.04409C0.760582 9.04409 0.506228 9.14945 0.318691 9.33698C0.131155 9.52452 0.0257983 9.77887 0.0257983 10.0441C0.0222043 12.351 0.825188 14.5867 2.2958 16.3641L0.295798 18.3641C0.20207 18.4571 0.127676 18.5677 0.0769069 18.6895C0.0261382 18.8114 0 18.9421 0 19.0741C0 19.2061 0.0261382 19.3368 0.0769069 19.4587C0.127676 19.5805 0.20207 19.6911 0.295798 19.7841C0.388761 19.8778 0.499363 19.9522 0.621222 20.003C0.743081 20.0538 0.873786 20.0799 1.0058 20.0799C1.13781 20.0799 1.26852 20.0538 1.39037 20.003C1.51223 19.9522 1.62284 19.8778 1.7158 19.7841L3.7158 17.7841L5.1458 16.3541L16.3358 5.14409ZM17.3958 6.92409C17.8106 7.91203 18.0247 8.97261 18.0258 10.0441C18.0258 10.3093 18.1312 10.5637 18.3187 10.7512C18.5062 10.9387 18.7606 11.0441 19.0258 11.0441C19.291 11.0441 19.5454 10.9387 19.7329 10.7512C19.9204 10.5637 20.0258 10.3093 20.0258 10.0441C20.0283 8.43735 19.6368 6.8545 18.8858 5.43409L17.3958 6.92409Z" fill="var(--fill-0, #1E1F26)"/>
</svg>
