<svg preserveAspectRatio="none" width="100%" height="100%" overflow="visible" style="display: block;" viewBox="0 0 20.0003 14.0236" fill="none" xmlns="http://www.w3.org/2000/svg">
<path id="Vector" d="M19.5403 0.171794C19.3945 0.0731507 19.2253 0.0147324 19.0497 0.00244133C18.8741 -0.00984971 18.6984 0.0244223 18.5403 0.101795C15.837 1.23075 12.9295 1.78909 10.0003 1.74179C7.05765 1.79462 4.13605 1.23618 1.42032 0.101795C1.26222 0.0244223 1.0865 -0.00984971 0.910912 0.00244133C0.735325 0.0147324 0.566094 0.0731507 0.420317 0.171794C0.286885 0.266719 0.178805 0.392958 0.105573 0.539422C0.0323407 0.685887 -0.00380315 0.848094 0.00031657 1.01179V13.0118C0.000595308 13.1791 0.0428531 13.3437 0.123219 13.4904C0.203585 13.6372 0.31949 13.7614 0.460317 13.8518C0.606094 13.9504 0.775326 14.0089 0.950912 14.0211C1.1265 14.0334 1.30222 13.9992 1.46032 13.9218C4.16366 12.7928 7.07108 12.2345 10.0003 12.2818C12.943 12.229 15.8646 12.7874 18.5803 13.9218C18.7127 13.9801 18.8556 14.0108 19.0003 14.0118C19.1919 14.0113 19.3794 13.9558 19.5403 13.8518C19.6811 13.7614 19.797 13.6372 19.8774 13.4904C19.9578 13.3437 20 13.1791 20.0003 13.0118V1.01179C20 0.844475 19.9578 0.679901 19.8774 0.533146C19.797 0.386391 19.6811 0.262147 19.5403 0.171794ZM18.0003 11.5318C15.4203 10.6791 12.7175 10.2568 10.0003 10.2818C7.28314 10.2568 4.58037 10.6791 2.00032 11.5318V2.53179C4.58037 3.38444 7.28314 3.80675 10.0003 3.7818C12.7175 3.80675 15.4203 3.38444 18.0003 2.53179V11.5318Z" fill="var(--fill-0, #1E1F26)"/>
</svg>
