<svg preserveAspectRatio="none" width="100%" height="100%" overflow="visible" style="display: block;" viewBox="0 0 20.0099 20.0099" fill="none" xmlns="http://www.w3.org/2000/svg">
<path id="Vector" d="M19.7141 18.2941L1.71409 0.294092C1.52579 0.105788 1.27039 -1.9841e-09 1.00409 0C0.73779 1.9841e-09 0.482395 0.105788 0.294092 0.294092C0.105788 0.482395 1.9841e-09 0.73779 0 1.00409C-1.9841e-09 1.27039 0.105788 1.52579 0.294092 1.71409L4.29409 5.71409C3.02513 7.6735 2.33214 9.94998 2.29409 12.2841C2.30458 14.3266 3.11993 16.2826 4.56329 17.7278C6.00664 19.1731 7.9616 19.991 10.0041 20.0041C11.1211 20.009 12.2257 19.7689 13.2399 19.3006C14.2541 18.8324 15.1533 18.1475 15.8741 17.2941L18.2941 19.7141C18.3871 19.8078 18.4977 19.8822 18.6195 19.933C18.7414 19.9838 18.8721 20.0099 19.0041 20.0099C19.1361 20.0099 19.2668 19.9838 19.3887 19.933C19.5105 19.8822 19.6211 19.8078 19.7141 19.7141C19.8078 19.6211 19.8822 19.5105 19.933 19.3887C19.9838 19.2668 20.0099 19.1361 20.0099 19.0041C20.0099 18.8721 19.9838 18.7414 19.933 18.6195C19.8822 18.4977 19.8078 18.3871 19.7141 18.2941V18.2941ZM10.0041 18.0041C8.47991 18.0014 7.01891 17.3948 5.94115 16.317C4.86339 15.2393 4.25674 13.7783 4.25409 12.2541C4.28841 10.4515 4.7953 8.68941 5.72409 7.14409L14.4641 15.8741C13.9297 16.5428 13.2508 17.0817 12.4784 17.4506C11.706 17.8195 10.8601 18.0087 10.0041 18.0041V18.0041ZM8.85409 3.24409C9.30409 2.82409 9.70409 2.49409 10.0041 2.24409C11.4341 3.36409 15.1341 6.67409 15.6841 11.1241C15.7136 11.368 15.8318 11.5925 16.0162 11.7548C16.2007 11.9171 16.4384 12.0059 16.6841 12.0041H16.8041C17.0663 11.9716 17.3051 11.8366 17.4681 11.6286C17.6311 11.4206 17.7052 11.1565 17.6741 10.8941C16.8941 4.46409 10.8241 0.344092 10.5741 0.174092C10.4087 0.0623158 10.2137 0.00258422 10.0141 0.00258422C9.81449 0.00258422 9.61946 0.0623158 9.45409 0.174092C8.76513 0.665853 8.11029 1.20375 7.49409 1.78409C7.32099 1.96908 7.22455 2.21287 7.22426 2.46622C7.22397 2.71957 7.31985 2.96359 7.49253 3.14897C7.66522 3.33435 7.90183 3.44727 8.15456 3.46493C8.40729 3.48259 8.65731 3.40366 8.85409 3.24409V3.24409Z" fill="var(--fill-0, #1E1F26)"/>
</svg>
