<svg preserveAspectRatio="none" width="100%" height="100%" overflow="visible" style="display: block;" viewBox="0 0 22 20.082" fill="none" xmlns="http://www.w3.org/2000/svg">
<path id="Vector" d="M9.25537 0.44336C9.16404 0.306882 9.04047 0.195025 8.89559 0.117693C8.75072 0.0403601 8.58902 -6.36063e-05 8.4248 7.51239e-08H1C0.868669 -3.40844e-05 0.738617 0.0258085 0.617276 0.0760511C0.495935 0.126294 0.385682 0.199952 0.292817 0.292817C0.199952 0.385683 0.126294 0.495935 0.076051 0.617276C0.0258084 0.738617 -3.41257e-05 0.868669 3.38206e-08 1V19.082C3.03811e-05 19.3136 0.0804583 19.5381 0.227553 19.717C0.374647 19.8959 0.579288 20.0183 0.806538 20.0631C1.03379 20.1079 1.26956 20.0725 1.47359 19.9629C1.67763 19.8532 1.83728 19.6762 1.92529 19.4619L9.3501 1.37989C9.41236 1.228 9.43628 1.06311 9.41976 0.899787C9.40324 0.736462 9.34679 0.579711 9.25537 0.44336V0.44336ZM2 14.0137V2H6.9331L2 14.0137ZM21 7.51239e-08H13.4824C13.3175 6.52968e-05 13.1552 0.0408972 13.01 0.118861C12.8647 0.196824 12.7409 0.3095 12.6497 0.446857C12.5585 0.584214 12.5027 0.74199 12.4872 0.90614C12.4718 1.07029 12.4971 1.23572 12.561 1.3877L20.0786 19.2373C20.1548 19.4187 20.2828 19.5736 20.4466 19.6825C20.6104 19.7914 20.8028 19.8496 20.9995 19.8496C21.0661 19.8494 21.1324 19.8429 21.1978 19.8301C21.424 19.7842 21.6275 19.6616 21.7737 19.4829C21.9199 19.3042 21.9999 19.0805 22 18.8496V1C22 0.868669 21.9742 0.738617 21.924 0.617276C21.8737 0.495935 21.8 0.385683 21.7072 0.292817C21.6143 0.199952 21.5041 0.126294 21.3827 0.0760511C21.2614 0.0258085 21.1313 -3.40844e-05 21 7.51239e-08V7.51239e-08ZM20 13.8984L14.9888 2H20V13.8984ZM11.9575 7.56058C11.8863 7.37209 11.7598 7.20952 11.5946 7.09416C11.4294 6.9788 11.2332 6.91604 11.0317 6.9141H11.022C10.8222 6.91408 10.6271 6.97389 10.4616 7.0858C10.2962 7.19772 10.1681 7.35662 10.0937 7.54203L7.03467 15.1729C6.97384 15.3246 6.95115 15.4889 6.96857 15.6515C6.98599 15.814 7.043 15.9698 7.13461 16.1053C7.22621 16.2407 7.34962 16.3515 7.49402 16.4282C7.63842 16.5048 7.79941 16.5449 7.96289 16.5449H10.2173L11.7398 19.5352C11.8233 19.6997 11.9508 19.8379 12.1081 19.9345C12.2654 20.031 12.4463 20.0821 12.6309 20.082H15.2437C15.4055 20.082 15.5648 20.0427 15.7081 19.9676C15.8514 19.8924 15.9743 19.7837 16.0663 19.6506C16.1583 19.5175 16.2166 19.364 16.2363 19.2034C16.256 19.0429 16.2364 18.8799 16.1792 18.7285L11.9575 7.56058ZM13.2441 18.0821L11.7217 15.0918C11.6382 14.9273 11.5107 14.789 11.3534 14.6925C11.1961 14.596 11.0151 14.5449 10.8306 14.5449H9.44092L10.9946 10.6699L13.7964 18.0821H13.2441Z" fill="var(--fill-0, #1E1F26)"/>
</svg>
