<svg preserveAspectRatio="none" width="100%" height="100%" overflow="visible" style="display: block;" viewBox="0 0 20 20" fill="none" xmlns="http://www.w3.org/2000/svg">
<path id="Vector" d="M2 12.46C2 12.1948 1.89464 11.9404 1.70711 11.7529C1.51957 11.5654 1.26522 11.46 1 11.46C0.734784 11.46 0.48043 11.5654 0.292893 11.7529C0.105357 11.9404 0 12.1948 0 12.46V13.46C0 13.7252 0.105357 13.9796 0.292893 14.1671C0.48043 14.3546 0.734784 14.46 1 14.46H2C2.26522 14.46 2.51957 14.3546 2.70711 14.1671C2.89464 13.9796 3 13.7252 3 13.46C3 13.1948 2.89464 12.9404 2.70711 12.7529C2.51957 12.5654 2.26522 12.46 2 12.46ZM6.18 2H8.28C8.54522 2 8.79957 1.89464 8.98711 1.70711C9.17464 1.51957 9.28 1.26522 9.28 1C9.28 0.734784 9.17464 0.48043 8.98711 0.292893C8.79957 0.105357 8.54522 0 8.28 0H6.18C5.91478 0 5.66043 0.105357 5.47289 0.292893C5.28536 0.48043 5.18 0.734784 5.18 1C5.18 1.26522 5.28536 1.51957 5.47289 1.70711C5.66043 1.89464 5.91478 2 6.18 2ZM12.46 2C12.46 2.26522 12.5654 2.51957 12.7529 2.70711C12.9404 2.89464 13.1948 3 13.46 3C13.7252 3 13.9796 2.89464 14.1671 2.70711C14.3546 2.51957 14.46 2.26522 14.46 2V1C14.46 0.734784 14.3546 0.48043 14.1671 0.292893C13.9796 0.105357 13.7252 0 13.46 0H12.46C12.1948 0 11.9404 0.105357 11.7529 0.292893C11.5654 0.48043 11.46 0.734784 11.46 1C11.46 1.26522 11.5654 1.51957 11.7529 1.70711C11.9404 1.89464 12.1948 2 12.46 2V2ZM2 0H1C0.734784 0 0.48043 0.105357 0.292893 0.292893C0.105357 0.48043 0 0.734784 0 1V2C0 2.26522 0.105357 2.51957 0.292893 2.70711C0.48043 2.89464 0.734784 3 1 3C1.26522 3 1.51957 2.89464 1.70711 2.70711C1.89464 2.51957 2 2.26522 2 2C2.26522 2 2.51957 1.89464 2.70711 1.70711C2.89464 1.51957 3 1.26522 3 1C3 0.734784 2.89464 0.48043 2.70711 0.292893C2.51957 0.105357 2.26522 0 2 0V0ZM1 9.28C1.26522 9.28 1.51957 9.17464 1.70711 8.98711C1.89464 8.79957 2 8.54522 2 8.28V6.18C2 5.91478 1.89464 5.66043 1.70711 5.47289C1.51957 5.28536 1.26522 5.18 1 5.18C0.734784 5.18 0.48043 5.28536 0.292893 5.47289C0.105357 5.66043 0 5.91478 0 6.18V8.28C0 8.54522 0.105357 8.79957 0.292893 8.98711C0.48043 9.17464 0.734784 9.28 1 9.28ZM13.82 18H11.72C11.4548 18 11.2004 18.1054 11.0129 18.2929C10.8254 18.4804 10.72 18.7348 10.72 19C10.72 19.2652 10.8254 19.5196 11.0129 19.7071C11.2004 19.8946 11.4548 20 11.72 20H13.82C14.0852 20 14.3396 19.8946 14.5271 19.7071C14.7146 19.5196 14.82 19.2652 14.82 19C14.82 18.7348 14.7146 18.4804 14.5271 18.2929C14.3396 18.1054 14.0852 18 13.82 18ZM19 5.54H18C17.7348 5.54 17.4804 5.64536 17.2929 5.83289C17.1054 6.02043 17 6.27478 17 6.54C17 6.80522 17.1054 7.05957 17.2929 7.24711C17.4804 7.43464 17.7348 7.54 18 7.54C18 7.80522 18.1054 8.05957 18.2929 8.24711C18.4804 8.43464 18.7348 8.54 19 8.54C19.2652 8.54 19.5196 8.43464 19.7071 8.24711C19.8946 8.05957 20 7.80522 20 7.54V6.54C20 6.27478 19.8946 6.02043 19.7071 5.83289C19.5196 5.64536 19.2652 5.54 19 5.54V5.54ZM19 10.72C18.7348 10.72 18.4804 10.8254 18.2929 11.0129C18.1054 11.2004 18 11.4548 18 11.72V13.82C18 14.0852 18.1054 14.3396 18.2929 14.5271C18.4804 14.7146 18.7348 14.82 19 14.82C19.2652 14.82 19.5196 14.7146 19.7071 14.5271C19.8946 14.3396 20 14.0852 20 13.82V11.72C20 11.4548 19.8946 11.2004 19.7071 11.0129C19.5196 10.8254 19.2652 10.72 19 10.72ZM14.46 5.54C14.46 5.27478 14.3546 5.02043 14.1671 4.83289C13.9796 4.64536 13.7252 4.54 13.46 4.54C13.1948 4.54 12.9404 4.64536 12.7529 4.83289C12.5654 5.02043 12.46 5.27478 12.46 5.54H6.54C6.27478 5.54 6.02043 5.64536 5.83289 5.83289C5.64536 6.02043 5.54 6.27478 5.54 6.54V12.46C5.27478 12.46 5.02043 12.5654 4.83289 12.7529C4.64536 12.9404 4.54 13.1948 4.54 13.46C4.54 13.7252 4.64536 13.9796 4.83289 14.1671C5.02043 14.3546 5.27478 14.46 5.54 14.46C5.54 14.7252 5.64536 14.9796 5.83289 15.1671C6.02043 15.3546 6.27478 15.46 6.54 15.46C6.80522 15.46 7.05957 15.3546 7.24711 15.1671C7.43464 14.9796 7.54 14.7252 7.54 14.46H13.46C13.5913 14.46 13.7214 14.4341 13.8427 14.3839C13.964 14.3336 14.0742 14.26 14.1671 14.1671C14.26 14.0742 14.3336 13.964 14.3839 13.8427C14.4341 13.7214 14.46 13.5913 14.46 13.46V7.54C14.7252 7.54 14.9796 7.43464 15.1671 7.24711C15.3546 7.05957 15.46 6.80522 15.46 6.54C15.46 6.27478 15.3546 6.02043 15.1671 5.83289C14.9796 5.64536 14.7252 5.54 14.46 5.54V5.54ZM12.46 12.46H7.54V7.54H12.46V12.46ZM19 17C18.7348 17 18.4804 17.1054 18.2929 17.2929C18.1054 17.4804 18 17.7348 18 18C17.7348 18 17.4804 18.1054 17.2929 18.2929C17.1054 18.4804 17 18.7348 17 19C17 19.2652 17.1054 19.5196 17.2929 19.7071C17.4804 19.8946 17.7348 20 18 20H19C19.2652 20 19.5196 19.8946 19.7071 19.7071C19.8946 19.5196 20 19.2652 20 19V18C20 17.7348 19.8946 17.4804 19.7071 17.2929C19.5196 17.1054 19.2652 17 19 17ZM7.54 18C7.54 17.7348 7.43464 17.4804 7.24711 17.2929C7.05957 17.1054 6.80522 17 6.54 17C6.27478 17 6.02043 17.1054 5.83289 17.2929C5.64536 17.4804 5.54 17.7348 5.54 18V19C5.54 19.2652 5.64536 19.5196 5.83289 19.7071C6.02043 19.8946 6.27478 20 6.54 20H7.54C7.80522 20 8.05957 19.8946 8.24711 19.7071C8.43464 19.5196 8.54 19.2652 8.54 19C8.54 18.7348 8.43464 18.4804 8.24711 18.2929C8.05957 18.1054 7.80522 18 7.54 18Z" fill="var(--fill-0, #1E1F26)"/>
</svg>
