<svg preserveAspectRatio="none" width="100%" height="100%" overflow="visible" style="display: block;" viewBox="0 0 20 20" fill="none" xmlns="http://www.w3.org/2000/svg">
<path id="Vector" d="M17 11C16.7348 11 16.4804 11.1054 16.2929 11.2929C16.1054 11.4804 16 11.7348 16 12V12.39L14.52 10.91C14.2626 10.6509 13.9564 10.4452 13.6192 10.3049C13.2819 10.1646 12.9203 10.0924 12.555 10.0924C12.1897 10.0924 11.8281 10.1646 11.4908 10.3049C11.1536 10.4452 10.8474 10.6509 10.59 10.91L9.89 11.61L7.41 9.12C6.87897 8.61786 6.17585 8.33807 5.445 8.33807C4.71415 8.33807 4.01103 8.61786 3.48 9.12L2 10.6V5C2 4.73478 2.10536 4.48043 2.29289 4.29289C2.48043 4.10536 2.73478 4 3 4H11C11.2652 4 11.5196 3.89464 11.7071 3.70711C11.8946 3.51957 12 3.26522 12 3C12 2.73478 11.8946 2.48043 11.7071 2.29289C11.5196 2.10536 11.2652 2 11 2H3C2.20435 2 1.44129 2.31607 0.87868 2.87868C0.316071 3.44129 0 4.20435 0 5V17C0 17.7956 0.316071 18.5587 0.87868 19.1213C1.44129 19.6839 2.20435 20 3 20H15C15.7956 20 16.5587 19.6839 17.1213 19.1213C17.6839 18.5587 18 17.7956 18 17V12C18 11.7348 17.8946 11.4804 17.7071 11.2929C17.5196 11.1054 17.2652 11 17 11ZM3 18C2.73478 18 2.48043 17.8946 2.29289 17.7071C2.10536 17.5196 2 17.2652 2 17V13.43L4.9 10.53C5.04691 10.39 5.24206 10.3119 5.445 10.3119C5.64794 10.3119 5.84309 10.39 5.99 10.53L9.16 13.7L13.45 18H3ZM16 17C15.9917 17.1902 15.9292 17.3741 15.82 17.53L11.31 13L12.01 12.3C12.1562 12.1547 12.3539 12.0731 12.56 12.0731C12.7661 12.0731 12.9638 12.1547 13.11 12.3L16 15.22V17ZM17 6.16778e-07C16.4731 -0.000337225 15.9553 0.138121 15.4989 0.401443C15.0425 0.664765 14.6635 1.04366 14.4 1.5C14.3339 1.61413 14.291 1.74022 14.2738 1.871C14.2566 2.00178 14.2655 2.13466 14.2999 2.262C14.3343 2.38934 14.3935 2.50862 14.4742 2.61297C14.5549 2.71732 14.6554 2.80467 14.77 2.87C14.9996 3.00037 15.2715 3.03464 15.5263 2.96532C15.7811 2.89601 15.9981 2.72873 16.13 2.5C16.2392 2.30736 16.4092 2.15639 16.6134 2.07078C16.8176 1.98517 17.0444 1.96975 17.2583 2.02695C17.4722 2.08414 17.6611 2.21071 17.7953 2.38681C17.9296 2.56291 18.0015 2.77858 18 3C18 3.26522 17.8946 3.51957 17.7071 3.70711C17.5196 3.89464 17.2652 4 17 4C16.7348 4 16.4804 4.10536 16.2929 4.29289C16.1054 4.48043 16 4.73478 16 5C16 5.26522 16.1054 5.51957 16.2929 5.70711C16.4804 5.89464 16.7348 6 17 6C17.7956 6 18.5587 5.68393 19.1213 5.12132C19.6839 4.55871 20 3.79565 20 3C20 2.20435 19.6839 1.44129 19.1213 0.87868C18.5587 0.316071 17.7956 6.16778e-07 17 6.16778e-07ZM17.38 7.08C17.199 6.99607 16.997 6.9682 16.8 7L16.62 7.06L16.44 7.15L16.29 7.28C16.1961 7.37463 16.1221 7.48707 16.0723 7.61072C16.0225 7.73436 15.9979 7.86672 16 8C15.9992 8.13161 16.0245 8.26207 16.0742 8.38391C16.124 8.50574 16.1973 8.61656 16.29 8.71C16.383 8.80373 16.4936 8.87812 16.6154 8.92889C16.7373 8.97966 16.868 9.0058 17 9.0058C17.132 9.0058 17.2627 8.97966 17.3846 8.92889C17.5064 8.87812 17.617 8.80373 17.71 8.71C17.8027 8.61656 17.876 8.50574 17.9258 8.38391C17.9755 8.26207 18.0008 8.13161 18 8C17.999 7.80258 17.9396 7.60986 17.8293 7.44614C17.7189 7.28242 17.5626 7.15502 17.38 7.08Z" fill="var(--fill-0, #1E1F26)"/>
</svg>
