<svg preserveAspectRatio="none" width="100%" height="100%" overflow="visible" style="display: block;" viewBox="0 0 19.99 7.00989" fill="none" xmlns="http://www.w3.org/2000/svg">
<path id="Vector" d="M19.915 3.12409C19.8674 3.00134 19.7961 2.88919 19.705 2.79409L17.205 0.294091C17.0167 0.105788 16.7613 0 16.495 0C16.2287 0 15.9733 0.105788 15.785 0.294091C15.5967 0.482395 15.4909 0.73779 15.4909 1.00409C15.4909 1.27039 15.5967 1.52579 15.785 1.71409L16.585 2.50409H11.995C11.7298 2.50409 11.4754 2.60945 11.2879 2.79698C11.1004 2.98452 10.995 3.23887 10.995 3.50409C10.995 3.76931 11.1004 4.02366 11.2879 4.2112C11.4754 4.39873 11.7298 4.50409 11.995 4.50409H16.585L15.785 5.29409C15.6913 5.38705 15.6169 5.49766 15.5661 5.61951C15.5154 5.74137 15.4892 5.87208 15.4892 6.00409C15.4892 6.1361 15.5154 6.26681 15.5661 6.38867C15.6169 6.51053 15.6913 6.62113 15.785 6.71409C15.878 6.80782 15.9886 6.88221 16.1104 6.93298C16.2323 6.98375 16.363 7.00989 16.495 7.00989C16.627 7.00989 16.7577 6.98375 16.8796 6.93298C17.0015 6.88221 17.1121 6.80782 17.205 6.71409L19.705 4.21409C19.7961 4.11899 19.8674 4.00684 19.915 3.88409C20.015 3.64063 20.015 3.36755 19.915 3.12409ZM7.99501 2.50409H3.40501L4.20501 1.71409C4.39332 1.52579 4.49911 1.27039 4.49911 1.00409C4.49911 0.73779 4.39332 0.482395 4.20501 0.294091C4.01671 0.105788 3.76132 1.9841e-09 3.49501 0C3.22871 -1.9841e-09 2.97332 0.105788 2.78501 0.294091L0.285014 2.79409C0.193973 2.88919 0.122608 3.00134 0.0750135 3.12409C-0.0250045 3.36755 -0.0250045 3.64063 0.0750135 3.88409C0.122608 4.00684 0.193973 4.11899 0.285014 4.21409L2.78501 6.71409C2.87798 6.80782 2.98858 6.88221 3.11044 6.93298C3.2323 6.98375 3.363 7.00989 3.49501 7.00989C3.62703 7.00989 3.75773 6.98375 3.87959 6.93298C4.00145 6.88221 4.11205 6.80782 4.20501 6.71409C4.29874 6.62113 4.37314 6.51053 4.4239 6.38867C4.47467 6.26681 4.50081 6.1361 4.50081 6.00409C4.50081 5.87208 4.47467 5.74137 4.4239 5.61951C4.37314 5.49766 4.29874 5.38705 4.20501 5.29409L3.40501 4.50409H7.99501C8.26023 4.50409 8.51458 4.39873 8.70212 4.2112C8.88966 4.02366 8.99501 3.76931 8.99501 3.50409C8.99501 3.23887 8.88966 2.98452 8.70212 2.79698C8.51458 2.60945 8.26023 2.50409 7.99501 2.50409Z" fill="var(--fill-0, #1E1F26)"/>
</svg>
