<svg preserveAspectRatio="none" width="100%" height="100%" overflow="visible" style="display: block;" viewBox="0 0 8.00989 14.0116" fill="none" xmlns="http://www.w3.org/2000/svg">
<path id="Vector" d="M1.71409 4.7158L4.00409 2.4158L6.29409 4.7158C6.38705 4.80953 6.49766 4.88392 6.61951 4.93469C6.74137 4.98546 6.87208 5.0116 7.00409 5.0116C7.1361 5.0116 7.26681 4.98546 7.38867 4.93469C7.51053 4.88392 7.62113 4.80953 7.71409 4.7158C7.80782 4.62284 7.88221 4.51223 7.93298 4.39038C7.98375 4.26852 8.00989 4.13781 8.00989 4.0058C8.00989 3.87379 7.98375 3.74308 7.93298 3.62122C7.88221 3.49936 7.80782 3.38876 7.71409 3.2958L4.71409 0.295798C4.62113 0.20207 4.51053 0.127676 4.38867 0.0769072C4.26681 0.0261385 4.1361 0 4.00409 0C3.87208 0 3.74137 0.0261385 3.61951 0.0769072C3.49766 0.127676 3.38705 0.20207 3.29409 0.295798L0.294092 3.2958C0.105788 3.4841 0 3.7395 0 4.0058C0 4.2721 0.105788 4.52749 0.294092 4.7158C0.482395 4.9041 0.73779 5.00989 1.00409 5.00989C1.27039 5.00989 1.52579 4.9041 1.71409 4.7158ZM6.29409 9.2958L4.00409 11.5958L1.71409 9.2958C1.62085 9.20256 1.51016 9.1286 1.38834 9.07814C1.26652 9.02768 1.13595 9.00171 1.00409 9.00171C0.872233 9.00171 0.741664 9.02768 0.619842 9.07814C0.49802 9.1286 0.38733 9.20256 0.294092 9.2958C0.200853 9.38904 0.126892 9.49973 0.0764318 9.62155C0.0259714 9.74337 0 9.87394 0 10.0058C0 10.1377 0.0259714 10.2682 0.0764318 10.39C0.126892 10.5119 0.200853 10.6226 0.294092 10.7158L3.29409 13.7158C3.38705 13.8095 3.49766 13.8839 3.61951 13.9347C3.74137 13.9855 3.87208 14.0116 4.00409 14.0116C4.1361 14.0116 4.26681 13.9855 4.38867 13.9347C4.51053 13.8839 4.62113 13.8095 4.71409 13.7158L7.71409 10.7158C7.9024 10.5275 8.00818 10.2721 8.00818 10.0058C8.00818 9.7395 7.9024 9.4841 7.71409 9.2958C7.52579 9.10749 7.27039 9.00171 7.00409 9.00171C6.73779 9.00171 6.4824 9.10749 6.29409 9.2958V9.2958Z" fill="var(--fill-0, #1E1F26)"/>
</svg>
