<svg preserveAspectRatio="none" width="100%" height="100%" overflow="visible" style="display: block;" viewBox="0 0 10.0099 19.9952" fill="none" xmlns="http://www.w3.org/2000/svg">
<path id="Vector" d="M8.29409 14.285L6.00409 16.585V3.40501L8.29409 5.70501C8.38706 5.79874 8.49766 5.87314 8.61951 5.9239C8.74137 5.97467 8.87208 6.00081 9.00409 6.00081C9.1361 6.00081 9.26681 5.97467 9.38867 5.9239C9.51053 5.87314 9.62113 5.79874 9.71409 5.70501C9.80782 5.61205 9.88221 5.50145 9.93298 5.37959C9.98375 5.25773 10.0099 5.12703 10.0099 4.99501C10.0099 4.863 9.98375 4.7323 9.93298 4.61044C9.88221 4.48858 9.80782 4.37798 9.71409 4.28501L5.71409 0.285014C5.61899 0.193973 5.50684 0.122608 5.38409 0.0750135C5.14063 -0.0250045 4.86755 -0.0250045 4.62409 0.0750135C4.50134 0.122608 4.3892 0.193973 4.29409 0.285014L0.294092 4.28501C0.200853 4.37825 0.126893 4.48894 0.0764322 4.61076C0.0259719 4.73259 9.82428e-10 4.86315 0 4.99501C-9.82427e-10 5.12687 0.0259719 5.25744 0.0764322 5.37926C0.126893 5.50108 0.200853 5.61178 0.294092 5.70501C0.38733 5.79825 0.498021 5.87221 0.619843 5.92267C0.741665 5.97313 0.872233 5.9991 1.00409 5.9991C1.13595 5.9991 1.26652 5.97313 1.38834 5.92267C1.51016 5.87221 1.62085 5.79825 1.71409 5.70501L4.00409 3.40501V16.585L1.71409 14.285C1.52579 14.0967 1.27039 13.9909 1.00409 13.9909C0.73779 13.9909 0.482395 14.0967 0.294092 14.285C0.105788 14.4733 0 14.7287 0 14.995C0 15.2613 0.105788 15.5167 0.294092 15.705L4.29409 19.705C4.3892 19.7961 4.50134 19.8674 4.62409 19.915C4.74379 19.9679 4.87322 19.9952 5.00409 19.9952C5.13496 19.9952 5.26439 19.9679 5.38409 19.915C5.50684 19.8674 5.61899 19.7961 5.71409 19.705L9.71409 15.705C9.90239 15.5167 10.0082 15.2613 10.0082 14.995C10.0082 14.7287 9.90239 14.4733 9.71409 14.285C9.62085 14.1918 9.51016 14.1178 9.38834 14.0674C9.26652 14.0169 9.13595 13.9909 9.00409 13.9909C8.73779 13.9909 8.4824 14.0967 8.29409 14.285V14.285Z" fill="var(--fill-0, #1E1F26)"/>
</svg>
