<svg preserveAspectRatio="none" width="100%" height="100%" overflow="visible" style="display: block;" viewBox="0 0 19.9946 20.0038" fill="none" xmlns="http://www.w3.org/2000/svg">
<path id="Vector" d="M15.8646 6.60059C15.79 6.4293 15.6691 6.28231 15.5153 6.17627C15.3615 6.07022 15.1811 6.00936 14.9946 6.00059H10.4146L11.6846 1.26059C11.725 1.11226 11.7307 0.956608 11.7012 0.80572C11.6717 0.654833 11.6079 0.512776 11.5146 0.390587C11.4204 0.268229 11.2991 0.169344 11.1603 0.101681C11.0215 0.0340188 10.869 -0.000583402 10.7146 0.00058648H3.71455C3.48879 -0.00714676 3.26706 0.0617862 3.08548 0.196158C2.90389 0.330531 2.77315 0.522425 2.71455 0.740587L0.0345524 10.7406C-0.00622112 10.8916 -0.0109806 11.0502 0.0206567 11.2034C0.052294 11.3566 0.119445 11.5003 0.216711 11.6228C0.313977 11.7454 0.438643 11.8434 0.580686 11.909C0.722729 11.9746 0.878184 12.006 1.03455 12.0006H4.88455L3.07455 18.7406C3.01525 18.9579 3.03107 19.1889 3.11946 19.3961C3.20784 19.6034 3.3636 19.7747 3.56151 19.8823C3.75942 19.9899 3.98787 20.0276 4.20986 19.9892C4.43184 19.9507 4.63434 19.8385 4.78455 19.6706L15.6846 7.67059C15.8143 7.52847 15.9004 7.35192 15.9323 7.16212C15.9642 6.97232 15.9407 6.77735 15.8646 6.60059V6.60059ZM6.07455 15.2806L7.15455 11.2806C7.19967 11.1301 7.2087 10.9711 7.1809 10.8165C7.1531 10.6618 7.08926 10.5159 6.99455 10.3906C6.89935 10.2669 6.7765 10.1672 6.63585 10.0994C6.49519 10.0317 6.34064 9.99786 6.18455 10.0006H2.34455L4.48455 2.00059H9.41455L8.14455 6.74059C8.10378 6.89164 8.09902 7.05016 8.13066 7.20339C8.16229 7.35662 8.22945 7.50029 8.32671 7.62284C8.42398 7.7454 8.54864 7.84342 8.69069 7.90903C8.83273 7.97463 8.98818 8.00599 9.14455 8.00059H12.7146L6.07455 15.2806ZM16.9946 11.0006H15.9946C15.1989 11.0006 14.4358 11.3167 13.8732 11.8793C13.3106 12.4419 12.9946 13.2049 12.9946 14.0006V19.0006C12.9946 19.2658 13.0999 19.5202 13.2874 19.7077C13.475 19.8952 13.7293 20.0006 13.9946 20.0006C14.2598 20.0006 14.5141 19.8952 14.7017 19.7077C14.8892 19.5202 14.9946 19.2658 14.9946 19.0006V17.0006H17.9946V19.0006C17.9946 19.2658 18.0999 19.5202 18.2874 19.7077C18.475 19.8952 18.7293 20.0006 18.9946 20.0006C19.2598 20.0006 19.5141 19.8952 19.7017 19.7077C19.8892 19.5202 19.9946 19.2658 19.9946 19.0006V14.0006C19.9946 13.2049 19.6785 12.4419 19.1159 11.8793C18.5533 11.3167 17.7902 11.0006 16.9946 11.0006ZM17.9946 15.0006H14.9946V14.0006C14.9946 13.7354 15.0999 13.481 15.2874 13.2935C15.475 13.1059 15.7293 13.0006 15.9946 13.0006H16.9946C17.2598 13.0006 17.5141 13.1059 17.7017 13.2935C17.8892 13.481 17.9946 13.7354 17.9946 14.0006V15.0006Z" fill="var(--fill-0, #1E1F26)"/>
</svg>
