<svg preserveAspectRatio="none" width="100%" height="100%" overflow="visible" style="display: block;" viewBox="0 0 22.0001 20.0013" fill="none" xmlns="http://www.w3.org/2000/svg">
<path id="Vector" d="M12 9.00125H1.00005C0.734833 9.00125 0.48048 9.10661 0.292943 9.29414C0.105407 9.48168 5.00054e-05 9.73603 5.00054e-05 10.0013V19.0013C5.00054e-05 19.2665 0.105407 19.5208 0.292943 19.7084C0.48048 19.8959 0.734833 20.0013 1.00005 20.0013H11.86C11.91 20.0013 11.95 20.0013 12 20.0013C12.2653 20.0013 12.5196 19.8959 12.7072 19.7084C12.8947 19.5208 13 19.2665 13 19.0013V10.0013C13 9.73603 12.8947 9.48168 12.7072 9.29414C12.5196 9.10661 12.2653 9.00125 12 9.00125ZM6.44005 18.0013L8.37005 16.0713C8.39741 16.03 8.43456 15.9962 8.47819 15.9727C8.52181 15.9493 8.57054 15.9371 8.62005 15.9371C8.66956 15.9371 8.71829 15.9493 8.76191 15.9727C8.80553 15.9962 8.84268 16.03 8.87005 16.0713L10.79 18.0013H6.44005ZM11 15.3813L10.28 14.6713C9.83164 14.2428 9.23528 14.0036 8.61505 14.0036C7.99482 14.0036 7.39846 14.2428 6.95005 14.6713L3.61005 18.0013H2.00005V11.0013H11V15.3813ZM1.00005 2.11125C1.17359 2.11122 1.34414 2.06603 1.49493 1.98012C1.64571 1.8942 1.77154 1.77053 1.86005 1.62125C1.98721 1.43981 2.05372 1.22279 2.05005 1.00125C2.05022 0.865614 2.02279 0.73136 1.96944 0.606656C1.91609 0.481952 1.83793 0.369405 1.73971 0.275862C1.64149 0.182319 1.52526 0.109735 1.39811 0.0625259C1.27095 0.0153166 1.13552 -0.0055311 1.00005 0.00125088C0.734833 0.00125088 0.48048 0.106608 0.292943 0.294144C0.105407 0.48168 5.00054e-05 0.736034 5.00054e-05 1.00125V1.10125C-0.00127167 1.23341 0.0236184 1.36452 0.073281 1.48701C0.122944 1.60949 0.196394 1.72091 0.289384 1.81483C0.382375 1.90875 0.493061 1.98331 0.615043 2.03419C0.737025 2.08506 0.867882 2.11126 1.00005 2.11125ZM8.91005 2.00125H9.10005C9.36527 2.00125 9.61962 1.89589 9.80716 1.70836C9.99469 1.52082 10.1 1.26647 10.1 1.00125C10.1 0.736034 9.99469 0.48168 9.80716 0.294144C9.61962 0.106608 9.36527 0.00125088 9.10005 0.00125088H8.91005C8.64483 0.00125088 8.39048 0.106608 8.20294 0.294144C8.01541 0.48168 7.91005 0.736034 7.91005 1.00125C7.91005 1.26647 8.01541 1.52082 8.20294 1.70836C8.39048 1.89589 8.64483 2.00125 8.91005 2.00125V2.00125ZM1.00005 6.78125C1.26527 6.78125 1.51962 6.67589 1.70716 6.48836C1.89469 6.30082 2.00005 6.04647 2.00005 5.78125V5.56125C2.00005 5.29603 1.89469 5.04168 1.70716 4.85414C1.51962 4.66661 1.26527 4.56125 1.00005 4.56125C0.734833 4.56125 0.48048 4.66661 0.292943 4.85414C0.105407 5.04168 5.00054e-05 5.29603 5.00054e-05 5.56125V5.78125C5.00054e-05 6.04647 0.105407 6.30082 0.292943 6.48836C0.48048 6.67589 0.734833 6.78125 1.00005 6.78125ZM13.09 0.00125088H12.9C12.6348 0.00125088 12.3805 0.106608 12.1929 0.294144C12.0054 0.48168 11.9 0.736034 11.9 1.00125C11.9 1.26647 12.0054 1.52082 12.1929 1.70836C12.3805 1.89589 12.6348 2.00125 12.9 2.00125H13.09C13.3553 2.00125 13.6096 1.89589 13.7972 1.70836C13.9847 1.52082 14.09 1.26647 14.09 1.00125C14.09 0.736034 13.9847 0.48168 13.7972 0.294144C13.6096 0.106608 13.3553 0.00125088 13.09 0.00125088V0.00125088ZM4.91005 2.00125H5.10005C5.36527 2.00125 5.61962 1.89589 5.80716 1.70836C5.99469 1.52082 6.10005 1.26647 6.10005 1.00125C6.10005 0.736034 5.99469 0.48168 5.80716 0.294144C5.61962 0.106608 5.36527 0.00125088 5.10005 0.00125088H4.91005C4.64483 0.00125088 4.39048 0.106608 4.20294 0.294144C4.01541 0.48168 3.91005 0.736034 3.91005 1.00125C3.91005 1.26647 4.01541 1.52082 4.20294 1.70836C4.39048 1.89589 4.64483 2.00125 4.91005 2.00125ZM21 4.40125C20.7348 4.40125 20.4805 4.50661 20.2929 4.69414C20.1054 4.88168 20 5.13603 20 5.40125V5.61125C20 5.87647 20.1054 6.13082 20.2929 6.31836C20.4805 6.50589 20.7348 6.61125 21 6.61125C21.2653 6.61125 21.5196 6.50589 21.7072 6.31836C21.8947 6.13082 22 5.87647 22 5.61125V5.40125C22 5.13603 21.8947 4.88168 21.7072 4.69414C21.5196 4.50661 21.2653 4.40125 21 4.40125ZM16.1201 18.0013H15.88C15.6148 18.0013 15.3605 18.1066 15.1729 18.2941C14.9854 18.4817 14.88 18.736 14.88 19.0013C14.88 19.2665 14.9854 19.5208 15.1729 19.7084C15.3605 19.8959 15.6148 20.0013 15.88 20.0013H16.1201C16.3853 20.0013 16.6396 19.8959 16.8272 19.7084C17.0147 19.5208 17.1201 19.2665 17.1201 19.0013C17.1201 18.736 17.0147 18.4817 16.8272 18.2941C16.6396 18.1066 16.3853 18.0013 16.1201 18.0013ZM20.9 0.00125088C20.6525 0.0261248 20.4232 0.142366 20.2567 0.327275C20.0903 0.512184 19.9988 0.752484 20 1.00125C20.0024 1.14686 20.0365 1.2902 20.1 1.42125C20.1921 1.6188 20.3463 1.78085 20.5389 1.88274C20.7316 1.98463 20.9523 2.02077 21.1674 1.98568C21.3825 1.95058 21.5803 1.84616 21.7306 1.68831C21.8809 1.53046 21.9755 1.32783 22 1.11125V1.00125C21.9773 0.726302 21.8511 0.470213 21.647 0.28463C21.4428 0.0990472 21.1759 -0.00222046 20.9 0.00125088ZM21 8.90125C20.7348 8.90125 20.4805 9.00661 20.2929 9.19414C20.1054 9.38168 20 9.63603 20 9.90125V10.1213C20 10.3865 20.1054 10.6408 20.2929 10.8284C20.4805 11.0159 20.7348 11.1213 21 11.1213C21.2653 11.1213 21.5196 11.0159 21.7072 10.8284C21.8947 10.6408 22 10.3865 22 10.1213V9.90125C22 9.63603 21.8947 9.38168 21.7072 9.19414C21.5196 9.00661 21.2653 8.90125 21 8.90125ZM17.09 0.00125088H16.9C16.6348 0.00125088 16.3805 0.106608 16.1929 0.294144C16.0054 0.48168 15.9 0.736034 15.9 1.00125C15.9 1.26647 16.0054 1.52082 16.1929 1.70836C16.3805 1.89589 16.6348 2.00125 16.9 2.00125H17.09C17.3553 2.00125 17.6096 1.89589 17.7972 1.70836C17.9847 1.52082 18.09 1.26647 18.09 1.00125C18.09 0.736034 17.9847 0.48168 17.7972 0.294144C17.6096 0.106608 17.3553 0.00125088 17.09 0.00125088V0.00125088ZM21 18.0013C20.8466 18.001 20.6954 18.0388 20.56 18.1113C20.3933 18.193 20.2525 18.3195 20.1536 18.4767C20.0547 18.6339 20.0015 18.8155 20 19.0013C20 19.2665 20.1054 19.5208 20.2929 19.7084C20.4805 19.8959 20.7348 20.0013 21 20.0013C21.275 19.9785 21.5311 19.8523 21.7167 19.6482C21.9023 19.444 22.0035 19.1771 22 18.9013C21.9752 18.6537 21.8589 18.4244 21.674 18.2579C21.4891 18.0915 21.2488 18 21 18.0013ZM21 13.4413C20.7348 13.4413 20.4805 13.5466 20.2929 13.7341C20.1054 13.9217 20 14.176 20 14.4413V14.6613C20 14.9265 20.1054 15.1808 20.2929 15.3684C20.4805 15.5559 20.7348 15.6613 21 15.6613C21.2653 15.6613 21.5196 15.5559 21.7072 15.3684C21.8947 15.1808 22 14.9265 22 14.6613V14.4013C22 14.136 21.8947 13.8817 21.7072 13.6941C21.5196 13.5066 21.2653 13.4013 21 13.4013V13.4413Z" fill="var(--fill-0, #1E1F26)"/>
</svg>
