<svg preserveAspectRatio="none" width="100%" height="100%" overflow="visible" style="display: block;" viewBox="0 0 19.9999 18.7769" fill="none" xmlns="http://www.w3.org/2000/svg">
<path id="Vector" d="M19.7991 14.3758C16.9329 13.9036 15.6482 10.9743 15.5951 10.85L15.5897 10.8382C15.5082 10.7051 15.4569 10.5558 15.4392 10.4008C15.4216 10.2457 15.438 10.0887 15.4874 9.94066C15.68 9.48705 16.3168 9.28496 16.7388 9.15099C16.8441 9.1176 16.9438 9.08599 17.0219 9.05499C17.7847 8.75372 17.9398 8.44183 17.936 8.23309C17.916 8.1029 17.8576 7.98164 17.7683 7.88481C17.679 7.78798 17.5628 7.71998 17.4347 7.68951L17.429 7.68738C17.3157 7.64186 17.1947 7.61869 17.0727 7.61914C16.9651 7.6173 16.8585 7.63846 16.7598 7.68121C16.4619 7.83181 16.1373 7.92224 15.8045 7.94733C15.6127 7.9519 15.4254 7.88919 15.275 7.77008C15.2841 7.60016 15.295 7.42486 15.3068 7.23962L15.3108 7.17432C15.5031 5.82699 15.4211 4.4547 15.0699 3.13983C14.6557 2.19577 13.9727 1.39459 13.1061 0.836283C12.2395 0.277973 11.2276 -0.0127391 10.1968 0.000428285C10.0627 0.00182829 9.92854 0.00308841 9.79437 0.00420841C8.76503 -0.00850667 7.75476 0.28227 6.88968 0.840235C6.0246 1.3982 5.34304 2.19863 4.9301 3.14159C4.57886 4.45529 4.49679 5.82644 4.68883 7.17266C4.70177 7.37181 4.71377 7.57104 4.72483 7.77037C4.55911 7.90022 4.35103 7.96381 4.14103 7.94878C3.78768 7.93366 3.44178 7.84232 3.12703 7.68102C3.04984 7.64691 2.9661 7.6302 2.88173 7.63207C2.70794 7.62523 2.53636 7.6729 2.39101 7.76841C2.24566 7.86392 2.13381 8.00249 2.07112 8.16472C1.98921 8.59533 2.60402 8.90728 2.9778 9.05492C3.0568 9.08629 3.15602 9.11772 3.26088 9.15092C3.68257 9.28477 4.31996 9.48698 4.5124 9.94077C4.56177 10.0888 4.5782 10.2459 4.56054 10.401C4.54288 10.5561 4.49156 10.7054 4.41017 10.8386L4.4048 10.8501C4.12848 11.4518 3.76854 12.0113 3.33565 12.5122C2.5491 13.4906 1.43604 14.1524 0.200819 14.3761C0.142446 14.3858 0.089687 14.4166 0.0526866 14.4628C0.0156861 14.5089 -0.00294379 14.5671 0.000378713 14.6262C0.00300261 14.6709 0.0134969 14.7148 0.0313786 14.7558C0.207159 15.167 1.0896 15.5064 2.5832 15.7368C2.72284 15.7584 2.78193 15.9861 2.86347 16.359C2.89606 16.5083 2.92981 16.6633 2.97687 16.8233C2.99223 16.8942 3.03341 16.9569 3.0924 16.9992C3.15139 17.0414 3.22399 17.0603 3.29609 17.052C3.43922 17.044 3.58139 17.0236 3.72101 16.9911C4.08917 16.9108 4.46457 16.8683 4.84137 16.8643C5.11205 16.865 5.38222 16.8878 5.64917 16.9326C6.21319 17.0756 6.73782 17.3436 7.18417 17.7168C7.93749 18.3601 8.8842 18.7333 9.87387 18.7769C9.90762 18.7769 9.94131 18.7757 9.97396 18.7729C10.0151 18.7748 10.0692 18.7769 10.1259 18.7769C11.1161 18.733 12.0633 18.3597 12.8171 17.7161C13.263 17.3432 13.7871 17.0755 14.3506 16.9328C14.6176 16.888 14.8879 16.8652 15.1586 16.8645C15.5351 16.8662 15.9105 16.906 16.279 16.9832C16.4188 17.0138 16.561 17.0317 16.704 17.0369H16.7274C16.7951 17.0423 16.8624 17.0229 16.9168 16.9822C16.9712 16.9415 17.0089 16.8824 17.0228 16.8159C17.0693 16.658 17.1033 16.5079 17.1367 16.3546C17.2175 15.9836 17.2766 15.757 17.4168 15.7353C18.9108 15.5045 19.7932 15.1656 19.9678 14.7567C19.986 14.7153 19.9967 14.671 19.9995 14.6259C20.0028 14.5668 19.9842 14.5087 19.9472 14.4625C19.9102 14.4164 19.8575 14.3855 19.7991 14.3758V14.3758Z" fill="var(--fill-0, #1E1F26)"/>
</svg>
