<svg preserveAspectRatio="none" width="100%" height="100%" overflow="visible" style="display: block;" viewBox="0 0 20.0011 19" fill="none" xmlns="http://www.w3.org/2000/svg">
<path id="Vector" d="M9.0511 11.83C8.88677 11.7204 8.69365 11.6618 8.4961 11.6618C8.29856 11.6618 8.10543 11.7204 7.9411 11.83C7.8411 11.91 5.5011 13.5 5.5011 16C5.5011 16.7956 5.81717 17.5587 6.37978 18.1213C6.94239 18.6839 7.70545 19 8.5011 19C9.29675 19 10.0598 18.6839 10.6224 18.1213C11.185 17.5587 11.5011 16.7956 11.5011 16C11.5011 13.5 9.1611 11.9 9.0511 11.83ZM8.5011 17C8.23589 17 7.98153 16.8946 7.794 16.7071C7.60646 16.5196 7.5011 16.2652 7.5011 16C7.56425 15.2294 7.92249 14.5129 8.5011 14C9.07972 14.5129 9.43796 15.2294 9.5011 16C9.5011 16.2652 9.39575 16.5196 9.20821 16.7071C9.02067 16.8946 8.76632 17 8.5011 17ZM19.0011 5H18.2011C18.0977 4.55129 17.9221 4.12237 17.6811 3.73L18.2411 3.17C18.4049 2.9787 18.4905 2.73262 18.4808 2.48095C18.4711 2.22927 18.3668 1.99053 18.1887 1.81244C18.0106 1.63434 17.7718 1.53001 17.5202 1.52029C17.2685 1.51057 17.0224 1.59617 16.8311 1.76L16.2711 2.32C15.8787 2.07901 15.4498 1.90339 15.0011 1.8V1C15.0011 0.734784 14.8957 0.48043 14.7082 0.292893C14.5207 0.105357 14.2663 0 14.0011 0C13.7359 0 13.4815 0.105357 13.294 0.292893C13.1065 0.48043 13.0011 0.734784 13.0011 1V1.8C12.555 1.90181 12.1291 2.07758 11.7411 2.32L11.1711 1.76C10.9798 1.59617 10.7337 1.51057 10.4821 1.52029C10.2304 1.53001 9.99164 1.63434 9.81354 1.81244C9.63545 1.99053 9.53111 2.22927 9.52139 2.48095C9.51167 2.73262 9.59728 2.9787 9.7611 3.17L10.3211 3.74C10.2311 3.89 10.1611 4.06 10.0811 4.22C9.56695 4.07486 9.03535 4.00084 8.5011 4C7.05996 3.99918 5.66667 4.5171 4.57598 5.45906C3.48528 6.40102 2.77007 7.70409 2.5611 9.13C1.86474 9.32391 1.2455 9.72868 0.788439 10.2887C0.331382 10.8487 0.0589349 11.5365 0.00852367 12.2576C-0.0418876 12.9787 0.13221 13.6978 0.5069 14.3159C0.881591 14.9341 1.43849 15.4211 2.1011 15.71C2.22854 15.7605 2.36405 15.7876 2.5011 15.79C2.7323 15.7919 2.95701 15.7136 3.13698 15.5685C3.31696 15.4233 3.44109 15.2203 3.48824 14.994C3.5354 14.7676 3.50267 14.532 3.39562 14.327C3.28857 14.1221 3.11382 13.9606 2.9011 13.87C2.6328 13.7557 2.40424 13.5647 2.24412 13.321C2.084 13.0772 1.99945 12.7916 2.0011 12.5C2.0011 12.1022 2.15914 11.7206 2.44044 11.4393C2.72175 11.158 3.10328 11 3.5011 11C3.76632 11 4.02067 10.8946 4.20821 10.7071C4.39575 10.5196 4.5011 10.2652 4.5011 10C4.50539 9.0557 4.84363 8.14336 5.45594 7.42447C6.06826 6.70558 6.91516 6.22651 7.84676 6.07204C8.77835 5.91757 9.73456 6.09767 10.5461 6.58047C11.3577 7.06326 11.9723 7.81761 12.2811 8.71C12.3383 8.88184 12.441 9.03493 12.5784 9.15293C12.7158 9.27093 12.8826 9.34942 13.0611 9.38C13.5256 9.44878 13.9582 9.65688 14.3019 9.97678C14.6456 10.2967 14.8841 10.7133 14.986 11.1717C15.0878 11.63 15.0482 12.1085 14.8724 12.5439C14.6965 12.9792 14.3927 13.351 14.0011 13.61C13.7783 13.7559 13.6226 13.9843 13.5682 14.2449C13.5138 14.5056 13.5652 14.7772 13.7111 15C13.857 15.2228 14.0854 15.3785 14.346 15.4329C14.6067 15.4873 14.8783 15.4359 15.1011 15.29C15.9307 14.7487 16.5479 13.9377 16.8486 12.9938C17.1492 12.05 17.1148 11.0314 16.7511 10.11L16.8811 10.24C17.0674 10.4247 17.3188 10.5289 17.5811 10.53C17.7127 10.5308 17.8432 10.5055 17.965 10.4558C18.0868 10.406 18.1977 10.3327 18.2911 10.24C18.4774 10.0526 18.5819 9.79919 18.5819 9.535C18.5819 9.27081 18.4774 9.01736 18.2911 8.83L17.7311 8.27C17.9546 7.87451 18.1133 7.44573 18.2011 7H19.0011C19.2663 7 19.5207 6.89464 19.7082 6.70711C19.8957 6.51957 20.0011 6.26522 20.0011 6C20.0011 5.73478 19.8957 5.48043 19.7082 5.29289C19.5207 5.10536 19.2663 5 19.0011 5ZM15.6611 7.65C15.4826 7.81573 15.2804 7.95392 15.0611 8.06C14.7366 7.82325 14.3796 7.63464 14.0011 7.5C13.5417 6.49676 12.8195 5.63641 11.9111 5.01C12.0204 4.75349 12.1763 4.51951 12.3711 4.32V4.32C12.8185 3.90532 13.4061 3.67493 14.0161 3.67493C14.6261 3.67493 15.2137 3.90532 15.6611 4.32V4.32C16.09 4.7622 16.3298 5.354 16.3298 5.97C16.3298 6.586 16.09 7.1778 15.6611 7.62V7.65Z" fill="var(--fill-0, #1E1F26)"/>
</svg>
