<svg preserveAspectRatio="none" width="100%" height="100%" overflow="visible" style="display: block;" viewBox="0 0 20 20" fill="none" xmlns="http://www.w3.org/2000/svg">
<path id="Vector" d="M10 0C8.02219 0 6.08879 0.58649 4.4443 1.6853C2.79981 2.78412 1.51809 4.3459 0.761209 6.17317C0.00433283 8.00043 -0.193701 10.0111 0.192152 11.9509C0.578004 13.8907 1.53041 15.6725 2.92894 17.0711C4.32746 18.4696 6.10929 19.422 8.0491 19.8079C9.98891 20.1937 11.9996 19.9957 13.8268 19.2388C15.6541 18.4819 17.2159 17.2002 18.3147 15.5557C19.4135 13.9112 20 11.9778 20 10C20 8.68678 19.7413 7.38642 19.2388 6.17317C18.7363 4.95991 17.9997 3.85752 17.0711 2.92893C16.1425 2.00035 15.0401 1.26375 13.8268 0.761205C12.6136 0.258658 11.3132 0 10 0V0ZM9 17.93C7.07815 17.6741 5.31463 16.7289 4.03736 15.2703C2.76008 13.8117 2.05599 11.9388 2.05599 10C2.05599 8.06118 2.76008 6.18833 4.03736 4.7297C5.31463 3.27107 7.07815 2.32592 9 2.07V17.93ZM11 17.93V2.07C12.9219 2.32592 14.6854 3.27107 15.9627 4.7297C17.2399 6.18833 17.944 8.06118 17.944 10C17.944 11.9388 17.2399 13.8117 15.9627 15.2703C14.6854 16.7289 12.9219 17.6741 11 17.93Z" fill="var(--fill-0, #1E1F26)"/>
</svg>
