<svg preserveAspectRatio="none" width="100%" height="100%" overflow="visible" style="display: block;" viewBox="0 0 19.9934 16.9925" fill="none" xmlns="http://www.w3.org/2000/svg">
<path id="Vector" d="M16.4134 4.20671C15.8024 2.80272 14.7479 1.63779 13.4115 0.890438C12.0751 0.143088 10.5305 -0.145456 9.01439 0.0690207C7.49829 0.283498 6.09434 0.989164 5.01767 2.07789C3.941 3.16661 3.25101 4.57833 3.05342 6.09671C2.21564 6.30076 1.46622 6.77008 0.916867 7.43471C0.367514 8.09933 0.0476384 8.92369 0.00491486 9.78491C-0.0378086 10.6461 0.198908 11.4981 0.679783 12.2138C1.16066 12.9296 1.85994 13.4707 2.67342 13.7567C2.77713 13.7887 2.8849 13.8055 2.99342 13.8067C3.25864 13.8491 3.52985 13.7845 3.74739 13.627C3.96493 13.4694 4.11098 13.2319 4.15342 12.9667C4.19585 12.7015 4.13119 12.4303 3.97366 12.2127C3.81613 11.9952 3.57864 11.8491 3.31342 11.8067C2.93633 11.6706 2.60885 11.4243 2.37347 11.0997C2.1381 10.7752 2.00568 10.3874 1.99342 9.98671C1.99342 9.45628 2.20413 8.94757 2.57921 8.5725C2.95428 8.19743 3.46299 7.98671 3.99342 7.98671C4.25864 7.98671 4.51299 7.88135 4.70053 7.69382C4.88806 7.50628 4.99342 7.25193 4.99342 6.98671C4.99597 5.80399 5.41771 4.66046 6.18369 3.75929C6.94967 2.85813 8.01031 2.25766 9.17717 2.06458C10.344 1.87151 11.5415 2.09832 12.557 2.70472C13.5724 3.31112 14.34 4.25785 14.7234 5.37671C14.7806 5.54855 14.8833 5.70164 15.0207 5.81964C15.1581 5.93765 15.3249 6.01613 15.5034 6.04671C16.1048 6.15555 16.6585 6.44544 17.0906 6.8776C17.5227 7.30975 17.8125 7.86355 17.9212 8.46491C18.03 9.06627 17.9525 9.68649 17.6991 10.2426C17.4457 10.7987 17.0286 11.2642 16.5034 11.5767C16.2727 11.7093 16.1041 11.9282 16.0347 12.1851C15.9653 12.442 16.0008 12.716 16.1334 12.9467C16.266 13.1774 16.4849 13.3461 16.7418 13.4154C16.9987 13.4848 17.2727 13.4493 17.5034 13.3167C18.2616 12.8766 18.8908 12.2449 19.3278 11.4849C19.7649 10.7249 19.9944 9.8634 19.9934 8.98671C19.9904 7.91084 19.6404 6.86465 18.9954 6.00352C18.3505 5.14239 17.445 4.51225 16.4134 4.20671V4.20671ZM9.99342 9.31671C9.43943 9.02966 8.80849 8.92629 8.19187 9.02157C7.57525 9.11685 7.00493 9.40584 6.56342 9.84671C6.0181 10.3956 5.71204 11.138 5.71204 11.9117C5.71204 12.6855 6.0181 13.4278 6.56342 13.9767L9.28342 16.6967C9.37638 16.7904 9.48698 16.8648 9.60884 16.9156C9.7307 16.9664 9.86141 16.9925 9.99342 16.9925C10.1254 16.9925 10.2561 16.9664 10.378 16.9156C10.4999 16.8648 10.6105 16.7904 10.7034 16.6967L13.4234 13.9767C13.9687 13.4278 14.2748 12.6855 14.2748 11.9117C14.2748 11.138 13.9687 10.3956 13.4234 9.84671C12.9819 9.40584 12.4116 9.11685 11.795 9.02157C11.1783 8.92629 10.5474 9.02966 9.99342 9.31671V9.31671ZM11.9934 12.5567L9.99342 14.5567L7.99342 12.5567C7.90611 12.4728 7.83706 12.3717 7.7906 12.2599C7.74415 12.148 7.72127 12.0278 7.72342 11.9067C7.72187 11.7857 7.74501 11.6656 7.79143 11.5539C7.83786 11.4421 7.90659 11.341 7.99342 11.2567C8.16591 11.0845 8.39968 10.9878 8.64342 10.9878C8.88715 10.9878 9.12093 11.0845 9.29342 11.2567C9.38638 11.3504 9.49698 11.4248 9.61884 11.4756C9.7407 11.5264 9.87141 11.5525 10.0034 11.5525C10.1354 11.5525 10.2661 11.5264 10.388 11.4756C10.5099 11.4248 10.6205 11.3504 10.7134 11.2567C10.8884 11.0892 11.1212 10.9958 11.3634 10.9958C11.6056 10.9958 11.8385 11.0892 12.0134 11.2567C12.1003 11.341 12.169 11.4421 12.2154 11.5539C12.2618 11.6656 12.285 11.7857 12.2834 11.9067C12.283 12.0293 12.257 12.1504 12.2071 12.2623C12.1571 12.3743 12.0844 12.4745 11.9934 12.5567V12.5567Z" fill="var(--fill-0, #1E1F26)"/>
</svg>
