<svg preserveAspectRatio="none" width="100%" height="100%" overflow="visible" style="display: block;" viewBox="0 0 22.0341 16.0003" fill="none" xmlns="http://www.w3.org/2000/svg">
<path id="Vector" d="M7.01887 7.0002H15.0189C15.1666 6.99923 15.3122 6.96554 15.4454 6.90157C15.5785 6.83759 15.6958 6.74492 15.7889 6.6302C15.8866 6.51773 15.958 6.38484 15.9978 6.24123C16.0376 6.09763 16.0448 5.94695 16.0189 5.8002L15.0189 0.800204C14.9721 0.570928 14.8464 0.365306 14.6637 0.219131C14.481 0.0729566 14.2528 -0.00451449 14.0189 0.000203439H8.01887C7.78492 -0.00451449 7.55673 0.0729566 7.37401 0.219131C7.19129 0.365306 7.06562 0.570928 7.01887 0.800204L6.01887 5.8002C5.99024 5.94547 5.99423 6.09528 6.03055 6.23881C6.06686 6.38235 6.1346 6.51603 6.22887 6.6302C6.32404 6.74755 6.44457 6.84181 6.58139 6.90589C6.71822 6.96997 6.86779 7.00222 7.01887 7.0002V7.0002ZM8.83887 2.0002H13.1989L13.7989 5.0002H8.23887L8.83887 2.0002ZM21.0189 9.8002C20.9721 9.57093 20.8464 9.36531 20.6637 9.21913C20.481 9.07296 20.2528 8.99549 20.0189 9.0002H14.0189C13.7849 8.99549 13.5567 9.07296 13.374 9.21913C13.1913 9.36531 13.0656 9.57093 13.0189 9.8002L12.0189 14.8002C11.9902 14.9455 11.9942 15.0953 12.0305 15.2388C12.0669 15.3824 12.1346 15.516 12.2289 15.6302C12.324 15.7475 12.4446 15.8418 12.5814 15.9059C12.7182 15.97 12.8678 16.0022 13.0189 16.0002H21.0189C21.1666 15.9992 21.3122 15.9655 21.4454 15.9016C21.5785 15.8376 21.6958 15.7449 21.7889 15.6302C21.8866 15.5177 21.958 15.3848 21.9978 15.2412C22.0376 15.0976 22.0448 14.9469 22.0189 14.8002L21.0189 9.8002ZM14.2389 14.0002L14.8389 11.0002H19.1989L19.7989 14.0002H14.2389ZM8.01887 9.0002H2.01887C1.78492 8.99549 1.55673 9.07296 1.37401 9.21913C1.19129 9.36531 1.06562 9.57093 1.01887 9.8002L0.0188657 14.8002C-0.0097581 14.9455 -0.00576781 15.0953 0.0305485 15.2388C0.0668648 15.3824 0.134601 15.516 0.228866 15.6302C0.324039 15.7475 0.444566 15.8418 0.581393 15.9059C0.71822 15.97 0.867789 16.0022 1.01887 16.0002H9.01887C9.16657 15.9992 9.31223 15.9655 9.44536 15.9016C9.5785 15.8376 9.69581 15.7449 9.78887 15.6302C9.88662 15.5177 9.95801 15.3848 9.9978 15.2412C10.0376 15.0976 10.0448 14.9469 10.0189 14.8002L9.01887 9.8002C8.97211 9.57093 8.84644 9.36531 8.66372 9.21913C8.481 9.07296 8.25281 8.99549 8.01887 9.0002V9.0002ZM2.23887 14.0002L2.83887 11.0002H7.19887L7.79887 14.0002H2.23887Z" fill="var(--fill-0, #1E1F26)"/>
</svg>
