<svg preserveAspectRatio="none" width="100%" height="100%" overflow="visible" style="display: block;" viewBox="0 0 22.0003 21.0006" fill="none" xmlns="http://www.w3.org/2000/svg">
<path id="Vector" d="M20.9602 14.6129C20.3429 14.4692 19.7609 14.2028 19.2487 13.8295C18.7365 13.4562 18.3046 12.9837 17.9788 12.44C17.8301 12.2204 17.6003 12.0688 17.3399 12.0187C17.0795 11.9685 16.8098 12.0238 16.5901 12.1725C16.3705 12.3211 16.2189 12.551 16.1687 12.8114C16.1186 13.0718 16.1739 13.3415 16.3226 13.5611C16.9421 14.5062 17.7623 15.3032 18.7249 15.8951C18.5901 15.9205 18.4436 15.9449 18.2835 15.9703C17.999 16.0308 17.7413 16.1805 17.5477 16.3976C17.3542 16.6147 17.2349 16.8878 17.2073 17.1773C16.5407 17.0637 15.8597 17.0624 15.1927 17.1734C14.4734 17.3322 13.8022 17.6599 13.2347 18.1295C12.6508 18.6472 11.9101 18.954 11.1311 19.0006H10.8704C10.0906 18.9538 9.34907 18.6463 8.76493 18.1276C8.20546 17.6642 7.54472 17.339 6.83622 17.1784C6.1604 17.0704 5.47163 17.0717 4.79622 17.1823C4.76985 16.8941 4.6528 16.6218 4.46188 16.4043C4.27097 16.1869 4.01603 16.0356 3.73372 15.9723C3.57649 15.9478 3.43196 15.9234 3.29915 15.898C3.97888 15.5048 4.58601 14.9978 5.09407 14.399C5.32854 14.1271 5.54081 13.8368 5.72884 13.5309C5.86917 13.3061 5.91451 13.0347 5.8549 12.7765C5.79529 12.5183 5.63561 12.2943 5.41094 12.1538C5.18627 12.0132 4.91499 11.9676 4.65672 12.027C4.39844 12.0863 4.17429 12.2458 4.03352 12.4703C3.90031 12.687 3.75044 12.8931 3.58528 13.0865C2.94619 13.8868 2.03975 14.4295 1.03255 14.6149C0.740219 14.6612 0.474568 14.8118 0.284781 15.039C0.0949929 15.2661 -0.00607683 15.5543 0.000282851 15.8502C-5.31437e-05 16.0341 0.0392522 16.216 0.115523 16.3834C0.430953 17.0992 1.27079 17.5514 2.89969 17.858L2.93095 17.9879C2.95927 18.1061 2.98856 18.2262 3.02274 18.3355C3.09941 18.6134 3.267 18.8575 3.49873 19.0289C3.73047 19.2002 4.01296 19.289 4.30106 19.2809C4.50463 19.2757 4.70687 19.2465 4.9036 19.1939C5.42671 19.0879 5.96412 19.0724 6.49247 19.148C6.90681 19.2707 7.28985 19.4812 7.61552 19.7652C8.53485 20.5242 9.67901 20.9585 10.8704 21.0006H11.1311C12.33 20.9566 13.4807 20.5179 14.4046 19.7526C14.7318 19.4678 15.1185 19.2596 15.5364 19.1433C15.7424 19.107 15.9513 19.0893 16.1604 19.0905C16.4818 19.09 16.8022 19.1257 17.1155 19.197C17.3185 19.2349 17.5243 19.2561 17.7307 19.2604C18.0116 19.268 18.2869 19.1812 18.5126 19.0139C18.7383 18.8466 18.9014 18.6085 18.9758 18.3376C19.0139 18.2155 19.0432 18.0983 19.0706 17.9831L19.1018 17.8591C20.7258 17.5534 21.5686 17.1042 21.8694 16.4187C21.9455 16.2698 21.9888 16.1062 21.9964 15.9392C22.0211 15.6285 21.9284 15.3199 21.7366 15.0743C21.5447 14.8287 21.2677 14.6641 20.9602 14.6129V14.6129ZM2.81083 10.1471C3.01544 10.1858 3.22703 10.16 3.41633 10.0732C3.60563 9.98646 3.76328 9.843 3.86747 9.66269C4.26356 9.86429 4.69795 9.97946 5.14188 10.0006C5.6129 10.0068 6.06748 9.82759 6.40751 9.50158C6.51508 9.40126 6.59921 9.27845 6.6539 9.1419C6.70858 9.00535 6.73249 8.85843 6.72391 8.71158L6.68778 8.11002C6.52398 6.92315 6.57694 5.7164 6.84407 4.54843C7.18154 3.78129 7.73781 3.13074 8.44324 2.67824C9.14867 2.22573 9.97191 1.99137 10.8099 2.00449L11.1976 2.00058C12.0348 1.98941 12.8568 2.22497 13.561 2.67788C14.2652 3.1308 14.8205 3.78103 15.1576 4.54746C15.4247 5.7164 15.4777 6.92409 15.3138 8.11191L15.3041 8.275L15.2767 8.71836C15.2712 8.86277 15.2962 9.00673 15.35 9.14084C15.4038 9.27495 15.4854 9.3962 15.5892 9.49668C15.9258 9.82119 16.3756 10.0016 16.8431 9.99961C17.2771 9.96172 17.6991 9.83754 18.0844 9.63437C18.1624 9.8123 18.2906 9.96365 18.4533 10.07C18.616 10.1763 18.806 10.2329 19.0004 10.233H19.0179C19.2831 10.2283 19.5356 10.1185 19.7199 9.92767C19.9041 9.73684 20.005 9.48065 20.0004 9.21543C19.9744 8.88148 19.8469 8.56346 19.635 8.30406C19.4231 8.04466 19.1369 7.8563 18.8148 7.76425C18.5802 7.6682 18.3289 7.61969 18.0754 7.62153C17.822 7.62338 17.5714 7.67554 17.3382 7.775C17.5135 6.41788 17.3925 5.03891 16.9838 3.733C16.4917 2.60994 15.6794 1.65688 14.6485 0.993017C13.6176 0.329152 12.4139 -0.0160526 11.1879 0.000573503L10.7953 0.00448345C9.57233 -0.010462 8.3721 0.335323 7.34457 0.998631C6.31703 1.66194 5.50775 2.61335 5.01786 3.73398C4.60604 5.05743 4.48609 6.45444 4.6663 7.82871C4.63212 7.81308 4.59501 7.79551 4.55497 7.77695C4.31062 7.67807 4.04842 7.63088 3.78493 7.63836C3.52143 7.64583 3.26233 7.70781 3.02397 7.82038C2.78561 7.93295 2.57316 8.09368 2.4 8.29244C2.22684 8.49119 2.09672 8.72366 2.01786 8.97519C1.96789 9.23572 2.02332 9.50543 2.17199 9.72513C2.32065 9.94483 2.55041 10.0966 2.81083 10.1471Z" fill="var(--fill-0, #1E1F26)"/>
</svg>
