<svg preserveAspectRatio="none" width="100%" height="100%" overflow="visible" style="display: block;" viewBox="0 0 17.81 20" fill="none" xmlns="http://www.w3.org/2000/svg">
<path id="Vector" d="M9.95 10H4.95C4.68478 10 4.43043 10.1054 4.24289 10.2929C4.05536 10.4804 3.95 10.7348 3.95 11C3.95 11.2652 4.05536 11.5196 4.24289 11.7071C4.43043 11.8946 4.68478 12 4.95 12H9.95C10.2152 12 10.4696 11.8946 10.6571 11.7071C10.8446 11.5196 10.95 11.2652 10.95 11C10.95 10.7348 10.8446 10.4804 10.6571 10.2929C10.4696 10.1054 10.2152 10 9.95 10ZM10.95 18H2.95C2.68478 18 2.43043 17.8946 2.24289 17.7071C2.05536 17.5196 1.95 17.2652 1.95 17V3C1.95 2.73478 2.05536 2.48043 2.24289 2.29289C2.43043 2.10536 2.68478 2 2.95 2H7.95V5C7.95 5.79565 8.26607 6.55871 8.82868 7.12132C9.39129 7.68393 10.1544 8 10.95 8H13.95V9C13.95 9.26522 14.0554 9.51957 14.2429 9.70711C14.4304 9.89464 14.6848 10 14.95 10C15.2152 10 15.4696 9.89464 15.6571 9.70711C15.8446 9.51957 15.95 9.26522 15.95 9V7C15.9543 6.98024 15.9543 6.95976 15.95 6.94C15.9415 6.84679 15.9179 6.75559 15.88 6.67V6.58C15.8319 6.47718 15.7678 6.38267 15.69 6.3L9.69 0.3C9.60513 0.220265 9.50699 0.155965 9.4 0.11C9.4 0.11 9.35 0.11 9.32 0.11C9.22145 0.0529776 9.11278 0.0156205 9 0H3C2.20435 0 1.44129 0.316071 0.87868 0.87868C0.316071 1.44129 0 2.20435 0 3V17C0 17.7956 0.316071 18.5587 0.87868 19.1213C1.44129 19.6839 2.20435 20 3 20H11C11.2652 20 11.5196 19.8946 11.7071 19.7071C11.8946 19.5196 12 19.2652 12 19C12 18.7348 11.8946 18.4804 11.7071 18.2929C11.5196 18.1054 11.2652 18 11 18H10.95ZM9.95 3.41L12.53 6H10.95C10.6848 6 10.4304 5.89464 10.2429 5.70711C10.0554 5.51957 9.95 5.26522 9.95 5V3.41ZM15.52 18.29C15.4725 18.247 15.4224 18.2069 15.37 18.17C15.2601 18.0986 15.1381 18.0477 15.01 18.02C14.8493 17.9878 14.6832 17.9956 14.5263 18.0427C14.3694 18.0898 14.2264 18.1747 14.11 18.29C14.0163 18.383 13.9419 18.4936 13.8911 18.6154C13.8403 18.7373 13.8142 18.868 13.8142 19C13.8142 19.132 13.8403 19.2627 13.8911 19.3846C13.9419 19.5064 14.0163 19.617 14.11 19.71C14.2963 19.8947 14.5477 19.9989 14.81 20C14.9746 20.0008 15.1369 19.961 15.2825 19.884C15.428 19.8071 15.5523 19.6954 15.6443 19.5589C15.7363 19.4223 15.7932 19.2652 15.8099 19.1014C15.8266 18.9377 15.8026 18.7723 15.74 18.62C15.6856 18.4985 15.6113 18.3869 15.52 18.29V18.29ZM9.95 14H4.95C4.68478 14 4.43043 14.1054 4.24289 14.2929C4.05536 14.4804 3.95 14.7348 3.95 15C3.95 15.2652 4.05536 15.5196 4.24289 15.7071C4.43043 15.8946 4.68478 16 4.95 16H9.95C10.2152 16 10.4696 15.8946 10.6571 15.7071C10.8446 15.5196 10.95 15.2652 10.95 15C10.95 14.7348 10.8446 14.4804 10.6571 14.2929C10.4696 14.1054 10.2152 14 9.95 14ZM14.81 11C14.2831 10.9997 13.7653 11.1381 13.3089 11.4014C12.8525 11.6648 12.4735 12.0437 12.21 12.5C12.1443 12.6143 12.1018 12.7403 12.0849 12.871C12.0679 13.0017 12.0769 13.1344 12.1113 13.2616C12.1456 13.3888 12.2047 13.508 12.2851 13.6124C12.3656 13.7168 12.4657 13.8043 12.58 13.87C12.6942 13.9357 12.8203 13.9782 12.951 13.9951C13.0817 14.0121 13.2144 14.0031 13.3416 13.9687C13.4688 13.9344 13.588 13.8753 13.6924 13.7949C13.7968 13.7144 13.8843 13.6143 13.95 13.5C14.0379 13.3478 14.1644 13.2214 14.3167 13.1336C14.469 13.0458 14.6417 12.9998 14.8175 13C14.9933 13.0003 15.1659 13.0469 15.318 13.1351C15.47 13.2234 15.5961 13.3501 15.6835 13.5026C15.771 13.6551 15.8167 13.828 15.816 14.0038C15.8153 14.1796 15.7684 14.3521 15.6798 14.5039C15.5912 14.6558 15.4641 14.7816 15.3114 14.8687C15.1587 14.9558 14.9858 15.0011 14.81 15C14.5448 15 14.2904 15.1054 14.1029 15.2929C13.9154 15.4804 13.81 15.7348 13.81 16C13.81 16.2652 13.9154 16.5196 14.1029 16.7071C14.2904 16.8946 14.5448 17 14.81 17C15.6056 17 16.3687 16.6839 16.9313 16.1213C17.4939 15.5587 17.81 14.7956 17.81 14C17.81 13.2044 17.4939 12.4413 16.9313 11.8787C16.3687 11.3161 15.6056 11 14.81 11ZM4.95 8H5.95C6.21522 8 6.46957 7.89464 6.65711 7.70711C6.84464 7.51957 6.95 7.26522 6.95 7C6.95 6.73478 6.84464 6.48043 6.65711 6.29289C6.46957 6.10536 6.21522 6 5.95 6H4.95C4.68478 6 4.43043 6.10536 4.24289 6.29289C4.05536 6.48043 3.95 6.73478 3.95 7C3.95 7.26522 4.05536 7.51957 4.24289 7.70711C4.43043 7.89464 4.68478 8 4.95 8Z" fill="var(--fill-0, #1E1F26)"/>
</svg>
