<svg preserveAspectRatio="none" width="100%" height="100%" overflow="visible" style="display: block;" viewBox="0 0 19.0012 20" fill="none" xmlns="http://www.w3.org/2000/svg">
<path id="Vector" d="M17.0582 11.01C16.7958 10.9789 16.5317 11.053 16.3237 11.216C16.1157 11.379 15.9807 11.6177 15.9482 11.88C15.7338 13.5715 14.9095 15.1267 13.6298 16.2535C12.3502 17.3803 10.7032 18.0013 8.99819 18H3.40819L4.04819 17.37C4.23444 17.1826 4.33898 16.9292 4.33898 16.665C4.33898 16.4008 4.23444 16.1474 4.04819 15.96C3.17228 15.0876 2.54303 13.9988 2.22444 12.8043C1.90585 11.6098 1.90928 10.3522 2.23439 9.15949C2.5595 7.96676 3.19468 6.8814 4.07534 6.01378C4.956 5.14617 6.05073 4.52726 7.24819 4.22C7.50545 4.1537 7.72583 3.98791 7.86086 3.75912C7.99588 3.53032 8.03449 3.25726 7.96819 3C7.90188 2.74274 7.7361 2.52236 7.5073 2.38733C7.27851 2.2523 7.00545 2.2137 6.74819 2.28C5.29519 2.65885 3.96007 3.39522 2.86445 4.42203C1.76883 5.44885 0.947535 6.73347 0.47538 8.15889C0.00322413 9.5843 -0.104785 11.1052 0.161191 12.583C0.427167 14.0609 1.05867 15.4487 1.99819 16.62L0.288186 18.29C0.149429 18.4306 0.0554325 18.6092 0.0180584 18.8032C-0.0193158 18.9972 0.0016069 19.1979 0.0781863 19.38C0.153206 19.5626 0.280604 19.7189 0.444325 19.8293C0.608045 19.9396 0.800761 19.999 0.998186 20H8.99819C11.1912 20 13.3087 19.1993 14.953 17.7483C16.5973 16.2973 17.6553 14.2959 17.9282 12.12C17.9593 11.8576 17.8852 11.5935 17.7222 11.3855C17.5592 11.1775 17.3204 11.0425 17.0582 11.01V11.01ZM16.9982 5C16.5734 5.0014 16.1601 5.13799 15.8182 5.39L14.0682 4.59L15.9982 3.71C16.3001 3.89326 16.6451 3.99332 16.9982 4C17.3937 4 17.7804 3.8827 18.1093 3.66294C18.4382 3.44318 18.6946 3.13082 18.8459 2.76537C18.9973 2.39992 19.0369 1.99778 18.9598 1.60982C18.8826 1.22186 18.6921 0.865492 18.4124 0.585787C18.1327 0.306082 17.7763 0.115601 17.3884 0.0384303C17.0004 -0.0387401 16.5983 0.000866564 16.2328 0.152242C15.8674 0.303617 15.555 0.559962 15.3352 0.88886C15.1155 1.21776 14.9982 1.60444 14.9982 2L13.0982 2.87C12.7761 2.64066 12.3934 2.5119 11.9982 2.5C11.4678 2.5 10.959 2.71071 10.584 3.08579C10.2089 3.46086 9.99819 3.96957 9.99819 4.5C9.99819 5.03043 10.2089 5.53914 10.584 5.91421C10.959 6.28929 11.4678 6.5 11.9982 6.5C12.3231 6.49673 12.6423 6.41435 12.9282 6.26L15.0182 7.26C15.0682 7.64133 15.2271 8.00016 15.4758 8.29349C15.7245 8.58683 16.0526 8.80222 16.4206 8.91387C16.7886 9.02552 17.1811 9.02868 17.5508 8.92299C17.9206 8.8173 18.2521 8.60723 18.5055 8.31795C18.759 8.02867 18.9236 7.67245 18.9798 7.29198C19.0359 6.91151 18.9812 6.52291 18.8221 6.17276C18.663 5.8226 18.4064 5.52574 18.0829 5.31774C17.7594 5.10974 17.3828 4.99942 16.9982 5Z" fill="var(--fill-0, #1E1F26)"/>
</svg>
