<svg preserveAspectRatio="none" width="100%" height="100%" overflow="visible" style="display: block;" viewBox="0 0 18.0116 12.0099" fill="none" xmlns="http://www.w3.org/2000/svg">
<path id="Vector" d="M1.7158 0.294092C1.52749 0.105788 1.2721 0 1.0058 0C0.739497 0 0.484102 0.105788 0.295798 0.294092C0.107495 0.482395 0.0017066 0.73779 0.0017066 1.00409C0.0017066 1.27039 0.107495 1.52579 0.295798 1.71409L4.5958 6.00409L0.295798 10.2941C0.20207 10.3871 0.127676 10.4977 0.0769069 10.6195C0.0261382 10.7414 0 10.8721 0 11.0041C0 11.1361 0.0261382 11.2668 0.0769069 11.3887C0.127676 11.5105 0.20207 11.6211 0.295798 11.7141C0.388761 11.8078 0.499363 11.8822 0.621222 11.933C0.743081 11.9838 0.873786 12.0099 1.0058 12.0099C1.13781 12.0099 1.26852 11.9838 1.39038 11.933C1.51223 11.8822 1.62284 11.8078 1.7158 11.7141L6.7158 6.71409C6.80953 6.62113 6.88392 6.51053 6.93469 6.38867C6.98546 6.26681 7.0116 6.1361 7.0116 6.00409C7.0116 5.87208 6.98546 5.74137 6.93469 5.61951C6.88392 5.49766 6.80953 5.38705 6.7158 5.29409L1.7158 0.294092ZM13.4158 6.00409L17.7158 1.71409C17.9041 1.52579 18.0099 1.27039 18.0099 1.00409C18.0099 0.73779 17.9041 0.482395 17.7158 0.294092C17.5275 0.105788 17.2721 0 17.0058 0C16.7395 0 16.4841 0.105788 16.2958 0.294092L11.2958 5.29409C11.2021 5.38705 11.1277 5.49766 11.0769 5.61951C11.0261 5.74137 11 5.87208 11 6.00409C11 6.1361 11.0261 6.26681 11.0769 6.38867C11.1277 6.51053 11.2021 6.62113 11.2958 6.71409L16.2958 11.7141C16.3888 11.8078 16.4994 11.8822 16.6212 11.933C16.7431 11.9838 16.8738 12.0099 17.0058 12.0099C17.1378 12.0099 17.2685 11.9838 17.3904 11.933C17.5122 11.8822 17.6228 11.8078 17.7158 11.7141C17.8095 11.6211 17.8839 11.5105 17.9347 11.3887C17.9855 11.2668 18.0116 11.1361 18.0116 11.0041C18.0116 10.8721 17.9855 10.7414 17.9347 10.6195C17.8839 10.4977 17.8095 10.3871 17.7158 10.2941L13.4158 6.00409Z" fill="var(--fill-0, #1E1F26)"/>
</svg>
