<svg preserveAspectRatio="none" width="100%" height="100%" overflow="visible" style="display: block;" viewBox="0 0 20.0082 19.0034" fill="none" xmlns="http://www.w3.org/2000/svg">
<path id="Vector" d="M9.58823 14H8.32823L9.18823 12.5C9.26059 12.3862 9.30917 12.2589 9.33106 12.1258C9.35295 11.9927 9.34769 11.8566 9.31561 11.7256C9.28352 11.5946 9.22526 11.4715 9.14435 11.3636C9.06343 11.2557 8.96153 11.1652 8.84476 11.0978C8.728 11.0303 8.59879 10.9871 8.4649 10.9708C8.33102 10.9546 8.19523 10.9655 8.0657 11.0031C7.93617 11.0407 7.81558 11.1041 7.71119 11.1895C7.60679 11.2749 7.52075 11.3805 7.45823 11.5L5.72823 14.5C5.64072 14.6516 5.59452 14.8235 5.59425 14.9985C5.59398 15.1735 5.63966 15.3456 5.72672 15.4974C5.81378 15.6492 5.93916 15.7756 6.09034 15.8638C6.24153 15.952 6.41321 15.9989 6.58823 16H7.85823L7.00823 17.5C6.87563 17.7307 6.84011 18.0047 6.9095 18.2616C6.97889 18.5186 7.1475 18.7374 7.37823 18.87C7.60897 19.0026 7.88294 19.0381 8.13986 18.9687C8.39679 18.8993 8.61563 18.7307 8.74823 18.5L10.4782 15.5C10.566 15.348 10.6122 15.1755 10.6122 15C10.6122 14.8245 10.566 14.652 10.4782 14.5C10.3885 14.3444 10.2585 14.2159 10.1018 14.1279C9.94523 14.0399 9.76781 13.9957 9.58823 14V14ZM19.0082 5H18.2082C18.1048 4.55129 17.9292 4.12237 17.6882 3.73L18.2482 3.17C18.4121 2.9787 18.4977 2.73262 18.4879 2.48095C18.4782 2.22927 18.3739 1.99053 18.1958 1.81244C18.0177 1.63434 17.779 1.53001 17.5273 1.52029C17.2756 1.51057 17.0295 1.59617 16.8382 1.76L16.2782 2.32C15.8859 2.07901 15.4569 1.90339 15.0082 1.8V1C15.0082 0.734784 14.9029 0.48043 14.7153 0.292893C14.5278 0.105357 14.2735 0 14.0082 0C13.743 0 13.4887 0.105357 13.3011 0.292893C13.1136 0.48043 13.0082 0.734784 13.0082 1V1.8C12.5595 1.90339 12.1306 2.07901 11.7382 2.32L11.1782 1.76C10.9869 1.59617 10.7409 1.51057 10.4892 1.52029C10.2375 1.53001 9.99877 1.63434 9.82067 1.81244C9.64258 1.99053 9.53824 2.22927 9.52852 2.48095C9.5188 2.73262 9.60441 2.9787 9.76823 3.17L10.3282 3.74C10.2382 3.89 10.1682 4.06 10.0882 4.22C9.57408 4.07486 9.04248 4.00084 8.50823 4C7.06709 3.99918 5.6738 4.5171 4.58311 5.45906C3.49241 6.40102 2.7772 7.70409 2.56823 9.13C1.85994 9.32396 1.23089 9.7364 0.770601 10.3086C0.310316 10.8808 0.0422626 11.5837 0.00459549 12.3171C-0.0330716 13.0505 0.161568 13.7771 0.560808 14.3934C0.960048 15.0098 1.54354 15.4845 2.22823 15.75C2.35249 15.809 2.48759 15.8418 2.62509 15.8463C2.76259 15.8507 2.89953 15.8267 3.02734 15.7758C3.15515 15.7249 3.27109 15.6482 3.36789 15.5505C3.4647 15.4527 3.5403 15.3361 3.58996 15.2078C3.63963 15.0795 3.66228 14.9423 3.65652 14.8049C3.65075 14.6674 3.61669 14.5326 3.55645 14.4089C3.49622 14.2853 3.41112 14.1753 3.30646 14.086C3.20181 13.9967 3.07986 13.93 2.94823 13.89C2.62607 13.7593 2.35931 13.5208 2.19354 13.2152C2.02778 12.9096 1.9733 12.5559 2.03944 12.2146C2.10558 11.8733 2.28821 11.5656 2.55612 11.3441C2.82403 11.1225 3.16058 11.0009 3.50823 11C3.77345 11 4.0278 10.8946 4.21534 10.7071C4.40288 10.5196 4.50823 10.2652 4.50823 10C4.51252 9.0557 4.85076 8.14336 5.46307 7.42447C6.07539 6.70558 6.92229 6.22651 7.85389 6.07204C8.78548 5.91757 9.74169 6.09767 10.5533 6.58047C11.3648 7.06326 11.9794 7.81761 12.2882 8.71C12.3454 8.88184 12.4481 9.03493 12.5855 9.15293C12.7229 9.27093 12.8897 9.34942 13.0682 9.38C13.5856 9.47161 14.0569 9.73542 14.4055 10.1286C14.7541 10.5218 14.9595 11.0213 14.9885 11.5459C15.0174 12.0706 14.8682 12.5896 14.565 13.0188C14.2618 13.4479 13.8224 13.762 13.3182 13.91C13.053 13.9458 12.8129 14.0855 12.6507 14.2984C12.4884 14.5112 12.4174 14.7798 12.4532 15.045C12.489 15.3102 12.6287 15.5503 12.8416 15.7126C13.0544 15.8748 13.323 15.9458 13.5882 15.91C13.6776 15.9246 13.7688 15.9246 13.8582 15.91C14.4388 15.7488 14.979 15.4674 15.4439 15.0839C15.9087 14.7005 16.2878 14.2237 16.5565 13.6844C16.8252 13.1451 16.9776 12.5553 17.0037 11.9533C17.0299 11.3513 16.9292 10.7506 16.7082 10.19L16.8382 10.32C17.0245 10.5047 17.2759 10.6089 17.5382 10.61C17.6698 10.6108 17.8003 10.5855 17.9221 10.5358C18.044 10.486 18.1548 10.4127 18.2482 10.32C18.4345 10.1326 18.539 9.87919 18.539 9.615C18.539 9.35081 18.4345 9.09736 18.2482 8.91L17.6882 8.35C17.9374 7.93303 18.1133 7.47641 18.2082 7H19.0082C19.2735 7 19.5278 6.89464 19.7153 6.70711C19.9029 6.51957 20.0082 6.26522 20.0082 6C20.0082 5.73478 19.9029 5.48043 19.7153 5.29289C19.5278 5.10536 19.2735 5 19.0082 5ZM15.6682 7.65C15.4914 7.81787 15.2889 7.95629 15.0682 8.06C14.7437 7.82325 14.3867 7.63464 14.0082 7.5C13.5488 6.49676 12.8266 5.63641 11.9182 5.01C12.0297 4.7517 12.1854 4.51482 12.3782 4.31V4.31C12.8273 3.89464 13.4165 3.66393 14.0282 3.66393C14.6399 3.66393 15.2292 3.89464 15.6782 4.31V4.31C16.1071 4.7522 16.3469 5.344 16.3469 5.96C16.3469 6.576 16.1071 7.1678 15.6782 7.61L15.6682 7.65Z" fill="var(--fill-0, #1E1F26)"/>
</svg>
