<svg preserveAspectRatio="none" width="100%" height="100%" overflow="visible" style="display: block;" viewBox="0 0 13.4951 22.0036" fill="none" xmlns="http://www.w3.org/2000/svg">
<path id="Vector" d="M13.4424 19.5078L12.4805 16.6543C12.4352 16.5203 12.362 16.3974 12.2658 16.2937C12.1695 16.19 12.0524 16.1079 11.9221 16.0528C11.7918 15.9977 11.6513 15.9709 11.5098 15.9741C11.3684 15.9773 11.2292 16.0104 11.1016 16.0713C10.715 16.2203 10.3065 16.3044 9.89256 16.3203C9.65993 16.3498 9.4247 16.2909 9.23338 16.1553C9.05868 15.9238 8.97369 15.637 8.99412 15.3477V11H12.0108C12.1421 11.0001 12.2722 10.9743 12.3936 10.924C12.5149 10.8738 12.6252 10.8002 12.7181 10.7073C12.8109 10.6144 12.8846 10.5041 12.9348 10.3828C12.9851 10.2614 13.0109 10.1313 13.0108 10V6.09473C13.0109 5.96339 12.9851 5.83332 12.9348 5.71196C12.8846 5.5906 12.8109 5.48033 12.7181 5.38745C12.6252 5.29458 12.5149 5.22092 12.3936 5.1707C12.2722 5.12047 12.1421 5.09465 12.0108 5.09473H9.00879V1C9.00887 0.868657 8.98305 0.738587 8.93283 0.617227C8.8826 0.495867 8.80894 0.385597 8.71607 0.292723C8.62319 0.19985 8.51292 0.126193 8.39156 0.0759653C8.2702 0.0257376 8.14013 -7.60771e-05 8.00879 1.68411e-07H5.0791C4.79423 0.00130889 4.52003 0.108479 4.30977 0.300682C4.09951 0.492886 3.96822 0.756395 3.94141 1.04C3.90149 2.03756 3.56928 3.0014 2.98608 3.8117C2.40288 4.62201 1.5944 5.24306 0.66113 5.59765C0.467517 5.66727 0.300114 5.79495 0.181786 5.96327C0.063457 6.13159 -2.82587e-05 6.33233 1.62651e-07 6.53808V10.1221C-7.47669e-05 10.2534 0.0257398 10.3835 0.075968 10.5049C0.126196 10.6262 0.199853 10.7365 0.292726 10.8294C0.3856 10.9222 0.495869 10.9959 0.617228 11.0461C0.738588 11.0963 0.868657 11.1222 1 11.1221H2.02441V15.6572C2.04123 17.3398 2.71887 18.9484 3.91113 20.1357C4.57623 20.7594 5.35827 21.2451 6.2121 21.5649C7.06593 21.8847 7.97464 22.0323 8.88579 21.999C8.9395 21.999 8.99419 21.999 9.04888 21.998C10.5948 21.9726 12.667 21.3505 13.3213 20.3906C13.4085 20.2629 13.4648 20.1166 13.4858 19.9635C13.5068 19.8103 13.4919 19.6543 13.4424 19.5078ZM9.01563 19.998C8.34297 20.0515 7.66654 19.9647 7.02924 19.7429C6.39193 19.5212 5.80766 19.1694 5.31348 18.71C4.49966 17.9011 4.03663 16.8046 4.02441 15.6572V10.1221C4.02449 9.99073 3.99867 9.86066 3.94845 9.7393C3.89822 9.61794 3.82456 9.50767 3.73169 9.41479C3.63881 9.32192 3.52854 9.24826 3.40718 9.19804C3.28582 9.14781 3.15575 9.12199 3.02441 9.12207H2V7.20507C3.0098 6.71074 3.8847 5.97896 4.54972 5.07242C5.21474 4.16589 5.65005 3.11163 5.81836 2H7.00879V6.09473C7.00872 6.22607 7.03453 6.35614 7.08476 6.4775C7.13499 6.59886 7.20864 6.70913 7.30152 6.802C7.39439 6.89488 7.50466 6.96853 7.62602 7.01876C7.74738 7.06899 7.87745 7.09481 8.00879 7.09473H11.0108V9H7.99419C7.86285 8.99992 7.73278 9.02574 7.61142 9.07597C7.49006 9.12619 7.37979 9.19985 7.28691 9.29272C7.19404 9.3856 7.12038 9.49587 7.07016 9.61723C7.01993 9.73859 6.99411 9.86866 6.99419 10V15.3643C6.98035 15.7752 7.04901 16.1847 7.19611 16.5686C7.34321 16.9526 7.56577 17.3031 7.85064 17.5996C8.13144 17.8577 8.46255 18.0549 8.82319 18.1789C9.18383 18.3029 9.56621 18.3511 9.94634 18.3203C10.2646 18.3081 10.5814 18.2703 10.8936 18.207L11.3184 19.4658C10.5945 19.7965 9.81123 19.9775 9.01563 19.998V19.998Z" fill="var(--fill-0, #1E1F26)"/>
</svg>
