<svg preserveAspectRatio="none" width="100%" height="100%" overflow="visible" style="display: block;" viewBox="0 0 20.009 14.0008" fill="none" xmlns="http://www.w3.org/2000/svg">
<path id="Vector" d="M18.0045 8.17079V8.00079C18.0055 6.93081 17.7918 5.87151 17.3761 4.88557C16.9604 3.89963 16.3512 3.0071 15.5845 2.26079C14.6894 1.38977 13.5991 0.745212 12.4045 0.380789H12.3545C11.5169 0.116921 10.6425 -0.0113637 9.76448 0.000789134C7.67287 0.115593 5.70425 1.02556 4.26164 2.54439C2.81902 4.06323 2.01153 6.07605 2.00448 8.17079C1.33614 8.40589 0.772583 8.86994 0.413609 9.48074C0.0546347 10.0915 -0.076586 10.8097 0.0431878 11.508C0.162961 12.2062 0.526 12.8396 1.068 13.2959C1.61001 13.7521 2.296 14.0018 3.00448 14.0008H17.0045C17.713 14.0018 18.3989 13.7521 18.9409 13.2959C19.483 12.8396 19.846 12.2062 19.9658 11.508C20.0855 10.8097 19.9543 10.0915 19.5953 9.48074C19.2364 8.86994 18.6728 8.40589 18.0045 8.17079V8.17079ZM17.0045 12.0008H3.00448C2.73926 12.0008 2.48491 11.8954 2.29737 11.7079C2.10983 11.5204 2.00448 11.266 2.00448 11.0008C2.00448 10.7356 2.10983 10.4812 2.29737 10.2937C2.48491 10.1061 2.73926 10.0008 3.00448 10.0008H5.00448C5.26969 10.0008 5.52405 9.89543 5.71158 9.7079C5.89912 9.52036 6.00448 9.26601 6.00448 9.00079C6.00448 8.73557 5.89912 8.48122 5.71158 8.29368C5.52405 8.10615 5.26969 8.00079 5.00448 8.00079H4.00448C4.05008 6.96359 4.34694 5.953 4.86952 5.05591C5.39209 4.15882 6.12475 3.40209 7.00448 2.85079V6.00079C7.00448 6.26601 7.10983 6.52036 7.29737 6.7079C7.48491 6.89543 7.73926 7.00079 8.00448 7.00079C8.26969 7.00079 8.52405 6.89543 8.71158 6.7079C8.89912 6.52036 9.00448 6.26601 9.00448 6.00079V2.09079C9.27591 2.04544 9.54967 2.01539 9.82448 2.00079H10.0045C10.3401 2.00387 10.6748 2.03734 11.0045 2.10079V6.00079C11.0045 6.26601 11.1098 6.52036 11.2974 6.7079C11.4849 6.89543 11.7393 7.00079 12.0045 7.00079C12.2697 7.00079 12.524 6.89543 12.7116 6.7079C12.8991 6.52036 13.0045 6.26601 13.0045 6.00079V2.82079C13.4287 3.06641 13.8244 3.35819 14.1845 3.69079C14.761 4.25069 15.2192 4.92071 15.5319 5.66109C15.8445 6.40147 16.0052 7.19711 16.0045 8.00079H15.0045C14.7393 8.00079 14.4849 8.10615 14.2974 8.29368C14.1098 8.48122 14.0045 8.73557 14.0045 9.00079C14.0045 9.26601 14.1098 9.52036 14.2974 9.7079C14.4849 9.89543 14.7393 10.0008 15.0045 10.0008H17.0045C17.2697 10.0008 17.524 10.1061 17.7116 10.2937C17.8991 10.4812 18.0045 10.7356 18.0045 11.0008C18.0045 11.266 17.8991 11.5204 17.7116 11.7079C17.524 11.8954 17.2697 12.0008 17.0045 12.0008Z" fill="var(--fill-0, #1E1F26)"/>
</svg>
