<svg preserveAspectRatio="none" width="100%" height="100%" overflow="visible" style="display: block;" viewBox="0 0 20 19" fill="none" xmlns="http://www.w3.org/2000/svg">
<path id="Vector" d="M14.77 2.87C14.9996 3.00037 15.2715 3.03464 15.5263 2.96532C15.7811 2.896 15.9981 2.72873 16.13 2.5C16.2181 2.34739 16.345 2.22078 16.4977 2.13298C16.6505 2.04517 16.8238 1.9993 17 2C17.2652 2 17.5196 2.10536 17.7071 2.29289C17.8946 2.48043 18 2.73478 18 3C18 3.26522 17.8946 3.51957 17.7071 3.70711C17.5196 3.89464 17.2652 4 17 4C16.7348 4 16.4804 4.10536 16.2929 4.29289C16.1054 4.48043 16 4.73478 16 5C16 5.26522 16.1054 5.51957 16.2929 5.70711C16.4804 5.89464 16.7348 6 17 6C17.5265 5.99966 18.0437 5.86075 18.4995 5.59723C18.9554 5.33371 19.3338 4.95486 19.5969 4.49875C19.8599 4.04264 19.9983 3.52533 19.9981 2.9988C19.9979 2.47227 19.8591 1.95507 19.5957 1.49917C19.3323 1.04326 18.9535 0.664718 18.4975 0.401563C18.0414 0.138409 17.5241 -8.42941e-05 16.9976 3.84915e-08C16.4711 8.43711e-05 15.9538 0.138743 15.4979 0.402044C15.0419 0.665344 14.6633 1.04401 14.4 1.5C14.3339 1.61413 14.291 1.74022 14.2738 1.871C14.2566 2.00178 14.2655 2.13466 14.2999 2.262C14.3343 2.38934 14.3935 2.50862 14.4742 2.61297C14.5549 2.71732 14.6554 2.80467 14.77 2.87V2.87ZM19 11C18.7348 11 18.4804 11.1054 18.2929 11.2929C18.1054 11.4804 18 11.7348 18 12V16C18 16.2652 17.8946 16.5196 17.7071 16.7071C17.5196 16.8946 17.2652 17 17 17H3C2.73478 17 2.48043 16.8946 2.29289 16.7071C2.10536 16.5196 2 16.2652 2 16V6.41L7.88 12.3C8.4425 12.8618 9.205 13.1774 10 13.1774C10.795 13.1774 11.5575 12.8618 12.12 12.3L13.76 10.66C13.8532 10.5668 13.9272 10.4561 13.9777 10.3342C14.0281 10.2124 14.0541 10.0819 14.0541 9.95C14.0541 9.81814 14.0281 9.68757 13.9777 9.56575C13.9272 9.44393 13.8532 9.33324 13.76 9.24C13.6668 9.14676 13.5561 9.0728 13.4342 9.02234C13.3124 8.97188 13.1819 8.94591 13.05 8.94591C12.9181 8.94591 12.7876 8.97188 12.6658 9.02234C12.5439 9.0728 12.4332 9.14676 12.34 9.24L10.7 10.88C10.5131 11.0632 10.2618 11.1659 10 11.1659C9.73825 11.1659 9.48693 11.0632 9.3 10.88L3.41 5H11C11.2652 5 11.5196 4.89464 11.7071 4.70711C11.8946 4.51957 12 4.26522 12 4C12 3.73478 11.8946 3.48043 11.7071 3.29289C11.5196 3.10536 11.2652 3 11 3H3C2.20435 3 1.44129 3.31607 0.87868 3.87868C0.316071 4.44129 0 5.20435 0 6V16C0 16.7956 0.316071 17.5587 0.87868 18.1213C1.44129 18.6839 2.20435 19 3 19H17C17.7956 19 18.5587 18.6839 19.1213 18.1213C19.6839 17.5587 20 16.7956 20 16V12C20 11.7348 19.8946 11.4804 19.7071 11.2929C19.5196 11.1054 19.2652 11 19 11ZM16.29 7.29C16.1963 7.38296 16.1219 7.49356 16.0711 7.61542C16.0203 7.73728 15.9942 7.86799 15.9942 8C15.9942 8.13201 16.0203 8.26272 16.0711 8.38458C16.1219 8.50644 16.1963 8.61704 16.29 8.71L16.44 8.83C16.4957 8.86785 16.5563 8.89811 16.62 8.92C16.6767 8.94883 16.7374 8.96905 16.8 8.98H17C17.1986 8.98115 17.3931 8.92313 17.5586 8.81333C17.7241 8.70353 17.8532 8.54692 17.9294 8.36348C18.0055 8.18004 18.0254 7.97807 17.9863 7.78332C17.9472 7.58857 17.851 7.40987 17.71 7.27C17.6157 7.17757 17.5041 7.10472 17.3815 7.05566C17.2589 7.0066 17.1278 6.9823 16.9958 6.98416C16.8638 6.98602 16.7335 7.014 16.6123 7.06649C16.4912 7.11899 16.3816 7.19495 16.29 7.29Z" fill="var(--fill-0, #1E1F26)"/>
</svg>
