<svg preserveAspectRatio="none" width="100%" height="100%" overflow="visible" style="display: block;" viewBox="0 0 20 19.9842" fill="none" xmlns="http://www.w3.org/2000/svg">
<path id="Vector" d="M2.5 7.98416H8C8.70003 7.98252 9.37745 7.73613 9.91495 7.28765C10.4525 6.83917 10.8162 6.21684 10.9432 5.52843C11.0702 4.84001 10.9525 4.12886 10.6104 3.51811C10.2683 2.90736 9.72336 2.43547 9.07 2.18416C8.69402 1.44619 8.09823 0.843132 7.36489 0.458221C6.63154 0.0733097 5.79679 -0.0744709 4.97587 0.0352778C4.15495 0.145026 3.38834 0.506892 2.78186 1.07093C2.17537 1.63496 1.75893 2.37334 1.59 3.18416C1.06481 3.40731 0.63176 3.80341 0.362787 4.30668C0.0938149 4.80995 0.00510625 5.39009 0.111396 5.95074C0.217685 6.51138 0.512576 7.0188 0.947086 7.3887C1.3816 7.7586 1.92957 7.96872 2.5 7.98416V7.98416ZM2.5 4.98416C2.76522 4.98416 3.01957 4.8788 3.20711 4.69126C3.39464 4.50373 3.5 4.24937 3.5 3.98416C3.5033 3.51243 3.67324 3.05705 3.9798 2.69849C4.28635 2.33993 4.70978 2.10127 5.17527 2.02469C5.64075 1.9481 6.11832 2.03852 6.52359 2.27997C6.92886 2.52142 7.23574 2.89835 7.39 3.34416C7.44866 3.51413 7.55207 3.66515 7.68934 3.7813C7.82661 3.89745 7.99266 3.97444 8.17 4.00416C8.40139 4.04407 8.61135 4.16413 8.76311 4.34331C8.91486 4.52249 8.99872 4.74935 9 4.98416C9 5.24937 8.89464 5.50373 8.70711 5.69126C8.51957 5.8788 8.26522 5.98416 8 5.98416H2.5C2.36739 5.98416 2.24021 5.93148 2.14645 5.83771C2.05268 5.74394 2 5.61676 2 5.48416C2 5.35155 2.05268 5.22437 2.14645 5.1306C2.24021 5.03684 2.36739 4.98416 2.5 4.98416V4.98416ZM19 13.9842H18V6.98416C18 6.18851 17.6839 5.42545 17.1213 4.86284C16.5587 4.30023 15.7956 3.98416 15 3.98416H14C13.7348 3.98416 13.4804 4.08951 13.2929 4.27705C13.1054 4.46459 13 4.71894 13 4.98416C13 5.24937 13.1054 5.50373 13.2929 5.69126C13.4804 5.8788 13.7348 5.98416 14 5.98416H15C15.2652 5.98416 15.5196 6.08951 15.7071 6.27705C15.8946 6.46459 16 6.71894 16 6.98416V13.9842H4V10.9842C4 10.7189 3.89464 10.4646 3.70711 10.2771C3.51957 10.0895 3.26522 9.98416 3 9.98416C2.73478 9.98416 2.48043 10.0895 2.29289 10.2771C2.10536 10.4646 2 10.7189 2 10.9842V13.9842H1C0.734784 13.9842 0.48043 14.0895 0.292893 14.277C0.105357 14.4646 0 14.7189 0 14.9842V16.9842C0 17.7798 0.316071 18.5429 0.87868 19.1055C1.44129 19.6681 2.20435 19.9842 3 19.9842H17C17.7956 19.9842 18.5587 19.6681 19.1213 19.1055C19.6839 18.5429 20 17.7798 20 16.9842V14.9842C20 14.7189 19.8946 14.4646 19.7071 14.277C19.5196 14.0895 19.2652 13.9842 19 13.9842ZM18 16.9842C18 17.2494 17.8946 17.5037 17.7071 17.6913C17.5196 17.8788 17.2652 17.9842 17 17.9842H3C2.73478 17.9842 2.48043 17.8788 2.29289 17.6913C2.10536 17.5037 2 17.2494 2 16.9842V15.9842H18V16.9842Z" fill="var(--fill-0, #1E1F26)"/>
</svg>
