<svg preserveAspectRatio="none" width="100%" height="100%" overflow="visible" style="display: block;" viewBox="0 0 20 20" fill="none" xmlns="http://www.w3.org/2000/svg">
<path id="Vector" d="M7.21 8.54C7.39737 8.72625 7.65082 8.83079 7.915 8.83079C8.17919 8.83079 8.43264 8.72625 8.62 8.54C8.80626 8.35264 8.9108 8.09919 8.9108 7.835C8.9108 7.57081 8.80626 7.31736 8.62 7.13C8.04773 6.58699 7.2889 6.28428 6.5 6.28428C5.71111 6.28428 4.95228 6.58699 4.38 7.13C4.27532 7.21965 4.1903 7.32997 4.13028 7.45403C4.07026 7.57809 4.03653 7.71323 4.03121 7.85095C4.02589 7.98867 4.04909 8.126 4.09937 8.25432C4.14964 8.38265 4.2259 8.4992 4.32335 8.59665C4.42081 8.6941 4.53736 8.77036 4.66568 8.82064C4.79401 8.87091 4.93134 8.89412 5.06906 8.8888C5.20678 8.88348 5.34191 8.84975 5.46597 8.78973C5.59004 8.7297 5.70036 8.64468 5.79 8.54C5.88297 8.44627 5.99357 8.37188 6.11543 8.32111C6.23729 8.27034 6.36799 8.2442 6.5 8.2442C6.63202 8.2442 6.76272 8.27034 6.88458 8.32111C7.00644 8.37188 7.11704 8.44627 7.21 8.54V8.54ZM10 0C8.02219 0 6.08879 0.58649 4.4443 1.6853C2.79981 2.78412 1.51809 4.3459 0.761209 6.17317C0.00433283 8.00043 -0.193701 10.0111 0.192152 11.9509C0.578004 13.8907 1.53041 15.6725 2.92894 17.0711C4.32746 18.4696 6.10929 19.422 8.0491 19.8079C9.98891 20.1937 11.9996 19.9957 13.8268 19.2388C15.6541 18.4819 17.2159 17.2002 18.3147 15.5557C19.4135 13.9112 20 11.9778 20 10C20 8.68678 19.7413 7.38642 19.2388 6.17317C18.7363 4.95991 17.9997 3.85752 17.0711 2.92893C16.1425 2.00035 15.0401 1.26375 13.8268 0.761205C12.6136 0.258658 11.3132 0 10 0V0ZM10 18C8.41775 18 6.87104 17.5308 5.55544 16.6518C4.23985 15.7727 3.21447 14.5233 2.60897 13.0615C2.00347 11.5997 1.84504 9.99113 2.15372 8.43928C2.4624 6.88743 3.22433 5.46197 4.34315 4.34315C5.46197 3.22433 6.88743 2.4624 8.43928 2.15372C9.99113 1.84504 11.5997 2.00346 13.0615 2.60896C14.5233 3.21447 15.7727 4.23984 16.6518 5.55544C17.5308 6.87103 18 8.41775 18 10C18 12.1217 17.1572 14.1566 15.6569 15.6569C14.1566 17.1571 12.1217 18 10 18V18ZM13 7C12.8022 7 12.6089 7.05865 12.4444 7.16853C12.28 7.27841 12.1518 7.43459 12.0761 7.61732C12.0004 7.80004 11.9806 8.00111 12.0192 8.19509C12.0578 8.38907 12.153 8.56725 12.2929 8.70711C12.4328 8.84696 12.6109 8.9422 12.8049 8.98079C12.9989 9.01937 13.2 8.99957 13.3827 8.92388C13.5654 8.84819 13.7216 8.72002 13.8315 8.55557C13.9414 8.39112 14 8.19778 14 8C14 7.73478 13.8946 7.48043 13.7071 7.29289C13.5196 7.10536 13.2652 7 13 7ZM13 11H7C6.73479 11 6.48043 11.1054 6.2929 11.2929C6.10536 11.4804 6 11.7348 6 12C6 12.2652 6.10536 12.5196 6.2929 12.7071C6.48043 12.8946 6.73479 13 7 13C7 13.7956 7.31607 14.5587 7.87868 15.1213C8.44129 15.6839 9.20436 16 10 16C10.7957 16 11.5587 15.6839 12.1213 15.1213C12.6839 14.5587 13 13.7956 13 13C13.2652 13 13.5196 12.8946 13.7071 12.7071C13.8946 12.5196 14 12.2652 14 12C14 11.7348 13.8946 11.4804 13.7071 11.2929C13.5196 11.1054 13.2652 11 13 11ZM10 14C9.73479 14 9.48043 13.8946 9.2929 13.7071C9.10536 13.5196 9 13.2652 9 13H11C11 13.2652 10.8946 13.5196 10.7071 13.7071C10.5196 13.8946 10.2652 14 10 14Z" fill="var(--fill-0, #1E1F26)"/>
</svg>
