<svg preserveAspectRatio="none" width="100%" height="100%" overflow="visible" style="display: block;" viewBox="0 0 20.0077 19.8895" fill="none" xmlns="http://www.w3.org/2000/svg">
<path id="Vector" d="M13.5682 6.97954C13.6927 7.02695 13.8249 7.05069 13.9582 7.04954H17.9582C18.2234 7.04954 18.4777 6.94419 18.6653 6.75665C18.8528 6.56911 18.9582 6.31476 18.9582 6.04954C18.9582 5.78433 18.8528 5.52997 18.6653 5.34244C18.4777 5.1549 18.2234 5.04954 17.9582 5.04954H16.3682L19.6582 1.75954C19.7628 1.6699 19.8479 1.55958 19.9079 1.43551C19.9679 1.31145 20.0016 1.17632 20.007 1.0386C20.0123 0.900878 19.9891 0.763546 19.9388 0.635221C19.8885 0.506896 19.8123 0.390348 19.7148 0.292893C19.6174 0.195439 19.5008 0.119181 19.3725 0.068906C19.2442 0.0186314 19.1068 -0.00457431 18.9691 0.000745185C18.8314 0.00606468 18.6963 0.0397946 18.5722 0.0998179C18.4481 0.159841 18.3378 0.244862 18.2482 0.349543L14.9582 3.62954V2.03954C14.9582 1.77433 14.8528 1.51997 14.6653 1.33244C14.4777 1.1449 14.2234 1.03954 13.9582 1.03954C13.693 1.03954 13.4386 1.1449 13.2511 1.33244C13.0635 1.51997 12.9582 1.77433 12.9582 2.03954V6.03954C12.957 6.17277 12.9808 6.30504 13.0282 6.42954C13.0773 6.55238 13.1504 6.66425 13.243 6.75866C13.3357 6.85307 13.4462 6.92815 13.5682 6.97954V6.97954ZM17.4582 10.9795C17.2382 10.9795 17.0082 10.9095 16.7882 10.8595C16.3427 10.7614 15.9048 10.631 15.4782 10.4695C15.0143 10.3008 14.5043 10.3095 14.0465 10.4942C13.5886 10.6788 13.2153 11.0262 12.9982 11.4695L12.7782 11.9195C11.8042 11.3777 10.9092 10.7048 10.1182 9.91954C9.33294 9.12856 8.65999 8.23354 8.11817 7.25954L8.53817 6.97954C8.98153 6.76246 9.32895 6.38907 9.51356 5.93123C9.69817 5.4734 9.70694 4.96346 9.53817 4.49954C9.37939 4.07197 9.2491 3.63434 9.14817 3.18954C9.09817 2.96954 9.05817 2.73954 9.02817 2.50954C8.90673 1.80516 8.53779 1.16729 7.98779 0.710783C7.43779 0.25428 6.74286 0.00915239 6.02817 0.0195435H3.02817C2.5972 0.015497 2.17042 0.104357 1.77688 0.280074C1.38334 0.455791 1.03228 0.71424 0.747598 1.03783C0.462918 1.36141 0.251302 1.74254 0.127155 2.15526C0.0030087 2.56798 -0.0307535 3.0026 0.0281672 3.42954C0.560905 7.61893 2.4742 11.5114 5.46582 14.4922C8.45744 17.4729 12.3569 19.3721 16.5482 19.8895H16.9282C17.6656 19.8906 18.3776 19.6201 18.9282 19.1295C19.2445 18.8466 19.4973 18.4997 19.6696 18.1119C19.842 17.724 19.9301 17.304 19.9282 16.8795V13.8795C19.9159 13.1849 19.663 12.5161 19.2125 11.9872C18.762 11.4583 18.142 11.1022 17.4582 10.9795V10.9795ZM17.9582 16.9795C17.958 17.1215 17.9276 17.2618 17.8689 17.3912C17.8103 17.5205 17.7248 17.6358 17.6182 17.7295C17.5064 17.826 17.3758 17.8981 17.2346 17.9411C17.0934 17.9842 16.9447 17.9973 16.7982 17.9795C13.0531 17.4993 9.5744 15.786 6.91088 13.1098C4.24736 10.4336 2.55058 6.94688 2.08817 3.19954C2.07225 3.05306 2.0862 2.90487 2.12917 2.76393C2.17214 2.623 2.24324 2.49223 2.33817 2.37954C2.43188 2.27288 2.54723 2.18738 2.67655 2.12876C2.80586 2.07014 2.94618 2.03972 3.08817 2.03954H6.08817C6.32071 2.03437 6.54779 2.11042 6.73031 2.25461C6.91283 2.39881 7.03938 2.60211 7.08817 2.82954C7.12817 3.10288 7.17817 3.37288 7.23817 3.63954C7.35369 4.16669 7.50743 4.68472 7.69817 5.18954L6.29817 5.83954C6.17846 5.89446 6.07079 5.97249 5.98132 6.06914C5.89186 6.16579 5.82237 6.27916 5.77684 6.40274C5.73131 6.52632 5.71064 6.65767 5.71601 6.78927C5.72139 6.92086 5.75271 7.05009 5.80817 7.16954C7.24737 10.2523 9.72541 12.7303 12.8082 14.1695C13.0516 14.2696 13.3247 14.2696 13.5682 14.1695C13.6929 14.1249 13.8075 14.056 13.9053 13.9667C14.0032 13.8775 14.0823 13.7696 14.1382 13.6495L14.7582 12.2495C15.2751 12.4344 15.8028 12.588 16.3382 12.7095C16.6048 12.7695 16.8748 12.8195 17.1482 12.8595C17.3756 12.9083 17.5789 13.0349 17.7231 13.2174C17.8673 13.3999 17.9433 13.627 17.9382 13.8595L17.9582 16.9795Z" fill="var(--fill-0, #1E1F26)"/>
</svg>
