<svg preserveAspectRatio="none" width="100%" height="100%" overflow="visible" style="display: block;" viewBox="0 0 20.0099 20.0099" fill="none" xmlns="http://www.w3.org/2000/svg">
<path id="Vector" d="M19.7141 18.2941L13.4141 12.0041H15.0041C15.2693 12.0041 15.5237 11.8987 15.7112 11.7112C15.8987 11.5237 16.0041 11.2693 16.0041 11.0041C16.0041 10.7389 15.8987 10.4845 15.7112 10.297C15.5237 10.1094 15.2693 10.0041 15.0041 10.0041H11.4141L17.0741 4.34409C17.1788 4.25444 17.2638 4.14413 17.3238 4.02006C17.3838 3.896 17.4176 3.76086 17.4229 3.62315C17.4282 3.48543 17.405 3.34809 17.3547 3.21977C17.3045 3.09144 17.2282 2.9749 17.1307 2.87744C17.0333 2.77999 16.9167 2.70373 16.7884 2.65345C16.6601 2.60318 16.5228 2.57997 16.385 2.58529C16.2473 2.59061 16.1122 2.62434 15.9881 2.68437C15.8641 2.74439 15.7537 2.82941 15.6641 2.93409L10.0041 8.59409V5.00409C10.0041 4.73888 9.89873 4.48452 9.7112 4.29699C9.52366 4.10945 9.26931 4.00409 9.00409 4.00409C8.73887 4.00409 8.48452 4.10945 8.29698 4.29699C8.10945 4.48452 8.00409 4.73888 8.00409 5.00409V6.59409L1.71409 0.294092C1.62085 0.200853 1.51016 0.126892 1.38834 0.0764319C1.26652 0.0259715 1.13595 0 1.00409 0C0.872232 0 0.741664 0.0259715 0.619842 0.0764319C0.49802 0.126892 0.38733 0.200853 0.294092 0.294092C0.105788 0.482395 0 0.73779 0 1.00409C0 1.27039 0.105788 1.52579 0.294092 1.71409L6.59409 8.00409H5.00409C4.73888 8.00409 4.48452 8.10945 4.29699 8.29698C4.10945 8.48452 4.00409 8.73887 4.00409 9.00409C4.00409 9.26931 4.10945 9.52366 4.29699 9.7112C4.48452 9.89873 4.73888 10.0041 5.00409 10.0041H8.59409L2.93409 15.6641C2.74784 15.8515 2.6433 16.1049 2.6433 16.3691C2.6433 16.6333 2.74784 16.8867 2.93409 17.0741C3.12145 17.2603 3.37491 17.3649 3.63909 17.3649C3.90328 17.3649 4.15673 17.2603 4.34409 17.0741L10.0041 11.4141V15.0041C10.0041 15.2693 10.1094 15.5237 10.297 15.7112C10.4845 15.8987 10.7389 16.0041 11.0041 16.0041C11.2693 16.0041 11.5237 15.8987 11.7112 15.7112C11.8987 15.5237 12.0041 15.2693 12.0041 15.0041V13.4141L18.2941 19.7141C18.3871 19.8078 18.4977 19.8822 18.6195 19.933C18.7414 19.9838 18.8721 20.0099 19.0041 20.0099C19.1361 20.0099 19.2668 19.9838 19.3887 19.933C19.5105 19.8822 19.6211 19.8078 19.7141 19.7141C19.8078 19.6211 19.8822 19.5105 19.933 19.3887C19.9838 19.2668 20.0099 19.1361 20.0099 19.0041C20.0099 18.8721 19.9838 18.7414 19.933 18.6195C19.8822 18.4977 19.8078 18.3871 19.7141 18.2941V18.2941Z" fill="var(--fill-0, #1E1F26)"/>
</svg>
