<svg preserveAspectRatio="none" width="100%" height="100%" overflow="visible" style="display: block;" viewBox="0 0 22 22" fill="none" xmlns="http://www.w3.org/2000/svg">
<g id="Pos" clip-path="url(#clip0_2415_35670)">
<path id="Vector" d="M2.904 21.56H11.352C12.76 21.56 13.904 20.416 13.904 19.008V2.992C13.904 1.584 12.76 0.439996 11.352 0.439996H2.904C1.496 0.439996 0.352002 1.584 0.352002 2.992V18.92C0.352002 20.416 1.496 21.56 2.904 21.56ZM4.224 18.744C3.784 18.744 3.344 18.304 3.344 17.864C3.344 17.424 3.784 16.984 4.224 16.984C4.752 16.984 5.104 17.424 5.104 17.864C5.104 18.304 4.752 18.744 4.224 18.744ZM4.224 16.104C3.784 16.104 3.344 15.664 3.344 15.224C3.344 14.784 3.784 14.344 4.224 14.344C4.752 14.344 5.104 14.784 5.104 15.224C5.104 15.664 4.752 16.104 4.224 16.104ZM4.224 13.464C3.784 13.464 3.344 13.024 3.344 12.584C3.344 12.144 3.784 11.704 4.224 11.704C4.752 11.704 5.104 12.144 5.104 12.584C5.104 13.024 4.752 13.464 4.224 13.464ZM7.128 18.744C6.6 18.744 6.248 18.304 6.248 17.864C6.248 17.424 6.6 16.984 7.128 16.984C7.656 16.984 8.008 17.424 8.008 17.864C8.008 18.304 7.568 18.744 7.128 18.744ZM7.128 16.104C6.6 16.104 6.248 15.664 6.248 15.224C6.248 14.784 6.6 14.344 7.128 14.344C7.656 14.344 8.008 14.784 8.008 15.224C8.008 15.664 7.568 16.104 7.128 16.104ZM7.128 13.464C6.6 13.464 6.248 13.024 6.248 12.584C6.248 12.144 6.6 11.704 7.128 11.704C7.656 11.704 8.008 12.144 8.008 12.584C8.008 13.024 7.568 13.464 7.128 13.464ZM9.944 18.744C9.504 18.744 9.064 18.304 9.064 17.864C9.064 17.424 9.416 16.984 9.944 16.984C10.472 16.984 10.824 17.424 10.824 17.864C10.824 18.304 10.472 18.744 9.944 18.744ZM9.944 16.104C9.504 16.104 9.064 15.664 9.064 15.224C9.064 14.784 9.416 14.344 9.944 14.344C10.472 14.344 10.824 14.784 10.824 15.224C10.824 15.664 10.472 16.104 9.944 16.104ZM9.944 13.464C9.504 13.464 9.064 13.024 9.064 12.584C9.064 12.144 9.416 11.704 9.944 11.704C10.472 11.704 10.824 12.144 10.824 12.584C10.824 13.024 10.472 13.464 9.944 13.464ZM2.552 3.96C2.552 3.432 2.992 3.08 3.432 3.08H10.912C11.44 3.08 11.792 3.432 11.792 3.96V8.712C11.792 9.152 11.44 9.592 10.912 9.592H3.432C2.992 9.592 2.552 9.152 2.552 8.712V3.96ZM21.648 16.544V4.84C21.648 3.96 20.944 3.344 20.152 3.344H15.664V18.04H20.152C21.032 18.04 21.648 17.336 21.648 16.544Z" fill="var(--fill-0, #1E1F26)"/>
</g>
<defs>
<clipPath id="clip0_2415_35670">
<rect width="22" height="22" fill="white"/>
</clipPath>
</defs>
</svg>
