<svg preserveAspectRatio="none" width="100%" height="100%" overflow="visible" style="display: block;" viewBox="0 0 20 20" fill="none" xmlns="http://www.w3.org/2000/svg">
<path id="Vector" d="M7.71838 8.45837H9.95721C10.1616 8.45837 10.3577 8.37716 10.5023 8.2326C10.6468 8.08804 10.7281 7.89197 10.7281 7.68753C10.7281 7.48309 10.6468 7.28702 10.5023 7.14246C10.3577 6.9979 10.1616 6.91669 9.95721 6.91669H7.71838C7.51394 6.91669 7.31787 6.9979 7.17331 7.14246C7.02875 7.28702 6.94754 7.48309 6.94754 7.68753C6.94754 7.89197 7.02875 8.08804 7.17331 8.2326C7.31787 8.37716 7.51394 8.45837 7.71838 8.45837ZM17.4366 0H2.5633C1.88423 0.00249504 1.23369 0.273364 0.753512 0.753547C0.273338 1.23373 0.0024818 1.88428 0 2.56335V17.4366C0.00246598 18.1157 0.273315 18.7662 0.75349 19.2464C1.23367 19.7266 1.88422 19.9975 2.5633 20H17.4365C18.1156 19.9976 18.7662 19.7267 19.2464 19.2466C19.7266 18.7664 19.9975 18.1158 20 17.4367V2.56335C19.9975 1.88426 19.7267 1.23369 19.2465 0.753497C18.7663 0.273307 18.1157 0.00245307 17.4366 0V0ZM16.3641 9.67779L16.3444 12.3532C16.3366 13.4203 15.9081 14.4413 15.1519 15.1943C14.3957 15.9473 13.373 16.3716 12.3059 16.375H7.66685C6.59841 16.3731 5.57405 15.9489 4.81696 15.195C4.05988 14.4411 3.63146 13.4185 3.62504 12.3501V7.65576C3.63079 6.5866 4.05882 5.56304 4.81587 4.80805C5.57291 4.05307 6.59764 3.62784 7.66681 3.625H10.4905C11.141 3.73782 11.7584 3.99367 12.298 4.37407C12.8376 4.75448 13.286 5.24994 13.6108 5.82471C13.8334 6.24735 13.9571 6.71499 13.9727 7.19238C14.04 7.69794 14.0755 8.07361 14.3027 8.2818C14.6221 8.57129 15.81 8.37628 16.0449 8.56024L16.2238 8.70007L16.3326 8.92175L16.3686 9.0993L16.3641 9.67779ZM12.2671 11.5417H7.71838C7.61796 11.5386 7.51795 11.5558 7.42427 11.5921C7.3306 11.6284 7.24517 11.6831 7.17305 11.7531C7.10093 11.823 7.0436 11.9067 7.00444 11.9993C6.96529 12.0918 6.94511 12.1912 6.94511 12.2917C6.94511 12.3922 6.96529 12.4916 7.00444 12.5841C7.0436 12.6766 7.10093 12.7604 7.17305 12.8303C7.24517 12.9003 7.3306 12.955 7.42427 12.9913C7.51795 13.0276 7.61796 13.0448 7.71838 13.0417H12.2671C12.3672 13.0442 12.4668 13.0267 12.56 12.9901C12.6532 12.9536 12.7381 12.8988 12.8098 12.8289C12.8815 12.759 12.9385 12.6754 12.9774 12.5832C13.0163 12.4909 13.0363 12.3918 13.0363 12.2917C13.0363 12.1916 13.0163 12.0925 12.9774 12.0002C12.9385 11.908 12.8815 11.8244 12.8098 11.7545C12.7381 11.6846 12.6532 11.6298 12.56 11.5932C12.4668 11.5567 12.3672 11.5392 12.2671 11.5417H12.2671Z" fill="var(--fill-0, #1E1F26)"/>
</svg>
