<svg preserveAspectRatio="none" width="100%" height="100%" overflow="visible" style="display: block;" viewBox="0 0 20.0041 20.0041" fill="none" xmlns="http://www.w3.org/2000/svg">
<path id="Vector" d="M1 8.00409C1.26522 8.00409 1.51957 7.89873 1.70711 7.7112C1.89464 7.52366 2 7.26931 2 7.00409V3.41409L6.56 8.00409C6.65328 8.10087 6.76512 8.17786 6.88883 8.23044C7.01254 8.28302 7.14558 8.31012 7.28 8.31012C7.41442 8.31012 7.54746 8.28302 7.67117 8.23044C7.79488 8.17786 7.90672 8.10087 8 8.00409C8.18625 7.81673 8.29079 7.56328 8.29079 7.29909C8.29079 7.03491 8.18625 6.78145 8 6.59409L3.41 2.00409H7C7.26522 2.00409 7.51957 1.89873 7.70711 1.7112C7.89464 1.52366 8 1.26931 8 1.00409C8 0.738875 7.89464 0.484521 7.70711 0.296985C7.51957 0.109448 7.26522 0.00409162 7 0.00409162H1C0.869323 0.00567161 0.740222 0.0328506 0.62 0.0840915C0.375651 0.185566 0.181475 0.379742 0.0799999 0.624092C0.028759 0.744314 0.00157999 0.873414 0 1.00409V7.00409C0 7.26931 0.105357 7.52366 0.292893 7.7112C0.48043 7.89873 0.734784 8.00409 1 8.00409ZM13.3 12.0041C13.1087 11.8403 12.8626 11.7547 12.6109 11.7644C12.3593 11.7741 12.1205 11.8784 11.9424 12.0565C11.7643 12.2346 11.66 12.4734 11.6503 12.725C11.6406 12.9767 11.7262 13.2228 11.89 13.4141L18.16 19.6941C18.2534 19.7868 18.3643 19.8601 18.4861 19.9099C18.6079 19.9596 18.7384 19.9849 18.87 19.9841C19.0016 19.9849 19.1321 19.9596 19.2539 19.9099C19.3757 19.8601 19.4866 19.7868 19.58 19.6941C19.6737 19.6011 19.7481 19.4905 19.7989 19.3687C19.8497 19.2468 19.8758 19.1161 19.8758 18.9841C19.8758 18.8521 19.8497 18.7214 19.7989 18.5995C19.7481 18.4777 19.6737 18.3671 19.58 18.2741L13.3 12.0041ZM7 18.0041H3.41L19.71 1.71409C19.8983 1.52579 20.0041 1.27039 20.0041 1.00409C20.0041 0.73779 19.8983 0.482395 19.71 0.294092C19.5217 0.105788 19.2663 0 19 0C18.7337 0 18.4783 0.105788 18.29 0.294092L2 16.5941V13.0041C2 12.7389 1.89464 12.4845 1.70711 12.297C1.51957 12.1094 1.26522 12.0041 1 12.0041C0.734784 12.0041 0.48043 12.1094 0.292893 12.297C0.105357 12.4845 0 12.7389 0 13.0041V19.0041C0.00157999 19.1348 0.028759 19.2639 0.0799999 19.3841C0.181475 19.6284 0.375651 19.8226 0.62 19.9241C0.740222 19.9753 0.869323 20.0025 1 20.0041H7C7.26522 20.0041 7.51957 19.8987 7.70711 19.7112C7.89464 19.5237 8 19.2693 8 19.0041C8 18.7389 7.89464 18.4845 7.70711 18.297C7.51957 18.1094 7.26522 18.0041 7 18.0041Z" fill="var(--fill-0, #1E1F26)"/>
</svg>
