<svg preserveAspectRatio="none" width="100%" height="100%" overflow="visible" style="display: block;" viewBox="0 0 20 20" fill="none" xmlns="http://www.w3.org/2000/svg">
<path id="Vector" d="M7.08 10.21L8.58 8.71C8.67373 8.61704 8.74813 8.50644 8.7989 8.38458C8.84966 8.26272 8.8758 8.13201 8.8758 8C8.8758 7.86799 8.84966 7.73728 8.7989 7.61542C8.74813 7.49356 8.67373 7.38296 8.58 7.29L7.08 5.79C6.8917 5.6017 6.63631 5.49591 6.37 5.49591C6.1037 5.49591 5.84831 5.6017 5.66 5.79C5.4717 5.9783 5.36591 6.2337 5.36591 6.5C5.36591 6.7663 5.4717 7.0217 5.66 7.21L6.46 8L5.66 8.79C5.56628 8.88296 5.49188 8.99356 5.44111 9.11542C5.39034 9.23728 5.36421 9.36799 5.36421 9.5C5.36421 9.63201 5.39034 9.76272 5.44111 9.88458C5.49188 10.0064 5.56628 10.117 5.66 10.21C5.75344 10.3027 5.86426 10.376 5.9861 10.4258C6.10794 10.4755 6.2384 10.5008 6.37 10.5C6.50161 10.5008 6.63207 10.4755 6.75391 10.4258C6.87575 10.376 6.98656 10.3027 7.08 10.21V10.21ZM6.36 13.33C6.15845 13.4993 6.03176 13.7412 6.00742 14.0033C5.98308 14.2654 6.06306 14.5265 6.23 14.73C6.31395 14.8313 6.41705 14.915 6.5334 14.9763C6.64975 15.0377 6.77706 15.0755 6.90803 15.0875C7.03901 15.0996 7.17108 15.0857 7.29669 15.0467C7.42229 15.0076 7.53896 14.9442 7.64 14.86C8.30849 14.321 9.14131 14.0271 10 14.0271C10.8587 14.0271 11.6915 14.321 12.36 14.86C12.4611 14.9442 12.5777 15.0076 12.7033 15.0467C12.8289 15.0857 12.961 15.0996 13.092 15.0875C13.223 15.0755 13.3503 15.0377 13.4666 14.9763C13.583 14.915 13.6861 14.8313 13.77 14.73C13.9369 14.5265 14.0169 14.2654 13.9926 14.0033C13.9683 13.7412 13.8416 13.4993 13.64 13.33C12.6081 12.5006 11.3239 12.0484 10 12.0484C8.67609 12.0484 7.39188 12.5006 6.36 13.33V13.33ZM14.58 5.79C14.487 5.69627 14.3764 5.62188 14.2546 5.57111C14.1327 5.52034 14.002 5.4942 13.87 5.4942C13.738 5.4942 13.6073 5.52034 13.4854 5.57111C13.3636 5.62188 13.253 5.69627 13.16 5.79L11.66 7.29C11.5663 7.38296 11.4919 7.49356 11.4411 7.61542C11.3903 7.73728 11.3642 7.86799 11.3642 8C11.3642 8.13201 11.3903 8.26272 11.4411 8.38458C11.4919 8.50644 11.5663 8.61704 11.66 8.71L13.16 10.21C13.2534 10.3027 13.3643 10.376 13.4861 10.4258C13.6079 10.4755 13.7384 10.5008 13.87 10.5C14.0016 10.5008 14.1321 10.4755 14.2539 10.4258C14.3757 10.376 14.4866 10.3027 14.58 10.21C14.6737 10.117 14.7481 10.0064 14.7989 9.88458C14.8497 9.76272 14.8758 9.63201 14.8758 9.5C14.8758 9.36799 14.8497 9.23728 14.7989 9.11542C14.7481 8.99356 14.6737 8.88296 14.58 8.79L13.79 8L14.58 7.21C14.6737 7.11704 14.7481 7.00644 14.7989 6.88458C14.8497 6.76272 14.8758 6.63201 14.8758 6.5C14.8758 6.36799 14.8497 6.23728 14.7989 6.11542C14.7481 5.99356 14.6737 5.88296 14.58 5.79V5.79ZM10 0C8.02219 0 6.08879 0.58649 4.4443 1.6853C2.79981 2.78412 1.51809 4.3459 0.761209 6.17317C0.00433283 8.00043 -0.193701 10.0111 0.192152 11.9509C0.578004 13.8907 1.53041 15.6725 2.92894 17.0711C4.32746 18.4696 6.10929 19.422 8.0491 19.8079C9.98891 20.1937 11.9996 19.9957 13.8268 19.2388C15.6541 18.4819 17.2159 17.2002 18.3147 15.5557C19.4135 13.9112 20 11.9778 20 10C20 8.68678 19.7413 7.38642 19.2388 6.17317C18.7363 4.95991 17.9997 3.85752 17.0711 2.92893C16.1425 2.00035 15.0401 1.26375 13.8268 0.761205C12.6136 0.258658 11.3132 0 10 0V0ZM10 18C8.41775 18 6.87104 17.5308 5.55544 16.6518C4.23985 15.7727 3.21447 14.5233 2.60897 13.0615C2.00347 11.5997 1.84504 9.99113 2.15372 8.43928C2.4624 6.88743 3.22433 5.46197 4.34315 4.34315C5.46197 3.22433 6.88743 2.4624 8.43928 2.15372C9.99113 1.84504 11.5997 2.00346 13.0615 2.60896C14.5233 3.21447 15.7727 4.23984 16.6518 5.55544C17.5308 6.87103 18 8.41775 18 10C18 12.1217 17.1572 14.1566 15.6569 15.6569C14.1566 17.1571 12.1217 18 10 18V18Z" fill="var(--fill-0, #1E1F26)"/>
</svg>
