<svg preserveAspectRatio="none" width="100%" height="100%" overflow="visible" style="display: block;" viewBox="0 0 16.0125 20.0001" fill="none" xmlns="http://www.w3.org/2000/svg">
<path id="Vector" d="M15.7562 0.330029C15.6616 0.225181 15.5459 0.141564 15.4166 0.084685C15.2873 0.0278057 15.1475 -0.00104618 15.0062 2.89806e-05H1.00624C0.865014 -0.00104618 0.725161 0.0278057 0.59589 0.084685C0.466619 0.141564 0.350862 0.225181 0.256241 0.330029C0.161873 0.435029 0.0908069 0.55882 0.0477177 0.693259C0.00462852 0.827697 -0.00950682 0.969735 0.00624148 1.11003L1.80624 17.33C1.88781 18.0672 2.23954 18.748 2.79356 19.2411C3.34758 19.7341 4.0646 20.0045 4.80624 20H11.2262C11.9679 20.0045 12.6849 19.7341 13.2389 19.2411C13.7929 18.748 14.1447 18.0672 14.2262 17.33L16.0062 1.11003C16.022 0.969735 16.0079 0.827697 15.9648 0.693259C15.9217 0.55882 15.8506 0.435029 15.7562 0.330029V0.330029ZM12.2062 17.11C12.1791 17.3557 12.0618 17.5827 11.8771 17.747C11.6925 17.9114 11.4535 18.0015 11.2062 18H4.79624C4.54903 18.0015 4.31002 17.9114 4.12535 17.747C3.94068 17.5827 3.82343 17.3557 3.79624 17.11L2.78624 8.00003H13.2262L12.2062 17.11ZM13.4462 6.00003H2.56624L2.12624 2.00003H13.8862L13.4462 6.00003Z" fill="var(--fill-0, #1E1F26)"/>
</svg>
