<svg preserveAspectRatio="none" width="100%" height="100%" overflow="visible" style="display: block;" viewBox="0 0 19.9898 19.983" fill="none" xmlns="http://www.w3.org/2000/svg">
<path id="Vector" d="M19.833 3.54301C19.7002 2.69143 19.3011 1.90378 18.693 1.29301V1.29301C18.0823 0.684902 17.2946 0.285826 16.443 0.153014C14.6809 -0.11307 12.8838 -0.0315356 11.153 0.393014C11.0847 0.407014 11.0178 0.427093 10.953 0.453014C8.42041 1.09135 6.10833 2.40463 4.26303 4.25301C2.40713 6.11161 1.08738 8.43673 0.443034 10.983C0.443034 11.043 0.443034 11.103 0.393034 11.173C-0.0315471 12.9072 -0.113076 14.7076 0.153034 16.473C0.295781 17.3068 0.694158 18.0756 1.29303 18.673C1.9038 19.2811 2.69145 19.6802 3.54303 19.813C4.23075 19.9248 4.92629 19.9817 5.62303 19.983C6.72215 19.9767 7.81657 19.839 8.88303 19.573H9.02303C11.5589 18.931 13.8746 17.6168 15.7261 15.7688C17.5776 13.9209 18.8962 11.6077 19.543 9.07301C19.543 9.01301 19.543 8.95301 19.593 8.88301C20.0229 7.13604 20.1044 5.32151 19.833 3.54301V3.54301ZM14.363 1.98301C14.9526 1.9799 15.5414 2.02674 16.123 2.12301C16.2047 2.14035 16.2849 2.16375 16.363 2.19301L14.993 3.57301L13.453 2.03301C13.753 1.98301 14.063 1.98301 14.363 1.98301ZM5.66303 5.65301C7.16856 4.15563 9.02499 3.05896 11.063 2.46301L13.583 4.98301L11.433 7.13301L10.703 6.40301C10.6101 6.30929 10.4995 6.23489 10.3776 6.18412C10.2558 6.13335 10.125 6.10722 9.99303 6.10722C9.86102 6.10722 9.73032 6.13335 9.60846 6.18412C9.4866 6.23489 9.376 6.30929 9.28303 6.40301C9.09678 6.59038 8.99224 6.84383 8.99224 7.10801C8.99224 7.3722 9.09678 7.62565 9.28303 7.81301L10.013 8.54301L8.55303 9.98301L7.82303 9.25301C7.63567 9.06676 7.38222 8.96222 7.11803 8.96222C6.85385 8.96222 6.6004 9.06676 6.41303 9.25301C6.31931 9.34598 6.24491 9.45658 6.19414 9.57844C6.14337 9.7003 6.11724 9.831 6.11724 9.96301C6.11724 10.095 6.14337 10.2257 6.19414 10.3476C6.24491 10.4694 6.31931 10.5801 6.41303 10.673L7.14303 11.403L4.99303 13.573L2.48303 11.063C3.07261 9.02155 4.16615 7.16116 5.66303 5.65301V5.65301ZM2.20303 16.353C2.17377 16.2749 2.15037 16.1946 2.13303 16.113C1.98162 15.2316 1.93463 14.3354 1.99303 13.443L3.58303 14.983L2.20303 16.353ZM3.86303 17.843C3.78141 17.8257 3.70118 17.8023 3.62303 17.773L4.99303 16.393L6.53303 17.983C5.64062 18.0414 4.74444 17.9944 3.86303 17.843V17.843ZM14.323 14.313C12.8149 15.8099 10.9545 16.9034 8.91303 17.493L6.40303 14.983L8.55303 12.833L9.28303 13.563C9.37562 13.6563 9.48566 13.7303 9.60687 13.7811C9.72809 13.8318 9.8581 13.8581 9.9895 13.8586C10.1209 13.859 10.2511 13.8336 10.3727 13.7838C10.4942 13.7339 10.6048 13.6606 10.698 13.568C10.7913 13.4754 10.8654 13.3654 10.9161 13.2442C10.9668 13.123 10.9931 12.9929 10.9936 12.8615C10.9941 12.7302 10.9686 12.6 10.9188 12.4784C10.8689 12.3568 10.7956 12.2463 10.703 12.153L9.99303 11.423L11.433 9.98301L12.163 10.713C12.2565 10.8057 12.3673 10.879 12.4891 10.9288C12.611 10.9785 12.7414 11.0038 12.873 11.003C13.0708 11.0022 13.2639 10.9427 13.4279 10.8322C13.5919 10.7216 13.7194 10.5649 13.7943 10.3819C13.8692 10.1988 13.8882 9.99769 13.8488 9.80388C13.8094 9.61007 13.7135 9.43229 13.573 9.29301L12.843 8.56301L14.993 6.39301L17.503 8.90301C16.9135 10.9445 15.8199 12.8049 14.323 14.313V14.313ZM17.993 6.52301L16.403 4.98301L17.783 3.61301C17.8123 3.69116 17.8357 3.77139 17.853 3.85301C18.0045 4.73442 18.0514 5.6306 17.993 6.52301Z" fill="var(--fill-0, #1E1F26)"/>
</svg>
