<svg preserveAspectRatio="none" width="100%" height="100%" overflow="visible" style="display: block;" viewBox="0 0 22.0097 21.9714" fill="none" xmlns="http://www.w3.org/2000/svg">
<path id="Vector" d="M19.5133 2.84137C19.1008 1.97961 18.4501 1.25406 17.6381 0.750597C16.8262 0.247133 15.887 -0.0131644 14.9317 0.000512554C13.9764 0.0141896 13.045 0.301269 12.2478 0.827771C11.4506 1.35427 10.8209 2.09816 10.4333 2.97137H5.99328C5.19763 2.97137 4.43457 3.28744 3.87196 3.85005C3.30935 4.41266 2.99328 5.17572 2.99328 5.97137V9.97137C2.99328 10.2366 3.09864 10.4909 3.28617 10.6785C3.47371 10.866 3.72806 10.9714 3.99328 10.9714C4.2585 10.9714 4.51285 10.866 4.70039 10.6785C4.88792 10.4909 4.99328 10.2366 4.99328 9.97137V5.97137C4.99328 5.70616 5.09864 5.4518 5.28617 5.26427C5.47371 5.07673 5.72806 4.97137 5.99328 4.97137H8.77328C8.27549 5.51901 7.99769 6.23132 7.99328 6.97137C7.99328 7.76702 8.30935 8.53008 8.87196 9.09269C9.43457 9.6553 10.1976 9.97137 10.9933 9.97137H18.3233C19.194 9.97765 20.0385 9.67326 20.705 9.11289C21.3715 8.55252 21.8164 7.77288 21.9597 6.91399C22.1031 6.0551 21.9355 5.17324 21.4871 4.42679C21.0387 3.68034 20.3389 3.11822 19.5133 2.84137ZM18.3233 7.97137H10.9933C10.7281 7.97137 10.4737 7.86602 10.2862 7.67848C10.0986 7.49094 9.99328 7.23659 9.99328 6.97137C9.99328 6.70616 10.0986 6.4518 10.2862 6.26427C10.4737 6.07673 10.7281 5.97137 10.9933 5.97137C11.2585 5.97137 11.5128 5.86602 11.7004 5.67848C11.8879 5.49094 11.9933 5.23659 11.9933 4.97137C11.9852 4.25773 12.2318 3.56458 12.6888 3.01641C13.1458 2.46824 13.7833 2.10094 14.4868 1.98049C15.1902 1.86004 15.9136 1.99431 16.5269 2.3592C17.1403 2.7241 17.6035 3.2957 17.8333 3.97137C17.8904 4.14321 17.9932 4.2963 18.1306 4.41431C18.2679 4.53231 18.4348 4.61079 18.6133 4.64137C19.0043 4.70616 19.359 4.90957 19.6124 5.21438C19.8658 5.5192 20.001 5.90506 19.9933 6.30137C19.9933 6.52068 19.9501 6.73784 19.8662 6.94045C19.7822 7.14307 19.6592 7.32717 19.5041 7.48224C19.3491 7.63731 19.165 7.76033 18.9624 7.84425C18.7597 7.92818 18.5426 7.97137 18.3233 7.97137ZM17.9933 11.9714C17.7281 11.9714 17.4737 12.0767 17.2862 12.2643C17.0986 12.4518 16.9933 12.7062 16.9933 12.9714V15.9714C16.9933 16.2366 16.8879 16.4909 16.7004 16.6785C16.5129 16.866 16.2585 16.9714 15.9933 16.9714H13.7333C13.54 16.4765 13.2413 16.0296 12.858 15.6618C12.4746 15.294 12.0157 15.014 11.5133 14.8414C11.0601 13.8797 10.3122 13.0875 9.37821 12.5797C8.44418 12.072 7.37264 11.8752 6.31916 12.0179C5.26567 12.1606 4.28509 12.6354 3.51978 13.3733C2.75448 14.1112 2.24428 15.0738 2.06328 16.1214C1.38607 16.344 0.81024 16.8004 0.438981 17.409C0.0677216 18.0175 -0.0747081 18.7384 0.0372122 19.4424C0.149133 20.1464 0.508088 20.7876 1.04976 21.251C1.59144 21.7144 2.28043 21.9698 2.99328 21.9714H10.3233C11.1795 21.9714 12.0086 21.6712 12.6664 21.1231C13.3241 20.5749 13.7689 19.8135 13.9233 18.9714H15.9933C16.7889 18.9714 17.552 18.6553 18.1146 18.0927C18.6772 17.5301 18.9933 16.767 18.9933 15.9714V12.9714C18.9933 12.7062 18.8879 12.4518 18.7004 12.2643C18.5129 12.0767 18.2585 11.9714 17.9933 11.9714ZM10.3233 19.9714H2.99328C2.72806 19.9714 2.47371 19.866 2.28617 19.6785C2.09864 19.4909 1.99328 19.2366 1.99328 18.9714C1.99328 18.7062 2.09864 18.4518 2.28617 18.2643C2.47371 18.0767 2.72806 17.9714 2.99328 17.9714C3.2585 17.9714 3.51285 17.866 3.70039 17.6785C3.88792 17.4909 3.99328 17.2366 3.99328 16.9714C3.98521 16.2577 4.23182 15.5646 4.68883 15.0164C5.14584 14.4682 5.78331 14.1009 6.48676 13.9805C7.19021 13.86 7.91356 13.9943 8.52692 14.3592C9.14027 14.7241 9.60345 15.2957 9.83328 15.9714C9.89044 16.1432 9.99319 16.2963 10.1306 16.4143C10.2679 16.5323 10.4348 16.6108 10.6133 16.6414C11.0043 16.7062 11.359 16.9096 11.6124 17.2144C11.8658 17.5192 12.001 17.9051 11.9933 18.3014C11.9933 18.5207 11.9501 18.7378 11.8662 18.9405C11.7822 19.1431 11.6592 19.3272 11.5041 19.4822C11.3491 19.6373 11.165 19.7603 10.9624 19.8443C10.7597 19.9282 10.5426 19.9714 10.3233 19.9714V19.9714Z" fill="var(--fill-0, #1E1F26)"/>
</svg>
