<svg preserveAspectRatio="none" width="100%" height="100%" overflow="visible" style="display: block;" viewBox="0 0 22.0117 22.0235" fill="none" xmlns="http://www.w3.org/2000/svg">
<path id="Vector" d="M22.0117 8.51173C22.0106 7.58382 21.6415 6.69423 20.9854 6.0381C20.3292 5.38196 19.4396 5.01285 18.5117 5.01173C17.9917 5.01452 17.479 5.13452 17.0117 5.3628V3.51173C17.0128 2.81594 16.8061 2.13568 16.4182 1.55806C16.0303 0.980439 15.4788 0.531764 14.8343 0.269497C14.1899 0.00723052 13.4818 -0.0566875 12.8008 0.0859294C12.1198 0.228546 11.4968 0.571205 11.0117 1.07002C10.4361 0.47137 9.66566 0.0978515 8.83912 0.0166941C8.01259 -0.0644634 7.18423 0.152071 6.50314 0.627322C5.82205 1.10257 5.33296 1.80533 5.12391 2.6091C4.91486 3.41287 4.99957 4.26486 5.3628 5.01173H3.51173C2.81594 5.01067 2.13568 5.21733 1.55806 5.60524C0.980439 5.99315 0.531764 6.54466 0.269497 7.18913C0.00723052 7.83359 -0.0566875 8.54168 0.0859294 9.22269C0.228546 9.90371 0.571205 10.5266 1.07002 11.0117C0.47137 11.5874 0.0978515 12.3578 0.0166941 13.1843C-0.0644634 14.0109 0.152071 14.8392 0.627322 15.5203C1.10257 16.2014 1.80533 16.6905 2.6091 16.8996C3.41287 17.1086 4.26486 17.0239 5.01173 16.6607V18.5117C5.01067 19.2075 5.21733 19.8878 5.60524 20.4654C5.99315 21.043 6.54466 21.4917 7.18913 21.754C7.83359 22.0162 8.54168 22.0801 9.22269 21.9375C9.90371 21.7949 10.5266 21.4523 11.0117 20.9534C11.5874 21.5521 12.3578 21.9256 13.1843 22.0068C14.0109 22.0879 14.8392 21.8714 15.5203 21.3961C16.2014 20.9209 16.6905 20.2181 16.8996 19.4144C17.1086 18.6106 17.0239 17.7586 16.6607 17.0117H18.5117C19.2075 17.0128 19.8878 16.8061 20.4654 16.4182C21.043 16.0303 21.4917 15.4788 21.754 14.8343C22.0162 14.1899 22.0801 13.4818 21.9375 12.8008C21.7949 12.1198 21.4523 11.4968 20.9534 11.0117C21.2881 10.687 21.5542 10.2984 21.736 9.869C21.9178 9.43957 22.0115 8.97804 22.0117 8.51173V8.51173ZM12.0117 3.51173C12.0117 3.11391 12.1698 2.73237 12.4511 2.45107C12.7324 2.16977 13.1139 2.01173 13.5117 2.01173C13.9096 2.01173 14.2911 2.16977 14.5724 2.45107C14.8537 2.73237 15.0117 3.11391 15.0117 3.51173V8.51173C15.0117 8.90955 14.8537 9.29109 14.5724 9.57239C14.2911 9.8537 13.9096 10.0117 13.5117 10.0117C13.1139 10.0117 12.7324 9.8537 12.4511 9.57239C12.1698 9.29109 12.0117 8.90955 12.0117 8.51173V3.51173ZM5.01173 13.5117C5.01173 13.8084 4.92376 14.0984 4.75893 14.3451C4.59411 14.5918 4.35984 14.784 4.08576 14.8975C3.81167 15.0111 3.51007 15.0408 3.21909 14.9829C2.92812 14.925 2.66085 14.7822 2.45107 14.5724C2.24129 14.3626 2.09843 14.0953 2.04055 13.8044C1.98267 13.5134 2.01238 13.2118 2.12591 12.9377C2.23944 12.6636 2.4317 12.4293 2.67837 12.2645C2.92505 12.0997 3.21506 12.0117 3.51173 12.0117H5.01173V13.5117ZM10.0117 18.5117C10.0117 18.9096 9.8537 19.2911 9.57239 19.5724C9.29109 19.8537 8.90955 20.0117 8.51173 20.0117C8.11391 20.0117 7.73237 19.8537 7.45107 19.5724C7.16977 19.2911 7.01173 18.9096 7.01173 18.5117V13.5117C7.01173 13.1139 7.16977 12.7324 7.45107 12.4511C7.73237 12.1698 8.11391 12.0117 8.51173 12.0117C8.90955 12.0117 9.29109 12.1698 9.57239 12.4511C9.8537 12.7324 10.0117 13.1139 10.0117 13.5117V18.5117ZM8.51173 10.0117H3.51173C3.11391 10.0117 2.73237 9.8537 2.45107 9.57239C2.16977 9.29109 2.01173 8.90955 2.01173 8.51173C2.01173 8.11391 2.16977 7.73237 2.45107 7.45107C2.73237 7.16977 3.11391 7.01173 3.51173 7.01173H8.51173C8.90955 7.01173 9.29109 7.16977 9.57239 7.45107C9.8537 7.73237 10.0117 8.11391 10.0117 8.51173C10.0117 8.90955 9.8537 9.29109 9.57239 9.57239C9.29109 9.8537 8.90955 10.0117 8.51173 10.0117ZM10.0117 5.01173H8.51173C8.21506 5.01173 7.92505 4.92376 7.67838 4.75893C7.4317 4.59411 7.23944 4.35984 7.12591 4.08576C7.01238 3.81167 6.98267 3.51007 7.04055 3.21909C7.09843 2.92812 7.24129 2.66085 7.45107 2.45107C7.66085 2.24129 7.92812 2.09843 8.21909 2.04055C8.51007 1.98267 8.81167 2.01238 9.08576 2.12591C9.35984 2.23944 9.59411 2.4317 9.75893 2.67837C9.92376 2.92505 10.0117 3.21506 10.0117 3.51173V5.01173ZM11.0117 11.07C10.9924 11.0502 10.9732 11.0311 10.9534 11.0117C10.9732 10.9924 10.9924 10.9732 11.0117 10.9534C11.0311 10.9732 11.0502 10.9924 11.07 11.0117C11.0502 11.0311 11.0311 11.0502 11.0117 11.07ZM13.5117 20.0117C13.114 20.0113 12.7328 19.8531 12.4515 19.5719C12.1703 19.2907 12.0122 18.9094 12.0117 18.5117V17.0117H13.5117C13.9096 17.0117 14.2911 17.1698 14.5724 17.4511C14.8537 17.7324 15.0117 18.1139 15.0117 18.5117C15.0117 18.9096 14.8537 19.2911 14.5724 19.5724C14.2911 19.8537 13.9096 20.0117 13.5117 20.0117ZM18.5117 15.0117H13.5117C13.1139 15.0117 12.7324 14.8537 12.4511 14.5724C12.1698 14.2911 12.0117 13.9096 12.0117 13.5117C12.0117 13.1139 12.1698 12.7324 12.4511 12.4511C12.7324 12.1698 13.1139 12.0117 13.5117 12.0117H18.5117C18.9096 12.0117 19.2911 12.1698 19.5724 12.4511C19.8537 12.7324 20.0117 13.1139 20.0117 13.5117C20.0117 13.9096 19.8537 14.2911 19.5724 14.5724C19.2911 14.8537 18.9096 15.0117 18.5117 15.0117ZM18.5117 10.0117H17.0117V8.51173C17.0117 8.21506 17.0997 7.92505 17.2645 7.67838C17.4293 7.4317 17.6636 7.23944 17.9377 7.12591C18.2118 7.01238 18.5134 6.98267 18.8044 7.04055C19.0953 7.09843 19.3626 7.24129 19.5724 7.45107C19.7822 7.66085 19.925 7.92812 19.9829 8.21909C20.0408 8.51007 20.0111 8.81167 19.8975 9.08576C19.784 9.35984 19.5918 9.59411 19.3451 9.75893C19.0984 9.92376 18.8084 10.0117 18.5117 10.0117Z" fill="var(--fill-0, #1E1F26)"/>
</svg>
