<svg preserveAspectRatio="none" width="100%" height="100%" overflow="visible" style="display: block;" viewBox="0 0 20.0002 17.9944" fill="none" xmlns="http://www.w3.org/2000/svg">
<path id="Vector" d="M15 11.9944C14.6982 11.9941 14.4017 11.9148 14.14 11.7644C13.6487 11.4608 13.0826 11.3 12.505 11.3C11.9275 11.3 11.3613 11.4608 10.87 11.7644C10.607 11.9163 10.3087 11.9962 10.005 11.9962C9.70134 11.9962 9.40301 11.9163 9.14002 11.7644C8.64872 11.4608 8.08257 11.3 7.50502 11.3C6.92747 11.3 6.36132 11.4608 5.87002 11.7644C5.60521 11.916 5.30517 11.9954 5.00002 11.9944C4.7348 11.9944 4.48045 12.0998 4.29291 12.2873C4.10538 12.4748 4.00002 12.7292 4.00002 12.9944C4.00002 13.2596 4.10538 13.514 4.29291 13.7015C4.48045 13.8891 4.7348 13.9944 5.00002 13.9944C5.66857 13.995 6.32492 13.8153 6.90002 13.4744C7.07986 13.3617 7.28779 13.302 7.50002 13.302C7.71225 13.302 7.92018 13.3617 8.10002 13.4744C8.676 13.8129 9.33194 13.9914 10 13.9914C10.6681 13.9914 11.324 13.8129 11.9 13.4744C12.0799 13.3617 12.2878 13.302 12.5 13.302C12.7122 13.302 12.9202 13.3617 13.1 13.4744C13.6751 13.8153 14.3315 13.995 15 13.9944C15.2652 13.9944 15.5196 13.8891 15.7071 13.7015C15.8947 13.514 16 13.2596 16 12.9944C16 12.7292 15.8947 12.4748 15.7071 12.2873C15.5196 12.0998 15.2652 11.9944 15 11.9944ZM15 15.9944C14.6982 15.9941 14.4017 15.9148 14.14 15.7644C13.6487 15.4608 13.0826 15.3 12.505 15.3C11.9275 15.3 11.3613 15.4608 10.87 15.7644C10.607 15.9163 10.3087 15.9962 10.005 15.9962C9.70134 15.9962 9.40301 15.9163 9.14002 15.7644C8.64872 15.4608 8.08257 15.3 7.50502 15.3C6.92747 15.3 6.36132 15.4608 5.87002 15.7644C5.60521 15.916 5.30517 15.9954 5.00002 15.9944C4.7348 15.9944 4.48045 16.0998 4.29291 16.2873C4.10538 16.4748 4.00002 16.7292 4.00002 16.9944C4.00002 17.2596 4.10538 17.514 4.29291 17.7015C4.48045 17.8891 4.7348 17.9944 5.00002 17.9944C5.66857 17.995 6.32492 17.8153 6.90002 17.4744C7.07986 17.3617 7.28779 17.302 7.50002 17.302C7.71225 17.302 7.92018 17.3617 8.10002 17.4744C8.676 17.8129 9.33194 17.9914 10 17.9914C10.6681 17.9914 11.324 17.8129 11.9 17.4744C12.0799 17.3617 12.2878 17.302 12.5 17.302C12.7122 17.302 12.9202 17.3617 13.1 17.4744C13.6751 17.8153 14.3315 17.995 15 17.9944C15.2652 17.9944 15.5196 17.8891 15.7071 17.7015C15.8947 17.514 16 17.2596 16 16.9944C16 16.7292 15.8947 16.4748 15.7071 16.2873C15.5196 16.0998 15.2652 15.9944 15 15.9944ZM16.42 4.20442C15.8083 2.80023 14.753 1.63542 13.4158 0.888575C12.0785 0.141734 10.5333 -0.145911 9.0169 0.069742C7.50052 0.285395 6.09672 0.992442 5.02074 2.08248C3.94475 3.17251 3.25598 4.58537 3.06002 6.10442C2.18743 6.31538 1.41118 6.81375 0.856149 7.51933C0.301114 8.22491 -0.000433116 9.09669 1.98754e-05 9.99442C-0.00176561 10.5608 0.116767 11.1212 0.347772 11.6384C0.578778 12.1555 0.916988 12.6177 1.34002 12.9944C1.52232 13.1552 1.75695 13.2441 2.00002 13.2444C2.14277 13.243 2.28356 13.211 2.41293 13.1507C2.54229 13.0903 2.65723 13.0029 2.75002 12.8944C2.92482 12.6954 3.01352 12.4352 2.99665 12.1708C2.97977 11.9065 2.85871 11.6596 2.66002 11.4844C2.448 11.2992 2.27906 11.0699 2.16504 10.8125C2.05103 10.5551 1.99471 10.2759 2.00002 9.99442C2.00002 9.46399 2.21073 8.95528 2.58581 8.5802C2.96088 8.20513 3.46959 7.99442 4.00002 7.99442C4.26524 7.99442 4.51959 7.88906 4.70713 7.70152C4.89466 7.51399 5.00002 7.25963 5.00002 6.99442C5.00257 5.8117 5.42431 4.66817 6.19029 3.767C6.95627 2.86583 8.01691 2.26537 9.18377 2.07229C10.3506 1.87921 11.5482 2.10602 12.5636 2.71243C13.579 3.31883 14.3466 4.26556 14.73 5.38442C14.7887 5.55439 14.8921 5.70541 15.0294 5.82156C15.1666 5.93771 15.3327 6.0147 15.51 6.04442C16.2059 6.16446 16.8371 6.52611 17.2925 7.06571C17.748 7.60532 17.9985 8.28829 18 8.99442C18.0133 9.73037 17.7491 10.4444 17.26 10.9944C17.1565 11.0885 17.0739 11.2032 17.0175 11.3311C16.9611 11.4591 16.9322 11.5974 16.9326 11.7373C16.933 11.8771 16.9627 12.0153 17.0198 12.1429C17.0769 12.2705 17.1602 12.3848 17.2642 12.4782C17.3682 12.5717 17.4906 12.6423 17.6236 12.6855C17.7566 12.7287 17.8972 12.7436 18.0363 12.7291C18.1753 12.7146 18.3098 12.6711 18.431 12.6014C18.5523 12.5317 18.6575 12.4373 18.74 12.3244C19.5619 11.4112 20.0114 10.223 20 8.99442C19.9991 7.91684 19.6501 6.86838 19.005 6.00523C18.3599 5.14209 17.4532 4.51045 16.42 4.20442V4.20442Z" fill="var(--fill-0, #1E1F26)"/>
</svg>
