<svg preserveAspectRatio="none" width="100%" height="100%" overflow="visible" style="display: block;" viewBox="0 0 19.88 19.85" fill="none" xmlns="http://www.w3.org/2000/svg">
<path id="Vector" d="M19.88 9.05C19.88 8.94 19.88 8.83 19.88 8.72L19.79 8.12L19.7 7.73C19.7 7.56 19.62 7.39 19.57 7.22C19.52 7.05 19.49 6.95 19.44 6.82C19.4121 6.74141 19.3887 6.66128 19.37 6.58C19.37 6.58 19.37 6.58 19.37 6.53C18.8636 5.18302 18.0753 3.9598 17.0577 2.94226C16.0402 1.92472 14.817 1.13637 13.47 0.63C13.47 0.63 13.47 0.63 13.42 0.63L13.19 0.56L12.77 0.43C12.62 0.43 12.46 0.35 12.31 0.31L11.85 0.21L11.39 0.14C11.23 0.14 11.08 0.14 10.91 0.0799999C10.74 0.0199999 10.56 0.0799999 10.39 0.0799999L9.88 0H9.49C9.32 0 9.14 0 8.97 0C8.8 0 8.65 -5.58794e-08 8.49 0.0599999L8.03 0.13L7.57 0.23C7.42 0.23 7.26 0.3 7.11 0.35L6.69 0.48L6.46 0.55C6.46 0.55 6.46 0.55 6.41 0.55C5.06302 1.05637 3.8398 1.84472 2.82226 2.86226C1.80472 3.8798 1.01637 5.10302 0.51 6.45C0.51 6.45 0.51 6.45 0.51 6.5C0.491298 6.58128 0.467926 6.66141 0.44 6.74C0.44 6.87 0.35 7 0.31 7.14C0.27 7.28 0.22 7.48 0.18 7.65L0.0900002 8.04L0 8.64C0 8.75 0 8.86 0 8.97C0 9.28 0 9.6 0 9.92C0 10.24 0 10.56 0 10.87C0 10.98 0 11.09 0 11.2L0.0900002 11.8L0.18 12.19C0.18 12.36 0.26 12.53 0.31 12.7C0.36 12.87 0.39 12.97 0.44 13.1C0.467926 13.1786 0.491298 13.2587 0.51 13.34C0.511903 13.3633 0.511903 13.3867 0.51 13.41C1.01196 14.7556 1.79786 15.9772 2.81423 16.9919C3.8306 18.0065 5.05359 18.7903 6.4 19.29C6.4 19.29 6.4 19.29 6.45 19.29L6.69 19.36L7.09 19.49L7.6 19.62L7.99 19.71L8.59 19.8H8.92C9.23 19.8 9.55 19.85 9.87 19.85C10.19 19.85 10.51 19.85 10.82 19.8H11.15L11.75 19.71L12.14 19.62L12.65 19.49L13.05 19.36L13.29 19.29C13.29 19.29 13.29 19.29 13.34 19.29C14.6864 18.7903 15.9094 18.0065 16.9258 16.9919C17.9421 15.9772 18.728 14.7556 19.23 13.41C19.2281 13.3867 19.2281 13.3633 19.23 13.34C19.23 13.26 19.28 13.18 19.3 13.1C19.32 13.02 19.39 12.84 19.43 12.7C19.47 12.56 19.52 12.36 19.56 12.19L19.65 11.8L19.74 11.2C19.74 11.09 19.74 10.98 19.74 10.87C19.74 10.56 19.79 10.24 19.79 9.92C19.79 9.6 19.88 9.36 19.88 9.05ZM13.58 2.89C15.0664 3.65365 16.2763 4.8636 17.04 6.35L14.18 7.35C13.7654 6.68553 13.2045 6.12458 12.54 5.71L13.58 2.89ZM8.22 2.19C8.43 2.14 8.63 2.11 8.83 2.08H9.07C9.64176 2.02 10.2182 2.02 10.79 2.08H11.03C11.23 2.08 11.43 2.14 11.64 2.19H11.7L10.7 5.05C10.4288 5.00831 10.1543 4.99157 9.88 5C9.63542 4.99968 9.39124 5.01975 9.15 5.06L8.15 2.2L8.22 2.19ZM6.28 2.89L7.28 5.75C6.61189 6.16338 6.04743 6.72442 5.63 7.39L2.77 6.39C3.5269 4.88874 4.73754 3.66411 6.23 2.89H6.28ZM2.07 11.71C2.0221 11.5127 1.98868 11.3122 1.97 11.11C1.97 11.02 1.97 10.94 1.97 10.86C1.90332 10.2886 1.90332 9.7114 1.97 9.14C1.97 9.06 1.97 8.98 1.97 8.89C1.98868 8.68783 2.0221 8.4873 2.07 8.29C2.07 8.29 2.07 8.29 2.07 8.23L4.93 9.23C4.84999 9.71338 4.84999 10.2066 4.93 10.69L2.07 11.69C2.07 11.69 2.07 11.73 2.07 11.71ZM6.23 17.11C4.7436 16.3463 3.53365 15.1364 2.77 13.65L5.63 12.65C6.04458 13.3145 6.60553 13.8754 7.27 14.29L6.23 17.11ZM11.59 17.81C11.38 17.86 11.18 17.89 10.98 17.92H10.74C10.1682 17.98 9.59176 17.98 9.02 17.92H8.78C8.58 17.92 8.38 17.86 8.17 17.81H8.11L9.11 14.95C9.59338 15.03 10.0866 15.03 10.57 14.95L11.57 17.81H11.59ZM10.92 12.81C10.75 12.87 10.58 12.91 10.42 12.95C10.0895 13.0116 9.75049 13.0116 9.42 12.95C9.26 12.95 9.09 12.87 8.92 12.81C8.49793 12.6643 8.11372 12.4261 7.7954 12.113C7.47707 11.7999 7.23266 11.4196 7.08 11V11C7.01947 10.8341 6.97265 10.6635 6.94 10.49C6.87605 10.1597 6.87605 9.82027 6.94 9.49C6.97043 9.32351 7.0139 9.15968 7.07 9C7.22076 8.58533 7.46114 8.20902 7.774 7.89788C8.08686 7.58675 8.4645 7.34846 8.88 7.2V7.2C9.05 7.14 9.22 7.1 9.38 7.06C9.71049 6.99843 10.0495 6.99843 10.38 7.06C10.54 7.06 10.71 7.14 10.88 7.2C11.2937 7.34971 11.6693 7.58855 11.9804 7.89962C12.2914 8.21068 12.5303 8.58635 12.68 9V9C12.7405 9.16589 12.7874 9.33646 12.82 9.51C12.884 9.84027 12.884 10.1797 12.82 10.51C12.7874 10.6835 12.7405 10.8541 12.68 11.02C12.5278 11.43 12.2879 11.8017 11.9769 12.1092C11.666 12.4166 11.2916 12.6524 10.88 12.8L10.92 12.81ZM13.53 17.12L12.53 14.26C13.1945 13.8454 13.7554 13.2845 14.17 12.62L17.03 13.62C16.261 15.1236 15.0358 16.3453 13.53 17.11V17.12ZM17.88 10.86C17.88 10.94 17.88 11.02 17.88 11.11C17.8613 11.3122 17.8279 11.5127 17.78 11.71C17.78 11.71 17.78 11.71 17.78 11.77L14.92 10.77C15 10.2866 15 9.79338 14.92 9.31L17.78 8.31C17.78 8.31 17.78 8.31 17.78 8.37C17.8279 8.5673 17.8613 8.76783 17.88 8.97C17.88 9.06 17.88 9.14 17.88 9.22C17.9467 9.7914 17.9467 10.3686 17.88 10.94V10.86Z" fill="var(--fill-0, #1E1F26)"/>
</svg>
