<svg preserveAspectRatio="none" width="100%" height="100%" overflow="visible" style="display: block;" viewBox="0 0 20.0099 20.0199" fill="none" xmlns="http://www.w3.org/2000/svg">
<path id="Vector" d="M1.71409 0.294092C1.62085 0.200853 1.51016 0.126892 1.38834 0.0764319C1.26652 0.0259715 1.13595 0 1.00409 0C0.872232 0 0.741664 0.0259715 0.619842 0.0764319C0.49802 0.126892 0.38733 0.200853 0.294092 0.294092C0.105788 0.482395 0 0.73779 0 1.00409C0 1.27039 0.105788 1.52579 0.294092 1.71409L3.09409 4.50409H3.00409C2.20844 4.50409 1.44538 4.82016 0.882771 5.38277C0.320162 5.94538 0.00409162 6.70844 0.00409162 7.50409V15.5041C0.00409162 16.2997 0.320162 17.0628 0.882771 17.6254C1.44538 18.188 2.20844 18.5041 3.00409 18.5041H17.0841L18.2941 19.7241C18.3871 19.8178 18.4977 19.8922 18.6195 19.943C18.7414 19.9938 18.8721 20.0199 19.0041 20.0199C19.1361 20.0199 19.2668 19.9938 19.3887 19.943C19.5105 19.8922 19.6211 19.8178 19.7141 19.7241C19.8078 19.6311 19.8822 19.5205 19.933 19.3987C19.9838 19.2768 20.0099 19.1461 20.0099 19.0141C20.0099 18.8821 19.9838 18.7514 19.933 18.6295C19.8822 18.5077 19.8078 18.3971 19.7141 18.3041L1.71409 0.294092ZM8.20409 9.62409L10.8841 12.3041C10.6098 12.4369 10.3088 12.5053 10.0041 12.5041C9.47366 12.5041 8.96495 12.2934 8.58988 11.9183C8.21481 11.5432 8.00409 11.0345 8.00409 10.5041C8.00284 10.1994 8.07125 9.89836 8.20409 9.62409V9.62409ZM3.00409 16.5041C2.73888 16.5041 2.48452 16.3987 2.29699 16.2112C2.10945 16.0237 2.00409 15.7693 2.00409 15.5041V7.50409C2.00409 7.23888 2.10945 6.98452 2.29699 6.79699C2.48452 6.60945 2.73888 6.50409 3.00409 6.50409H5.07409L6.77409 8.19409C6.27872 8.86283 6.00904 9.67188 6.00409 10.5041C6.00409 11.565 6.42552 12.5824 7.17566 13.3325C7.92581 14.0827 8.94323 14.5041 10.0041 14.5041C10.8397 14.5013 11.6526 14.2315 12.3241 13.7341L15.0941 16.5041H3.00409ZM17.0041 4.50409H15.7241L15.4141 3.50409C15.2061 2.9157 14.8198 2.40683 14.3089 2.04834C13.7981 1.68986 13.1882 1.49961 12.5641 1.50409H8.16409C7.89887 1.50409 7.64452 1.60945 7.45698 1.79698C7.26945 1.98452 7.16409 2.23888 7.16409 2.50409C7.16409 2.76931 7.26945 3.02366 7.45698 3.2112C7.64452 3.39873 7.89887 3.50409 8.16409 3.50409H12.5641C12.7737 3.50355 12.9782 3.56891 13.1487 3.69093C13.3192 3.81296 13.447 3.98547 13.5141 4.18409L14.0541 5.81409C14.1195 6.01458 14.2465 6.18927 14.4172 6.3132C14.5878 6.43712 14.7932 6.50394 15.0041 6.50409H17.0041C17.2693 6.50409 17.5237 6.60945 17.7112 6.79699C17.8987 6.98452 18.0041 7.23888 18.0041 7.50409V13.3441C18.0041 13.6093 18.1094 13.8637 18.297 14.0512C18.4845 14.2387 18.7389 14.3441 19.0041 14.3441C19.2693 14.3441 19.5237 14.2387 19.7112 14.0512C19.8987 13.8637 20.0041 13.6093 20.0041 13.3441V7.50409C20.0041 6.70844 19.688 5.94538 19.1254 5.38277C18.5628 4.82016 17.7997 4.50409 17.0041 4.50409Z" fill="var(--fill-0, #1E1F26)"/>
</svg>
