<svg preserveAspectRatio="none" width="100%" height="100%" overflow="visible" style="display: block;" viewBox="0 0 20.0058 18.0041" fill="none" xmlns="http://www.w3.org/2000/svg">
<path id="Vector" d="M19 8.00409C18.7348 8.00409 18.4804 8.10945 18.2929 8.29699C18.1054 8.48452 18 8.73887 18 9.00409V15.0041C18 15.2693 17.8946 15.5237 17.7071 15.7112C17.5196 15.8987 17.2652 16.0041 17 16.0041H3C2.73478 16.0041 2.48043 15.8987 2.29289 15.7112C2.10536 15.5237 2 15.2693 2 15.0041V5.41409L7.88 11.3041C8.44124 11.8608 9.19951 12.1734 9.99 12.1741C10.8004 12.1699 11.5764 11.8466 12.15 11.2741L13.87 9.55409C14.0583 9.36579 14.1641 9.11039 14.1641 8.84409C14.1641 8.57779 14.0583 8.3224 13.87 8.13409C13.6817 7.94579 13.4263 7.84 13.16 7.84C12.8937 7.84 12.6383 7.94579 12.45 8.13409L10.7 9.88409C10.5131 10.0673 10.2618 10.1699 10 10.1699C9.73825 10.1699 9.48693 10.0673 9.3 9.88409L3.41 4.00409H11C11.2652 4.00409 11.5196 3.89873 11.7071 3.7112C11.8946 3.52366 12 3.26931 12 3.00409C12 2.73888 11.8946 2.48452 11.7071 2.29699C11.5196 2.10945 11.2652 2.00409 11 2.00409H3C2.20435 2.00409 1.44129 2.32016 0.87868 2.88277C0.316071 3.44538 0 4.20844 0 5.00409V15.0041C0 15.7997 0.316071 16.5628 0.87868 17.1254C1.44129 17.688 2.20435 18.0041 3 18.0041H17C17.7956 18.0041 18.5587 17.688 19.1213 17.1254C19.6839 16.5628 20 15.7997 20 15.0041V9.00409C20 8.73887 19.8946 8.48452 19.7071 8.29699C19.5196 8.10945 19.2652 8.00409 19 8.00409ZM18.41 3.00409L19.71 1.71409C19.8983 1.52579 20.0041 1.27039 20.0041 1.00409C20.0041 0.73779 19.8983 0.482395 19.71 0.294092C19.5217 0.105788 19.2663 0 19 0C18.7337 0 18.4783 0.105788 18.29 0.294092L17 1.59409L15.71 0.294092C15.6168 0.200853 15.5061 0.126892 15.3842 0.076432C15.2624 0.0259717 15.1319 0 15 0C14.7337 0 14.4783 0.105788 14.29 0.294092C14.1017 0.482395 13.9959 0.73779 13.9959 1.00409C13.9959 1.27039 14.1017 1.52579 14.29 1.71409L15.59 3.00409L14.29 4.29409C14.1963 4.38705 14.1219 4.49766 14.0711 4.61951C14.0203 4.74137 13.9942 4.87208 13.9942 5.00409C13.9942 5.1361 14.0203 5.26681 14.0711 5.38867C14.1219 5.51053 14.1963 5.62113 14.29 5.71409C14.383 5.80782 14.4936 5.88221 14.6154 5.93298C14.7373 5.98375 14.868 6.00989 15 6.00989C15.132 6.00989 15.2627 5.98375 15.3846 5.93298C15.5064 5.88221 15.617 5.80782 15.71 5.71409L17 4.41409L18.29 5.71409C18.383 5.80782 18.4936 5.88221 18.6154 5.93298C18.7373 5.98375 18.868 6.00989 19 6.00989C19.132 6.00989 19.2627 5.98375 19.3846 5.93298C19.5064 5.88221 19.617 5.80782 19.71 5.71409C19.8037 5.62113 19.8781 5.51053 19.9289 5.38867C19.9797 5.26681 20.0058 5.1361 20.0058 5.00409C20.0058 4.87208 19.9797 4.74137 19.9289 4.61951C19.8781 4.49766 19.8037 4.38705 19.71 4.29409L18.41 3.00409Z" fill="var(--fill-0, #1E1F26)"/>
</svg>
