<svg preserveAspectRatio="none" width="100%" height="100%" overflow="visible" style="display: block;" viewBox="0 0 16 20" fill="none" xmlns="http://www.w3.org/2000/svg">
<path id="Vector" d="M8.92 14.62C8.89811 14.5563 8.86785 14.4957 8.83 14.44C8.79308 14.3876 8.75301 14.3375 8.71 14.29C8.56938 14.1512 8.3908 14.0572 8.19681 14.0199C8.00282 13.9825 7.80211 14.0034 7.62 14.08C7.49725 14.1276 7.3851 14.199 7.29 14.29C7.24699 14.3375 7.20692 14.3876 7.17 14.44C7.13215 14.4957 7.10189 14.5563 7.08 14.62C7.05117 14.6767 7.03095 14.7374 7.02 14.8C7.01555 14.8666 7.01555 14.9334 7.02 15C7.01662 15.1312 7.04402 15.2613 7.1 15.38C7.15064 15.5012 7.22167 15.6128 7.31 15.71C7.49379 15.8923 7.74113 15.9963 8 16C8.13118 16.0034 8.26132 15.976 8.38 15.92C8.5041 15.8751 8.6168 15.8034 8.71011 15.7101C8.80343 15.6168 8.87509 15.5041 8.92 15.38C8.97598 15.2613 9.00338 15.1312 9 15C9.00445 14.9334 9.00445 14.8666 9 14.8C8.98278 14.7362 8.9558 14.6755 8.92 14.62ZM16 6.94C15.9896 6.84813 15.9695 6.75763 15.94 6.67V6.58C15.8919 6.47718 15.8278 6.38267 15.75 6.3V6.3L9.75 0.3C9.66734 0.222216 9.57282 0.158081 9.47 0.11H9.38C9.27841 0.0517412 9.16622 0.0143442 9.05 0H3C2.20435 0 1.44129 0.316071 0.87868 0.87868C0.316071 1.44129 0 2.20435 0 3V17C0 17.7956 0.316071 18.5587 0.87868 19.1213C1.44129 19.6839 2.20435 20 3 20H13C13.7956 20 14.5587 19.6839 15.1213 19.1213C15.6839 18.5587 16 17.7956 16 17V7C16 7 16 7 16 6.94ZM10 3.41L12.59 6H11C10.7348 6 10.4804 5.89464 10.2929 5.70711C10.1054 5.51957 10 5.26522 10 5V3.41ZM14 17C14 17.2652 13.8946 17.5196 13.7071 17.7071C13.5196 17.8946 13.2652 18 13 18H3C2.73478 18 2.48043 17.8946 2.29289 17.7071C2.10536 17.5196 2 17.2652 2 17V3C2 2.73478 2.10536 2.48043 2.29289 2.29289C2.48043 2.10536 2.73478 2 3 2H8V5C8 5.79565 8.31607 6.55871 8.87868 7.12132C9.44129 7.68393 10.2044 8 11 8H14V17ZM8 9C7.73478 9 7.48043 9.10536 7.29289 9.29289C7.10536 9.48043 7 9.73478 7 10V12C7 12.2652 7.10536 12.5196 7.29289 12.7071C7.48043 12.8946 7.73478 13 8 13C8.26522 13 8.51957 12.8946 8.70711 12.7071C8.89464 12.5196 9 12.2652 9 12V10C9 9.73478 8.89464 9.48043 8.70711 9.29289C8.51957 9.10536 8.26522 9 8 9Z" fill="var(--fill-0, #1E1F26)"/>
</svg>
