<svg preserveAspectRatio="none" width="100%" height="100%" overflow="visible" style="display: block;" viewBox="0 0 20.0099 20.0099" fill="none" xmlns="http://www.w3.org/2000/svg">
<path id="Vector" d="M8.50409 3.50409C8.23887 3.50409 7.98452 3.60945 7.79699 3.79699C7.60945 3.98452 7.50409 4.23888 7.50409 4.50409V6.09409L1.71409 0.294092C1.62085 0.200853 1.51016 0.126892 1.38834 0.0764319C1.26652 0.0259715 1.13595 0 1.00409 0C0.872232 0 0.741664 0.0259715 0.619842 0.0764319C0.49802 0.126892 0.38733 0.200853 0.294092 0.294092C0.105788 0.482395 0 0.73779 0 1.00409C0 1.27039 0.105788 1.52579 0.294092 1.71409L6.09409 7.50409H4.50409C4.23888 7.50409 3.98452 7.60945 3.79699 7.79699C3.60945 7.98452 3.50409 8.23887 3.50409 8.50409C3.50409 8.76931 3.60945 9.02366 3.79699 9.2112C3.98452 9.39873 4.23888 9.50409 4.50409 9.50409H8.50409C8.63477 9.50251 8.76387 9.47533 8.88409 9.42409C9.12844 9.32262 9.32262 9.12844 9.42409 8.88409C9.47533 8.76387 9.50251 8.63477 9.50409 8.50409V4.50409C9.50409 4.23888 9.39873 3.98452 9.2112 3.79699C9.02366 3.60945 8.76931 3.50409 8.50409 3.50409ZM19.7141 18.2941L13.9141 12.5041H15.5041C15.7693 12.5041 16.0237 12.3987 16.2112 12.2112C16.3987 12.0237 16.5041 11.7693 16.5041 11.5041C16.5041 11.2389 16.3987 10.9845 16.2112 10.797C16.0237 10.6094 15.7693 10.5041 15.5041 10.5041H11.5041C11.3734 10.5057 11.2443 10.5329 11.1241 10.5841C10.8797 10.6856 10.6856 10.8797 10.5841 11.1241C10.5329 11.2443 10.5057 11.3734 10.5041 11.5041V15.5041C10.5041 15.7693 10.6094 16.0237 10.797 16.2112C10.9845 16.3987 11.2389 16.5041 11.5041 16.5041C11.7693 16.5041 12.0237 16.3987 12.2112 16.2112C12.3987 16.0237 12.5041 15.7693 12.5041 15.5041V13.9141L18.2941 19.7141C18.3871 19.8078 18.4977 19.8822 18.6195 19.933C18.7414 19.9838 18.8721 20.0099 19.0041 20.0099C19.1361 20.0099 19.2668 19.9838 19.3887 19.933C19.5105 19.8822 19.6211 19.8078 19.7141 19.7141C19.8078 19.6211 19.8822 19.5105 19.933 19.3887C19.9838 19.2668 20.0099 19.1361 20.0099 19.0041C20.0099 18.8721 19.9838 18.7414 19.933 18.6195C19.8822 18.4977 19.8078 18.3871 19.7141 18.2941V18.2941Z" fill="var(--fill-0, #1E1F26)"/>
</svg>
