<svg preserveAspectRatio="none" width="100%" height="100%" overflow="visible" style="display: block;" viewBox="0 0 20 19" fill="none" xmlns="http://www.w3.org/2000/svg">
<path id="Vector" d="M19 11C18.7348 11 18.4804 11.1054 18.2929 11.2929C18.1054 11.4804 18 11.7348 18 12V16C18 16.2652 17.8946 16.5196 17.7071 16.7071C17.5196 16.8946 17.2652 17 17 17H3C2.73478 17 2.48043 16.8946 2.29289 16.7071C2.10536 16.5196 2 16.2652 2 16V6.41L7.88 12.29C8.4425 12.8518 9.205 13.1674 10 13.1674C10.795 13.1674 11.5575 12.8518 12.12 12.29L15.71 8.71C15.8983 8.5217 16.0041 8.2663 16.0041 8C16.0041 7.7337 15.8983 7.4783 15.71 7.29C15.5217 7.1017 15.2663 6.99591 15 6.99591C14.7337 6.99591 14.4783 7.1017 14.29 7.29L10.71 10.88C10.617 10.9737 10.5064 11.0481 10.3846 11.0989C10.2627 11.1497 10.132 11.1758 10 11.1758C9.86799 11.1758 9.73728 11.1497 9.61542 11.0989C9.49356 11.0481 9.38296 10.9737 9.29 10.88L3.41 5H15C15.2652 5 15.5196 4.89464 15.7071 4.70711C15.8946 4.51957 16 4.26522 16 4C16 3.73478 15.8946 3.48043 15.7071 3.29289C15.5196 3.10536 15.2652 3 15 3H3C2.20435 3 1.44129 3.31607 0.87868 3.87868C0.316071 4.44129 0 5.20435 0 6V16C0 16.7956 0.316071 17.5587 0.87868 18.1213C1.44129 18.6839 2.20435 19 3 19H17C17.7956 19 18.5587 18.6839 19.1213 18.1213C19.6839 17.5587 20 16.7956 20 16V12C20 11.7348 19.8946 11.4804 19.7071 11.2929C19.5196 11.1054 19.2652 11 19 11ZM19 0C18.7348 0 18.4804 0.105357 18.2929 0.292893C18.1054 0.48043 18 0.734784 18 1V5C18 5.26522 18.1054 5.51957 18.2929 5.70711C18.4804 5.89464 18.7348 6 19 6C19.2652 6 19.5196 5.89464 19.7071 5.70711C19.8946 5.51957 20 5.26522 20 5V1C20 0.734784 19.8946 0.48043 19.7071 0.292893C19.5196 0.105357 19.2652 0 19 0V0ZM18.8 7C18.7374 7.01095 18.6767 7.03117 18.62 7.06C18.5563 7.08189 18.4957 7.11215 18.44 7.15L18.29 7.27C18.1073 7.46163 18.0037 7.71523 18 7.98C17.9951 8.04324 17.9951 8.10676 18 8.17C18.0093 8.23623 18.0295 8.30045 18.06 8.36C18.0819 8.42372 18.1122 8.48425 18.15 8.54C18.1869 8.59239 18.227 8.64248 18.27 8.69C18.363 8.78373 18.4736 8.85812 18.5954 8.90889C18.7173 8.95966 18.848 8.9858 18.98 8.9858C19.112 8.9858 19.2427 8.95966 19.3646 8.90889C19.4864 8.85812 19.597 8.78373 19.69 8.69L19.81 8.54C19.8478 8.48425 19.8781 8.42372 19.9 8.36C19.9304 8.30045 19.9507 8.23623 19.96 8.17C19.9649 8.10676 19.9649 8.04324 19.96 7.98C19.963 7.83002 19.9323 7.68128 19.87 7.54479C19.8078 7.4083 19.7156 7.28757 19.6004 7.19153C19.4851 7.0955 19.3498 7.02662 19.2043 6.99C19.0588 6.95339 18.907 6.94997 18.76 6.98L18.8 7Z" fill="var(--fill-0, #1E1F26)"/>
</svg>
