<svg preserveAspectRatio="none" width="100%" height="100%" overflow="visible" style="display: block;" viewBox="0 0 20.036 20.0058" fill="none" xmlns="http://www.w3.org/2000/svg">
<path id="Vector" d="M19.7141 0.295798C19.6211 0.20207 19.5105 0.127676 19.3887 0.0769069C19.2668 0.0261382 19.1361 0 19.0041 0C18.8721 0 18.7414 0.0261382 18.6195 0.0769069C18.4977 0.127676 18.3871 0.20207 18.2941 0.295798L16.1741 2.4158L15.4641 1.7158C15.2767 1.52955 15.0233 1.42501 14.7591 1.42501C14.4949 1.42501 14.2415 1.52955 14.0541 1.7158L12.6441 3.1258L11.9341 2.4158C11.8411 2.32207 11.7305 2.24768 11.6087 2.19691C11.4868 2.14614 11.3561 2.12 11.2241 2.12C11.0921 2.12 10.9614 2.14614 10.8395 2.19691C10.7177 2.24768 10.6071 2.32207 10.5141 2.4158L2.74409 10.1958L2.00409 9.4958C1.81 9.36015 1.57406 9.29778 1.33829 9.3198C1.10252 9.34181 0.882213 9.44677 0.716583 9.616C0.550952 9.78523 0.45075 10.0077 0.433813 10.2439C0.416876 10.4801 0.484303 10.7147 0.624092 10.9058L4.15409 14.4458L2.42409 16.1858L1.71409 15.4658C1.52579 15.2775 1.27039 15.1717 1.00409 15.1717C0.73779 15.1717 0.482395 15.2775 0.294092 15.4658C0.105788 15.6541 1.9841e-09 15.9095 0 16.1758C-1.9841e-09 16.4421 0.105788 16.6975 0.294092 16.8858L3.12409 19.7158C3.21753 19.8085 3.32835 19.8818 3.45019 19.9316C3.57202 19.9813 3.70249 20.0066 3.83409 20.0058C3.9657 20.0066 4.09616 19.9813 4.218 19.9316C4.33984 19.8818 4.45065 19.8085 4.54409 19.7158C4.63782 19.6228 4.71221 19.5122 4.76298 19.3904C4.81375 19.2685 4.83989 19.1378 4.83989 19.0058C4.83989 18.8738 4.81375 18.7431 4.76298 18.6212C4.71221 18.4994 4.63782 18.3888 4.54409 18.2958L3.83409 17.5958L5.57409 15.8558L9.10409 19.3858C9.19671 19.4803 9.30715 19.5555 9.42903 19.607C9.5509 19.6584 9.68178 19.6852 9.81409 19.6858C10.0119 19.685 10.205 19.6255 10.3689 19.515C10.5329 19.4044 10.6604 19.2477 10.7354 19.0647C10.8103 18.8816 10.8293 18.6805 10.7899 18.4867C10.7505 18.2929 10.6545 18.1151 10.5141 17.9758L9.81409 17.2658L17.5941 9.4958C17.6878 9.40284 17.7622 9.29223 17.813 9.17037C17.8638 9.04852 17.8899 8.91781 17.8899 8.7858C17.8899 8.65379 17.8638 8.52308 17.813 8.40122C17.7622 8.27936 17.6878 8.16876 17.5941 8.0758L16.8841 7.3658L18.2941 6.0058C18.4803 5.81844 18.5849 5.56498 18.5849 5.3008C18.5849 5.03661 18.4803 4.78316 18.2941 4.5958L17.5941 3.8858L19.7141 1.7658C19.8156 1.67216 19.8966 1.5585 19.952 1.432C20.0074 1.30551 20.036 1.1689 20.036 1.0308C20.036 0.892697 20.0074 0.756092 19.952 0.629592C19.8966 0.503093 19.8156 0.389441 19.7141 0.295798V0.295798ZM5.57409 13.0058L4.15409 11.6158L5.56409 10.1958L7.00409 11.6158L5.57409 13.0058ZM8.39409 15.8358L7.00409 14.4458L8.39409 13.0058L9.81409 14.4258L8.39409 15.8358ZM11.2241 13.0058L7.00409 8.7858L11.2441 4.5458L11.9541 5.2458L15.4841 8.7858L11.2241 13.0058ZM15.4641 6.0058L14.0541 4.5458L14.7641 3.8358L15.4641 4.5358L16.1641 5.2358L15.4641 6.0058Z" fill="var(--fill-0, #1E1F26)"/>
</svg>
