<svg preserveAspectRatio="none" width="100%" height="100%" overflow="visible" style="display: block;" viewBox="0 0 22 21" fill="none" xmlns="http://www.w3.org/2000/svg">
<path id="Vector" d="M3 2.00002H7.56C7.76964 1.99948 7.97416 2.06484 8.14463 2.18686C8.3151 2.30889 8.44291 2.4814 8.51 2.68002L9.05 4.32002C9.11709 4.51864 9.2449 4.69116 9.41537 4.81318C9.58584 4.9352 9.79036 5.00056 10 5.00002H17C17.2652 5.00002 17.5196 5.10538 17.7071 5.29292C17.8946 5.48045 18 5.73481 18 6.00002C18 6.26524 18.1054 6.51959 18.2929 6.70713C18.4804 6.89467 18.7348 7.00002 19 7.00002C19.2652 7.00002 19.5196 6.89467 19.7071 6.70713C19.8946 6.51959 20 6.26524 20 6.00002C20 5.20437 19.6839 4.44131 19.1213 3.8787C18.5587 3.31609 17.7956 3.00002 17 3.00002H10.72L10.4 2.00002C10.1926 1.41325 9.80775 0.905526 9.2989 0.547183C8.79005 0.188841 8.18236 -0.0023769 7.56 2.23036e-05H3C2.20435 2.23036e-05 1.44129 0.316093 0.87868 0.878702C0.31607 1.44131 0 2.20437 0 3.00002V16C0 16.7957 0.31607 17.5587 0.87868 18.1213C1.44129 18.684 2.20435 19 3 19H9C9.26522 19 9.51957 18.8947 9.70711 18.7071C9.89464 18.5196 10 18.2652 10 18C10 17.7348 9.89464 17.4805 9.70711 17.2929C9.51957 17.1054 9.26522 17 9 17H3C2.73478 17 2.48043 16.8947 2.29289 16.7071C2.10536 16.5196 2 16.2652 2 16V3.00002C2 2.73481 2.10536 2.48045 2.29289 2.29292C2.48043 2.10538 2.73478 2.00002 3 2.00002V2.00002ZM20 13.18V12C20 11.2044 19.6839 10.4413 19.1213 9.8787C18.5587 9.31609 17.7956 9.00002 17 9.00002C16.2044 9.00002 15.4413 9.31609 14.8787 9.8787C14.3161 10.4413 14 11.2044 14 12V13.18C13.4165 13.3863 12.911 13.7681 12.5529 14.273C12.1949 14.7778 12.0017 15.3811 12 16V18C12 18.7957 12.3161 19.5587 12.8787 20.1213C13.4413 20.684 14.2044 21 15 21H19C19.7956 21 20.5587 20.684 21.1213 20.1213C21.6839 19.5587 22 18.7957 22 18V16C21.9983 15.3811 21.8051 14.7778 21.4471 14.273C21.089 13.7681 20.5835 13.3863 20 13.18V13.18ZM16 12C16 11.7348 16.1054 11.4805 16.2929 11.2929C16.4804 11.1054 16.7348 11 17 11C17.2652 11 17.5196 11.1054 17.7071 11.2929C17.8946 11.4805 18 11.7348 18 12V13H16V12ZM20 18C20 18.2652 19.8946 18.5196 19.7071 18.7071C19.5196 18.8947 19.2652 19 19 19H15C14.7348 19 14.4804 18.8947 14.2929 18.7071C14.1054 18.5196 14 18.2652 14 18V16C14 15.7348 14.1054 15.4805 14.2929 15.2929C14.4804 15.1054 14.7348 15 15 15H19C19.2652 15 19.5196 15.1054 19.7071 15.2929C19.8946 15.4805 20 15.7348 20 16V18Z" fill="var(--fill-0, #1E1F26)"/>
</svg>
