<svg preserveAspectRatio="none" width="100%" height="100%" overflow="visible" style="display: block;" viewBox="0 0 16.92 19.9792" fill="none" xmlns="http://www.w3.org/2000/svg">
<path id="Vector" d="M6.67 4.20501L7.46 3.40501V7.99501C7.46 8.26023 7.56536 8.51458 7.7529 8.70212C7.94043 8.88966 8.19479 8.99501 8.46 8.99501C8.72522 8.99501 8.97957 8.88966 9.16711 8.70212C9.35465 8.51458 9.46 8.26023 9.46 7.99501V3.40501L10.25 4.20501C10.343 4.29874 10.4536 4.37314 10.5754 4.4239C10.6973 4.47467 10.828 4.50081 10.96 4.50081C11.092 4.50081 11.2227 4.47467 11.3446 4.4239C11.4664 4.37314 11.577 4.29874 11.67 4.20501C11.7637 4.11205 11.8381 4.00145 11.8889 3.87959C11.9397 3.75773 11.9658 3.62703 11.9658 3.49501C11.9658 3.363 11.9397 3.2323 11.8889 3.11044C11.8381 2.98858 11.7637 2.87798 11.67 2.78501L9.17 0.285014C9.0749 0.193973 8.96276 0.122608 8.84 0.0750135C8.59654 -0.0250045 8.32347 -0.0250045 8.08 0.0750135C7.95725 0.122608 7.84511 0.193973 7.75 0.285014L5.25 2.78501C5.0617 2.97332 4.95591 3.22871 4.95591 3.49501C4.95591 3.76132 5.0617 4.01671 5.25 4.20501C5.43831 4.39332 5.6937 4.49911 5.96 4.49911C6.22631 4.49911 6.4817 4.39332 6.67 4.20501V4.20501ZM14.46 5.55501C14.3655 5.46046 14.2532 5.38546 14.1297 5.33429C14.0061 5.28312 13.8737 5.25678 13.74 5.25678C13.6063 5.25678 13.4739 5.28312 13.3503 5.33429C13.2268 5.38546 13.1146 5.46046 13.02 5.55501C12.9255 5.64957 12.8505 5.76181 12.7993 5.88535C12.7481 6.00889 12.7218 6.1413 12.7218 6.27501C12.7218 6.40873 12.7481 6.54114 12.7993 6.66468C12.8505 6.78821 12.9255 6.90046 13.02 6.99501C13.9223 7.89697 14.5368 9.04624 14.7859 10.2975C15.035 11.5487 14.9074 12.8457 14.4193 14.0245C13.9311 15.2032 13.1044 16.2107 12.0437 16.9195C10.9829 17.6283 9.73579 18.0067 8.46 18.0067C7.18421 18.0067 5.93708 17.6283 4.87633 16.9195C3.81558 16.2107 2.98887 15.2032 2.50075 14.0245C2.01264 12.8457 1.88505 11.5487 2.13411 10.2975C2.38318 9.04624 2.99772 7.89697 3.9 6.99501C3.99456 6.90046 4.06956 6.78821 4.12073 6.66468C4.1719 6.54114 4.19824 6.40873 4.19824 6.27501C4.19824 6.1413 4.1719 6.00889 4.12073 5.88535C4.06956 5.76181 3.99456 5.64957 3.9 5.55501C3.80545 5.46046 3.6932 5.38546 3.56966 5.33429C3.44613 5.28312 3.31372 5.25678 3.18 5.25678C3.04629 5.25678 2.91388 5.28312 2.79034 5.33429C2.6668 5.38546 2.55456 5.46046 2.46 5.55501C1.28192 6.74017 0.481207 8.24768 0.158877 9.88737C-0.163454 11.5271 0.00703484 13.2255 0.648837 14.7684C1.29064 16.3113 2.375 17.6296 3.76514 18.557C5.15529 19.4843 6.78893 19.9792 8.46 19.9792C10.1311 19.9792 11.7647 19.4843 13.1549 18.557C14.545 17.6296 15.6294 16.3113 16.2712 14.7684C16.913 13.2255 17.0835 11.5271 16.7611 9.88737C16.4388 8.24768 15.6381 6.74017 14.46 5.55501V5.55501Z" fill="var(--fill-0, #1E1F26)"/>
</svg>
