<svg preserveAspectRatio="none" width="100%" height="100%" overflow="visible" style="display: block;" viewBox="0 0 20 20.011" fill="none" xmlns="http://www.w3.org/2000/svg">
<path id="Vector" d="M19 9.00525H1C0.734784 9.00525 0.48043 9.1106 0.292893 9.29814C0.105357 9.48567 0 9.74003 0 10.0052C0 10.2705 0.105357 10.5248 0.292893 10.7124C0.48043 10.8999 0.734784 11.0052 1 11.0052H19C19.2652 11.0052 19.5196 10.8999 19.7071 10.7124C19.8946 10.5248 20 10.2705 20 10.0052C20 9.74003 19.8946 9.48567 19.7071 9.29814C19.5196 9.1106 19.2652 9.00525 19 9.00525ZM8.93 7.00525H10.43C10.6952 7.00525 10.9496 6.89989 11.1371 6.71235C11.3246 6.52482 11.43 6.27046 11.43 6.00525C11.43 5.74003 11.3246 5.48568 11.1371 5.29814C10.9496 5.1106 10.6952 5.00525 10.43 5.00525H8.93C8.66478 5.00525 8.41043 5.1106 8.22289 5.29814C8.03536 5.48568 7.93 5.74003 7.93 6.00525C7.93 6.27046 8.03536 6.52482 8.22289 6.71235C8.41043 6.89989 8.66478 7.00525 8.93 7.00525V7.00525ZM13.43 6.00525C13.43 6.27046 13.5354 6.52482 13.7229 6.71235C13.9104 6.89989 14.1648 7.00525 14.43 7.00525H15C15.1974 7.00426 15.3901 6.94486 15.5539 6.83452C15.7176 6.72419 15.845 6.56786 15.92 6.38525C15.9966 6.20313 16.0175 6.00242 15.9801 5.80843C15.9428 5.61444 15.8488 5.43587 15.71 5.29525L15.05 4.64525C14.8626 4.45899 14.6092 4.35445 14.345 4.35445C14.0808 4.35445 13.8274 4.45899 13.64 4.64525C13.4921 4.79301 13.3942 4.98342 13.3601 5.1897C13.326 5.39598 13.3575 5.60776 13.45 5.79525C13.4384 5.86469 13.4317 5.93486 13.43 6.00525V6.00525ZM9.65 2.77525L10 2.41525L10.81 3.22525C10.9974 3.4115 11.2508 3.51604 11.515 3.51604C11.7792 3.51604 12.0326 3.4115 12.22 3.22525C12.4063 3.03788 12.5108 2.78443 12.5108 2.52025C12.5108 2.25606 12.4063 2.00261 12.22 1.81525L11.16 0.755245C11.0853 0.676959 10.9973 0.612619 10.9 0.565245C10.8305 0.421242 10.7274 0.296011 10.5995 0.200055C10.4716 0.1041 10.3225 0.0402195 10.1648 0.0137723C10.0071 -0.0126749 9.84539 -0.000917531 9.69317 0.0480583C9.54095 0.0970341 9.40269 0.1818 9.29 0.295245L8.23 1.35525C8.0417 1.54355 7.93591 1.79894 7.93591 2.06525C7.93591 2.33155 8.0417 2.58694 8.23 2.77525C8.4183 2.96355 8.6737 3.06934 8.94 3.06934C9.2063 3.06934 9.4617 2.96355 9.65 2.77525V2.77525ZM15 13.0052H5C4.80257 13.0062 4.60986 13.0656 4.44614 13.176C4.28242 13.2863 4.15502 13.4426 4.08 13.6252C4.00342 13.8074 3.9825 14.0081 4.01987 14.2021C4.05725 14.396 4.15124 14.5746 4.29 14.7152L9.29 19.7152C9.38296 19.809 9.49356 19.8834 9.61542 19.9341C9.73728 19.9849 9.86799 20.011 10 20.011C10.132 20.011 10.2627 19.9849 10.3846 19.9341C10.5064 19.8834 10.617 19.809 10.71 19.7152L15.71 14.7152C15.8488 14.5746 15.9428 14.396 15.9801 14.2021C16.0175 14.0081 15.9966 13.8074 15.92 13.6252C15.845 13.4426 15.7176 13.2863 15.5539 13.176C15.3901 13.0656 15.1974 13.0062 15 13.0052ZM10 17.5952L7.41 15.0052H12.59L10 17.5952ZM5.05 7.00525C5.18161 7.00601 5.31207 6.98078 5.43391 6.93102C5.55574 6.88125 5.66656 6.80793 5.76 6.71525L6.82 5.60525C7.0083 5.41694 7.11409 5.16155 7.11409 4.89525C7.11409 4.62894 7.0083 4.37355 6.82 4.18525C6.6317 3.99694 6.3763 3.89115 6.11 3.89115C5.8437 3.89115 5.5883 3.99694 5.4 4.18525L4.34 5.24525C4.24627 5.33821 4.17188 5.44881 4.12111 5.57067C4.07034 5.69253 4.0442 5.82323 4.0442 5.95525C4.0442 6.08726 4.07034 6.21796 4.12111 6.33982C4.17188 6.46168 4.24627 6.57228 4.34 6.66525C4.42919 6.76701 4.5381 6.84961 4.66014 6.90805C4.78218 6.96649 4.91481 6.99956 5.05 7.00525Z" fill="var(--fill-0, #1E1F26)"/>
</svg>
