<svg preserveAspectRatio="none" width="100%" height="100%" overflow="visible" style="display: block;" viewBox="0 0 20.0011 20" fill="none" xmlns="http://www.w3.org/2000/svg">
<path id="Vector" d="M6.5011 17C6.23589 17 5.98153 17.1054 5.794 17.2929C5.60646 17.4804 5.5011 17.7348 5.5011 18V19C5.5011 19.2652 5.60646 19.5196 5.794 19.7071C5.98153 19.8946 6.23589 20 6.5011 20C6.76632 20 7.02067 19.8946 7.20821 19.7071C7.39575 19.5196 7.5011 19.2652 7.5011 19V18C7.5011 17.7348 7.39575 17.4804 7.20821 17.2929C7.02067 17.1054 6.76632 17 6.5011 17ZM6.5011 12C6.23589 12 5.98153 12.1054 5.794 12.2929C5.60646 12.4804 5.5011 12.7348 5.5011 13V14C5.5011 14.2652 5.60646 14.5196 5.794 14.7071C5.98153 14.8946 6.23589 15 6.5011 15C6.76632 15 7.02067 14.8946 7.20821 14.7071C7.39575 14.5196 7.5011 14.2652 7.5011 14V13C7.5011 12.7348 7.39575 12.4804 7.20821 12.2929C7.02067 12.1054 6.76632 12 6.5011 12ZM19.0011 5H18.2011C18.0977 4.55129 17.9221 4.12237 17.6811 3.73L18.2411 3.17C18.4049 2.9787 18.4905 2.73262 18.4808 2.48095C18.4711 2.22927 18.3668 1.99053 18.1887 1.81244C18.0106 1.63434 17.7718 1.53001 17.5202 1.52029C17.2685 1.51057 17.0224 1.59617 16.8311 1.76L16.2711 2.32C15.8787 2.07901 15.4498 1.90339 15.0011 1.8V1C15.0011 0.734784 14.8957 0.48043 14.7082 0.292893C14.5207 0.105357 14.2663 0 14.0011 0C13.7359 0 13.4815 0.105357 13.294 0.292893C13.1065 0.48043 13.0011 0.734784 13.0011 1V1.8C12.555 1.90181 12.1291 2.07758 11.7411 2.32L11.1711 1.76C10.9798 1.59617 10.7337 1.51057 10.4821 1.52029C10.2304 1.53001 9.99164 1.63434 9.81354 1.81244C9.63545 1.99053 9.53111 2.22927 9.52139 2.48095C9.51167 2.73262 9.59728 2.9787 9.7611 3.17L10.3211 3.74C10.2311 3.89 10.1611 4.06 10.0811 4.22C9.56695 4.07486 9.03535 4.00084 8.5011 4C7.05996 3.99918 5.66667 4.5171 4.57598 5.45906C3.48528 6.40102 2.77007 7.70409 2.5611 9.13C1.86474 9.32391 1.2455 9.72868 0.788439 10.2887C0.331382 10.8487 0.0589349 11.5365 0.00852367 12.2576C-0.0418876 12.9787 0.13221 13.6978 0.5069 14.3159C0.881591 14.9341 1.43849 15.4211 2.1011 15.71C2.22854 15.7605 2.36405 15.7876 2.5011 15.79C2.7323 15.7919 2.95701 15.7136 3.13698 15.5685C3.31696 15.4233 3.44109 15.2203 3.48824 14.994C3.5354 14.7676 3.50267 14.532 3.39562 14.327C3.28857 14.1221 3.11382 13.9606 2.9011 13.87C2.6328 13.7557 2.40424 13.5647 2.24412 13.321C2.084 13.0772 1.99945 12.7916 2.0011 12.5C2.0011 12.1022 2.15914 11.7206 2.44044 11.4393C2.72175 11.158 3.10328 11 3.5011 11C3.76632 11 4.02067 10.8946 4.20821 10.7071C4.39575 10.5196 4.5011 10.2652 4.5011 10C4.50539 9.0557 4.84363 8.14336 5.45594 7.42447C6.06826 6.70558 6.91516 6.22651 7.84676 6.07204C8.77835 5.91757 9.73456 6.09767 10.5461 6.58047C11.3577 7.06326 11.9723 7.81761 12.2811 8.71C12.3383 8.88184 12.441 9.03493 12.5784 9.15293C12.7158 9.27093 12.8826 9.34942 13.0611 9.38C13.5256 9.44878 13.9582 9.65688 14.3019 9.97678C14.6456 10.2967 14.8841 10.7133 14.986 11.1717C15.0878 11.63 15.0482 12.1085 14.8724 12.5439C14.6965 12.9792 14.3927 13.351 14.0011 13.61C13.8908 13.6822 13.7958 13.7755 13.7215 13.8844C13.6472 13.9934 13.5952 14.1159 13.5682 14.2449C13.5413 14.374 13.5401 14.5071 13.5646 14.6367C13.5891 14.7662 13.6389 14.8897 13.7111 15C13.7833 15.1103 13.8766 15.2053 13.9855 15.2796C14.0945 15.3539 14.217 15.4059 14.346 15.4329C14.4751 15.4598 14.6082 15.4611 14.7378 15.4365C14.8673 15.412 14.9908 15.3622 15.1011 15.29C15.6908 14.8891 16.1727 14.3491 16.5041 13.7177C16.8354 13.0864 17.0062 12.383 17.0011 11.67C17.0002 11.139 16.8984 10.613 16.7011 10.12L16.8311 10.24C17.0174 10.4247 17.2688 10.5289 17.5311 10.53C17.6627 10.5308 17.7932 10.5055 17.915 10.4558C18.0368 10.406 18.1477 10.3327 18.2411 10.24C18.4274 10.0526 18.5319 9.79919 18.5319 9.535C18.5319 9.27081 18.4274 9.01736 18.2411 8.83L17.6811 8.27C17.9221 7.87763 18.0977 7.44871 18.2011 7H19.0011C19.2663 7 19.5207 6.89464 19.7082 6.70711C19.8957 6.51957 20.0011 6.26522 20.0011 6C20.0011 5.73478 19.8957 5.48043 19.7082 5.29289C19.5207 5.10536 19.2663 5 19.0011 5ZM15.6611 7.65C15.4874 7.82422 15.2843 7.96641 15.0611 8.07C14.7348 7.84377 14.3779 7.6653 14.0011 7.54C13.5417 6.53676 12.8195 5.67641 11.9111 5.05C12.0226 4.7917 12.1782 4.55482 12.3711 4.35V4.35C12.8202 3.93464 13.4094 3.70393 14.0211 3.70393C14.6328 3.70393 15.222 3.93464 15.6711 4.35V4.35C16.1 4.7922 16.3398 5.384 16.3398 6C16.3398 6.616 16.1 7.2078 15.6711 7.65H15.6611ZM10.5011 16C10.2359 16 9.98153 16.1054 9.794 16.2929C9.60646 16.4804 9.5011 16.7348 9.5011 17V18C9.5011 18.2652 9.60646 18.5196 9.794 18.7071C9.98153 18.8946 10.2359 19 10.5011 19C10.7663 19 11.0207 18.8946 11.2082 18.7071C11.3957 18.5196 11.5011 18.2652 11.5011 18V17C11.5011 16.7348 11.3957 16.4804 11.2082 16.2929C11.0207 16.1054 10.7663 16 10.5011 16ZM10.5011 11C10.2359 11 9.98153 11.1054 9.794 11.2929C9.60646 11.4804 9.5011 11.7348 9.5011 12V13C9.5011 13.2652 9.60646 13.5196 9.794 13.7071C9.98153 13.8946 10.2359 14 10.5011 14C10.7663 14 11.0207 13.8946 11.2082 13.7071C11.3957 13.5196 11.5011 13.2652 11.5011 13V12C11.5011 11.7348 11.3957 11.4804 11.2082 11.2929C11.0207 11.1054 10.7663 11 10.5011 11Z" fill="var(--fill-0, #1E1F26)"/>
</svg>
