<svg preserveAspectRatio="none" width="100%" height="100%" overflow="visible" style="display: block;" viewBox="0 0 18.0116 20.0058" fill="none" xmlns="http://www.w3.org/2000/svg">
<path id="Vector" d="M13.0058 15C13.271 15 13.5254 14.8946 13.7129 14.7071C13.9004 14.5196 14.0058 14.2652 14.0058 14C14.0107 13.9334 14.0107 13.8666 14.0058 13.8C13.9949 13.7374 13.9746 13.6767 13.9458 13.62C13.9239 13.5563 13.8936 13.4957 13.8558 13.44L13.7358 13.29C13.6386 13.2017 13.527 13.1306 13.4058 13.08C13.1623 12.98 12.8893 12.98 12.6458 13.08C12.5246 13.1306 12.413 13.2017 12.3158 13.29L12.1958 13.44C12.158 13.4957 12.1277 13.5563 12.1058 13.62C12.077 13.6767 12.0567 13.7374 12.0458 13.8C12.0409 13.8666 12.0409 13.9334 12.0458 14C12.0458 14.2652 12.1512 14.5196 12.3387 14.7071C12.5262 14.8946 12.7806 15 13.0458 15H13.0058ZM15.0058 0H3.0058C2.21015 0 1.44709 0.316071 0.884478 0.87868C0.321869 1.44129 0.00579834 2.20435 0.00579834 3V15C0.0073471 15.464 0.116525 15.9214 0.324747 16.3361C0.532969 16.7508 0.834558 17.1116 1.2058 17.39L0.295798 18.29C0.20207 18.383 0.127676 18.4936 0.0769069 18.6154C0.0261382 18.7373 0 18.868 0 19C0 19.132 0.0261382 19.2627 0.0769069 19.3846C0.127676 19.5064 0.20207 19.617 0.295798 19.71C0.388761 19.8037 0.499363 19.8781 0.621222 19.9289C0.743081 19.9797 0.873786 20.0058 1.0058 20.0058C1.13781 20.0058 1.26852 19.9797 1.39038 19.9289C1.51223 19.8781 1.62284 19.8037 1.7158 19.71L3.4158 18H14.5958L16.2958 19.71C16.3888 19.8037 16.4994 19.8781 16.6212 19.9289C16.7431 19.9797 16.8738 20.0058 17.0058 20.0058C17.1378 20.0058 17.2685 19.9797 17.3904 19.9289C17.5122 19.8781 17.6228 19.8037 17.7158 19.71C17.8095 19.617 17.8839 19.5064 17.9347 19.3846C17.9855 19.2627 18.0116 19.132 18.0116 19C18.0116 18.868 17.9855 18.7373 17.9347 18.6154C17.8839 18.4936 17.8095 18.383 17.7158 18.29L16.8058 17.39C17.177 17.1116 17.4786 16.7508 17.6868 16.3361C17.8951 15.9214 18.0042 15.464 18.0058 15V3C18.0058 2.20435 17.6897 1.44129 17.1271 0.87868C16.5645 0.316071 15.8014 0 15.0058 0ZM2.0058 6H8.0058V10H2.0058V6ZM16.0058 15C16.0058 15.2652 15.9004 15.5196 15.7129 15.7071C15.5254 15.8946 15.271 16 15.0058 16H3.0058C2.74058 16 2.48623 15.8946 2.29869 15.7071C2.11116 15.5196 2.0058 15.2652 2.0058 15V12H16.0058V15ZM16.0058 10H10.0058V6H16.0058V10ZM16.0058 4H2.0058V3C2.0058 2.73478 2.11116 2.48043 2.29869 2.29289C2.48623 2.10536 2.74058 2 3.0058 2H15.0058C15.271 2 15.5254 2.10536 15.7129 2.29289C15.9004 2.48043 16.0058 2.73478 16.0058 3V4ZM5.0058 15C5.27101 15 5.52537 14.8946 5.7129 14.7071C5.90044 14.5196 6.0058 14.2652 6.0058 14C6.01071 13.9334 6.01071 13.8666 6.0058 13.8C5.99485 13.7374 5.97463 13.6767 5.9458 13.62C5.92391 13.5563 5.89365 13.4957 5.8558 13.44L5.7358 13.29C5.6386 13.2017 5.52698 13.1306 5.4058 13.08C5.16234 12.98 4.88926 12.98 4.6458 13.08C4.52461 13.1306 4.413 13.2017 4.3158 13.29L4.1958 13.44C4.15795 13.4957 4.12769 13.5563 4.1058 13.62C4.06297 13.6742 4.0292 13.735 4.0058 13.8C4.00089 13.8666 4.00089 13.9334 4.0058 14C4.0069 14.2623 4.11105 14.5137 4.2958 14.7C4.38841 14.7945 4.49886 14.8697 4.62073 14.9212C4.74261 14.9727 4.87349 14.9995 5.0058 15V15Z" fill="var(--fill-0, #1E1F26)"/>
</svg>
