<svg preserveAspectRatio="none" width="100%" height="100%" overflow="visible" style="display: block;" viewBox="0 0 14 22.0158" fill="none" xmlns="http://www.w3.org/2000/svg">
<path id="Vector" d="M7 17C6.80222 17 6.60888 17.0586 6.44443 17.1685C6.27998 17.2784 6.15181 17.4346 6.07612 17.6173C6.00043 17.8 5.98063 18.0011 6.01921 18.1951C6.0578 18.3891 6.15304 18.5673 6.29289 18.7071C6.43275 18.847 6.61093 18.9422 6.80491 18.9808C6.99889 19.0194 7.19996 18.9996 7.38268 18.9239C7.56541 18.8482 7.72159 18.72 7.83147 18.5556C7.94135 18.3911 8 18.1978 8 18C8 17.7348 7.89464 17.4804 7.70711 17.2929C7.51957 17.1054 7.26522 17 7 17ZM13 0H1C0.734784 0 0.48043 0.105357 0.292893 0.292893C0.105357 0.48043 0 0.734784 0 1V10C0 10.7956 0.316071 11.5587 0.87868 12.1213C1.44129 12.6839 2.20435 13 3 13H4V15.37C3.49083 15.9473 3.15907 16.6593 3.04453 17.4206C2.92999 18.1818 3.03753 18.9599 3.35425 19.6615C3.67097 20.3631 4.18341 20.9584 4.83009 21.376C5.47677 21.7936 6.23021 22.0158 7 22.0158C7.76979 22.0158 8.52323 21.7936 9.16991 21.376C9.81659 20.9584 10.329 20.3631 10.6458 19.6615C10.9625 18.9599 11.07 18.1818 10.9555 17.4206C10.8409 16.6593 10.5092 15.9473 10 15.37V13H11C11.7956 13 12.5587 12.6839 13.1213 12.1213C13.6839 11.5587 14 10.7956 14 10V1C14 0.734784 13.8946 0.48043 13.7071 0.292893C13.5196 0.105357 13.2652 0 13 0ZM7 20C6.59761 19.997 6.2055 19.8726 5.8749 19.6432C5.5443 19.4138 5.2906 19.0899 5.14694 18.7141C5.00328 18.3382 4.97635 17.9277 5.06967 17.5363C5.16299 17.1448 5.37221 16.7906 5.67 16.52C5.77359 16.4265 5.85647 16.3124 5.9133 16.1849C5.97014 16.0575 5.99967 15.9195 6 15.78V13H8V15.78C8.00033 15.9195 8.02986 16.0575 8.0867 16.1849C8.14353 16.3124 8.22641 16.4265 8.33 16.52C8.62779 16.7906 8.83701 17.1448 8.93033 17.5363C9.02365 17.9277 8.99672 18.3382 8.85306 18.7141C8.7094 19.0899 8.4557 19.4138 8.1251 19.6432C7.7945 19.8726 7.40239 19.997 7 20ZM12 10C12 10.2652 11.8946 10.5196 11.7071 10.7071C11.5196 10.8946 11.2652 11 11 11H3C2.73478 11 2.48043 10.8946 2.29289 10.7071C2.10536 10.5196 2 10.2652 2 10V9H12V10ZM12 7H2V2H12V7Z" fill="var(--fill-0, #1E1F26)"/>
</svg>
