<svg preserveAspectRatio="none" width="100%" height="100%" overflow="visible" style="display: block;" viewBox="0 0 19.7057 20.0026" fill="none" xmlns="http://www.w3.org/2000/svg">
<path id="Vector" d="M10.0007 0.00635558C8.70011 -0.0408704 7.40338 0.175483 6.18854 0.642399C4.9737 1.10932 3.86587 1.81715 2.93168 2.72331C1.99749 3.62947 1.25625 4.71524 0.752561 5.9153C0.248869 7.11536 -0.00686893 8.4049 0.000731584 9.70636C-0.0160283 11.0575 0.255351 12.3968 0.796787 13.6348C1.33822 14.8729 2.13728 15.9813 3.14073 16.8864C3.2204 16.9573 3.28526 17.0433 3.3316 17.1394C3.37793 17.2355 3.40482 17.3398 3.41073 17.4464V19.2264C3.41621 19.3576 3.45352 19.4855 3.51943 19.5991C3.58534 19.7127 3.67789 19.8085 3.78909 19.8784C3.90029 19.9483 4.02682 19.9901 4.15776 20.0002C4.2887 20.0102 4.42013 19.9884 4.54073 19.9364L6.54073 19.0664C6.71151 19.0019 6.89995 19.0019 7.07073 19.0664C8.01617 19.3215 8.99146 19.4493 9.97073 19.4464C12.5486 19.4503 15.0225 18.4301 16.8482 16.61C18.6739 14.79 19.7018 12.3193 19.7057 9.74135C19.7097 7.16345 18.6895 4.68955 16.8694 2.86388C15.0494 1.03822 12.5786 0.0103338 10.0007 0.00635558V0.00635558ZM16.0007 7.46636L13.0707 12.1264C12.9602 12.3018 12.8145 12.4524 12.6429 12.5687C12.4712 12.685 12.2773 12.7645 12.0734 12.8021C11.8695 12.8397 11.66 12.8346 11.4582 12.7871C11.2563 12.7397 11.0665 12.6509 10.9007 12.5264L8.56073 10.7764C8.45687 10.6985 8.33055 10.6564 8.20073 10.6564C8.07091 10.6564 7.94459 10.6985 7.84073 10.7764L4.68073 13.1764C4.59272 13.2442 4.48351 13.2787 4.37249 13.2737C4.26146 13.2687 4.15581 13.2245 4.07428 13.149C3.99275 13.0734 3.94063 12.9714 3.92717 12.8611C3.9137 12.7508 3.93976 12.6393 4.00073 12.5464L6.93073 7.88636C7.04124 7.71091 7.18691 7.56028 7.35857 7.44397C7.53022 7.32767 7.72413 7.24821 7.92804 7.21063C8.13195 7.17304 8.34144 7.17813 8.54328 7.22559C8.74512 7.27305 8.93494 7.36184 9.10073 7.48636L11.4407 9.23635C11.5446 9.31425 11.6709 9.35636 11.8007 9.35636C11.9306 9.35636 12.0569 9.31425 12.1607 9.23635L15.3207 6.83636C15.4087 6.76848 15.5179 6.73399 15.629 6.73901C15.74 6.74403 15.8457 6.78823 15.9272 6.86376C16.0087 6.93929 16.0608 7.04127 16.0743 7.15159C16.0878 7.26191 16.0617 7.37343 16.0007 7.46636Z" fill="var(--fill-0, #1E1F26)"/>
</svg>
