<svg preserveAspectRatio="none" width="100%" height="100%" overflow="visible" style="display: block;" viewBox="0 0 18.0116 20.0058" fill="none" xmlns="http://www.w3.org/2000/svg">
<path id="Vector" d="M12.0058 15H13.0058C13.271 15 13.5254 14.8946 13.7129 14.7071C13.9004 14.5196 14.0058 14.2652 14.0058 14C14.0058 13.7348 13.9004 13.4804 13.7129 13.2929C13.5254 13.1054 13.271 13 13.0058 13H12.0058C11.7406 13 11.4862 13.1054 11.2987 13.2929C11.1112 13.4804 11.0058 13.7348 11.0058 14C11.0058 14.2652 11.1112 14.5196 11.2987 14.7071C11.4862 14.8946 11.7406 15 12.0058 15V15ZM18.0058 15V7C18.0058 6.20435 17.6897 5.44129 17.1271 4.87868C16.5645 4.31607 15.8014 4 15.0058 4H10.0058V2H14.0058C14.271 2 14.5254 1.89464 14.7129 1.70711C14.9004 1.51957 15.0058 1.26522 15.0058 1C15.0058 0.734784 14.9004 0.48043 14.7129 0.292893C14.5254 0.105357 14.271 0 14.0058 0H4.0058C3.74058 0 3.48623 0.105357 3.29869 0.292893C3.11116 0.48043 3.0058 0.734784 3.0058 1C3.0058 1.26522 3.11116 1.51957 3.29869 1.70711C3.48623 1.89464 3.74058 2 4.0058 2H8.0058V4H3.0058C2.21015 4 1.44709 4.31607 0.884478 4.87868C0.321869 5.44129 0.00579834 6.20435 0.00579834 7V15C0.0073471 15.464 0.116525 15.9214 0.324747 16.3361C0.532969 16.7508 0.834558 17.1116 1.2058 17.39L0.295798 18.29C0.20207 18.383 0.127676 18.4936 0.0769069 18.6154C0.0261382 18.7373 0 18.868 0 19C0 19.132 0.0261382 19.2627 0.0769069 19.3846C0.127676 19.5064 0.20207 19.617 0.295798 19.71C0.388761 19.8037 0.499363 19.8781 0.621222 19.9289C0.743081 19.9797 0.873786 20.0058 1.0058 20.0058C1.13781 20.0058 1.26852 19.9797 1.39038 19.9289C1.51223 19.8781 1.62284 19.8037 1.7158 19.71L3.4158 18H14.5958L16.2958 19.71C16.3888 19.8037 16.4994 19.8781 16.6212 19.9289C16.7431 19.9797 16.8738 20.0058 17.0058 20.0058C17.1378 20.0058 17.2685 19.9797 17.3904 19.9289C17.5122 19.8781 17.6228 19.8037 17.7158 19.71C17.8095 19.617 17.8839 19.5064 17.9347 19.3846C17.9855 19.2627 18.0116 19.132 18.0116 19C18.0116 18.868 17.9855 18.7373 17.9347 18.6154C17.8839 18.4936 17.8095 18.383 17.7158 18.29L16.8058 17.39C17.177 17.1116 17.4786 16.7508 17.6868 16.3361C17.8951 15.9214 18.0042 15.464 18.0058 15ZM2.0058 7C2.0058 6.73478 2.11116 6.48043 2.29869 6.29289C2.48623 6.10536 2.74058 6 3.0058 6H8.0058V10H2.0058V7ZM16.0058 15C16.0058 15.2652 15.9004 15.5196 15.7129 15.7071C15.5254 15.8946 15.271 16 15.0058 16H3.0058C2.74058 16 2.48623 15.8946 2.29869 15.7071C2.11116 15.5196 2.0058 15.2652 2.0058 15V12H16.0058V15ZM16.0058 10H10.0058V6H15.0058C15.271 6 15.5254 6.10536 15.7129 6.29289C15.9004 6.48043 16.0058 6.73478 16.0058 7V10ZM5.0058 15H6.0058C6.27101 15 6.52537 14.8946 6.7129 14.7071C6.90044 14.5196 7.0058 14.2652 7.0058 14C7.0058 13.7348 6.90044 13.4804 6.7129 13.2929C6.52537 13.1054 6.27101 13 6.0058 13H5.0058C4.74058 13 4.48623 13.1054 4.29869 13.2929C4.11116 13.4804 4.0058 13.7348 4.0058 14C4.0058 14.2652 4.11116 14.5196 4.29869 14.7071C4.48623 14.8946 4.74058 15 5.0058 15Z" fill="var(--fill-0, #1E1F26)"/>
</svg>
