<svg preserveAspectRatio="none" width="100%" height="100%" overflow="visible" style="display: block;" viewBox="0 0 20.0026 15.9974" fill="none" xmlns="http://www.w3.org/2000/svg">
<path id="Vector" d="M19.46 1.82737C19.4312 1.62873 19.3434 1.44334 19.2078 1.29531C19.0723 1.14729 18.8953 1.04347 18.7 0.997371H18.59C12.9405 -0.332457 7.05945 -0.332457 1.40998 0.997371H1.29998C1.10879 1.04145 0.934792 1.14081 0.799654 1.28306C0.664515 1.42531 0.57421 1.60417 0.539984 1.79737C-0.179995 5.8792 -0.179995 10.0555 0.539984 14.1374C0.57421 14.3306 0.664515 14.5094 0.799654 14.6517C0.934792 14.7939 1.10879 14.8933 1.29998 14.9374H1.40998C4.223 15.62 7.10541 15.9757 9.99998 15.9974C12.8922 15.9953 15.7746 15.6598 18.59 14.9974H18.7C18.8912 14.9533 19.0652 14.8539 19.2003 14.7117C19.3355 14.5694 19.4258 14.3906 19.46 14.1974C20.1835 10.1058 20.1835 5.91897 19.46 1.82737V1.82737ZM17.6 13.1674C12.593 14.2673 7.40695 14.2673 2.39998 13.1674C1.85997 9.74186 1.85997 6.25288 2.39998 2.82737C7.40695 1.72742 12.593 1.72742 17.6 2.82737C18.14 6.25288 18.14 9.74186 17.6 13.1674V13.1674Z" fill="var(--fill-0, #1E1F26)"/>
</svg>
