<svg preserveAspectRatio="none" width="100%" height="100%" overflow="visible" style="display: block;" viewBox="0 0 20.0058 20.0277" fill="none" xmlns="http://www.w3.org/2000/svg">
<path id="Vector" d="M5 11.0219C4.80222 11.0219 4.60888 11.0806 4.44443 11.1905C4.27998 11.3003 4.15181 11.4565 4.07612 11.6392C4.00043 11.822 3.98063 12.023 4.01921 12.217C4.0578 12.411 4.15304 12.5892 4.29289 12.729C4.43275 12.8689 4.61093 12.9641 4.80491 13.0027C4.99889 13.0413 5.19996 13.0215 5.38268 12.9458C5.56541 12.8701 5.72159 12.7419 5.83147 12.5775C5.94135 12.413 6 12.2197 6 12.0219C6 11.7567 5.89464 11.5024 5.70711 11.3148C5.51957 11.1273 5.26522 11.0219 5 11.0219ZM17.76 7.13192L16.41 3.07192C16.202 2.48353 15.8157 1.97466 15.3048 1.61617C14.794 1.25769 14.1841 1.06744 13.56 1.07192H7.66C7.39478 1.07192 7.14043 1.17728 6.95289 1.36482C6.76536 1.55235 6.66 1.80671 6.66 2.07192C6.66 2.33714 6.76536 2.59149 6.95289 2.77903C7.14043 2.96657 7.39478 3.07192 7.66 3.07192H13.56C13.7793 3.06119 13.9961 3.12294 14.1768 3.24765C14.3575 3.37235 14.4922 3.55307 14.56 3.76192L15.61 7.02192H13.66C13.3948 7.02192 13.1404 7.12728 12.9529 7.31482C12.7654 7.50235 12.66 7.75671 12.66 8.02192C12.66 8.28714 12.7654 8.54149 12.9529 8.72903C13.1404 8.91657 13.3948 9.02192 13.66 9.02192H17C17.2652 9.02192 17.5196 9.12728 17.7071 9.31482C17.8946 9.50235 18 9.75671 18 10.0219V13.3619C18 13.6271 18.1054 13.8815 18.2929 14.069C18.4804 14.2566 18.7348 14.3619 19 14.3619C19.2652 14.3619 19.5196 14.2566 19.7071 14.069C19.8946 13.8815 20 13.6271 20 13.3619V10.0219C19.9973 9.36068 19.7763 8.71886 19.3712 8.19622C18.9661 7.67359 18.3997 7.29943 17.76 7.13192V7.13192ZM1.76 0.311922C1.5717 0.116988 1.31367 0.00484151 1.04268 0.000153104C0.771688 -0.0045353 0.509934 0.0986188 0.315 0.286922C0.120066 0.475226 0.00791922 0.733254 0.00323081 1.00424C-0.0014576 1.27523 0.101696 1.53699 0.29 1.73192L3.11 4.54192L2.24 7.13192C1.60033 7.29943 1.03392 7.67359 0.628829 8.19622C0.223743 8.71886 0.00267662 9.36068 0 10.0219V14.0219C0.00173951 14.6409 0.194879 15.2441 0.552938 15.749C0.910998 16.2539 1.41645 16.6356 2 16.8419V18.0219C2 18.2871 2.10536 18.5415 2.29289 18.729C2.48043 18.9166 2.73478 19.0219 3 19.0219C3.26522 19.0219 3.51957 18.9166 3.70711 18.729C3.89464 18.5415 4 18.2871 4 18.0219V17.0219H15.59L16 17.4319V18.0219C16 18.2871 16.1054 18.5415 16.2929 18.729C16.4804 18.9166 16.7348 19.0219 17 19.0219C17.1622 19.0204 17.321 18.9755 17.46 18.8919L18.29 19.7319C18.383 19.8257 18.4936 19.9 18.6154 19.9508C18.7373 20.0016 18.868 20.0277 19 20.0277C19.132 20.0277 19.2627 20.0016 19.3846 19.9508C19.5064 19.9 19.617 19.8257 19.71 19.7319C19.8037 19.639 19.8781 19.5284 19.9289 19.4065C19.9797 19.2846 20.0058 19.1539 20.0058 19.0219C20.0058 18.8899 19.9797 18.7592 19.9289 18.6373C19.8781 18.5155 19.8037 18.4049 19.71 18.3119L1.76 0.311922ZM4.76 6.12192L5.66 7.02192H4.39L4.76 6.12192ZM3 15.0219C2.73478 15.0219 2.48043 14.9166 2.29289 14.729C2.10536 14.5415 2 14.2871 2 14.0219V10.0219C2 9.75671 2.10536 9.50235 2.29289 9.31482C2.48043 9.12728 2.73478 9.02192 3 9.02192H7.59L9.59 11.0219H9C8.73478 11.0219 8.48043 11.1273 8.29289 11.3148C8.10536 11.5024 8 11.7567 8 12.0219C8 12.2871 8.10536 12.5415 8.29289 12.729C8.48043 12.9166 8.73478 13.0219 9 13.0219H11C11.1622 13.0204 11.321 12.9755 11.46 12.8919L13.59 15.0219H3Z" fill="var(--fill-0, #1E1F26)"/>
</svg>
