<svg preserveAspectRatio="none" width="100%" height="100%" overflow="visible" style="display: block;" viewBox="0 0 18 18" fill="none" xmlns="http://www.w3.org/2000/svg">
<path id="Vector" d="M9 6C9.19778 6 9.39112 5.94135 9.55557 5.83147C9.72002 5.72159 9.84819 5.56541 9.92388 5.38268C9.99957 5.19996 10.0194 4.99889 9.98079 4.80491C9.9422 4.61093 9.84696 4.43275 9.70711 4.29289C9.56725 4.15304 9.38907 4.0578 9.19509 4.01921C9.00111 3.98063 8.80004 4.00043 8.61732 4.07612C8.43459 4.15181 8.27841 4.27998 8.16853 4.44443C8.05865 4.60888 8 4.80222 8 5C8 5.26522 8.10536 5.51957 8.29289 5.70711C8.48043 5.89464 8.73478 6 9 6ZM9 10C9.19778 10 9.39112 9.94135 9.55557 9.83147C9.72002 9.72159 9.84819 9.56541 9.92388 9.38268C9.99957 9.19996 10.0194 8.99889 9.98079 8.80491C9.9422 8.61093 9.84696 8.43275 9.70711 8.29289C9.56725 8.15304 9.38907 8.0578 9.19509 8.01921C9.00111 7.98063 8.80004 8.00043 8.61732 8.07612C8.43459 8.15181 8.27841 8.27998 8.16853 8.44443C8.05865 8.60888 8 8.80222 8 9C8 9.26522 8.10536 9.51957 8.29289 9.70711C8.48043 9.89464 8.73478 10 9 10ZM13 10C13.1978 10 13.3911 9.94135 13.5556 9.83147C13.72 9.72159 13.8482 9.56541 13.9239 9.38268C13.9996 9.19996 14.0194 8.99889 13.9808 8.80491C13.9422 8.61093 13.847 8.43275 13.7071 8.29289C13.5673 8.15304 13.3891 8.0578 13.1951 8.01921C13.0011 7.98063 12.8 8.00043 12.6173 8.07612C12.4346 8.15181 12.2784 8.27998 12.1685 8.44443C12.0586 8.60888 12 8.80222 12 9C12 9.26522 12.1054 9.51957 12.2929 9.70711C12.4804 9.89464 12.7348 10 13 10ZM9 14C9.19778 14 9.39112 13.9414 9.55557 13.8315C9.72002 13.7216 9.84819 13.5654 9.92388 13.3827C9.99957 13.2 10.0194 12.9989 9.98079 12.8049C9.9422 12.6109 9.84696 12.4327 9.70711 12.2929C9.56725 12.153 9.38907 12.0578 9.19509 12.0192C9.00111 11.9806 8.80004 12.0004 8.61732 12.0761C8.43459 12.1518 8.27841 12.28 8.16853 12.4444C8.05865 12.6089 8 12.8022 8 13C8 13.2652 8.10536 13.5196 8.29289 13.7071C8.48043 13.8946 8.73478 14 9 14ZM17 0H1C0.734784 0 0.48043 0.105357 0.292893 0.292893C0.105357 0.48043 0 0.734784 0 1V17C0 17.2652 0.105357 17.5196 0.292893 17.7071C0.48043 17.8946 0.734784 18 1 18H17C17.2652 18 17.5196 17.8946 17.7071 17.7071C17.8946 17.5196 18 17.2652 18 17V1C18 0.734784 17.8946 0.48043 17.7071 0.292893C17.5196 0.105357 17.2652 0 17 0V0ZM16 16H2V2H16V16ZM5 10C5.19778 10 5.39112 9.94135 5.55557 9.83147C5.72002 9.72159 5.84819 9.56541 5.92388 9.38268C5.99957 9.19996 6.01937 8.99889 5.98079 8.80491C5.9422 8.61093 5.84696 8.43275 5.70711 8.29289C5.56725 8.15304 5.38907 8.0578 5.19509 8.01921C5.00111 7.98063 4.80004 8.00043 4.61732 8.07612C4.43459 8.15181 4.27841 8.27998 4.16853 8.44443C4.05865 8.60888 4 8.80222 4 9C4 9.26522 4.10536 9.51957 4.29289 9.70711C4.48043 9.89464 4.73478 10 5 10Z" fill="var(--fill-0, #1E1F26)"/>
</svg>
