<svg preserveAspectRatio="none" width="100%" height="100%" overflow="visible" style="display: block;" viewBox="0 0 21 21.0026" fill="none" xmlns="http://www.w3.org/2000/svg">
<path id="Vector" d="M20.63 0.862597C20.5138 0.768618 20.3781 0.70187 20.2327 0.66726C20.0873 0.632649 19.9361 0.631056 19.79 0.662597C19.4111 0.747028 19.0184 0.748748 18.6387 0.667638C18.2591 0.586529 17.9014 0.424499 17.59 0.192597C17.4187 0.0674485 17.2121 0 17 0C16.7879 0 16.5813 0.0674485 16.41 0.192597C16.0986 0.424499 15.7409 0.586529 15.3613 0.667638C14.9816 0.748748 14.5889 0.747028 14.21 0.662597C14.0639 0.631056 13.9127 0.632649 13.7673 0.66726C13.6219 0.70187 13.4862 0.768618 13.37 0.862597C13.254 0.956715 13.1605 1.07563 13.0965 1.21061C13.0325 1.34559 12.9995 1.4932 13 1.6426V4.9526C12.9992 5.66969 13.165 6.37717 13.4843 7.01926C13.8036 7.66134 14.2677 8.22048 14.84 8.6526L16.41 9.8126C16.5813 9.93775 16.7879 10.0052 17 10.0052C17.2121 10.0052 17.4187 9.93775 17.59 9.8126L19.16 8.6526C19.7323 8.22048 20.1964 7.66134 20.5157 7.01926C20.835 6.37717 21.0008 5.66969 21 4.9526V1.6426C21.0005 1.4932 20.9675 1.34559 20.9035 1.21061C20.8395 1.07563 20.746 0.956715 20.63 0.862597ZM19 4.9526C19.0047 5.35432 18.917 5.75174 18.7436 6.11414C18.5702 6.47654 18.3158 6.79422 18 7.0426L17 7.7626L16 7.0426C15.6842 6.79422 15.4298 6.47654 15.2564 6.11414C15.083 5.75174 14.9953 5.35432 15 4.9526V2.7226C15.698 2.69 16.3805 2.50573 17 2.1826C17.6195 2.50573 18.302 2.69 19 2.7226V4.9526ZM17 12.0026C16.7348 12.0026 16.4804 12.108 16.2929 12.2955C16.1054 12.483 16 12.7374 16 13.0026V13.3926L14.5 11.9126C14.2426 11.6535 13.9364 11.4478 13.5992 11.3075C13.2619 11.1672 12.9003 11.0949 12.535 11.0949C12.1697 11.0949 11.8081 11.1672 11.4708 11.3075C11.1336 11.4478 10.8274 11.6535 10.57 11.9126L9.87 12.6126L7.41 10.1226C6.88012 9.6182 6.17657 9.33688 5.445 9.33688C4.71343 9.33688 4.00988 9.6182 3.48 10.1226L2 11.6026V6.0026C2 5.73738 2.10536 5.48303 2.29289 5.29549C2.48043 5.10795 2.73478 5.0026 3 5.0026H10C10.2652 5.0026 10.5196 4.89724 10.7071 4.7097C10.8946 4.52217 11 4.26781 11 4.0026C11 3.73738 10.8946 3.48303 10.7071 3.29549C10.5196 3.10795 10.2652 3.0026 10 3.0026H3C2.20435 3.0026 1.44129 3.31867 0.87868 3.88128C0.316071 4.44389 0 5.20695 0 6.0026V18.0026C0 18.7982 0.316071 19.5613 0.87868 20.1239C1.44129 20.6865 2.20435 21.0026 3 21.0026H15C15.7956 21.0026 16.5587 20.6865 17.1213 20.1239C17.6839 19.5613 18 18.7982 18 18.0026V13.0026C18 12.7374 17.8946 12.483 17.7071 12.2955C17.5196 12.108 17.2652 12.0026 17 12.0026ZM3 19.0026C2.73478 19.0026 2.48043 18.8972 2.29289 18.7097C2.10536 18.5222 2 18.2678 2 18.0026V14.4326L4.9 11.5026C5.04691 11.3626 5.24206 11.2845 5.445 11.2845C5.64794 11.2845 5.84309 11.3626 5.99 11.5026L9.16 14.6726L13.5 19.0026H3ZM16 18.0026C15.9917 18.1928 15.9292 18.3767 15.82 18.5326L11.31 14.0226L12.01 13.3226C12.1562 13.1773 12.3539 13.0957 12.56 13.0957C12.7661 13.0957 12.9638 13.1773 13.11 13.3226L16 16.2226V18.0026Z" fill="var(--fill-0, #1E1F26)"/>
</svg>
