<svg preserveAspectRatio="none" width="100%" height="100%" overflow="visible" style="display: block;" viewBox="0 0 20 18" fill="none" xmlns="http://www.w3.org/2000/svg">
<path id="Vector" d="M10.83 10.45C10.7385 10.3139 10.615 10.2023 10.4702 10.1252C10.3255 10.0481 10.164 10.0078 10 10.0078C9.836 10.0078 9.67451 10.0481 9.52977 10.1252C9.38503 10.2023 9.26148 10.3139 9.17 10.45L5.17 16.45C5.08223 16.602 5.03603 16.7745 5.03603 16.95C5.03603 17.1255 5.08223 17.298 5.17 17.45C5.24825 17.6062 5.36606 17.7391 5.51168 17.8356C5.6573 17.9321 5.82567 17.9888 6 18H14C14.1809 17.9995 14.3583 17.95 14.5133 17.8566C14.6682 17.7633 14.795 17.6297 14.88 17.47C14.9603 17.3136 14.9979 17.1389 14.9892 16.9633C14.9804 16.7877 14.9255 16.6176 14.83 16.47L10.83 10.45ZM7.87 16L10 12.8L12.13 16H7.87ZM17 0H3C2.20435 0 1.44129 0.316071 0.87868 0.87868C0.316071 1.44129 0 2.20435 0 3V12C0 12.7956 0.316071 13.5587 0.87868 14.1213C1.44129 14.6839 2.20435 15 3 15H3.85C4.11522 15 4.36957 14.8946 4.55711 14.7071C4.74464 14.5196 4.85 14.2652 4.85 14C4.85 13.7348 4.74464 13.4804 4.55711 13.2929C4.36957 13.1054 4.11522 13 3.85 13H3C2.73478 13 2.48043 12.8946 2.29289 12.7071C2.10536 12.5196 2 12.2652 2 12V3C2 2.73478 2.10536 2.48043 2.29289 2.29289C2.48043 2.10536 2.73478 2 3 2H17C17.2652 2 17.5196 2.10536 17.7071 2.29289C17.8946 2.48043 18 2.73478 18 3V12C18 12.2652 17.8946 12.5196 17.7071 12.7071C17.5196 12.8946 17.2652 13 17 13H16.15C15.8848 13 15.6304 13.1054 15.4429 13.2929C15.2554 13.4804 15.15 13.7348 15.15 14C15.15 14.2652 15.2554 14.5196 15.4429 14.7071C15.6304 14.8946 15.8848 15 16.15 15H17C17.7956 15 18.5587 14.6839 19.1213 14.1213C19.6839 13.5587 20 12.7956 20 12V3C20 2.20435 19.6839 1.44129 19.1213 0.87868C18.5587 0.316071 17.7956 0 17 0Z" fill="var(--fill-0, #1E1F26)"/>
</svg>
