<svg preserveAspectRatio="none" width="100%" height="100%" overflow="visible" style="display: block;" viewBox="0 0 14 18" fill="none" xmlns="http://www.w3.org/2000/svg">
<path id="Vector" d="M11.3126 8.23915C11.7197 7.63781 11.9554 6.93691 11.9942 6.21174C12.0331 5.48656 11.8737 4.7645 11.5332 4.12308C11.1926 3.48167 10.6838 2.94513 10.0613 2.57108C9.43882 2.19703 8.72622 1.9996 8 2V1C8 0.734783 7.89464 0.48043 7.70711 0.292893C7.51957 0.105357 7.26522 0 7 0C6.73478 0 6.48043 0.105357 6.29289 0.292893C6.10536 0.48043 6 0.734783 6 1V2H4V1C4 0.734783 3.89464 0.48043 3.70711 0.292893C3.51957 0.105357 3.26522 0 3 0C2.73478 0 2.48043 0.105357 2.29289 0.292893C2.10536 0.48043 2 0.734783 2 1V2H1C0.734784 2 0.480429 2.10536 0.292893 2.29289C0.105357 2.48043 0 2.73478 0 3C0 3.26522 0.105357 3.51957 0.292893 3.70711C0.480429 3.89464 0.734784 4 1 4H2V14H1C0.734784 14 0.480429 14.1054 0.292893 14.2929C0.105357 14.4804 0 14.7348 0 15C0 15.2652 0.105357 15.5196 0.292893 15.7071C0.480429 15.8946 0.734784 16 1 16H2V17C2 17.2652 2.10536 17.5196 2.29289 17.7071C2.48043 17.8946 2.73478 18 3 18C3.26522 18 3.51957 17.8946 3.70711 17.7071C3.89464 17.5196 4 17.2652 4 17V16H6V17C6 17.2652 6.10536 17.5196 6.29289 17.7071C6.48043 17.8946 6.73478 18 7 18C7.26522 18 7.51957 17.8946 7.70711 17.7071C7.89464 17.5196 8 17.2652 8 17V16H10C10.9445 16.0024 11.8593 15.6697 12.5816 15.061C13.3038 14.4522 13.7866 13.607 13.9441 12.6757C14.1016 11.7443 13.9236 10.7873 13.4417 9.97495C12.9599 9.16257 12.2054 8.5475 11.3126 8.2392V8.23915ZM4 4H8C8.53043 4 9.03914 4.21071 9.41421 4.58579C9.78929 4.96086 10 5.46957 10 6C10 6.53043 9.78929 7.03914 9.41421 7.41421C9.03914 7.78929 8.53043 8 8 8H4V4ZM10 14H4V10H10C10.5304 10 11.0391 10.2107 11.4142 10.5858C11.7893 10.9609 12 11.4696 12 12C12 12.5304 11.7893 13.0391 11.4142 13.4142C11.0391 13.7893 10.5304 14 10 14Z" fill="var(--fill-0, #1E1F26)"/>
</svg>
