<svg preserveAspectRatio="none" width="100%" height="100%" overflow="visible" style="display: block;" viewBox="0 0 24 20" fill="none" xmlns="http://www.w3.org/2000/svg">
<path id="Vector" d="M17 18H5C4.20435 18 3.44129 17.6839 2.87868 17.1213C2.31607 16.5587 2 15.7956 2 15V7C2 6.73478 1.89464 6.48043 1.70711 6.29289C1.51957 6.10536 1.26522 6 1 6C0.734784 6 0.48043 6.10536 0.292893 6.29289C0.105357 6.48043 0 6.73478 0 7L0 15C0 16.3261 0.526784 17.5979 1.46447 18.5355C2.40215 19.4732 3.67392 20 5 20H17C17.2652 20 17.5196 19.8946 17.7071 19.7071C17.8946 19.5196 18 19.2652 18 19C18 18.7348 17.8946 18.4804 17.7071 18.2929C17.5196 18.1054 17.2652 18 17 18ZM21 0H7C6.20435 0 5.44129 0.316071 4.87868 0.87868C4.31607 1.44129 4 2.20435 4 3V13C4 13.7956 4.31607 14.5587 4.87868 15.1213C5.44129 15.6839 6.20435 16 7 16H21C21.7956 16 22.5587 15.6839 23.1213 15.1213C23.6839 14.5587 24 13.7956 24 13V3C24 2.20435 23.6839 1.44129 23.1213 0.87868C22.5587 0.316071 21.7956 0 21 0V0ZM20.59 2L14.71 7.88C14.617 7.97373 14.5064 8.04812 14.3846 8.09889C14.2627 8.14966 14.132 8.1758 14 8.1758C13.868 8.1758 13.7373 8.14966 13.6154 8.09889C13.4936 8.04812 13.383 7.97373 13.29 7.88L7.41 2H20.59ZM22 13C22 13.2652 21.8946 13.5196 21.7071 13.7071C21.5196 13.8946 21.2652 14 21 14H7C6.73478 14 6.48043 13.8946 6.29289 13.7071C6.10536 13.5196 6 13.2652 6 13V3.37L11.88 9.25C12.4425 9.8118 13.205 10.1274 14 10.1274C14.795 10.1274 15.5575 9.8118 16.12 9.25L22 3.37V13Z" fill="var(--fill-0, #1E1F26)"/>
</svg>
