<svg preserveAspectRatio="none" width="100%" height="100%" overflow="visible" style="display: block;" viewBox="0 0 18.0067 20" fill="none" xmlns="http://www.w3.org/2000/svg">
<path id="Vector" d="M11 10.95C11 10.6848 10.8946 10.4304 10.7071 10.2429C10.5196 10.0554 10.2652 9.95 10 9.95H5C4.73478 9.95 4.48043 10.0554 4.29289 10.2429C4.10536 10.4304 4 10.6848 4 10.95C4 11.2152 4.10536 11.4696 4.29289 11.6571C4.48043 11.8446 4.73478 11.95 5 11.95H10C10.2652 11.95 10.5196 11.8446 10.7071 11.6571C10.8946 11.4696 11 11.2152 11 10.95ZM16 15.95C15.5752 15.9514 15.1619 16.088 14.82 16.34L13.07 15.54L14.98 14.66C15.2819 14.8433 15.6269 14.9433 15.98 14.95C16.3756 14.95 16.7622 14.8327 17.0911 14.6129C17.42 14.3932 17.6764 14.0808 17.8278 13.7154C17.9791 13.3499 18.0187 12.9478 17.9416 12.5598C17.8644 12.1719 17.6739 11.8155 17.3942 11.5358C17.1145 11.2561 16.7581 11.0656 16.3702 10.9884C15.9822 10.9113 15.5801 10.9509 15.2146 11.1022C14.8492 11.2536 14.5368 11.51 14.3171 11.8389C14.0973 12.1678 13.98 12.5544 13.98 12.95L12.09 13.82C11.831 13.6363 11.5321 13.5168 11.2178 13.4716C10.9035 13.4263 10.583 13.4565 10.2827 13.5597C9.98242 13.6629 9.71102 13.8361 9.49095 14.065C9.27089 14.2939 9.10848 14.5718 9.01717 14.876C8.92585 15.1801 8.90825 15.5015 8.96583 15.8138C9.0234 16.126 9.15449 16.4201 9.34826 16.6716C9.54202 16.9232 9.79289 17.125 10.0801 17.2603C10.3673 17.3957 10.6827 17.4607 11 17.45C11.3222 17.4501 11.639 17.3675 11.92 17.21L14.02 18.21C14.0643 18.5926 14.2182 18.9543 14.4631 19.2516C14.708 19.5489 15.0335 19.7692 15.4006 19.8859C15.7677 20.0026 16.1607 20.0109 16.5323 19.9097C16.9039 19.8084 17.2385 19.6021 17.4956 19.3153C17.7528 19.0285 17.9217 18.6736 17.982 18.2932C18.0424 17.9128 17.9916 17.523 17.8357 17.1708C17.6799 16.8185 17.4256 16.5188 17.1035 16.3075C16.7814 16.0963 16.4052 15.9826 16.02 15.98L16 15.95ZM8 17.95H3C2.73478 17.95 2.48043 17.8446 2.29289 17.6571C2.10536 17.4696 2 17.2152 2 16.95V2.95C2 2.68478 2.10536 2.43043 2.29289 2.24289C2.48043 2.05536 2.73478 1.95 3 1.95H8V4.95C8 5.74565 8.31607 6.50871 8.87868 7.07132C9.44129 7.63393 10.2044 7.95 11 7.95H14C14 8.21522 14.1054 8.46957 14.2929 8.65711C14.4804 8.84464 14.7348 8.95 15 8.95C15.2652 8.95 15.5196 8.84464 15.7071 8.65711C15.8946 8.46957 16 8.21522 16 7.95V6.95C16 6.95 16 6.95 16 6.89C15.9896 6.79813 15.9695 6.70763 15.94 6.62V6.53C15.8919 6.42718 15.8278 6.33266 15.75 6.25V6.25L9.75 0.25C9.66734 0.172216 9.57282 0.108081 9.47 0.0600001C9.43692 0.0542096 9.40308 0.0542096 9.37 0.0600001C9.28609 0.0295236 9.19878 0.00937534 9.11 0H3C2.20435 0 1.44129 0.316071 0.87868 0.87868C0.316071 1.44129 0 2.20435 0 3V17C0 17.7956 0.316071 18.5587 0.87868 19.1213C1.44129 19.6839 2.20435 20 3 20H8C8.26522 20 8.51957 19.8946 8.70711 19.7071C8.89464 19.5196 9 19.2652 9 19C9 18.7348 8.89464 18.4804 8.70711 18.2929C8.51957 18.1054 8.26522 18 8 18V17.95ZM10 3.36L12.59 5.95H11C10.7348 5.95 10.4804 5.84464 10.2929 5.65711C10.1054 5.46957 10 5.21522 10 4.95V3.36ZM5 13.95C4.73478 13.95 4.48043 14.0554 4.29289 14.2429C4.10536 14.4304 4 14.6848 4 14.95C4 15.2152 4.10536 15.4696 4.29289 15.6571C4.48043 15.8446 4.73478 15.95 5 15.95H6C6.26522 15.95 6.51957 15.8446 6.70711 15.6571C6.89464 15.4696 7 15.2152 7 14.95C7 14.6848 6.89464 14.4304 6.70711 14.2429C6.51957 14.0554 6.26522 13.95 6 13.95H5ZM5 7.95H6C6.26522 7.95 6.51957 7.84464 6.70711 7.65711C6.89464 7.46957 7 7.21522 7 6.95C7 6.68478 6.89464 6.43043 6.70711 6.24289C6.51957 6.05536 6.26522 5.95 6 5.95H5C4.73478 5.95 4.48043 6.05536 4.29289 6.24289C4.10536 6.43043 4 6.68478 4 6.95C4 7.21522 4.10536 7.46957 4.29289 7.65711C4.48043 7.84464 4.73478 7.95 5 7.95Z" fill="var(--fill-0, #1E1F26)"/>
</svg>
