<svg preserveAspectRatio="none" width="100%" height="100%" overflow="visible" style="display: block;" viewBox="0 0 14.0236 20.0006" fill="none" xmlns="http://www.w3.org/2000/svg">
<path id="Vector" d="M12.2818 10.0003C12.2243 7.05725 12.7829 4.13469 13.9218 1.42032C13.9992 1.26222 14.0334 1.0865 14.0211 0.910912C14.0089 0.735325 13.9504 0.566094 13.8518 0.420317C13.7569 0.286885 13.6306 0.178805 13.4842 0.105573C13.3377 0.0323407 13.1755 -0.00380315 13.0118 0.00031657H1.01179C0.844475 0.000595308 0.679901 0.0428531 0.533146 0.123219C0.386391 0.203585 0.262147 0.31949 0.171794 0.460317C0.0731507 0.606094 0.0147324 0.775326 0.00244133 0.950912C-0.00984971 1.1265 0.0244223 1.30222 0.101795 1.46032C1.23522 4.16232 1.79373 7.07068 1.74179 10.0003C1.79931 12.9434 1.24069 15.8659 0.101795 18.5803C0.0244223 18.7384 -0.00984971 18.9141 0.00244133 19.0897C0.0147324 19.2653 0.0731507 19.4345 0.171794 19.5803C0.266719 19.7137 0.392958 19.8218 0.539422 19.8951C0.685887 19.9683 0.848094 20.0044 1.01179 20.0003H13.0118C13.1791 20 13.3437 19.9578 13.4904 19.8774C13.6372 19.797 13.7614 19.6811 13.8518 19.5403C13.9504 19.3945 14.0089 19.2253 14.0211 19.0497C14.0334 18.8741 13.9992 18.6984 13.9218 18.5403C12.7884 15.8383 12.2299 12.93 12.2818 10.0003V10.0003ZM11.5318 18.0003H2.53179C3.38444 15.4203 3.80675 12.7175 3.7818 10.0003C3.79386 7.28092 3.35803 4.57809 2.49179 2.00032H11.4918C10.6391 4.58037 10.2168 7.28314 10.2418 10.0003C10.2297 12.7197 10.6656 15.4225 11.5318 18.0003V18.0003Z" fill="var(--fill-0, #1E1F26)"/>
</svg>
