<svg preserveAspectRatio="none" width="100%" height="100%" overflow="visible" style="display: block;" viewBox="0 0 18 18" fill="none" xmlns="http://www.w3.org/2000/svg">
<path id="Vector" d="M9 18C4.0293 18 0 13.9707 0 9C0 4.0293 4.0293 0 9 0C13.9707 0 18 4.0293 18 9C18 13.9707 13.9707 18 9 18ZM7.7598 5.7735C7.70563 5.73736 7.64268 5.71659 7.57765 5.7134C7.51261 5.71021 7.44792 5.72471 7.39048 5.75537C7.33304 5.78604 7.28499 5.8317 7.25144 5.88751C7.2179 5.94332 7.20012 6.00719 7.2 6.0723V11.9277C7.20012 11.9928 7.2179 12.0567 7.25144 12.1125C7.28499 12.1683 7.33304 12.214 7.39048 12.2446C7.44792 12.2753 7.51261 12.2898 7.57765 12.2866C7.64268 12.2834 7.70563 12.2626 7.7598 12.2265L12.1509 9.2997C12.2003 9.26684 12.2408 9.22228 12.2688 9.17C12.2968 9.11771 12.3115 9.05932 12.3115 9C12.3115 8.94068 12.2968 8.88229 12.2688 8.83C12.2408 8.77772 12.2003 8.73316 12.1509 8.7003L7.7589 5.7735H7.7598Z" fill="var(--fill-0, #0A0D14)"/>
</svg>
