<svg preserveAspectRatio="none" width="100%" height="100%" overflow="visible" style="display: block;" viewBox="0 0 20.0099 20.0099" fill="none" xmlns="http://www.w3.org/2000/svg">
<path id="Vector" d="M8.66409 4.00409H15.0041C15.2693 4.00409 15.5237 4.10945 15.7112 4.29699C15.8987 4.48452 16.0041 4.73888 16.0041 5.00409V11.3441C16.0041 11.6093 16.1094 11.8637 16.297 12.0512C16.4845 12.2387 16.7389 12.3441 17.0041 12.3441C17.2693 12.3441 17.5237 12.2387 17.7112 12.0512C17.8987 11.8637 18.0041 11.6093 18.0041 11.3441V5.00409C18.0041 4.20844 17.688 3.44538 17.1254 2.88277C16.5628 2.32016 15.7997 2.00409 15.0041 2.00409H8.66409C8.39887 2.00409 8.14452 2.10945 7.95698 2.29699C7.76945 2.48452 7.66409 2.73888 7.66409 3.00409C7.66409 3.26931 7.76945 3.52366 7.95698 3.7112C8.14452 3.89873 8.39887 4.00409 8.66409 4.00409V4.00409ZM19.7141 18.2941L1.71409 0.294092C1.52579 0.105788 1.27039 -1.9841e-09 1.00409 0C0.73779 1.9841e-09 0.482395 0.105788 0.294092 0.294092C0.105788 0.482395 1.9841e-09 0.73779 0 1.00409C-1.9841e-09 1.27039 0.105788 1.52579 0.294092 1.71409L2.29409 3.71409C2.10269 4.11717 2.00362 4.55788 2.00409 5.00409V17.0041C2.00508 17.2015 2.06448 17.3942 2.17481 17.558C2.28515 17.7217 2.44147 17.8491 2.62409 17.9241C2.74277 17.9801 2.87292 18.0075 3.00409 18.0041C3.1357 18.0049 3.26616 17.9796 3.388 17.9299C3.50984 17.8801 3.62065 17.8068 3.71409 17.7141L6.41409 15.0041H13.5941L18.2941 19.7141C18.3871 19.8078 18.4977 19.8822 18.6195 19.933C18.7414 19.9838 18.8721 20.0099 19.0041 20.0099C19.1361 20.0099 19.2668 19.9838 19.3887 19.933C19.5105 19.8822 19.6211 19.8078 19.7141 19.7141C19.8078 19.6211 19.8822 19.5105 19.933 19.3887C19.9838 19.2668 20.0099 19.1361 20.0099 19.0041C20.0099 18.8721 19.9838 18.7414 19.933 18.6195C19.8822 18.4977 19.8078 18.3871 19.7141 18.2941V18.2941ZM6.00409 13.0041C5.87249 13.0033 5.74202 13.0286 5.62019 13.0783C5.49835 13.1281 5.38753 13.2014 5.29409 13.2941L4.00409 14.5941V5.41409L11.5941 13.0041H6.00409Z" fill="var(--fill-0, #1E1F26)"/>
</svg>
