<svg preserveAspectRatio="none" width="100%" height="100%" overflow="visible" style="display: block;" viewBox="0 0 20.0002 18.1634" fill="none" xmlns="http://www.w3.org/2000/svg">
<path id="Vector" d="M10.5002 14H9.73016L10.1202 13.33C10.2528 13.0993 10.2883 12.8253 10.2189 12.5684C10.1495 12.3114 9.9809 12.0926 9.75016 11.96C9.51942 11.8274 9.24545 11.7919 8.98853 11.8613C8.7316 11.9307 8.51277 12.0993 8.38016 12.33L8.00016 13L7.62016 12.33C7.48755 12.0993 7.26871 11.9307 7.01179 11.8613C6.75486 11.7919 6.4809 11.8274 6.25016 11.96C6.01942 12.0926 5.85081 12.3114 5.78142 12.5684C5.71203 12.8253 5.74755 13.0993 5.88016 13.33L6.27016 14H5.50016C5.23494 14 4.98059 14.1054 4.79305 14.2929C4.60552 14.4804 4.50016 14.7348 4.50016 15C4.50016 15.2652 4.60552 15.5196 4.79305 15.7071C4.98059 15.8946 5.23494 16 5.50016 16H6.27016L5.88016 16.66C5.74755 16.8907 5.71203 17.1647 5.78142 17.4216C5.85081 17.6786 6.01942 17.8974 6.25016 18.03C6.4809 18.1626 6.75486 18.1981 7.01179 18.1287C7.26871 18.0593 7.48755 17.8907 7.62016 17.66L8.00016 17L8.38016 17.66C8.44582 17.7742 8.53334 17.8744 8.63772 17.9549C8.74211 18.0353 8.86131 18.0944 8.98853 18.1287C9.11575 18.1631 9.24848 18.1721 9.37916 18.1551C9.50984 18.1382 9.63591 18.0957 9.75016 18.03C9.86441 17.9643 9.96461 17.8768 10.045 17.7724C10.1255 17.668 10.1845 17.5488 10.2189 17.4216C10.2533 17.2944 10.2622 17.1617 10.2453 17.031C10.2283 16.9003 10.1858 16.7742 10.1202 16.66L9.73016 16H10.5002C10.7654 16 11.0197 15.8946 11.2073 15.7071C11.3948 15.5196 11.5002 15.2652 11.5002 15C11.5002 14.7348 11.3948 14.4804 11.2073 14.2929C11.0197 14.1054 10.7654 14 10.5002 14ZM19.0002 5H18.2002C18.0968 4.55129 17.9211 4.12237 17.6802 3.73L18.2402 3.17C18.404 2.9787 18.4896 2.73262 18.4799 2.48095C18.4701 2.22927 18.3658 1.99053 18.1877 1.81244C18.0096 1.63434 17.7709 1.53001 17.5192 1.52029C17.2675 1.51057 17.0215 1.59617 16.8302 1.76L16.2702 2.32C15.8778 2.07901 15.4489 1.90339 15.0002 1.8V1C15.0002 0.734784 14.8948 0.48043 14.7073 0.292893C14.5197 0.105357 14.2654 0 14.0002 0C13.7349 0 13.4806 0.105357 13.2931 0.292893C13.1055 0.48043 13.0002 0.734784 13.0002 1V1.8C12.5541 1.90181 12.1282 2.07757 11.7402 2.32L11.1702 1.76C10.9789 1.59617 10.7328 1.51057 10.4811 1.52029C10.2294 1.53001 9.99069 1.63434 9.8126 1.81244C9.6345 1.99053 9.53017 2.22927 9.52045 2.48095C9.51073 2.73262 9.59633 2.9787 9.76016 3.17L10.3202 3.73C10.2302 3.89 10.1602 4.06 10.0802 4.22C9.56601 4.07486 9.0344 4.00084 8.50016 4C7.06642 3.99738 5.67913 4.50826 4.58952 5.44012C3.4999 6.37198 2.78 7.66321 2.56016 9.08C1.81749 9.29049 1.1646 9.73927 0.702024 10.3572C0.239448 10.9752 -0.00716456 11.7281 0.000158502 12.5C0.000528571 13.0429 0.128295 13.5782 0.373184 14.0628C0.618073 14.5473 0.973251 14.9677 1.41016 15.29C1.51507 15.3774 1.63677 15.4424 1.76777 15.481C1.89877 15.5196 2.03629 15.531 2.17184 15.5144C2.30739 15.4978 2.43811 15.4536 2.55594 15.3846C2.67377 15.3155 2.7762 15.2231 2.85693 15.1129C2.93766 15.0028 2.99497 14.8773 3.02534 14.7441C3.0557 14.611 3.05847 14.473 3.03347 14.3388C3.00848 14.2045 2.95625 14.0768 2.88001 13.9635C2.80376 13.8502 2.70512 13.7537 2.59016 13.68C2.4061 13.5434 2.25677 13.3654 2.15428 13.1604C2.05178 12.9554 1.99898 12.7292 2.00016 12.5C2.00016 12.1022 2.15819 11.7206 2.4395 11.4393C2.7208 11.158 3.10233 11 3.50016 11C3.76538 11 4.01973 10.8946 4.20726 10.7071C4.3948 10.5196 4.50016 10.2652 4.50016 10C4.50445 9.0557 4.84268 8.14336 5.455 7.42447C6.06731 6.70558 6.91422 6.22651 7.84581 6.07204C8.77741 5.91757 9.73361 6.09767 10.5452 6.58047C11.3567 7.06326 11.9713 7.81761 12.2802 8.71C12.3388 8.87998 12.4422 9.03099 12.5795 9.14714C12.7168 9.26329 12.8828 9.34028 13.0602 9.37C13.5573 9.45199 14.0145 9.69293 14.3632 10.0567C14.7118 10.4205 14.9332 10.8875 14.994 11.3876C15.0548 11.8878 14.9519 12.3943 14.7006 12.831C14.4493 13.2677 14.0632 13.6112 13.6002 13.81C13.4791 13.8622 13.3695 13.9378 13.2777 14.0325C13.186 14.1272 13.1139 14.2391 13.0655 14.3618C13.0172 14.4845 12.9936 14.6155 12.9961 14.7474C12.9986 14.8792 13.0272 15.0092 13.0802 15.13C13.1582 15.3089 13.2869 15.461 13.4504 15.5676C13.6139 15.6742 13.805 15.7307 14.0002 15.73C14.1385 15.7301 14.2752 15.6994 14.4002 15.64C15.1776 15.3012 15.8385 14.7415 16.3007 14.0304C16.7629 13.3193 17.0061 12.4881 17.0002 11.64C16.9981 11.1059 16.8964 10.5768 16.7002 10.08L16.8302 10.21C17.0164 10.3947 17.2678 10.4989 17.5302 10.5C17.6618 10.5008 17.7922 10.4755 17.9141 10.4258C18.0359 10.376 18.1467 10.3027 18.2402 10.21C18.3339 10.117 18.4083 10.0064 18.459 9.88458C18.5098 9.76272 18.536 9.63201 18.536 9.5C18.536 9.36799 18.5098 9.23728 18.459 9.11542C18.4083 8.99356 18.3339 8.88296 18.2402 8.79L17.6802 8.23C17.9209 7.84112 18.0966 7.41551 18.2002 6.97H19.0002C19.2654 6.97 19.5197 6.86464 19.7073 6.67711C19.8948 6.48957 20.0002 6.23522 20.0002 5.97C20.0002 5.70478 19.8948 5.45043 19.7073 5.26289C19.5197 5.07536 19.2654 4.97 19.0002 4.97V5ZM15.6602 7.64C15.4886 7.81419 15.2848 7.95343 15.0602 8.05C14.7328 7.83053 14.3759 7.65881 14.0002 7.54C13.5331 6.54071 12.7995 5.68954 11.8802 5.08C11.9868 4.81913 12.143 4.58141 12.3402 4.38V4.38C12.7881 3.96246 13.3778 3.73028 13.9902 3.73028C14.6026 3.73028 15.1922 3.96246 15.6402 4.38V4.38C16.0731 4.81803 16.316 5.4091 16.316 6.025C16.316 6.6409 16.0731 7.23197 15.6402 7.67L15.6602 7.64Z" fill="var(--fill-0, #1E1F26)"/>
</svg>
