<svg preserveAspectRatio="none" width="100%" height="100%" overflow="visible" style="display: block;" viewBox="0 0 21.935 22.0283" fill="none" xmlns="http://www.w3.org/2000/svg">
<path id="Vector" d="M21.5676 1.07425C21.5225 0.902975 21.4327 0.746738 21.3074 0.621494C21.1822 0.496249 21.026 0.406484 20.8547 0.361363C18.8033 -0.171448 16.6432 -0.114061 14.623 0.526916C12.6028 1.16789 10.8047 2.36639 9.43574 3.98442L8.32081 5.30825L5.71601 4.67977C5.08275 4.459 4.39099 4.47483 3.76849 4.72432C3.14599 4.97382 2.63479 5.44013 2.32929 6.03715L0.129101 9.93705C0.0520092 10.0737 0.00813609 10.2265 0.00102746 10.3832C-0.00608116 10.5399 0.0237741 10.696 0.0881804 10.8391C0.152587 10.9821 0.249737 11.1079 0.371781 11.2065C0.493824 11.305 0.637337 11.3734 0.790721 11.4063L3.86347 12.0649C3.60318 12.8573 3.41732 13.6722 3.3083 14.499C3.28854 14.6509 3.30393 14.8054 3.35328 14.9504C3.40263 15.0954 3.48464 15.2271 3.59296 15.3355L6.69306 18.4356C6.78588 18.5284 6.89609 18.6021 7.0174 18.6524C7.13872 18.7027 7.26875 18.7286 7.40006 18.7286C7.42887 18.7286 7.45768 18.7271 7.48698 18.7246C8.33232 18.6486 9.16739 18.4844 9.97855 18.2346L10.6222 21.2378C10.6551 21.3912 10.7236 21.5346 10.8222 21.6566C10.9207 21.7786 11.0466 21.8757 11.1896 21.9401C11.3326 22.0045 11.4887 22.0344 11.6454 22.0273C11.802 22.0203 11.9549 21.9765 12.0915 21.8994L15.9967 19.6968C16.5464 19.3628 16.9757 18.8629 17.2229 18.2691C17.47 17.6753 17.5221 17.0184 17.3717 16.3931L16.703 13.6341L17.9401 12.4966C19.5642 11.1315 20.7673 9.33329 21.4095 7.31121C22.0516 5.28913 22.1065 3.12627 21.5676 1.07425V1.07425ZM2.53877 9.73539L4.09492 6.97563C4.19158 6.78828 4.35625 6.645 4.55517 6.57518C4.7541 6.50536 4.97219 6.51429 5.16474 6.60014L6.88215 7.01634L6.23215 7.78813C5.61591 8.52671 5.08292 9.33094 4.64283 10.1863L2.53877 9.73539ZM15.009 17.9576L12.2932 19.4893L11.8637 17.4846C12.7343 17.0504 13.5454 16.506 14.2771 15.8647L15.0206 15.1811L15.424 16.8457C15.4763 17.0512 15.4646 17.2679 15.3905 17.4666C15.3163 17.6653 15.1832 17.8366 15.009 17.9576V17.9576ZM16.6232 10.9923L12.9387 14.3785C11.4802 15.6398 9.68129 16.4415 7.76826 16.6827L5.36396 14.2784C5.68688 12.3604 6.51567 10.5632 7.76484 9.07238L9.44318 7.0797C9.47115 7.05045 9.49724 7.01947 9.52131 6.98693L10.9563 5.28325C12.0172 4.03015 13.3917 3.08106 14.9395 2.5329C16.4872 1.98473 18.1527 1.85714 19.7658 2.16313C20.0792 3.78135 19.953 5.454 19.4003 7.00686C18.8476 8.55971 17.8886 9.93596 16.6232 10.9923V10.9923ZM15.7002 4.82849C15.4036 4.82849 15.1136 4.91647 14.8669 5.08129C14.6202 5.24611 14.428 5.48038 14.3144 5.75447C14.2009 6.02856 14.1712 6.33016 14.2291 6.62113C14.2869 6.9121 14.4298 7.17937 14.6396 7.38915C14.8494 7.59893 15.1166 7.74179 15.4076 7.79967C15.6986 7.85755 16.0002 7.82784 16.2743 7.71431C16.5484 7.60078 16.7826 7.40852 16.9474 7.16185C17.1123 6.91517 17.2002 6.62517 17.2002 6.32849C17.2003 6.1315 17.1615 5.93644 17.0861 5.75444C17.0107 5.57244 16.9002 5.40708 16.7609 5.26778C16.6216 5.12849 16.4563 5.018 16.2743 4.94262C16.0923 4.86725 15.8972 4.82846 15.7002 4.82847L15.7002 4.82849Z" fill="var(--fill-0, #1E1F26)"/>
</svg>
