<svg preserveAspectRatio="none" width="100%" height="100%" overflow="visible" style="display: block;" viewBox="0 0 20.0116 20.0099" fill="none" xmlns="http://www.w3.org/2000/svg">
<path id="Vector" d="M8.3858 11.0841C8.26558 11.0329 8.13648 11.0057 8.0058 11.0041H4.0058C3.74058 11.0041 3.48623 11.1094 3.29869 11.297C3.11116 11.4845 3.0058 11.7389 3.0058 12.0041C3.0058 12.2693 3.11116 12.5237 3.29869 12.7112C3.48623 12.8987 3.74058 13.0041 4.0058 13.0041H5.5958L0.295798 18.2941C0.20207 18.3871 0.127676 18.4977 0.0769069 18.6195C0.0261382 18.7414 0 18.8721 0 19.0041C0 19.1361 0.0261382 19.2668 0.0769069 19.3887C0.127676 19.5105 0.20207 19.6211 0.295798 19.7141C0.388761 19.8078 0.499363 19.8822 0.621222 19.933C0.743081 19.9838 0.873786 20.0099 1.0058 20.0099C1.13781 20.0099 1.26852 19.9838 1.39037 19.933C1.51223 19.8822 1.62284 19.8078 1.7158 19.7141L7.0058 14.4141V16.0041C7.0058 16.2693 7.11116 16.5237 7.29869 16.7112C7.48623 16.8987 7.74058 17.0041 8.0058 17.0041C8.27101 17.0041 8.52537 16.8987 8.7129 16.7112C8.90044 16.5237 9.0058 16.2693 9.0058 16.0041V12.0041C9.00422 11.8734 8.97704 11.7443 8.9258 11.6241C8.82432 11.3797 8.63015 11.1856 8.3858 11.0841ZM8.0058 3.00409C7.74058 3.00409 7.48623 3.10945 7.29869 3.29699C7.11116 3.48452 7.0058 3.73888 7.0058 4.00409V5.59409L1.7158 0.294092C1.62256 0.200853 1.51187 0.126892 1.39005 0.0764319C1.26823 0.0259715 1.13766 0 1.0058 0C0.873939 0 0.743371 0.0259715 0.621549 0.0764319C0.499727 0.126892 0.389037 0.200853 0.295798 0.294092C0.107495 0.482395 0.00170672 0.73779 0.00170672 1.00409C0.00170672 1.27039 0.107495 1.52579 0.295798 1.71409L5.5958 7.00409H4.0058C3.74058 7.00409 3.48623 7.10945 3.29869 7.29699C3.11116 7.48452 3.0058 7.73887 3.0058 8.00409C3.0058 8.26931 3.11116 8.52366 3.29869 8.7112C3.48623 8.89873 3.74058 9.00409 4.0058 9.00409H8.0058C8.13648 9.00251 8.26558 8.97533 8.3858 8.92409C8.63015 8.82262 8.82432 8.62844 8.9258 8.38409C8.97704 8.26387 9.00422 8.13477 9.0058 8.00409V4.00409C9.0058 3.73888 8.90044 3.48452 8.7129 3.29699C8.52537 3.10945 8.27101 3.00409 8.0058 3.00409ZM11.6258 8.92409C11.746 8.97533 11.8751 9.00251 12.0058 9.00409H16.0058C16.271 9.00409 16.5254 8.89873 16.7129 8.7112C16.9004 8.52366 17.0058 8.26931 17.0058 8.00409C17.0058 7.73887 16.9004 7.48452 16.7129 7.29699C16.5254 7.10945 16.271 7.00409 16.0058 7.00409H14.4158L19.7158 1.71409C19.9041 1.52579 20.0099 1.27039 20.0099 1.00409C20.0099 0.73779 19.9041 0.482395 19.7158 0.294092C19.5275 0.105788 19.2721 0 19.0058 0C18.7395 0 18.4841 0.105788 18.2958 0.294092L13.0058 5.59409V4.00409C13.0058 3.73888 12.9004 3.48452 12.7129 3.29699C12.5254 3.10945 12.271 3.00409 12.0058 3.00409C11.7406 3.00409 11.4862 3.10945 11.2987 3.29699C11.1112 3.48452 11.0058 3.73888 11.0058 4.00409V8.00409C11.0074 8.13477 11.0346 8.26387 11.0858 8.38409C11.1873 8.62844 11.3814 8.82262 11.6258 8.92409V8.92409ZM14.4158 13.0041H16.0058C16.271 13.0041 16.5254 12.8987 16.7129 12.7112C16.9004 12.5237 17.0058 12.2693 17.0058 12.0041C17.0058 11.7389 16.9004 11.4845 16.7129 11.297C16.5254 11.1094 16.271 11.0041 16.0058 11.0041H12.0058C11.8751 11.0057 11.746 11.0329 11.6258 11.0841C11.3814 11.1856 11.1873 11.3797 11.0858 11.6241C11.0346 11.7443 11.0074 11.8734 11.0058 12.0041V16.0041C11.0058 16.2693 11.1112 16.5237 11.2987 16.7112C11.4862 16.8987 11.7406 17.0041 12.0058 17.0041C12.271 17.0041 12.5254 16.8987 12.7129 16.7112C12.9004 16.5237 13.0058 16.2693 13.0058 16.0041V14.4141L18.2958 19.7141C18.3888 19.8078 18.4994 19.8822 18.6212 19.933C18.7431 19.9838 18.8738 20.0099 19.0058 20.0099C19.1378 20.0099 19.2685 19.9838 19.3904 19.933C19.5122 19.8822 19.6228 19.8078 19.7158 19.7141C19.8095 19.6211 19.8839 19.5105 19.9347 19.3887C19.9855 19.2668 20.0116 19.1361 20.0116 19.0041C20.0116 18.8721 19.9855 18.7414 19.9347 18.6195C19.8839 18.4977 19.8095 18.3871 19.7158 18.2941L14.4158 13.0041Z" fill="var(--fill-0, #1E1F26)"/>
</svg>
