<svg preserveAspectRatio="none" width="100%" height="100%" overflow="visible" style="display: block;" viewBox="0 0 22 20.0235" fill="none" xmlns="http://www.w3.org/2000/svg">
<path id="Vector" d="M21 14H18.82C18.9364 13.6793 18.9973 13.3411 19 13V8C19 7.20435 18.6839 6.44129 18.1213 5.87868C17.5587 5.31607 16.7956 5 16 5H10C9.20435 5 8.44129 5.31607 7.87868 5.87868C7.31607 6.44129 7 7.20435 7 8V13C7.0027 13.3411 7.06358 13.6793 7.18 14H6C5.73478 14 5.48043 13.8946 5.29289 13.7071C5.10536 13.5196 5 13.2652 5 13V3C5 2.20435 4.68393 1.44129 4.12132 0.87868C3.55871 0.316071 2.79565 0 2 0H1C0.734784 0 0.48043 0.105357 0.292893 0.292893C0.105357 0.48043 0 0.734784 0 1C0 1.26522 0.105357 1.51957 0.292893 1.70711C0.48043 1.89464 0.734784 2 1 2H2C2.26522 2 2.51957 2.10536 2.70711 2.29289C2.89464 2.48043 3 2.73478 3 3V13C3.00369 13.6569 3.22288 14.2944 3.62392 14.8147C4.02497 15.335 4.58569 15.7092 5.22 15.88C5.03583 16.3305 4.96406 16.8191 5.01087 17.3036C5.05767 17.7881 5.22166 18.2539 5.48867 18.6609C5.75568 19.0678 6.11771 19.4037 6.5435 19.6395C6.96929 19.8753 7.44607 20.004 7.93269 20.0144C8.41931 20.0249 8.90116 19.9167 9.33667 19.6994C9.77217 19.482 10.1482 19.1619 10.4324 18.7668C10.7167 18.3717 10.9004 17.9133 10.968 17.4313C11.0355 16.9492 10.9847 16.458 10.82 16H14.18C14.0155 16.4531 13.9627 16.9392 14.0259 17.4171C14.0892 17.895 14.2666 18.3506 14.5433 18.7454C14.82 19.1401 15.1877 19.4624 15.6154 19.6849C16.043 19.9074 16.5179 20.0235 17 20.0235C17.4821 20.0235 17.957 19.9074 18.3846 19.6849C18.8123 19.4624 19.18 19.1401 19.4567 18.7454C19.7334 18.3506 19.9108 17.895 19.9741 17.4171C20.0373 16.9392 19.9845 16.4531 19.82 16H21C21.2652 16 21.5196 15.8946 21.7071 15.7071C21.8946 15.5196 22 15.2652 22 15C22 14.7348 21.8946 14.4804 21.7071 14.2929C21.5196 14.1054 21.2652 14 21 14ZM8 18C7.80222 18 7.60888 17.9414 7.44443 17.8315C7.27998 17.7216 7.15181 17.5654 7.07612 17.3827C7.00043 17.2 6.98063 16.9989 7.01921 16.8049C7.0578 16.6109 7.15304 16.4327 7.29289 16.2929C7.43275 16.153 7.61093 16.0578 7.80491 16.0192C7.99889 15.9806 8.19996 16.0004 8.38268 16.0761C8.56541 16.1518 8.72159 16.28 8.83147 16.4444C8.94135 16.6089 9 16.8022 9 17C9 17.2652 8.89464 17.5196 8.70711 17.7071C8.51957 17.8946 8.26522 18 8 18ZM10 14C9.73478 14 9.48043 13.8946 9.29289 13.7071C9.10536 13.5196 9 13.2652 9 13V8C9 7.73478 9.10536 7.48043 9.29289 7.29289C9.48043 7.10536 9.73478 7 10 7H16C16.2652 7 16.5196 7.10536 16.7071 7.29289C16.8946 7.48043 17 7.73478 17 8V13C17 13.2652 16.8946 13.5196 16.7071 13.7071C16.5196 13.8946 16.2652 14 16 14H10ZM17 18C16.8022 18 16.6089 17.9414 16.4444 17.8315C16.28 17.7216 16.1518 17.5654 16.0761 17.3827C16.0004 17.2 15.9806 16.9989 16.0192 16.8049C16.0578 16.6109 16.153 16.4327 16.2929 16.2929C16.4327 16.153 16.6109 16.0578 16.8049 16.0192C16.9989 15.9806 17.2 16.0004 17.3827 16.0761C17.5654 16.1518 17.7216 16.28 17.8315 16.4444C17.9414 16.6089 18 16.8022 18 17C18 17.2652 17.8946 17.5196 17.7071 17.7071C17.5196 17.8946 17.2652 18 17 18Z" fill="var(--fill-0, #1E1F26)"/>
</svg>
