<svg preserveAspectRatio="none" width="100%" height="100%" overflow="visible" style="display: block;" viewBox="0 0 20 20.0038" fill="none" xmlns="http://www.w3.org/2000/svg">
<path id="Vector" d="M17.44 3.32199L17.38 3.25199C16.443 2.22729 15.3029 1.40893 14.0323 0.849042C12.7617 0.289152 11.3885 0 9.99998 0C8.61149 0 7.23821 0.289152 5.96761 0.849042C4.69701 1.40893 3.55693 2.22729 2.61998 3.25199L2.55998 3.32199C1.4757 4.52932 0.701519 5.98238 0.304268 7.55575C-0.0929822 9.12912 -0.10137 10.7755 0.279828 12.3529C0.661026 13.9302 1.42036 15.3911 2.49228 16.6094C3.5642 17.8277 4.91651 18.7668 6.43247 19.3458C7.94844 19.9247 9.58252 20.126 11.1937 19.9323C12.8048 19.7386 14.3446 19.1557 15.6802 18.2339C17.0157 17.3122 18.1069 16.0793 18.8595 14.6416C19.6121 13.204 20.0035 11.6047 20 9.98199C20.0012 7.5215 19.089 5.14816 17.44 3.32199V3.32199ZM9.99998 1.98199C11.3512 1.97844 12.6805 2.32283 13.86 2.98199H6.13998C7.31947 2.32283 8.6488 1.97844 9.99998 1.98199V1.98199ZM3.75998 4.98199H16.24C17.1613 6.13401 17.7462 7.51835 17.93 8.98199H2.06998C2.25375 7.51835 2.83863 6.13401 3.75998 4.98199ZM9.99998 17.982C8.05268 17.9802 6.17289 17.2683 4.71301 15.9796C3.25312 14.6909 2.31339 12.914 2.06998 10.982H17.93C17.6866 12.914 16.7468 14.6909 15.2869 15.9796C13.8271 17.2683 11.9473 17.9802 9.99998 17.982ZM5.99998 5.98199C5.80219 5.98199 5.60886 6.04064 5.44441 6.15052C5.27996 6.2604 5.15178 6.41658 5.0761 6.59931C5.00041 6.78204 4.98061 6.9831 5.01919 7.17708C5.05778 7.37106 5.15302 7.54925 5.29287 7.6891C5.43272 7.82895 5.6109 7.92419 5.80489 7.96278C5.99887 8.00136 6.19993 7.98156 6.38266 7.90587C6.56539 7.83018 6.72156 7.70201 6.83145 7.53756C6.94133 7.37311 6.99998 7.17977 6.99998 6.98199C6.99998 6.71678 6.89462 6.46242 6.70708 6.27489C6.51955 6.08735 6.26519 5.98199 5.99998 5.98199V5.98199ZM12 5.98199C11.8022 5.98199 11.6089 6.04064 11.4444 6.15052C11.28 6.2604 11.1518 6.41658 11.0761 6.59931C11.0004 6.78204 10.9806 6.9831 11.0192 7.17708C11.0578 7.37106 11.153 7.54925 11.2929 7.6891C11.4327 7.82895 11.6109 7.92419 11.8049 7.96278C11.9989 8.00136 12.1999 7.98156 12.3827 7.90587C12.5654 7.83018 12.7216 7.70201 12.8314 7.53756C12.9413 7.37311 13 7.17977 13 6.98199C13 6.71678 12.8946 6.46242 12.7071 6.27489C12.5195 6.08735 12.2652 5.98199 12 5.98199ZM8.99998 15.912C9.14943 15.9967 9.31819 16.0415 9.48998 16.042C9.66717 16.0417 9.84111 15.9943 9.99397 15.9047C10.1468 15.8151 10.2731 15.6865 10.36 15.532C10.6203 15.0604 11.0029 14.6676 11.4674 14.3949C11.9319 14.1222 12.4613 13.9795 13 13.982C13.2652 13.982 13.5195 13.8766 13.7071 13.6891C13.8946 13.5016 14 13.2472 14 12.982C14 12.7168 13.8946 12.4624 13.7071 12.2749C13.5195 12.0873 13.2652 11.982 13 11.982C12.1086 11.982 11.2334 12.2202 10.4651 12.6721C9.69676 13.1239 9.06318 13.773 8.62998 14.552C8.4996 14.7816 8.46534 15.0535 8.53465 15.3083C8.60397 15.563 8.77124 15.7801 8.99998 15.912V15.912Z" fill="var(--fill-0, #1E1F26)"/>
</svg>
