<svg preserveAspectRatio="none" width="100%" height="100%" overflow="visible" style="display: block;" viewBox="0 0 20.1358 20.0018" fill="none" xmlns="http://www.w3.org/2000/svg">
<path id="Vector" d="M19.7658 0.861846C19.6496 0.767868 19.5139 0.70112 19.3685 0.666509C19.2231 0.631899 19.0719 0.630306 18.9258 0.661847C18.5252 0.744936 18.1119 0.745216 17.7112 0.66267C17.3105 0.580124 16.9309 0.416496 16.5958 0.181847C16.4274 0.0635041 16.2266 0 16.0208 0C15.815 0 15.6142 0.0635041 15.4458 0.181847C15.1107 0.416496 14.7311 0.580124 14.3304 0.66267C13.9297 0.745216 13.5164 0.744936 13.1158 0.661847C12.9697 0.630306 12.8185 0.631899 12.6731 0.666509C12.5277 0.70112 12.392 0.767868 12.2758 0.861846C12.1611 0.9549 12.0684 1.07221 12.0044 1.20535C11.9405 1.33848 11.9068 1.48414 11.9058 1.63185V5.00185C11.9075 5.72592 12.0817 6.43918 12.4138 7.08258C12.746 7.72599 13.2265 8.28106 13.8158 8.70185L15.4358 9.86185C15.6061 9.9847 15.8108 10.0508 16.0208 10.0508C16.2308 10.0508 16.4355 9.9847 16.6058 9.86185L18.2258 8.70185C18.8151 8.28106 19.2956 7.72599 19.6278 7.08258C19.9599 6.43918 20.1341 5.72592 20.1358 5.00185V1.63185C20.1348 1.48414 20.1011 1.33848 20.0372 1.20535C19.9732 1.07221 19.8805 0.9549 19.7658 0.861846V0.861846ZM18.1358 5.00185C18.1224 5.39486 18.0189 5.77954 17.8334 6.12628C17.6479 6.47301 17.3853 6.77256 17.0658 7.00185L16.0658 7.74185L14.9758 7.00185C14.6563 6.77256 14.3937 6.47301 14.2082 6.12628C14.0227 5.77954 13.9193 5.39486 13.9058 5.00185V2.72185C14.6572 2.69775 15.3944 2.51005 16.0658 2.17185C16.7215 2.50456 17.4411 2.69214 18.1758 2.72185L18.1358 5.00185ZM16.9958 12.0018C16.7399 11.9381 16.4692 11.978 16.2426 12.1128C16.016 12.2476 15.8518 12.4665 15.7858 12.7218C15.403 14.232 14.5273 15.5714 13.2974 16.5278C12.0676 17.4841 10.5538 18.0029 8.99581 18.0018H3.41581L4.06581 17.3718C4.24018 17.1864 4.33726 16.9414 4.33726 16.6868C4.33726 16.4323 4.24018 16.1873 4.06581 16.0018C3.07064 15.0268 2.38907 13.777 2.10832 12.4124C1.82757 11.0477 1.96041 9.63038 2.48985 8.34169C3.01929 7.05299 3.92123 5.9516 5.08025 5.17847C6.23926 4.40535 7.60261 3.99566 8.99581 4.00185C9.26102 4.00185 9.51538 3.89649 9.70291 3.70895C9.89045 3.52142 9.99581 3.26706 9.99581 3.00185C9.99581 2.73663 9.89045 2.48228 9.70291 2.29474C9.51538 2.1072 9.26102 2.00185 8.99581 2.00185C7.30327 2.00741 5.64661 2.49013 4.21599 3.39458C2.78538 4.29904 1.6388 5.58858 0.907876 7.11516C0.176954 8.64175 -0.108684 10.3435 0.083752 12.0251C0.276188 13.7066 0.938899 15.2999 1.99581 16.6218L0.295808 18.2918C0.155386 18.4311 0.0594149 18.6089 0.0200297 18.8027C-0.0193554 18.9965 -0.000385858 19.1977 0.0745397 19.3807C0.149465 19.5637 0.276982 19.7204 0.440965 19.831C0.604949 19.9416 0.798035 20.001 0.995808 20.0018H8.99581C10.9921 20.0031 12.9321 19.3407 14.5107 18.1187C16.0892 16.8968 17.2167 15.1847 17.7158 13.2518C17.7534 13.1225 17.7645 12.9868 17.7484 12.8531C17.7323 12.7193 17.6894 12.5902 17.6221 12.4734C17.5549 12.3567 17.4647 12.2547 17.3571 12.1737C17.2495 12.0927 17.1266 12.0342 16.9958 12.0018Z" fill="var(--fill-0, #1E1F26)"/>
</svg>
