<svg preserveAspectRatio="none" width="100%" height="100%" overflow="visible" style="display: block;" viewBox="0 0 12.5 9.99998" fill="none" xmlns="http://www.w3.org/2000/svg">
<path id="Vector" d="M6.2472 7.49817C7.62789 7.49817 8.7472 6.37886 8.7472 4.99817C8.7472 3.61746 7.62789 2.49817 6.2472 2.49817C4.86647 2.49817 3.74718 3.61746 3.74718 4.99817C3.74718 6.37886 4.86647 7.49817 6.2472 7.49817ZM11.875 0H0.625C0.279825 0 0 0.279819 0 0.625V9.37498C0 9.72017 0.279825 9.99998 0.625 9.99998H11.875C12.2202 9.99998 12.5 9.72017 12.5 9.37498V0.625C12.5 0.279819 12.2202 0 11.875 0ZM1.25 7.27711V2.71924C1.95361 2.50879 2.50842 1.95374 2.71854 1.25H9.77583C9.98651 1.95562 10.5437 2.51176 11.25 2.72092V7.27542C10.5425 7.48492 9.98457 8.04261 9.7747 8.74998H2.71964C2.51035 8.04454 1.95483 7.48792 1.25 7.27711Z" fill="var(--fill-0, #525866)"/>
</svg>
