<svg preserveAspectRatio="none" width="100%" height="100%" overflow="visible" style="display: block;" viewBox="0 0 20.0058 15.9823" fill="none" xmlns="http://www.w3.org/2000/svg">
<path id="Vector" d="M10.43 0.0822097C10.2676 0.0119517 10.0895 -0.0139583 9.91379 0.00712359C9.73811 0.0282055 9.57116 0.0955244 9.43 0.20221L4.65 3.98221H1C0.734784 3.98221 0.48043 4.08757 0.292893 4.2751C0.105357 4.46264 0 4.71699 0 4.98221V10.9822C0 11.2474 0.105357 11.5018 0.292893 11.6893C0.48043 11.8769 0.734784 11.9822 1 11.9822H4.65L9.38 15.7622C9.55594 15.9034 9.77444 15.9809 10 15.9822C10.1494 15.9847 10.297 15.9503 10.43 15.8822C10.6002 15.8012 10.744 15.6737 10.8448 15.5144C10.9457 15.3552 10.9995 15.1707 11 14.9822V0.98221C10.9995 0.793724 10.9457 0.609226 10.8448 0.449988C10.744 0.290751 10.6002 0.163258 10.43 0.0822097V0.0822097ZM9 12.9022L5.62 10.2022C5.44406 10.061 5.22556 9.98352 5 9.98221H2V5.98221H5C5.22556 5.9809 5.44406 5.90337 5.62 5.76221L9 3.06221V12.9022ZM17.91 7.98221L19.71 6.19221C19.8032 6.09897 19.8772 5.98828 19.9277 5.86646C19.9781 5.74464 20.0041 5.61407 20.0041 5.48221C20.0041 5.35035 19.9781 5.21978 19.9277 5.09796C19.8772 4.97614 19.8032 4.86545 19.71 4.77221C19.6168 4.67897 19.5061 4.60501 19.3842 4.55455C19.2624 4.50409 19.1319 4.47812 19 4.47812C18.8681 4.47812 18.7376 4.50409 18.6158 4.55455C18.4939 4.60501 18.3832 4.67897 18.29 4.77221L16.5 6.57221L14.71 4.77221C14.5217 4.58391 14.2663 4.47812 14 4.47812C13.7337 4.47812 13.4783 4.58391 13.29 4.77221C13.1017 4.96051 12.9959 5.21591 12.9959 5.48221C12.9959 5.74851 13.1017 6.00391 13.29 6.19221L15.09 7.98221L13.29 9.77221C13.1963 9.86517 13.1219 9.97577 13.0711 10.0976C13.0203 10.2195 12.9942 10.3502 12.9942 10.4822C12.9942 10.6142 13.0203 10.7449 13.0711 10.8668C13.1219 10.9886 13.1963 11.0992 13.29 11.1922C13.383 11.2859 13.4936 11.3603 13.6154 11.4111C13.7373 11.4619 13.868 11.488 14 11.488C14.132 11.488 14.2627 11.4619 14.3846 11.4111C14.5064 11.3603 14.617 11.2859 14.71 11.1922L16.5 9.39221L18.29 11.1922C18.383 11.2859 18.4936 11.3603 18.6154 11.4111C18.7373 11.4619 18.868 11.488 19 11.488C19.132 11.488 19.2627 11.4619 19.3846 11.4111C19.5064 11.3603 19.617 11.2859 19.71 11.1922C19.8037 11.0992 19.8781 10.9886 19.9289 10.8668C19.9797 10.7449 20.0058 10.6142 20.0058 10.4822C20.0058 10.3502 19.9797 10.2195 19.9289 10.0976C19.8781 9.97577 19.8037 9.86517 19.71 9.77221L17.91 7.98221Z" fill="var(--fill-0, #1E1F26)"/>
</svg>
