<svg preserveAspectRatio="none" width="100%" height="100%" overflow="visible" style="display: block;" viewBox="0 0 20 20" fill="none" xmlns="http://www.w3.org/2000/svg">
<path id="Vector" d="M2.5 8H8C8.70003 7.99836 9.37745 7.75197 9.91495 7.30349C10.4525 6.85502 10.8162 6.23269 10.9432 5.54427C11.0702 4.85586 10.9525 4.1447 10.6104 3.53395C10.2683 2.9232 9.72336 2.45131 9.07 2.2C8.69402 1.46203 8.09823 0.858975 7.36489 0.474064C6.63154 0.0891529 5.79679 -0.0586277 4.97587 0.051121C4.15495 0.16087 3.38834 0.522736 2.78186 1.08677C2.17537 1.6508 1.75893 2.38919 1.59 3.2C1.06481 3.42315 0.63176 3.81926 0.362787 4.32252C0.0938149 4.82579 0.00510625 5.40593 0.111396 5.96658C0.217685 6.52723 0.512576 7.03464 0.947086 7.40454C1.3816 7.77444 1.92957 7.98456 2.5 8V8ZM2.5 5C2.76522 5 3.01957 4.89464 3.20711 4.70711C3.39464 4.51957 3.5 4.26522 3.5 4C3.5033 3.52827 3.67324 3.07289 3.9798 2.71433C4.28635 2.35577 4.70978 2.11711 5.17527 2.04053C5.64075 1.96395 6.11832 2.05437 6.52359 2.29581C6.92886 2.53726 7.23574 2.91419 7.39 3.36C7.44866 3.52998 7.55207 3.68099 7.68934 3.79714C7.82661 3.91329 7.99266 3.99028 8.17 4.02C8.40139 4.05991 8.61135 4.17998 8.76311 4.35916C8.91486 4.53833 8.99872 4.7652 9 5C9 5.26522 8.89464 5.51957 8.70711 5.70711C8.51957 5.89464 8.26522 6 8 6H2.5C2.36739 6 2.24021 5.94732 2.14645 5.85355C2.05268 5.75979 2 5.63261 2 5.5C2 5.36739 2.05268 5.24021 2.14645 5.14645C2.24021 5.05268 2.36739 5 2.5 5V5ZM17 0H12C11.7348 0 11.4804 0.105357 11.2929 0.292893C11.1054 0.48043 11 0.734784 11 1C11 1.26522 11.1054 1.51957 11.2929 1.70711C11.4804 1.89464 11.7348 2 12 2H17C17.2652 2 17.5196 2.10536 17.7071 2.29289C17.8946 2.48043 18 2.73478 18 3V10H1C0.734784 10 0.48043 10.1054 0.292893 10.2929C0.105357 10.4804 0 10.7348 0 11V13C0 13.7956 0.316071 14.5587 0.87868 15.1213C1.44129 15.6839 2.20435 16 3 16H6V18H3C2.73478 18 2.48043 18.1054 2.29289 18.2929C2.10536 18.4804 2 18.7348 2 19C2 19.2652 2.10536 19.5196 2.29289 19.7071C2.48043 19.8946 2.73478 20 3 20H17C17.2652 20 17.5196 19.8946 17.7071 19.7071C17.8946 19.5196 18 19.2652 18 19C18 18.7348 17.8946 18.4804 17.7071 18.2929C17.5196 18.1054 17.2652 18 17 18H14V16H17C17.7956 16 18.5587 15.6839 19.1213 15.1213C19.6839 14.5587 20 13.7956 20 13V3C20 2.20435 19.6839 1.44129 19.1213 0.87868C18.5587 0.316071 17.7956 0 17 0ZM12 18H8V16H12V18ZM18 13C18 13.2652 17.8946 13.5196 17.7071 13.7071C17.5196 13.8946 17.2652 14 17 14H3C2.73478 14 2.48043 13.8946 2.29289 13.7071C2.10536 13.5196 2 13.2652 2 13V12H18V13Z" fill="var(--fill-0, #1E1F26)"/>
</svg>
