<svg preserveAspectRatio="none" width="100%" height="100%" overflow="visible" style="display: block;" viewBox="0 0 20.2458 20.2458" fill="none" xmlns="http://www.w3.org/2000/svg">
<path id="Vector" d="M17.1929 3.05288C16.2704 2.09778 15.167 1.33596 13.9469 0.811868C12.7269 0.287778 11.4147 0.0119157 10.0869 0.000377568C8.7591 -0.0111606 7.44231 0.241856 6.21334 0.744665C4.98438 1.24747 3.86786 1.99001 2.92893 2.92893C1.99001 3.86786 1.24747 4.98438 0.744665 6.21334C0.241856 7.44231 -0.0111606 8.7591 0.000377568 10.0869C0.0119157 11.4147 0.287778 12.7269 0.811868 13.9469C1.33596 15.167 2.09778 16.2704 3.05288 17.1929C3.97535 18.148 5.0788 18.9098 6.29884 19.4339C7.51888 19.958 8.83108 20.2338 10.1589 20.2454C11.4867 20.2569 12.8035 20.0039 14.0324 19.5011C15.2614 18.9983 16.3779 18.2558 17.3168 17.3168C18.2558 16.3779 18.9983 15.2614 19.5011 14.0324C20.0039 12.8035 20.2569 11.4867 20.2454 10.1589C20.2338 8.83108 19.958 7.51888 19.4339 6.29884C18.9098 5.0788 18.148 3.97535 17.1929 3.05288V3.05288ZM16.3529 5.12288H10.8829L13.2329 2.77288C14.4482 3.29138 15.519 4.09794 16.3529 5.12288V5.12288ZM7.12288 2.72288C8.35001 2.23173 9.67818 2.0464 10.9929 2.18288L7.12288 6.05288V2.72288ZM5.12288 3.89288V9.36288L3.31288 7.55288L2.77288 7.01288C3.29138 5.79757 4.09794 4.72674 5.12288 3.89288V3.89288ZM2.72288 13.1229C2.23055 11.8961 2.04519 10.5676 2.18288 9.25288L6.05288 13.1229H2.72288ZM3.89288 15.1229H9.36288L7.01288 17.4729C5.79757 16.9544 4.72674 16.1478 3.89288 15.1229V15.1229ZM13.1229 17.5229C11.896 18.0148 10.5676 18.2002 9.25288 18.0629L13.1229 14.1929V17.5229ZM13.1229 11.3629L11.3629 13.1229H8.87288L7.12288 11.3629V8.88288L8.88288 7.12288H11.3629L13.1229 8.88288V11.3629ZM15.1229 16.3629V10.8829L17.4729 13.2329C16.9544 14.4482 16.1478 15.519 15.1229 16.3529V16.3629ZM14.1929 7.12288H17.5229C18.0148 8.3498 18.2002 9.67816 18.0629 10.9929L14.1929 7.12288Z" fill="var(--fill-0, #1E1F26)"/>
</svg>
