<svg preserveAspectRatio="none" width="100%" height="100%" overflow="visible" style="display: block;" viewBox="0 0 20 20" fill="none" xmlns="http://www.w3.org/2000/svg">
<path id="Vector" d="M8 18H3C2.73478 18 2.48043 17.8946 2.29289 17.7071C2.10536 17.5196 2 17.2652 2 17V3C2 2.73478 2.10536 2.48043 2.29289 2.29289C2.48043 2.10536 2.73478 2 3 2H8V5C8 5.79565 8.31607 6.55871 8.87868 7.12132C9.44129 7.68393 10.2044 8 11 8H15C15.1974 7.99901 15.3901 7.93961 15.5539 7.82928C15.7176 7.71895 15.845 7.56262 15.92 7.38C15.9966 7.19789 16.0175 6.99718 15.9801 6.80319C15.9428 6.6092 15.8488 6.43062 15.71 6.29L9.71 0.29C9.62734 0.212216 9.53282 0.148081 9.43 0.0999999C9.40015 0.0957601 9.36985 0.0957601 9.34 0.0999999L9.06 0H3C2.20435 0 1.44129 0.316071 0.87868 0.87868C0.316071 1.44129 0 2.20435 0 3V17C0 17.7956 0.316071 18.5587 0.87868 19.1213C1.44129 19.6839 2.20435 20 3 20H8C8.26522 20 8.51957 19.8946 8.70711 19.7071C8.89464 19.5196 9 19.2652 9 19C9 18.7348 8.89464 18.4804 8.70711 18.2929C8.51957 18.1054 8.26522 18 8 18ZM10 3.41L12.59 6H11C10.7348 6 10.4804 5.89464 10.2929 5.70711C10.1054 5.51957 10 5.26522 10 5V3.41ZM11 11C11 10.7348 10.8946 10.4804 10.7071 10.2929C10.5196 10.1054 10.2652 10 10 10H5C4.73478 10 4.48043 10.1054 4.29289 10.2929C4.10536 10.4804 4 10.7348 4 11C4 11.2652 4.10536 11.5196 4.29289 11.7071C4.48043 11.8946 4.73478 12 5 12H10C10.2652 12 10.5196 11.8946 10.7071 11.7071C10.8946 11.5196 11 11.2652 11 11ZM5 8H6C6.26522 8 6.51957 7.89464 6.70711 7.70711C6.89464 7.51957 7 7.26522 7 7C7 6.73478 6.89464 6.48043 6.70711 6.29289C6.51957 6.10536 6.26522 6 6 6H5C4.73478 6 4.48043 6.10536 4.29289 6.29289C4.10536 6.48043 4 6.73478 4 7C4 7.26522 4.10536 7.51957 4.29289 7.70711C4.48043 7.89464 4.73478 8 5 8ZM5 14C4.73478 14 4.48043 14.1054 4.29289 14.2929C4.10536 14.4804 4 14.7348 4 15C4 15.2652 4.10536 15.5196 4.29289 15.7071C4.48043 15.8946 4.73478 16 5 16H7C7.26522 16 7.51957 15.8946 7.70711 15.7071C7.89464 15.5196 8 15.2652 8 15C8 14.7348 7.89464 14.4804 7.70711 14.2929C7.51957 14.1054 7.26522 14 7 14H5ZM18 13.18V13C18 12.2044 17.6839 11.4413 17.1213 10.8787C16.5587 10.3161 15.7956 10 15 10C14.2044 10 13.4413 10.3161 12.8787 10.8787C12.3161 11.4413 12 12.2044 12 13V13.18C11.4165 13.3863 10.911 13.7681 10.5529 14.2729C10.1949 14.7778 10.0017 15.3811 10 16V17C10 17.7956 10.3161 18.5587 10.8787 19.1213C11.4413 19.6839 12.2044 20 13 20H17C17.7956 20 18.5587 19.6839 19.1213 19.1213C19.6839 18.5587 20 17.7956 20 17V16C19.9983 15.3811 19.8051 14.7778 19.4471 14.2729C19.089 13.7681 18.5835 13.3863 18 13.18V13.18ZM15 12C15.2652 12 15.5196 12.1054 15.7071 12.2929C15.8946 12.4804 16 12.7348 16 13H14C14 12.7348 14.1054 12.4804 14.2929 12.2929C14.4804 12.1054 14.7348 12 15 12ZM18 17C18 17.2652 17.8946 17.5196 17.7071 17.7071C17.5196 17.8946 17.2652 18 17 18H13C12.7348 18 12.4804 17.8946 12.2929 17.7071C12.1054 17.5196 12 17.2652 12 17V16C12 15.7348 12.1054 15.4804 12.2929 15.2929C12.4804 15.1054 12.7348 15 13 15H17C17.2652 15 17.5196 15.1054 17.7071 15.2929C17.8946 15.4804 18 15.7348 18 16V17Z" fill="var(--fill-0, #1E1F26)"/>
</svg>
