<svg preserveAspectRatio="none" width="100%" height="100%" overflow="visible" style="display: block;" viewBox="0 0 17.0019 20.1281" fill="none" xmlns="http://www.w3.org/2000/svg">
<path id="Vector" d="M16.9615 7.69233C16.8319 6.33416 16.3772 5.02716 15.636 3.88176C14.8947 2.73636 13.8886 1.78623 12.7027 1.11166C11.5168 0.437083 10.1859 0.0578903 8.82252 0.00612184C7.45916 -0.0456466 6.10337 0.23153 4.86972 0.814229C3.63607 1.39693 2.56081 2.26803 1.73481 3.35391C0.908808 4.4398 0.356333 5.70857 0.124073 7.05299C-0.108188 8.39742 -0.0134082 9.77801 0.400402 11.0781C0.814212 12.3782 1.53489 13.5595 2.50154 14.5223L7.80154 19.8323C7.8945 19.9261 8.00511 20.0005 8.12697 20.0512C8.24882 20.102 8.37953 20.1281 8.51154 20.1281C8.64355 20.1281 8.77426 20.102 8.89612 20.0512C9.01798 20.0005 9.12858 19.9261 9.22154 19.8323L14.5015 14.5223C15.3927 13.6378 16.0759 12.566 16.5014 11.3846C16.9269 10.2032 17.0841 8.94199 16.9615 7.69233V7.69233ZM13.1015 13.1123L8.50154 17.7123L3.90154 13.1123C3.22363 12.4344 2.70434 11.6147 2.38101 10.7121C2.05768 9.80952 1.93833 8.84653 2.03154 7.89233C2.12536 6.92344 2.43331 5.98749 2.93311 5.15218C3.43292 4.31686 4.1121 3.60304 4.92154 3.06233C5.98249 2.35757 7.22785 1.98163 8.50154 1.98163C9.77524 1.98163 11.0206 2.35757 12.0815 3.06233C12.8885 3.60095 13.5662 4.31161 14.0659 5.14327C14.5656 5.97493 14.8749 6.90693 14.9715 7.87233C15.0678 8.82976 14.9499 9.79661 14.6265 10.7029C14.3031 11.6092 13.7822 12.4322 13.1015 13.1123V13.1123ZM10.2915 4.31233C10.1986 4.2186 10.088 4.14421 9.96612 4.09344C9.84426 4.04267 9.71355 4.01653 9.58154 4.01653C9.44953 4.01653 9.31882 4.04267 9.19697 4.09344C9.07511 4.14421 8.9645 4.2186 8.87154 4.31233L5.29154 7.89233C5.1068 8.07859 5.00265 8.32999 5.00154 8.59233V11.0623C5.00154 11.3275 5.1069 11.5819 5.29444 11.7694C5.48197 11.957 5.73633 12.0623 6.00154 12.0623H8.42154C8.55315 12.0631 8.68361 12.0379 8.80545 11.9881C8.92729 11.9383 9.0381 11.865 9.13154 11.7723L12.7115 8.19233C12.8978 8.00497 13.0023 7.75152 13.0023 7.48733C13.0023 7.22315 12.8978 6.9697 12.7115 6.78233L10.2915 4.31233ZM8.01154 10.0623H7.01154V9.06233L9.59154 6.48233L10.5915 7.48233L8.01154 10.0623Z" fill="var(--fill-0, #1E1F26)"/>
</svg>
