<svg preserveAspectRatio="none" width="100%" height="100%" overflow="visible" style="display: block;" viewBox="0 0 18 18" fill="none" xmlns="http://www.w3.org/2000/svg">
<path id="Vector" d="M5 2C5.19778 2 5.39112 1.94135 5.55557 1.83147C5.72002 1.72159 5.84819 1.56541 5.92388 1.38268C5.99957 1.19996 6.01937 0.998891 5.98079 0.80491C5.9422 0.610929 5.84696 0.432746 5.70711 0.292894C5.56725 0.153041 5.38907 0.0578004 5.19509 0.0192152C5.00111 -0.0193701 4.80004 0.000433282 4.61732 0.0761209C4.43459 0.151809 4.27841 0.279981 4.16853 0.44443C4.05865 0.60888 4 0.802219 4 1C4 1.26522 4.10536 1.51957 4.29289 1.70711C4.48043 1.89464 4.73478 2 5 2ZM1 6C1.19778 6 1.39112 5.94135 1.55557 5.83147C1.72002 5.72159 1.84819 5.56541 1.92388 5.38268C1.99957 5.19996 2.01937 4.99889 1.98079 4.80491C1.9422 4.61093 1.84696 4.43275 1.70711 4.29289C1.56725 4.15304 1.38907 4.0578 1.19509 4.01922C1.00111 3.98063 0.800043 4.00043 0.617317 4.07612C0.434591 4.15181 0.278412 4.27998 0.168531 4.44443C0.0586496 4.60888 5.39967e-07 4.80222 5.39967e-07 5C5.39967e-07 5.26522 0.105357 5.51957 0.292894 5.70711C0.48043 5.89464 0.734784 6 1 6ZM1 2C1.19778 2 1.39112 1.94135 1.55557 1.83147C1.72002 1.72159 1.84819 1.56541 1.92388 1.38268C1.99957 1.19996 2.01937 0.998891 1.98079 0.80491C1.9422 0.610929 1.84696 0.432746 1.70711 0.292894C1.56725 0.153041 1.38907 0.0578004 1.19509 0.0192152C1.00111 -0.0193701 0.800043 0.000433282 0.617317 0.0761209C0.434591 0.151809 0.278412 0.279981 0.168531 0.44443C0.0586496 0.60888 5.39967e-07 0.802219 5.39967e-07 1C5.39967e-07 1.26522 0.105357 1.51957 0.292894 1.70711C0.48043 1.89464 0.734784 2 1 2ZM1 16C0.802219 16 0.60888 16.0586 0.44443 16.1685C0.279981 16.2784 0.151809 16.4346 0.0761209 16.6173C0.000433282 16.8 -0.0193701 17.0011 0.0192152 17.1951C0.0578004 17.3891 0.153041 17.5673 0.292894 17.7071C0.432746 17.847 0.610929 17.9422 0.80491 17.9808C0.998891 18.0194 1.19996 17.9996 1.38268 17.9239C1.56541 17.8482 1.72159 17.72 1.83147 17.5556C1.94135 17.3911 2 17.1978 2 17C2 16.7348 1.89464 16.4804 1.70711 16.2929C1.51957 16.1054 1.26522 16 1 16ZM17 2C17.1978 2 17.3911 1.94135 17.5556 1.83147C17.72 1.72159 17.8482 1.56541 17.9239 1.38268C17.9996 1.19996 18.0194 0.998891 17.9808 0.80491C17.9422 0.610929 17.847 0.432746 17.7071 0.292894C17.5673 0.153041 17.3891 0.0578004 17.1951 0.0192152C17.0011 -0.0193701 16.8 0.000433282 16.6173 0.0761209C16.4346 0.151809 16.2784 0.279981 16.1685 0.44443C16.0586 0.60888 16 0.802219 16 1C16 1.26522 16.1054 1.51957 16.2929 1.70711C16.4804 1.89464 16.7348 2 17 2ZM17 6C17.1978 6 17.3911 5.94135 17.5556 5.83147C17.72 5.72159 17.8482 5.56541 17.9239 5.38268C17.9996 5.19996 18.0194 4.99889 17.9808 4.80491C17.9422 4.61093 17.847 4.43275 17.7071 4.29289C17.5673 4.15304 17.3891 4.0578 17.1951 4.01922C17.0011 3.98063 16.8 4.00043 16.6173 4.07612C16.4346 4.15181 16.2784 4.27998 16.1685 4.44443C16.0586 4.60888 16 4.80222 16 5C16 5.26522 16.1054 5.51957 16.2929 5.70711C16.4804 5.89464 16.7348 6 17 6ZM13 2C13.1978 2 13.3911 1.94135 13.5556 1.83147C13.72 1.72159 13.8482 1.56541 13.9239 1.38268C13.9996 1.19996 14.0194 0.998891 13.9808 0.80491C13.9422 0.610929 13.847 0.432746 13.7071 0.292894C13.5673 0.153041 13.3891 0.0578004 13.1951 0.0192152C13.0011 -0.0193701 12.8 0.000433282 12.6173 0.0761209C12.4346 0.151809 12.2784 0.279981 12.1685 0.44443C12.0587 0.60888 12 0.802219 12 1C12 1.26522 12.1054 1.51957 12.2929 1.70711C12.4804 1.89464 12.7348 2 13 2ZM17 16C16.8022 16 16.6089 16.0586 16.4444 16.1685C16.28 16.2784 16.1518 16.4346 16.0761 16.6173C16.0004 16.8 15.9806 17.0011 16.0192 17.1951C16.0578 17.3891 16.153 17.5673 16.2929 17.7071C16.4327 17.847 16.6109 17.9422 16.8049 17.9808C16.9989 18.0194 17.2 17.9996 17.3827 17.9239C17.5654 17.8482 17.7216 17.72 17.8315 17.5556C17.9414 17.3911 18 17.1978 18 17C18 16.7348 17.8946 16.4804 17.7071 16.2929C17.5196 16.1054 17.2652 16 17 16ZM1 12C0.802219 12 0.60888 12.0587 0.44443 12.1685C0.279981 12.2784 0.151809 12.4346 0.0761209 12.6173C0.000433282 12.8 -0.0193701 13.0011 0.0192152 13.1951C0.0578004 13.3891 0.153041 13.5673 0.292894 13.7071C0.432746 13.847 0.610929 13.9422 0.80491 13.9808C0.998891 14.0194 1.19996 13.9996 1.38268 13.9239C1.56541 13.8482 1.72159 13.72 1.83147 13.5556C1.94135 13.3911 2 13.1978 2 13C2 12.7348 1.89464 12.4804 1.70711 12.2929C1.51957 12.1054 1.26522 12 1 12ZM17 12C16.8022 12 16.6089 12.0587 16.4444 12.1685C16.28 12.2784 16.1518 12.4346 16.0761 12.6173C16.0004 12.8 15.9806 13.0011 16.0192 13.1951C16.0578 13.3891 16.153 13.5673 16.2929 13.7071C16.4327 13.847 16.6109 13.9422 16.8049 13.9808C16.9989 14.0194 17.2 13.9996 17.3827 13.9239C17.5654 13.8482 17.7216 13.72 17.8315 13.5556C17.9414 13.3911 18 13.1978 18 13C18 12.7348 17.8946 12.4804 17.7071 12.2929C17.5196 12.1054 17.2652 12 17 12ZM13 16C12.8022 16 12.6089 16.0586 12.4444 16.1685C12.28 16.2784 12.1518 16.4346 12.0761 16.6173C12.0004 16.8 11.9806 17.0011 12.0192 17.1951C12.0578 17.3891 12.153 17.5673 12.2929 17.7071C12.4327 17.847 12.6109 17.9422 12.8049 17.9808C12.9989 18.0194 13.2 17.9996 13.3827 17.9239C13.5654 17.8482 13.7216 17.72 13.8315 17.5556C13.9414 17.3911 14 17.1978 14 17C14 16.7348 13.8946 16.4804 13.7071 16.2929C13.5196 16.1054 13.2652 16 13 16ZM18 9C18 8.73478 17.8946 8.48043 17.7071 8.29289C17.5196 8.10536 17.2652 8 17 8H10V1C10 0.734784 9.89464 0.48043 9.70711 0.292894C9.51957 0.105357 9.26522 5.39967e-07 9 5.39967e-07C8.73478 5.39967e-07 8.48043 0.105357 8.29289 0.292894C8.10536 0.48043 8 0.734784 8 1V8H1C0.734784 8 0.48043 8.10536 0.292894 8.29289C0.105357 8.48043 5.39967e-07 8.73478 5.39967e-07 9C5.39967e-07 9.26522 0.105357 9.51957 0.292894 9.70711C0.48043 9.89464 0.734784 10 1 10H8V17C8 17.2652 8.10536 17.5196 8.29289 17.7071C8.48043 17.8946 8.73478 18 9 18C9.26522 18 9.51957 17.8946 9.70711 17.7071C9.89464 17.5196 10 17.2652 10 17V10H17C17.2652 10 17.5196 9.89464 17.7071 9.70711C17.8946 9.51957 18 9.26522 18 9ZM5 16C4.80222 16 4.60888 16.0586 4.44443 16.1685C4.27998 16.2784 4.15181 16.4346 4.07612 16.6173C4.00043 16.8 3.98063 17.0011 4.01922 17.1951C4.0578 17.3891 4.15304 17.5673 4.29289 17.7071C4.43275 17.847 4.61093 17.9422 4.80491 17.9808C4.99889 18.0194 5.19996 17.9996 5.38268 17.9239C5.56541 17.8482 5.72159 17.72 5.83147 17.5556C5.94135 17.3911 6 17.1978 6 17C6 16.7348 5.89464 16.4804 5.70711 16.2929C5.51957 16.1054 5.26522 16 5 16V16Z" fill="var(--fill-0, #1E1F26)"/>
</svg>
