<svg preserveAspectRatio="none" width="100%" height="100%" overflow="visible" style="display: block;" viewBox="0 0 9.00516 12" fill="none" xmlns="http://www.w3.org/2000/svg">
<path id="Vector" d="M9 3.5C9 3.04037 8.90947 2.58525 8.73358 2.16061C8.55769 1.73597 8.29988 1.35013 7.97487 1.02513C7.64987 0.700121 7.26403 0.442313 6.83939 0.266422C6.41475 0.0905303 5.95963 0 5.5 0H1C0.734784 0 0.48043 0.105357 0.292893 0.292893C0.105357 0.48043 0 0.734784 0 1V11C0 11.2652 0.105357 11.5196 0.292893 11.7071C0.48043 11.8946 0.734784 12 1 12H5.5C6.19667 12.003 6.87831 11.7975 7.45717 11.4098C8.03603 11.0221 8.48562 10.4701 8.74806 9.82475C9.01051 9.17939 9.0738 8.47025 8.92979 7.78862C8.78578 7.10698 8.44106 6.48405 7.94 6C8.27432 5.67492 8.5403 5.2863 8.72233 4.85699C8.90436 4.42767 8.99876 3.96631 9 3.5ZM5.5 10H2V7H5.5C5.89782 7 6.27936 7.15804 6.56066 7.43934C6.84196 7.72064 7 8.10218 7 8.5C7 8.89782 6.84196 9.27936 6.56066 9.56066C6.27936 9.84196 5.89782 10 5.5 10ZM5.5 5H2V2H5.5C5.89782 2 6.27936 2.15804 6.56066 2.43934C6.84196 2.72064 7 3.10218 7 3.5C7 3.89782 6.84196 4.27936 6.56066 4.56066C6.27936 4.84196 5.89782 5 5.5 5Z" fill="var(--fill-0, #1E1F26)"/>
</svg>
