<svg preserveAspectRatio="none" width="100%" height="100%" overflow="visible" style="display: block;" viewBox="0 0 20.0375 20.0116" fill="none" xmlns="http://www.w3.org/2000/svg">
<path id="Vector" d="M10.0058 6.0058C9.21467 6.0058 8.44131 6.24039 7.78352 6.67992C7.12572 7.11945 6.61303 7.74416 6.31028 8.47506C6.00753 9.20597 5.92832 10.0102 6.08266 10.7862C6.237 11.5621 6.61796 12.2748 7.17737 12.8342C7.73678 13.3936 8.44951 13.7746 9.22544 13.9289C10.0014 14.0833 10.8056 14.0041 11.5365 13.7013C12.2674 13.3986 12.8922 12.8859 13.3317 12.2281C13.7712 11.5703 14.0058 10.7969 14.0058 10.0058C14.0058 8.94493 13.5844 7.92752 12.8342 7.17737C12.0841 6.42723 11.0667 6.0058 10.0058 6.0058V6.0058ZM10.0058 12.0058C9.61024 12.0058 9.22356 11.8885 8.89466 11.6687C8.56576 11.449 8.30941 11.1366 8.15804 10.7712C8.00666 10.4057 7.96706 10.0036 8.04423 9.61562C8.1214 9.22766 8.31188 8.87129 8.59159 8.59159C8.87129 8.31188 9.22766 8.1214 9.61562 8.04423C10.0036 7.96706 10.4057 8.00666 10.7712 8.15804C11.1366 8.30941 11.449 8.56576 11.6687 8.89466C11.8885 9.22356 12.0058 9.61024 12.0058 10.0058C12.0058 10.5362 11.7951 11.0449 11.42 11.42C11.0449 11.7951 10.5362 12.0058 10.0058 12.0058ZM19.7158 9.2958L17.3658 7.0058V3.6458C17.3658 3.38058 17.2604 3.12623 17.0729 2.93869C16.8854 2.75116 16.631 2.6458 16.3658 2.6458H13.0558L10.7158 0.295798C10.6228 0.20207 10.5122 0.127676 10.3904 0.0769069C10.2685 0.0261382 10.1378 0 10.0058 0C9.87379 0 9.74308 0.0261382 9.62122 0.0769069C9.49936 0.127676 9.38876 0.20207 9.2958 0.295798L7.0058 2.6458H3.6458C3.38058 2.6458 3.12623 2.75116 2.93869 2.93869C2.75116 3.12623 2.6458 3.38058 2.6458 3.6458V7.0058L0.295798 9.2958C0.20207 9.38876 0.127676 9.49936 0.0769069 9.62122C0.0261382 9.74308 0 9.87379 0 10.0058C0 10.1378 0.0261382 10.2685 0.0769069 10.3904C0.127676 10.5122 0.20207 10.6228 0.295798 10.7158L2.6458 13.0558V16.3658C2.6458 16.631 2.75116 16.8854 2.93869 17.0729C3.12623 17.2604 3.38058 17.3658 3.6458 17.3658H7.0058L9.3458 19.7158C9.43876 19.8095 9.54936 19.8839 9.67122 19.9347C9.79308 19.9855 9.92379 20.0116 10.0558 20.0116C10.1878 20.0116 10.3185 19.9855 10.4404 19.9347C10.5622 19.8839 10.6728 19.8095 10.7658 19.7158L13.1058 17.3658H16.4158C16.681 17.3658 16.9354 17.2604 17.1229 17.0729C17.3104 16.8854 17.4158 16.631 17.4158 16.3658V13.0558L19.7658 10.7158C19.8563 10.6196 19.9269 10.5064 19.9734 10.3827C20.0199 10.2591 20.0415 10.1274 20.0369 9.99537C20.0322 9.86334 20.0014 9.73353 19.9463 9.61346C19.8912 9.49338 19.8129 9.38542 19.7158 9.2958ZM15.6658 11.9358C15.5713 12.0284 15.4961 12.1389 15.4446 12.2607C15.3931 12.3826 15.3663 12.5135 15.3658 12.6458V15.3658H12.6458C12.5135 15.3663 12.3826 15.3931 12.2607 15.4446C12.1389 15.4961 12.0284 15.5713 11.9358 15.6658L10.0058 17.5958L8.0758 15.6658C7.98318 15.5713 7.87274 15.4961 7.75086 15.4446C7.62899 15.3931 7.49811 15.3663 7.3658 15.3658H4.6458V12.6458C4.64525 12.5135 4.61845 12.3826 4.56695 12.2607C4.51546 12.1389 4.44029 12.0284 4.3458 11.9358L2.4158 10.0058L4.3458 8.0758C4.44029 7.98318 4.51546 7.87274 4.56695 7.75086C4.61845 7.62899 4.64525 7.49811 4.6458 7.3658V4.6458H7.3658C7.49811 4.64525 7.62899 4.61845 7.75086 4.56695C7.87274 4.51546 7.98318 4.44029 8.0758 4.3458L10.0058 2.4158L11.9358 4.3458C12.0284 4.44029 12.1389 4.51546 12.2607 4.56695C12.3826 4.61845 12.5135 4.64525 12.6458 4.6458H15.3658V7.3658C15.3663 7.49811 15.3931 7.62899 15.4446 7.75086C15.4961 7.87274 15.5713 7.98318 15.6658 8.0758L17.5958 10.0058L15.6658 11.9358Z" fill="var(--fill-0, #1E1F26)"/>
</svg>
