<svg preserveAspectRatio="none" width="100%" height="100%" overflow="visible" style="display: block;" viewBox="0 0 16 20" fill="none" xmlns="http://www.w3.org/2000/svg">
<path id="Vector" d="M13 4H11V2H13C13.2652 2 13.5196 1.89464 13.7071 1.70711C13.8946 1.51957 14 1.26522 14 1C14 0.734784 13.8946 0.48043 13.7071 0.292893C13.5196 0.105357 13.2652 0 13 0H5C3.67392 0 2.40215 0.526784 1.46447 1.46447C0.526784 2.40215 0 3.67392 0 5V19C0 19.2652 0.105357 19.5196 0.292893 19.7071C0.48043 19.8946 0.734784 20 1 20C1.26522 20 1.51957 19.8946 1.70711 19.7071C1.89464 19.5196 2 19.2652 2 19V5C2 4.20435 2.31607 3.44129 2.87868 2.87868C3.44129 2.31607 4.20435 2 5 2H9V4H7C6.20435 4 5.44129 4.31607 4.87868 4.87868C4.31607 5.44129 4 6.20435 4 7V11.93C3.99982 12.4249 4.12207 12.9122 4.35587 13.3484C4.58968 13.7846 4.92776 14.1562 5.34 14.43L7 15.54V16C7 16.5304 7.21071 17.0391 7.58579 17.4142C7.96086 17.7893 8.46957 18 9 18V19C9 19.2652 9.10536 19.5196 9.29289 19.7071C9.48043 19.8946 9.73478 20 10 20C10.2652 20 10.5196 19.8946 10.7071 19.7071C10.8946 19.5196 11 19.2652 11 19V18C11.5304 18 12.0391 17.7893 12.4142 17.4142C12.7893 17.0391 13 16.5304 13 16V15.54L14.66 14.43C15.0722 14.1562 15.4103 13.7846 15.6441 13.3484C15.8779 12.9122 16.0002 12.4249 16 11.93V7C16 6.20435 15.6839 5.44129 15.1213 4.87868C14.5587 4.31607 13.7956 4 13 4ZM12 9H14V10H13C12.7348 10 12.4804 10.1054 12.2929 10.2929C12.1054 10.4804 12 10.7348 12 11C12 11.2652 12.1054 11.5196 12.2929 11.7071C12.4804 11.8946 12.7348 12 13 12H14C13.9893 12.1518 13.9441 12.2992 13.8679 12.4309C13.7916 12.5626 13.6863 12.6752 13.56 12.76L11.46 14.17C11.3206 14.2594 11.2056 14.3821 11.1253 14.527C11.045 14.6718 11.0019 14.8344 11 15V16H9V15C8.99915 14.8353 8.95763 14.6733 8.87912 14.5285C8.80062 14.3838 8.68756 14.2606 8.55 14.17L6.45 12.76C6.31244 12.6694 6.19938 12.5462 6.12088 12.4015C6.04237 12.2567 6.00085 12.0947 6 11.93V7C6 6.73478 6.10536 6.48043 6.29289 6.29289C6.48043 6.10536 6.73478 6 7 6H13C13.2652 6 13.5196 6.10536 13.7071 6.29289C13.8946 6.48043 14 6.73478 14 7H12C11.7348 7 11.4804 7.10536 11.2929 7.29289C11.1054 7.48043 11 7.73478 11 8C11 8.26522 11.1054 8.51957 11.2929 8.70711C11.4804 8.89464 11.7348 9 12 9V9Z" fill="var(--fill-0, #1E1F26)"/>
</svg>
