<svg preserveAspectRatio="none" width="100%" height="100%" overflow="visible" style="display: block;" viewBox="0 0 19.9951 19.9799" fill="none" xmlns="http://www.w3.org/2000/svg">
<path id="Vector" d="M8.19409 3.23409C8.78506 3.08012 9.39339 3.00282 10.0041 3.00409C11.8606 3.00409 13.6411 3.74159 14.9538 5.05434C16.2666 6.3671 17.0041 8.14758 17.0041 10.0041C17.0054 10.6148 16.9281 11.2231 16.7741 11.8141C16.7392 11.9408 16.7296 12.0732 16.7459 12.2036C16.7622 12.334 16.8041 12.46 16.8691 12.5742C16.9341 12.6885 17.021 12.7888 17.1248 12.8694C17.2286 12.95 17.3473 13.0094 17.4741 13.0441C17.5605 13.0539 17.6477 13.0539 17.7341 13.0441C17.9599 13.0518 18.1816 12.9829 18.3632 12.8485C18.5448 12.7141 18.6755 12.5223 18.7341 12.3041C18.9238 11.5524 19.0145 10.7792 19.0041 10.0041C19.0041 7.61714 18.0559 5.32796 16.3681 3.64013C14.6802 1.9523 12.391 1.00409 10.0041 1.00409C9.21759 1.00082 8.43411 1.10169 7.67409 1.30409C7.42359 1.38053 7.21307 1.5522 7.08778 1.7822C6.9625 2.0122 6.93245 2.28217 7.00409 2.53409C7.07444 2.78137 7.23732 2.99205 7.45891 3.1224C7.6805 3.25275 7.94378 3.29275 8.19409 3.23409ZM19.7141 18.2941L1.71409 0.294092C1.52579 0.105788 1.27039 -1.9841e-09 1.00409 0C0.73779 1.9841e-09 0.482395 0.105788 0.294092 0.294092C0.105788 0.482395 1.9841e-09 0.73779 0 1.00409C-1.9841e-09 1.27039 0.105788 1.52579 0.294092 1.71409L3.00409 4.38409C1.72857 5.97955 1.03371 7.96144 1.03371 10.0041C1.03371 12.0467 1.72857 14.0286 3.00409 15.6241L1.29409 17.2941C1.15533 17.4347 1.06134 17.6133 1.02396 17.8073C0.986589 18.0013 1.00751 18.202 1.08409 18.3841C1.15911 18.5667 1.28651 18.723 1.45023 18.8334C1.61395 18.9437 1.80667 19.0031 2.00409 19.0041H10.0041C12.0503 18.9957 14.0326 18.2903 15.6241 17.0041L18.2941 19.6841C18.3871 19.7778 18.4977 19.8522 18.6195 19.903C18.7414 19.9538 18.8721 19.9799 19.0041 19.9799C19.1361 19.9799 19.2668 19.9538 19.3887 19.903C19.5105 19.8522 19.6211 19.7778 19.7141 19.6841C19.8943 19.4976 19.9951 19.2484 19.9951 18.9891C19.9951 18.7298 19.8943 18.4806 19.7141 18.2941V18.2941ZM10.0041 17.0041H4.41409L5.05409 16.3741C5.24034 16.1867 5.34488 15.9333 5.34488 15.6691C5.34488 15.4049 5.24034 15.1515 5.05409 14.9641C3.86258 13.7726 3.14087 12.1912 3.02147 10.5104C2.90207 8.82957 3.39299 7.16209 4.40409 5.81409L14.1941 15.6041C12.9852 16.5108 11.5153 17.0019 10.0041 17.0041Z" fill="var(--fill-0, #1E1F26)"/>
</svg>
