<svg preserveAspectRatio="none" width="100%" height="100%" overflow="visible" style="display: block;" viewBox="0 0 20.0058 12" fill="none" xmlns="http://www.w3.org/2000/svg">
<path id="Vector" d="M13 6.00002C13 6.1978 13.0586 6.39114 13.1685 6.55559C13.2784 6.72004 13.4346 6.84821 13.6173 6.9239C13.8 6.99958 14.0011 7.01939 14.1951 6.9808C14.3891 6.94222 14.5673 6.84698 14.7071 6.70712C14.847 6.56727 14.9422 6.38909 14.9808 6.19511C15.0194 6.00113 14.9996 5.80006 14.9239 5.61733C14.8482 5.43461 14.72 5.27843 14.5556 5.16855C14.3911 5.05867 14.1978 5.00002 14 5.00002C13.7348 5.00002 13.4804 5.10537 13.2929 5.29291C13.1054 5.48045 13 5.7348 13 6.00002ZM19.71 5.29002L14.71 0.290017C14.6166 0.197335 14.5057 0.12401 14.3839 0.0742455C14.2621 0.0244809 14.1316 -0.000744179 14 1.67143e-05H3C2.20435 1.67143e-05 1.44129 0.316087 0.87868 0.878696C0.316071 1.44131 0 2.20437 0 3.00002V9.00002C0 9.79567 0.316071 10.5587 0.87868 11.1213C1.44129 11.6839 2.20435 12 3 12H14C14.1316 12.0008 14.2621 11.9756 14.3839 11.9258C14.5057 11.876 14.6166 11.8027 14.71 11.71L19.71 6.71002C19.8037 6.61705 19.8781 6.50645 19.9289 6.38459C19.9797 6.26273 20.0058 6.13203 20.0058 6.00002C20.0058 5.868 19.9797 5.7373 19.9289 5.61544C19.8781 5.49358 19.8037 5.38298 19.71 5.29002ZM13.59 10H3C2.73478 10 2.48043 9.89466 2.29289 9.70712C2.10536 9.51959 2 9.26523 2 9.00002V3.00002C2 2.7348 2.10536 2.48045 2.29289 2.29291C2.48043 2.10537 2.73478 2.00002 3 2.00002H13.59L17.59 6.00002L13.59 10Z" fill="var(--fill-0, #1E1F26)"/>
</svg>
