<svg preserveAspectRatio="none" width="100%" height="100%" overflow="visible" style="display: block;" viewBox="0 0 20.0546 18.0072" fill="none" xmlns="http://www.w3.org/2000/svg">
<path id="Vector" d="M2.97072 9.24C2.8413 9.20901 2.707 9.20417 2.57569 9.22576C2.44437 9.24734 2.31869 9.29492 2.20599 9.3657C2.0933 9.43648 1.99587 9.52904 1.91941 9.63796C1.84295 9.74688 1.789 9.86996 1.76072 10L1.27072 11.94C1.21708 12.1971 1.26672 12.4649 1.40892 12.6857C1.55113 12.9065 1.77447 13.0625 2.03072 13.12C2.28797 13.1834 2.55988 13.1422 2.78675 13.0053C3.01362 12.8685 3.17689 12.6472 3.24072 12.39L3.73072 10.45C3.76171 10.3206 3.76655 10.1863 3.74497 10.055C3.72338 9.92365 3.67581 9.79796 3.60502 9.68527C3.53424 9.57258 3.44168 9.47515 3.33276 9.39869C3.22384 9.32223 3.10076 9.26828 2.97072 9.24V9.24ZM19.9707 16.76L15.9707 0.76C15.9184 0.548097 15.7983 0.359115 15.6286 0.221893C15.4588 0.0846702 15.2489 0.0067421 15.0307 0H12.0307C11.7655 0 11.5112 0.105357 11.3236 0.292893C11.1361 0.48043 11.0307 0.734784 11.0307 1V17C11.0307 17.2652 11.1361 17.5196 11.3236 17.7071C11.5112 17.8946 11.7655 18 12.0307 18H19.0307C19.1826 18.0008 19.3327 17.967 19.4696 17.9012C19.6065 17.8353 19.7265 17.7392 19.8207 17.62C19.9194 17.5024 19.9897 17.3636 20.0261 17.2145C20.0625 17.0654 20.0641 16.9099 20.0307 16.76H19.9707ZM13.0307 16V2H14.2507L17.7507 16H13.0307ZM4.43072 3.42C4.30266 3.3871 4.16935 3.37991 4.0385 3.39887C3.90765 3.41782 3.78185 3.46254 3.66839 3.53042C3.55494 3.59831 3.45607 3.68803 3.37751 3.79438C3.29895 3.90073 3.24226 4.0216 3.21072 4.15L2.73072 6.09C2.66728 6.34725 2.70852 6.61916 2.84539 6.84603C2.98226 7.07289 3.20357 7.23617 3.46072 7.3H3.70072C3.92916 7.30666 4.15298 7.23487 4.33493 7.09659C4.51687 6.95831 4.64597 6.76188 4.70072 6.54L5.18072 4.6C5.23467 4.34432 5.18639 4.07768 5.04622 3.85714C4.90605 3.63661 4.68512 3.4797 4.43072 3.42V3.42ZM5.54072 2H7.54072C7.80594 2 8.06029 1.89464 8.24783 1.70711C8.43536 1.51957 8.54072 1.26522 8.54072 1C8.54072 0.734784 8.43536 0.48043 8.24783 0.292893C8.06029 0.105357 7.80594 0 7.54072 0H5.54072C5.2755 0 5.02115 0.105357 4.83361 0.292893C4.64608 0.48043 4.54072 0.734784 4.54072 1C4.54072 1.26522 4.64608 1.51957 4.83361 1.70711C5.02115 1.89464 5.2755 2 5.54072 2ZM2.27072 16C2.30255 15.7348 2.22771 15.4678 2.06268 15.2577C1.89765 15.0477 1.65594 14.9118 1.39072 14.88C1.1255 14.8482 0.858508 14.923 0.648467 15.088C0.438427 15.2531 0.302547 15.4948 0.270721 15.76L0.0307213 16.76C-0.00673173 16.9076 -0.00998512 17.0618 0.0212094 17.2108C0.0524038 17.3599 0.117222 17.4998 0.210721 17.62C0.307973 17.7433 0.432885 17.8419 0.575343 17.9079C0.717802 17.9739 0.873805 18.0055 1.03072 18H2.03072C2.29594 18.0318 2.56293 17.957 2.77298 17.792C2.98302 17.6269 3.1189 17.3852 3.15072 17.12C3.18255 16.8548 3.10771 16.5878 2.94268 16.3777C2.77765 16.1677 2.53594 16.0318 2.27072 16ZM8.03072 3.51C7.76551 3.51 7.51115 3.61536 7.32361 3.80289C7.13608 3.99043 7.03072 4.24478 7.03072 4.51V6.51C7.03072 6.77522 7.13608 7.02957 7.32361 7.21711C7.51115 7.40464 7.76551 7.51 8.03072 7.51C8.29594 7.51 8.55029 7.40464 8.73783 7.21711C8.92536 7.02957 9.03072 6.77522 9.03072 6.51V4.51C9.03072 4.24478 8.92536 3.99043 8.73783 3.80289C8.55029 3.61536 8.29594 3.51 8.03072 3.51ZM8.03072 9.51C7.76551 9.51 7.51115 9.61536 7.32361 9.80289C7.13608 9.99043 7.03072 10.2448 7.03072 10.51V12.51C7.03072 12.7752 7.13608 13.0296 7.32361 13.2171C7.51115 13.4046 7.76551 13.51 8.03072 13.51C8.29594 13.51 8.55029 13.4046 8.73783 13.2171C8.92536 13.0296 9.03072 12.7752 9.03072 12.51V10.51C9.03072 10.2448 8.92536 9.99043 8.73783 9.80289C8.55029 9.61536 8.29594 9.51 8.03072 9.51ZM8.03072 15.51C7.85718 15.51 7.68663 15.5552 7.53585 15.6411C7.38506 15.727 7.25923 15.8507 7.17072 16H6.03072C5.7655 16 5.51115 16.1054 5.32361 16.2929C5.13608 16.4804 5.03072 16.7348 5.03072 17C5.03072 17.2652 5.13608 17.5196 5.32361 17.7071C5.51115 17.8946 5.7655 18 6.03072 18H8.03072C8.29594 18 8.55029 17.8946 8.73783 17.7071C8.92536 17.5196 9.03072 17.2652 9.03072 17V16.51C9.03072 16.2448 8.92536 15.9904 8.73783 15.8029C8.55029 15.6154 8.29594 15.51 8.03072 15.51Z" fill="var(--fill-0, #1E1F26)"/>
</svg>
