<svg preserveAspectRatio="none" width="100%" height="100%" overflow="visible" style="display: block;" viewBox="0 0 17.7347 19" fill="none" xmlns="http://www.w3.org/2000/svg">
<path id="Vector" d="M2.02471 7.3C1.86169 7.46373 1.76039 7.67885 1.73804 7.90882C1.71568 8.13878 1.77365 8.36939 1.90208 8.56145C2.03051 8.75351 2.22149 8.89517 2.44255 8.96236C2.66362 9.02955 2.90112 9.01811 3.11471 8.93C3.23624 8.87564 3.34779 8.80128 3.44471 8.71C3.53466 8.61785 3.60597 8.50919 3.65471 8.39C3.71187 8.26817 3.73929 8.1345 3.73471 8C3.73361 7.73766 3.62945 7.48626 3.44471 7.3C3.35175 7.20627 3.24115 7.13188 3.11929 7.08111C2.99743 7.03034 2.86672 7.0042 2.73471 7.0042C2.6027 7.0042 2.47199 7.03034 2.35013 7.08111C2.22827 7.13188 2.11767 7.20627 2.02471 7.3ZM2.73471 2C2.99993 2 3.25428 2.10536 3.44182 2.29289C3.62935 2.48043 3.73471 2.73478 3.73471 3C3.73471 3.26522 3.62935 3.51957 3.44182 3.70711C3.25428 3.89464 2.99993 4 2.73471 4C2.46949 4 2.21514 4.10536 2.0276 4.29289C1.84007 4.48043 1.73471 4.73478 1.73471 5C1.73471 5.26522 1.84007 5.51957 2.0276 5.70711C2.21514 5.89464 2.46949 6 2.73471 6C3.26124 5.99966 3.77841 5.86075 4.23424 5.59723C4.69008 5.33371 5.06854 4.95486 5.33158 4.49875C5.59463 4.04264 5.733 3.52533 5.73279 2.9988C5.73258 2.47227 5.59379 1.95507 5.33038 1.49917C5.06697 1.04326 4.68821 0.664718 4.23216 0.401563C3.77611 0.138409 3.25883 -8.42941e-05 2.73231 3.84915e-08C2.20578 8.43711e-05 1.68854 0.138743 1.23258 0.402044C0.776613 0.665344 0.397975 1.04401 0.134711 1.5C0.0685916 1.61413 0.0257052 1.74022 0.00852188 1.871C-0.00866144 2.00178 0.000197523 2.13466 0.0345887 2.262C0.0689798 2.38934 0.128224 2.50862 0.208908 2.61297C0.289592 2.71732 0.390123 2.80467 0.50471 2.87C0.734327 3.00037 1.00619 3.03464 1.26097 2.96532C1.51576 2.896 1.73279 2.72873 1.86471 2.5C1.95281 2.34739 2.07968 2.22078 2.23246 2.13298C2.38523 2.04517 2.5585 1.9993 2.73471 2ZM14.7347 3H8.73471C8.46949 3 8.21514 3.10536 8.0276 3.29289C7.84007 3.48043 7.73471 3.73478 7.73471 4C7.73471 4.26522 7.84007 4.51957 8.0276 4.70711C8.21514 4.89464 8.46949 5 8.73471 5H14.7347C14.9999 5 15.2543 5.10536 15.4418 5.29289C15.6294 5.48043 15.7347 5.73478 15.7347 6V15.72L14.1647 14.27C13.9803 14.0973 13.7373 14.0009 13.4847 14H4.73471C4.46949 14 4.21514 13.8946 4.0276 13.7071C3.84007 13.5196 3.73471 13.2652 3.73471 13V12C3.73471 11.7348 3.62935 11.4804 3.44182 11.2929C3.25428 11.1054 2.99993 11 2.73471 11C2.46949 11 2.21514 11.1054 2.0276 11.2929C1.84007 11.4804 1.73471 11.7348 1.73471 12V13C1.73471 13.7956 2.05078 14.5587 2.61339 15.1213C3.176 15.6839 3.93906 16 4.73471 16H13.0947L16.0947 18.73C16.2689 18.8936 16.496 18.9894 16.7347 19C16.8719 18.9985 17.0075 18.9714 17.1347 18.92C17.3136 18.8419 17.4657 18.7132 17.5723 18.5497C17.6789 18.3863 17.7354 18.1952 17.7347 18V6C17.7347 5.20435 17.4186 4.44129 16.856 3.87868C16.2934 3.31607 15.5304 3 14.7347 3Z" fill="var(--fill-0, #1E1F26)"/>
</svg>
