<svg preserveAspectRatio="none" width="100%" height="100%" overflow="visible" style="display: block;" viewBox="0 0 19.9514 21.9658" fill="none" xmlns="http://www.w3.org/2000/svg">
<path id="Vector" d="M8.49079 2.6958C8.66826 2.48199 8.88833 2.30751 9.13697 2.18348C9.38562 2.05944 9.65738 1.98858 9.93493 1.97541C10.2125 1.96224 10.4897 2.00704 10.749 2.10697C11.0083 2.2069 11.2439 2.35976 11.4408 2.5558C11.8017 2.93561 11.9992 3.4419 11.9908 3.9658V7.3758C11.9908 7.64101 12.0961 7.89537 12.2837 8.0829C12.4712 8.27044 12.7256 8.3758 12.9908 8.3758C13.256 8.3758 13.5104 8.27044 13.6979 8.0829C13.8854 7.89537 13.9908 7.64101 13.9908 7.3758V3.9658C13.9679 3.16314 13.704 2.38595 13.2334 1.73533C12.7628 1.08472 12.1072 0.590816 11.352 0.317875C10.5969 0.0449344 9.77704 0.00559631 8.9992 0.204979C8.22137 0.404362 7.52155 0.833236 6.99079 1.4358C6.87439 1.52788 6.77995 1.64471 6.71431 1.77782C6.64867 1.91093 6.61348 2.05698 6.6113 2.20538C6.60912 2.35378 6.64 2.5008 6.70169 2.63579C6.76339 2.77077 6.85436 2.89033 6.968 2.98579C7.08164 3.08125 7.21511 3.15021 7.35872 3.18769C7.50232 3.22516 7.65247 3.23019 7.79826 3.20243C7.94406 3.17467 8.08185 3.1148 8.20163 3.02717C8.32141 2.93954 8.42019 2.82634 8.49079 2.6958V2.6958ZM16.7108 12.2358H16.9108C17.1462 12.2401 17.3755 12.1612 17.5584 12.013C17.7413 11.8649 17.8661 11.6569 17.9108 11.4258C17.9825 10.9426 18.0093 10.4539 17.9908 9.9658C17.9908 9.70058 17.8854 9.44623 17.6979 9.25869C17.5104 9.07116 17.256 8.9658 16.9908 8.9658C16.7256 8.9658 16.4712 9.07116 16.2837 9.25869C16.0961 9.44623 15.9908 9.70058 15.9908 9.9658C15.9909 10.3352 15.954 10.7037 15.8808 11.0658C15.8565 11.1973 15.8588 11.3324 15.8876 11.463C15.9164 11.5936 15.9711 11.7171 16.0485 11.8262C16.1259 11.9353 16.2244 12.0278 16.3381 12.0981C16.4519 12.1685 16.5786 12.2153 16.7108 12.2358V12.2358ZM19.7108 18.2958L1.71079 0.295798C1.61783 0.20207 1.50723 0.127676 1.38537 0.0769069C1.26351 0.0261382 1.1328 0 1.00079 0C0.868781 0 0.738075 0.0261382 0.616216 0.0769069C0.494357 0.127676 0.383756 0.20207 0.290793 0.295798C0.104542 0.483161 0 0.736613 0 1.0008C0 1.26498 0.104542 1.51844 0.290793 1.7058L5.99079 7.4458V9.9658C5.99151 10.6676 6.17686 11.3569 6.52823 11.9644C6.8796 12.5719 7.38461 13.0762 7.99257 13.4268C8.60052 13.7774 9.29002 13.9619 9.99182 13.9617C10.6936 13.9615 11.383 13.7767 11.9908 13.4258L13.4508 14.8858C12.5512 15.5208 11.4942 15.896 10.3956 15.9703C9.29705 16.0446 8.19918 15.8151 7.22229 15.3071C6.24541 14.799 5.42716 14.0319 4.85718 13.0898C4.2872 12.1477 3.98746 11.0669 3.99079 9.9658C3.99079 9.70058 3.88544 9.44623 3.6979 9.25869C3.51036 9.07116 3.25601 8.9658 2.99079 8.9658C2.72558 8.9658 2.47122 9.07116 2.28369 9.25869C2.09615 9.44623 1.99079 9.70058 1.99079 9.9658C1.99256 11.9131 2.70451 13.7929 3.99319 15.2528C5.28187 16.7127 7.05877 17.6524 8.99079 17.8958V19.9658H6.99079C6.72558 19.9658 6.47122 20.0712 6.28369 20.2587C6.09615 20.4462 5.99079 20.7006 5.99079 20.9658C5.99079 21.231 6.09615 21.4854 6.28369 21.6729C6.47122 21.8604 6.72558 21.9658 6.99079 21.9658H12.9908C13.256 21.9658 13.5104 21.8604 13.6979 21.6729C13.8854 21.4854 13.9908 21.231 13.9908 20.9658C13.9908 20.7006 13.8854 20.4462 13.6979 20.2587C13.5104 20.0712 13.256 19.9658 12.9908 19.9658H10.9908V17.8958C12.3936 17.7212 13.7236 17.172 14.8408 16.3058L18.2408 19.7058C18.4278 19.8941 18.6819 20.0004 18.9473 20.0014C19.2126 20.0023 19.4675 19.8978 19.6558 19.7108C19.8441 19.5238 19.9504 19.2697 19.9513 19.0043C19.9523 18.739 19.8478 18.4841 19.6608 18.2958H19.7108ZM9.99079 11.9658C9.46036 11.9658 8.95165 11.7551 8.57658 11.38C8.20151 11.0049 7.99079 10.4962 7.99079 9.9658V9.4458L10.4408 11.9058C10.2941 11.9454 10.1428 11.9655 9.99079 11.9658Z" fill="var(--fill-0, #1E1F26)"/>
</svg>
