<svg preserveAspectRatio="none" width="100%" height="100%" overflow="visible" style="display: block;" viewBox="0 0 18.0794 18.0298" fill="none" xmlns="http://www.w3.org/2000/svg">
<path id="Vector" d="M10.29 4.1598C10.1963 4.25276 10.1219 4.36336 10.0711 4.48522C10.0203 4.60708 9.99421 4.73779 9.99421 4.8698C9.99421 5.00181 10.0203 5.13252 10.0711 5.25438C10.1219 5.37624 10.1963 5.48684 10.29 5.5798L12.21 7.4998C12.303 7.59353 12.4136 7.66792 12.5354 7.71869C12.6573 7.76946 12.788 7.7956 12.92 7.7956C13.052 7.7956 13.1827 7.76946 13.3046 7.71869C13.4264 7.66792 13.537 7.59353 13.63 7.4998L17.71 3.4198C17.8194 3.33095 17.9087 3.21999 17.9722 3.0942C18.0356 2.96841 18.0718 2.83063 18.0783 2.68988C18.0848 2.54913 18.0615 2.4086 18.0099 2.27749C17.9583 2.14638 17.8796 2.02766 17.7789 1.9291C17.6782 1.83054 17.5578 1.75437 17.4256 1.70558C17.2935 1.65679 17.1525 1.63649 17.0119 1.64599C16.8713 1.6555 16.7343 1.69461 16.6099 1.76075C16.4855 1.82689 16.3765 1.91858 16.29 2.0298L12.92 5.3798L11.71 4.1598C11.617 4.06607 11.5064 3.99168 11.3846 3.94091C11.2627 3.89014 11.132 3.864 11 3.864C10.868 3.864 10.7373 3.89014 10.6154 3.94091C10.4936 3.99168 10.383 4.06607 10.29 4.1598V4.1598ZM16.91 7.6698C16.6463 7.6927 16.4024 7.81925 16.2318 8.0217C16.0612 8.22415 15.9778 8.48599 16 8.7498C16.005 8.84307 16.005 8.93653 16 9.0298C16 10.8863 15.2625 12.6668 13.9498 13.9795C12.637 15.2923 10.8565 16.0298 9 16.0298H3.41L4.05 15.3998C4.23625 15.2124 4.3408 14.959 4.3408 14.6948C4.3408 14.4306 4.23625 14.1772 4.05 13.9898C3.15566 13.1003 2.51828 11.9857 2.20526 10.7637C1.89224 9.54182 1.91521 8.25803 2.27174 7.04809C2.62827 5.83815 3.30511 4.74703 4.23069 3.89008C5.15628 3.03314 6.29623 2.44222 7.53 2.1798C8.45419 1.995 9.40582 1.995 10.33 2.1798C10.4613 2.20607 10.5965 2.20621 10.7279 2.18022C10.8593 2.15423 10.9843 2.10262 11.0957 2.02833C11.2071 1.95404 11.3028 1.85853 11.3773 1.74726C11.4519 1.63599 11.5037 1.51112 11.53 1.3798C11.5563 1.24848 11.5564 1.11327 11.5304 0.981893C11.5044 0.850517 11.4528 0.725546 11.3785 0.614115C11.3042 0.502685 11.2087 0.406978 11.0975 0.332458C10.9862 0.257938 10.8613 0.206065 10.73 0.179801C9.53861 -0.0599336 8.3114 -0.0599336 7.12 0.179801C5.10119 0.620468 3.29398 1.73872 1.99871 3.34871C0.703444 4.9587 -0.00186614 6.96346 3.70833e-06 9.0298C0.00840423 11.076 0.71384 13.0583 2 14.6498L0.290004 16.3198C0.151246 16.4604 0.0572498 16.639 0.0198757 16.833C-0.0174985 17.027 0.0034242 17.2277 0.0800036 17.4098C0.155024 17.5924 0.282422 17.7487 0.446142 17.8591C0.609862 17.9694 0.802578 18.0288 1 18.0298H9C11.387 18.0298 13.6761 17.0816 15.364 15.3938C17.0518 13.7059 18 11.4167 18 9.0298C18 8.8798 18 8.7398 18 8.5898C17.99 8.45741 17.9536 8.32834 17.8932 8.21013C17.8327 8.09192 17.7493 7.98693 17.6479 7.9013C17.5464 7.81566 17.4289 7.75108 17.3022 7.71134C17.1755 7.67159 17.0422 7.65747 16.91 7.6698Z" fill="var(--fill-0, #1E1F26)"/>
</svg>
