<svg preserveAspectRatio="none" width="100%" height="100%" overflow="visible" style="display: block;" viewBox="0 0 19.9885 19.9885" fill="none" xmlns="http://www.w3.org/2000/svg">
<path id="Vector" d="M19.6743 15.6518L12.6743 1.65182C12.4245 1.15522 12.0416 0.737798 11.5683 0.446125C11.0951 0.154453 10.5502 0 9.99427 0C9.43838 0 8.89342 0.154453 8.42019 0.446125C7.94696 0.737798 7.56408 1.15522 7.31427 1.65182L0.314269 15.6518C0.0392781 16.2043 -0.0586206 16.8282 0.0339206 17.4384C0.126462 18.0486 0.404939 18.6154 0.831385 19.0615C1.25783 19.5076 1.81149 19.8114 2.41688 19.9313C3.02227 20.0513 3.64992 19.9816 4.21427 19.7318L9.58427 17.3318C9.7141 17.2774 9.85348 17.2493 9.99427 17.2493C10.1351 17.2493 10.2744 17.2774 10.4043 17.3318L15.7743 19.7318C16.3386 19.9816 16.9663 20.0513 17.5717 19.9313C18.177 19.8114 18.7307 19.5076 19.1572 19.0615C19.5836 18.6154 19.8621 18.0486 19.9546 17.4384C20.0472 16.8282 19.9493 16.2043 19.6743 15.6518V15.6518ZM17.6743 17.6518C17.5315 17.8004 17.3464 17.9014 17.1441 17.9407C16.9418 17.9801 16.7323 17.956 16.5443 17.8718L11.1743 15.4818C10.7903 15.3109 10.3746 15.2225 9.95427 15.2225C9.53393 15.2225 9.11828 15.3109 8.73427 15.4818L3.40427 17.9018C3.21723 17.9831 3.00982 18.0052 2.80984 17.9653C2.60986 17.9253 2.42687 17.8252 2.28542 17.6783C2.14396 17.5314 2.0508 17.3448 2.01842 17.1434C1.98604 16.9421 2.016 16.7357 2.10427 16.5518L9.10427 2.55182C9.18819 2.38801 9.31568 2.25055 9.47271 2.15456C9.62975 2.05857 9.81022 2.00778 9.99427 2.00778C10.1783 2.00778 10.3588 2.05857 10.5158 2.15456C10.6729 2.25055 10.8004 2.38801 10.8843 2.55182L17.8843 16.5518C17.9748 16.735 18.007 16.9415 17.9766 17.1435C17.9462 17.3455 17.8546 17.5334 17.7143 17.6818L17.6743 17.6518Z" fill="var(--fill-0, #1E1F26)"/>
</svg>
