<svg preserveAspectRatio="none" width="100%" height="100%" overflow="visible" style="display: block;" viewBox="0 0 20 21" fill="none" xmlns="http://www.w3.org/2000/svg">
<path id="Vector" d="M18 4.18V3C18 2.20435 17.6839 1.44129 17.1213 0.87868C16.5587 0.31607 15.7956 0 15 0C14.2044 0 13.4413 0.31607 12.8787 0.87868C12.3161 1.44129 12 2.20435 12 3V4.18C11.4165 4.38631 10.911 4.76807 10.5529 5.27293C10.1949 5.7778 10.0017 6.38106 10 7V9C10 9.79565 10.3161 10.5587 10.8787 11.1213C11.4413 11.6839 12.2044 12 13 12H17C17.7956 12 18.5587 11.6839 19.1213 11.1213C19.6839 10.5587 20 9.79565 20 9V7C19.9983 6.38106 19.8051 5.7778 19.4471 5.27293C19.089 4.76807 18.5835 4.38631 18 4.18ZM14 3C14 2.73478 14.1054 2.48043 14.2929 2.29289C14.4804 2.10536 14.7348 2 15 2C15.2652 2 15.5196 2.10536 15.7071 2.29289C15.8946 2.48043 16 2.73478 16 3V4H14V3ZM18 9C18 9.26522 17.8946 9.51957 17.7071 9.70711C17.5196 9.89464 17.2652 10 17 10H13C12.7348 10 12.4804 9.89464 12.2929 9.70711C12.1054 9.51957 12 9.26522 12 9V7C12 6.73478 12.1054 6.48043 12.2929 6.29289C12.4804 6.10536 12.7348 6 13 6H17C17.2652 6 17.5196 6.10536 17.7071 6.29289C17.8946 6.48043 18 6.73478 18 7V9ZM17 14C16.7348 14 16.4804 14.1054 16.2929 14.2929C16.1054 14.4804 16 14.7348 16 15V18C15.9986 18.1914 15.9354 18.3773 15.82 18.53L7.41 10.12C6.87897 9.61786 6.17585 9.33807 5.445 9.33807C4.71415 9.33807 4.01103 9.61786 3.48 10.12L2 11.6V6C2 5.73478 2.10536 5.48043 2.29289 5.29289C2.48043 5.10536 2.73478 5 3 5H8C8.26522 5 8.51957 4.89464 8.70711 4.70711C8.89464 4.51957 9 4.26522 9 4C9 3.73478 8.89464 3.48043 8.70711 3.29289C8.51957 3.10536 8.26522 3 8 3H3C2.20435 3 1.44129 3.31607 0.87868 3.87868C0.316071 4.44129 0 5.20435 0 6V18C0 18.7956 0.316071 19.5587 0.87868 20.1213C1.44129 20.6839 2.20435 21 3 21H15C15.7956 21 16.5587 20.6839 17.1213 20.1213C17.6839 19.5587 18 18.7956 18 18V15C18 14.7348 17.8946 14.4804 17.7071 14.2929C17.5196 14.1054 17.2652 14 17 14ZM3 19C2.73478 19 2.48043 18.8946 2.29289 18.7071C2.10536 18.5196 2 18.2652 2 18V14.43L4.9 11.53C5.04691 11.39 5.24206 11.3119 5.445 11.3119C5.64794 11.3119 5.84309 11.39 5.99 11.53L13.46 19H3Z" fill="var(--fill-0, #1E1F26)"/>
</svg>
