<svg preserveAspectRatio="none" width="100%" height="100%" overflow="visible" style="display: block;" viewBox="0 0 16.007 18.1679" fill="none" xmlns="http://www.w3.org/2000/svg">
<path id="Vector" d="M15.5 8.21397L1.50001 0.133975C1.34799 0.0462062 1.17554 0 1.00001 0C0.824471 0 0.652027 0.0462062 0.500008 0.133975C0.347404 0.222079 0.220789 0.348943 0.132986 0.501721C0.0451825 0.654498 -0.000691685 0.827765 7.88292e-06 1.00397V17.164C-0.000691685 17.3402 0.0451825 17.5135 0.132986 17.6662C0.220789 17.819 0.347404 17.9459 0.500008 18.034C0.652027 18.1217 0.824471 18.1679 1.00001 18.1679C1.17554 18.1679 1.34799 18.1217 1.50001 18.034L15.5 9.95397C15.6539 9.86676 15.7819 9.74028 15.871 9.58744C15.96 9.4346 16.007 9.26087 16.007 9.08397C16.007 8.90708 15.96 8.73335 15.871 8.58051C15.7819 8.42767 15.6539 8.30119 15.5 8.21397V8.21397ZM2.00001 15.434V2.73397L13 9.08397L2.00001 15.434Z" fill="var(--fill-0, #1E1F26)"/>
</svg>
