<svg preserveAspectRatio="none" width="100%" height="100%" overflow="visible" style="display: block;" viewBox="0 0 16.9551 20.0004" fill="none" xmlns="http://www.w3.org/2000/svg">
<path id="Vector" d="M16.49 8.35034L10.71 0.940338C10.4197 0.638035 10.0703 0.398605 9.68359 0.236897C9.29689 0.0751886 8.88109 -0.00535004 8.46198 0.000275651C8.04287 0.00590134 7.62938 0.0975713 7.24715 0.269601C6.86493 0.44163 6.52213 0.690351 6.24 1.00034L0.49 8.35034C0.171643 8.84189 0.0015355 9.4147 0 10.0003C0.0167019 10.5617 0.186106 11.108 0.49 11.5803L0.55 11.6503L6.29 19.0603C6.57261 19.3596 6.91377 19.5974 7.29224 19.7591C7.67072 19.9208 8.07843 20.0029 8.49 20.0003C8.91553 20 9.3363 19.9108 9.72544 19.7386C10.1146 19.5665 10.4635 19.315 10.75 19.0003L16.49 11.6503C16.8037 11.1547 16.9653 10.5779 16.9546 9.99134C16.9439 9.40482 16.7615 8.83428 16.43 8.35034H16.49ZM14.92 10.4903L9.25 17.7103C9.05891 17.8863 8.81215 17.9897 8.55268 18.0025C8.29321 18.0153 8.03747 17.9367 7.83 17.7803L2.14 10.4703C2.05505 10.3277 2.00693 10.1662 2 10.0003C2.00148 9.84499 2.03554 9.69169 2.1 9.55034L7.77 2.33034C7.96109 2.15435 8.20785 2.05095 8.46732 2.03816C8.72679 2.02537 8.98253 2.10399 9.19 2.26034L14.82 9.54034C14.924 9.70129 14.9795 9.88873 14.98 10.0803C14.9732 10.2221 14.9392 10.3613 14.88 10.4903H14.92Z" fill="var(--fill-0, #1E1F26)"/>
</svg>
