<svg preserveAspectRatio="none" width="100%" height="100%" overflow="visible" style="display: block;" viewBox="0 0 22 22" fill="none" xmlns="http://www.w3.org/2000/svg">
<path id="Vector" d="M9 14C9.13134 14.0001 9.26141 13.9743 9.38277 13.924C9.50413 13.8738 9.6144 13.8002 9.70728 13.7073C9.80015 13.6144 9.87381 13.5041 9.92404 13.3828C9.97426 13.2614 10.0001 13.1313 10 13V5C10 4.73478 9.89464 4.48043 9.70711 4.29289C9.51957 4.10536 9.26522 4 9 4C8.73478 4 8.48043 4.10536 8.29289 4.29289C8.10536 4.48043 8 4.73478 8 5V13C7.99993 13.1313 8.02574 13.2614 8.07597 13.3828C8.1262 13.5041 8.19985 13.6144 8.29273 13.7073C8.3856 13.8001 8.49587 13.8738 8.61723 13.924C8.73859 13.9743 8.86866 14.0001 9 14V14ZM13 14C13.1313 14.0001 13.2614 13.9743 13.3828 13.924C13.5041 13.8738 13.6144 13.8002 13.7073 13.7073C13.8002 13.6144 13.8738 13.5041 13.924 13.3828C13.9743 13.2614 14.0001 13.1313 14 13V5C14 4.73478 13.8946 4.48043 13.7071 4.29289C13.5196 4.10536 13.2652 4 13 4C12.7348 4 12.4804 4.10536 12.2929 4.29289C12.1054 4.48043 12 4.73478 12 5V13C11.9999 13.1313 12.0257 13.2614 12.076 13.3828C12.1262 13.5041 12.1999 13.6144 12.2927 13.7073C12.3856 13.8001 12.4959 13.8738 12.6172 13.924C12.7386 13.9743 12.8687 14.0001 13 14V14ZM5 12C5.13134 12.0001 5.26141 11.9743 5.38277 11.924C5.50413 11.8738 5.6144 11.8002 5.70728 11.7073C5.80015 11.6144 5.87381 11.5041 5.92404 11.3828C5.97426 11.2614 6.00008 11.1313 6 11V7C6 6.73478 5.89464 6.48043 5.70711 6.29289C5.51957 6.10536 5.26522 6 5 6C4.73478 6 4.48043 6.10536 4.29289 6.29289C4.10536 6.48043 4 6.73478 4 7V11C3.99993 11.1313 4.02574 11.2614 4.07597 11.3828C4.1262 11.5041 4.19985 11.6144 4.29273 11.7073C4.3856 11.8001 4.49587 11.8738 4.61723 11.924C4.73859 11.9743 4.86866 12.0001 5 12V12ZM19 0H3C2.20462 0.000868196 1.44206 0.317218 0.879639 0.879639C0.317218 1.44206 0.000868196 2.20462 0 3V19C0.000868196 19.7954 0.317218 20.5579 0.879639 21.1204C1.44206 21.6828 2.20462 21.9991 3 22H19C19.7954 21.9991 20.5579 21.6828 21.1204 21.1204C21.6828 20.5579 21.9991 19.7954 22 19V3C21.9991 2.20462 21.6828 1.44206 21.1204 0.879639C20.5579 0.317218 19.7954 0.000868196 19 0V0ZM20 19C19.9998 19.2652 19.8944 19.5194 19.7069 19.7069C19.5194 19.8944 19.2652 19.9998 19 20H3C2.73484 19.9998 2.48059 19.8944 2.29309 19.7069C2.10559 19.5194 2.00018 19.2652 2 19V3C2.00018 2.73484 2.10559 2.48059 2.29309 2.29309C2.48059 2.10559 2.73484 2.00018 3 2H19C19.2652 2.00018 19.5194 2.10559 19.7069 2.29309C19.8944 2.48059 19.9998 2.73484 20 3V19ZM16.3564 14.4082C14.7907 15.5053 12.9108 16.0639 11 16C9.09073 16.0521 7.21452 15.4945 5.64356 14.4082C5.54302 14.3237 5.42681 14.2598 5.30158 14.2202C5.17635 14.1806 5.04454 14.166 4.91369 14.1774C4.78283 14.1887 4.65549 14.2257 4.53894 14.2863C4.42238 14.3468 4.31889 14.4297 4.23438 14.5303C4.14987 14.6308 4.08599 14.747 4.04638 14.8722C4.00678 14.9975 3.99223 15.1293 4.00356 15.2601C4.0149 15.391 4.0519 15.5183 4.11245 15.6349C4.17299 15.7514 4.25591 15.8549 4.35645 15.9395C6.28313 17.3402 8.61884 18.0646 11 18C13.3812 18.0646 15.7169 17.3402 17.6436 15.9395C17.8466 15.7688 17.9736 15.5244 17.9964 15.2601C18.0193 14.9959 17.9363 14.7333 17.7656 14.5303C17.5949 14.3272 17.3506 14.2003 17.0863 14.1774C16.8221 14.1545 16.5595 14.2375 16.3564 14.4082V14.4082ZM17 6C16.8687 5.99992 16.7386 6.02574 16.6172 6.07596C16.4959 6.12619 16.3856 6.19985 16.2927 6.29272C16.1999 6.3856 16.1262 6.49587 16.076 6.61723C16.0257 6.73859 15.9999 6.86866 16 7V11C16 11.2652 16.1054 11.5196 16.2929 11.7071C16.4804 11.8946 16.7348 12 17 12C17.2652 12 17.5196 11.8946 17.7071 11.7071C17.8946 11.5196 18 11.2652 18 11V7C18.0001 6.86866 17.9743 6.73859 17.924 6.61723C17.8738 6.49587 17.8001 6.3856 17.7073 6.29272C17.6144 6.19985 17.5041 6.12619 17.3828 6.07596C17.2614 6.02574 17.1313 5.99992 17 6V6Z" fill="var(--fill-0, #1E1F26)"/>
</svg>
