<svg preserveAspectRatio="none" width="100%" height="100%" overflow="visible" style="display: block;" viewBox="0 0 18 20" fill="none" xmlns="http://www.w3.org/2000/svg">
<path id="Vector" d="M15 0H3C2.20435 0 1.44129 0.316071 0.87868 0.87868C0.316071 1.44129 0 2.20435 0 3V15C0.00173951 15.6189 0.194879 16.2222 0.552938 16.7271C0.910998 17.2319 1.41645 17.6137 2 17.82V19C2 19.2652 2.10536 19.5196 2.29289 19.7071C2.48043 19.8946 2.73478 20 3 20C3.26522 20 3.51957 19.8946 3.70711 19.7071C3.89464 19.5196 4 19.2652 4 19V18H14V19C14 19.2652 14.1054 19.5196 14.2929 19.7071C14.4804 19.8946 14.7348 20 15 20C15.2652 20 15.5196 19.8946 15.7071 19.7071C15.8946 19.5196 16 19.2652 16 19V17.82C16.5835 17.6137 17.089 17.2319 17.4471 16.7271C17.8051 16.2222 17.9983 15.6189 18 15V3C18 2.20435 17.6839 1.44129 17.1213 0.87868C16.5587 0.316071 15.7956 0 15 0ZM2 6H8V10H2V6ZM16 15C16 15.2652 15.8946 15.5196 15.7071 15.7071C15.5196 15.8946 15.2652 16 15 16H3C2.73478 16 2.48043 15.8946 2.29289 15.7071C2.10536 15.5196 2 15.2652 2 15V12H16V15ZM16 10H10V6H16V10ZM16 4H2V3C2 2.73478 2.10536 2.48043 2.29289 2.29289C2.48043 2.10536 2.73478 2 3 2H15C15.2652 2 15.5196 2.10536 15.7071 2.29289C15.8946 2.48043 16 2.73478 16 3V4ZM12.62 14.92C12.7402 14.9712 12.8693 14.9984 13 15C13.2652 15 13.5196 14.8946 13.7071 14.7071C13.8946 14.5196 14 14.2652 14 14C14.0049 13.9334 14.0049 13.8666 14 13.8C13.9891 13.7374 13.9688 13.6767 13.94 13.62C13.9181 13.5563 13.8878 13.4957 13.85 13.44C13.8131 13.3876 13.773 13.3375 13.73 13.29L13.58 13.17C13.5243 13.1322 13.4637 13.1019 13.4 13.08C13.3383 13.0422 13.2707 13.0152 13.2 13C13.0378 12.9661 12.8698 12.973 12.7109 13.0201C12.5521 13.0673 12.4074 13.1531 12.29 13.27C12.247 13.3175 12.2069 13.3676 12.17 13.42C12.1322 13.4757 12.1019 13.5363 12.08 13.6C12.0512 13.6567 12.0309 13.7174 12.02 13.78C12.0151 13.8466 12.0151 13.9134 12.02 13.98C12.0211 14.2423 12.1253 14.4937 12.31 14.68C12.3965 14.7797 12.5018 14.8612 12.62 14.92ZM4.62 14.92C4.74022 14.9712 4.86932 14.9984 5 15C5.26522 15 5.51957 14.8946 5.70711 14.7071C5.89464 14.5196 6 14.2652 6 14C6.00491 13.9334 6.00491 13.8666 6 13.8C5.98905 13.7374 5.96883 13.6767 5.94 13.62C5.91811 13.5563 5.88785 13.4957 5.85 13.44C5.81308 13.3876 5.773 13.3375 5.73 13.29L5.58 13.17L5.4 13.08L5.2 13C5.03782 12.9661 4.86976 12.973 4.71092 13.0201C4.55208 13.0673 4.40744 13.1531 4.29 13.27C4.24699 13.3175 4.20692 13.3676 4.17 13.42C4.13215 13.4757 4.10189 13.5363 4.08 13.6C4.05117 13.6567 4.03095 13.7174 4.02 13.78C4.01509 13.8466 4.01509 13.9134 4.02 13.98C4.0211 14.2423 4.12526 14.4937 4.31 14.68C4.39649 14.7797 4.50184 14.8612 4.62 14.92V14.92Z" fill="var(--fill-0, #1E1F26)"/>
</svg>
