<svg preserveAspectRatio="none" width="100%" height="100%" overflow="visible" style="display: block;" viewBox="0 0 12.25 17.25" fill="none" xmlns="http://www.w3.org/2000/svg">
<path id="Vector" d="M0.625 12.625H1.625M3.625 12.625H4.625M6.625 12.625H7.625M0.625 14.625H1.625M3.625 14.625H4.625M6.625 14.625H7.625M0.625 16.625H1.625M3.625 16.625H4.625M6.625 16.625H7.625M7.125 10.625H1.125C0.825 10.625 0.625 10.425 0.625 10.125V6.625C0.625 6.325 0.825 6.125 1.125 6.125H7.125C7.425 6.125 7.625 6.325 7.625 6.625V10.125C7.625 10.425 7.425 10.625 7.125 10.625ZM6.125 0.625H2.125C1.825 0.625 1.625 0.825 1.625 1.125V4.125C1.625 4.425 1.825 4.625 2.125 4.625H6.125C6.425 4.625 6.625 4.425 6.625 4.125V1.125C6.625 0.825 6.425 0.625 6.125 0.625ZM11.125 16.625H9.625V6.125H11.125C11.425 6.125 11.625 6.325 11.625 6.625V16.125C11.625 16.425 11.425 16.625 11.125 16.625Z" stroke="var(--stroke-0, black)" stroke-width="1.25" stroke-miterlimit="10" stroke-linecap="round" stroke-linejoin="round"/>
</svg>
