<svg preserveAspectRatio="none" width="100%" height="100%" overflow="visible" style="display: block;" viewBox="0 0 18.1491 19.9999" fill="none" xmlns="http://www.w3.org/2000/svg">
<path id="Vector" d="M11.5525 12.8829C10.8006 12.9562 10.0431 12.8183 9.36527 12.4846C9.21172 12.3618 9.08499 12.2088 8.99289 12.035C8.9008 11.8613 8.84529 11.6705 8.8298 11.4745C8.82949 11.4451 8.82336 11.4161 8.81177 11.3892C8.80018 11.3622 8.78336 11.3379 8.76229 11.3174C8.74121 11.297 8.71629 11.281 8.68898 11.2703C8.66167 11.2596 8.63251 11.2544 8.60318 11.255C8.28659 11.2512 7.97006 11.252 7.65353 11.2546C7.59821 11.249 7.5429 11.2654 7.49958 11.3002C7.45627 11.3351 7.42845 11.3856 7.42215 11.4409C7.4041 11.7848 7.46224 12.1285 7.59242 12.4474C7.72259 12.7662 7.9216 13.0524 8.1752 13.2854C8.8154 13.785 9.59274 14.0774 10.4035 14.1236C11.2482 14.2216 12.1031 14.1853 12.9366 14.0161C13.5765 13.8967 14.1632 13.5805 14.6148 13.1117C14.8644 12.8039 15.0317 12.4376 15.101 12.0474C15.1703 11.6572 15.1392 11.2558 15.0108 10.8809C14.9029 10.6166 14.7359 10.3805 14.5226 10.1908C14.3093 10.0011 14.0554 9.86271 13.7804 9.78634C12.4996 9.33694 11.1161 9.37093 9.81038 9.02944C9.5837 8.95809 9.30672 8.88064 9.20571 8.64065C9.14732 8.47177 9.14332 8.28884 9.1943 8.11757C9.24527 7.94631 9.34865 7.79533 9.48989 7.68587C9.89985 7.45158 10.3667 7.33535 10.8386 7.35006C11.4792 7.28976 12.1249 7.38215 12.7228 7.61965C12.9024 7.72528 13.0569 7.86875 13.1755 8.04009C13.2941 8.21143 13.374 8.40653 13.4096 8.61184C13.4113 8.67243 13.4356 8.73019 13.4777 8.77379C13.5198 8.81739 13.5767 8.84367 13.6372 8.84749C13.9515 8.8539 14.266 8.8492 14.5803 8.84963C14.6348 8.85615 14.6898 8.84277 14.7353 8.81196C14.7807 8.78115 14.8135 8.73497 14.8276 8.68191C14.8304 8.25792 14.7224 7.84056 14.5142 7.47116C14.3061 7.10177 14.0051 6.79316 13.6409 6.57591C12.636 6.1121 11.5205 5.94141 10.4228 6.08348V6.0834C9.61849 6.11637 8.85008 6.42512 8.2466 6.95778C7.96955 7.25639 7.78193 7.62681 7.70514 8.02685C7.62834 8.42688 7.66544 8.84045 7.81222 9.22042C7.92647 9.47496 8.09456 9.7017 8.3049 9.885C8.51524 10.0683 8.76283 10.2038 9.0306 10.2822C10.3071 10.7433 11.7061 10.5953 12.995 11.003C13.2462 11.0882 13.5387 11.2185 13.6156 11.4981C13.657 11.6656 13.6538 11.841 13.6065 12.007C13.5592 12.1729 13.4694 12.3237 13.346 12.4442C12.8099 12.7772 12.1818 12.9309 11.5525 12.8829V12.8829ZM17.3714 4.43752C14.8792 3.02819 12.3864 1.62013 9.89298 0.213342C9.6428 0.07345 9.36095 0 9.07432 0C8.78768 0 8.50583 0.07345 8.25565 0.213342C5.77196 1.61588 3.28815 3.01834 0.8042 4.42074C0.562556 4.55245 0.360552 4.74642 0.219143 4.98252C0.0777336 5.21862 0.00206971 5.48825 0 5.76345V14.2377C0.00397722 14.5179 0.0837154 14.7918 0.230758 15.0304C0.3778 15.2689 0.586664 15.4632 0.8352 15.5927C1.54871 15.9811 2.24194 16.409 2.96838 16.7715C3.38766 16.9957 3.85336 17.1192 4.32861 17.1322C4.80387 17.1453 5.27564 17.0476 5.7066 16.8468C6.02907 16.6448 6.29146 16.36 6.46643 16.0221C6.64141 15.6842 6.72255 15.3056 6.70142 14.9256C6.70697 12.129 6.70227 9.33213 6.70355 6.53538C6.70842 6.5048 6.70677 6.47354 6.69872 6.44365C6.69066 6.41375 6.67639 6.38589 6.65682 6.3619C6.63725 6.33791 6.61283 6.31832 6.58517 6.30441C6.5575 6.29051 6.52721 6.28261 6.49628 6.28123C6.17889 6.2761 5.86102 6.27823 5.54364 6.28038C5.51425 6.27774 5.48464 6.28135 5.45674 6.29096C5.42885 6.30057 5.4033 6.31597 5.38177 6.33614C5.36024 6.35632 5.34322 6.38082 5.33182 6.40803C5.32043 6.43525 5.31491 6.46457 5.31564 6.49406C5.31137 9.27281 5.3165 12.0524 5.31308 14.8315C5.31381 15.0234 5.25586 15.2108 5.14701 15.3688C5.03815 15.5267 4.8836 15.6476 4.70408 15.7153C4.49736 15.7764 4.28007 15.7932 4.06641 15.7646C3.85275 15.736 3.64753 15.6626 3.46415 15.5493C2.80314 15.176 2.14214 14.8027 1.48115 14.4294C1.43735 14.4087 1.40097 14.375 1.37689 14.3329C1.35282 14.2908 1.34222 14.2424 1.34651 14.1941C1.34651 11.3982 1.34651 8.60249 1.34651 5.80687C1.34191 5.75249 1.35462 5.69804 1.38282 5.65131C1.41101 5.60458 1.45326 5.56796 1.50351 5.54667C3.97905 4.15242 6.45412 2.7567 8.92871 1.35952C8.97169 1.33017 9.02254 1.3145 9.07459 1.31458C9.12664 1.31466 9.17745 1.33047 9.22034 1.35995C11.6958 2.75465 14.1711 4.14982 16.6464 5.54549C16.6964 5.56737 16.7383 5.60432 16.7663 5.65119C16.7943 5.69806 16.8069 5.7525 16.8025 5.80691C16.8021 8.6023 16.8018 11.3979 16.8016 14.1938C16.806 14.2422 16.7957 14.2909 16.772 14.3334C16.7482 14.3759 16.7123 14.4103 16.6687 14.432C14.2311 15.8104 11.7922 17.1867 9.35193 18.5611C9.23535 18.6261 9.09735 18.7306 8.961 18.6519C8.3219 18.2901 7.69061 17.9143 7.05365 17.5492C7.02109 17.5243 6.98183 17.5096 6.94092 17.5072C6.9 17.5047 6.85928 17.5145 6.82397 17.5354C6.54341 17.6998 6.2481 17.8376 5.94189 17.947C5.80383 18.0029 5.63397 18.0188 5.53894 18.1469C5.66007 18.2787 5.80682 18.3844 5.97021 18.4575C6.71515 18.8888 7.46048 19.3198 8.20621 19.7503C8.45285 19.9052 8.7365 19.9912 9.02763 19.9993C9.31876 20.0074 9.60674 19.9373 9.8616 19.7963C12.3457 18.3957 14.8296 16.9944 17.3134 15.5924C17.5618 15.4627 17.7705 15.2684 17.9176 15.03C18.0646 14.7915 18.1446 14.5178 18.1491 14.2377V5.76345C18.147 5.49369 18.0741 5.2292 17.9376 4.99649C17.8011 4.76379 17.6059 4.57103 17.3715 4.43752H17.3714Z" fill="var(--fill-0, #1E1F26)"/>
</svg>
