<svg preserveAspectRatio="none" width="100%" height="100%" overflow="visible" style="display: block;" viewBox="0 0 19.985 20" fill="none" xmlns="http://www.w3.org/2000/svg">
<path id="Vector" d="M19.9656 4.68079C19.9643 4.32058 19.9313 3.96119 19.8669 3.60679C19.795 3.17355 19.6582 2.75362 19.4612 2.36113C19.2455 1.94866 18.9647 1.57372 18.6295 1.25077C18.1232 0.755246 17.4979 0.398433 16.8138 0.2147C16.1855 0.0624046 15.54 -0.00646449 14.8938 0.00987005L14.8901 0H5.09135L5.0908 0.00989008C4.72322 0.00700307 4.35575 0.0234423 3.98991 0.05914C3.589 0.101883 3.19436 0.190727 2.81382 0.32391C2.18682 0.560349 1.62441 0.941307 1.17225 1.43586C0.720093 1.93041 0.390924 2.52461 0.211468 3.17023C0.0602574 3.79342 -0.00860945 4.43374 0.00662738 5.07483L3.74923e-05 14.913V14.9139C-0.00121782 15.3594 0.0290511 15.8044 0.0906175 16.2456C0.157492 16.7125 0.295507 17.1663 0.499857 17.5914C0.788085 18.1586 1.19848 18.655 1.70152 19.0447C2.06083 19.331 2.46787 19.5516 2.90391 19.6964C3.54401 19.8943 4.21081 19.9922 4.88078 19.9869C5.30015 19.9895 5.71922 20 6.13878 19.9982C9.18542 19.9854 12.2321 20.0202 15.2789 19.9794C15.6813 19.9706 16.0823 19.928 16.4776 19.852C17.225 19.7205 17.9205 19.3821 18.4853 18.8754C19.1506 18.297 19.6151 17.5224 19.8118 16.6631C19.933 16.0877 19.9909 15.5008 19.9845 14.9129V14.7957C19.9845 14.7502 19.9672 4.81219 19.9656 4.68079ZM17.2895 13.9306C17.1617 14.23 16.5155 14.4782 15.4216 14.6472C15.3189 14.663 15.2757 14.829 15.2165 15.1007C15.1921 15.2128 15.1672 15.3228 15.1331 15.4384C15.1229 15.4871 15.0953 15.5304 15.0555 15.5602C15.0157 15.59 14.9664 15.6042 14.9168 15.6002H14.8996C14.7949 15.5965 14.6908 15.5833 14.5884 15.5609C14.3186 15.5044 14.0437 15.4753 13.768 15.474C13.5698 15.4745 13.3719 15.4912 13.1764 15.524C12.7638 15.6285 12.3801 15.8245 12.0536 16.0975C11.5016 16.5688 10.808 16.8422 10.0829 16.8743C10.0414 16.8743 10.0018 16.8728 9.97172 16.8713C9.9478 16.8734 9.92314 16.8743 9.89842 16.8743C9.17375 16.8424 8.48054 16.5692 7.92894 16.0981C7.60209 15.8248 7.21794 15.6285 6.80494 15.5239C6.60947 15.4911 6.41164 15.4744 6.21345 15.4739C5.93756 15.4768 5.6627 15.5079 5.39314 15.5667C5.2909 15.5905 5.18679 15.6054 5.08198 15.6113C5.02918 15.6174 4.97603 15.6036 4.93284 15.5726C4.88965 15.5416 4.85951 15.4957 4.84828 15.4438C4.81379 15.3267 4.78907 15.2132 4.76521 15.1039C4.70552 14.8308 4.66221 14.6641 4.56001 14.6483C3.46629 14.4795 2.82011 14.231 2.69145 13.93C2.67832 13.8999 2.67064 13.8678 2.66874 13.835C2.66631 13.7917 2.67996 13.7491 2.70706 13.7153C2.73415 13.6815 2.77278 13.6589 2.81553 13.6519C3.71998 13.4881 4.53498 13.0035 5.11088 12.2871C5.42787 11.9203 5.69145 11.5106 5.89378 11.0701L5.89778 11.0617C5.95736 10.9641 5.99492 10.8548 6.00785 10.7412C6.02077 10.6277 6.00875 10.5127 5.97261 10.4043C5.83168 10.072 5.365 9.92391 5.05622 9.82595C4.97944 9.80166 4.90681 9.77865 4.84895 9.75564C4.57521 9.64754 4.12507 9.41909 4.18501 9.10378C4.23093 8.985 4.31284 8.88355 4.41926 8.81362C4.52569 8.74369 4.65132 8.70879 4.77857 8.71378C4.84035 8.7124 4.90168 8.72465 4.9582 8.74966C5.18866 8.86774 5.44192 8.9346 5.70063 8.94566C5.85439 8.95665 6.00675 8.9101 6.12812 8.81504C6.12007 8.66911 6.11128 8.52321 6.10176 8.37736C5.96113 7.39162 6.02121 6.38763 6.27839 5.4257C6.58078 4.73525 7.07985 4.14917 7.71329 3.74063C8.34673 3.33208 9.08648 3.11917 9.84019 3.12848L10.1349 3.12573C10.8897 3.11611 11.6306 3.32898 12.2651 3.73777C12.8997 4.14657 13.3998 4.7332 13.7031 5.42444C13.9603 6.38725 14.0203 7.39209 13.8795 8.37866L13.8765 8.42645C13.8679 8.56207 13.86 8.69045 13.8532 8.81488C13.9634 8.90204 14.1005 8.94794 14.241 8.94464C14.4847 8.92628 14.7223 8.86008 14.9404 8.74982C15.0127 8.7185 15.0908 8.703 15.1695 8.70435C15.2589 8.70404 15.3475 8.72099 15.4304 8.75427L15.4345 8.75586C15.5284 8.77817 15.6135 8.82796 15.6789 8.89887C15.7443 8.96978 15.7871 9.05858 15.8017 9.15393C15.8045 9.3067 15.6909 9.5351 15.1324 9.75574C15.0752 9.77838 15.0022 9.80151 14.9251 9.82599C14.6161 9.92407 14.1497 10.0721 14.0088 10.4042C13.9726 10.5125 13.9606 10.6275 13.9735 10.7411C13.9864 10.8546 14.024 10.9639 14.0836 11.0614L14.0876 11.07C14.3671 11.7084 14.7904 12.2736 15.3244 12.7215C15.8584 13.1693 16.4886 13.4877 17.166 13.6517C17.2087 13.6588 17.2473 13.6814 17.2744 13.7152C17.3015 13.749 17.3151 13.7916 17.3127 13.8348C17.3107 13.8679 17.3029 13.9003 17.2895 13.9306V13.9306Z" fill="var(--fill-0, #1E1F26)"/>
</svg>
