<svg preserveAspectRatio="none" width="100%" height="100%" overflow="visible" style="display: block;" viewBox="0 0 20 7.00989" fill="none" xmlns="http://www.w3.org/2000/svg">
<path id="Vector" d="M8.71 2.79409L6.21 0.294091C6.0217 0.105788 5.7663 0 5.5 0C5.2337 0 4.9783 0.105788 4.79 0.294091C4.6017 0.482395 4.49591 0.73779 4.49591 1.00409C4.49591 1.13595 4.52188 1.26652 4.57234 1.38834C4.6228 1.51016 4.69676 1.62085 4.79 1.71409L5.59 2.50409H1C0.734784 2.50409 0.48043 2.60945 0.292893 2.79698C0.105357 2.98452 0 3.23887 0 3.50409C0 3.76931 0.105357 4.02366 0.292893 4.2112C0.48043 4.39873 0.734784 4.50409 1 4.50409H5.59L4.79 5.29409C4.69627 5.38705 4.62188 5.49766 4.57111 5.61951C4.52034 5.74137 4.4942 5.87208 4.4942 6.00409C4.4942 6.1361 4.52034 6.26681 4.57111 6.38867C4.62188 6.51053 4.69627 6.62113 4.79 6.71409C4.88296 6.80782 4.99356 6.88221 5.11542 6.93298C5.23728 6.98375 5.36799 7.00989 5.5 7.00989C5.63201 7.00989 5.76272 6.98375 5.88458 6.93298C6.00644 6.88221 6.11704 6.80782 6.21 6.71409L8.71 4.21409C8.80104 4.11899 8.87241 4.00684 8.92 3.88409C9.02002 3.64063 9.02002 3.36755 8.92 3.12409C8.87241 3.00134 8.80104 2.88919 8.71 2.79409V2.79409ZM19 2.50409H14.41L15.21 1.71409C15.3032 1.62085 15.3772 1.51016 15.4277 1.38834C15.4781 1.26652 15.5041 1.13595 15.5041 1.00409C15.5041 0.872232 15.4781 0.741664 15.4277 0.619842C15.3772 0.49802 15.3032 0.38733 15.21 0.294091C15.1168 0.200853 15.0061 0.126892 14.8842 0.0764313C14.7624 0.0259709 14.6319 0 14.5 0C14.3681 0 14.2376 0.0259709 14.1158 0.0764313C13.9939 0.126892 13.8832 0.200853 13.79 0.294091L11.29 2.79409C11.199 2.88919 11.1276 3.00134 11.08 3.12409C10.98 3.36755 10.98 3.64063 11.08 3.88409C11.1276 4.00684 11.199 4.11899 11.29 4.21409L13.79 6.71409C13.883 6.80782 13.9936 6.88221 14.1154 6.93298C14.2373 6.98375 14.368 7.00989 14.5 7.00989C14.632 7.00989 14.7627 6.98375 14.8846 6.93298C15.0064 6.88221 15.117 6.80782 15.21 6.71409C15.3037 6.62113 15.3781 6.51053 15.4289 6.38867C15.4797 6.26681 15.5058 6.1361 15.5058 6.00409C15.5058 5.87208 15.4797 5.74137 15.4289 5.61951C15.3781 5.49766 15.3037 5.38705 15.21 5.29409L14.41 4.50409H19C19.2652 4.50409 19.5196 4.39873 19.7071 4.2112C19.8946 4.02366 20 3.76931 20 3.50409C20 3.23887 19.8946 2.98452 19.7071 2.79698C19.5196 2.60945 19.2652 2.50409 19 2.50409Z" fill="var(--fill-0, #1E1F26)"/>
</svg>
