<svg preserveAspectRatio="none" width="100%" height="100%" overflow="visible" style="display: block;" viewBox="0 0 19.8 19.799" fill="none" xmlns="http://www.w3.org/2000/svg">
<path id="Vector" d="M18 6.29903C18.4774 6.29903 18.9352 6.48867 19.2728 6.82624C19.6104 7.16381 19.8 7.62164 19.8 8.09903V11.699C19.8 12.1764 19.6104 12.6343 19.2728 12.9718C18.9352 13.3094 18.4774 13.499 18 13.499H17.0442C16.8248 15.239 15.9779 16.8391 14.6626 17.999C13.3472 19.159 11.6537 19.799 9.9 19.799V17.999C11.3322 17.999 12.7057 17.4301 13.7184 16.4174C14.7311 15.4047 15.3 14.0312 15.3 12.599V7.19903C15.3 5.76686 14.7311 4.39335 13.7184 3.38066C12.7057 2.36796 11.3322 1.79903 9.9 1.79903C8.46783 1.79903 7.09432 2.36796 6.08162 3.38066C5.06893 4.39335 4.5 5.76686 4.5 7.19903V13.499H1.8C1.32261 13.499 0.864773 13.3094 0.527208 12.9718C0.189642 12.6343 0 12.1764 0 11.699V8.09903C0 7.62164 0.189642 7.16381 0.527208 6.82624C0.864773 6.48867 1.32261 6.29903 1.8 6.29903H2.7558C2.97543 4.55924 3.82237 2.95938 5.13772 1.79964C6.45306 0.639902 8.1464 0 9.9 0C11.6536 0 13.3469 0.639902 14.6623 1.79964C15.9776 2.95938 16.8246 4.55924 17.0442 6.29903H18ZM6.084 13.3055L7.038 11.7791C7.89577 12.3165 8.88783 12.6007 9.9 12.599C10.9122 12.6007 11.9042 12.3165 12.762 11.7791L13.716 13.3055C12.5723 14.0221 11.2496 14.4011 9.9 14.399C8.55041 14.4011 7.22767 14.0221 6.084 13.3055Z" fill="var(--fill-0, #0A0D14)"/>
</svg>
