<svg preserveAspectRatio="none" width="100%" height="100%" overflow="visible" style="display: block;" viewBox="0 0 29.9312 34.6492" fill="none" xmlns="http://www.w3.org/2000/svg">
<g id="Illustration">
<path id="Vector" d="M10.5742 8.56573C10.6579 8.77665 10.7948 8.96994 10.9624 9.1456C11.3596 9.56102 11.9304 9.87548 12.3821 10.0803C12.3811 10.1031 12.3799 10.1319 12.3782 10.1672C12.3654 10.4826 12.3302 11.2843 12.2702 12.2744C12.1603 14.0942 11.9673 16.5499 11.6775 17.7913C11.6875 17.7885 11.6945 17.7862 11.6981 17.7849H11.6984C11.6984 17.7849 11.6997 17.7843 11.7003 17.7843C11.7006 17.7843 11.7006 17.784 11.7006 17.784L11.7134 18.1721C11.7134 18.1721 14.6269 22.5655 14.5563 22.871C14.5346 22.9649 14.3092 23.256 13.9954 23.6179C15.1112 24.0112 16.078 23.7775 16.078 23.7775C15.693 23.3435 15.4016 22.9784 15.3769 22.871C15.3064 22.5655 18.2199 18.1721 18.2199 18.1721L18.2327 17.784L18.3157 15.2529C19.0687 15.5059 19.8524 15.6331 20.5579 15.4825C20.8525 15.4196 21.1333 15.3081 21.3926 15.1372C25.1757 12.6447 19.2882 4.40185 19.2882 4.40185C19.2882 4.40185 19.2825 4.84004 18.8401 5.12115C18.6683 5.23014 18.4308 5.3154 18.1022 5.34201C16.9268 5.43721 15.2433 4.65893 14.2746 4.56373C13.3059 4.46852 13.2581 4.67496 13.2581 4.67496C13.2581 4.67496 13.9412 6.91428 13.8457 7.34285C13.7505 7.77174 13.5601 8.21634 13.5601 8.21634C13.5601 8.21634 13.2264 6.48539 12.4164 6.46937C11.6064 6.45366 10.1136 7.40664 10.5742 8.56573Z" fill="var(--fill-0, #F3BBB0)" stroke="var(--stroke-0, black)" stroke-width="0.284929" stroke-linecap="round" stroke-linejoin="round"/>
<path id="Vector_2" d="M10.9588 31.1448H18.5019V23.987H10.9588V31.1448Z" fill="var(--fill-0, #BF9EF9)" stroke="var(--stroke-0, black)" stroke-width="0.284929" stroke-linecap="round" stroke-linejoin="round"/>
<path id="Vector_3" d="M4.38407 29.5599C4.95816 29.9253 7.43822 29.541 8.73386 29.307C8.21522 28.7524 7.83313 28.3065 7.70459 28.0761C7.12344 27.0343 6.16213 25.1511 6.16213 25.1511L8.14534 23.8692L6.42241 22.3867C6.42241 22.3867 8.39537 19.6961 9.16371 18.905C9.13294 18.9133 8.38222 19.1168 7.35904 19.4117C5.2412 20.0217 1.95626 21.0212 1.47769 21.4837C1.28728 21.6677 1.10874 21.8873 0.947826 22.1127C0.504833 22.7329 0.196148 23.3974 0.143579 23.4849C0.072097 23.6042 3.59777 29.0595 4.38407 29.5599Z" fill="var(--fill-0, #4C70F5)" stroke="var(--stroke-0, black)" stroke-width="0.284929" stroke-linecap="round" stroke-linejoin="round"/>
<path id="Vector_4" d="M6.22657 22.4173C6.22657 22.4173 7.01191 23.9665 7.49882 24.4993C7.98572 25.0317 6.09162 25.2728 6.02239 25.5651C5.95347 25.8574 6.9696 30.7477 8.04919 31.4673C9.12879 32.1869 11.2623 30.4935 11.4575 30.197C11.6528 29.9005 11.6479 25.074 11.4575 24.8621C11.2671 24.6506 9.53107 22.0253 9.38298 22.0042C9.23489 21.983 6.22657 22.417 6.22657 22.417V22.4173Z" fill="var(--fill-0, #2253DD)"/>
<path id="Vector_5" d="M0.947194 22.1114C1.27864 22.2998 1.68124 22.3787 2.06558 22.3559C2.65955 22.321 3.2205 22.078 3.74908 21.8056C4.27766 21.5328 4.79309 21.2247 5.35886 21.0414C5.67235 20.9394 5.9977 20.8773 6.30959 20.7712C6.62148 20.6651 6.92696 20.5086 7.13916 20.2567C7.33437 20.0246 7.43663 19.6996 7.35842 19.4104C5.24057 20.0204 1.95563 21.0199 1.47706 21.4824C1.28665 21.6664 1.10811 21.886 0.947194 22.1114Z" fill="var(--fill-0, #80A1FF)"/>
<path id="Vector_6" d="M7.70459 28.0761C7.83313 28.3065 8.21522 28.7524 8.73386 29.307C7.43822 29.541 4.95816 29.9253 4.38407 29.5599C3.59777 29.0595 0.072097 23.6042 0.143579 23.4849C0.21506 23.3657 0.762871 22.1745 1.47769 21.4837C2.18737 20.7978 9.06915 18.9306 9.16371 18.905C8.39537 19.6961 6.42241 22.3867 6.42241 22.3867L8.14534 23.8692L6.16213 25.1511C6.16213 25.1511 7.12344 27.0343 7.70459 28.0761Z" stroke="var(--stroke-0, black)" stroke-width="0.284929" stroke-linecap="round" stroke-linejoin="round"/>
<path id="Vector_7" d="M10.9615 9.14517C10.7939 8.96952 10.657 8.77623 10.5734 8.56531C10.1127 7.40622 11.6055 6.45324 12.4155 6.46894C13.2255 6.48497 13.5592 8.21591 13.5592 8.21591C13.5592 8.21591 13.7496 7.77132 13.8448 7.34243C13.9404 6.91386 13.2573 4.67453 13.2573 4.67453C13.2573 4.67453 13.305 4.4681 14.2737 4.5633C15.2424 4.6585 16.9259 5.43679 18.1014 5.34159C19.2765 5.24606 19.2874 4.40143 19.2874 4.40143C19.2874 4.40143 19.8015 3.96965 20.1676 3.33433C20.5763 2.62529 20.8007 1.66301 19.9201 0.765485C19.0649 -0.106718 18.2696 0.0590038 17.4901 0.520909C16.7826 0.940182 16.088 1.60403 15.3729 1.95759C15.2681 2.00952 15.1555 2.05408 15.0366 2.09286C13.4477 2.61535 10.6871 2.13229 9.52966 3.98119C9.41971 4.15717 9.32996 4.33219 9.25848 4.50657C8.52315 6.30162 9.74763 7.98961 10.9615 9.14517Z" fill="var(--fill-0, #6D1249)" stroke="var(--stroke-0, black)" stroke-width="0.284929" stroke-linecap="round" stroke-linejoin="round"/>
<path id="Vector_8" d="M11.6019 18.0778C11.6275 17.9922 11.6525 17.8967 11.6766 17.7928C11.6766 17.7922 11.6766 17.7915 11.6772 17.7909" stroke="var(--stroke-0, black)" stroke-width="0.284929" stroke-linecap="round" stroke-linejoin="round"/>
<path id="Vector_9" d="M22.2266 28.0761C22.0981 28.3065 21.716 28.7524 21.1974 29.307C22.493 29.541 24.9731 29.9253 25.5472 29.5599C26.3334 29.0595 29.8591 23.6042 29.7876 23.4849C29.7162 23.3657 29.1683 22.1745 28.4535 21.4837C27.7438 20.7978 20.8621 18.9306 20.7675 18.905C21.5359 19.6961 23.5088 22.3867 23.5088 22.3867L21.7859 23.8692L23.7691 25.1511C23.7691 25.1511 22.8078 27.0343 22.2266 28.0761Z" fill="var(--fill-0, #4C70F5)" stroke="var(--stroke-0, black)" stroke-width="0.284929" stroke-linecap="round" stroke-linejoin="round"/>
<path id="Vector_10" d="M22.2266 28.0761C22.0981 28.3065 21.716 28.7524 21.1974 29.307C22.493 29.541 24.9731 29.9253 25.5472 29.5599C26.3322 29.0602 29.8492 23.6199 29.788 23.4856C29.788 23.4852 29.7876 23.4852 29.7876 23.4849C29.7162 23.3657 29.1683 22.1745 28.4535 21.4837C28.0323 21.0767 25.4372 20.2535 23.3771 19.6464C21.966 19.23 20.806 18.9155 20.7675 18.905C21.5359 19.6961 23.5088 22.3867 23.5088 22.3867L21.7859 23.8692L23.7691 25.1511C23.7691 25.1511 22.8078 27.0343 22.2266 28.0761Z" fill="var(--fill-0, #4C70F5)" stroke="var(--stroke-0, black)" stroke-width="0.284929" stroke-linecap="round" stroke-linejoin="round"/>
<path id="Vector_11" d="M6.16282 25.15C6.16282 25.15 7.12413 27.0332 7.70528 28.0749C7.83382 28.3054 8.21591 28.7513 8.73455 29.3058C10.5591 31.2576 14.0691 34.5522 14.1159 34.5054C14.1514 34.4698 12.9927 29.7341 12.0291 25.5878C11.8829 24.9583 11.7409 24.3422 11.6086 23.7585C11.1447 21.7137 10.7957 20.0629 10.7703 19.601C10.6976 18.273 11.5239 17.8576 11.6768 17.7922C11.6839 17.7893 11.6897 17.787 11.6935 17.7854C11.6897 17.7867 11.6842 17.7883 11.6775 17.7903C11.5611 17.8278 11.0297 18.0005 10.4915 18.2044C10.0427 18.3746 9.58912 18.5663 9.36795 18.7195C9.31698 18.7548 9.24774 18.8182 9.1644 18.9038C8.39606 19.6949 6.4231 22.3856 6.4231 22.3856L8.14603 23.8681L6.16282 25.15Z" fill="var(--fill-0, #4C70F5)" stroke="var(--stroke-0, black)" stroke-width="0.284929" stroke-linecap="round" stroke-linejoin="round"/>
<path id="Vector_12" d="M20.7675 18.9042C20.7675 18.9042 20.7683 18.9042 20.7699 18.905" stroke="var(--stroke-0, black)" stroke-width="0.284929" stroke-linecap="round" stroke-linejoin="round"/>
<path id="Vector_13" d="M13.4722 24.1962C13.4722 24.1962 14.0771 26.0365 14.3976 26.2144C14.7182 26.3926 15.6676 26.4282 15.7628 26.3452C15.8577 26.2618 16.8136 24.57 16.8136 24.57C16.5594 24.3071 16.302 24.0302 16.0769 23.7763C16.0769 23.7763 15.1102 24.01 13.9944 23.6167C13.8373 23.7978 13.6588 23.9962 13.4722 24.1962Z" fill="var(--fill-0, #E86F3A)" stroke="var(--stroke-0, black)" stroke-width="0.284929" stroke-linecap="round" stroke-linejoin="round"/>
<path id="Vector_14" d="M13.2458 30.7469C13.2635 30.8206 14.9867 33.5346 15.1428 33.5539C15.2989 33.5734 16.5522 31.3043 16.5522 31.3043L15.7627 26.3451C15.6675 26.4282 14.7181 26.3926 14.3975 26.2144C14.3975 26.2144 13.2285 30.6735 13.2458 30.7469Z" fill="var(--fill-0, #E86F3A)" stroke="var(--stroke-0, black)" stroke-width="0.284929" stroke-linecap="round" stroke-linejoin="round"/>
<path id="Vector_15" d="M23.3769 19.6456C23.6397 19.8414 23.9231 20.0161 24.1616 20.1934C24.7389 20.6229 25.3165 21.0528 25.8938 21.4826C26.5221 21.95 27.15 22.4173 27.7783 22.8847C28.2069 23.2036 28.6646 23.5344 29.1964 23.5851C29.3945 23.604 29.6028 23.5665 29.7878 23.4848C29.7878 23.4844 29.7875 23.4844 29.7875 23.4841C29.716 23.3649 29.1682 22.1737 28.4534 21.483C28.0322 21.0759 25.437 20.2527 23.3769 19.6456Z" fill="var(--fill-0, #80A1FF)"/>
<path id="Vector_16" d="M10.1609 20.5798C10.2689 21.7613 10.7888 22.9009 11.6081 23.7586C11.1443 21.7139 10.7952 20.0631 10.7699 19.6012C10.6971 18.2731 11.5235 17.8577 11.6764 17.7923C11.6835 17.7894 11.6892 17.7872 11.6931 17.7856C11.6892 17.7869 11.6838 17.7885 11.677 17.7904C11.5607 17.8279 11.0292 18.0007 10.491 18.2045C10.2041 18.9581 10.0871 19.7768 10.1609 20.5798Z" fill="var(--fill-0, #80A1FF)"/>
<path id="Vector_17" d="M17.4909 0.520909C17.5047 0.534372 17.5195 0.546553 17.5349 0.557772C17.6897 0.672206 17.8891 0.703299 18.0666 0.778307C18.4709 0.949157 18.7401 1.33862 18.9225 1.73738C19.1052 2.13646 19.2251 2.56535 19.4495 2.94231C19.5751 3.1529 19.7668 3.36286 20.012 3.36286C20.0668 3.36286 20.1188 3.3526 20.1685 3.33433C20.5772 2.62529 20.8015 1.66301 19.921 0.765485C19.0658 -0.106718 18.2705 0.0590038 17.4909 0.520909Z" fill="var(--fill-0, #932A6E)"/>
<path id="Vector_18" d="M9.25813 4.50696C9.29692 4.5512 9.34115 4.59062 9.39084 4.62364C9.6742 4.81148 10.063 4.74801 10.3592 4.58069C10.6554 4.41336 10.8907 4.15853 11.157 3.94697C11.608 3.58892 12.1559 3.35396 12.7261 3.27382C13.0684 3.22574 13.4169 3.23247 13.7595 3.18567C14.1022 3.1392 14.451 3.03149 14.7013 2.79301C14.8927 2.61062 15.0106 2.3561 15.0363 2.09326C13.4473 2.61575 10.6868 2.13268 9.52931 3.98159C9.41937 4.15757 9.32961 4.33258 9.25813 4.50696Z" fill="var(--fill-0, #932A6E)"/>
<path id="Vector_19" d="M6.16282 25.1508C6.16282 25.1508 7.12413 27.034 7.70528 28.0758C7.83382 28.3062 8.21591 28.7521 8.73455 29.3067C10.5591 31.2585 14.0691 34.553 14.1159 34.5062C14.1514 34.4706 12.9927 29.7349 12.0291 25.5887C11.3704 22.7544 10.803 20.1955 10.7703 19.6018C10.6976 18.2738 11.5239 17.8584 11.6768 17.793C11.6871 17.7888 11.6941 17.7859 11.698 17.7847C11.6945 17.7859 11.6874 17.7882 11.6775 17.7911C11.464 17.86 9.85389 18.3838 9.36795 18.7203C9.31698 18.7556 9.24774 18.8191 9.1644 18.9046C8.39606 19.6958 6.4231 22.3864 6.4231 22.3864L8.14603 23.8689L6.16282 25.1508Z" stroke="var(--stroke-0, black)" stroke-width="0.284929" stroke-linecap="round" stroke-linejoin="round"/>
<path id="Vector_20" d="M22.2266 28.0761C22.0981 28.3065 21.716 28.7524 21.1974 29.307C22.493 29.541 24.9731 29.9253 25.5472 29.5599C26.3334 29.0595 29.8591 23.6042 29.7876 23.4849C29.7162 23.3657 29.1683 22.1745 28.4535 21.4837C27.7438 20.7978 20.8621 18.9306 20.7675 18.905C21.5359 19.6961 23.5088 22.3867 23.5088 22.3867L21.7859 23.8692L23.7691 25.1511C23.7691 25.1511 22.8078 27.0343 22.2266 28.0761Z" stroke="var(--stroke-0, black)" stroke-width="0.284929" stroke-linecap="round" stroke-linejoin="round"/>
<path id="Vector_21" d="M20.6614 11.2279C20.7572 12.3062 20.7489 13.3941 20.6319 14.4708C20.5956 14.8067 20.5488 15.1465 20.5572 15.4825C20.8518 15.4196 21.1326 15.3081 21.3919 15.1372C25.1749 12.6447 19.2875 4.40185 19.2875 4.40185C19.2875 4.40185 19.2817 4.84004 18.8394 5.12115C18.9708 5.3122 19.1003 5.49715 19.1824 5.67474C19.9901 7.42235 20.4905 9.31036 20.6614 11.2279Z" fill="var(--fill-0, #F9DFDC)"/>
<path id="Vector_22" d="M12.2691 12.2736C12.3665 12.1774 12.4303 12.0524 12.4922 11.93C12.6518 11.6136 12.8121 11.2978 12.9714 10.9815C13.074 10.7779 13.1781 10.5574 13.0082 10.3574C12.8566 10.1788 12.6175 10.1317 12.3771 10.1663C12.3643 10.4817 12.329 11.2834 12.2691 12.2736Z" fill="var(--fill-0, #F09E8B)"/>
<path id="Vector_23" d="M14.8678 13.355C14.8678 13.355 15.0451 17.0281 18.2441 17.3958L18.3143 15.2529C18.3143 15.2529 15.5974 13.9598 14.8675 13.355H14.8678Z" fill="var(--fill-0, #ED7D66)"/>
<path id="Vector_24" d="M13.02 8.48077C12.9616 8.23619 12.8017 8.04451 12.5642 7.86757C12.3266 7.69063 11.9372 7.60504 11.6352 7.71948C11.4657 7.7839 11.3349 7.92462 11.3794 8.06021C11.4179 8.17818 11.5695 8.25511 11.715 8.3128C12.1475 8.4843 12.4795 8.51443 12.9709 8.53783" fill="var(--fill-0, #ED7D66)"/>
<path id="Vector_25" d="M23.5618 22.4173C23.5618 22.4173 22.7765 23.9665 22.2896 24.4993C21.8027 25.0317 23.6968 25.2728 23.766 25.5651C23.8349 25.8574 22.8188 30.7477 21.7392 31.4673C20.6596 32.1869 18.5261 30.4935 18.3309 30.197C18.1357 29.9005 18.1405 25.074 18.3309 24.8621C18.5213 24.6506 20.2573 22.0253 20.4054 22.0042C20.5535 21.983 23.5618 22.417 23.5618 22.417V22.4173Z" fill="var(--fill-0, #2253DD)"/>
<path id="Vector_26" d="M15.8167 34.5062C15.8635 34.553 19.3735 31.2585 21.1981 29.3067C21.7167 28.7521 22.0988 28.3062 22.2273 28.0758C22.8085 27.034 23.7698 25.1508 23.7698 25.1508L21.7866 23.8689L23.5095 22.3864C23.5095 22.3864 21.5365 19.6958 20.7682 18.9046C20.6849 18.8191 20.6156 18.7556 20.5647 18.7203C20.5371 18.7011 20.506 18.6815 20.4717 18.6614C19.939 18.3485 18.6462 17.9183 18.3119 17.8097C18.2699 17.7959 18.2433 17.7875 18.2346 17.7847C18.2429 17.7879 18.2686 17.7978 18.3064 17.8167C18.5385 17.9331 19.2289 18.3831 19.1623 19.6018C19.1318 20.1529 18.6411 22.396 18.0442 24.9815C17.9977 25.1822 17.9509 25.3848 17.9035 25.5887C16.9399 29.7349 15.7812 34.4706 15.8167 34.5062Z" fill="var(--fill-0, #4C70F5)" stroke="var(--stroke-0, black)" stroke-width="0.284929" stroke-linecap="round" stroke-linejoin="round"/>
<path id="Vector_27" d="M18.0441 24.9808C18.0457 24.9878 18.047 24.9952 18.0486 25.0022C18.7906 24.0134 19.4163 22.9674 19.917 21.8801C20.1946 21.2769 20.435 20.6572 20.5273 20.0101C20.5908 19.5671 20.5828 19.1103 20.4716 18.6606C19.9388 18.3477 18.6461 17.9175 18.3117 17.8089C18.3098 17.8111 18.3079 17.8134 18.3063 17.8159C18.5384 17.9323 19.2288 18.3823 19.1621 19.601C19.1317 20.1521 18.6409 22.3952 18.0441 24.9808Z" fill="var(--fill-0, #80A1FF)"/>
<path id="Vector_28" d="M15.8167 34.5062C15.8635 34.553 19.3735 31.2585 21.1981 29.3067C21.7167 28.7521 22.0988 28.3062 22.2273 28.0758C22.8085 27.034 23.7698 25.1508 23.7698 25.1508L21.7866 23.8689L23.5095 22.3864C23.5095 22.3864 21.5365 19.6958 20.7682 18.9046C20.6849 18.8191 20.6156 18.7556 20.5647 18.7203C20.056 18.3681 18.316 17.8106 18.2346 17.7847C18.2942 17.8071 19.2398 18.1853 19.1623 19.6018C19.1296 20.1955 18.5622 22.7544 17.9035 25.5887C16.9399 29.7349 15.7812 34.4706 15.8167 34.5062Z" stroke="var(--stroke-0, black)" stroke-width="0.284929" stroke-linecap="round" stroke-linejoin="round"/>
<path id="Vector_29" d="M18.3159 15.2529C16.5372 14.6551 14.93 13.355 14.93 13.355" stroke="var(--stroke-0, black)" stroke-width="0.284929" stroke-linecap="round" stroke-linejoin="round"/>
<path id="Vector_30" d="M12.3815 10.0799C12.7883 10.2645 13.0989 10.36 13.0989 10.36" stroke="var(--stroke-0, black)" stroke-width="0.284929" stroke-linecap="round" stroke-linejoin="round"/>
<path id="Vector_31" d="M10.5742 8.56573C10.6579 8.77665 10.7948 8.96994 10.9624 9.1456C11.3596 9.56102 11.9304 9.87548 12.3821 10.0803C12.3581 10.6804 12.1426 15.7992 11.6775 17.7913C11.6875 17.7885 11.6945 17.7862 11.6981 17.7849H11.6984C11.6984 17.7849 11.6997 17.7843 11.7003 17.7843C11.7006 17.7843 11.7006 17.784 11.7006 17.784L11.7134 18.1721C11.7134 18.1721 14.6269 22.5655 14.5563 22.871C14.5346 22.9649 14.3092 23.256 13.9954 23.6179C15.1112 24.0112 16.078 23.7775 16.078 23.7775C15.693 23.3435 15.4016 22.9784 15.3769 22.871C15.3064 22.5655 18.2199 18.1721 18.2199 18.1721L18.2327 17.784L18.3157 15.2529C19.3831 15.6116 20.5121 15.7174 21.3926 15.1372C25.1757 12.6447 19.2882 4.40185 19.2882 4.40185C19.2882 4.40185 19.2773 5.24649 18.1022 5.34201C16.9268 5.43721 15.2433 4.65893 14.2746 4.56373C13.3059 4.46852 13.2581 4.67496 13.2581 4.67496C13.2581 4.67496 13.9412 6.91428 13.8457 7.34285C13.7505 7.77174 13.5601 8.21634 13.5601 8.21634C13.5601 8.21634 13.2264 6.48539 12.4164 6.46937C11.6064 6.45366 10.1136 7.40664 10.5742 8.56573Z" stroke="var(--stroke-0, black)" stroke-width="0.284929" stroke-linecap="round" stroke-linejoin="round"/>
<path id="Vector_32" d="M15.3763 22.8092C15.4009 22.9166 15.6923 23.2817 16.0773 23.7157C16.3023 23.9696 16.5597 24.2465 16.8139 24.5094C17.2373 24.9466 17.6537 25.3441 17.9034 25.5271C18.0041 25.0934 18.1028 24.6661 18.1977 24.2513C18.7234 21.9556 19.1346 20.0432 19.1622 19.5403C19.2398 18.1238 18.2942 17.7456 18.2346 17.7231C18.2346 17.7231 18.2333 17.7225 18.2326 17.7225C18.2323 17.7225 18.2323 17.7222 18.2323 17.7222L18.2301 17.794L18.2195 18.1103C18.2195 18.1103 15.3061 22.5037 15.3766 22.8092H15.3763Z" fill="var(--fill-0, #F5D256)" stroke="var(--stroke-0, black)" stroke-width="0.284929" stroke-linecap="round" stroke-linejoin="round"/>
<path id="Vector_33" d="M10.7705 19.5403C10.7984 20.0445 11.2115 21.9662 11.7392 24.2703C11.8328 24.6793 11.9299 25.1001 12.0293 25.5271C12.3492 25.2925 12.9422 24.7065 13.4733 24.1356C13.6599 23.9356 13.8384 23.7372 13.9955 23.5561C14.3093 23.1942 14.5346 22.9031 14.5564 22.8092C14.6269 22.5037 11.7135 18.1103 11.7135 18.1103L11.702 17.7619L11.7007 17.7222C11.7007 17.7222 11.7007 17.7225 11.7004 17.7225C11.6997 17.7225 11.6991 17.7228 11.6984 17.7231H11.6981C11.6943 17.7244 11.6872 17.7273 11.677 17.7315C11.5241 17.7969 10.6977 18.2123 10.7705 19.5403Z" fill="var(--fill-0, #F5D256)" stroke="var(--stroke-0, black)" stroke-width="0.284929" stroke-linecap="round" stroke-linejoin="round"/>
<path id="Vector_34" d="M21.1288 0.841686C21.507 1.2132 21.6234 1.80044 21.5041 2.31715C21.3849 2.83387 21.057 3.2836 20.6624 3.63748C20.2678 3.99136 19.8056 4.26062 19.3472 4.52731C19.7799 4.65104 20.3559 4.69432 20.7733 4.52635C21.1906 4.35839 21.5493 4.0481 21.7756 3.65928" stroke="var(--stroke-0, black)" stroke-width="0.284929" stroke-linecap="round" stroke-linejoin="round"/>
<path id="Vector_35" d="M10.9616 9.14515C10.7939 8.96949 10.6571 8.7762 10.5734 8.56528C10.1128 7.40619 11.6055 6.45321 12.4156 6.46892C13.2256 6.48495 13.5593 8.21589 13.5593 8.21589C13.5593 8.21589 13.7497 7.77129 13.8449 7.3424C13.9404 6.91384 13.2573 4.67451 13.2573 4.67451C13.2573 4.67451 13.3051 4.46808 14.2738 4.56328C15.2424 4.65848 16.926 5.43676 18.1014 5.34156C19.2765 5.24604 19.2874 4.4014 19.2874 4.4014C19.2874 4.4014 21.5896 2.46756 19.9202 0.765461C18.2886 -0.898168 16.8756 1.21422 15.3729 1.95757C13.8702 2.70091 10.7741 1.99379 9.5297 3.98117C8.28534 5.96887 9.63003 7.87739 10.9616 9.14515Z" stroke="var(--stroke-0, black)" stroke-width="0.284929" stroke-linecap="round" stroke-linejoin="round"/>
<path id="Vector_36" d="M10.7705 19.5403C10.7984 20.0445 11.2115 21.9662 11.7392 24.2703C11.843 24.2113 11.9264 24.1138 11.9805 24.0061C12.0559 23.8558 12.0821 23.6856 12.1007 23.5179C12.1911 22.6932 12.1126 21.8505 11.8715 21.0565C11.6952 20.4766 11.4327 19.9195 11.3398 19.3207C11.2551 18.7761 11.3407 18.1655 11.702 17.7619L11.7007 17.7222C11.7007 17.7222 11.7007 17.7225 11.7004 17.7225C11.6997 17.7225 11.6991 17.7228 11.6984 17.7231H11.6981C11.6943 17.7244 11.6872 17.7273 11.677 17.7315C11.5241 17.7969 10.6977 18.2123 10.7705 19.5403Z" fill="var(--fill-0, #CEA625)"/>
<path id="Vector_37" d="M18.1985 24.2513C18.7242 21.9556 19.1355 20.0432 19.163 19.5403C19.2406 18.1238 18.295 17.7456 18.2354 17.7231C18.2354 17.7231 18.2341 17.7225 18.2335 17.7225C18.2331 17.7225 18.2331 17.7222 18.2331 17.7222L18.2309 17.794C18.4867 17.8696 18.6813 18.1123 18.7527 18.3745C18.8329 18.67 18.7851 18.9845 18.7133 19.2819C18.5723 19.8644 18.3415 20.4199 18.1424 20.985C17.9437 21.5501 17.7748 22.1348 17.7648 22.7339C17.7558 23.2689 17.8863 23.8212 18.1988 24.2513H18.1985Z" fill="var(--fill-0, #CEA625)"/>
<path id="Vector_38" d="M15.3763 22.8709C15.4009 22.9783 15.6923 23.3434 16.0773 23.7774C16.3023 24.0313 16.5597 24.3082 16.8139 24.5711C17.2373 25.0083 17.6537 25.4058 17.9034 25.5888C18.5622 22.7546 19.1295 20.1957 19.1622 19.602C19.2398 18.1855 18.2942 17.8073 18.2346 17.7848C18.2346 17.7848 18.2333 17.7842 18.2326 17.7842C18.2323 17.7842 18.2323 17.7839 18.2323 17.7839L18.2195 18.172C18.2195 18.172 15.3061 22.5654 15.3766 22.8709H15.3763Z" stroke="var(--stroke-0, black)" stroke-width="0.284929" stroke-linecap="round" stroke-linejoin="round"/>
<path id="Vector_39" d="M10.7705 19.602C10.8032 20.1957 11.3705 22.7546 12.0293 25.5888C12.3492 25.3542 12.9422 24.7682 13.4733 24.1973C13.6599 23.9973 13.8384 23.7989 13.9955 23.6178C14.3093 23.2559 14.5346 22.9648 14.5564 22.8709C14.6269 22.5654 11.7135 18.172 11.7135 18.172L11.7007 17.7839C11.7007 17.7839 11.7007 17.7842 11.7004 17.7842C11.6997 17.7842 11.6991 17.7842 11.6984 17.7848H11.6981C11.6943 17.7861 11.6872 17.789 11.677 17.7932C11.5241 17.8586 10.6977 18.274 10.7705 19.602Z" stroke="var(--stroke-0, black)" stroke-width="0.284929" stroke-linecap="round" stroke-linejoin="round"/>
<path id="Vector_40" d="M12.9645 8.44471C12.711 7.95364 12.1539 7.6363 11.6019 7.66899" stroke="var(--stroke-0, black)" stroke-width="0.284929" stroke-linecap="round" stroke-linejoin="round"/>
<path id="Vector_41" d="M12.3829 7.97216C12.1919 8.04557 12.0259 8.18276 11.9175 8.3565" stroke="var(--stroke-0, black)" stroke-width="0.284929" stroke-linecap="round" stroke-linejoin="round"/>
<g id="Group">
<path id="Vector_42" d="M18.8626 12.1511C18.792 12.1453 18.2022 12.4014 17.54 11.8087C16.8777 11.216 17.156 10.5483 17.156 10.5483" stroke="var(--stroke-0, black)" stroke-width="0.284929" stroke-linecap="round" stroke-linejoin="round"/>
<path id="Vector_43" d="M17.5894 10.5112C17.5894 10.5112 17.1339 10.3257 16.7495 10.8119" stroke="var(--stroke-0, black)" stroke-width="0.284929" stroke-linecap="round" stroke-linejoin="round"/>
</g>
<path id="Vector_44" d="M19.3355 8.862C19.3355 8.862 20.2769 10.2996 20.008 10.549C19.739 10.7984 19.08 10.3605 19.08 10.3605" stroke="var(--stroke-0, black)" stroke-width="0.284929" stroke-linecap="round" stroke-linejoin="round"/>
</g>
</svg>
