<svg preserveAspectRatio="none" width="100%" height="100%" overflow="visible" style="display: block;" viewBox="0 0 38.2408 42.0063" fill="none" xmlns="http://www.w3.org/2000/svg">
<g id="Illustration">
<path id="Vector" d="M23.0128 21.0925C23.0128 21.0925 21.9602 22.6002 20.2794 24.1537C18.8818 25.4443 17.8637 25.869 17.951 26.1479L17.7262 25.9952C17.4562 25.5785 15.002 21.7861 14.9187 21.73C15.0597 20.4245 15.0281 17.7644 15.0281 17.7644C13.6012 18.2685 12.1203 18.3915 11.0172 17.5104C7.19835 14.4604 12.0085 6.69159 13.4221 4.58722C13.4321 4.62127 13.9198 6.25245 14.5472 6.56618C15.1807 6.88272 16.2754 6.76772 16.88 7.19966C17.485 7.63159 17.5712 8.8124 17.9747 9.15819C18.3778 9.50398 20.0197 9.79207 20.2213 10.3101C20.4228 10.8286 20.0482 11.8079 20.5955 12.2691C21.1429 12.7299 21.7763 12.4129 22.0644 13.1618C22.3525 13.9107 21.4334 14.9332 22.0091 15.5667C22.5853 16.2002 23.004 16.4117 22.9467 17.3806C22.889 18.3498 22.0352 19.4204 22.5537 20.3136C22.6999 20.5656 22.8578 20.826 23.0128 21.0925Z" fill="var(--fill-0, #CC927A)" stroke="var(--stroke-0, black)" stroke-width="0.356161" stroke-linecap="round" stroke-linejoin="round"/>
<path id="Vector_2" d="M38.0624 26.8042C38.0315 27.1139 33.6637 34.5173 33.3848 34.7341C33.2566 34.8338 30.1501 36.3312 26.8125 37.9247C25.6633 38.4732 24.4869 39.0334 23.395 39.5519C25.5932 36.2478 28.2994 31.9293 28.2994 31.618C28.2994 31.1075 25.9257 30.2649 25.8492 29.9844C25.7723 29.7035 28.529 28.0956 28.4524 27.6873C28.4316 27.5771 28.2004 27.0983 27.8378 26.4664C27.5914 26.0357 27.2837 25.5344 26.9411 25.0296C27.5729 25.0624 28.3467 25.5472 29.1204 25.5472C29.2402 25.5472 29.376 25.5416 29.5211 25.5328C30.3156 25.4851 31.387 25.3389 31.6547 25.4607C31.9716 25.6049 33.0374 26.7858 33.844 26.3538C34.6502 25.9215 35.111 25.6049 35.1975 25.3169C35.2139 25.2616 35.2031 25.1422 35.1763 24.9803C35.5954 25.0877 35.8458 25.1538 35.863 25.1626C35.9103 25.1862 36.2485 25.387 36.6456 25.643C37.2863 26.0557 38.0816 26.6131 38.0624 26.8042Z" fill="var(--fill-0, #F5D256)" stroke="var(--stroke-0, black)" stroke-width="0.356161" stroke-linecap="round" stroke-linejoin="round"/>
<path id="Vector_3" d="M28.2993 31.617C28.2993 31.8622 26.6196 34.5944 24.8322 37.3583C24.3506 38.1028 23.8613 38.8497 23.3949 39.5509C22.6585 39.9007 21.9601 40.2312 21.3354 40.5261C20.5229 40.9104 19.8337 41.2349 19.3436 41.4637C19.1048 41.0354 18.9321 40.7032 18.9321 40.7032C18.9321 40.7032 22.0134 31.5032 23.2912 26.6814C23.6037 25.5014 23.8084 24.5834 23.8333 24.127C23.8497 23.8245 23.8589 23.5685 23.8617 23.3521C23.883 23.2884 23.8982 23.2323 23.907 23.1842C24.0797 24.1635 23.6189 25.287 24.3966 25.7189C24.9143 26.0062 25.5847 25.5923 26.162 25.2918C26.4525 25.1408 26.7194 25.0182 26.9313 25.0278C26.9346 25.0278 26.9378 25.0282 26.941 25.0286C27.2835 25.5334 27.5913 26.0347 27.8377 26.4654C28.2003 27.0973 28.4315 27.5761 28.4523 27.6863C28.5289 28.0946 25.7722 29.7025 25.8491 29.9834C25.8623 30.0311 25.9409 30.0944 26.0631 30.1697C26.6617 30.5399 28.2993 31.193 28.2993 31.617Z" fill="var(--fill-0, #F5D256)" stroke="var(--stroke-0, black)" stroke-width="0.356161" stroke-linecap="round" stroke-linejoin="round"/>
<path id="Vector_4" d="M14.7289 5.96179C14.7761 6.69063 15.1416 7.39302 15.7113 7.8498C16.0876 8.15151 16.5395 8.34504 16.9306 8.62792C17.54 9.06867 17.9864 9.72939 18.1683 10.459C18.2288 10.7026 18.2653 10.9623 18.4135 11.165C18.6656 11.5092 19.1568 11.5801 19.4689 11.871C20.1505 12.5053 19.6524 13.7594 20.2198 14.4979C20.3644 14.6862 20.5684 14.8237 20.7034 15.0192C20.937 15.3582 20.923 15.8033 20.9046 16.2144C20.7944 18.6674 20.9174 21.3119 22.3923 23.2752C22.6411 23.6062 22.9885 23.9384 23.4012 23.9023C23.872 23.861 24.1573 23.3742 24.3368 22.937C24.9691 21.3972 25.2884 19.746 25.4791 18.0924C25.643 16.6728 25.7123 15.2179 25.375 13.8292C25.056 12.5165 24.3885 11.3205 23.7774 10.1161C23.2618 9.09952 22.7581 8.03331 21.8942 7.28964C21.1502 6.64936 20.2034 6.30517 19.2794 5.97421C18.5974 5.72979 17.9159 5.48578 17.2339 5.24136C16.4594 4.96409 15.5218 4.70926 14.8775 5.22013" fill="var(--fill-0, #BA735A)"/>
<path id="Vector_5" d="M8.71613 9.06457C8.40881 10.4934 8.1664 11.9455 8.17722 13.4072C8.18804 14.8688 8.4625 16.3478 9.14046 17.6428C9.46421 18.261 10.0183 18.9013 10.7123 18.8244C11.3005 18.7595 11.7156 18.1729 11.8054 17.5883C11.8947 17.0033 11.7401 16.4127 11.6235 15.8329C11.486 15.1493 11.4007 14.4533 11.4107 13.7565C11.45 10.9826 12.9585 8.48118 14.1273 5.9649C14.3405 5.50572 14.5464 5.03091 14.5853 4.52646C14.5961 4.38862 14.5901 4.23837 14.5044 4.12978C14.4154 4.01719 14.2628 3.97792 14.1197 3.9639C13.6625 3.91782 13.2054 4.05445 12.7847 4.23917C11.6635 4.7316 10.7187 5.57103 9.97107 6.54068C9.2238 7.51073 8.66244 8.6106 8.1688 9.7313" fill="var(--fill-0, #FFC7B3)"/>
<path id="Vector_6" d="M17.7342 18.7445C17.0646 19.5699 16.109 20.1593 15.0705 20.3865C15.0664 19.636 15.0709 18.8851 15.0841 18.1347C15.0861 18.0141 15.0905 17.887 15.1526 17.7837C15.2219 17.6691 15.3493 17.605 15.4703 17.5481C15.9888 17.3041 16.5145 17.0757 17.027 16.8188C17.2906 16.6866 17.5511 16.5476 17.8035 16.3949C17.9822 16.2867 18.3544 15.9061 18.5472 15.8852C19.0164 15.8344 18.6361 16.9835 18.5548 17.2311C18.3753 17.7793 18.0976 18.2957 17.7342 18.7437V18.7445Z" fill="var(--fill-0, #B27059)"/>
<path id="Vector_7" d="M23.8622 23.3534C23.8606 23.4608 23.8578 23.5778 23.853 23.7052C23.8486 23.835 23.8422 23.9756 23.8338 24.1283C23.7064 26.451 18.9327 40.7045 18.9327 40.7045H18.4006C18.4006 40.7045 13.6909 27.2764 13.3171 24.4068C13.3063 24.3262 13.2995 24.2541 13.2959 24.1908C13.259 23.5193 13.2774 23.0725 13.3227 22.7768C13.3828 22.7656 13.4413 22.7543 13.4982 22.7431C13.4782 22.8802 13.6865 23.5838 13.9919 24.4817C14.6562 26.437 15.7801 29.3147 16.0041 29.2802C16.083 29.2682 16.2513 29.1108 16.4548 28.8695C17.0915 28.1131 18.072 26.5296 17.7258 25.9959L17.9506 26.1485C17.9506 26.1485 18.915 29.3492 19.5305 29.3904C20.0009 29.4217 22.1962 26.4186 23.2913 24.5125C23.4063 24.3126 23.5088 24.1247 23.5962 23.9536C23.7172 23.7172 23.8085 23.5128 23.8622 23.3534Z" fill="var(--fill-0, #C9C4FE)" stroke="var(--stroke-0, black)" stroke-width="0.356161" stroke-linecap="round" stroke-linejoin="round"/>
<path id="Vector_8" d="M23.8528 23.705C23.8484 23.8349 23.842 23.9755 23.8336 24.1282C23.7062 26.4509 18.9325 40.7044 18.9325 40.7044H18.4004C18.4004 40.7044 13.6907 27.2763 13.3169 24.4066C13.4039 24.2343 13.4984 24.0661 13.6002 23.9022C13.7308 24.0949 13.8614 24.288 13.9917 24.4816C14.7177 25.561 15.4249 26.6553 15.9923 27.8248C16.1589 28.1678 16.3128 28.5164 16.4546 28.8694C17.3085 30.9914 17.7352 33.2789 17.9091 35.5648C17.9532 36.1442 18.0718 36.8518 18.6203 37.0437C21.0829 33.311 21.3758 28.5521 23.2911 24.5124C23.3175 24.4563 23.3444 24.4002 23.3716 24.3441C23.4373 24.2087 23.5062 24.0733 23.596 23.9535C23.6232 23.917 23.6521 23.8817 23.6837 23.8489C23.7358 23.7944 23.7927 23.7467 23.8528 23.705Z" fill="var(--fill-0, #A2A0F2)"/>
<path id="Vector_9" d="M18.6579 1.15191C19.6897 0.598166 21.0516 0.736801 21.9503 1.48728C22.1134 1.62351 22.2648 1.77977 22.4556 1.87434C23.0109 2.15081 23.7049 1.82986 24.2903 2.03541C24.7511 2.19728 25.0608 2.70815 24.9915 3.19137C24.9518 3.46664 24.8051 3.7379 24.8681 4.00876C24.9714 4.45352 25.5448 4.58454 26 4.54648C26.4552 4.50881 26.9648 4.40624 27.3282 4.68271C27.7225 4.98242 27.7289 5.57663 27.5971 6.05424C27.4649 6.53145 27.2309 7.00065 27.2737 7.49389C27.9821 7.86532 29.0051 7.31719 29.5869 7.86652C30.0148 8.27081 29.8742 8.97 29.7079 9.53456C29.5416 10.0991 29.4214 10.8087 29.869 11.191C30.3562 11.6073 31.188 11.32 31.6804 11.7299C32.2145 12.1746 31.9545 13.0201 31.7453 13.6828C31.5061 14.4421 31.396 15.2419 31.422 16.0376C31.4288 16.2464 31.4496 16.4687 31.5775 16.6342C31.767 16.8806 32.1272 16.9179 32.4337 16.8642C32.7398 16.8105 33.0367 16.6875 33.3477 16.6903C34.0853 16.6971 34.6403 17.4188 34.7889 18.1412C34.9376 18.864 34.8013 19.6113 34.8078 20.3489C34.8106 20.6931 34.942 21.1363 35.2858 21.1463C35.4 21.8555 34.6266 22.5623 34.9211 23.2174C35.0025 23.3985 35.1551 23.5364 35.2665 23.7006C35.5326 24.0945 35.5318 24.6507 35.2641 25.0433C34.9965 25.436 34.4788 25.6403 34.0152 25.5362" stroke="var(--stroke-0, black)" stroke-width="0.356161" stroke-linecap="round" stroke-linejoin="round"/>
<path id="Vector_10" d="M17.9637 0.675039C18.9955 0.121298 20.3574 0.259933 21.2561 1.01041C21.4192 1.14664 21.5707 1.30291 21.7614 1.39747C22.3167 1.67394 23.0107 1.35299 23.5961 1.55854C24.0569 1.72042 24.3666 2.23129 24.2973 2.71451C24.2576 2.98977 24.111 3.26104 24.1739 3.5319C24.2773 3.97665 24.8506 4.10768 25.3058 4.06961C25.761 4.03195 26.2706 3.92937 26.6341 4.20584C27.0283 4.50555 27.0347 5.09976 26.9029 5.57738C26.7707 6.05459 26.5367 6.52378 26.5796 7.01702C27.288 7.38845 28.3109 6.84032 28.8927 7.38966C29.3206 7.79394 29.18 8.49313 29.0137 9.05769C28.8474 9.62225 28.7272 10.3319 29.1748 10.7141C29.662 11.1304 30.4938 10.8431 30.9863 11.253C31.5204 11.6978 31.2603 12.5432 31.0512 13.2059C30.812 13.9652 30.7018 14.765 30.7278 15.5607C30.7346 15.7695 30.7555 15.9919 30.8833 16.1574C31.0728 16.4038 31.433 16.441 31.7395 16.3874C32.0457 16.3337 32.3426 16.2107 32.6535 16.2135C33.3912 16.2203 33.9461 16.9419 34.0947 17.6643C34.2434 18.3872 34.1072 19.1344 34.1136 19.8721C34.1164 20.2163 34.2478 20.6594 34.5916 20.6694C34.7058 21.3786 33.9325 22.0854 34.227 22.7406C34.3083 22.9217 34.461 23.0595 34.5724 23.2238C34.8384 23.6176 34.8376 24.1738 34.57 24.5665C34.3023 24.9591 33.7846 25.1635 33.321 25.0593" stroke="var(--stroke-0, black)" stroke-width="0.356161" stroke-linecap="round" stroke-linejoin="round"/>
<path id="Vector_11" d="M10.1348 3.06281C9.72168 2.8188 9.16433 2.97346 8.81413 3.30162C8.46394 3.62978 8.27642 4.09216 8.11655 4.54453C7.95668 4.9969 7.80802 5.4661 7.51072 5.84274C7.06837 6.40249 6.33993 6.701 5.96048 7.30563C5.42197 8.16349 5.76896 9.30262 5.49128 10.2767C5.29134 10.9779 4.77366 11.5641 4.62381 12.2773C4.32811 13.6833 5.52254 15.1934 4.93434 16.5045C4.71877 16.9857 4.29445 17.3387 4.00716 17.7806C3.6181 18.3789 3.49749 19.145 3.68381 19.8341C3.77116 20.1571 3.92342 20.472 3.9106 20.8062C3.90018 21.0855 3.77477 21.3463 3.65176 21.5971C3.3853 22.1417 3.11885 22.6866 2.8524 23.2311C2.74021 23.4599 2.62601 23.6995 2.62681 23.9543C2.62842 24.4067 2.98262 24.7697 3.31278 25.0794C3.42657 25.1864 3.54718 25.297 3.69864 25.3363C3.88696 25.3852 4.08289 25.3138 4.264 25.2437C4.93674 24.9837 5.60948 24.7232 6.28223 24.4632" stroke="var(--stroke-0, black)" stroke-width="0.356161" stroke-linecap="round" stroke-linejoin="round"/>
<path id="Vector_12" d="M11.0479 1.84538C10.6348 1.60136 10.0774 1.75602 9.72722 2.08418C9.37702 2.41234 9.1895 2.87473 9.02963 3.3271C8.86976 3.77946 8.72111 4.24866 8.4238 4.6253C7.98145 5.18505 7.25301 5.48356 6.87357 6.08819C6.33505 6.94605 6.68204 8.08518 6.40437 9.05924C6.20443 9.76043 5.68675 10.3466 5.53689 11.0598C5.24119 12.4658 6.43562 13.976 5.84742 15.287C5.63186 15.7683 5.20753 16.1212 4.92025 16.5632C4.53119 17.1614 4.41058 17.9275 4.5969 18.6167C4.68425 18.9396 4.8365 19.2546 4.82368 19.5887C4.81326 19.868 4.68785 20.1289 4.56484 20.3797C4.29839 20.9242 4.03194 21.4691 3.76548 22.0137C3.65329 22.2425 3.5391 22.4821 3.5399 22.7369C3.5415 23.1893 3.8957 23.5523 4.22587 23.862C4.33966 23.969 4.46026 24.0796 4.61172 24.1188C4.80004 24.1677 4.99598 24.0964 5.17708 24.0263C5.84983 23.7662 6.52257 23.5058 7.19531 23.2458" stroke="var(--stroke-0, black)" stroke-width="0.356161" stroke-linecap="round" stroke-linejoin="round"/>
<path id="Vector_13" d="M13.7905 4.05417C13.7905 4.05417 13.6507 4.24609 13.4219 4.58667" stroke="var(--stroke-0, black)" stroke-width="0.356161" stroke-linecap="round" stroke-linejoin="round"/>
<path id="Vector_14" d="M18.7463 15.7127C17.8608 16.3554 16.4724 17.2545 15.0283 17.7638" stroke="var(--stroke-0, black)" stroke-width="0.356161" stroke-linecap="round" stroke-linejoin="round"/>
<path id="Vector_15" d="M35.1772 24.98C35.1591 24.8718 35.1343 24.7444 35.1054 24.6042C34.9528 23.8601 34.6959 22.7627 34.853 22.2923C35.0834 21.6011 35.2849 20.7368 34.5072 20.3337C33.7295 19.9306 33.5857 19.6137 33.6145 18.7206C33.6365 18.0238 33.2908 17.327 32.8364 16.6162C32.7086 16.4163 32.5723 16.2155 32.4333 16.0132C32.3924 15.9539 32.3572 15.897 32.3255 15.8417C31.8731 15.0375 32.3748 14.6292 31.9437 13.7666C31.8499 13.579 31.7277 13.4312 31.5919 13.3066C31.0598 12.8185 30.3193 12.6923 30.2732 11.9811C30.2696 11.9262 30.2672 11.8693 30.266 11.8112C30.2436 10.9241 30.4287 9.69884 29.7259 9.15833C29.647 9.09742 29.5708 9.03812 29.4983 8.97882C28.8921 8.48879 28.5018 8.04804 28.2686 7.32281C28.2646 7.31078 28.2606 7.29876 28.257 7.28634C27.999 6.45453 27.9693 5.79421 27.0305 5.39032C27.0265 5.38872 27.0225 5.38671 27.0185 5.38511C26.6711 5.23766 26.4892 4.9676 26.3674 4.66108C26.1554 4.12898 26.1246 3.48869 25.7223 3.19619C25.5175 3.04714 25.2735 3.00987 25.0131 2.99985C24.4674 2.97902 23.8479 3.07999 23.3607 2.53386C23.1888 2.34154 23.0534 2.14761 22.9356 1.96329C22.5585 1.37509 22.3618 0.88546 21.7479 0.863423C21.4631 0.853406 21.1205 0.915111 20.7703 0.984829C20.237 1.09181 19.6856 1.21803 19.2898 1.13989C19.2092 1.12387 19.1351 1.09982 19.069 1.06497C18.4644 0.748027 18.5505 0.114549 17.7732 0.344941C17.2515 0.499604 16.8981 0.67991 16.6004 0.851803C16.4541 0.935946 16.3215 1.01809 16.1889 1.09381C16.1889 1.09381 14.9664 -0.213208 14.1602 0.295657C13.3537 0.804122 12.4786 1.67921 12.1504 1.75213C12.0539 1.77377 11.8908 1.77617 11.6985 1.78018C11.2381 1.7898 10.6106 1.80823 10.3277 2.11675C9.92664 2.5543 9.67141 3.76836 9.1978 4.05445C8.7238 4.34053 7.41117 5.25208 7.22886 5.72609C7.04655 6.1997 7.22886 6.81955 6.97362 7.47587C6.71839 8.13218 5.91663 9.2621 5.69785 9.88196C5.47908 10.5018 6.28125 11.2675 6.06247 11.9599C5.8437 12.6527 5.18739 13.7465 5.15092 14.257C5.14371 14.3604 5.15092 14.4637 5.16695 14.5731C5.22826 15.0011 5.41297 15.5143 5.29677 16.4443C5.26993 16.6599 5.21543 16.8566 5.14411 17.0385C4.82958 17.8423 4.18288 18.3584 4.09353 18.9233C4.04945 19.203 4.17727 19.542 4.32913 19.8922C4.55351 20.4099 4.82918 20.9528 4.67692 21.3659C4.67692 21.3659 4.6669 21.3715 4.64847 21.3827C4.48299 21.4817 3.64516 22.0038 3.547 22.4962C3.4925 22.7679 3.72971 23.1986 3.94167 23.6309C4.11596 23.9863 4.27343 24.3425 4.23817 24.611C6.46916 23.9699 9.73992 23.417 12.0442 23.0087C12.2486 22.8167 12.4529 22.6509 12.6529 22.5214C12.9826 22.3079 13.3012 22.1925 13.5925 22.2181C13.6562 22.2021 13.7043 22.235 13.7043 22.235C13.9623 21.8086 14.4259 21.3991 14.9187 21.7301C15.0598 20.4247 15.0281 17.7646 15.0281 17.7646C13.6013 18.2686 12.1204 18.3916 11.0173 17.5105C9.50312 16.3013 9.34565 14.3504 9.79482 12.3049C10.4784 9.19078 12.5691 5.85751 13.4222 4.58735C13.4322 4.62141 13.9198 6.25259 14.5473 6.56632C15.1808 6.88286 16.2754 6.76786 16.8801 7.1998C17.4851 7.63173 17.5712 8.81254 17.9747 9.15833C18.3778 9.50411 20.0198 9.7922 20.2213 10.3103C20.4229 10.8288 20.0482 11.808 20.5956 12.2692C21.1429 12.73 21.7764 12.4131 22.0645 13.1619C22.3526 13.9108 21.4334 14.9333 22.0092 15.5668C22.5854 16.2003 23.0041 16.4119 22.9468 17.3807C22.8891 18.35 22.0352 19.4206 22.5537 20.3137C22.7 20.5657 22.8578 20.8262 23.0129 21.0926C23.0273 21.1171 23.0417 21.1419 23.0558 21.1671C23.2252 21.4596 23.3895 21.7585 23.5302 22.0603C23.6696 22.3592 23.7858 22.6605 23.8603 22.961C23.8792 23.0359 23.8948 23.1104 23.908 23.185C24.0807 24.1642 23.6199 25.2878 24.3976 25.7197C25.1754 26.1516 26.2985 24.9997 26.9323 25.0285C26.9356 25.0285 26.9388 25.0289 26.942 25.0293C27.5738 25.0622 28.3476 25.547 29.1213 25.547C29.895 25.547 31.339 25.3166 31.6556 25.4604C31.9725 25.6047 33.0383 26.7855 33.8449 26.3536C34.6511 25.9212 35.1119 25.6047 35.1984 25.3166C35.2148 25.2613 35.204 25.1419 35.1772 24.98ZM23.6295 22.235C23.6295 22.235 23.6748 22.1765 23.7253 22.2193C23.6928 22.2229 23.6612 22.2277 23.6295 22.235Z" fill="var(--fill-0, #3D0027)" stroke="var(--stroke-0, black)" stroke-width="0.356161" stroke-linecap="round" stroke-linejoin="round"/>
<path id="Vector_16" d="M35.1772 24.98C35.1591 24.8718 35.1343 24.7444 35.1054 24.6042C34.9528 23.8601 34.6959 22.7627 34.853 22.2923C35.0834 21.6011 35.2849 20.7368 34.5072 20.3337C33.7295 19.9306 33.5857 19.6137 33.6145 18.7206C33.6365 18.0238 33.2908 17.327 32.8364 16.6162C32.7086 16.4163 32.5723 16.2155 32.4333 16.0132C32.3924 15.9539 32.3572 15.897 32.3255 15.8417C31.8731 15.0375 32.3748 14.6292 31.9437 13.7666C31.8499 13.579 31.7277 13.4312 31.5919 13.3066C31.0598 12.8185 30.3193 12.6923 30.2732 11.9811C30.2696 11.9262 30.2672 11.8693 30.266 11.8112C30.2436 10.9241 30.4287 9.69884 29.7259 9.15833C29.647 9.09742 29.5708 9.03812 29.4983 8.97882C28.8921 8.48879 28.5018 8.04804 28.2686 7.32281C28.2646 7.31078 28.2606 7.29876 28.257 7.28634C27.999 6.45453 27.9693 5.79421 27.0305 5.39032C27.0265 5.38872 27.0225 5.38671 27.0185 5.38511C26.6711 5.23766 26.4892 4.9676 26.3674 4.66108C26.1554 4.12898 26.1246 3.48869 25.7223 3.19619C25.5175 3.04714 25.2735 3.00987 25.0131 2.99985C24.4674 2.97902 23.8479 3.07999 23.3607 2.53386C23.1888 2.34154 23.0534 2.14761 22.9356 1.96329C22.5585 1.37509 22.3618 0.88546 21.7479 0.863423C21.4631 0.853406 21.1205 0.915111 20.7703 0.984829C20.237 1.09181 19.6856 1.21803 19.2898 1.13989C19.2092 1.12387 19.1351 1.09982 19.069 1.06497C18.4644 0.748027 18.5505 0.114549 17.7732 0.344941C17.2515 0.499604 16.8981 0.67991 16.6004 0.851803C16.4541 0.935946 16.3215 1.01809 16.1889 1.09381C16.1889 1.09381 14.9664 -0.213208 14.1602 0.295657C13.3537 0.804122 12.4786 1.67921 12.1504 1.75213C12.0539 1.77377 11.8908 1.77617 11.6985 1.78018C11.2381 1.7898 10.6106 1.80823 10.3277 2.11675C9.92664 2.5543 9.67141 3.76836 9.1978 4.05445C8.7238 4.34053 7.41117 5.25208 7.22886 5.72609C7.04655 6.1997 7.22886 6.81955 6.97362 7.47587C6.71839 8.13218 5.91663 9.2621 5.69785 9.88196C5.47908 10.5018 6.28125 11.2675 6.06247 11.9599C5.8437 12.6527 5.18739 13.7465 5.15092 14.257C5.14371 14.3604 5.15092 14.4637 5.16695 14.5731C5.22826 15.0011 5.41297 15.5143 5.29677 16.4443C5.26993 16.6599 5.21543 16.8566 5.14411 17.0385C4.82958 17.8423 4.18288 18.3584 4.09353 18.9233C4.04945 19.203 4.17727 19.542 4.32913 19.8922C4.55351 20.4099 4.82918 20.9528 4.67692 21.3659C4.67692 21.3659 4.6669 21.3715 4.64847 21.3827C4.48299 21.4817 3.64516 22.0038 3.547 22.4962C3.4925 22.7679 3.72971 23.1986 3.94167 23.6309C4.11596 23.9863 4.27343 24.3425 4.23817 24.611C6.46916 23.9699 9.73992 23.417 12.0442 23.0087C12.2486 22.8167 12.4529 22.6509 12.6529 22.5214C12.9826 22.3079 13.3012 22.1925 13.5925 22.2181C13.6562 22.2021 13.7043 22.235 13.7043 22.235C13.9623 21.8086 14.4259 21.3991 14.9187 21.7301C15.0598 20.4247 15.0281 17.7646 15.0281 17.7646C13.6013 18.2686 12.1204 18.3916 11.0173 17.5105C9.50312 16.3013 9.34565 14.3504 9.79482 12.3049C10.4784 9.19078 12.5691 5.85751 13.4222 4.58735C13.4274 4.60458 13.5572 5.03932 13.7668 5.50211C13.9671 5.94446 14.2404 6.41326 14.5473 6.56632C14.9099 6.74743 15.4236 6.78709 15.9096 6.86923C16.273 6.93014 16.6212 7.01508 16.8801 7.1998C17.2078 7.43379 17.3833 7.88777 17.5396 8.30968C17.6718 8.66629 17.79 8.99966 17.9747 9.15833C18.3185 9.45323 19.5646 9.70646 20.0478 10.0959C20.1312 10.1632 20.1917 10.2342 20.2213 10.3103C20.263 10.4173 20.2802 10.5439 20.2859 10.6817C20.3075 11.211 20.1612 11.9034 20.5956 12.2692C21.1429 12.73 21.7764 12.4131 22.0645 13.1619C22.3526 13.9108 21.4334 14.9333 22.0092 15.5668C22.5854 16.2003 23.0041 16.4119 22.9468 17.3807C22.8891 18.35 22.0352 19.4206 22.5537 20.3137C22.7 20.5657 22.8578 20.8262 23.0129 21.0926C23.0273 21.1171 23.0417 21.1419 23.0558 21.1671C23.2252 21.4596 23.3895 21.7585 23.5302 22.0603C23.6696 22.3592 23.7858 22.6605 23.8603 22.961C23.8764 23.0255 23.8904 23.0896 23.9024 23.1537C23.9044 23.1641 23.906 23.1746 23.908 23.185C24.0807 24.1642 23.6199 25.2878 24.3976 25.7197C25.1754 26.1516 26.2985 24.9997 26.9323 25.0285C26.9356 25.0285 26.9388 25.0289 26.942 25.0293C27.5738 25.0622 28.3476 25.547 29.1213 25.547C29.895 25.547 31.339 25.3166 31.6556 25.4604C31.9725 25.6047 33.0383 26.7855 33.8449 26.3536C34.6511 25.9212 35.1119 25.6047 35.1984 25.3166C35.2148 25.2613 35.204 25.1419 35.1772 24.98ZM23.6295 22.235C23.6295 22.235 23.6748 22.1765 23.7253 22.2193C23.6928 22.2229 23.6612 22.2277 23.6295 22.235Z" fill="var(--fill-0, #3D0027)" stroke="var(--stroke-0, black)" stroke-width="0.356161" stroke-linecap="round" stroke-linejoin="round"/>
<path id="Vector_17" d="M18.4002 40.7044C18.4002 40.7044 18.1734 41.1407 17.8801 41.658C17.1997 41.4697 16.0606 41.1427 14.7508 40.7621C12.4773 37.4208 9.03306 31.9695 9.03306 31.6181C9.03306 31.1076 11.4067 30.265 11.4832 29.9845C11.5598 29.7036 8.80347 28.0957 8.88 27.6874C8.9353 27.3917 10.5032 24.4535 12.0434 23.0091C12.2638 22.8023 12.4837 22.626 12.6985 22.4926C13.0114 22.2979 13.3139 22.1941 13.5916 22.2185C13.5039 22.2406 13.3861 22.3556 13.3224 22.7767C13.2771 23.0724 13.2586 23.5191 13.2955 24.1907C13.372 25.5862 15.1995 31.2667 16.646 35.5788C17.6072 38.4437 18.4002 40.7044 18.4002 40.7044Z" fill="var(--fill-0, #F5D256)" stroke="var(--stroke-0, black)" stroke-width="0.356161" stroke-linecap="round" stroke-linejoin="round"/>
<path id="Vector_18" d="M13.7037 22.2346C13.5911 22.4205 13.5177 22.61 13.4981 22.7422C13.4412 22.7535 13.3827 22.7647 13.3226 22.7759C13.3863 22.3548 13.5041 22.2398 13.5919 22.2178C13.6556 22.2017 13.7037 22.2346 13.7037 22.2346Z" stroke="var(--stroke-0, black)" stroke-width="0.356161" stroke-linecap="round" stroke-linejoin="round"/>
<path id="Vector_19" d="M23.7252 22.2193C23.6927 22.2229 23.6611 22.2277 23.6294 22.2349C23.6294 22.2349 23.6747 22.1764 23.7252 22.2193Z" stroke="var(--stroke-0, black)" stroke-width="0.356161" stroke-linecap="round" stroke-linejoin="round"/>
<path id="Vector_20" d="M14.7511 40.7606C13.7129 40.4593 12.5678 40.1247 11.4579 39.7994C8.62987 38.9704 6.03266 38.2023 6.03266 38.2023L0.178303 27.6391C0.178303 27.6391 0.116197 26.9888 2.06751 25.5019C2.47621 25.1905 3.25634 24.8916 4.2376 24.61C6.09837 24.0754 8.68236 23.6018 10.8256 23.2224C11.2523 23.1471 11.6614 23.0753 12.0437 23.0076C10.5035 24.4521 8.93559 27.3903 8.8803 27.686C8.80377 28.0943 11.5601 29.7022 11.4835 29.9831C11.407 30.2636 9.03336 31.1062 9.03336 31.6167C9.03336 31.9681 12.4776 37.4193 14.7511 40.7606Z" fill="var(--fill-0, #F5D256)" stroke="var(--stroke-0, black)" stroke-width="0.356161" stroke-linecap="round" stroke-linejoin="round"/>
<path id="Vector_21" d="M17.8807 41.6578C18.2846 41.7696 18.527 41.8321 18.5479 41.8281C18.5691 41.8241 18.8592 41.691 19.3444 41.4647" stroke="var(--stroke-0, black)" stroke-width="0.356161" stroke-linecap="round" stroke-linejoin="round"/>
<path id="Vector_22" d="M4.64847 21.3817C4.74544 21.7711 4.81195 22.1666 4.75104 22.5597C4.67932 23.024 4.372 23.484 3.94167 23.6299C3.72971 23.1975 3.4925 22.7668 3.547 22.4951C3.64516 22.0027 4.48299 21.4806 4.64847 21.3817Z" fill="var(--fill-0, #6D1151)"/>
<path id="Vector_23" d="M5.14373 17.0384C5.15094 17.2772 5.13412 17.5136 5.07121 17.744C4.91935 18.2997 4.51026 18.7609 4.37643 19.3215C4.33155 19.5094 4.31913 19.7005 4.32875 19.892C4.17689 19.5418 4.04907 19.2029 4.09315 18.9232C4.1825 18.3582 4.8292 17.8422 5.14373 17.0384Z" fill="var(--fill-0, #6D1151)"/>
<path id="Vector_24" d="M11.6974 1.78042C11.0071 2.54773 10.2994 3.30702 9.46363 3.91044C8.98321 4.25703 8.4475 4.56556 8.13056 5.06561C7.67098 5.79124 7.77956 6.74286 7.45101 7.53661C7.10602 8.37043 6.28783 9.01673 6.21851 9.91626C6.1544 10.7441 6.76223 11.5334 6.6244 12.352C6.47535 13.2347 5.53775 13.7648 5.16592 14.5734C5.15029 14.464 5.14268 14.3606 5.14989 14.2572C5.18636 13.7468 5.84267 12.6529 6.06144 11.9601C6.28022 11.2678 5.47805 10.5021 5.69682 9.8822C5.9156 9.26234 6.71736 8.13242 6.97259 7.47611C7.22783 6.81979 7.04552 6.19994 7.22783 5.72633C7.41014 5.25233 8.72277 4.34078 9.19677 4.05469C9.67038 3.7686 9.92561 2.55454 10.3267 2.117C10.6096 1.80847 11.237 1.79004 11.6974 1.78042Z" fill="var(--fill-0, #6D1151)"/>
<path id="Vector_25" d="M16.6456 35.5788C16.5574 35.6998 16.4064 35.7816 16.2641 35.7411C16.1411 35.7063 16.059 35.5933 15.9872 35.4875C13.9153 32.4203 12.6796 28.7945 12.4476 25.1006C12.3927 24.2985 12.3919 23.465 12.6323 22.6901C12.6528 22.624 12.6748 22.5583 12.698 22.4926C13.011 22.2979 13.3135 22.1941 13.5912 22.2185C13.5034 22.2406 13.3856 22.3556 13.3219 22.7767C13.2766 23.0724 13.2582 23.5191 13.2951 24.1907C13.3716 25.5862 15.1991 31.2667 16.6456 35.5788Z" fill="var(--fill-0, #FFE8A9)"/>
<path id="Vector_26" d="M16.004 29.2798C15.677 29.3299 13.434 23.1786 13.4981 22.7427C13.5177 22.6105 13.5911 22.4209 13.7037 22.235C13.9509 21.8267 14.3868 21.4337 14.8564 21.6925C14.8769 21.7037 14.8977 21.7161 14.9181 21.7302C14.9947 21.7818 17.0762 24.9929 17.6207 25.8331C17.668 25.9065 17.7041 25.9618 17.7257 25.9954C18.1821 26.6994 16.3313 29.2293 16.004 29.2798Z" fill="var(--fill-0, #49A2A6)" stroke="var(--stroke-0, black)" stroke-width="0.356161" stroke-linecap="round" stroke-linejoin="round"/>
<path id="Vector_27" d="M23.8619 23.3534C23.4007 24.7281 20.1183 29.4301 19.5301 29.3909C19.1992 29.3688 18.7668 28.432 18.4387 27.5714C18.1562 26.8321 17.9502 26.149 17.9502 26.149C17.8629 25.8701 18.881 25.4454 20.2786 24.1548C20.7698 23.7008 21.2074 23.2504 21.5808 22.8409C22.4847 21.8488 23.012 21.0936 23.012 21.0936C23.0265 21.118 23.0409 21.1428 23.0549 21.1681C23.4099 21.7968 23.7433 22.7135 23.8615 23.0529C23.8631 23.1438 23.8631 23.2432 23.8619 23.3534Z" fill="var(--fill-0, #49A2A6)" stroke="var(--stroke-0, black)" stroke-width="0.356161" stroke-linecap="round" stroke-linejoin="round"/>
<path id="Vector_28" d="M23.8626 23.3517C23.8638 23.2415 23.8638 23.1421 23.8622 23.0516C23.8918 23.1357 23.9078 23.1842 23.9078 23.1842C23.899 23.2323 23.8838 23.2884 23.8626 23.3517Z" stroke="var(--stroke-0, black)" stroke-width="0.356161" stroke-linecap="round" stroke-linejoin="round"/>
<path id="Vector_29" d="M13.7038 22.2346C13.6669 22.2266 13.6296 22.221 13.592 22.2178C13.6557 22.2017 13.7038 22.2346 13.7038 22.2346Z" stroke="var(--stroke-0, black)" stroke-width="0.356161" stroke-linecap="round" stroke-linejoin="round"/>
<path id="Vector_30" d="M23.7252 22.2193C23.6927 22.2229 23.6611 22.2277 23.6294 22.2349C23.6294 22.2349 23.6747 22.1764 23.7252 22.2193Z" stroke="var(--stroke-0, black)" stroke-width="0.356161" stroke-linecap="round" stroke-linejoin="round"/>
<path id="Vector_31" d="M23.8613 23.3527C23.8625 23.2425 23.8625 23.1432 23.8609 23.0526C23.8609 23.0205 23.8597 22.9905 23.8589 22.9612C23.8777 23.0362 23.8934 23.1107 23.9066 23.1852C23.8978 23.2333 23.8825 23.2894 23.8613 23.3527Z" stroke="var(--stroke-0, black)" stroke-width="0.356161" stroke-linecap="round" stroke-linejoin="round"/>
<path id="Vector_32" d="M12.9507 10.1072C12.9507 10.1072 11.9277 12.0862 12.2811 12.3651C12.6345 12.6439 13.5273 11.6398 13.5273 11.6398" stroke="var(--stroke-0, black)" stroke-width="0.356161" stroke-linecap="round" stroke-linejoin="round"/>
<g id="Group">
<path id="Vector_33" d="M14.9027 14.8786C14.1102 15.3738 13.2792 14.5224 13.2792 14.5224C13.2792 14.5224 13.9687 14.526 14.6058 14.1093C15.2429 13.6926 15.4508 13.235 15.4508 13.235C15.4508 13.235 15.6949 14.3838 14.9027 14.8786Z" fill="var(--fill-0, #E938B5)" stroke="var(--stroke-0, black)" stroke-width="0.356161" stroke-linecap="round" stroke-linejoin="round"/>
<path id="Vector_34" d="M15.4508 13.2348C15.4508 13.2348 15.2429 13.6924 14.6058 14.1091C13.9687 14.5258 13.2792 14.5222 13.2792 14.5222C13.2792 14.5222 13.647 13.6451 13.8589 13.6876C14.0713 13.73 14.1843 13.8542 14.2692 13.686C14.3542 13.5181 14.2552 13.3482 14.4672 13.2348C14.6795 13.1218 15.4508 13.2348 15.4508 13.2348Z" fill="var(--fill-0, #E938B5)" stroke="var(--stroke-0, black)" stroke-width="0.356161" stroke-linecap="round" stroke-linejoin="round"/>
<path id="Vector_35" d="M15.6599 12.6279L15.4504 13.2358" stroke="var(--stroke-0, black)" stroke-width="0.356161" stroke-linecap="round" stroke-linejoin="round"/>
<path id="Vector_36" d="M15.2543 12.5208C15.3648 12.4852 15.4878 12.5076 15.5928 12.5581C15.6978 12.6086 15.7876 12.6851 15.8753 12.7612C15.9266 12.8057 15.9811 12.8566 15.9915 12.9235" stroke="var(--stroke-0, black)" stroke-width="0.356161" stroke-linecap="round" stroke-linejoin="round"/>
</g>
<path id="Vector_37" d="M36.6452 25.6428C36.0001 26.5075 35.0797 27.1694 34.0536 27.5112C32.9313 27.885 31.6968 27.8818 30.5612 27.5476C30.2924 27.4687 30.0291 27.3713 29.7743 27.2559C29.1376 26.9679 28.5158 26.5644 27.8374 26.4662C27.7268 26.4502 27.6146 26.4422 27.5008 26.4442C26.7508 26.4574 26.0844 26.9013 25.4766 27.3413C25.15 27.5777 24.7686 27.8289 24.3835 27.8149C24.3134 27.8121 24.2437 27.8009 24.1736 27.7788C23.8098 27.665 23.5882 27.3036 23.4207 26.961C23.3758 26.8693 23.3325 26.7763 23.2909 26.6822C23.6034 25.5022 23.8082 24.5842 23.833 24.1278C23.8494 23.8253 23.8586 23.5693 23.8614 23.3529C23.8827 23.2892 23.8979 23.2331 23.9067 23.185C24.0794 24.1643 23.6186 25.2878 24.3964 25.7197C24.914 26.007 25.5844 25.5931 26.1618 25.2926C26.4522 25.1416 26.7191 25.0189 26.9311 25.0286C26.9343 25.0286 26.9375 25.029 26.9407 25.0294C27.5726 25.0622 28.3463 25.547 29.12 25.547C29.2398 25.547 29.3756 25.5414 29.5207 25.5326C30.3152 25.4849 31.3866 25.3387 31.6543 25.4605C31.9712 25.6047 33.037 26.7855 33.8436 26.3536C34.6498 25.9213 35.1106 25.6047 35.1971 25.3167C35.2135 25.2614 35.2027 25.142 35.1759 24.9801C35.595 25.0875 35.8454 25.1536 35.8626 25.1624C35.9099 25.186 36.2481 25.3868 36.6452 25.6428Z" fill="var(--fill-0, #E0B836)"/>
<path id="Vector_38" d="M30.6185 28.4145C30.5436 28.586 30.3749 28.6946 30.2154 28.7931C29.4766 29.2479 28.7381 29.7031 27.9997 30.1579C28.5506 30.5229 29.3984 30.5004 29.701 31.0882C29.8496 31.3767 29.8055 31.7237 29.7402 32.0419C29.2939 34.2067 28.0694 36.0791 26.8124 37.9251C25.6633 38.4736 24.4869 39.0337 23.395 39.5522C25.5932 36.2482 28.2994 31.9297 28.2994 31.6183C28.2994 31.1079 25.9257 30.2652 25.8492 29.9848C25.7723 29.7039 28.529 28.0959 28.4524 27.6877C28.4316 27.5775 28.2004 27.0987 27.8378 26.4668C27.5914 26.036 27.2836 25.5348 26.9411 25.0299C27.5729 25.0628 28.3467 25.5476 29.1204 25.5476C29.2402 25.5476 29.376 25.542 29.5211 25.5332C29.9682 26.1599 30.3693 26.821 30.5616 27.5482C30.5981 27.6865 30.6269 27.8267 30.6474 27.9697C30.6686 28.1188 30.6786 28.2763 30.6185 28.4145Z" fill="var(--fill-0, #E0B836)"/>
<path id="Vector_39" d="M28.2995 31.618C28.2995 31.8632 26.6199 34.5954 24.8324 37.3593C24.5604 37.4351 24.2735 37.4487 24.007 37.3613C24.2122 36.4915 24.7218 35.7246 25.2844 35.0302C25.8469 34.3358 26.4732 33.6903 26.9713 32.9482C27.1355 32.7038 27.291 32.4113 27.2105 32.1284C27.1079 31.7682 26.6916 31.6188 26.3374 31.4974C25.9828 31.3764 25.5777 31.1508 25.5729 30.7765C25.5693 30.4981 25.7993 30.2857 26.0633 30.1707C26.6619 30.5409 28.2995 31.1941 28.2995 31.618Z" fill="var(--fill-0, #FFE8A9)"/>
<path id="Vector_40" d="M14.7512 40.7606C13.713 40.4593 12.5679 40.1247 11.458 39.7994C10.9579 39.0874 10.4827 38.3569 10.0087 37.6277C9.37925 36.66 8.75018 35.6924 8.12071 34.7248C7.88832 34.3677 7.65312 34.0039 7.52931 33.596C7.33097 32.9437 7.43995 32.2233 7.73245 31.6074C8.02495 30.9916 8.49014 30.4715 9.00501 30.0248C9.09196 29.9498 9.18572 29.8673 9.20776 29.7547C9.25304 29.5251 8.99259 29.3668 8.78224 29.2635C7.99369 28.876 7.33457 28.2305 6.93109 27.4504C6.85776 27.3085 6.79125 27.1535 6.80728 26.9948C6.82651 26.8061 6.95793 26.6502 7.08575 26.5096C7.69038 25.8432 8.34429 25.2222 9.03987 24.6516C9.62968 24.168 10.2351 23.7056 10.8257 23.2224C11.2524 23.1471 11.6615 23.0753 12.0438 23.0076C10.5036 24.4521 8.9357 27.3903 8.8804 27.686C8.80387 28.0943 11.5602 29.7022 11.4836 29.9831C11.4071 30.2636 9.03346 31.1062 9.03346 31.6167C9.03346 31.9681 12.4777 37.4193 14.7512 40.7606Z" fill="var(--fill-0, #E0B836)"/>
<path id="Vector_41" d="M17.6208 25.8332C17.5899 26.0896 17.5406 26.3444 17.4461 26.5841C17.3996 26.7014 17.3387 26.8192 17.2369 26.8942C17.0025 27.0669 16.6495 26.933 16.4748 26.7002C16.3001 26.467 16.2496 26.1677 16.1735 25.8869C15.9876 25.1985 15.627 24.573 15.318 23.9303C15.0416 23.3554 14.6393 22.5239 14.7915 21.8656C14.8064 21.8019 14.828 21.7442 14.8565 21.6925C14.8769 21.7038 14.8977 21.7162 14.9182 21.7302C14.9947 21.7819 17.0762 24.9929 17.6208 25.8332Z" fill="var(--fill-0, #63BABA)"/>
<path id="Vector_42" d="M38.0624 26.8042C38.0315 27.1139 33.6637 34.5173 33.3848 34.7341C33.2125 34.8683 27.6579 37.528 23.395 39.5519C25.5932 36.2478 28.2994 31.9293 28.2994 31.618C28.2994 31.1075 25.9257 30.2649 25.8492 29.9844C25.7723 29.7035 28.529 28.0956 28.4524 27.6873C28.4176 27.5018 27.7869 26.2749 26.9411 25.0296C27.5729 25.0624 28.3467 25.5472 29.1204 25.5472C29.8941 25.5472 31.3381 25.3169 31.6547 25.4607C31.9716 25.6049 33.0374 26.7858 33.844 26.3538C34.6502 25.9215 35.111 25.6049 35.1975 25.3169C35.2139 25.2616 35.2031 25.1422 35.1763 24.9803C35.5954 25.0877 35.8458 25.1538 35.863 25.1626C35.9868 25.2243 38.0932 26.4945 38.0624 26.8042Z" stroke="var(--stroke-0, black)" stroke-width="0.356161" stroke-linecap="round" stroke-linejoin="round"/>
<path id="Vector_43" d="M28.2993 31.617C28.2993 31.9283 25.5931 36.2468 23.3949 39.5509C21.7009 40.355 20.2107 41.0586 19.3436 41.4637C19.1048 41.0354 18.9321 40.7032 18.9321 40.7032C18.9321 40.7032 23.7059 26.4498 23.8333 24.127C23.8497 23.8245 23.8589 23.5685 23.8617 23.3521C23.883 23.2884 23.8982 23.2323 23.907 23.1842C24.0797 24.1635 23.6189 25.287 24.3966 25.7189C25.1744 26.1509 26.2975 24.9989 26.9313 25.0278C26.9346 25.0278 26.9378 25.0282 26.941 25.0286C27.7868 26.2739 28.4175 27.5008 28.4523 27.6863C28.5289 28.0946 25.7722 29.7025 25.8491 29.9834C25.9256 30.2639 28.2993 31.1065 28.2993 31.617Z" stroke="var(--stroke-0, black)" stroke-width="0.356161" stroke-linecap="round" stroke-linejoin="round"/>
<path id="Vector_44" d="M18.4002 40.7044C18.4002 40.7044 18.1734 41.1407 17.8801 41.658C17.1997 41.4697 16.0606 41.1427 14.7508 40.7621C12.4773 37.4208 9.03306 31.9695 9.03306 31.6181C9.03306 31.1076 11.4067 30.265 11.4832 29.9845C11.5598 29.7037 8.80347 28.0957 8.88 27.6874C8.9353 27.3917 10.5032 24.4535 12.0434 23.0091C12.5851 22.5006 13.1236 22.1773 13.5916 22.2185C13.5039 22.2406 13.3861 22.3556 13.3224 22.7767C13.2771 23.0724 13.2586 23.5191 13.2955 24.1907C13.4229 26.5134 18.4002 40.7044 18.4002 40.7044Z" stroke="var(--stroke-0, black)" stroke-width="0.356161" stroke-linecap="round" stroke-linejoin="round"/>
<path id="Vector_45" d="M14.7511 40.7606C11.0676 39.6912 6.03266 38.2023 6.03266 38.2023L0.178303 27.6391C0.178303 27.6391 0.116197 26.9888 2.06751 25.5019C2.47621 25.1905 3.25634 24.8916 4.2376 24.61C6.4686 23.9689 9.73936 23.4159 12.0437 23.0076C10.5035 24.4521 8.93559 27.3903 8.8803 27.686C8.80377 28.0943 11.5601 29.7022 11.4835 29.9831C11.407 30.2636 9.03336 31.1062 9.03336 31.6167C9.03336 31.9681 12.4776 37.4193 14.7511 40.7606Z" stroke="var(--stroke-0, black)" stroke-width="0.356161" stroke-linecap="round" stroke-linejoin="round"/>
<path id="Vector_46" d="M21.7447 23.1822C21.6922 23.7203 21.6261 24.2921 21.2863 24.7128C20.9129 25.1744 20.289 25.3527 19.8471 25.7493C19.2865 26.2534 19.0894 27.0323 18.8133 27.7339C18.8005 27.7664 18.7852 27.8012 18.754 27.8172C18.6999 27.8445 18.6386 27.7984 18.5969 27.7547C18.5432 27.6982 18.4903 27.6369 18.4387 27.5712C18.1562 26.832 17.9502 26.1488 17.9502 26.1488C17.8629 25.8699 18.881 25.4452 20.2786 24.1546C20.7698 23.7006 21.2074 23.2503 21.5808 22.8408C21.6413 22.8684 21.6962 22.9069 21.725 22.965C21.7583 23.0311 21.7519 23.1088 21.7447 23.1822Z" fill="var(--fill-0, #63BABA)"/>
<path id="Vector_47" d="M19.0692 1.06543C19.1353 1.10029 19.2094 1.12433 19.29 1.14035C19.2619 1.14837 19.2343 1.15718 19.2066 1.1656C18.4325 1.40641 17.0674 1.81109 16.6006 0.852264C16.8983 0.680372 17.2517 0.500066 17.7734 0.345403C18.5507 0.115011 18.4646 0.748488 19.0692 1.06543Z" fill="var(--fill-0, #6D1151)"/>
<path id="Vector_48" d="M22.9349 1.96327C22.5122 1.88715 22.1031 1.77936 21.7481 1.54737C21.5397 1.41114 21.3574 1.23604 21.1378 1.11904C21.0196 1.05613 20.8962 1.01286 20.7696 0.984811C21.1198 0.915092 21.4624 0.853387 21.7473 0.863404C22.3611 0.885442 22.5578 1.37507 22.9349 1.96327Z" fill="var(--fill-0, #6D1151)"/>
<path id="Vector_49" d="M26.3672 4.6607C26.0599 4.52527 25.7105 4.41869 25.4652 4.20313C25.1315 3.90943 25.0349 3.45746 25.0129 2.99948C25.2733 3.0095 25.5173 3.04676 25.7221 3.19581C26.1244 3.48831 26.1552 4.1286 26.3672 4.6607Z" fill="var(--fill-0, #6D1151)"/>
<path id="Vector_50" d="M28.256 7.28646C28.2596 7.29888 28.2636 7.3109 28.2676 7.32292C28.2035 7.28446 28.1402 7.24559 28.0777 7.20552C27.576 6.88338 27.0948 6.41819 27.0431 5.82438C27.0307 5.68053 27.0443 5.53308 27.0295 5.39044C27.9683 5.79433 27.9979 6.45465 28.256 7.28646Z" fill="var(--fill-0, #6D1151)"/>
<path id="Vector_51" d="M30.2657 11.8117C29.3084 11.3033 28.8865 9.89967 29.498 8.97931C29.5705 9.03861 29.6466 9.09791 29.7255 9.15881C30.4283 9.69933 30.2432 10.9246 30.2657 11.8117Z" fill="var(--fill-0, #6D1151)"/>
<path id="Vector_52" d="M32.3253 15.8414C31.9751 15.7012 31.54 15.6114 31.3024 15.3317C30.945 14.9114 31.1826 14.2751 31.4154 13.7751C31.4831 13.6297 31.5464 13.4694 31.5917 13.3063C31.7275 13.4309 31.8497 13.5788 31.9435 13.7663C32.3746 14.629 31.873 15.0372 32.3253 15.8414Z" fill="var(--fill-0, #6D1151)"/>
<path id="Vector_53" d="M35.1041 24.6048C34.9157 24.4814 34.7523 24.3155 34.6321 24.1268C34.338 23.6664 34.2642 23.0967 34.2903 22.5509C34.3151 22.0216 34.4257 21.4803 34.2851 20.9695C34.0787 20.2214 33.3904 19.7177 32.9957 19.0498C32.6158 18.4075 32.5245 17.6021 32.7505 16.8909C32.7793 16.8004 32.8134 16.709 32.835 16.6168C33.2894 17.3277 33.6352 18.0244 33.6131 18.7212C33.5843 19.6143 33.7281 19.9313 34.5059 20.3344C35.2836 20.7375 35.082 21.6017 34.8516 22.2929C34.6946 22.7633 34.9514 23.8608 35.1041 24.6048Z" fill="var(--fill-0, #6D1151)"/>
<path id="Vector_54" d="M16.0032 29.2799C15.6762 29.33 13.4332 23.1787 13.4973 22.7428C13.5169 22.6106 13.5903 22.421 13.7028 22.2351C13.9609 21.8088 14.4245 21.3993 14.9173 21.7303C15.0007 21.7864 17.4548 25.5788 17.7249 25.9955C18.1813 26.6995 16.3305 29.2294 16.0032 29.2799Z" stroke="var(--stroke-0, black)" stroke-width="0.356161" stroke-linecap="round" stroke-linejoin="round"/>
<path id="Vector_55" d="M23.8619 23.3534C23.4007 24.7281 20.1183 29.4301 19.5301 29.3909C18.9147 29.3496 17.9502 26.149 17.9502 26.149C17.8629 25.8701 18.881 25.4454 20.2786 24.1548C21.9594 22.6013 23.012 21.0936 23.012 21.0936C23.0265 21.118 23.0409 21.1428 23.0549 21.1681C23.4099 21.7968 23.7433 22.7135 23.8615 23.0529C23.8631 23.1438 23.8631 23.2432 23.8619 23.3534Z" stroke="var(--stroke-0, black)" stroke-width="0.356161" stroke-linecap="round" stroke-linejoin="round"/>
<path id="Vector_56" d="M13.5277 4.66128C13.2496 4.95178 13.3871 5.76356 13.4676 6.15743C13.5081 6.35496 13.5533 6.56212 13.6848 6.71518C13.8358 6.89148 14.0722 6.9648 14.2974 7.02049C14.8095 7.14711 15.3336 7.22644 15.8605 7.25649C16.0223 7.26571 16.1882 7.27132 16.3377 7.33343C16.6462 7.46205 16.8105 7.79701 16.9135 8.11475C17.0164 8.4325 17.093 8.77628 17.3197 9.0215C17.8226 9.56522 18.8347 9.39653 19.2739 9.99275C19.5131 10.3177 19.4918 10.758 19.4806 11.1615C19.4694 11.565 19.5007 12.019 19.8016 12.2879C20.0872 12.5435 20.512 12.5403 20.895 12.5375C21.2781 12.5347 21.712 12.5691 21.9556 12.8648C22.1956 13.1557 22.1528 13.5833 22.0554 13.9475C21.958 14.3117 21.817 14.6879 21.9035 15.055C21.9212 15.1299 21.9917 15.22 22.0562 15.178" stroke="var(--stroke-0, black)" stroke-width="0.356161" stroke-linecap="round" stroke-linejoin="round"/>
<path id="Vector_57" d="M13.4158 4.79068C12.8721 5.36245 12.7238 6.2756 13.0584 6.99042C13.3934 7.70523 14.1895 8.17563 14.9769 8.12394C15.4228 8.09469 15.9313 7.93162 16.2755 8.2169C16.5407 8.43688 16.5728 8.82594 16.7295 9.13286C16.937 9.53955 17.3697 9.79398 17.8149 9.89536C18.2601 9.99673 18.7236 9.96708 19.1792 9.93663" stroke="var(--stroke-0, black)" stroke-width="0.356161" stroke-linecap="round" stroke-linejoin="round"/>
<path id="Vector_58" d="M14.9183 21.7297C14.4255 21.3988 13.9619 21.8083 13.7038 22.2346C13.7038 22.2346 13.6557 22.2017 13.592 22.2178C13.3007 22.1921 12.9822 22.3075 12.6524 22.5211C12.64 22.3692 12.6324 22.217 12.6272 22.0659C12.6132 21.6668 12.6112 21.2597 12.4846 20.8807C12.3579 20.502 12.0791 20.1486 11.692 20.0493C11.3114 19.9515 10.9171 20.1126 10.5248 20.139C9.65294 20.1971 8.84557 19.5512 8.49216 18.7523C8.13876 17.9533 8.162 17.0373 8.30425 16.1751C8.52742 14.818 9.0415 13.5618 9.7459 12.3862C9.76192 12.3594 9.77835 12.3321 9.79438 12.3045C9.34521 14.35 9.50268 16.3009 11.0169 17.5102C12.1199 18.3913 13.6008 18.2682 15.0277 17.7642C15.0277 17.7642 15.0593 20.4243 14.9183 21.7297Z" fill="var(--fill-0, #210017)"/>
<path id="Vector_59" d="M15.3464 5.73198C15.6409 6.0397 15.7635 6.46162 15.909 6.86951C15.4229 6.78737 14.9093 6.74771 14.5467 6.5666C14.2397 6.41354 13.9665 5.94474 13.7661 5.50239C14.2682 5.24475 14.9497 5.31687 15.3464 5.73198Z" fill="var(--fill-0, #6D1151)"/>
<path id="Vector_60" d="M20.0472 10.0966C19.564 9.70714 18.3178 9.45391 17.9741 9.159C17.7893 9.00033 17.6711 8.66697 17.5389 8.31036C17.8002 8.38369 18.0662 8.4498 18.315 8.54316C19.0587 8.82163 19.679 9.39461 20.0472 10.0966Z" fill="var(--fill-0, #6D1151)"/>
<path id="Vector_61" d="M23.9017 23.1538C23.8897 23.0897 23.8757 23.0256 23.8597 22.9611C23.7852 22.6606 23.669 22.3592 23.5295 22.0603C23.3889 21.7586 23.2246 21.4597 23.0551 21.1672C23.0411 21.142 23.0267 21.1171 23.0122 21.0927C22.8572 20.8262 22.6993 20.5658 22.5531 20.3138C22.0346 19.4207 22.8884 18.35 22.9461 17.3808C23.0034 16.4119 22.5847 16.2004 22.0085 15.5669C21.4328 14.9334 22.3519 13.9109 22.0638 13.162C21.7757 12.4131 21.1423 12.7301 20.5949 12.2693C20.1606 11.9035 20.3068 11.2111 20.2852 10.6818C20.3341 10.8469 20.3693 11.016 20.3898 11.1875C20.405 11.3165 20.4134 11.4499 20.4727 11.5653C20.6422 11.8955 21.095 11.9059 21.4568 11.988C22.3723 12.1968 23.0026 13.2409 22.7614 14.1481C22.6476 14.5756 22.3723 14.9651 22.3663 15.4074C22.3651 15.5016 22.378 15.5998 22.4284 15.6791C22.5254 15.8301 22.7233 15.8694 22.8904 15.9359C23.5912 16.2148 23.8473 17.1035 23.7503 17.8516C23.6529 18.5997 23.3039 19.294 23.1725 20.0369C23.1413 20.2132 23.1228 20.3959 23.1621 20.5706C23.2186 20.8206 23.3857 21.0278 23.5159 21.2482C23.8553 21.8235 23.9382 22.4807 23.9017 23.1538Z" fill="var(--fill-0, #6D1151)"/>
<path id="Vector_62" d="M35.1771 24.98C35.0641 24.2953 34.6663 22.8512 34.853 22.2923C35.0834 21.6011 35.2849 20.7368 34.5072 20.3337C33.7295 19.9306 33.5856 19.6137 33.6145 18.7206C33.6429 17.8279 33.0671 16.9352 32.4333 16.0132C31.7998 15.0916 32.4044 14.6885 31.9436 13.7666C31.4828 12.845 30.3309 12.8738 30.2732 11.9811C30.2155 11.088 30.4747 9.73451 29.7259 9.15833C28.977 8.58215 28.5162 8.12136 28.257 7.28634C27.9977 6.45092 27.9689 5.7886 27.0185 5.38511C26.068 4.98203 26.3561 3.65697 25.7223 3.19619C25.0888 2.73541 24.0807 3.34043 23.3606 2.53386C22.6406 1.72729 22.5541 0.892272 21.7479 0.863423C20.9413 0.834574 19.674 1.3819 19.0689 1.06497C18.4643 0.748027 18.5505 0.114549 17.7731 0.344941C16.9954 0.575333 16.5919 0.863423 16.1888 1.09381C16.1888 1.09381 14.9664 -0.213208 14.1602 0.295657C13.3536 0.804122 12.4785 1.67921 12.1504 1.75213C11.8226 1.82506 10.7288 1.67921 10.3277 2.11675C9.9266 2.5543 9.67136 3.76836 9.19776 4.05445C8.72375 4.34053 7.41112 5.25208 7.22881 5.72609C7.0465 6.1997 7.22881 6.81955 6.97358 7.47587C6.71834 8.13218 5.91658 9.2621 5.69781 9.88196C5.47904 10.5018 6.2812 11.2675 6.06243 11.9599C5.84366 12.6527 5.18734 13.7465 5.15088 14.257C5.11442 14.7671 5.44257 15.2775 5.29673 16.4443C5.15088 17.6107 4.20287 18.2306 4.09348 18.9233C3.98409 19.6161 4.93211 20.6731 4.67687 21.3659C4.67687 21.3659 3.65594 21.9493 3.54695 22.4962C3.44798 22.991 4.31666 24.016 4.23813 24.611C6.46912 23.9699 9.73988 23.417 12.0442 23.0087C12.5859 22.5002 13.1244 22.1769 13.5924 22.2181C13.6561 22.2021 13.7042 22.235 13.7042 22.235C13.9623 21.8086 14.4258 21.3991 14.9187 21.7301C15.0597 20.4247 15.0281 17.7646 15.0281 17.7646C13.6012 18.2686 12.1203 18.3916 11.0173 17.5105C7.19836 14.4605 12.0085 6.69173 13.4221 4.58735C13.4322 4.62141 13.9198 6.25259 14.5473 6.56632C15.1807 6.88286 16.2754 6.76786 16.88 7.1998C17.485 7.63173 17.5712 8.81254 17.9747 9.15833C18.3778 9.50411 20.0198 9.7922 20.2213 10.3103C20.4228 10.8288 20.0482 11.808 20.5955 12.2692C21.1429 12.73 21.7763 12.4131 22.0644 13.1619C22.3525 13.9108 21.4334 14.9333 22.0091 15.5668C22.5853 16.2003 23.004 16.4119 22.9467 17.3807C22.889 18.35 22.0352 19.4206 22.5537 20.3137C22.6999 20.5657 22.8578 20.8262 23.0128 21.0926C23.0273 21.1171 23.0417 21.1419 23.0557 21.1671C23.2252 21.4596 23.3895 21.7585 23.5301 22.0603C23.6696 22.3592 23.7858 22.6605 23.8603 22.961C23.8791 23.0359 23.8947 23.1104 23.908 23.185C24.0807 24.1642 23.6199 25.2878 24.3976 25.7197C25.1753 26.1516 26.2984 24.9997 26.9323 25.0285C26.9355 25.0285 26.9387 25.0289 26.9419 25.0293C27.5738 25.0622 28.3475 25.547 29.1212 25.547C29.8949 25.547 31.339 25.3166 31.6555 25.4604C31.9725 25.6047 33.0383 26.7855 33.8449 26.3536C34.651 25.9212 35.1118 25.6047 35.1984 25.3166C35.2148 25.2613 35.204 25.1419 35.1771 24.98ZM23.6295 22.235C23.6295 22.235 23.6748 22.1765 23.7253 22.2193C23.6928 22.2229 23.6611 22.2277 23.6295 22.235Z" stroke="var(--stroke-0, black)" stroke-width="0.356161" stroke-linecap="round" stroke-linejoin="round"/>
<g id="Group_2">
<path id="Vector_63" d="M13.6063 8.85528H17.2986V9.55247C17.2986 10.5522 16.4872 11.3635 15.4875 11.3635H15.4178C14.4181 11.3635 13.6067 10.5522 13.6067 9.55247V8.85528H13.6063Z" fill="var(--fill-0, #E86F3A)" stroke="var(--stroke-0, black)" stroke-width="0.356161" stroke-linecap="round" stroke-linejoin="round"/>
<path id="Vector_64" d="M8.6649 8.85528H12.3572V9.55247C12.3572 10.5522 11.5458 11.3635 10.5461 11.3635H10.4764C9.47668 11.3635 8.6653 10.5522 8.6653 9.55247V8.85528H8.6649Z" fill="var(--fill-0, #E86F3A)" stroke="var(--stroke-0, black)" stroke-width="0.356161" stroke-linecap="round" stroke-linejoin="round"/>
<path id="Vector_65" d="M12.3579 9.5525C12.3579 9.5525 12.7662 8.90661 13.6073 9.5525" stroke="var(--stroke-0, black)" stroke-width="0.356161" stroke-linecap="round" stroke-linejoin="round"/>
</g>
</g>
</svg>
