<svg preserveAspectRatio="none" width="100%" height="100%" overflow="visible" style="display: block;" viewBox="0 0 30.5925 33.6047" fill="none" xmlns="http://www.w3.org/2000/svg">
<g id="Illustration">
<path id="Vector" d="M18.4105 16.874C18.4105 16.874 17.5685 18.0802 16.2238 19.3229C15.1057 20.3554 14.2912 20.6952 14.3611 20.9183L14.1813 20.7962C13.9652 20.4628 12.0019 17.4288 11.9352 17.384C12.048 16.3396 12.0227 14.2115 12.0227 14.2115C10.8812 14.6148 9.69652 14.7132 8.81406 14.0083C5.75894 11.5683 9.60708 5.35328 10.738 3.66977C10.746 3.69702 11.1361 5.00196 11.6381 5.25294C12.1448 5.50618 13.0206 5.41418 13.5043 5.75973C13.9883 6.10527 14.0572 7.04992 14.38 7.32655C14.7025 7.60318 16.0161 7.83365 16.1773 8.24812C16.3385 8.6629 16.0388 9.44632 16.4767 9.81526C16.9145 10.1839 17.4213 9.93034 17.6518 10.5294C17.8823 11.1285 17.1469 11.9466 17.6076 12.4533C18.0685 12.9601 18.4035 13.1294 18.3576 13.9045C18.3115 14.6799 17.6284 15.5364 18.0432 16.2508C18.1602 16.4525 18.2865 16.6608 18.4105 16.874Z" fill="var(--fill-0, #CC927A)" stroke="var(--stroke-0, black)" stroke-width="0.284929" stroke-linecap="round" stroke-linejoin="round"/>
<path id="Vector_2" d="M30.4498 21.443C30.4251 21.6907 26.9308 27.6134 26.7077 27.7869C26.6052 27.8667 24.12 29.0646 21.4498 30.3394C20.5305 30.7782 19.5894 31.2263 18.7159 31.6411C20.4744 28.9979 22.6394 25.543 22.6394 25.294C22.6394 24.8856 20.7405 24.2115 20.6792 23.9871C20.6177 23.7624 22.823 22.4761 22.7618 22.1494C22.7452 22.0613 22.5602 21.6782 22.2701 21.1727C22.073 20.8282 21.8268 20.4272 21.5527 20.0233C22.0582 20.0495 22.6772 20.4374 23.2962 20.4374C23.392 20.4374 23.5007 20.4329 23.6167 20.4259C24.2524 20.3877 25.1095 20.2707 25.3236 20.3682C25.5772 20.4836 26.4298 21.4282 27.0751 21.0827C27.72 20.7368 28.0886 20.4836 28.1579 20.2531C28.171 20.2089 28.1624 20.1133 28.1409 19.9838C28.4762 20.0697 28.6765 20.1226 28.6903 20.1297C28.7281 20.1486 28.9987 20.3092 29.3163 20.514C29.8289 20.8442 30.4652 21.2901 30.4498 21.443Z" fill="var(--fill-0, #F5D256)" stroke="var(--stroke-0, black)" stroke-width="0.284929" stroke-linecap="round" stroke-linejoin="round"/>
<path id="Vector_3" d="M22.6393 25.2933C22.6393 25.4895 21.2956 27.6753 19.8656 29.8864C19.4803 30.482 19.0889 31.0795 18.7158 31.6404C18.1267 31.9203 17.5679 32.1847 17.0682 32.4206C16.4182 32.728 15.8668 32.9877 15.4748 33.1707C15.2837 32.828 15.1456 32.5623 15.1456 32.5623C15.1456 32.5623 17.6106 25.2023 18.6328 21.3448C18.8828 20.4008 19.0466 19.6665 19.0665 19.3014C19.0796 19.0593 19.087 18.8545 19.0893 18.6814C19.1062 18.6305 19.1184 18.5856 19.1255 18.5471C19.2636 19.3305 18.895 20.2293 19.5172 20.5749C19.9313 20.8047 20.4676 20.4736 20.9295 20.2332C21.1619 20.1123 21.3754 20.0143 21.5449 20.0219C21.5475 20.0219 21.5501 20.0223 21.5526 20.0226C21.8267 20.4265 22.0729 20.8275 22.27 21.1721C22.5601 21.6776 22.7451 22.0606 22.7617 22.1488C22.823 22.4754 20.6176 23.7617 20.6792 23.9864C20.6897 24.0246 20.7526 24.0752 20.8503 24.1355C21.3292 24.4317 22.6393 24.9542 22.6393 25.2933Z" fill="var(--fill-0, #F5D256)" stroke="var(--stroke-0, black)" stroke-width="0.284929" stroke-linecap="round" stroke-linejoin="round"/>
<path id="Vector_4" d="M11.7831 4.76982C11.8209 5.35289 12.1133 5.91481 12.5691 6.28023C12.8701 6.5216 13.2316 6.67642 13.5445 6.90273C14.032 7.25533 14.3891 7.78391 14.5346 8.36762C14.583 8.56251 14.6122 8.77022 14.7308 8.93242C14.9324 9.20777 15.3254 9.2645 15.5751 9.49722C16.1204 10.0046 15.7219 11.0079 16.1758 11.5987C16.2916 11.7494 16.4547 11.8593 16.5627 12.0157C16.7496 12.2869 16.7384 12.643 16.7236 12.9719C16.6355 14.9343 16.7339 17.0499 17.9138 18.6206C18.1129 18.8853 18.3908 19.1511 18.721 19.1222C19.0976 19.0892 19.3258 18.6997 19.4694 18.35C19.9753 17.1182 20.2307 15.7972 20.3833 14.4743C20.5144 13.3386 20.5699 12.1747 20.3 11.0637C20.0448 10.0136 19.5108 9.05679 19.022 8.09323C18.6094 7.28001 18.2065 6.42704 17.5154 5.83211C16.9201 5.31988 16.1627 5.04453 15.4235 4.77976C14.878 4.58422 14.3327 4.38901 13.7871 4.19348C13.1675 3.97166 12.4174 3.7678 11.902 4.17649" fill="var(--fill-0, #BA735A)"/>
<path id="Vector_5" d="M6.97252 7.25127C6.72666 8.39433 6.53273 9.55598 6.54138 10.7253C6.55004 11.8947 6.76961 13.0778 7.31197 14.1138C7.57097 14.6084 8.01429 15.1206 8.56947 15.0591C9.04003 15.0072 9.37212 14.5379 9.44392 14.0702C9.5154 13.6022 9.39167 13.1297 9.29839 12.6659C9.18844 12.1191 9.12017 11.5623 9.12818 11.0048C9.15959 8.78572 10.3664 6.78455 11.3015 4.77153C11.472 4.40419 11.6368 4.02434 11.6679 3.62077C11.6765 3.51051 11.6717 3.3903 11.6031 3.30343C11.5319 3.21336 11.4098 3.18195 11.2954 3.17073C10.9296 3.13387 10.5639 3.24317 10.2273 3.39094C9.33044 3.78489 8.5746 4.45643 7.97646 5.23215C7.37865 6.00819 6.92956 6.88809 6.53465 7.78465" fill="var(--fill-0, #FFC7B3)"/>
<path id="Vector_6" d="M14.1871 14.996C13.6515 15.6563 12.887 16.1278 12.0561 16.3096C12.0529 15.7092 12.0564 15.1085 12.067 14.5081C12.0686 14.4116 12.0721 14.31 12.1218 14.2273C12.1773 14.1357 12.2792 14.0844 12.376 14.0388C12.7908 13.8436 13.2113 13.6609 13.6213 13.4555C13.8322 13.3497 14.0406 13.2384 14.2425 13.1163C14.3855 13.0298 14.6833 12.7253 14.8375 12.7086C15.2128 12.6679 14.9086 13.5872 14.8436 13.7853C14.7 14.2238 14.4778 14.637 14.1871 14.9954V14.996Z" fill="var(--fill-0, #B27059)"/>
<path id="Vector_7" d="M19.0894 18.683C19.0881 18.7689 19.0859 18.8625 19.082 18.9644C19.0785 19.0683 19.0734 19.1808 19.0666 19.3029C18.9647 21.1611 15.1457 32.5639 15.1457 32.5639H14.7201C14.7201 32.5639 10.9524 21.8214 10.6533 19.5257C10.6446 19.4612 10.6392 19.4035 10.6363 19.3529C10.6068 18.8157 10.6216 18.4583 10.6578 18.2217C10.7059 18.2127 10.7527 18.2037 10.7982 18.1948C10.7822 18.3044 10.9488 18.8673 11.1931 19.5856C11.7246 21.1499 12.6237 23.452 12.8029 23.4245C12.866 23.4148 13.0006 23.2889 13.1635 23.0959C13.6728 22.4907 14.4572 21.2239 14.1803 20.797L14.3601 20.9191C14.3601 20.9191 15.1316 23.4796 15.624 23.5126C16.0003 23.5376 17.7566 21.1351 18.6326 19.6103C18.7246 19.4503 18.8067 19.3 18.8766 19.1631C18.9734 18.974 19.0464 18.8105 19.0894 18.683Z" fill="var(--fill-0, #C9C4FE)" stroke="var(--stroke-0, black)" stroke-width="0.284929" stroke-linecap="round" stroke-linejoin="round"/>
<path id="Vector_8" d="M19.0821 18.9643C19.0786 19.0682 19.0735 19.1807 19.0667 19.3028C18.9648 21.161 15.1458 32.5637 15.1458 32.5637H14.7202C14.7202 32.5637 10.9525 21.8213 10.6534 19.5256C10.723 19.3877 10.7986 19.2531 10.88 19.122C10.9845 19.2762 11.089 19.4307 11.1932 19.5855C11.774 20.4491 12.3398 21.3245 12.7937 22.2601C12.927 22.5345 13.0501 22.8134 13.1636 23.0958C13.8467 24.7934 14.1881 26.6234 14.3272 28.4521C14.3624 28.9156 14.4573 29.4817 14.8961 29.6353C16.8662 26.6491 17.1005 22.8419 18.6327 19.6102C18.6539 19.5653 18.6754 19.5204 18.6972 19.4756C18.7497 19.3672 18.8049 19.2589 18.8767 19.163C18.8985 19.1339 18.9215 19.1057 18.9469 19.0794C18.9885 19.0358 19.0341 18.9976 19.0821 18.9643Z" fill="var(--fill-0, #A2A0F2)"/>
<path id="Vector_9" d="M14.9268 0.921794C15.7522 0.478801 16.8418 0.589709 17.5608 1.19009C17.6912 1.29908 17.8124 1.42409 17.965 1.49974C18.4092 1.72091 18.9644 1.46416 19.4327 1.6286C19.8014 1.7581 20.0491 2.16679 19.9937 2.55337C19.962 2.77358 19.8446 2.99059 19.895 3.20728C19.9777 3.56309 20.4364 3.6679 20.8005 3.63745C21.1646 3.60732 21.5724 3.52526 21.8631 3.74644C22.1785 3.9862 22.1837 4.46157 22.0782 4.84366C21.9724 5.22543 21.7852 5.60079 21.8195 5.99538C22.3862 6.29253 23.2046 5.85402 23.67 6.29349C24.0124 6.61692 23.8999 7.17627 23.7668 7.62792C23.6338 8.07956 23.5376 8.64725 23.8957 8.95305C24.2855 9.2861 24.9509 9.05626 25.3449 9.38418C25.7722 9.73999 25.5641 10.4163 25.3968 10.9465C25.2054 11.554 25.1173 12.1938 25.1381 12.8304C25.1436 12.9974 25.1602 13.1753 25.2625 13.3077C25.4141 13.5048 25.7023 13.5346 25.9475 13.4916C26.1924 13.4487 26.4299 13.3503 26.6787 13.3525C27.2688 13.358 27.7127 13.9353 27.8317 14.5132C27.9506 15.0915 27.8416 15.6893 27.8467 16.2794C27.849 16.5548 27.9541 16.9093 28.2291 16.9173C28.3205 17.4847 27.7018 18.0501 27.9374 18.5742C28.0025 18.7191 28.1246 18.8294 28.2137 18.9608C28.4266 19.2759 28.4259 19.7208 28.2118 20.0349C27.9977 20.3491 27.5836 20.5125 27.2127 20.4292" stroke="var(--stroke-0, black)" stroke-width="0.284929" stroke-linecap="round" stroke-linejoin="round"/>
<path id="Vector_10" d="M14.3706 0.539763C15.196 0.0967697 16.2855 0.207678 17.0045 0.808059C17.135 0.917044 17.2561 1.04206 17.4087 1.11771C17.853 1.33888 18.4082 1.08213 18.8765 1.24656C19.2451 1.37606 19.4929 1.78476 19.4374 2.17134C19.4057 2.39155 19.2884 2.60856 19.3387 2.82525C19.4214 3.18105 19.8801 3.28587 20.2443 3.25542C20.6084 3.22529 21.0161 3.14323 21.3069 3.36441C21.6223 3.60417 21.6274 4.07954 21.5219 4.46163C21.4162 4.8434 21.229 5.21876 21.2633 5.61335C21.83 5.91049 22.6483 5.47199 23.1138 5.91146C23.4561 6.23489 23.3436 6.79424 23.2106 7.24589C23.0776 7.69753 22.9814 8.26522 23.3394 8.57102C23.7292 8.90406 24.3947 8.67423 24.7886 9.00215C25.2159 9.35796 25.0079 10.0343 24.8405 10.5645C24.6492 11.1719 24.561 11.8117 24.5819 12.4483C24.5873 12.6153 24.604 12.7932 24.7062 12.9256C24.8579 13.1228 25.146 13.1526 25.3912 13.1096C25.6361 13.0667 25.8737 12.9683 26.1224 12.9705C26.7125 12.9759 27.1565 13.5532 27.2754 14.1312C27.3943 14.7095 27.2853 15.3073 27.2905 15.8974C27.2927 16.1727 27.3979 16.5273 27.6729 16.5353C27.7642 17.1026 27.1456 17.6681 27.3812 18.1922C27.4463 18.3371 27.5684 18.4473 27.6575 18.5788C27.8703 18.8938 27.8697 19.3388 27.6556 19.6529C27.4414 19.967 27.0273 20.1305 26.6564 20.0472" stroke="var(--stroke-0, black)" stroke-width="0.284929" stroke-linecap="round" stroke-linejoin="round"/>
<path id="Vector_11" d="M8.10821 2.45052C7.77773 2.25531 7.33185 2.37904 7.0517 2.64156C6.77154 2.90409 6.62153 3.274 6.49363 3.63589C6.36573 3.99779 6.24681 4.37315 6.00897 4.67446C5.65508 5.12226 5.07233 5.36107 4.76878 5.84477C4.33796 6.53106 4.61556 7.44237 4.39342 8.22161C4.23347 8.78257 3.81932 9.25152 3.69944 9.82209C3.46288 10.9469 4.41842 12.155 3.94786 13.2038C3.77541 13.5888 3.43595 13.8712 3.20612 14.2248C2.89487 14.7034 2.79839 15.3162 2.94744 15.8676C3.01732 16.1259 3.13913 16.3779 3.12887 16.6452C3.12053 16.8686 3.0202 17.0773 2.9218 17.278C2.70863 17.7136 2.49547 18.1495 2.28231 18.5852C2.19256 18.7682 2.1012 18.9599 2.10184 19.1637C2.10312 19.5256 2.38649 19.816 2.65062 20.0638C2.74165 20.1494 2.83813 20.2379 2.9593 20.2693C3.10996 20.3084 3.2667 20.2513 3.41159 20.1953C3.94978 19.9872 4.48798 19.7789 5.02617 19.5708" stroke="var(--stroke-0, black)" stroke-width="0.284929" stroke-linecap="round" stroke-linejoin="round"/>
<path id="Vector_12" d="M8.8379 1.4763C8.50742 1.28109 8.06154 1.40482 7.78139 1.66735C7.50123 1.92987 7.35121 2.29978 7.22332 2.66168C7.09542 3.02357 6.9765 3.39893 6.73865 3.70024C6.38477 4.14804 5.80202 4.38685 5.49846 4.87055C5.06765 5.55684 5.34524 6.46815 5.12311 7.24739C4.96315 7.80835 4.54901 8.27731 4.42913 8.84788C4.19256 9.97267 5.14811 11.1808 4.67755 12.2296C4.5051 12.6146 4.16564 12.897 3.93581 13.2506C3.62456 13.7291 3.52807 14.342 3.67713 14.8934C3.74701 15.1517 3.86881 15.4037 3.85856 15.671C3.85022 15.8944 3.74989 16.1031 3.65148 16.3038C3.43832 16.7394 3.22516 17.1753 3.012 17.6109C2.92224 17.794 2.83089 17.9857 2.83153 18.1895C2.83281 18.5514 3.11617 18.8418 3.3803 19.0896C3.47134 19.1752 3.56782 19.2637 3.68899 19.2951C3.83964 19.3342 3.99639 19.2771 4.14128 19.221C4.67947 19.013 5.21767 18.8046 5.75586 18.5966" stroke="var(--stroke-0, black)" stroke-width="0.284929" stroke-linecap="round" stroke-linejoin="round"/>
<path id="Vector_13" d="M11.0327 3.24321C11.0327 3.24321 10.9208 3.39675 10.7378 3.66921" stroke="var(--stroke-0, black)" stroke-width="0.284929" stroke-linecap="round" stroke-linejoin="round"/>
<path id="Vector_14" d="M14.9965 12.5698C14.2881 13.0839 13.1774 13.8032 12.0222 14.2106" stroke="var(--stroke-0, black)" stroke-width="0.284929" stroke-linecap="round" stroke-linejoin="round"/>
<path id="Vector_15" d="M28.142 19.984C28.1276 19.8975 28.1077 19.7955 28.0846 19.6834C27.9625 19.0881 27.757 18.2101 27.8827 17.8338C28.067 17.2809 28.2282 16.5895 27.606 16.267C26.9839 15.9445 26.8688 15.691 26.8919 14.9765C26.9095 14.419 26.6329 13.8616 26.2694 13.293C26.1671 13.133 26.0581 12.9724 25.9469 12.8105C25.9142 12.7631 25.886 12.7176 25.8607 12.6734C25.4988 12.03 25.9001 11.7034 25.5552 11.0133C25.4802 10.8632 25.3824 10.745 25.2738 10.6453C24.8481 10.2548 24.2557 10.1539 24.2188 9.5849C24.216 9.54099 24.214 9.49547 24.2131 9.44899C24.1951 8.7393 24.3432 7.75908 23.781 7.32666C23.7178 7.27794 23.6569 7.2305 23.5989 7.18306C23.1139 6.79103 22.8017 6.43843 22.6152 5.85824C22.612 5.84863 22.6087 5.83901 22.6059 5.82907C22.3994 5.16362 22.3757 4.63537 21.6247 4.31226C21.6215 4.31097 21.6183 4.30937 21.6151 4.30809C21.3371 4.19013 21.1916 3.97408 21.0942 3.72886C20.9246 3.30318 20.8999 2.79095 20.5781 2.55695C20.4143 2.43771 20.2191 2.4079 20.0107 2.39988C19.5741 2.38322 19.0786 2.46399 18.6888 2.02709C18.5513 1.87323 18.4429 1.71808 18.3487 1.57063C18.0471 1.10007 17.8897 0.708368 17.3986 0.690738C17.1707 0.682725 16.8966 0.732088 16.6165 0.787863C16.1898 0.873449 15.7488 0.97442 15.4321 0.911914C15.3676 0.899092 15.3083 0.87986 15.2554 0.851972C14.7717 0.598421 14.8407 0.0916395 14.2188 0.275953C13.8015 0.399683 13.5187 0.543928 13.2806 0.681442C13.1636 0.748757 13.0575 0.814469 12.9514 0.875052C12.9514 0.875052 11.9734 -0.170566 11.3285 0.236526C10.6832 0.643298 9.98313 1.34337 9.7206 1.40171C9.64335 1.41902 9.51289 1.42094 9.35903 1.42415C8.99072 1.43184 8.48875 1.44658 8.26244 1.6934C7.94157 2.04344 7.73739 3.01469 7.3585 3.24356C6.9793 3.47243 5.92919 4.20167 5.78335 4.58087C5.6375 4.95976 5.78335 5.45564 5.57916 5.98069C5.37497 6.50575 4.73356 7.40968 4.55854 7.90557C4.38353 8.40145 5.02526 9.01401 4.85024 9.56791C4.67522 10.1221 4.15017 10.9972 4.121 11.4056C4.11523 11.4883 4.121 11.571 4.13382 11.6585C4.18287 12.0008 4.33064 12.4115 4.23768 13.1555C4.2162 13.3279 4.17261 13.4853 4.11555 13.6308C3.86392 14.2738 3.34656 14.6867 3.27508 15.1387C3.23982 15.3624 3.34208 15.6336 3.46356 15.9137C3.64307 16.3279 3.8636 16.7622 3.7418 17.0927C3.7418 17.0927 3.73378 17.0972 3.71904 17.1062C3.58665 17.1853 2.91639 17.603 2.83786 17.997C2.79426 18.2143 2.98403 18.5589 3.1536 18.9047C3.29303 19.1891 3.41901 19.474 3.3908 19.6888C5.17559 19.1759 7.7922 18.7336 9.63565 18.4069C9.79913 18.2534 9.96261 18.1207 10.1226 18.0172C10.3864 17.8463 10.6412 17.754 10.8742 17.7745C10.9252 17.7617 10.9637 17.788 10.9637 17.788C11.1701 17.4469 11.541 17.1193 11.9352 17.3841C12.0481 16.3397 12.0228 14.2116 12.0228 14.2116C10.8813 14.6149 9.69656 14.7133 8.8141 14.0084C7.60276 13.041 7.47679 11.4803 7.83612 9.8439C8.38297 7.35263 10.0556 4.68601 10.738 3.66988C10.746 3.69713 11.1361 5.00207 11.6381 5.25306C12.1449 5.50629 13.0206 5.41429 13.5043 5.75984C13.9883 6.10538 14.0573 7.05003 14.38 7.32666C14.7025 7.60329 16.0161 7.83376 16.1773 8.24823C16.3386 8.66301 16.0389 9.44643 16.4767 9.81537C16.9146 10.184 17.4214 9.93045 17.6518 10.5295C17.8823 11.1286 17.147 11.9467 17.6076 12.4535C18.0686 12.9602 18.4035 13.1295 18.3577 13.9046C18.3115 14.68 17.6284 15.5365 18.0432 16.251C18.1602 16.4526 18.2865 16.6609 18.4106 16.8741C18.4221 16.8936 18.4337 16.9135 18.4449 16.9337C18.5805 17.1677 18.7119 17.4068 18.8244 17.6482C18.9359 17.8873 19.0289 18.1284 19.0885 18.3688C19.1036 18.4287 19.1161 18.4884 19.1267 18.548C19.2648 19.3314 18.8962 20.2302 19.5184 20.5757C20.1406 20.9213 21.039 19.9997 21.5461 20.0228C21.5487 20.0228 21.5513 20.0231 21.5538 20.0235C22.0593 20.0497 22.6783 20.4376 23.2973 20.4376C23.9163 20.4376 25.0715 20.2533 25.3247 20.3684C25.5783 20.4838 26.4309 21.4284 27.0762 21.0829C27.7211 20.737 28.0897 20.4838 28.159 20.2533C28.1721 20.209 28.1635 20.1135 28.142 19.984ZM18.9039 17.788C18.9039 17.788 18.9401 17.7412 18.9805 17.7755C18.9545 17.7784 18.9292 17.7822 18.9039 17.788Z" fill="var(--fill-0, #3D0027)" stroke="var(--stroke-0, black)" stroke-width="0.284929" stroke-linecap="round" stroke-linejoin="round"/>
<path id="Vector_16" d="M28.142 19.984C28.1276 19.8975 28.1077 19.7955 28.0846 19.6834C27.9625 19.0881 27.757 18.2101 27.8827 17.8338C28.067 17.2809 28.2282 16.5895 27.606 16.267C26.9839 15.9445 26.8688 15.691 26.8919 14.9765C26.9095 14.419 26.6329 13.8616 26.2694 13.293C26.1671 13.133 26.0581 12.9724 25.9469 12.8105C25.9142 12.7631 25.886 12.7176 25.8607 12.6734C25.4988 12.03 25.9001 11.7034 25.5552 11.0133C25.4802 10.8632 25.3824 10.745 25.2738 10.6453C24.8481 10.2548 24.2557 10.1539 24.2188 9.5849C24.216 9.54099 24.214 9.49547 24.2131 9.44899C24.1951 8.7393 24.3432 7.75908 23.781 7.32666C23.7178 7.27794 23.6569 7.2305 23.5989 7.18306C23.1139 6.79103 22.8017 6.43843 22.6152 5.85824C22.612 5.84863 22.6087 5.83901 22.6059 5.82907C22.3994 5.16362 22.3757 4.63537 21.6247 4.31226C21.6215 4.31097 21.6183 4.30937 21.6151 4.30809C21.3371 4.19013 21.1916 3.97408 21.0942 3.72886C20.9246 3.30318 20.8999 2.79095 20.5781 2.55695C20.4143 2.43771 20.2191 2.4079 20.0107 2.39988C19.5741 2.38322 19.0786 2.46399 18.6888 2.02709C18.5513 1.87323 18.4429 1.71808 18.3487 1.57063C18.0471 1.10007 17.8897 0.708368 17.3986 0.690738C17.1707 0.682725 16.8966 0.732088 16.6165 0.787863C16.1898 0.873449 15.7488 0.97442 15.4321 0.911914C15.3676 0.899092 15.3083 0.87986 15.2554 0.851972C14.7717 0.598421 14.8407 0.0916395 14.2188 0.275953C13.8015 0.399683 13.5187 0.543928 13.2806 0.681442C13.1636 0.748757 13.0575 0.814469 12.9514 0.875052C12.9514 0.875052 11.9734 -0.170566 11.3285 0.236526C10.6832 0.643298 9.98313 1.34337 9.7206 1.40171C9.64335 1.41902 9.51289 1.42094 9.35903 1.42415C8.99072 1.43184 8.48875 1.44658 8.26244 1.6934C7.94157 2.04344 7.73739 3.01469 7.3585 3.24356C6.9793 3.47243 5.92919 4.20167 5.78335 4.58087C5.6375 4.95976 5.78335 5.45564 5.57916 5.98069C5.37497 6.50575 4.73356 7.40968 4.55854 7.90557C4.38353 8.40145 5.02526 9.01401 4.85024 9.56791C4.67522 10.1221 4.15017 10.9972 4.121 11.4056C4.11523 11.4883 4.121 11.571 4.13382 11.6585C4.18287 12.0008 4.33064 12.4115 4.23768 13.1555C4.2162 13.3279 4.17261 13.4853 4.11555 13.6308C3.86392 14.2738 3.34656 14.6867 3.27508 15.1387C3.23982 15.3624 3.34208 15.6336 3.46356 15.9137C3.64307 16.3279 3.8636 16.7622 3.7418 17.0927C3.7418 17.0927 3.73378 17.0972 3.71904 17.1062C3.58665 17.1853 2.91639 17.603 2.83786 17.997C2.79426 18.2143 2.98403 18.5589 3.1536 18.9047C3.29303 19.1891 3.41901 19.474 3.3908 19.6888C5.17559 19.1759 7.7922 18.7336 9.63565 18.4069C9.79913 18.2534 9.96261 18.1207 10.1226 18.0172C10.3864 17.8463 10.6412 17.754 10.8742 17.7745C10.9252 17.7617 10.9637 17.788 10.9637 17.788C11.1701 17.4469 11.541 17.1193 11.9352 17.3841C12.0481 16.3397 12.0228 14.2116 12.0228 14.2116C10.8813 14.6149 9.69656 14.7133 8.8141 14.0084C7.60276 13.041 7.47679 11.4803 7.83612 9.8439C8.38297 7.35263 10.0556 4.68601 10.738 3.66988C10.7422 3.68367 10.846 4.03146 11.0137 4.40169C11.174 4.75557 11.3926 5.13061 11.6381 5.25306C11.9282 5.39794 12.3391 5.42968 12.728 5.49539C13.0187 5.54411 13.2972 5.61207 13.5043 5.75984C13.7665 5.94703 13.9069 6.31021 14.0319 6.64775C14.1377 6.93303 14.2323 7.19973 14.38 7.32666C14.6551 7.56258 15.652 7.76517 16.0385 8.07674C16.1052 8.13059 16.1536 8.18732 16.1773 8.24823C16.2107 8.33381 16.2245 8.43511 16.2289 8.54537C16.2463 8.96881 16.1293 9.52272 16.4767 9.81537C16.9146 10.184 17.4214 9.93045 17.6518 10.5295C17.8823 11.1286 17.147 11.9467 17.6076 12.4535C18.0686 12.9602 18.4035 13.1295 18.3577 13.9046C18.3115 14.68 17.6284 15.5365 18.0432 16.251C18.1602 16.4526 18.2865 16.6609 18.4106 16.8741C18.4221 16.8936 18.4337 16.9135 18.4449 16.9337C18.5805 17.1677 18.7119 17.4068 18.8244 17.6482C18.9359 17.8873 19.0289 18.1284 19.0885 18.3688C19.1013 18.4204 19.1126 18.4717 19.1222 18.523C19.1238 18.5313 19.1251 18.5396 19.1267 18.548C19.2648 19.3314 18.8962 20.2302 19.5184 20.5757C20.1406 20.9213 21.039 19.9997 21.5461 20.0228C21.5487 20.0228 21.5513 20.0231 21.5538 20.0235C22.0593 20.0497 22.6783 20.4376 23.2973 20.4376C23.9163 20.4376 25.0715 20.2533 25.3247 20.3684C25.5783 20.4838 26.4309 21.4284 27.0762 21.0829C27.7211 20.737 28.0897 20.4838 28.159 20.2533C28.1721 20.209 28.1635 20.1135 28.142 19.984ZM18.9039 17.788C18.9039 17.788 18.9401 17.7412 18.9805 17.7755C18.9545 17.7784 18.9292 17.7822 18.9039 17.788Z" fill="var(--fill-0, #3D0027)" stroke="var(--stroke-0, black)" stroke-width="0.284929" stroke-linecap="round" stroke-linejoin="round"/>
<path id="Vector_17" d="M14.7208 32.5636C14.7208 32.5636 14.5394 32.9127 14.3047 33.3265C13.7604 33.1758 12.8491 32.9143 11.8013 32.6098C9.98251 29.9367 7.2271 25.5757 7.2271 25.2946C7.2271 24.8862 9.12601 24.2121 9.18723 23.9877C9.24846 23.763 7.04343 22.4767 7.10465 22.1501C7.14889 21.9135 8.40318 19.5629 9.63536 18.4074C9.81165 18.242 9.98763 18.1009 10.1594 17.9942C10.4098 17.8384 10.6518 17.7554 10.8739 17.7749C10.8037 17.7926 10.7095 17.8846 10.6585 18.2215C10.6223 18.458 10.6076 18.8154 10.6371 19.3527C10.6983 20.4691 12.1603 25.0135 13.3175 28.4632C14.0864 30.7551 14.7208 32.5636 14.7208 32.5636Z" fill="var(--fill-0, #F5D256)" stroke="var(--stroke-0, black)" stroke-width="0.284929" stroke-linecap="round" stroke-linejoin="round"/>
<path id="Vector_18" d="M10.9629 17.7877C10.8729 17.9364 10.8142 18.088 10.7985 18.1938C10.753 18.2028 10.7062 18.2117 10.6581 18.2207C10.7091 17.8838 10.8033 17.7918 10.8735 17.7742C10.9245 17.7614 10.9629 17.7877 10.9629 17.7877Z" stroke="var(--stroke-0, black)" stroke-width="0.284929" stroke-linecap="round" stroke-linejoin="round"/>
<path id="Vector_19" d="M18.9801 17.7754C18.9542 17.7783 18.9289 17.7822 18.9035 17.7879C18.9035 17.7879 18.9398 17.7411 18.9801 17.7754Z" stroke="var(--stroke-0, black)" stroke-width="0.284929" stroke-linecap="round" stroke-linejoin="round"/>
<path id="Vector_20" d="M11.8009 32.6081C10.9703 32.3671 10.0542 32.0994 9.1663 31.8391C6.9039 31.1759 4.82612 30.5614 4.82612 30.5614L0.142642 22.1109C0.142642 22.1109 0.0929578 21.5906 1.65401 20.4011C1.98097 20.152 2.60507 19.9129 3.39008 19.6876C4.87869 19.26 6.94589 18.8811 8.66048 18.5775C9.00186 18.5173 9.32914 18.4599 9.63494 18.4057C8.40276 19.5613 7.14847 21.9118 7.10424 22.1484C7.04301 22.475 9.24804 23.7614 9.18682 23.9861C9.12559 24.2105 7.22669 24.8846 7.22669 25.2929C7.22669 25.5741 9.98209 29.9351 11.8009 32.6081Z" fill="var(--fill-0, #F5D256)" stroke="var(--stroke-0, black)" stroke-width="0.284929" stroke-linecap="round" stroke-linejoin="round"/>
<path id="Vector_21" d="M14.305 33.3258C14.6281 33.4153 14.822 33.4653 14.8387 33.4621C14.8557 33.4589 15.0877 33.3524 15.4759 33.1713" stroke="var(--stroke-0, black)" stroke-width="0.284929" stroke-linecap="round" stroke-linejoin="round"/>
<path id="Vector_22" d="M3.71904 17.1057C3.79661 17.4173 3.84982 17.7337 3.8011 18.0481C3.74372 18.4196 3.49786 18.7876 3.1536 18.9043C2.98403 18.5584 2.79426 18.2138 2.83786 17.9965C2.91639 17.6026 3.58665 17.1849 3.71904 17.1057Z" fill="var(--fill-0, #6D1151)"/>
<path id="Vector_23" d="M4.11499 13.6307C4.12076 13.8218 4.10729 14.0109 4.05697 14.1952C3.93548 14.6398 3.6082 15.0087 3.50114 15.4572C3.46524 15.6075 3.4553 15.7604 3.463 15.9136C3.34151 15.6335 3.23926 15.3623 3.27452 15.1386C3.346 14.6866 3.86336 14.2737 4.11499 13.6307Z" fill="var(--fill-0, #6D1151)"/>
<path id="Vector_24" d="M9.35768 1.42446C8.80538 2.0383 8.2393 2.64574 7.57064 3.12848C7.18631 3.40575 6.75774 3.65257 6.50419 4.05261C6.13652 4.63312 6.22339 5.39441 5.96055 6.02941C5.68456 6.69646 5.03 7.2135 4.97455 7.93313C4.92326 8.59537 5.40953 9.22685 5.29926 9.88172C5.18002 10.5879 4.42994 11.012 4.13248 11.6588C4.11998 11.5713 4.11389 11.4886 4.11966 11.4059C4.14882 10.9975 4.67388 10.1224 4.84889 9.56823C5.02391 9.01433 4.38218 8.40176 4.5572 7.90588C4.73222 7.41 5.37363 6.50606 5.57781 5.98101C5.782 5.45596 5.63615 4.96007 5.782 4.58119C5.92785 4.20198 6.97795 3.47274 7.35716 3.24387C7.73604 3.015 7.94023 2.04375 8.2611 1.69372C8.4874 1.4469 8.98937 1.43215 9.35768 1.42446Z" fill="var(--fill-0, #6D1151)"/>
<path id="Vector_25" d="M13.317 28.4632C13.2464 28.56 13.1256 28.6254 13.0118 28.593C12.9134 28.5651 12.8477 28.4747 12.7903 28.3901C11.1328 25.9363 10.1442 23.0357 9.95862 20.0806C9.9147 19.4389 9.91406 18.7722 10.1064 18.1522C10.1227 18.0993 10.1404 18.0468 10.159 17.9942C10.4093 17.8384 10.6513 17.7554 10.8735 17.7749C10.8033 17.7926 10.709 17.8846 10.658 18.2215C10.6218 18.458 10.6071 18.8154 10.6366 19.3527C10.6978 20.4691 12.1598 25.0135 13.317 28.4632Z" fill="var(--fill-0, #FFE8A9)"/>
<path id="Vector_26" d="M12.8029 23.424C12.5414 23.464 10.7469 18.543 10.7982 18.1943C10.8139 18.0885 10.8726 17.9369 10.9627 17.7881C11.1604 17.4615 11.5092 17.147 11.8849 17.3541C11.9012 17.3631 11.9179 17.373 11.9342 17.3842C11.9955 17.4256 13.6607 19.9944 14.0963 20.6666C14.1341 20.7253 14.163 20.7695 14.1803 20.7964C14.5454 21.3596 13.0648 23.3836 12.8029 23.424Z" fill="var(--fill-0, #49A2A6)" stroke="var(--stroke-0, black)" stroke-width="0.284929" stroke-linecap="round" stroke-linejoin="round"/>
<path id="Vector_27" d="M19.09 18.6823C18.7211 19.7821 16.0952 23.5437 15.6246 23.5123C15.3598 23.4947 15.014 22.7452 14.7514 22.0567C14.5255 21.4653 14.3607 20.9188 14.3607 20.9188C14.2908 20.6957 15.1053 20.3559 16.2234 19.3234C16.6164 18.9602 16.9664 18.6 17.2652 18.2724C17.9883 17.4787 18.4101 16.8745 18.4101 16.8745C18.4217 16.894 18.4332 16.9139 18.4444 16.9341C18.7284 17.437 18.9951 18.1704 19.0897 18.4419C19.091 18.5147 19.091 18.5942 19.09 18.6823Z" fill="var(--fill-0, #49A2A6)" stroke="var(--stroke-0, black)" stroke-width="0.284929" stroke-linecap="round" stroke-linejoin="round"/>
<path id="Vector_28" d="M19.0897 18.6817C19.0906 18.5936 19.0906 18.5141 19.0893 18.4416C19.1131 18.509 19.1259 18.5477 19.1259 18.5477C19.1188 18.5862 19.1066 18.6311 19.0897 18.6817Z" stroke="var(--stroke-0, black)" stroke-width="0.284929" stroke-linecap="round" stroke-linejoin="round"/>
<path id="Vector_29" d="M10.963 17.7877C10.9335 17.7813 10.9037 17.7768 10.8736 17.7742C10.9246 17.7614 10.963 17.7877 10.963 17.7877Z" stroke="var(--stroke-0, black)" stroke-width="0.284929" stroke-linecap="round" stroke-linejoin="round"/>
<path id="Vector_30" d="M18.9801 17.7754C18.9542 17.7783 18.9289 17.7822 18.9035 17.7879C18.9035 17.7879 18.9398 17.7411 18.9801 17.7754Z" stroke="var(--stroke-0, black)" stroke-width="0.284929" stroke-linecap="round" stroke-linejoin="round"/>
<path id="Vector_31" d="M19.0897 18.6822C19.0907 18.594 19.0907 18.5145 19.0894 18.4421C19.0894 18.4164 19.0884 18.3924 19.0878 18.369C19.1028 18.4289 19.1153 18.4886 19.1259 18.5482C19.1189 18.5866 19.1067 18.6315 19.0897 18.6822Z" stroke="var(--stroke-0, black)" stroke-width="0.284929" stroke-linecap="round" stroke-linejoin="round"/>
<path id="Vector_32" d="M10.3609 8.0854C10.3609 8.0854 9.54258 9.66857 9.8253 9.89167C10.108 10.1148 10.8222 9.31148 10.8222 9.31148" stroke="var(--stroke-0, black)" stroke-width="0.284929" stroke-linecap="round" stroke-linejoin="round"/>
<g id="Group">
<path id="Vector_33" d="M11.9233 11.9024C11.2893 12.2986 10.6245 11.6174 10.6245 11.6174C10.6245 11.6174 11.1762 11.6203 11.6858 11.2869C12.1955 10.9535 12.3618 10.5875 12.3618 10.5875C12.3618 10.5875 12.5571 11.5065 11.9233 11.9024Z" fill="var(--fill-0, #E938B5)" stroke="var(--stroke-0, black)" stroke-width="0.284929" stroke-linecap="round" stroke-linejoin="round"/>
<path id="Vector_34" d="M12.3618 10.5877C12.3618 10.5877 12.1955 10.9537 11.6858 11.2871C11.1762 11.6205 10.6245 11.6176 10.6245 11.6176C10.6245 11.6176 10.9188 10.9159 11.0883 10.9499C11.2582 10.9839 11.3486 11.0832 11.4166 10.9486C11.4845 10.8143 11.4053 10.6784 11.5749 10.5877C11.7448 10.4973 12.3618 10.5877 12.3618 10.5877Z" fill="var(--fill-0, #E938B5)" stroke="var(--stroke-0, black)" stroke-width="0.284929" stroke-linecap="round" stroke-linejoin="round"/>
<path id="Vector_35" d="M12.5296 10.1022L12.362 10.5885" stroke="var(--stroke-0, black)" stroke-width="0.284929" stroke-linecap="round" stroke-linejoin="round"/>
<path id="Vector_36" d="M12.2042 10.0161C12.2927 9.98759 12.3911 10.0055 12.475 10.0459C12.559 10.0863 12.6308 10.1475 12.701 10.2084C12.7421 10.244 12.7857 10.2847 12.794 10.3383" stroke="var(--stroke-0, black)" stroke-width="0.284929" stroke-linecap="round" stroke-linejoin="round"/>
</g>
<path id="Vector_37" d="M29.3165 20.5141C28.8005 21.2059 28.0642 21.7354 27.2432 22.0088C26.3454 22.3079 25.3578 22.3053 24.4494 22.038C24.2343 21.9748 24.0237 21.897 23.8198 21.8046C23.3105 21.5742 22.813 21.2514 22.2703 21.1728C22.1818 21.16 22.0921 21.1536 22.0011 21.1552C21.401 21.1658 20.8679 21.521 20.3817 21.8729C20.1204 22.062 19.8153 22.263 19.5072 22.2518C19.4511 22.2496 19.3953 22.2406 19.3392 22.2229C19.0482 22.1319 18.8709 21.8428 18.7369 21.5687C18.701 21.4953 18.6664 21.4209 18.6331 21.3456C18.8831 20.4016 19.0469 19.6672 19.0668 19.3021C19.0799 19.0601 19.0873 18.8553 19.0895 18.6822C19.1065 18.6312 19.1187 18.5864 19.1258 18.5479C19.2639 19.3313 18.8953 20.2301 19.5175 20.5757C19.9316 20.8055 20.4679 20.4744 20.9298 20.234C21.1622 20.1131 21.3757 20.015 21.5452 20.0227C21.5478 20.0227 21.5504 20.023 21.5529 20.0234C22.0584 20.0497 22.6774 20.4375 23.2964 20.4375C23.3922 20.4375 23.5009 20.433 23.6169 20.426C24.2526 20.3878 25.1097 20.2708 25.3238 20.3683C25.5774 20.4837 26.43 21.4283 27.0753 21.0828C27.7202 20.7369 28.0888 20.4837 28.1581 20.2532C28.1712 20.209 28.1626 20.1134 28.1411 19.9839C28.4764 20.0698 28.6767 20.1227 28.6905 20.1298C28.7283 20.1487 28.9989 20.3093 29.3165 20.5141Z" fill="var(--fill-0, #E0B836)"/>
<path id="Vector_38" d="M24.4947 22.7313C24.4347 22.8685 24.2998 22.9554 24.1722 23.0342C23.5811 23.3981 22.9904 23.7622 22.3996 24.126C22.8404 24.418 23.5186 24.4001 23.7606 24.8703C23.8796 25.1011 23.8443 25.3787 23.792 25.6332C23.435 27.3651 22.4554 28.863 21.4498 30.3398C20.5305 30.7786 19.5894 31.2267 18.7159 31.6415C20.4744 28.9983 22.6394 25.5435 22.6394 25.2944C22.6394 24.886 20.7405 24.2119 20.6792 23.9875C20.6177 23.7628 22.823 22.4765 22.7618 22.1499C22.7452 22.0617 22.5602 21.6787 22.2701 21.1732C22.073 20.8286 21.8268 20.4276 21.5527 20.0237C22.0582 20.05 22.6772 20.4378 23.2962 20.4378C23.392 20.4378 23.5007 20.4333 23.6167 20.4263C23.9744 20.9276 24.2953 21.4565 24.4492 22.0383C24.4783 22.1489 24.5014 22.2611 24.5178 22.3755C24.5348 22.4948 24.5428 22.6207 24.4947 22.7313Z" fill="var(--fill-0, #E0B836)"/>
<path id="Vector_39" d="M22.639 25.2948C22.639 25.4909 21.2952 27.6767 19.8653 29.8879C19.6476 29.9484 19.4181 29.9593 19.205 29.8895C19.3691 29.1936 19.7768 28.58 20.2269 28.0245C20.6769 27.469 21.1779 26.9526 21.5764 26.359C21.7078 26.1634 21.8322 25.9294 21.7677 25.7031C21.6857 25.415 21.3526 25.2954 21.0693 25.1983C20.7856 25.1015 20.4615 24.921 20.4577 24.6216C20.4548 24.3988 20.6388 24.229 20.85 24.137C21.3289 24.4331 22.639 24.9556 22.639 25.2948Z" fill="var(--fill-0, #FFE8A9)"/>
<path id="Vector_40" d="M11.8011 32.6081C10.9705 32.3671 10.0544 32.0994 9.16652 31.8391C8.76648 31.2695 8.38631 30.6852 8.00711 30.1018C7.50353 29.3276 7.00028 28.5535 6.4967 27.7794C6.31078 27.4938 6.12262 27.2028 6.02358 26.8764C5.86491 26.3546 5.95209 25.7782 6.18609 25.2856C6.42009 24.7929 6.79224 24.3768 7.20414 24.0194C7.2737 23.9595 7.34871 23.8934 7.36634 23.8034C7.40256 23.6197 7.19421 23.4931 7.02592 23.4104C6.39509 23.1004 5.86779 22.584 5.545 21.9599C5.48634 21.8464 5.43313 21.7224 5.44595 21.5955C5.46134 21.4445 5.56648 21.3198 5.66873 21.2073C6.15243 20.6742 6.67556 20.1774 7.23203 19.7209C7.70387 19.334 8.18821 18.9641 8.6607 18.5775C9.00208 18.5173 9.32935 18.4599 9.63515 18.4057C8.40298 19.5613 7.14869 21.9118 7.10445 22.1484C7.04323 22.475 9.24826 23.7614 9.18703 23.9861C9.12581 24.2105 7.2269 24.8846 7.2269 25.2929C7.2269 25.5741 9.9823 29.9351 11.8011 32.6081Z" fill="var(--fill-0, #E0B836)"/>
<path id="Vector_41" d="M14.0966 20.6665C14.0719 20.8717 14.0325 21.0756 13.9568 21.2672C13.9197 21.3612 13.8709 21.4554 13.7895 21.5153C13.602 21.6535 13.3196 21.5464 13.1798 21.3602C13.0401 21.1736 12.9997 20.9342 12.9388 20.7095C12.7901 20.1588 12.5016 19.6584 12.2544 19.1443C12.0333 18.6843 11.7114 18.0192 11.8332 17.4925C11.8451 17.4415 11.8624 17.3954 11.8852 17.354C11.9015 17.363 11.9182 17.3729 11.9345 17.3842C11.9957 17.4255 13.661 19.9944 14.0966 20.6665Z" fill="var(--fill-0, #63BABA)"/>
<path id="Vector_42" d="M30.4498 21.443C30.4251 21.6907 26.9308 27.6134 26.7077 27.7869C26.5699 27.8942 22.1262 30.022 18.7159 31.6411C20.4744 28.9979 22.6394 25.543 22.6394 25.294C22.6394 24.8856 20.7405 24.2115 20.6792 23.9871C20.6177 23.7624 22.823 22.4761 22.7618 22.1494C22.7339 22.001 22.2294 21.0195 21.5527 20.0233C22.0582 20.0495 22.6772 20.4374 23.2962 20.4374C23.9151 20.4374 25.0704 20.2531 25.3236 20.3682C25.5772 20.4836 26.4298 21.4282 27.0751 21.0827C27.72 20.7368 28.0886 20.4836 28.1579 20.2531C28.171 20.2089 28.1624 20.1133 28.1409 19.9838C28.4762 20.0697 28.6765 20.1226 28.6903 20.1297C28.7893 20.179 30.4745 21.1952 30.4498 21.443Z" stroke="var(--stroke-0, black)" stroke-width="0.284929" stroke-linecap="round" stroke-linejoin="round"/>
<path id="Vector_43" d="M22.6393 25.2933C22.6393 25.5424 20.4743 28.9972 18.7158 31.6404C17.3606 32.2838 16.1684 32.8466 15.4748 33.1707C15.2837 32.828 15.1456 32.5623 15.1456 32.5623C15.1456 32.5623 18.9646 21.1596 19.0665 19.3014C19.0796 19.0593 19.087 18.8545 19.0893 18.6814C19.1062 18.6305 19.1184 18.5856 19.1255 18.5471C19.2636 19.3305 18.895 20.2293 19.5172 20.5749C20.1394 20.9204 21.0378 19.9989 21.5449 20.0219C21.5475 20.0219 21.5501 20.0223 21.5526 20.0226C22.2293 21.0188 22.7339 22.0003 22.7617 22.1488C22.823 22.4754 20.6176 23.7617 20.6792 23.9864C20.7404 24.2108 22.6393 24.8849 22.6393 25.2933Z" stroke="var(--stroke-0, black)" stroke-width="0.284929" stroke-linecap="round" stroke-linejoin="round"/>
<path id="Vector_44" d="M14.7208 32.5636C14.7208 32.5636 14.5394 32.9127 14.3047 33.3265C13.7604 33.1759 12.8491 32.9143 11.8013 32.6098C9.98251 29.9367 7.2271 25.5757 7.2271 25.2946C7.2271 24.8862 9.12601 24.2121 9.18723 23.9878C9.24846 23.763 7.04343 22.4767 7.10465 22.1501C7.14889 21.9135 8.40318 19.5629 9.63536 18.4074C10.0687 18.0006 10.4995 17.7419 10.8739 17.7749C10.8037 17.7926 10.7095 17.8846 10.6585 18.2215C10.6223 18.458 10.6076 18.8154 10.6371 19.3527C10.739 21.2109 14.7208 32.5636 14.7208 32.5636Z" stroke="var(--stroke-0, black)" stroke-width="0.284929" stroke-linecap="round" stroke-linejoin="round"/>
<path id="Vector_45" d="M11.8009 32.6081C8.85409 31.7526 4.82612 30.5614 4.82612 30.5614L0.142642 22.1109C0.142642 22.1109 0.0929578 21.5906 1.65401 20.4011C1.98097 20.152 2.60507 19.9129 3.39008 19.6876C5.17488 19.1747 7.79149 18.7323 9.63494 18.4057C8.40276 19.5613 7.14847 21.9118 7.10424 22.1484C7.04301 22.475 9.24804 23.7614 9.18682 23.9861C9.12559 24.2105 7.22669 24.8846 7.22669 25.2929C7.22669 25.5741 9.98209 29.9351 11.8009 32.6081Z" stroke="var(--stroke-0, black)" stroke-width="0.284929" stroke-linecap="round" stroke-linejoin="round"/>
<path id="Vector_46" d="M17.3963 18.546C17.3543 18.9765 17.3014 19.4339 17.0296 19.7705C16.7308 20.1398 16.2317 20.2824 15.8782 20.5997C15.4297 21.003 15.272 21.6261 15.0512 22.1874C15.0409 22.2134 15.0287 22.2412 15.0037 22.2541C14.9604 22.2759 14.9114 22.239 14.8781 22.2041C14.8351 22.1589 14.7928 22.1098 14.7514 22.0573C14.5255 21.4658 14.3607 20.9193 14.3607 20.9193C14.2908 20.6962 15.1053 20.3564 16.2234 19.324C16.6164 18.9608 16.9664 18.6005 17.2652 18.2729C17.3136 18.295 17.3575 18.3258 17.3806 18.3723C17.4072 18.4252 17.402 18.4873 17.3963 18.546Z" fill="var(--fill-0, #63BABA)"/>
<path id="Vector_47" d="M15.2548 0.852464C15.3077 0.880351 15.367 0.899584 15.4315 0.912405C15.409 0.918816 15.3869 0.925868 15.3648 0.9326C14.7455 1.12525 13.6534 1.449 13.28 0.681933C13.5181 0.54442 13.8008 0.400174 14.2182 0.276444C14.8401 0.0921307 14.7711 0.598912 15.2548 0.852464Z" fill="var(--fill-0, #6D1151)"/>
<path id="Vector_48" d="M18.3481 1.57084C18.01 1.50994 17.6827 1.42371 17.3987 1.23811C17.232 1.12913 17.0861 0.98905 16.9105 0.895451C16.8159 0.845126 16.7172 0.810507 16.6159 0.788068C16.8961 0.732294 17.1701 0.68293 17.398 0.690943C17.8891 0.708573 18.0465 1.10028 18.3481 1.57084Z" fill="var(--fill-0, #6D1151)"/>
<path id="Vector_49" d="M21.0931 3.72844C20.8472 3.6201 20.5677 3.53483 20.3715 3.36238C20.1045 3.12742 20.0273 2.76584 20.0097 2.39946C20.218 2.40747 20.4132 2.43729 20.577 2.55653C20.8988 2.79053 20.9235 3.30276 21.0931 3.72844Z" fill="var(--fill-0, #6D1151)"/>
<path id="Vector_50" d="M22.6049 5.82878C22.6078 5.83872 22.611 5.84833 22.6142 5.85795C22.5629 5.82718 22.5123 5.79608 22.4623 5.76403C22.0609 5.50631 21.676 5.13416 21.6346 4.65911C21.6247 4.54403 21.6356 4.42607 21.6237 4.31196C22.3748 4.63507 22.3985 5.16333 22.6049 5.82878Z" fill="var(--fill-0, #6D1151)"/>
<path id="Vector_51" d="M24.2119 9.44977C23.4461 9.043 23.1086 7.92013 23.5977 7.18384C23.6557 7.23128 23.7166 7.27872 23.7798 7.32744C24.342 7.75985 24.1939 8.74008 24.2119 9.44977Z" fill="var(--fill-0, #6D1151)"/>
<path id="Vector_52" d="M25.8601 12.6729C25.58 12.5607 25.2319 12.4889 25.0418 12.2651C24.7559 11.9289 24.9459 11.4199 25.1322 11.0198C25.1863 10.9035 25.237 10.7752 25.2732 10.6448C25.3819 10.7445 25.4796 10.8627 25.5546 11.0128C25.8996 11.7029 25.4982 12.0295 25.8601 12.6729Z" fill="var(--fill-0, #6D1151)"/>
<path id="Vector_53" d="M28.0839 19.6836C27.9333 19.5849 27.8025 19.4522 27.7063 19.3012C27.471 18.9329 27.412 18.4771 27.4329 18.0405C27.4528 17.617 27.5412 17.184 27.4287 16.7753C27.2636 16.1768 26.7129 15.7739 26.3972 15.2396C26.0933 14.7257 26.0202 14.0814 26.201 13.5125C26.2241 13.44 26.2514 13.3669 26.2687 13.2932C26.6322 13.8619 26.9088 14.4193 26.8912 14.9767C26.8681 15.6912 26.9832 15.9448 27.6053 16.2672C28.2275 16.5897 28.0663 17.2811 27.882 17.8341C27.7563 18.2104 27.9618 19.0883 28.0839 19.6836Z" fill="var(--fill-0, #6D1151)"/>
<path id="Vector_54" d="M12.8029 23.424C12.5414 23.4641 10.7469 18.5431 10.7982 18.1944C10.8139 18.0886 10.8726 17.937 10.9627 17.7882C11.1691 17.4472 11.54 17.1196 11.9342 17.3843C12.0009 17.4292 13.9643 20.4632 14.1803 20.7965C14.5454 21.3597 13.0648 23.3837 12.8029 23.424Z" stroke="var(--stroke-0, black)" stroke-width="0.284929" stroke-linecap="round" stroke-linejoin="round"/>
<path id="Vector_55" d="M19.09 18.6823C18.7211 19.7821 16.0952 23.5437 15.6246 23.5123C15.1323 23.4793 14.3607 20.9188 14.3607 20.9188C14.2908 20.6957 15.1053 20.3559 16.2234 19.3234C17.5681 18.0807 18.4101 16.8745 18.4101 16.8745C18.4217 16.894 18.4332 16.9139 18.4444 16.9341C18.7284 17.437 18.9951 18.1704 19.0897 18.4419C19.091 18.5147 19.091 18.5942 19.09 18.6823Z" stroke="var(--stroke-0, black)" stroke-width="0.284929" stroke-linecap="round" stroke-linejoin="round"/>
<path id="Vector_56" d="M10.8222 3.72903C10.5997 3.96142 10.7096 4.61085 10.7741 4.92594C10.8065 5.08397 10.8427 5.24969 10.9478 5.37214C11.0687 5.51318 11.2578 5.57184 11.4379 5.6164C11.8476 5.71769 12.2669 5.78116 12.6884 5.8052C12.8179 5.81257 12.9506 5.81706 13.0701 5.86674C13.317 5.96964 13.4484 6.23761 13.5308 6.4918C13.6131 6.746 13.6744 7.02102 13.8558 7.2172C14.2581 7.65218 15.0678 7.51723 15.4191 7.9942C15.6105 8.25416 15.5935 8.60644 15.5845 8.92923C15.5755 9.25202 15.6005 9.6152 15.8413 9.83028C16.0698 10.0348 16.4096 10.0322 16.716 10.03C17.0225 10.0277 17.3696 10.0553 17.5645 10.2919C17.7565 10.5246 17.7222 10.8666 17.6443 11.158C17.5664 11.4494 17.4536 11.7503 17.5228 12.044C17.5369 12.1039 17.5934 12.176 17.645 12.1424" stroke="var(--stroke-0, black)" stroke-width="0.284929" stroke-linecap="round" stroke-linejoin="round"/>
<path id="Vector_57" d="M10.733 3.83227C10.2981 4.28969 10.1795 5.02021 10.4471 5.59207C10.7151 6.16392 11.352 6.54024 11.9819 6.49889C12.3387 6.47549 12.7454 6.34503 13.0208 6.57325C13.233 6.74923 13.2586 7.06048 13.384 7.30602C13.55 7.63137 13.8962 7.83492 14.2523 7.91602C14.6084 7.99711 14.9793 7.97339 15.3438 7.94903" stroke="var(--stroke-0, black)" stroke-width="0.284929" stroke-linecap="round" stroke-linejoin="round"/>
<path id="Vector_58" d="M11.9349 17.3834C11.5406 17.1186 11.1698 17.4462 10.9633 17.7873C10.9633 17.7873 10.9249 17.761 10.8739 17.7738C10.6409 17.7533 10.386 17.8456 10.1222 18.0165C10.1123 17.895 10.1062 17.7732 10.102 17.6523C10.0908 17.3331 10.0892 17.0074 9.9879 16.7042C9.88661 16.4012 9.66351 16.1185 9.35386 16.039C9.04935 15.9608 8.73393 16.0897 8.42012 16.1108C7.72261 16.1573 7.07671 15.6406 6.79399 15.0014C6.51127 14.3623 6.52986 13.6295 6.64366 12.9397C6.8222 11.854 7.23346 10.8491 7.79698 9.9086C7.8098 9.88713 7.82294 9.86533 7.83576 9.84321C7.47643 11.4796 7.60241 13.0403 8.81375 14.0077C9.69621 14.7126 10.8809 14.6142 12.0224 14.211C12.0224 14.211 12.0477 16.3391 11.9349 17.3834Z" fill="var(--fill-0, #210017)"/>
<path id="Vector_59" d="M12.277 4.58532C12.5126 4.83149 12.6107 5.16903 12.7271 5.49534C12.3382 5.42963 11.9273 5.3979 11.6372 5.25301C11.3917 5.13056 11.173 4.75552 11.0128 4.40164C11.4144 4.19553 11.9597 4.25323 12.277 4.58532Z" fill="var(--fill-0, #6D1151)"/>
<path id="Vector_60" d="M16.0381 8.07689C15.6516 7.76532 14.6547 7.56273 14.3796 7.32681C14.2319 7.19988 14.1373 6.93318 14.0315 6.6479C14.2405 6.70656 14.4534 6.75945 14.6524 6.83413C15.2474 7.05691 15.7436 7.51529 16.0381 8.07689Z" fill="var(--fill-0, #6D1151)"/>
<path id="Vector_61" d="M19.121 18.5232C19.1114 18.4719 19.1002 18.4206 19.0874 18.369C19.0277 18.1286 18.9348 17.8875 18.8232 17.6484C18.7107 17.407 18.5793 17.1679 18.4437 16.9339C18.4325 16.9137 18.4209 16.8938 18.4094 16.8743C18.2853 16.6611 18.1591 16.4528 18.0421 16.2511C17.6273 15.5366 18.3104 14.6801 18.3565 13.9047C18.4023 13.1297 18.0674 12.9604 17.6064 12.4536C17.1458 11.9469 17.8811 11.1288 17.6507 10.5297C17.4202 9.93063 16.9134 10.1842 16.4755 9.81555C16.1281 9.5229 16.2451 8.96899 16.2278 8.54555C16.2669 8.67762 16.2951 8.81289 16.3114 8.95008C16.3236 9.0533 16.3303 9.16004 16.3778 9.25236C16.5134 9.51648 16.8756 9.52482 17.165 9.59053C17.8975 9.75753 18.4017 10.5929 18.2087 11.3186C18.1177 11.6606 17.8975 11.9722 17.8927 12.3261C17.8917 12.4014 17.902 12.4799 17.9424 12.5434C18.0199 12.6642 18.1783 12.6957 18.312 12.7489C18.8726 12.972 19.0774 13.6829 18.9998 14.2814C18.9219 14.8798 18.6428 15.4353 18.5376 16.0296C18.5126 16.1707 18.4979 16.3168 18.5293 16.4566C18.5745 16.6566 18.7081 16.8223 18.8123 16.9986C19.0838 17.4589 19.1502 17.9846 19.121 18.5232Z" fill="var(--fill-0, #6D1151)"/>
<path id="Vector_62" d="M28.142 19.984C28.0516 19.4362 27.7333 18.281 27.8826 17.8338C28.067 17.2809 28.2282 16.5895 27.606 16.267C26.9838 15.9445 26.8688 15.691 26.8918 14.9765C26.9146 14.2623 26.454 13.5481 25.9469 12.8105C25.4401 12.0733 25.9238 11.7508 25.5552 11.0133C25.1865 10.276 24.265 10.2991 24.2188 9.5849C24.1727 8.87041 24.38 7.7876 23.7809 7.32666C23.1819 6.86572 22.8132 6.49709 22.6058 5.82907C22.3984 5.16074 22.3754 4.63088 21.615 4.30809C20.8547 3.98562 21.0852 2.92558 20.5781 2.55695C20.0713 2.18832 19.2648 2.67235 18.6888 2.02709C18.1128 1.38183 18.0435 0.713817 17.3986 0.690738C16.7533 0.667659 15.7394 1.10552 15.2554 0.851972C14.7717 0.598421 14.8406 0.0916395 14.2188 0.275953C13.5966 0.460266 13.2738 0.690738 12.9513 0.875052C12.9513 0.875052 11.9734 -0.170566 11.3284 0.236526C10.6832 0.643298 9.98309 1.34337 9.72056 1.40171C9.45836 1.46005 8.58327 1.34337 8.2624 1.6934C7.94154 2.04344 7.73735 3.01469 7.35847 3.24356C6.97926 3.47243 5.92916 4.20167 5.78331 4.58087C5.63746 4.95976 5.78331 5.45564 5.57912 5.98069C5.37494 6.50575 4.73353 7.40968 4.55851 7.90557C4.38349 8.40145 5.02522 9.01401 4.8502 9.56791C4.67519 10.1221 4.15013 10.9972 4.12096 11.4056C4.09179 11.8137 4.35432 12.222 4.23764 13.1555C4.12096 14.0886 3.36255 14.5844 3.27505 15.1387C3.18754 15.6929 3.94595 16.5385 3.74176 17.0927C3.74176 17.0927 2.92501 17.5594 2.83782 17.997C2.75865 18.3928 3.45359 19.2128 3.39076 19.6888C5.17556 19.1759 7.79216 18.7336 9.63562 18.4069C10.069 18.0002 10.4998 17.7415 10.8742 17.7745C10.9252 17.7617 10.9636 17.788 10.9636 17.788C11.1701 17.4469 11.5409 17.1193 11.9352 17.3841C12.048 16.3397 12.0227 14.2116 12.0227 14.2116C10.8813 14.6149 9.69652 14.7133 8.81406 14.0084C5.75895 11.5684 9.60709 5.35339 10.738 3.66988C10.746 3.69713 11.1361 5.00207 11.6381 5.25306C12.1448 5.50629 13.0206 5.41429 13.5043 5.75984C13.9883 6.10538 14.0572 7.05003 14.38 7.32666C14.7025 7.60329 16.0161 7.83376 16.1773 8.24823C16.3385 8.66301 16.0388 9.44643 16.4767 9.81537C16.9146 10.184 17.4213 9.93045 17.6518 10.5295C17.8823 11.1286 17.1469 11.9467 17.6076 12.4535C18.0685 12.9602 18.4035 13.1295 18.3576 13.9046C18.3115 14.68 17.6284 15.5365 18.0432 16.251C18.1602 16.4526 18.2865 16.6609 18.4105 16.8741C18.4221 16.8936 18.4336 16.9135 18.4448 16.9337C18.5804 17.1677 18.7119 17.4068 18.8244 17.6482C18.9359 17.8873 19.0289 18.1284 19.0885 18.3688C19.1036 18.4287 19.1161 18.4884 19.1266 18.548C19.2648 19.3314 18.8962 20.2302 19.5183 20.5757C20.1405 20.9213 21.039 19.9997 21.5461 20.0228C21.5487 20.0228 21.5512 20.0231 21.5538 20.0235C22.0593 20.0497 22.6783 20.4376 23.2972 20.4376C23.9162 20.4376 25.0715 20.2533 25.3247 20.3684C25.5782 20.4838 26.4309 21.4284 27.0762 21.0829C27.7211 20.737 28.0897 20.4838 28.159 20.2533C28.1721 20.209 28.1634 20.1135 28.142 19.984ZM18.9039 17.788C18.9039 17.788 18.9401 17.7412 18.9805 17.7755C18.9545 17.7784 18.9292 17.7822 18.9039 17.788Z" stroke="var(--stroke-0, black)" stroke-width="0.284929" stroke-linecap="round" stroke-linejoin="round"/>
<g id="Group_2">
<path id="Vector_63" d="M10.8847 7.08382H13.8385V7.64157C13.8385 8.44133 13.1894 9.09043 12.3896 9.09043H12.3338C11.5341 9.09043 10.885 8.44133 10.885 7.64157V7.08382H10.8847Z" fill="var(--fill-0, #E86F3A)" stroke="var(--stroke-0, black)" stroke-width="0.284929" stroke-linecap="round" stroke-linejoin="round"/>
<path id="Vector_64" d="M6.93153 7.08384H9.88535V7.64158C9.88535 8.44134 9.23625 9.09045 8.43649 9.09045H8.38071C7.58095 9.09045 6.93185 8.44134 6.93185 7.64158V7.08384H6.93153Z" fill="var(--fill-0, #E86F3A)" stroke="var(--stroke-0, black)" stroke-width="0.284929" stroke-linecap="round" stroke-linejoin="round"/>
<path id="Vector_65" d="M9.88621 7.6416C9.88621 7.6416 10.2128 7.12488 10.8857 7.6416" stroke="var(--stroke-0, black)" stroke-width="0.284929" stroke-linecap="round" stroke-linejoin="round"/>
</g>
</g>
</svg>
