<svg preserveAspectRatio="none" width="100%" height="100%" overflow="visible" style="display: block;" viewBox="0 0 30.6807 27.9664" fill="none" xmlns="http://www.w3.org/2000/svg">
<g id="Illustration">
<g id="Group">
<path id="Vector" d="M21.2415 9.0275C20.1715 8.6499 19.4503 9.46024 19.4503 9.46024C19.275 7.55171 18.7047 4.7306 18.0242 2.96375C18.0242 2.96375 18.0495 2.39703 18.4024 2.38485C18.4973 2.38132 18.6156 2.41787 18.7637 2.51627C19.1477 2.77143 19.5612 3.50163 19.9465 4.45012C20.4873 5.78231 20.9723 7.54498 21.2412 9.02782L21.2415 9.0275Z" fill="var(--fill-0, #6D1249)" stroke="var(--stroke-0, black)" stroke-width="0.284929" stroke-linecap="round" stroke-linejoin="round"/>
<path id="Vector_2" d="M21.3052 11.8657C21.1891 12.0164 21.0529 12.0465 20.9054 11.9914C20.4381 11.8173 19.8627 10.7861 19.4922 10.0245C19.4829 9.8479 19.4691 9.65878 19.4508 9.45972C19.4508 9.45972 20.172 8.64907 21.242 9.02699C21.492 10.405 21.5558 11.541 21.3055 11.8657H21.3052Z" fill="var(--fill-0, #F5D256)" stroke="var(--stroke-0, black)" stroke-width="0.284929" stroke-linecap="round" stroke-linejoin="round"/>
<path id="Vector_3" d="M19.9473 4.44988C19.8963 4.45565 19.8415 4.44827 19.7937 4.43161C19.5354 4.34281 19.3796 4.08285 19.2741 3.83058C19.169 3.57863 19.086 3.30489 18.8921 3.11256C18.8026 3.02377 18.6936 2.9571 18.5975 2.87568C18.4385 2.74105 18.3686 2.58591 18.4032 2.38461C18.4981 2.38108 18.6164 2.41762 18.7645 2.51603C19.1485 2.77118 19.562 3.50138 19.9473 4.44988Z" fill="var(--fill-0, #961E6C)"/>
<path id="Vector_4" d="M21.2417 9.02673C20.1717 8.64912 19.4505 9.45946 19.4505 9.45946C19.2751 7.55094 18.7049 4.72982 18.0244 2.96298C18.0244 2.96298 18.0648 2.05102 18.7639 2.51517C19.6874 3.12838 20.7807 6.48737 21.2414 9.0264L21.2417 9.02673Z" stroke="var(--stroke-0, black)" stroke-width="0.284929" stroke-linecap="round" stroke-linejoin="round"/>
</g>
<path id="Vector_5" d="M19.1881 5.14437C19.5054 5.71846 19.9186 6.25121 20.1032 6.88076C20.2129 7.25387 20.2231 7.69655 19.9689 7.99081C19.9359 8.02927 19.8875 8.06742 19.8391 8.05171C19.7705 8.02959 19.7753 7.93279 19.784 7.86099C19.8125 7.63051 19.734 7.39844 19.6202 7.19586C19.5064 6.99327 19.358 6.81312 19.2291 6.61984C18.7967 5.97105 18.5986 5.19886 18.4079 4.44301C18.3351 4.15516 18.2623 3.86699 18.2066 3.5753C18.1822 3.4474 18.0271 3.01531 18.2364 2.99768C18.4345 2.98101 18.4758 3.40381 18.5194 3.53747C18.6044 3.79808 18.6951 4.05676 18.797 4.31095C18.9111 4.59591 19.0393 4.87543 19.1881 5.14405V5.14437Z" fill="var(--fill-0, #450832)"/>
<path id="Vector_6" d="M30.5178 27.8233H0.162205C0.162205 27.8233 -0.149685 22.4103 1.70595 20.4534C1.95181 20.194 2.50282 19.9424 3.22886 19.702C3.44747 19.6292 3.68147 19.5581 3.92797 19.4879C5.91663 18.9211 8.70345 18.4278 10.4152 18.0659L11.4627 18.0355L12.1599 18.015L20.0975 17.7829L20.4389 17.773C22.7571 18.3631 27.2742 19.3132 28.6881 20.2254C28.8061 20.3021 28.9032 20.3783 28.975 20.454C30.8307 22.4109 30.5184 27.824 30.5184 27.824L30.5178 27.8233Z" fill="var(--fill-0, #E86F3A)" stroke="var(--stroke-0, black)" stroke-width="0.284929" stroke-linecap="round" stroke-linejoin="round"/>
<path id="Vector_7" d="M19.4904 10.9087C19.4683 11.177 19.4202 11.3629 19.3427 11.4431C18.857 11.9425 18.1698 10.2808 17.8316 9.33996C17.7983 9.24604 17.7678 9.15949 17.7419 9.0832C17.6697 8.8726 17.6281 8.73765 17.6281 8.73765L17.3117 7.4949L16.9149 5.93801L16.9104 5.91974L16.8562 5.70722C16.7972 4.2013 16.6107 2.66204 16.2754 1.78792C16.2738 1.78247 16.2718 1.77766 16.2696 1.77221C16.2635 1.75714 16.2577 1.7424 16.2516 1.72765C16.234 1.68374 16.2157 1.64175 16.1972 1.60168C16.2622 1.46064 16.4308 1.20581 16.7854 1.28466C16.8677 1.30293 16.9597 1.33915 17.0629 1.39877C17.3681 1.57475 17.6768 2.09788 17.9669 2.81943C17.9858 2.86655 18.0047 2.91431 18.0233 2.96271C18.3131 3.71471 18.5826 4.6584 18.8106 5.64087C19.0279 6.57814 19.2067 7.551 19.3286 8.42833C19.4106 9.01653 19.4661 9.56177 19.4908 10.0237C19.509 10.3711 19.5097 10.6718 19.4901 10.9084L19.4904 10.9087Z" fill="var(--fill-0, #6D1249)" stroke="var(--stroke-0, black)" stroke-width="0.284929" stroke-linecap="round" stroke-linejoin="round"/>
<path id="Vector_8" d="M17.966 2.82056C17.9455 2.90871 17.9215 2.99589 17.8939 3.08212C17.7663 3.1145 17.6288 3.05968 17.5307 2.97153C17.4326 2.8837 17.3663 2.76703 17.3012 2.65259C17.1695 2.41988 17.0381 2.18684 16.9063 1.95444C16.8451 1.84578 16.7826 1.73519 16.7534 1.61338C16.7274 1.5044 16.7313 1.38323 16.7842 1.28547C16.8666 1.30374 16.9586 1.33996 17.0618 1.39958C17.3669 1.57556 17.6756 2.09869 17.9657 2.82024L17.966 2.82056Z" fill="var(--fill-0, #961E6C)"/>
<path id="Vector_9" d="M19.4901 10.9085C19.468 11.1768 19.4199 11.3627 19.3423 11.4428C18.8567 11.9422 18.1695 10.2805 17.8313 9.33972C17.798 9.2458 17.7675 9.15925 17.7415 9.08296C17.6694 8.87236 17.6277 8.73741 17.6277 8.73741L17.3114 7.49466L16.9145 5.93777L16.8559 5.70698C16.7924 4.08759 16.5815 2.42941 16.1972 1.60176C16.277 1.42802 16.5148 1.08152 17.0629 1.39886C17.388 1.58669 17.7169 2.16752 18.0233 2.96279C18.3131 3.71479 18.5826 4.65848 18.8106 5.64095C19.0279 6.57822 19.2067 7.55107 19.3286 8.42841C19.4106 9.01661 19.4661 9.56185 19.4908 10.0238C19.509 10.3712 19.5097 10.6719 19.4901 10.9085Z" stroke="var(--stroke-0, black)" stroke-width="0.284929" stroke-linecap="round" stroke-linejoin="round"/>
<path id="Vector_10" d="M17.161 5.78687C17.1206 5.87919 17.0276 5.97792 16.9359 5.93657C16.9263 5.9324 16.9177 5.92695 16.91 5.92022L16.8558 5.7077C16.7968 4.20178 16.6103 2.66252 16.275 1.78839L16.1637 1.79833L16.1253 1.80154C16.1599 1.76467 16.2035 1.74063 16.2513 1.72813C16.3445 1.70441 16.4526 1.7246 16.5362 1.77653C16.6622 1.85507 16.7426 1.98905 16.8087 2.1224C17.2414 2.99364 17.2594 4.00496 17.2683 4.97782C17.2709 5.2522 17.2715 5.53589 17.1606 5.78655L17.161 5.78687Z" fill="var(--fill-0, #450832)"/>
<path id="Vector_11" d="M19.3285 8.42896C18.9131 8.76072 18.3169 8.97677 17.7412 9.08351C17.7675 9.1598 17.7976 9.24635 17.8309 9.34027C17.8598 9.73293 17.9194 10.5189 18.0015 11.4684C18.0015 11.4684 18.0015 11.469 18.0018 11.4706C18.2262 14.0766 18.6176 17.0372 18.9964 17.335C18.9964 17.335 17.8742 21.9345 14.855 21.9345C11.8358 21.9345 11.8486 17.6475 11.8486 17.6475C12.1358 17.4215 12.1916 17.2532 12.1752 16.2634C12.1631 15.5335 12.1115 14.8318 12.0845 14.5059C12.0746 14.385 12.0679 14.3158 12.0679 14.3158C11.3896 14.5305 10.6713 14.636 9.99811 14.5033C9.33009 14.3712 8.70663 14.0052 8.20979 13.2788C7.7732 12.6409 7.62447 11.8591 7.66646 11.0151C7.71743 9.9836 8.05336 8.85977 8.49699 7.79396C8.97749 6.63807 9.58524 5.55046 10.0936 4.72314C10.0959 4.71961 10.3074 4.62569 10.6527 4.51638C11.1662 4.35387 11.9755 4.15802 12.8308 4.17565C12.7679 5.7351 12.832 7.95808 13.7087 7.95647C13.8866 7.95615 14.0209 7.55163 14.1168 6.99067C14.1928 6.54575 14.2444 6.00211 14.2748 5.48411C14.246 6.00243 14.1953 6.54672 14.1203 6.99195C14.1203 6.99195 14.4498 9.46143 15.0957 9.1598C15.2034 9.10947 15.2833 8.92997 15.3393 8.66231C15.5403 9.31206 15.8779 9.98937 16.4055 9.92142C16.7513 9.87654 16.9216 8.01289 16.8651 6.00532C16.8812 5.98256 16.8975 5.96012 16.9139 5.938C16.9889 5.83799 17.07 5.74343 17.1572 5.65913C17.5716 5.25941 18.1226 5.09208 18.8099 5.64118C18.9176 5.72708 19.0288 5.83094 19.1433 5.95403C19.2667 6.08673 19.3724 6.21495 19.4619 6.339C20.1398 7.27243 19.911 7.96417 19.3279 8.42864L19.3285 8.42896Z" fill="var(--fill-0, #94624B)" stroke="var(--stroke-0, black)" stroke-width="0.284929" stroke-linecap="round" stroke-linejoin="round"/>
<path id="Vector_12" d="M15.1477 12.7894C15.1503 14.2379 14.3005 15.6563 13.0219 16.3368C12.8722 16.4163 12.7065 16.4885 12.5388 16.4647C12.3984 16.4449 12.2811 16.3625 12.1769 16.2628C12.1647 15.5329 12.1131 14.8312 12.0862 14.5053C12.2013 14.3963 12.3273 14.2972 12.4526 14.1998L15.1477 12.7894Z" fill="var(--fill-0, #663421)"/>
<path id="Vector_13" d="M10.6626 4.84257C10.5494 5.19229 10.3603 5.52661 10.2343 5.87473C9.71827 7.29827 9.47722 8.82021 9.52274 10.3338C9.54806 11.1846 9.66442 12.0327 9.87341 12.8578C9.9715 13.2463 10.0907 13.6367 10.0818 14.0374C10.0782 14.1935 10.051 14.3538 9.9981 14.5028C9.33009 14.3708 8.70663 14.0047 8.20978 13.2784C7.7732 12.6405 7.62447 11.8587 7.66646 11.0147C7.71743 9.98315 8.05336 8.85932 8.49699 7.79351C8.97749 6.63762 9.58524 5.55001 10.0936 4.72269C10.0959 4.71916 10.3074 4.62524 10.6527 4.51594C10.6975 4.60344 10.7033 4.71564 10.6626 4.84257Z" fill="var(--fill-0, #AD8679)"/>
<path id="Vector_14" d="M12.4721 5.1614C12.4359 6.00059 12.4003 6.84875 12.5561 7.67416C12.6058 7.93732 12.6968 8.22613 12.9331 8.35179C13.1097 8.44603 13.3257 8.42391 13.5155 8.48802C13.8463 8.59989 14.0322 8.94191 14.1841 9.25637C14.3361 9.57082 14.5146 9.91444 14.8416 10.0369C14.9547 10.0792 15.0769 10.0907 15.1942 10.1193C15.4708 10.1866 15.7221 10.353 15.8923 10.5812C15.9596 10.6713 16.0148 10.7713 16.0952 10.8501C16.1757 10.929 16.2904 10.9844 16.3997 10.9575C16.5065 10.9312 16.5821 10.8309 16.611 10.7251C16.6398 10.6193 16.6296 10.5068 16.618 10.3975C16.4741 9.03807 16.1446 7.70589 15.7946 6.38428C15.5897 5.61081 15.3554 4.80079 14.7839 4.24112C14.4399 3.90423 13.9655 3.67728 13.4857 3.71542C13.1975 3.7385 12.6894 3.88595 12.5356 4.16066C12.4795 4.26035 12.5022 4.38632 12.5003 4.49563C12.4965 4.71745 12.4817 4.93959 12.4721 5.1614Z" fill="var(--fill-0, #7C412E)"/>
<path id="Vector_15" d="M11.4568 20.9601C11.3795 21.5611 11.2645 22.182 10.9106 22.6741C10.5564 23.1661 9.8983 23.4892 9.32997 23.2786C8.50585 22.9738 8.29525 21.7913 7.48107 21.4611C6.47616 21.0534 5.33791 22.2218 4.32755 21.8288C3.87975 21.6547 3.5935 21.2098 3.43099 20.7582C3.30886 20.4194 3.24154 20.0616 3.2284 19.702C3.44701 19.6292 3.68101 19.5581 3.92751 19.4879C5.91617 18.9211 8.70299 18.4278 10.4147 18.0659L11.4622 18.0355C11.6331 18.9984 11.5815 19.9895 11.4565 20.9601H11.4568Z" fill="var(--fill-0, #49A2A6)" stroke="var(--stroke-0, black)" stroke-width="0.284929" stroke-linecap="round" stroke-linejoin="round"/>
<path id="Vector_16" d="M28.6149 20.2239C28.3582 21.0519 27.8334 21.7933 27.0991 22.2529C26.4455 22.662 25.5207 22.8152 24.945 22.3023C24.4962 21.9026 24.4084 21.2455 24.1321 20.7118C23.6702 19.8197 22.5967 19.2895 21.6078 19.4652C21.2972 19.5203 20.9981 19.637 20.6846 19.669C20.3705 19.7011 20.0192 19.6283 19.8272 19.378C19.5919 19.0709 19.6813 18.6305 19.8179 18.2686C19.8759 18.1144 19.9455 17.9503 20.025 17.7813L20.3667 17.7714C22.6845 18.3615 27.202 19.3116 28.6152 20.2239H28.6149Z" fill="var(--fill-0, #49A2A6)" stroke="var(--stroke-0, black)" stroke-width="0.284929" stroke-linecap="round" stroke-linejoin="round"/>
<path id="Vector_17" d="M26.8323 27.8225H17.1541C17.0307 27.3581 17.0271 26.8619 17.1624 26.4C17.4477 25.4262 18.3353 24.6575 19.3399 24.5148C20.3842 24.3664 21.4167 24.8424 22.4713 24.8729C23.1024 24.8912 23.7348 24.7488 24.3622 24.8178C25.3305 24.9239 26.2239 25.571 26.6175 26.4615C26.8053 26.8866 26.8749 27.3597 26.832 27.8222L26.8323 27.8225Z" fill="var(--fill-0, #49A2A6)" stroke="var(--stroke-0, black)" stroke-width="0.284929" stroke-linecap="round" stroke-linejoin="round"/>
<path id="Vector_18" d="M10.8082 27.8226H1.67528C1.86344 26.6655 3.303 25.7519 4.32522 25.5323C5.68081 25.2413 7.09313 25.5984 8.38749 26.0968C8.96767 26.3202 9.54305 26.5767 10.0338 26.9584C10.3399 27.1969 10.6124 27.4889 10.8082 27.8226Z" fill="var(--fill-0, #49A2A6)" stroke="var(--stroke-0, black)" stroke-width="0.284929" stroke-linecap="round" stroke-linejoin="round"/>
<path id="Vector_19" d="M17.6605 7.90534C17.8692 7.81334 18.0974 7.76622 18.3253 7.76783C18.4416 7.76879 18.5625 7.78161 18.6712 7.73994C18.7644 7.70404 18.8385 7.63192 18.9048 7.55723C18.9683 7.48575 19.0286 7.4085 19.0581 7.31778C19.0875 7.22707 19.0811 7.11968 19.0209 7.04564C18.9693 6.98249 18.8859 6.95204 18.8048 6.94723C18.7237 6.94242 18.6426 6.95973 18.5631 6.97704C18.2807 7.03859 17.9967 7.10045 17.7288 7.2088C17.4829 7.30784 17.0998 7.48575 17.028 7.77263C16.9986 7.89092 17.0585 7.98323 17.1736 8.01945C17.3441 8.07299 17.5101 7.97169 17.6605 7.90534Z" fill="var(--fill-0, #663421)"/>
<path id="Vector_20" d="M19.4631 6.33848C19.3756 6.49138 19.2307 6.61896 19.0615 6.5978C18.9454 6.58306 18.8493 6.50036 18.7775 6.40772C18.7063 6.31508 18.6521 6.20962 18.5759 6.12083C18.4076 5.92498 18.1319 5.82753 17.8777 5.87465C17.703 5.90703 17.5222 6.00127 17.3581 5.93363C17.2475 5.88812 17.1799 5.77817 17.1581 5.65828C17.5726 5.25857 18.1236 5.09124 18.8108 5.64033C18.9185 5.72624 19.0298 5.8301 19.1442 5.95319C19.2676 6.08589 19.3734 6.21411 19.4628 6.33816L19.4631 6.33848Z" fill="var(--fill-0, #AD8679)"/>
<path id="Vector_21" d="M12.9283 2.76594C12.9084 2.96564 12.8584 3.5096 12.8315 4.17441C11.4012 4.1446 10.0998 4.71229 10.094 4.72158C10.1536 4.62446 10.212 4.53086 10.2684 4.44142C10.269 4.44078 10.2694 4.44014 10.2697 4.4395C10.7332 3.70449 11.081 3.23105 11.1114 3.19034C11.1124 3.18905 11.113 3.18809 11.113 3.18777H11.1134V3.18713C11.1134 3.18713 11.5336 2.97653 12.1696 2.85248C12.3978 2.80793 12.6539 2.77459 12.928 2.76626L12.9283 2.76594Z" fill="var(--fill-0, #4C70F5)" stroke="var(--stroke-0, black)" stroke-width="0.284929" stroke-linecap="round" stroke-linejoin="round"/>
<path id="Vector_22" d="M10.2687 4.44236C10.2123 4.53179 10.1539 4.62539 10.0943 4.72251C9.71958 5.33251 9.29101 6.08323 8.89931 6.89869C8.51626 6.18901 7.77996 6.57719 7.77996 6.57719C7.88574 6.31562 7.97229 6.13772 7.97229 6.13772C8.30181 6.45987 8.99932 5.62036 9.44327 4.99946C9.45129 5.01517 9.46058 5.02895 9.47084 5.04146C9.60675 5.20493 9.93851 4.86964 10.2684 4.44172L10.2687 4.44236Z" fill="var(--fill-0, #6D1249)" stroke="var(--stroke-0, black)" stroke-width="0.284929" stroke-linecap="round" stroke-linejoin="round"/>
<path id="Vector_23" d="M8.49796 7.79328C8.05465 8.85909 7.71872 9.98292 7.66743 11.0141C7.23341 11.6661 6.79523 12.1434 6.58431 11.8321C6.08811 11.101 7.39913 8.07087 7.39913 8.07087C7.39881 8.18627 7.41196 8.29205 7.44305 8.38308C7.56774 8.75011 8.06523 8.29365 8.49796 7.7936V7.79328Z" fill="var(--fill-0, #6D1249)" stroke="var(--stroke-0, black)" stroke-width="0.284929" stroke-linecap="round" stroke-linejoin="round"/>
<path id="Vector_24" d="M12.069 14.3146C13.6932 13.8001 15.0882 12.6574 15.0882 12.6574" stroke="var(--stroke-0, black)" stroke-width="0.284929" stroke-linecap="round" stroke-linejoin="round"/>
<path id="Vector_25" d="M17.7429 9.08234C17.5053 9.1269 17.2717 9.15222 17.055 9.15959" stroke="var(--stroke-0, black)" stroke-width="0.284929" stroke-linecap="round" stroke-linejoin="round"/>
<path id="Vector_26" d="M16.2222 7.38848C16.2222 7.38848 16.4372 6.61276 16.8664 6.00501" stroke="var(--stroke-0, black)" stroke-width="0.284929" stroke-linecap="round" stroke-linejoin="round"/>
<path id="Vector_27" d="M17.0628 7.73628C17.0628 7.73628 18.1446 6.4823 19.1098 7.22565" stroke="var(--stroke-0, black)" stroke-width="0.284929" stroke-linecap="round" stroke-linejoin="round"/>
<path id="Vector_28" d="M18.1949 7.95642C18.1949 7.95642 18.1901 7.43746 18.0237 7.1214" stroke="var(--stroke-0, black)" stroke-width="0.284929" stroke-linecap="round" stroke-linejoin="round"/>
<path id="Vector_29" d="M20.3659 17.7714C20.3659 17.7714 18.9972 23.4384 14.7371 23.4384C10.796 23.4384 10.3425 18.0644 10.3425 18.0644C11.147 17.8942 11.7141 17.7532 11.8497 17.6464C11.8497 17.6464 11.8368 21.9334 14.8561 21.9334C17.8753 21.9334 18.9975 17.3339 18.9975 17.3339C19.1273 17.4355 19.6383 17.5852 20.3662 17.7711L20.3659 17.7714Z" fill="var(--fill-0, #F5D256)" stroke="var(--stroke-0, black)" stroke-width="0.284929" stroke-linecap="round" stroke-linejoin="round"/>
<path id="Vector_30" d="M14.2751 5.48455C14.2447 6.00255 14.1928 6.5462 14.1171 6.99111C14.0213 7.55175 13.887 7.95659 13.7091 7.95691C13.0789 7.95788 12.8686 6.80968 12.8237 5.58488C12.8237 5.58488 13.3677 4.98386 14.2751 5.48487V5.48455Z" fill="var(--fill-0, #F5D256)" stroke="var(--stroke-0, black)" stroke-width="0.284929" stroke-linecap="round" stroke-linejoin="round"/>
<path id="Vector_31" d="M14.3083 4.46731C14.308 4.71445 14.3003 5.00133 14.2855 5.30232C14.2846 5.3222 14.2836 5.34239 14.2827 5.36259C14.2827 5.36419 14.2823 5.36579 14.2823 5.36772C14.2823 5.3722 14.282 5.37669 14.2817 5.38086C14.2801 5.41516 14.2782 5.44946 14.2759 5.48407C13.3681 4.98338 12.8245 5.58408 12.8245 5.58408C12.8069 5.10487 12.8146 4.61379 12.8322 4.17529C12.8591 3.51048 12.9091 2.96651 12.929 2.76681C12.6546 2.77515 12.3988 2.80848 12.1706 2.85304C12.1706 2.85304 12.2302 2.46807 12.4972 2.20394C12.5322 2.169 12.5706 2.13662 12.6129 2.10745C12.6213 2.10104 12.6299 2.09559 12.6386 2.09014C12.6392 2.08982 12.6395 2.0895 12.6402 2.08918C12.6508 2.08213 12.6613 2.07604 12.6726 2.06995C12.6799 2.0661 12.6873 2.06194 12.6944 2.05809C12.7014 2.05456 12.7085 2.05072 12.7158 2.04719C12.8441 1.9834 13.0021 1.9491 13.1947 1.96385C13.7432 2.00712 14.0086 2.39915 14.1471 2.91074H14.1474C14.2301 3.21558 14.2679 3.56273 14.2932 3.90347C14.3038 4.04451 14.3093 4.23908 14.3083 4.46731Z" fill="var(--fill-0, #6D1249)" stroke="var(--stroke-0, black)" stroke-width="0.284929" stroke-linecap="round" stroke-linejoin="round"/>
<path id="Vector_32" d="M12.9367 2.6839C12.9367 2.6839 12.9339 2.71275 12.9284 2.76596" stroke="var(--stroke-0, black)" stroke-width="0.284929" stroke-linecap="round" stroke-linejoin="round"/>
<path id="Vector_33" d="M15.34 8.6622C15.2836 8.92986 15.2041 9.10936 15.0964 9.15969C14.4508 9.461 14.121 6.99184 14.121 6.99184C14.196 6.5466 14.2467 6.00232 14.2755 5.484C14.2774 5.44938 14.2794 5.41508 14.2813 5.38078C14.2816 5.37661 14.2819 5.37213 14.2819 5.36764C14.2819 5.36604 14.2822 5.36443 14.2822 5.36251C14.2832 5.34232 14.2842 5.32212 14.2851 5.30225C14.2989 5.0019 14.306 4.71533 14.306 4.46819C14.3063 4.34157 14.3047 4.22522 14.3008 4.12232C14.2983 4.04026 14.2944 3.96718 14.2896 3.90435C14.2633 3.56361 14.2249 3.21646 14.1418 2.91194H14.1415C14.0014 2.401 13.7357 2.00897 13.1866 1.96698C13.051 1.9564 12.9327 1.97082 12.8298 2.00256C12.7895 2.01474 12.7513 2.0298 12.7154 2.04711C12.708 2.05064 12.7007 2.05449 12.6939 2.05801C12.6866 2.06186 12.6792 2.06603 12.6721 2.06987C12.6609 2.07596 12.6503 2.08205 12.6398 2.08911C12.6391 2.08943 12.6388 2.08975 12.6382 2.09007C12.6295 2.09552 12.6209 2.10097 12.6125 2.10738C12.5702 2.1359 12.5314 2.16796 12.4962 2.20226C12.4939 2.2045 12.492 2.20642 12.4898 2.20867C12.4898 2.20675 12.4888 2.19745 12.4878 2.18238C12.4837 2.1 12.4798 1.841 12.5827 1.57784C12.6824 1.32332 12.8811 1.06657 13.2741 0.961748C13.3892 0.930976 13.5213 0.913346 13.6722 0.912705C13.912 0.911743 14.12 0.976814 14.2989 1.08804C14.7288 1.35506 14.9942 1.88973 15.1397 2.42472V2.42536C15.2 2.64589 15.2394 2.86675 15.2621 3.06869C15.3455 3.8146 15.6228 7.33162 15.3404 8.66188L15.34 8.6622Z" fill="var(--fill-0, #6D1249)" stroke="var(--stroke-0, black)" stroke-width="0.284929" stroke-linecap="round" stroke-linejoin="round"/>
<path id="Vector_34" d="M10.269 4.44088C10.6761 3.9123 11.0803 3.24236 11.1108 3.19172" stroke="var(--stroke-0, black)" stroke-width="0.284929" stroke-linecap="round" stroke-linejoin="round"/>
<path id="Vector_35" d="M12.4878 2.18235C12.4919 2.19228 12.4951 2.19902 12.4961 2.20222" stroke="var(--stroke-0, black)" stroke-width="0.284929" stroke-linecap="round" stroke-linejoin="round"/>
<path id="Vector_36" d="M12.8322 4.17441C12.8591 3.5096 12.9091 2.96564 12.929 2.76594C12.6546 2.77427 12.3988 2.80761 12.1706 2.85216" stroke="var(--stroke-0, black)" stroke-width="0.284929" stroke-linecap="round" stroke-linejoin="round"/>
<path id="Vector_37" d="M16.4055 9.92153C15.8779 9.98948 15.5403 9.31185 15.3393 8.66243C15.4576 8.10468 15.4775 7.1626 15.4547 6.20128C15.4547 6.20128 16.0125 5.32587 16.8622 5.90221C16.8632 5.93683 16.8642 5.97113 16.8651 6.00575C16.9216 8.013 16.7513 9.87697 16.4055 9.92185V9.92153Z" fill="var(--fill-0, #F5D256)" stroke="var(--stroke-0, black)" stroke-width="0.284929" stroke-linecap="round" stroke-linejoin="round"/>
<path id="Vector_38" d="M16.8631 5.90187C16.5079 5.66082 16.2034 5.67364 15.97 5.77044C15.6444 5.90443 15.4556 6.20093 15.4556 6.20093C15.4241 4.86971 15.3104 3.50162 15.262 3.06857C15.2052 2.56018 15.0398 1.93224 14.7145 1.48572C14.7125 1.48251 14.7103 1.47931 14.7077 1.47642C14.6898 1.45174 14.6712 1.42834 14.6523 1.40526C14.5494 1.27896 14.4321 1.1703 14.2987 1.08792C14.2987 1.08792 14.6106 0.721217 15.0715 0.72923C15.1091 0.729551 15.1478 0.732435 15.1876 0.738846C15.4283 0.775068 15.7027 0.918672 15.9906 1.26037C16.0646 1.3482 16.1335 1.4636 16.1976 1.60207C16.2412 1.69567 16.2822 1.79953 16.321 1.91268C16.6278 2.80348 16.8002 4.27061 16.8563 5.70729C16.8589 5.77237 16.8615 5.83744 16.8634 5.90187H16.8631Z" fill="var(--fill-0, #6D1249)" stroke="var(--stroke-0, black)" stroke-width="0.284929" stroke-linecap="round" stroke-linejoin="round"/>
<path id="Vector_39" d="M12.4963 2.20348C12.2292 2.46793 12.1696 2.8529 12.1696 2.8529C11.5337 2.97695 11.1134 3.18755 11.1134 3.18755C11.1134 3.18755 11.1134 3.18787 11.1131 3.18819C11.1131 3.18851 11.1125 3.18947 11.1115 3.19075C11.0907 3.21896 10.9198 3.45136 10.6643 3.83249C10.3467 3.03401 9.80817 3.33308 9.79246 3.34205C9.93863 3.01157 10.1153 2.67756 10.3044 2.38426C10.6009 1.92428 10.9288 1.56335 11.2189 1.46975C11.5869 1.35051 11.8693 1.45436 12.0731 1.6188C12.3203 1.81722 12.4533 2.1025 12.487 2.18264C12.4879 2.19771 12.4889 2.207 12.4889 2.20893C12.4908 2.207 12.4927 2.20508 12.4953 2.20284C12.4956 2.20316 12.4959 2.20348 12.4959 2.2038L12.4963 2.20348Z" fill="var(--fill-0, #6D1249)" stroke="var(--stroke-0, black)" stroke-width="0.284929" stroke-linecap="round" stroke-linejoin="round"/>
<path id="Vector_40" d="M12.5837 1.57809C12.4808 1.84126 12.4846 2.10026 12.4888 2.18264C12.4272 2.03647 12.0352 1.20562 11.2207 1.47007C10.3517 1.75151 9.14486 4.42261 9.44489 4.99991C9.00093 5.62081 8.30343 6.45999 7.97391 6.13817C7.63189 5.8048 8.22009 3.84402 9.11088 2.39773C9.53528 1.70855 10.0283 1.13638 10.5222 0.912961C11.0072 0.693709 11.3909 0.678002 11.6893 0.760061C12.325 0.934438 12.5734 1.55085 12.584 1.57777L12.5837 1.57809Z" fill="var(--fill-0, #6D1249)" stroke="var(--stroke-0, black)" stroke-width="0.284929" stroke-linecap="round" stroke-linejoin="round"/>
<path id="Vector_41" d="M15.1866 0.738343C14.6625 0.658848 14.2977 1.08742 14.2977 1.08742C14.1185 0.975867 13.9108 0.911117 13.6711 0.912078C13.0053 0.914963 12.7107 1.24865 12.5815 1.57689C12.5815 1.55669 12.5854 0.394078 13.4739 0.190532C14.5609 -0.0578908 15.1866 0.738023 15.1866 0.738023V0.738343Z" fill="var(--fill-0, #6D1249)" stroke="var(--stroke-0, black)" stroke-width="0.284929" stroke-linecap="round" stroke-linejoin="round"/>
<path id="Vector_42" d="M12.5815 1.57844L12.5823 1.58084" stroke="var(--stroke-0, black)" stroke-width="0.284929" stroke-linecap="round" stroke-linejoin="round"/>
<path id="Vector_43" d="M19.6907 13.5326C19.6676 14.1894 19.548 14.7128 19.2278 14.7183C18.3752 14.732 18.0133 11.5695 18.0024 11.4705C18.0021 11.4689 18.0021 11.4683 18.0021 11.4683C17.92 10.5188 17.8604 9.73282 17.8315 9.34015C18.1694 10.281 18.8569 11.9427 19.3426 11.4432C19.4201 11.3634 19.4682 11.1772 19.4903 10.9089C19.4903 10.9089 19.7298 12.4145 19.6907 13.5326Z" fill="var(--fill-0, #6D1249)" stroke="var(--stroke-0, black)" stroke-width="0.284929" stroke-linecap="round" stroke-linejoin="round"/>
<path id="Vector_44" d="M20.858 15.4288C20.024 15.3974 19.6912 13.5321 19.6912 13.5321C19.7303 12.4141 19.4909 10.9085 19.4909 10.9085C19.5105 10.6716 19.5098 10.3712 19.4915 10.0237C19.8624 10.7854 20.4378 11.8169 20.9048 11.9909C20.9148 12.0348 21.6866 15.4596 20.8577 15.4288H20.858Z" fill="var(--fill-0, #6D1249)" stroke="var(--stroke-0, black)" stroke-width="0.284929" stroke-linecap="round" stroke-linejoin="round"/>
<path id="Vector_45" d="M10.5557 7.82453C10.5557 7.82453 9.58287 9.32468 9.97714 9.57086C10.3711 9.81704 10.8022 9.41091 10.8022 9.41091" stroke="var(--stroke-0, black)" stroke-width="0.284929" stroke-linecap="round" stroke-linejoin="round"/>
<path id="Vector_46" d="M10.8751 10.8897C10.8751 10.8897 12.2108 11.3452 12.9282 10.348C12.9282 10.348 13.3334 11.8379 12.2419 12.0292C10.6658 12.3055 10.8751 10.8897 10.8751 10.8897Z" fill="var(--fill-0, white)" stroke="var(--stroke-0, black)" stroke-width="0.284929" stroke-linecap="round" stroke-linejoin="round"/>
<path id="Vector_47" d="M10.8581 20.2446C11.1344 20.0584 11.4104 19.8725 11.6867 19.6863" stroke="var(--stroke-0, black)" stroke-width="0.284929" stroke-linecap="round" stroke-linejoin="round"/>
<path id="Vector_48" d="M12.2659 22.4863C12.4255 22.3219 12.5852 22.1574 12.7445 21.9933" stroke="var(--stroke-0, black)" stroke-width="0.284929" stroke-linecap="round" stroke-linejoin="round"/>
<path id="Vector_49" d="M14.9581 23.2651L15.0879 22.4769" stroke="var(--stroke-0, black)" stroke-width="0.284929" stroke-linecap="round" stroke-linejoin="round"/>
<path id="Vector_50" d="M17.5334 22.3548C17.4087 22.1852 17.2843 22.016 17.1597 21.8464" stroke="var(--stroke-0, black)" stroke-width="0.284929" stroke-linecap="round" stroke-linejoin="round"/>
<path id="Vector_51" d="M19.1076 20.4186C18.903 20.3145 18.6985 20.2103 18.494 20.1058" stroke="var(--stroke-0, black)" stroke-width="0.284929" stroke-linecap="round" stroke-linejoin="round"/>
<path id="Vector_52" d="M20.106 18.2882C19.8265 18.2639 19.547 18.2395 19.2675 18.2152" stroke="var(--stroke-0, black)" stroke-width="0.284929" stroke-linecap="round" stroke-linejoin="round"/>
<path id="Vector_53" d="M14.1956 7.43763C14.1956 7.43763 14.6123 6.56767 15.4617 7.3623" stroke="var(--stroke-0, black)" stroke-width="0.284929" stroke-linecap="round" stroke-linejoin="round"/>
<path id="Vector_54" d="M14.2956 7.91516C14.4623 7.71161 14.8389 7.43178 15.43 7.96036" stroke="var(--stroke-0, #F5D256)" stroke-width="0.284929" stroke-linecap="round" stroke-linejoin="round"/>
<path id="Vector_55" d="M16.9144 5.93888C16.8971 5.92605 16.8798 5.91387 16.8628 5.90265" stroke="var(--stroke-0, black)" stroke-width="0.284929" stroke-linecap="round" stroke-linejoin="round"/>
<path id="Vector_56" d="M8.89919 6.89776C8.75911 7.18881 8.62384 7.48852 8.49755 7.7924C8.06481 8.29245 7.56733 8.74922 7.44263 8.38188C7.41186 8.29117 7.3984 8.18538 7.39872 8.06967C7.39904 7.6068 7.61316 6.98751 7.77985 6.57593C7.77985 6.57593 8.51614 6.18743 8.89919 6.89743V6.89776Z" fill="var(--fill-0, #F5D256)" stroke="var(--stroke-0, black)" stroke-width="0.284929" stroke-linecap="round" stroke-linejoin="round"/>
<path id="Vector_57" d="M10.6649 3.83261C10.6649 3.83261 10.6649 3.83293 10.6645 3.83293C10.5485 4.00635 10.4152 4.21054 10.2703 4.44005C10.27 4.44069 10.2696 4.44133 10.269 4.44197C9.93915 4.8699 9.60738 5.20519 9.47147 5.04171C9.46122 5.02921 9.45192 5.0151 9.44391 4.99972C9.308 4.73815 9.48173 4.04674 9.79266 3.34218H9.79298C9.80869 3.3332 10.3472 3.03413 10.6649 3.83261Z" fill="var(--fill-0, #F5D256)" stroke="var(--stroke-0, black)" stroke-width="0.284929" stroke-linecap="round" stroke-linejoin="round"/>
<path id="Vector_58" d="M10.6651 3.83234L10.6643 3.83314C10.6643 3.83314 10.6646 3.83288 10.6651 3.83234Z" fill="var(--fill-0, #F5D256)" stroke="var(--stroke-0, black)" stroke-width="0.284929" stroke-linecap="round" stroke-linejoin="round"/>
<path id="Vector_59" d="M8.1034 4.6175C8.1034 4.6175 8.8227 4.16489 9.31186 5.17813" stroke="var(--stroke-0, black)" stroke-width="0.284929" stroke-linecap="round" stroke-linejoin="round"/>
<path id="Vector_60" d="M6.75028 9.86194C6.75028 9.86194 7.49522 9.47023 7.75711 10.2261" stroke="var(--stroke-0, #F5D256)" stroke-width="0.284929" stroke-linecap="round" stroke-linejoin="round"/>
<g id="Vector_61">
<path d="M18.2612 12.9782C18.2606 12.9756 18.7488 12.2159 19.6902 12.8557Z" fill="var(--fill-0, #6D1249)"/>
<path d="M18.2612 12.9782C18.2606 12.9756 18.7488 12.2159 19.6902 12.8557" stroke="var(--stroke-0, black)" stroke-width="0.284929" stroke-linecap="round" stroke-linejoin="round"/>
</g>
<g id="Vector_62">
<path d="M18.2034 12.3696C18.2028 12.3671 18.691 11.6074 19.6324 12.2472Z" fill="var(--fill-0, #6D1249)"/>
<path d="M18.2034 12.3696C18.2028 12.3671 18.691 11.6074 19.6324 12.2472" stroke="var(--stroke-0, black)" stroke-width="0.284929" stroke-linecap="round" stroke-linejoin="round"/>
</g>
<path id="Vector_63" d="M14.7522 1.35578L14.7073 1.47695C14.6893 1.45226 14.6708 1.42886 14.6518 1.40578C14.6829 1.38559 14.7166 1.3686 14.7518 1.3561L14.7522 1.35578Z" fill="var(--fill-0, #450832)"/>
<path id="Vector_64" d="M15.9699 5.77017C15.6442 5.90416 15.4554 6.20066 15.4554 6.20066C15.424 4.86944 15.3102 3.50135 15.2618 3.06829C15.2051 2.55991 15.0397 1.93196 14.7143 1.48544C14.8041 1.39665 14.9631 1.40082 15.0721 1.46909C15.1884 1.54218 15.2602 1.66815 15.3198 1.79188C15.6917 2.56087 15.7882 3.42987 15.8792 4.27963C15.9324 4.77488 15.9853 5.27396 15.9696 5.77017H15.9699Z" fill="var(--fill-0, #450832)"/>
<path id="Vector_65" d="M19.3282 8.42898C18.9128 8.76074 18.3166 8.97679 17.7409 9.08353C17.7672 9.15982 17.7973 9.24637 17.8306 9.34029C17.8595 9.73296 17.9191 10.5189 18.0012 11.4684C18.0012 11.4684 18.0012 11.469 18.0015 11.4706C18.2259 14.0767 18.6172 17.0372 18.9961 17.335C18.9961 17.335 17.8739 21.9345 14.8547 21.9345C11.8355 21.9345 11.8483 17.6475 11.8483 17.6475C12.4259 17.1936 12.0675 14.3155 12.0675 14.3155C10.7168 14.7437 9.20764 14.737 8.20978 13.2785C7.7732 12.6406 7.62447 11.8588 7.66646 11.0148C7.71743 9.9833 8.05336 8.85947 8.49699 7.79366C8.97749 6.63778 9.58524 5.55017 10.0936 4.72284C10.0994 4.71354 11.4005 4.14586 12.8311 4.17567C12.7683 5.73512 12.8324 7.9581 13.7091 7.9565C13.887 7.95618 14.0213 7.55165 14.1171 6.99069C14.1931 6.54578 14.2447 6.00213 14.2751 5.48413C14.2463 6.00245 14.1956 6.54674 14.1206 6.99198C14.1206 6.99198 14.4502 9.46146 15.0961 9.15982C15.2038 9.1095 15.2836 8.92999 15.3397 8.66234C15.5406 9.31208 15.8782 9.98939 16.4058 9.92144C16.7517 9.87656 16.9219 8.01291 16.8655 6.00534C16.8815 5.98258 16.8978 5.96014 16.9142 5.93803C17.346 5.36169 17.9784 4.97639 18.8105 5.6412C18.9182 5.72711 19.0295 5.83096 19.1439 5.95405C20.195 7.08494 19.9892 7.90233 19.3285 8.42866L19.3282 8.42898Z" stroke="var(--stroke-0, black)" stroke-width="0.284929" stroke-linecap="round" stroke-linejoin="round"/>
<path id="Vector_66" d="M15.453 0.453687L15.405 0.454969C15.421 0.453687 15.4367 0.453046 15.453 0.453687Z" fill="var(--fill-0, #961E6C)"/>
<path id="Vector_67" d="M16.3214 1.913C16.3076 2.01685 16.2884 2.11975 16.2647 2.22168C16.2422 2.31752 16.1977 2.42971 16.1009 2.44606C16.0307 2.45792 15.9621 2.40984 15.9249 2.34926C15.8877 2.28867 15.8749 2.21687 15.8582 2.14763C15.7823 1.8319 15.6124 1.53956 15.3761 1.31678C15.2639 1.21132 15.1322 1.11388 15.0793 0.969311C15.0511 0.892701 15.0495 0.807436 15.0723 0.729223C15.1098 0.729543 15.1485 0.732428 15.1883 0.738839C15.429 0.775061 15.7034 0.918665 15.9913 1.26037C16.0653 1.3482 16.1342 1.46359 16.1983 1.60207C16.2419 1.69567 16.283 1.79952 16.3217 1.91268L16.3214 1.913Z" fill="var(--fill-0, #961E6C)"/>
<path id="Vector_68" d="M15.34 8.66182C15.2835 8.92947 15.204 9.10898 15.0963 9.15931C14.4508 9.46062 14.1209 6.99146 14.1209 6.99146C14.1959 6.54622 14.2466 6.00194 14.2754 5.48362C14.2774 5.449 14.2793 5.4147 14.2812 5.3804C14.2815 5.37623 14.2818 5.37175 14.2818 5.36726C14.2818 5.36566 14.2822 5.36405 14.2822 5.36213C14.2831 5.34194 14.2841 5.32174 14.285 5.30187C14.2988 5.00152 14.3059 4.71495 14.3059 4.46781C14.3065 4.23958 14.3004 4.04501 14.2895 3.90397C14.2632 3.56323 14.2248 3.21608 14.1418 2.91156H14.1414C14.0014 2.40061 13.7356 2.00859 13.1865 1.9666C12.9974 1.95185 12.8423 1.98551 12.7153 2.04641C12.708 2.04994 12.7006 2.05378 12.6939 2.05731C12.6865 2.06116 12.6791 2.06532 12.6721 2.06917C12.6608 2.07526 12.6503 2.08135 12.6397 2.0884C12.639 2.08872 12.6387 2.08904 12.6381 2.08937C12.6294 2.09481 12.6208 2.10026 12.6124 2.10667C12.5701 2.1352 12.5313 2.16726 12.4961 2.20156C12.4938 2.2038 12.4919 2.20572 12.4897 2.20797C12.4897 2.20604 12.4887 2.19675 12.4877 2.18168C12.4836 2.0993 12.4797 1.8403 12.5826 1.57713C12.7115 1.24858 13.0061 0.914568 13.6722 0.912003C13.9119 0.911042 14.12 0.976112 14.2988 1.08734C14.9063 1.4643 15.1845 2.37689 15.2617 3.06831C15.3451 3.81422 15.6224 7.33124 15.34 8.6615V8.66182Z" stroke="var(--stroke-0, black)" stroke-width="0.284929" stroke-linecap="round" stroke-linejoin="round"/>
<path id="Vector_69" d="M8.49796 7.79328C8.05465 8.85909 7.71872 9.98292 7.66743 11.0141C7.23341 11.6661 6.79523 12.1434 6.58431 11.8321C6.08811 11.101 7.39913 8.07087 7.39913 8.07087C7.39881 8.18627 7.41196 8.29205 7.44305 8.38308C7.56774 8.75011 8.06523 8.29365 8.49796 7.7936V7.79328Z" stroke="var(--stroke-0, black)" stroke-width="0.284929" stroke-linecap="round" stroke-linejoin="round"/>
<path id="Vector_70" d="M19.6909 13.532C19.6909 13.532 20.4166 12.7325 21.1459 13.3336" stroke="var(--stroke-0, #F5D256)" stroke-width="0.284929" stroke-linecap="round" stroke-linejoin="round"/>
<path id="Vector_71" d="M15.1384 2.42484V2.42548C15.1384 2.50145 15.1313 2.57806 15.1176 2.65339C15.1108 2.68865 15.0999 2.72775 15.0682 2.74442C15.03 2.76462 14.9836 2.74122 14.9489 2.71525C14.7313 2.5553 14.6044 2.30463 14.4652 2.07352C14.3255 1.84241 14.1482 1.60905 13.8902 1.52988C13.7883 1.49878 13.6802 1.49365 13.5757 1.47282C13.4712 1.45198 13.3645 1.41031 13.2997 1.32601C13.2286 1.23241 13.2225 1.0997 13.2622 0.989117C13.2654 0.979821 13.2693 0.970846 13.2731 0.96187C13.3882 0.931098 13.5203 0.913468 13.6713 0.912827C13.911 0.911865 14.1191 0.976936 14.2979 1.08817C14.7278 1.35518 14.9932 1.88985 15.1387 2.42484H15.1384Z" fill="var(--fill-0, #961E6C)"/>
<path id="Vector_72" d="M11.6881 0.760061C11.6788 0.77128 11.6689 0.781859 11.6586 0.791795C11.5695 0.87706 11.4506 0.922578 11.3371 0.971942C10.6832 1.25723 10.1187 1.7451 9.74177 2.35061C9.6767 2.4551 9.60522 2.57242 9.48597 2.6032C9.3273 2.64455 9.20069 2.52947 9.10965 2.39773C9.53405 1.70855 10.0271 1.13638 10.521 0.912961C11.006 0.693709 11.3897 0.678002 11.6881 0.760061Z" fill="var(--fill-0, #961E6C)"/>
<path id="Vector_73" d="M12.0741 1.61848C12.0148 1.78709 11.8304 1.90152 11.6529 1.95986C11.4464 2.02814 11.2182 2.06019 11.0528 2.20155C10.9143 2.32015 10.8204 2.51473 10.6409 2.5487C10.5098 2.57403 10.3822 2.49613 10.305 2.38426C10.6015 1.92428 10.9294 1.56335 11.2195 1.46975C11.5875 1.35051 11.8699 1.45436 12.0737 1.6188L12.0741 1.61848Z" fill="var(--fill-0, #961E6C)"/>
<path id="Vector_74" d="M20.858 15.4288C20.024 15.3974 19.6912 13.5321 19.6912 13.5321C19.7303 12.4141 19.4909 10.9085 19.4909 10.9085C19.5105 10.6716 19.5098 10.3712 19.4915 10.0237C19.8624 10.7854 20.4378 11.8169 20.9048 11.9909C20.9148 12.0348 21.6866 15.4596 20.8577 15.4288H20.858Z" stroke="var(--stroke-0, black)" stroke-width="0.284929" stroke-linecap="round" stroke-linejoin="round"/>
<path id="Vector_75" d="M17.6575 8.66627C17.8297 8.66627 17.9694 8.52663 17.9694 8.35438C17.9694 8.18212 17.8297 8.04249 17.6575 8.04249C17.4852 8.04249 17.3456 8.18212 17.3456 8.35438C17.3456 8.52663 17.4852 8.66627 17.6575 8.66627Z" fill="var(--fill-0, #4C70F5)" stroke="var(--stroke-0, black)" stroke-width="0.284929" stroke-linecap="round" stroke-linejoin="round"/>
<path id="Vector_76" d="M18.2287 10.3717C18.5655 10.287 18.747 9.85423 18.634 9.40511C18.5211 8.95599 18.1564 8.66059 17.8196 8.74532C17.4827 8.83006 17.3012 9.26284 17.4142 9.71196C17.5272 10.1611 17.8918 10.4565 18.2287 10.3717Z" fill="var(--fill-0, #4C70F5)" stroke="var(--stroke-0, black)" stroke-width="0.284929" stroke-linecap="round" stroke-linejoin="round"/>
<path id="Vector_77" d="M14.6382 3.96584C14.6269 4.02963 14.6125 4.09438 14.5744 4.14663C14.5362 4.19823 14.4679 4.23317 14.4064 4.21362C14.3612 4.19952 14.3298 4.16009 14.3009 4.12323C14.2984 4.04117 14.2945 3.96808 14.2897 3.90526C14.2634 3.56452 14.225 3.21737 14.142 2.91285H14.1416C14.0016 2.4019 13.7358 2.00987 13.1867 1.96788C13.0511 1.95731 12.9329 1.97173 12.83 2.00346C12.8409 1.94833 12.8649 1.89544 12.8992 1.85088L12.8662 1.85473C13.0659 1.65888 13.3733 1.59317 13.6458 1.65631C13.9179 1.7201 14.1545 1.90153 14.3176 2.12848C14.4808 2.35574 14.576 2.62596 14.6295 2.90067C14.6975 3.25134 14.7003 3.6142 14.6382 3.96552V3.96584Z" fill="var(--fill-0, #450832)"/>
<path id="Vector_78" d="M11.7264 1.25533C11.5241 1.17968 11.2959 1.19186 11.0908 1.25885C10.8853 1.32584 10.7003 1.44413 10.5308 1.57779C9.98361 2.00957 9.5778 2.617 9.38804 3.28758C9.36656 3.36323 9.35053 3.45298 9.40054 3.51389C9.45471 3.57992 9.56337 3.57319 9.63293 3.52318C9.70217 3.47318 9.74192 3.39336 9.78038 3.31707C10.0115 2.85709 10.2846 2.41858 10.5949 2.00796C10.717 1.84673 10.8465 1.68806 11.0071 1.56497C11.1642 1.44509 11.3575 1.35822 11.5581 1.36046C11.6678 1.36143 11.7572 1.39604 11.8562 1.43675C11.903 1.45599 11.9691 1.49093 12.0159 1.46528C11.97 1.36655 11.8248 1.29187 11.7264 1.25533Z" fill="var(--fill-0, #450832)"/>
<path id="Vector_79" d="M12.4963 2.2036C12.2292 2.46805 12.1696 2.85303 12.1696 2.85303C11.5337 2.97708 11.1134 3.18768 11.1134 3.18768C11.1134 3.18768 11.1134 3.188 11.1131 3.18832C11.1131 3.18864 11.1125 3.1896 11.1115 3.19088C11.0907 3.21909 10.9198 3.45149 10.6643 3.83261C10.3467 3.03414 9.80817 3.3332 9.79246 3.34218C10.1678 2.49209 10.7438 1.62374 11.2192 1.46988C12.0337 1.20543 12.4257 2.03628 12.4873 2.18245C12.4882 2.19751 12.4892 2.20681 12.4892 2.20873C12.4911 2.20681 12.4931 2.20489 12.4956 2.20264C12.4959 2.20296 12.4963 2.20328 12.4963 2.2036Z" stroke="var(--stroke-0, black)" stroke-width="0.284929" stroke-linecap="round" stroke-linejoin="round"/>
<path id="Vector_80" d="M12.5836 1.5781C12.4807 1.84127 12.4846 2.10027 12.4888 2.18265C12.4272 2.03648 12.0352 1.20563 11.2207 1.47008C10.3517 1.75152 9.14483 4.42262 9.44486 4.99992C9.0009 5.62082 8.3034 6.46 7.97388 6.13817C7.46902 5.64614 8.99161 1.60535 10.5222 0.91297C12.0397 0.226042 12.5682 1.53835 12.584 1.57778L12.5836 1.5781Z" stroke="var(--stroke-0, black)" stroke-width="0.284929" stroke-linecap="round" stroke-linejoin="round"/>
<path id="Vector_81" d="M15.34 8.66182C15.2835 8.92947 15.204 9.10898 15.0963 9.15931C14.4508 9.46062 14.1209 6.99146 14.1209 6.99146C14.1959 6.54622 14.2466 6.00194 14.2754 5.48362C14.2774 5.449 14.2793 5.4147 14.2812 5.3804C14.2815 5.37623 14.2818 5.37175 14.2818 5.36726C14.2818 5.36566 14.2822 5.36405 14.2822 5.36213C14.2831 5.34194 14.2841 5.32174 14.285 5.30187C14.2988 5.00152 14.3059 4.71495 14.3059 4.46781C14.3065 4.23958 14.3004 4.04501 14.2895 3.90397C14.2632 3.56323 14.2248 3.21608 14.1418 2.91156H14.1414C14.0014 2.40061 13.7356 2.00859 13.1865 1.9666C12.9974 1.95185 12.8423 1.98551 12.7153 2.04641C12.708 2.04994 12.7006 2.05378 12.6939 2.05731C12.6865 2.06116 12.6791 2.06532 12.6721 2.06917C12.6608 2.07526 12.6503 2.08135 12.6397 2.0884C12.639 2.08872 12.6387 2.08904 12.6381 2.08937C12.6294 2.09481 12.6208 2.10026 12.6124 2.10667C12.5701 2.1352 12.5313 2.16726 12.4961 2.20156C12.4938 2.2038 12.4919 2.20572 12.4897 2.20797C12.4897 2.20604 12.4887 2.19675 12.4877 2.18168C12.4836 2.0993 12.4797 1.8403 12.5826 1.57713C12.7115 1.24858 13.0061 0.914568 13.6722 0.912003C13.9119 0.911042 14.12 0.976112 14.2988 1.08734C14.9063 1.4643 15.1845 2.37689 15.2617 3.06831C15.3451 3.81422 15.6224 7.33124 15.34 8.6615V8.66182Z" stroke="var(--stroke-0, black)" stroke-width="0.284929" stroke-linecap="round" stroke-linejoin="round"/>
<path id="Vector_82" d="M16.8628 5.90174C16.013 5.3254 15.4552 6.20081 15.4552 6.20081C15.4238 4.86958 15.31 3.5015 15.2616 3.06844C15.1844 2.37703 14.9061 1.46476 14.2987 1.08747C14.2987 1.08747 14.6635 0.658264 15.1876 0.738401C15.4283 0.774622 15.7027 0.918227 15.9906 1.25993C16.0646 1.34776 16.1335 1.46315 16.1976 1.60163C16.582 2.42928 16.7929 4.08746 16.8563 5.70685C16.8589 5.77192 16.8615 5.83699 16.8634 5.90142L16.8628 5.90174Z" stroke="var(--stroke-0, black)" stroke-width="0.284929" stroke-linecap="round" stroke-linejoin="round"/>
</g>
</svg>
