<svg preserveAspectRatio="none" width="100%" height="100%" overflow="visible" style="display: block;" viewBox="0 0 37.415 43.3118" fill="none" xmlns="http://www.w3.org/2000/svg">
<g id="Illustration">
<path id="Vector" d="M13.2176 10.7075C13.3221 10.9712 13.4932 11.2128 13.7028 11.4323C14.1992 11.9516 14.9128 12.3447 15.4774 12.6007C15.4762 12.6292 15.4746 12.6652 15.4726 12.7093C15.4566 13.1036 15.4125 14.1057 15.3376 15.3434C15.2001 17.6181 14.9589 20.6877 14.5967 22.2395C14.6091 22.2359 14.6179 22.2331 14.6224 22.2315H14.6228C14.6228 22.2315 14.6244 22.2307 14.6252 22.2307C14.6256 22.2307 14.6256 22.2303 14.6256 22.2303L14.6416 22.7155C14.6416 22.7155 18.2834 28.2073 18.1952 28.5891C18.168 28.7065 17.8863 29.0703 17.494 29.5227C18.8888 30.0143 20.0973 29.7222 20.0973 29.7222C19.616 29.1797 19.2518 28.7233 19.221 28.5891C19.1328 28.2073 22.7746 22.7155 22.7746 22.7155L22.7906 22.2303L22.8944 19.0665C23.8356 19.3827 24.8153 19.5417 25.6972 19.3534C26.0654 19.2749 26.4164 19.1354 26.7406 18.9219C31.4694 15.8062 24.1101 5.50265 24.1101 5.50265C24.1101 5.50265 24.1029 6.05038 23.5499 6.40178C23.3352 6.53801 23.0383 6.64459 22.6276 6.67785C21.1583 6.79685 19.0539 5.824 17.843 5.705C16.6322 5.58599 16.5725 5.84403 16.5725 5.84403C16.5725 5.84403 17.4263 8.64319 17.3069 9.1789C17.1879 9.71502 16.9499 10.2708 16.9499 10.2708C16.9499 10.2708 16.5328 8.10708 15.5203 8.08705C14.5078 8.06741 12.6418 9.25864 13.2176 10.7075Z" fill="var(--fill-0, #F3BBB0)" stroke="var(--stroke-0, black)" stroke-width="0.356161" stroke-linecap="round" stroke-linejoin="round"/>
<path id="Vector_2" d="M13.6995 38.9312H23.1283V29.984H13.6995L13.6995 38.9312Z" fill="var(--fill-0, #BF9EF9)" stroke="var(--stroke-0, black)" stroke-width="0.356161" stroke-linecap="round" stroke-linejoin="round"/>
<path id="Vector_3" d="M5.48008 36.9496C6.1977 37.4063 9.29777 36.9259 10.9173 36.6334C10.269 35.9402 9.79141 35.3829 9.63074 35.0948C8.90431 33.7926 7.70266 31.4386 7.70266 31.4386L10.1817 29.8363L8.02802 27.9831C8.02802 27.9831 10.4942 24.6198 11.4546 23.6309C11.4162 23.6413 10.4778 23.8958 9.19881 24.2644C6.55151 25.0269 2.44532 26.2762 1.84711 26.8544C1.6091 27.0844 1.38592 27.3589 1.18478 27.6405C0.631041 28.4159 0.245185 29.2465 0.179473 29.3559C0.0901213 29.5049 4.49721 36.3241 5.48008 36.9496Z" fill="var(--fill-0, #4C70F5)" stroke="var(--stroke-0, black)" stroke-width="0.356161" stroke-linecap="round" stroke-linejoin="round"/>
<path id="Vector_4" d="M7.78301 28.022C7.78301 28.022 8.76468 29.9585 9.37331 30.6244C9.98194 31.29 7.61432 31.5913 7.52777 31.9567C7.44163 32.3221 8.71178 38.4349 10.0613 39.3345C11.4108 40.234 14.0777 38.1172 14.3217 37.7466C14.5657 37.3759 14.5597 31.3429 14.3217 31.078C14.0837 30.8136 11.9136 27.532 11.7285 27.5055C11.5434 27.4791 7.78301 28.0216 7.78301 28.0216V28.022Z" fill="var(--fill-0, #2253DD)"/>
<path id="Vector_5" d="M1.18492 27.6394C1.59923 27.875 2.10248 27.9736 2.5829 27.9451C3.32536 27.9014 4.02655 27.5977 4.68728 27.2571C5.348 26.9162 5.9923 26.5311 6.6995 26.3019C7.09136 26.1745 7.49806 26.0968 7.88792 25.9641C8.27778 25.8315 8.65963 25.636 8.92488 25.321C9.1689 25.0309 9.29671 24.6247 9.19895 24.2632C6.55165 25.0257 2.44546 26.2751 1.84725 26.8532C1.60924 27.0832 1.38606 27.3577 1.18492 27.6394Z" fill="var(--fill-0, #80A1FF)"/>
<path id="Vector_6" d="M9.63074 35.0948C9.79141 35.3829 10.269 35.9402 10.9173 36.6334C9.29777 36.9259 6.1977 37.4063 5.48008 36.9496C4.49721 36.3241 0.0901213 29.5049 0.179473 29.3559C0.268825 29.2068 0.953589 27.7179 1.84711 26.8544C2.73422 25.9969 11.3364 23.663 11.4546 23.6309C10.4942 24.6198 8.02802 27.9831 8.02802 27.9831L10.1817 29.8363L7.70266 31.4386C7.70266 31.4386 8.90431 33.7926 9.63074 35.0948Z" stroke="var(--stroke-0, black)" stroke-width="0.356161" stroke-linecap="round" stroke-linejoin="round"/>
<path id="Vector_7" d="M13.7015 11.4315C13.4919 11.2119 13.3209 10.9703 13.2163 10.7066C12.6405 9.25777 14.5065 8.06655 15.519 8.08618C16.5315 8.10621 16.9486 10.2699 16.9486 10.2699C16.9486 10.2699 17.1866 9.71415 17.3056 9.17804C17.425 8.64232 16.5712 5.84316 16.5712 5.84316C16.5712 5.84316 16.6309 5.58513 17.8417 5.70413C19.0526 5.82313 21.157 6.79598 22.6263 6.67698C24.0952 6.55758 24.1088 5.50178 24.1088 5.50178C24.1088 5.50178 24.7515 4.96207 25.2091 4.16792C25.7199 3.28161 26.0004 2.07876 24.8997 0.956856C23.8307 -0.133398 22.8366 0.0737547 21.8622 0.651136C20.9779 1.17523 20.1096 2.00504 19.2157 2.44699C19.0847 2.5119 18.944 2.5676 18.7954 2.61608C16.8092 3.26919 13.3585 2.66536 11.9117 4.97649C11.7742 5.19647 11.662 5.41524 11.5727 5.63321C10.6535 7.87702 12.1841 9.98701 13.7015 11.4315Z" fill="var(--fill-0, #6D1249)" stroke="var(--stroke-0, black)" stroke-width="0.356161" stroke-linecap="round" stroke-linejoin="round"/>
<path id="Vector_8" d="M14.502 22.5971C14.534 22.4901 14.5653 22.3707 14.5953 22.2409C14.5953 22.2401 14.5953 22.2393 14.5961 22.2385" stroke="var(--stroke-0, black)" stroke-width="0.356161" stroke-linecap="round" stroke-linejoin="round"/>
<path id="Vector_9" d="M27.7842 35.0948C27.6235 35.3829 27.1459 35.9402 26.4976 36.6334C28.1172 36.9259 31.2172 37.4063 31.9349 36.9496C32.9177 36.3241 37.3248 29.5049 37.2355 29.3559C37.1461 29.2068 36.4614 27.7179 35.5678 26.8544C34.6807 25.9969 26.0785 23.663 25.9603 23.6309C26.9207 24.6198 29.3869 27.9831 29.3869 27.9831L27.2333 29.8363L29.7123 31.4386C29.7123 31.4386 28.5106 33.7926 27.7842 35.0948Z" fill="var(--fill-0, #4C70F5)" stroke="var(--stroke-0, black)" stroke-width="0.356161" stroke-linecap="round" stroke-linejoin="round"/>
<path id="Vector_10" d="M27.7842 35.0948C27.6235 35.3829 27.1459 35.9402 26.4976 36.6334C28.1172 36.9259 31.2172 37.4063 31.9349 36.9496C32.9161 36.3249 37.3124 29.5245 37.2359 29.3567C37.2359 29.3563 37.2355 29.3563 37.2355 29.3559C37.1461 29.2068 36.4614 27.7179 35.5678 26.8544C35.0413 26.3455 31.7974 25.3166 29.2223 24.5577C27.4585 24.0372 26.0084 23.6441 25.9603 23.6309C26.9207 24.6198 29.3869 27.9831 29.3869 27.9831L27.2333 29.8363L29.7123 31.4386C29.7123 31.4386 28.5106 33.7926 27.7842 35.0948Z" fill="var(--fill-0, #4C70F5)" stroke="var(--stroke-0, black)" stroke-width="0.356161" stroke-linecap="round" stroke-linejoin="round"/>
<path id="Vector_11" d="M7.70266 31.4376C7.70266 31.4376 8.90431 33.7916 9.63074 35.0939C9.79142 35.382 10.269 35.9393 10.9173 36.6325C13.198 39.0722 17.5855 43.1904 17.644 43.1319C17.6884 43.0875 16.24 37.1678 15.0355 31.985C14.8528 31.198 14.6753 30.4279 14.5098 29.6983C13.9301 27.1423 13.4937 25.0788 13.4621 24.5015C13.3711 22.8414 14.4041 22.3221 14.5952 22.2404C14.604 22.2368 14.6112 22.234 14.616 22.232C14.6112 22.2336 14.6044 22.2356 14.596 22.238C14.4505 22.2849 13.7862 22.5009 13.1135 22.7557C12.5525 22.9684 11.9855 23.2081 11.7091 23.3996C11.6454 23.4437 11.5588 23.523 11.4546 23.63C10.4942 24.6189 8.02802 27.9822 8.02802 27.9822L10.1817 29.8353L7.70266 31.4376Z" fill="var(--fill-0, #4C70F5)" stroke="var(--stroke-0, black)" stroke-width="0.356161" stroke-linecap="round" stroke-linejoin="round"/>
<path id="Vector_12" d="M25.9587 23.6302C25.9587 23.6302 25.9595 23.6302 25.9611 23.631" stroke="var(--stroke-0, black)" stroke-width="0.356161" stroke-linecap="round" stroke-linejoin="round"/>
<path id="Vector_13" d="M16.8408 30.2456C16.8408 30.2456 17.5969 32.546 17.9976 32.7683C18.3983 32.9911 19.5851 33.0356 19.7041 32.9318C19.8227 32.8276 21.0175 30.7128 21.0175 30.7128C20.6998 30.3843 20.3781 30.0381 20.0968 29.7207C20.0968 29.7207 18.8883 30.0128 17.4936 29.5212C17.2972 29.7476 17.074 29.9956 16.8408 30.2456Z" fill="var(--fill-0, #E86F3A)" stroke="var(--stroke-0, black)" stroke-width="0.356161" stroke-linecap="round" stroke-linejoin="round"/>
<path id="Vector_14" d="M16.5579 38.4339C16.5799 38.5261 18.734 41.9186 18.9291 41.9427C19.1242 41.9671 20.6909 39.1307 20.6909 39.1307L19.704 32.9318C19.585 33.0355 18.3982 32.9911 17.9975 32.7683C17.9975 32.7683 16.5362 38.3422 16.5579 38.4339Z" fill="var(--fill-0, #E86F3A)" stroke="var(--stroke-0, black)" stroke-width="0.356161" stroke-linecap="round" stroke-linejoin="round"/>
<path id="Vector_15" d="M29.222 24.557C29.5506 24.8018 29.9048 25.0202 30.2029 25.2418C30.9245 25.7787 31.6466 26.316 32.3682 26.8533C33.1535 27.4375 33.9384 28.0217 34.7238 28.6059C35.2595 29.0046 35.8317 29.4181 36.4964 29.4814C36.744 29.505 37.0045 29.4582 37.2357 29.356C37.2357 29.3556 37.2353 29.3556 37.2353 29.3552C37.1459 29.2061 36.4611 27.7172 35.5676 26.8537C35.0411 26.3449 31.7972 25.3159 29.222 24.557Z" fill="var(--fill-0, #80A1FF)"/>
<path id="Vector_16" d="M12.7011 25.7247C12.8361 27.2016 13.486 28.6261 14.5102 29.6983C13.9304 27.1423 13.494 25.0788 13.4624 24.5015C13.3714 22.8414 14.4044 22.3221 14.5955 22.2404C14.6043 22.2368 14.6115 22.234 14.6163 22.232C14.6115 22.2336 14.6047 22.2356 14.5963 22.238C14.4509 22.2849 13.7865 22.5009 13.1138 22.7557C12.7552 23.6977 12.6089 24.721 12.7011 25.7247Z" fill="var(--fill-0, #80A1FF)"/>
<path id="Vector_17" d="M21.8627 0.651136C21.88 0.667965 21.8984 0.683191 21.9176 0.697215C22.1112 0.840258 22.3604 0.879124 22.5824 0.972883C23.0876 1.18645 23.4242 1.67327 23.6522 2.17172C23.8806 2.67057 24.0304 3.20668 24.3109 3.67788C24.468 3.94113 24.7076 4.20358 25.0141 4.20358C25.0826 4.20358 25.1475 4.19075 25.2096 4.16792C25.7205 3.28161 26.001 2.07876 24.9003 0.956856C23.8313 -0.133398 22.8372 0.0737547 21.8627 0.651136Z" fill="var(--fill-0, #932A6E)"/>
<path id="Vector_18" d="M11.5723 5.63404C11.6208 5.68934 11.6761 5.73862 11.7382 5.77989C12.0924 6.01469 12.5784 5.93535 12.9486 5.7262C13.3189 5.51704 13.613 5.1985 13.9459 4.93405C14.5097 4.48649 15.1944 4.19279 15.9073 4.09262C16.3352 4.03252 16.7707 4.04093 17.1991 3.98243C17.6274 3.92433 18.0633 3.78971 18.3763 3.4916C18.6155 3.26361 18.7629 2.94547 18.795 2.61691C16.8088 3.27002 13.3581 2.6662 11.9113 4.97732C11.7738 5.1973 11.6616 5.41607 11.5723 5.63404Z" fill="var(--fill-0, #932A6E)"/>
<path id="Vector_19" d="M7.70266 31.4388C7.70266 31.4388 8.90431 33.7928 9.63074 35.095C9.79142 35.3831 10.269 35.9405 10.9173 36.6337C13.198 39.0734 17.5855 43.1916 17.644 43.1331C17.6884 43.0886 16.24 37.169 15.0355 31.9862C14.2121 28.4433 13.5029 25.2447 13.4621 24.5026C13.3711 22.8426 14.4041 22.3233 14.5952 22.2416C14.608 22.2364 14.6168 22.2328 14.6216 22.2312C14.6172 22.2328 14.6084 22.2356 14.596 22.2392C14.3291 22.3253 12.3165 22.98 11.7091 23.4008C11.6454 23.4448 11.5588 23.5242 11.4546 23.6311C10.4942 24.62 8.02802 27.9833 8.02802 27.9833L10.1817 29.8365L7.70266 31.4388Z" stroke="var(--stroke-0, black)" stroke-width="0.356161" stroke-linecap="round" stroke-linejoin="round"/>
<path id="Vector_20" d="M27.7842 35.0948C27.6235 35.3829 27.1459 35.9402 26.4976 36.6334C28.1172 36.9259 31.2172 37.4063 31.9349 36.9496C32.9177 36.3241 37.3248 29.5049 37.2355 29.3559C37.1461 29.2068 36.4614 27.7179 35.5678 26.8544C34.6807 25.9969 26.0785 23.663 25.9603 23.6309C26.9207 24.6198 29.3869 27.9831 29.3869 27.9831L27.2333 29.8363L29.7123 31.4386C29.7123 31.4386 28.5106 33.7926 27.7842 35.0948Z" stroke="var(--stroke-0, black)" stroke-width="0.356161" stroke-linecap="round" stroke-linejoin="round"/>
<path id="Vector_21" d="M25.8273 14.0352C25.9471 15.3831 25.9367 16.743 25.7904 18.0889C25.7452 18.5088 25.6867 18.9335 25.6971 19.3534C26.0653 19.2749 26.4163 19.1354 26.7405 18.9219C31.4693 15.8062 24.11 5.50265 24.11 5.50265C24.11 5.50265 24.1028 6.05038 23.5498 6.40178C23.7141 6.64059 23.876 6.87178 23.9786 7.09376C24.9883 9.27827 25.6137 11.6383 25.8273 14.0352Z" fill="var(--fill-0, #F9DFDC)"/>
<path id="Vector_22" d="M15.3369 15.3423C15.4587 15.2221 15.5385 15.0659 15.6158 14.9128C15.8154 14.5173 16.0157 14.1226 16.2148 13.7272C16.3431 13.4727 16.4733 13.1971 16.2609 12.947C16.0714 12.7239 15.7725 12.665 15.472 12.7082C15.4559 13.1025 15.4119 14.1046 15.3369 15.3423Z" fill="var(--fill-0, #F09E8B)"/>
<path id="Vector_23" d="M18.5852 16.6941C18.5852 16.6941 18.8068 21.2855 22.8056 21.745L22.8933 19.0665C22.8933 19.0665 19.4972 17.4501 18.5848 16.6941H18.5852Z" fill="var(--fill-0, #ED7D66)"/>
<path id="Vector_24" d="M16.2756 10.6013C16.2026 10.2956 16.0027 10.056 15.7058 9.8348C15.4089 9.61362 14.9221 9.50664 14.5446 9.64968C14.3327 9.73022 14.1692 9.90612 14.2249 10.0756C14.273 10.2231 14.4625 10.3192 14.6444 10.3913C15.1849 10.6057 15.6 10.6434 16.2143 10.6726" fill="var(--fill-0, #ED7D66)"/>
<path id="Vector_25" d="M29.4531 28.022C29.4531 28.022 28.4714 29.9585 27.8628 30.6244C27.2541 31.29 29.6218 31.5913 29.7083 31.9567C29.7944 32.3221 28.5243 38.4349 27.1748 39.3345C25.8253 40.234 23.1584 38.1172 22.9144 37.7466C22.6703 37.3759 22.6763 31.3429 22.9144 31.078C23.1524 30.8136 25.3224 27.532 25.5076 27.5055C25.6927 27.4791 29.4531 28.0216 29.4531 28.0216V28.022Z" fill="var(--fill-0, #2253DD)"/>
<path id="Vector_26" d="M19.7715 43.1331C19.83 43.1916 24.2175 39.0734 26.4982 36.6337C27.1465 35.9405 27.6241 35.3831 27.7848 35.095C28.5112 33.7928 29.7128 31.4388 29.7128 31.4388L27.2338 29.8365L29.3875 27.9833C29.3875 27.9833 26.9213 24.62 25.9609 23.6311C25.8567 23.5242 25.7701 23.4448 25.7064 23.4008C25.672 23.3767 25.6331 23.3523 25.5902 23.327C24.9243 22.936 23.3083 22.3983 22.8904 22.2624C22.8379 22.2452 22.8047 22.2348 22.7939 22.2312C22.8043 22.2352 22.8363 22.2476 22.8836 22.2712C23.1737 22.4167 24.0368 22.9792 23.9534 24.5026C23.9154 25.1914 23.3019 27.9954 22.5559 31.2273C22.4978 31.4781 22.4393 31.7313 22.38 31.9862C21.1755 37.169 19.7271 43.0886 19.7715 43.1331Z" fill="var(--fill-0, #4C70F5)" stroke="var(--stroke-0, black)" stroke-width="0.356161" stroke-linecap="round" stroke-linejoin="round"/>
<path id="Vector_27" d="M22.5546 31.2261C22.5566 31.2349 22.5582 31.2442 22.5602 31.253C23.4877 30.0169 24.2699 28.7095 24.8957 27.3503C25.2427 26.5963 25.5432 25.8217 25.6586 25.0128C25.738 24.459 25.7279 23.8881 25.5889 23.3259C24.923 22.9348 23.307 22.3971 22.8891 22.2613C22.8867 22.2641 22.8843 22.2669 22.8823 22.2701C23.1724 22.4156 24.0355 22.9781 23.9521 24.5015C23.9141 25.1903 23.3006 27.9942 22.5546 31.2261Z" fill="var(--fill-0, #80A1FF)"/>
<path id="Vector_28" d="M19.7715 43.1331C19.83 43.1916 24.2175 39.0734 26.4982 36.6337C27.1465 35.9405 27.6241 35.3831 27.7848 35.095C28.5112 33.7928 29.7128 31.4388 29.7128 31.4388L27.2338 29.8365L29.3875 27.9833C29.3875 27.9833 26.9213 24.62 25.9609 23.6311C25.8567 23.5242 25.7701 23.4448 25.7064 23.4008C25.0705 22.9604 22.8956 22.2636 22.7939 22.2312C22.8684 22.2592 24.0504 22.732 23.9534 24.5026C23.9126 25.2447 23.2034 28.4433 22.38 31.9862C21.1755 37.169 19.7271 43.0886 19.7715 43.1331Z" stroke="var(--stroke-0, black)" stroke-width="0.356161" stroke-linecap="round" stroke-linejoin="round"/>
<path id="Vector_29" d="M22.8945 19.0665C20.6712 18.3192 18.6621 16.6941 18.6621 16.6941" stroke="var(--stroke-0, black)" stroke-width="0.356161" stroke-linecap="round" stroke-linejoin="round"/>
<path id="Vector_30" d="M15.4769 12.5998C15.9854 12.8306 16.3736 12.95 16.3736 12.95" stroke="var(--stroke-0, black)" stroke-width="0.356161" stroke-linecap="round" stroke-linejoin="round"/>
<path id="Vector_31" d="M13.2176 10.7075C13.3221 10.9712 13.4932 11.2128 13.7028 11.4323C14.1992 11.9516 14.9128 12.3447 15.4774 12.6007C15.4474 13.3508 15.1781 19.7493 14.5967 22.2395C14.6091 22.2359 14.6179 22.2331 14.6224 22.2315H14.6228C14.6228 22.2315 14.6244 22.2307 14.6252 22.2307C14.6256 22.2307 14.6256 22.2303 14.6256 22.2303L14.6416 22.7155C14.6416 22.7155 18.2834 28.2073 18.1952 28.5891C18.168 28.7065 17.8863 29.0703 17.494 29.5227C18.8888 30.0143 20.0973 29.7222 20.0973 29.7222C19.616 29.1797 19.2518 28.7233 19.221 28.5891C19.1328 28.2073 22.7746 22.7155 22.7746 22.7155L22.7906 22.2303L22.8944 19.0665C24.2287 19.5149 25.6399 19.6471 26.7406 18.9219C31.4694 15.8062 24.1101 5.50265 24.1101 5.50265C24.1101 5.50265 24.0965 6.55845 22.6276 6.67785C21.1583 6.79685 19.0539 5.824 17.843 5.705C16.6322 5.58599 16.5725 5.84403 16.5725 5.84403C16.5725 5.84403 17.4263 8.64319 17.3069 9.1789C17.1879 9.71502 16.9499 10.2708 16.9499 10.2708C16.9499 10.2708 16.5328 8.10708 15.5203 8.08705C14.5078 8.06741 12.6418 9.25864 13.2176 10.7075Z" stroke="var(--stroke-0, black)" stroke-width="0.356161" stroke-linecap="round" stroke-linejoin="round"/>
<path id="Vector_32" d="M19.22 28.5119C19.2508 28.6461 19.615 29.1025 20.0962 29.645C20.3775 29.9623 20.6993 30.3085 21.017 30.6371C21.5463 31.1836 22.0668 31.6804 22.3789 31.9092C22.5047 31.3671 22.6281 30.833 22.7467 30.3145C23.4039 27.4448 23.9179 25.0544 23.9524 24.4257C24.0494 22.6551 22.8674 22.1823 22.7928 22.1542C22.7928 22.1542 22.7912 22.1534 22.7904 22.1534C22.79 22.1534 22.79 22.153 22.79 22.153L22.7872 22.2428L22.774 22.6383C22.774 22.6383 19.1322 28.13 19.2204 28.5119H19.22Z" fill="var(--fill-0, #F5D256)" stroke="var(--stroke-0, black)" stroke-width="0.356161" stroke-linecap="round" stroke-linejoin="round"/>
<path id="Vector_33" d="M13.4627 24.4257C13.4976 25.056 14.0141 27.4581 14.6736 30.3382C14.7906 30.8494 14.912 31.3755 15.0362 31.9092C15.4361 31.6159 16.1773 30.8835 16.8413 30.1699C17.0745 29.9199 17.2976 29.6718 17.494 29.4454C17.8862 28.9931 18.1679 28.6293 18.1952 28.5119C18.2833 28.13 14.6415 22.6383 14.6415 22.6383L14.6271 22.2027L14.6255 22.153C14.6255 22.153 14.6255 22.1534 14.6251 22.1534C14.6243 22.1534 14.6235 22.1538 14.6227 22.1542H14.6223C14.6175 22.1559 14.6087 22.1595 14.5958 22.1647C14.4047 22.2464 13.3718 22.7657 13.4627 24.4257Z" fill="var(--fill-0, #F5D256)" stroke="var(--stroke-0, black)" stroke-width="0.356161" stroke-linecap="round" stroke-linejoin="round"/>
<path id="Vector_34" d="M26.4116 1.05197C26.8844 1.51636 27.0298 2.25041 26.8808 2.89631C26.7317 3.5422 26.3218 4.10436 25.8286 4.54671C25.3354 4.98906 24.7576 5.32564 24.1846 5.659C24.7255 5.81367 25.4455 5.86776 25.9672 5.6578C26.4889 5.44784 26.9373 5.05998 27.2202 4.57396" stroke="var(--stroke-0, black)" stroke-width="0.356161" stroke-linecap="round" stroke-linejoin="round"/>
<path id="Vector_35" d="M13.7015 11.4314C13.492 11.2119 13.3209 10.9703 13.2163 10.7066C12.6405 9.25774 14.5065 8.06652 15.519 8.08615C16.5316 8.10618 16.9487 10.2699 16.9487 10.2699C16.9487 10.2699 17.1867 9.71412 17.3057 9.17801C17.4251 8.64229 16.5712 5.84313 16.5712 5.84313C16.5712 5.84313 16.6309 5.5851 17.8418 5.7041C19.0526 5.8231 21.157 6.79595 22.6263 6.67695C24.0952 6.55755 24.1088 5.50175 24.1088 5.50175C24.1088 5.50175 26.9865 3.08444 24.8998 0.956826C22.8603 -1.12271 21.0941 1.51778 19.2157 2.44696C17.3373 3.37614 13.4671 2.49224 11.9117 4.97646C10.3563 7.46109 12.0371 9.84674 13.7015 11.4314Z" stroke="var(--stroke-0, black)" stroke-width="0.356161" stroke-linecap="round" stroke-linejoin="round"/>
<path id="Vector_36" d="M13.4627 24.4257C13.4976 25.056 14.0141 27.4581 14.6736 30.3382C14.8034 30.2644 14.9076 30.1426 14.9753 30.008C15.0694 29.8201 15.1023 29.6073 15.1255 29.3978C15.2385 28.3668 15.1404 27.3134 14.8391 26.3209C14.6187 25.5961 14.2905 24.8997 14.1743 24.1512C14.0685 23.4705 14.1755 22.7072 14.6271 22.2027L14.6255 22.153C14.6255 22.153 14.6255 22.1534 14.6251 22.1534C14.6243 22.1534 14.6235 22.1538 14.6227 22.1542H14.6223C14.6175 22.1559 14.6087 22.1595 14.5958 22.1647C14.4047 22.2464 13.3718 22.7657 13.4627 24.4257Z" fill="var(--fill-0, #CEA625)"/>
<path id="Vector_37" d="M22.7473 30.3145C23.4044 27.4448 23.9185 25.0544 23.9529 24.4257C24.0499 22.6551 22.8679 22.1823 22.7934 22.1542C22.7934 22.1542 22.7918 22.1534 22.791 22.1534C22.7906 22.1534 22.7906 22.153 22.7906 22.153L22.7877 22.2428C23.1075 22.3374 23.3507 22.6407 23.4401 22.9684C23.5402 23.3379 23.4805 23.7309 23.3908 24.1028C23.2145 24.8308 22.926 25.5252 22.6772 26.2316C22.4287 26.938 22.2176 27.6688 22.2052 28.4177C22.1939 29.0864 22.357 29.7768 22.7477 30.3145H22.7473Z" fill="var(--fill-0, #CEA625)"/>
<path id="Vector_38" d="M19.22 28.5884C19.2508 28.7226 19.615 29.179 20.0962 29.7215C20.3775 30.0388 20.6993 30.385 21.017 30.7136C21.5463 31.2601 22.0668 31.757 22.3789 31.9857C23.2023 28.4429 23.9115 25.2443 23.9524 24.5022C24.0494 22.7316 22.8674 22.2588 22.7928 22.2308C22.7928 22.2308 22.7912 22.23 22.7904 22.23C22.79 22.23 22.79 22.2296 22.79 22.2296L22.774 22.7148C22.774 22.7148 19.1322 28.2065 19.2204 28.5884H19.22Z" stroke="var(--stroke-0, black)" stroke-width="0.356161" stroke-linecap="round" stroke-linejoin="round"/>
<path id="Vector_39" d="M13.4627 24.5022C13.5036 25.2443 14.2128 28.4429 15.0362 31.9857C15.4361 31.6924 16.1773 30.96 16.8413 30.2464C17.0745 29.9964 17.2976 29.7483 17.494 29.522C17.8862 29.0696 18.1679 28.7058 18.1952 28.5884C18.2833 28.2065 14.6415 22.7148 14.6415 22.7148L14.6255 22.2296C14.6255 22.2296 14.6255 22.23 14.6251 22.23C14.6243 22.23 14.6235 22.23 14.6227 22.2308H14.6223C14.6175 22.2324 14.6087 22.236 14.5958 22.2412C14.4047 22.3229 13.3718 22.8422 13.4627 24.5022Z" stroke="var(--stroke-0, black)" stroke-width="0.356161" stroke-linecap="round" stroke-linejoin="round"/>
<path id="Vector_40" d="M16.2053 10.5556C15.8883 9.94176 15.192 9.54508 14.502 9.58595" stroke="var(--stroke-0, black)" stroke-width="0.356161" stroke-linecap="round" stroke-linejoin="round"/>
<path id="Vector_41" d="M15.4793 9.96474C15.2405 10.0565 15.0329 10.228 14.8975 10.4452" stroke="var(--stroke-0, black)" stroke-width="0.356161" stroke-linecap="round" stroke-linejoin="round"/>
<g id="Group">
<path id="Vector_42" d="M23.5791 15.1888C23.491 15.1816 22.7537 15.5018 21.9259 14.7609C21.0981 14.0201 21.4459 13.1854 21.4459 13.1854" stroke="var(--stroke-0, black)" stroke-width="0.356161" stroke-linecap="round" stroke-linejoin="round"/>
<path id="Vector_43" d="M21.987 13.1386C21.987 13.1386 21.4176 12.9066 20.9372 13.5144" stroke="var(--stroke-0, black)" stroke-width="0.356161" stroke-linecap="round" stroke-linejoin="round"/>
</g>
<path id="Vector_44" d="M24.1703 11.0772C24.1703 11.0772 25.3471 12.8743 25.0109 13.186C24.6747 13.4977 23.8509 12.9504 23.8509 12.9504" stroke="var(--stroke-0, black)" stroke-width="0.356161" stroke-linecap="round" stroke-linejoin="round"/>
</g>
</svg>
