<svg preserveAspectRatio="none" width="100%" height="100%" overflow="visible" style="display: block;" viewBox="0 0 38.3509 34.9577" fill="none" xmlns="http://www.w3.org/2000/svg">
<g id="Illustration">
<g id="Group">
<path id="Vector" d="M26.5514 11.2842C25.214 10.8122 24.3124 11.8251 24.3124 11.8251C24.0933 9.43943 23.3805 5.91304 22.5298 3.70448C22.5298 3.70448 22.5615 2.99608 23.0026 2.98085C23.1212 2.97645 23.2691 3.02212 23.4542 3.14513C23.9342 3.46407 24.4511 4.37683 24.9327 5.56244C25.6086 7.22767 26.2149 9.43102 26.551 11.2846L26.5514 11.2842Z" fill="var(--fill-0, #6D1249)" stroke="var(--stroke-0, black)" stroke-width="0.356161" stroke-linecap="round" stroke-linejoin="round"/>
<path id="Vector_2" d="M26.63 14.8324C26.4849 15.0207 26.3146 15.0583 26.1303 14.9894C25.5461 14.7719 24.8269 13.4829 24.3637 12.5309C24.3521 12.3101 24.3349 12.0737 24.312 11.8249C24.312 11.8249 25.2136 10.8115 26.551 11.2839C26.8636 13.0065 26.9433 14.4265 26.6304 14.8324H26.63Z" fill="var(--fill-0, #F5D256)" stroke="var(--stroke-0, black)" stroke-width="0.356161" stroke-linecap="round" stroke-linejoin="round"/>
<path id="Vector_3" d="M24.933 5.56241C24.8693 5.56962 24.8007 5.56041 24.741 5.53957C24.4181 5.42858 24.2234 5.10363 24.0915 4.7883C23.9601 4.47336 23.8563 4.13118 23.6139 3.89077C23.5021 3.77978 23.3659 3.69644 23.2457 3.59467C23.047 3.42638 22.9596 3.23245 23.0029 2.98082C23.1215 2.97642 23.2693 3.02209 23.4545 3.1451C23.9345 3.46404 24.4513 4.3768 24.933 5.56241Z" fill="var(--fill-0, #961E6C)"/>
<path id="Vector_4" d="M26.5514 11.2838C25.214 10.8118 24.3124 11.8247 24.3124 11.8247C24.0933 9.43902 23.3805 5.91262 22.5298 3.70407C22.5298 3.70407 22.5803 2.56413 23.4542 3.14432C24.6085 3.91082 25.9753 8.10956 26.551 11.2834L26.5514 11.2838Z" stroke="var(--stroke-0, black)" stroke-width="0.356161" stroke-linecap="round" stroke-linejoin="round"/>
</g>
<path id="Vector_5" d="M23.9856 6.4306C24.3823 7.14822 24.8987 7.81415 25.1295 8.60109C25.2666 9.06748 25.2794 9.62082 24.9616 9.98865C24.9204 10.0367 24.8599 10.0844 24.7994 10.0648C24.7136 10.0371 24.7196 9.91613 24.7304 9.82637C24.7661 9.53828 24.6679 9.24819 24.5257 8.99496C24.3835 8.74173 24.1979 8.51655 24.0369 8.27493C23.4963 7.46396 23.2487 6.49871 23.0103 5.55391C22.9194 5.1941 22.8284 4.83388 22.7587 4.46926C22.7282 4.30939 22.5343 3.76927 22.796 3.74724C23.0436 3.7264 23.0953 4.2549 23.1498 4.42198C23.2559 4.74774 23.3693 5.07109 23.4967 5.38883C23.6394 5.74503 23.7997 6.09443 23.9856 6.4302V6.4306Z" fill="var(--fill-0, #450832)"/>
<path id="Vector_6" d="M38.1473 34.7788H0.202756C0.202756 34.7788 -0.187106 28.0125 2.13244 25.5664C2.43976 25.2422 3.12853 24.9277 4.03607 24.6272C4.30934 24.5362 4.60183 24.4473 4.90996 24.3595C7.39578 23.6511 10.8793 23.0345 13.0189 22.5821L14.3284 22.544L15.1999 22.5184L25.1219 22.2283L25.5486 22.2159C28.4464 22.9535 34.0928 24.1412 35.8602 25.2815C36.0076 25.3773 36.129 25.4726 36.2188 25.5672C38.5383 28.0133 38.1481 34.7796 38.1481 34.7796L38.1473 34.7788Z" fill="var(--fill-0, #E86F3A)" stroke="var(--stroke-0, black)" stroke-width="0.356161" stroke-linecap="round" stroke-linejoin="round"/>
<path id="Vector_7" d="M24.363 13.6354C24.3354 13.9708 24.2753 14.2031 24.1783 14.3033C23.5713 14.9276 22.7122 12.8504 22.2895 11.6745C22.2478 11.5571 22.2098 11.4489 22.1773 11.3535C22.0872 11.0903 22.0351 10.9216 22.0351 10.9216L21.6396 9.36813L21.1436 7.42202L21.138 7.39918L21.0702 7.13353C20.9965 5.25113 20.7633 3.32706 20.3442 2.2344C20.3422 2.22759 20.3398 2.22158 20.337 2.21477C20.3294 2.19593 20.3222 2.1775 20.3146 2.15907C20.2925 2.10418 20.2697 2.05169 20.2464 2.0016C20.3278 1.8253 20.5385 1.50676 20.9817 1.60533C21.0847 1.62817 21.1997 1.67345 21.3287 1.74797C21.7101 1.96795 22.096 2.62186 22.4586 3.52379C22.4822 3.58269 22.5059 3.64239 22.5291 3.7029C22.8913 4.64289 23.2283 5.8225 23.5132 7.05059C23.7849 8.22218 24.0084 9.43825 24.1607 10.5349C24.2633 11.2702 24.3326 11.9517 24.3634 12.5291C24.3863 12.9634 24.3871 13.3393 24.3626 13.635L24.363 13.6354Z" fill="var(--fill-0, #6D1249)" stroke="var(--stroke-0, black)" stroke-width="0.356161" stroke-linecap="round" stroke-linejoin="round"/>
<path id="Vector_8" d="M22.458 3.5252C22.4324 3.63539 22.4023 3.74437 22.3679 3.85216C22.2084 3.89262 22.0365 3.82411 21.9139 3.71392C21.7913 3.60413 21.7084 3.45829 21.627 3.31524C21.4623 3.02435 21.2981 2.73305 21.1334 2.44256C21.0568 2.30673 20.9787 2.16849 20.9423 2.01623C20.9098 1.88 20.9146 1.72855 20.9807 1.60634C21.0837 1.62918 21.1987 1.67445 21.3277 1.74898C21.7092 1.96895 22.095 2.62287 22.4576 3.5248L22.458 3.5252Z" fill="var(--fill-0, #961E6C)"/>
<path id="Vector_9" d="M24.3634 13.6359C24.3358 13.9713 24.2757 14.2037 24.1787 14.3038C23.5717 14.9281 22.7126 12.851 22.2899 11.675C22.2483 11.5576 22.2102 11.4494 22.1777 11.354C22.0876 11.0908 22.0355 10.9221 22.0355 10.9221L21.64 9.36864L21.144 7.42253L21.0707 7.13404C20.9913 5.1098 20.7277 3.03708 20.2473 2.00252C20.347 1.78535 20.6443 1.35221 21.3295 1.74889C21.7358 1.98369 22.1469 2.70972 22.5299 3.70381C22.8921 4.64381 23.2291 5.82341 23.514 7.0515C23.7857 8.22309 24.0092 9.43916 24.1615 10.5358C24.2641 11.2711 24.3334 11.9526 24.3643 12.53C24.3871 12.9644 24.3879 13.3402 24.3634 13.6359Z" stroke="var(--stroke-0, black)" stroke-width="0.356161" stroke-linecap="round" stroke-linejoin="round"/>
<path id="Vector_10" d="M21.4507 7.23327C21.4002 7.34867 21.284 7.47208 21.1694 7.42039C21.1574 7.41518 21.1466 7.40837 21.137 7.39996L21.0693 7.1343C20.9955 5.2519 20.7623 3.32783 20.3432 2.23517L20.2042 2.2476L20.1561 2.2516C20.1994 2.20552 20.2539 2.17547 20.3136 2.15985C20.4302 2.1302 20.5652 2.15544 20.6698 2.22035C20.8272 2.31852 20.9278 2.486 21.0104 2.65268C21.5513 3.74174 21.5737 5.00589 21.5849 6.22195C21.5881 6.56494 21.5889 6.91954 21.4503 7.23287L21.4507 7.23327Z" fill="var(--fill-0, #450832)"/>
<path id="Vector_11" d="M24.1611 10.536C23.6419 10.9507 22.8966 11.2208 22.177 11.3542C22.2098 11.4496 22.2475 11.5578 22.2892 11.6752C22.3252 12.166 22.3998 13.1485 22.5023 14.3353C22.5023 14.3353 22.5023 14.3361 22.5027 14.3381C22.7832 17.5956 23.2724 21.2963 23.746 21.6685C23.746 21.6685 22.3433 27.4179 18.5692 27.4179C14.7952 27.4179 14.8113 22.0592 14.8113 22.0592C15.1703 21.7767 15.24 21.5664 15.2195 20.3291C15.2043 19.4167 15.1398 18.5396 15.1062 18.1321C15.0937 17.9811 15.0853 17.8945 15.0853 17.8945C14.2375 18.163 13.3396 18.2948 12.4981 18.1289C11.6631 17.9638 10.8838 17.5063 10.2627 16.5983C9.71699 15.801 9.53108 14.8237 9.58357 13.7687C9.64727 12.4793 10.0672 11.0745 10.6217 9.74227C11.2224 8.29741 11.982 6.9379 12.6175 5.90374C12.6203 5.89933 12.8848 5.78193 13.3163 5.6453C13.9582 5.44216 14.9699 5.19734 16.0389 5.21938C15.9604 7.16869 16.0405 9.94742 17.1364 9.94541C17.3588 9.94501 17.5267 9.43935 17.6465 8.73816C17.7414 8.18202 17.8059 7.50246 17.844 6.85496C17.8079 7.50286 17.7446 8.18322 17.6509 8.73976C17.6509 8.73976 18.0628 11.8266 18.8702 11.4496C19.0048 11.3867 19.1046 11.1623 19.1747 10.8277C19.4259 11.6399 19.8478 12.4865 20.5073 12.4016C20.9397 12.3455 21.1524 10.0159 21.0819 7.50647C21.1019 7.47802 21.1224 7.44997 21.1428 7.42232C21.2366 7.29731 21.3379 7.17911 21.4469 7.07373C21.965 6.57408 22.6538 6.36493 23.5128 7.05129C23.6475 7.15868 23.7865 7.2885 23.9296 7.44236C24.0838 7.60824 24.216 7.76851 24.3278 7.92358C25.1753 9.09036 24.8892 9.95503 24.1603 10.5356L24.1611 10.536Z" fill="var(--fill-0, #94624B)" stroke="var(--stroke-0, black)" stroke-width="0.356161" stroke-linecap="round" stroke-linejoin="round"/>
<path id="Vector_12" d="M18.9342 15.9862C18.9374 17.7969 17.8752 19.5699 16.2769 20.4206C16.0898 20.5199 15.8826 20.6101 15.673 20.5804C15.4975 20.5556 15.3509 20.4526 15.2207 20.328C15.2054 19.4157 15.1409 18.5386 15.1073 18.1311C15.2511 17.9948 15.4086 17.871 15.5653 17.7492L18.9342 15.9862Z" fill="var(--fill-0, #663421)"/>
<path id="Vector_13" d="M13.3287 6.05272C13.1873 6.48986 12.9509 6.90777 12.7934 7.34291C12.1483 9.12234 11.847 11.0248 11.9039 12.9168C11.9356 13.9802 12.081 15.0404 12.3423 16.0718C12.4649 16.5574 12.6139 17.0454 12.6027 17.5463C12.5983 17.7414 12.5642 17.9417 12.4981 18.1281C11.6631 17.963 10.8838 17.5054 10.2627 16.5974C9.71699 15.8001 9.53108 14.8228 9.58357 13.7678C9.64727 12.4784 10.0672 11.0737 10.6217 9.74139C11.2224 8.29653 11.982 6.93702 12.6175 5.90286C12.6203 5.89845 12.8848 5.78106 13.3163 5.64442C13.3724 5.75381 13.3796 5.89405 13.3287 6.05272Z" fill="var(--fill-0, #AD8679)"/>
<path id="Vector_14" d="M15.5898 6.45207C15.5445 7.50105 15.5001 8.56126 15.6948 9.59301C15.7569 9.92197 15.8707 10.283 16.166 10.4401C16.3868 10.5579 16.6568 10.5302 16.894 10.6103C17.3075 10.7502 17.5399 11.1777 17.7298 11.5708C17.9198 11.9638 18.143 12.3934 18.5516 12.5464C18.6931 12.5993 18.8457 12.6137 18.9924 12.6494C19.3382 12.7336 19.6523 12.9415 19.8651 13.2268C19.9492 13.3394 20.0181 13.4644 20.1187 13.563C20.2193 13.6615 20.3627 13.7308 20.4994 13.6972C20.6328 13.6643 20.7273 13.5389 20.7634 13.4067C20.7995 13.2745 20.7866 13.1338 20.7722 12.9972C20.5923 11.2979 20.1804 9.63268 19.7429 7.98067C19.4868 7.01383 19.1939 6.0013 18.4795 5.30172C18.0496 4.8806 17.4566 4.59692 16.8568 4.6446C16.4966 4.67345 15.8615 4.85776 15.6691 5.20114C15.599 5.32576 15.6275 5.48322 15.6251 5.61986C15.6203 5.89713 15.6018 6.1748 15.5898 6.45207Z" fill="var(--fill-0, #7C412E)"/>
<path id="Vector_15" d="M14.321 26.1997C14.2244 26.9509 14.0806 27.7271 13.6382 28.3421C13.1955 28.9571 12.3729 29.361 11.6625 29.0978C10.6323 28.7167 10.3691 27.2386 9.35134 26.8259C8.0952 26.3163 6.67238 27.7767 5.40944 27.2855C4.84969 27.0679 4.49188 26.5118 4.28873 25.9472C4.13607 25.5237 4.05193 25.0765 4.0355 24.627C4.30877 24.536 4.60126 24.4471 4.90939 24.3593C7.39521 23.6509 10.8787 23.0343 13.0184 22.5819L14.3278 22.5438C14.5414 23.7475 14.4769 24.9864 14.3206 26.1997H14.321Z" fill="var(--fill-0, #49A2A6)" stroke="var(--stroke-0, black)" stroke-width="0.356161" stroke-linecap="round" stroke-linejoin="round"/>
<path id="Vector_16" d="M35.768 25.2798C35.447 26.3147 34.7911 27.2415 33.8731 27.8161C33.0561 28.3274 31.9002 28.5189 31.1806 27.8778C30.6196 27.3782 30.5098 26.5568 30.1644 25.8896C29.587 24.7745 28.2452 24.1118 27.0091 24.3314C26.6208 24.4003 26.247 24.5461 25.8551 24.5862C25.4624 24.6263 25.0233 24.5353 24.7833 24.2224C24.4892 23.8385 24.601 23.288 24.7717 22.8356C24.8442 22.6429 24.9311 22.4378 25.0305 22.2266L25.4576 22.2142C28.3549 22.9518 34.0017 24.1394 35.7684 25.2798H35.768Z" fill="var(--fill-0, #49A2A6)" stroke="var(--stroke-0, black)" stroke-width="0.356161" stroke-linecap="round" stroke-linejoin="round"/>
<path id="Vector_17" d="M33.541 34.7782H21.4432C21.289 34.1976 21.2846 33.5773 21.4536 33C21.8103 31.7827 22.9197 30.8219 24.1755 30.6436C25.4809 30.458 26.7715 31.053 28.0897 31.0911C28.8787 31.114 29.6692 30.936 30.4533 31.0222C31.6638 31.1548 32.7805 31.9638 33.2725 33.0769C33.5073 33.6082 33.5943 34.1996 33.5406 34.7778L33.541 34.7782Z" fill="var(--fill-0, #49A2A6)" stroke="var(--stroke-0, black)" stroke-width="0.356161" stroke-linecap="round" stroke-linejoin="round"/>
<path id="Vector_18" d="M13.5108 34.7783H2.09458C2.32978 33.3318 4.12924 32.1899 5.40702 31.9154C7.1015 31.5516 8.8669 31.998 10.4848 32.621C11.2101 32.9003 11.9293 33.2208 12.5427 33.698C12.9254 33.9962 13.266 34.3612 13.5108 34.7783Z" fill="var(--fill-0, #49A2A6)" stroke="var(--stroke-0, black)" stroke-width="0.356161" stroke-linecap="round" stroke-linejoin="round"/>
<path id="Vector_19" d="M22.0765 9.88194C22.3374 9.76695 22.6226 9.70805 22.9075 9.71005C23.053 9.71125 23.204 9.72728 23.3399 9.67519C23.4565 9.63031 23.549 9.54016 23.632 9.4468C23.7113 9.35745 23.7866 9.26089 23.8235 9.14749C23.8603 9.0341 23.8523 8.89987 23.777 8.80732C23.7125 8.72838 23.6083 8.69032 23.5069 8.68431C23.4056 8.6783 23.3042 8.69993 23.2048 8.72157C22.8518 8.7985 22.4968 8.87583 22.1619 9.01126C21.8545 9.13507 21.3757 9.35745 21.286 9.71606C21.2491 9.86391 21.324 9.97931 21.4679 10.0246C21.681 10.0915 21.8886 9.96488 22.0765 9.88194Z" fill="var(--fill-0, #663421)"/>
<path id="Vector_20" d="M24.3281 7.92324C24.2187 8.11437 24.0376 8.27384 23.826 8.24739C23.681 8.22896 23.5608 8.12558 23.471 8.00979C23.3821 7.89399 23.3144 7.76217 23.219 7.65118C23.0087 7.40636 22.6641 7.28456 22.3463 7.34346C22.128 7.38392 21.902 7.50172 21.6968 7.41718C21.5586 7.36028 21.474 7.22285 21.4468 7.073C21.9649 6.57335 22.6536 6.36419 23.5127 7.05056C23.6473 7.15794 23.7864 7.28776 23.9294 7.44162C24.0837 7.6075 24.2159 7.76778 24.3277 7.92284L24.3281 7.92324Z" fill="var(--fill-0, #AD8679)"/>
<path id="Vector_21" d="M16.1607 3.45774C16.1358 3.70736 16.0733 4.38732 16.0397 5.21833C14.2518 5.18107 12.6251 5.89067 12.6179 5.90229C12.6924 5.78089 12.7653 5.66389 12.8358 5.5521C12.8366 5.5513 12.837 5.5505 12.8374 5.54969C13.4168 4.63093 13.8516 4.03913 13.8896 3.98824C13.8908 3.98664 13.8916 3.98543 13.8916 3.98503H13.892V3.98423C13.892 3.98423 14.4173 3.72098 15.2123 3.56592C15.4976 3.51023 15.8177 3.46856 16.1603 3.45814L16.1607 3.45774Z" fill="var(--fill-0, #4C70F5)" stroke="var(--stroke-0, black)" stroke-width="0.356161" stroke-linecap="round" stroke-linejoin="round"/>
<path id="Vector_22" d="M12.8365 5.55245C12.766 5.66424 12.6931 5.78124 12.6185 5.90265C12.1501 6.66514 11.6144 7.60354 11.1248 8.62287C10.646 7.73576 9.72561 8.22099 9.72561 8.22099C9.85783 7.89403 9.96601 7.67165 9.96601 7.67165C10.3779 8.07434 11.2498 7.02495 11.8047 6.24884C11.8148 6.26847 11.8264 6.2857 11.8392 6.30132C12.0091 6.50567 12.4238 6.08656 12.8361 5.55165L12.8365 5.55245Z" fill="var(--fill-0, #6D1249)" stroke="var(--stroke-0, black)" stroke-width="0.356161" stroke-linecap="round" stroke-linejoin="round"/>
<path id="Vector_23" d="M10.6229 9.7411C10.0688 11.0734 9.64889 12.4782 9.58478 13.7671C9.04225 14.5821 8.49452 15.1787 8.23087 14.7897C7.61062 13.8757 9.24941 10.0881 9.24941 10.0881C9.24901 10.2323 9.26543 10.3646 9.3043 10.4784C9.46017 10.9371 10.082 10.3666 10.6229 9.7415V9.7411Z" fill="var(--fill-0, #6D1249)" stroke="var(--stroke-0, black)" stroke-width="0.356161" stroke-linecap="round" stroke-linejoin="round"/>
<path id="Vector_24" d="M15.086 17.8935C17.1163 17.2504 18.86 15.822 18.86 15.822" stroke="var(--stroke-0, black)" stroke-width="0.356161" stroke-linecap="round" stroke-linejoin="round"/>
<path id="Vector_25" d="M22.1781 11.3532C21.8812 11.4089 21.5891 11.4406 21.3182 11.4498" stroke="var(--stroke-0, black)" stroke-width="0.356161" stroke-linecap="round" stroke-linejoin="round"/>
<path id="Vector_26" d="M20.2774 9.23574C20.2774 9.23574 20.5462 8.26609 21.0827 7.5064" stroke="var(--stroke-0, black)" stroke-width="0.356161" stroke-linecap="round" stroke-linejoin="round"/>
<path id="Vector_27" d="M21.3288 9.67035C21.3288 9.67035 22.6811 8.10288 23.8875 9.03206" stroke="var(--stroke-0, black)" stroke-width="0.356161" stroke-linecap="round" stroke-linejoin="round"/>
<path id="Vector_28" d="M22.7431 9.94503C22.7431 9.94503 22.7371 9.29633 22.5292 8.90126" stroke="var(--stroke-0, black)" stroke-width="0.356161" stroke-linecap="round" stroke-linejoin="round"/>
<path id="Vector_29" d="M25.457 22.2143C25.457 22.2143 23.7461 29.2979 18.4211 29.2979C13.4947 29.2979 12.9277 22.5805 12.9277 22.5805C13.9334 22.3678 14.6422 22.1915 14.8117 22.058C14.8117 22.058 14.7957 27.4167 18.5697 27.4167C22.3437 27.4167 23.7465 21.6674 23.7465 21.6674C23.9088 21.7944 24.5475 21.9815 25.4574 22.2139L25.457 22.2143Z" fill="var(--fill-0, #F5D256)" stroke="var(--stroke-0, black)" stroke-width="0.356161" stroke-linecap="round" stroke-linejoin="round"/>
<path id="Vector_30" d="M17.8444 6.85519C17.8064 7.50269 17.7414 8.18225 17.6469 8.73839C17.5271 9.43919 17.3592 9.94525 17.1368 9.94565C16.3491 9.94685 16.0862 8.51161 16.0301 6.98061C16.0301 6.98061 16.7101 6.22933 17.8444 6.85559V6.85519Z" fill="var(--fill-0, #F5D256)" stroke="var(--stroke-0, black)" stroke-width="0.356161" stroke-linecap="round" stroke-linejoin="round"/>
<path id="Vector_31" d="M17.886 5.58381C17.8856 5.89274 17.876 6.25135 17.8576 6.62759C17.8564 6.65243 17.8552 6.67767 17.854 6.70292C17.854 6.70492 17.8536 6.70692 17.8536 6.70933C17.8536 6.71494 17.8532 6.72055 17.8528 6.72576C17.8508 6.76863 17.8484 6.8115 17.8456 6.85477C16.7108 6.22891 16.0313 6.97979 16.0313 6.97979C16.0092 6.38077 16.0189 5.76692 16.0409 5.21879C16.0746 4.38778 16.1371 3.70782 16.1619 3.4582C15.8189 3.46862 15.4992 3.51029 15.2139 3.56598C15.2139 3.56598 15.2884 3.08476 15.6222 2.7546C15.6659 2.71093 15.7139 2.67046 15.7668 2.634C15.7772 2.62598 15.7881 2.61917 15.7989 2.61236C15.7997 2.61196 15.8001 2.61156 15.8009 2.61116C15.8141 2.60234 15.8273 2.59473 15.8414 2.58712C15.8506 2.58231 15.8598 2.5771 15.8686 2.57229C15.8774 2.56789 15.8862 2.56308 15.8954 2.55867C16.0557 2.47893 16.2533 2.43606 16.4941 2.45449C17.1796 2.50859 17.5114 2.99862 17.6845 3.63811H17.6849C17.7883 4.01915 17.8355 4.45309 17.8672 4.87902C17.8804 5.05532 17.8872 5.29853 17.886 5.58381Z" fill="var(--fill-0, #6D1249)" stroke="var(--stroke-0, black)" stroke-width="0.356161" stroke-linecap="round" stroke-linejoin="round"/>
<path id="Vector_32" d="M16.1716 3.35438C16.1716 3.35438 16.168 3.39045 16.1612 3.45696" stroke="var(--stroke-0, black)" stroke-width="0.356161" stroke-linecap="round" stroke-linejoin="round"/>
<path id="Vector_33" d="M19.175 10.8277C19.1045 11.1623 19.0052 11.3867 18.8705 11.4496C18.0636 11.8262 17.6513 8.73978 17.6513 8.73978C17.745 8.18323 17.8083 7.50287 17.8444 6.85497C17.8468 6.8117 17.8492 6.76882 17.8516 6.72595C17.852 6.72074 17.8524 6.71513 17.8524 6.70952C17.8524 6.70752 17.8528 6.70552 17.8528 6.70311C17.854 6.67787 17.8552 6.65263 17.8564 6.62779C17.8736 6.25235 17.8824 5.89414 17.8824 5.58521C17.8828 5.42694 17.8808 5.2815 17.876 5.15288C17.8728 5.0503 17.868 4.95895 17.862 4.88041C17.8292 4.45449 17.7811 4.02055 17.6773 3.6399H17.6769C17.5018 3.00122 17.1696 2.51119 16.4833 2.4587C16.3138 2.44547 16.1659 2.4635 16.0373 2.50317C15.9868 2.5184 15.9391 2.53723 15.8943 2.55887C15.8851 2.56327 15.8758 2.56808 15.8674 2.57249C15.8582 2.5773 15.849 2.58251 15.8402 2.58731C15.8262 2.59493 15.8129 2.60254 15.7997 2.61136C15.7989 2.61176 15.7985 2.61216 15.7977 2.61256C15.7869 2.61937 15.7761 2.62618 15.7656 2.63419C15.7128 2.66986 15.6643 2.70992 15.6202 2.7528C15.6174 2.7556 15.615 2.75801 15.6122 2.76081C15.6122 2.75841 15.611 2.74679 15.6098 2.72795C15.6046 2.62498 15.5998 2.30123 15.7284 1.97227C15.853 1.65413 16.1014 1.33318 16.5927 1.20216C16.7365 1.16369 16.9016 1.14166 17.0903 1.14086C17.39 1.13965 17.6501 1.22099 17.8736 1.36003C18.4109 1.6938 18.7427 2.36213 18.9246 3.03087V3.03167C18.9999 3.30734 19.0492 3.58341 19.0777 3.83584C19.1819 4.76822 19.5284 9.1645 19.1754 10.8273L19.175 10.8277Z" fill="var(--fill-0, #6D1249)" stroke="var(--stroke-0, black)" stroke-width="0.356161" stroke-linecap="round" stroke-linejoin="round"/>
<path id="Vector_34" d="M12.8368 5.55061C13.3456 4.88988 13.8509 4.05246 13.889 3.98915" stroke="var(--stroke-0, black)" stroke-width="0.356161" stroke-linecap="round" stroke-linejoin="round"/>
<path id="Vector_35" d="M15.6102 2.72776C15.6154 2.74018 15.6194 2.74859 15.6206 2.7526" stroke="var(--stroke-0, black)" stroke-width="0.356161" stroke-linecap="round" stroke-linejoin="round"/>
<path id="Vector_36" d="M16.0401 5.21833C16.0737 4.38732 16.1362 3.70736 16.1611 3.45774C15.8181 3.46815 15.4984 3.50983 15.2131 3.56552" stroke="var(--stroke-0, black)" stroke-width="0.356161" stroke-linecap="round" stroke-linejoin="round"/>
<path id="Vector_37" d="M20.5073 12.4017C19.8478 12.4867 19.4259 11.6396 19.1747 10.8279C19.3225 10.1307 19.3474 8.95307 19.3189 7.75142C19.3189 7.75142 20.0161 6.65716 21.0783 7.37759C21.0795 7.42086 21.0807 7.46374 21.0819 7.50701C21.1524 10.0161 20.9397 12.346 20.5073 12.4021V12.4017Z" fill="var(--fill-0, #F5D256)" stroke="var(--stroke-0, black)" stroke-width="0.356161" stroke-linecap="round" stroke-linejoin="round"/>
<path id="Vector_38" d="M21.0788 7.37731C20.6349 7.07599 20.2542 7.09202 19.9625 7.21303C19.5555 7.38051 19.3195 7.75114 19.3195 7.75114C19.2802 6.08711 19.1379 4.377 19.0774 3.83568C19.0065 3.2002 18.7998 2.41527 18.3931 1.85712C18.3907 1.85311 18.3879 1.84911 18.3847 1.8455C18.3622 1.81465 18.339 1.7854 18.3153 1.75655C18.1867 1.59868 18.0401 1.46285 17.8734 1.35987C17.8734 1.35987 18.2633 0.901495 18.8394 0.911512C18.8863 0.911913 18.9348 0.915519 18.9845 0.923532C19.2854 0.968809 19.6284 1.14831 19.9882 1.57544C20.0807 1.68523 20.1669 1.82947 20.247 2.00257C20.3015 2.11957 20.3528 2.24939 20.4013 2.39083C20.7847 3.50432 21.0003 5.33824 21.0704 7.13409C21.0736 7.21543 21.0768 7.29677 21.0792 7.37731H21.0788Z" fill="var(--fill-0, #6D1249)" stroke="var(--stroke-0, black)" stroke-width="0.356161" stroke-linecap="round" stroke-linejoin="round"/>
<path id="Vector_39" d="M15.6208 2.75385C15.287 3.08441 15.2125 3.56563 15.2125 3.56563C14.4176 3.72069 13.8923 3.98394 13.8923 3.98394C13.8923 3.98394 13.8923 3.98434 13.8919 3.98474C13.8919 3.98514 13.8911 3.98635 13.8899 3.98795C13.8638 4.02321 13.6503 4.3137 13.3309 4.79011C12.9338 3.79201 12.2607 4.16585 12.2411 4.17707C12.4238 3.76397 12.6446 3.34646 12.881 2.97983C13.2516 2.40486 13.6615 1.95369 14.0241 1.83669C14.4841 1.68764 14.8371 1.81746 15.0919 2.02301C15.4008 2.27103 15.5671 2.62764 15.6092 2.72781C15.6104 2.74664 15.6116 2.75826 15.6116 2.76066C15.614 2.75826 15.6164 2.75585 15.6196 2.75305C15.62 2.75345 15.6204 2.75385 15.6204 2.75425L15.6208 2.75385Z" fill="var(--fill-0, #6D1249)" stroke="var(--stroke-0, black)" stroke-width="0.356161" stroke-linecap="round" stroke-linejoin="round"/>
<path id="Vector_40" d="M15.7291 1.9723C15.6005 2.30126 15.6053 2.62501 15.6105 2.72798C15.5336 2.54527 15.0435 1.50671 14.0254 1.83727C12.9391 2.18907 11.4306 5.52794 11.8056 6.24957C11.2507 7.02569 10.3788 8.07467 9.9669 7.67239C9.53937 7.25568 10.2746 4.80471 11.3881 2.99684C11.9186 2.13537 12.5349 1.42016 13.1523 1.14088C13.7585 0.866818 14.2382 0.847184 14.6112 0.949759C15.4057 1.16773 15.7163 1.93824 15.7295 1.9719L15.7291 1.9723Z" fill="var(--fill-0, #6D1249)" stroke="var(--stroke-0, black)" stroke-width="0.356161" stroke-linecap="round" stroke-linejoin="round"/>
<path id="Vector_41" d="M18.9837 0.922929C18.3286 0.82356 17.8726 1.35927 17.8726 1.35927C17.6487 1.21983 17.389 1.1389 17.0893 1.1401C16.2571 1.1437 15.8889 1.56081 15.7274 1.97111C15.7274 1.94587 15.7322 0.492597 16.8429 0.238165C18.2016 -0.0723635 18.9837 0.922528 18.9837 0.922528V0.922929Z" fill="var(--fill-0, #6D1249)" stroke="var(--stroke-0, black)" stroke-width="0.356161" stroke-linecap="round" stroke-linejoin="round"/>
<path id="Vector_42" d="M15.7274 1.97255L15.7282 1.97495" stroke="var(--stroke-0, black)" stroke-width="0.356161" stroke-linecap="round" stroke-linejoin="round"/>
<path id="Vector_43" d="M24.6138 16.9152C24.585 17.7362 24.4355 18.3905 24.0353 18.3973C22.9695 18.4146 22.5171 14.4614 22.5035 14.3376C22.5031 14.3356 22.5031 14.3348 22.5031 14.3348C22.4005 13.148 22.326 12.1655 22.2899 11.6747C22.7122 12.8507 23.5717 14.9278 24.1787 14.3036C24.2757 14.2038 24.3358 13.971 24.3634 13.6356C24.3634 13.6356 24.6627 15.5176 24.6138 16.9152Z" fill="var(--fill-0, #6D1249)" stroke="var(--stroke-0, black)" stroke-width="0.356161" stroke-linecap="round" stroke-linejoin="round"/>
<path id="Vector_44" d="M26.0724 19.2855C25.0298 19.2462 24.6139 16.9146 24.6139 16.9146C24.6628 15.5171 24.3635 13.6351 24.3635 13.6351C24.3879 13.339 24.3871 12.9635 24.3643 12.5292C24.8279 13.4812 25.5471 14.7706 26.1309 14.9882C26.1433 15.0431 27.1081 19.3239 26.072 19.2855H26.0724Z" fill="var(--fill-0, #6D1249)" stroke="var(--stroke-0, black)" stroke-width="0.356161" stroke-linecap="round" stroke-linejoin="round"/>
<path id="Vector_45" d="M13.1942 9.78098C13.1942 9.78098 11.9781 11.6562 12.4709 11.9639C12.9634 12.2716 13.5023 11.764 13.5023 11.764" stroke="var(--stroke-0, black)" stroke-width="0.356161" stroke-linecap="round" stroke-linejoin="round"/>
<path id="Vector_46" d="M13.5946 13.6116C13.5946 13.6116 15.2642 14.181 16.1609 12.9345C16.1609 12.9345 16.6674 14.7968 15.3031 15.036C13.3329 15.3814 13.5946 13.6116 13.5946 13.6116Z" fill="var(--fill-0, white)" stroke="var(--stroke-0, black)" stroke-width="0.356161" stroke-linecap="round" stroke-linejoin="round"/>
<path id="Vector_47" d="M13.5716 25.3056C13.917 25.0728 14.262 24.8404 14.6074 24.6076" stroke="var(--stroke-0, black)" stroke-width="0.356161" stroke-linecap="round" stroke-linejoin="round"/>
<path id="Vector_48" d="M15.3327 28.108C15.5322 27.9025 15.7318 27.6969 15.9309 27.4918" stroke="var(--stroke-0, black)" stroke-width="0.356161" stroke-linecap="round" stroke-linejoin="round"/>
<path id="Vector_49" d="M18.6978 29.0809L18.8601 28.0956" stroke="var(--stroke-0, black)" stroke-width="0.356161" stroke-linecap="round" stroke-linejoin="round"/>
<path id="Vector_50" d="M21.9172 27.9433C21.7614 27.7314 21.6059 27.5198 21.4501 27.3078" stroke="var(--stroke-0, black)" stroke-width="0.356161" stroke-linecap="round" stroke-linejoin="round"/>
<path id="Vector_51" d="M23.8836 25.5236C23.628 25.3934 23.3724 25.2632 23.1167 25.1325" stroke="var(--stroke-0, black)" stroke-width="0.356161" stroke-linecap="round" stroke-linejoin="round"/>
<path id="Vector_52" d="M25.1317 22.8598C24.7823 22.8293 24.4329 22.7989 24.0835 22.7684" stroke="var(--stroke-0, black)" stroke-width="0.356161" stroke-linecap="round" stroke-linejoin="round"/>
<path id="Vector_53" d="M17.744 9.29735C17.744 9.29735 18.2649 8.2099 19.3267 9.20319" stroke="var(--stroke-0, black)" stroke-width="0.356161" stroke-linecap="round" stroke-linejoin="round"/>
<path id="Vector_54" d="M17.8693 9.89345C18.0777 9.63902 18.5485 9.28923 19.2873 9.94995" stroke="var(--stroke-0, #F5D256)" stroke-width="0.356161" stroke-linecap="round" stroke-linejoin="round"/>
<path id="Vector_55" d="M21.1435 7.4231C21.1218 7.40707 21.1002 7.39185 21.079 7.37782" stroke="var(--stroke-0, black)" stroke-width="0.356161" stroke-linecap="round" stroke-linejoin="round"/>
<path id="Vector_56" d="M11.1243 8.62233C10.9492 8.98615 10.7801 9.36079 10.6223 9.74064C10.0813 10.3657 9.45948 10.9367 9.30362 10.4775C9.26515 10.3641 9.24832 10.2319 9.24873 10.0872C9.24913 9.50864 9.51678 8.73452 9.72513 8.22005C9.72513 8.22005 10.6455 7.73442 11.1243 8.62193V8.62233Z" fill="var(--fill-0, #F5D256)" stroke="var(--stroke-0, black)" stroke-width="0.356161" stroke-linecap="round" stroke-linejoin="round"/>
<path id="Vector_57" d="M13.3317 4.79059C13.3317 4.79059 13.3317 4.79099 13.3313 4.79099C13.1863 5.00776 13.0196 5.26299 12.8385 5.54988C12.8381 5.55068 12.8377 5.55148 12.8369 5.55228C12.4246 6.08719 12.0099 6.50631 11.84 6.30196C11.8272 6.28633 11.8156 6.2687 11.8055 6.24947C11.6356 5.92251 11.8528 5.05824 12.2415 4.17755H12.2419C12.2615 4.16633 12.9347 3.79249 13.3317 4.79059Z" fill="var(--fill-0, #F5D256)" stroke="var(--stroke-0, black)" stroke-width="0.356161" stroke-linecap="round" stroke-linejoin="round"/>
<path id="Vector_58" d="M13.3307 4.78993L13.3299 4.79073C13.3299 4.79073 13.3302 4.79047 13.3307 4.78993Z" fill="var(--fill-0, #F5D256)" stroke="var(--stroke-0, black)" stroke-width="0.356161" stroke-linecap="round" stroke-linejoin="round"/>
<path id="Vector_59" d="M10.1299 5.77214C10.1299 5.77214 11.0291 5.20638 11.6405 6.47293" stroke="var(--stroke-0, black)" stroke-width="0.356161" stroke-linecap="round" stroke-linejoin="round"/>
<path id="Vector_60" d="M8.43736 12.3272C8.43736 12.3272 9.36854 11.8376 9.6959 12.7824" stroke="var(--stroke-0, #F5D256)" stroke-width="0.356161" stroke-linecap="round" stroke-linejoin="round"/>
<g id="Vector_61">
<path d="M22.827 16.2227C22.8262 16.2195 23.4364 15.2699 24.6132 16.0697Z" fill="var(--fill-0, #6D1249)"/>
<path d="M22.827 16.2227C22.8262 16.2195 23.4364 15.2699 24.6132 16.0697" stroke="var(--stroke-0, black)" stroke-width="0.356161" stroke-linecap="round" stroke-linejoin="round"/>
</g>
<g id="Vector_62">
<path d="M22.7538 15.4618C22.753 15.4586 23.3632 14.509 24.54 15.3088Z" fill="var(--fill-0, #6D1249)"/>
<path d="M22.7538 15.4618C22.753 15.4586 23.3632 14.509 24.54 15.3088" stroke="var(--stroke-0, black)" stroke-width="0.356161" stroke-linecap="round" stroke-linejoin="round"/>
</g>
<path id="Vector_63" d="M18.4407 1.69423L18.3846 1.84569C18.3622 1.81483 18.3389 1.78558 18.3153 1.75673C18.3542 1.73149 18.3962 1.71026 18.4403 1.69463L18.4407 1.69423Z" fill="var(--fill-0, #450832)"/>
<path id="Vector_64" d="M19.9629 7.21221C19.5558 7.3797 19.3198 7.75033 19.3198 7.75033C19.2805 6.0863 19.1383 4.37619 19.0778 3.83487C19.0069 3.19939 18.8001 2.41446 18.3934 1.85631C18.5056 1.74532 18.7043 1.75053 18.8406 1.83587C18.986 1.92723 19.0758 2.08469 19.1503 2.23936C19.6151 3.20059 19.7357 4.28684 19.8495 5.34905C19.916 5.9681 19.9821 6.59196 19.9625 7.21221H19.9629Z" fill="var(--fill-0, #450832)"/>
<path id="Vector_65" d="M24.1607 10.536C23.6415 10.9508 22.8962 11.2208 22.1766 11.3542C22.2094 11.4496 22.2471 11.5578 22.2888 11.6752C22.3248 12.166 22.3994 13.1485 22.5019 14.3353C22.5019 14.3353 22.5019 14.3361 22.5023 14.3381C22.7828 17.5957 23.272 21.2963 23.7456 21.6686C23.7456 21.6686 22.3429 27.418 18.5688 27.418C14.7948 27.418 14.8109 22.0592 14.8109 22.0592C15.5329 21.4919 15.0849 17.8942 15.0849 17.8942C13.3964 18.4295 11.51 18.4211 10.2627 16.598C9.71699 15.8006 9.53108 14.8233 9.58357 13.7683C9.64727 12.479 10.0672 11.0742 10.6217 9.7419C11.2224 8.29704 11.982 6.93753 12.6175 5.90337C12.6247 5.89175 14.2511 5.18215 16.0393 5.21941C15.9608 7.16872 16.0409 9.94745 17.1368 9.94544C17.3592 9.94504 17.5271 9.43938 17.6469 8.73819C17.7418 8.18205 17.8063 7.50249 17.8444 6.85499C17.8083 7.50289 17.745 8.18325 17.6513 8.73979C17.6513 8.73979 18.0632 11.8266 18.8706 11.4496C19.0052 11.3867 19.1049 11.1623 19.1751 10.8277C19.4263 11.6399 19.8482 12.4866 20.5077 12.4016C20.9401 12.3455 21.1528 10.016 21.0823 7.5065C21.1023 7.47805 21.1228 7.45 21.1432 7.42235C21.6829 6.70193 22.4735 6.22031 23.5136 7.05132C23.6483 7.15871 23.7873 7.28853 23.9304 7.44239C25.2442 8.85599 24.9869 9.87773 24.1611 10.5356L24.1607 10.536Z" stroke="var(--stroke-0, black)" stroke-width="0.356161" stroke-linecap="round" stroke-linejoin="round"/>
<path id="Vector_66" d="M19.3161 0.566613L19.256 0.568215C19.2761 0.566613 19.2957 0.565812 19.3161 0.566613Z" fill="var(--fill-0, #961E6C)"/>
<path id="Vector_67" d="M20.401 2.39107C20.3837 2.52089 20.3597 2.64951 20.33 2.77692C20.302 2.89673 20.2463 3.03696 20.1253 3.0574C20.0375 3.07222 19.9518 3.01212 19.9053 2.93639C19.8588 2.86067 19.8428 2.77091 19.822 2.68437C19.727 2.28969 19.5146 1.92427 19.2193 1.6458C19.0791 1.51398 18.9144 1.39217 18.8483 1.21146C18.8131 1.1157 18.8111 1.00912 18.8395 0.911351C18.8864 0.911751 18.9349 0.915357 18.9845 0.923371C19.2855 0.968648 19.6284 1.14815 19.9883 1.57528C20.0808 1.68507 20.167 1.82931 20.2471 2.00241C20.3016 2.11941 20.3529 2.24923 20.4014 2.39067L20.401 2.39107Z" fill="var(--fill-0, #961E6C)"/>
<path id="Vector_68" d="M19.1749 10.8272C19.1044 11.1618 19.0051 11.3862 18.8704 11.4491C18.0635 11.8257 17.6512 8.73929 17.6512 8.73929C17.7449 8.18274 17.8082 7.50238 17.8443 6.85448C17.8467 6.81121 17.8491 6.76834 17.8515 6.72546C17.8519 6.72025 17.8523 6.71464 17.8523 6.70903C17.8523 6.70703 17.8527 6.70503 17.8527 6.70262C17.8539 6.67738 17.8551 6.65214 17.8563 6.6273C17.8735 6.25186 17.8823 5.89365 17.8823 5.58472C17.8831 5.29944 17.8755 5.05622 17.8619 4.87992C17.8291 4.454 17.781 4.02006 17.6772 3.63942H17.6768C17.5017 3.00073 17.1695 2.5107 16.4832 2.45821C16.2468 2.43978 16.0528 2.48185 15.8942 2.55798C15.885 2.56238 15.8757 2.56719 15.8673 2.5716C15.8581 2.57641 15.8489 2.58162 15.8401 2.58643C15.8261 2.59404 15.8128 2.60165 15.7996 2.61047C15.7988 2.61087 15.7984 2.61127 15.7976 2.61167C15.7868 2.61848 15.776 2.62529 15.7655 2.63331C15.7127 2.66897 15.6642 2.70903 15.6201 2.75191C15.6173 2.75471 15.6149 2.75712 15.6121 2.75992C15.6121 2.75752 15.6109 2.7459 15.6097 2.72706C15.6045 2.62409 15.5997 2.30034 15.7283 1.97138C15.8894 1.56068 16.2576 1.14317 17.0902 1.13997C17.3899 1.13876 17.65 1.2201 17.8735 1.35914C18.6328 1.83034 18.9806 2.97108 19.0772 3.83535C19.1814 4.76773 19.5279 9.16401 19.1749 10.8268V10.8272Z" stroke="var(--stroke-0, black)" stroke-width="0.356161" stroke-linecap="round" stroke-linejoin="round"/>
<path id="Vector_69" d="M10.6229 9.7411C10.0688 11.0734 9.64889 12.4782 9.58478 13.7671C9.04225 14.5821 8.49452 15.1787 8.23087 14.7897C7.61062 13.8757 9.24941 10.0881 9.24941 10.0881C9.24901 10.2323 9.26543 10.3646 9.3043 10.4784C9.46017 10.9371 10.082 10.3666 10.6229 9.7415V9.7411Z" stroke="var(--stroke-0, black)" stroke-width="0.356161" stroke-linecap="round" stroke-linejoin="round"/>
<path id="Vector_70" d="M24.6141 16.9145C24.6141 16.9145 25.5213 15.9152 26.4328 16.6665" stroke="var(--stroke-0, #F5D256)" stroke-width="0.356161" stroke-linecap="round" stroke-linejoin="round"/>
<path id="Vector_71" d="M18.9235 3.03087V3.03167C18.9235 3.12663 18.9147 3.22239 18.8974 3.31655C18.889 3.36063 18.8754 3.40951 18.8357 3.43035C18.788 3.45559 18.7299 3.42634 18.6867 3.39389C18.4146 3.19395 18.2559 2.88061 18.082 2.59172C17.9073 2.30283 17.6858 2.01114 17.3632 1.91217C17.2358 1.8733 17.1008 1.86689 16.9702 1.84085C16.8395 1.8148 16.7061 1.76271 16.6252 1.65733C16.5362 1.54034 16.5286 1.37445 16.5783 1.23622C16.5823 1.2246 16.5871 1.21338 16.5919 1.20216C16.7358 1.16369 16.9008 1.14166 17.0896 1.14086C17.3893 1.13965 17.6493 1.22099 17.8729 1.36003C18.4102 1.6938 18.742 2.36213 18.9239 3.03087H18.9235Z" fill="var(--fill-0, #961E6C)"/>
<path id="Vector_72" d="M14.6097 0.949759C14.598 0.963783 14.5856 0.977005 14.5728 0.989426C14.4614 1.09601 14.3128 1.1529 14.1709 1.21461C13.3535 1.57122 12.6479 2.18105 12.1767 2.93794C12.0954 3.06856 12.006 3.21521 11.857 3.25368C11.6586 3.30536 11.5004 3.16152 11.3866 2.99684C11.9171 2.13537 12.5333 1.42016 13.1508 1.14088C13.757 0.866818 14.2366 0.847184 14.6097 0.949759Z" fill="var(--fill-0, #961E6C)"/>
<path id="Vector_73" d="M15.0921 2.02261C15.018 2.23336 14.7876 2.37641 14.5656 2.44933C14.3075 2.53468 14.0223 2.57475 13.8155 2.75145C13.6424 2.8997 13.525 3.14291 13.3006 3.18538C13.1368 3.21704 12.9773 3.11967 12.8807 2.97983C13.2513 2.40486 13.6612 1.95369 14.0239 1.83669C14.4838 1.68764 14.8368 1.81746 15.0917 2.02301L15.0921 2.02261Z" fill="var(--fill-0, #961E6C)"/>
<path id="Vector_74" d="M26.0724 19.2855C25.0298 19.2462 24.6139 16.9146 24.6139 16.9146C24.6628 15.5171 24.3635 13.6351 24.3635 13.6351C24.3879 13.339 24.3871 12.9635 24.3643 12.5292C24.8279 13.4812 25.5471 14.7706 26.1309 14.9882C26.1433 15.0431 27.1081 19.3239 26.072 19.2855H26.0724Z" stroke="var(--stroke-0, black)" stroke-width="0.356161" stroke-linecap="round" stroke-linejoin="round"/>
<path id="Vector_75" d="M22.071 10.8325C22.2864 10.8325 22.4609 10.658 22.4609 10.4427C22.4609 10.2273 22.2864 10.0528 22.071 10.0528C21.8557 10.0528 21.6812 10.2273 21.6812 10.4427C21.6812 10.658 21.8557 10.8325 22.071 10.8325Z" fill="var(--fill-0, #4C70F5)" stroke="var(--stroke-0, black)" stroke-width="0.356161" stroke-linecap="round" stroke-linejoin="round"/>
<path id="Vector_76" d="M22.7857 12.9642C23.2068 12.8583 23.4336 12.3173 23.2924 11.7559C23.1512 11.1945 22.6953 10.8252 22.2743 10.9312C21.8532 11.0371 21.6264 11.578 21.7676 12.1395C21.9088 12.7009 22.3646 13.0701 22.7857 12.9642Z" fill="var(--fill-0, #4C70F5)" stroke="var(--stroke-0, black)" stroke-width="0.356161" stroke-linecap="round" stroke-linejoin="round"/>
<path id="Vector_77" d="M18.2977 4.9568C18.2837 5.03654 18.2656 5.11748 18.218 5.18279C18.1703 5.2473 18.0849 5.29097 18.008 5.26653C17.9515 5.2489 17.9122 5.19962 17.8762 5.15354C17.873 5.05096 17.8682 4.95961 17.8622 4.88107C17.8293 4.45515 17.7812 4.02121 17.6774 3.64057H17.677C17.5019 3.00188 17.1698 2.51185 16.4834 2.45936C16.3139 2.44614 16.1661 2.46417 16.0375 2.50383C16.0511 2.43492 16.0811 2.3688 16.124 2.31311L16.0827 2.31792C16.3324 2.0731 16.7166 1.99096 17.0572 2.0699C17.3974 2.14963 17.6931 2.37642 17.897 2.6601C18.101 2.94418 18.22 3.28196 18.2869 3.62534C18.3718 4.06369 18.3754 4.51726 18.2977 4.9564V4.9568Z" fill="var(--fill-0, #450832)"/>
<path id="Vector_78" d="M14.6575 1.56947C14.4047 1.47491 14.1194 1.49014 13.863 1.57388C13.6061 1.65762 13.3749 1.80548 13.163 1.97256C12.479 2.51228 11.9718 3.27157 11.7346 4.10979C11.7077 4.20435 11.6877 4.31654 11.7502 4.39267C11.8179 4.47521 11.9537 4.4668 12.0407 4.40429C12.1272 4.34179 12.1769 4.24202 12.225 4.14666C12.5139 3.57168 12.8553 3.02355 13.2431 2.51027C13.3958 2.30873 13.5577 2.11039 13.7584 1.95653C13.9547 1.80668 14.1963 1.69809 14.4472 1.7009C14.5842 1.7021 14.696 1.74537 14.8198 1.79626C14.8783 1.8203 14.9608 1.86397 15.0193 1.83192C14.962 1.70851 14.7805 1.61515 14.6575 1.56947Z" fill="var(--fill-0, #450832)"/>
<path id="Vector_79" d="M15.6208 2.75401C15.287 3.08457 15.2125 3.56579 15.2125 3.56579C14.4176 3.72085 13.8923 3.9841 13.8923 3.9841C13.8923 3.9841 13.8923 3.9845 13.8919 3.9849C13.8919 3.9853 13.8911 3.9865 13.8899 3.98811C13.8638 4.02337 13.6503 4.31386 13.3309 4.79027C12.9338 3.79217 12.2607 4.16601 12.2411 4.17723C12.7103 3.11462 13.4303 2.02918 14.0245 1.83685C15.0426 1.50629 15.5327 2.54485 15.6096 2.72756C15.6108 2.7464 15.612 2.75802 15.612 2.76042C15.6144 2.75802 15.6168 2.75561 15.62 2.75281C15.6204 2.75321 15.6208 2.75361 15.6208 2.75401Z" stroke="var(--stroke-0, black)" stroke-width="0.356161" stroke-linecap="round" stroke-linejoin="round"/>
<path id="Vector_80" d="M15.7291 1.97231C15.6004 2.30127 15.6052 2.62502 15.6105 2.72799C15.5335 2.54528 15.0435 1.50672 14.0254 1.83728C12.9391 2.18908 11.4305 5.52795 11.8056 6.24958C11.2506 7.0257 10.3788 8.07468 9.96686 7.6724C9.33578 7.05735 11.239 2.00637 13.1523 1.14089C15.0491 0.282234 15.7098 1.92262 15.7295 1.97191L15.7291 1.97231Z" stroke="var(--stroke-0, black)" stroke-width="0.356161" stroke-linecap="round" stroke-linejoin="round"/>
<path id="Vector_81" d="M19.1749 10.8272C19.1044 11.1618 19.0051 11.3862 18.8704 11.4491C18.0635 11.8257 17.6512 8.73929 17.6512 8.73929C17.7449 8.18274 17.8082 7.50238 17.8443 6.85448C17.8467 6.81121 17.8491 6.76834 17.8515 6.72546C17.8519 6.72025 17.8523 6.71464 17.8523 6.70903C17.8523 6.70703 17.8527 6.70503 17.8527 6.70262C17.8539 6.67738 17.8551 6.65214 17.8563 6.6273C17.8735 6.25186 17.8823 5.89365 17.8823 5.58472C17.8831 5.29944 17.8755 5.05622 17.8619 4.87992C17.8291 4.454 17.781 4.02006 17.6772 3.63942H17.6768C17.5017 3.00073 17.1695 2.5107 16.4832 2.45821C16.2468 2.43978 16.0528 2.48185 15.8942 2.55798C15.885 2.56238 15.8757 2.56719 15.8673 2.5716C15.8581 2.57641 15.8489 2.58162 15.8401 2.58643C15.8261 2.59404 15.8128 2.60165 15.7996 2.61047C15.7988 2.61087 15.7984 2.61127 15.7976 2.61167C15.7868 2.61848 15.776 2.62529 15.7655 2.63331C15.7127 2.66897 15.6642 2.70903 15.6201 2.75191C15.6173 2.75471 15.6149 2.75712 15.6121 2.75992C15.6121 2.75752 15.6109 2.7459 15.6097 2.72706C15.6045 2.62409 15.5997 2.30034 15.7283 1.97138C15.8894 1.56068 16.2576 1.14317 17.0902 1.13997C17.3899 1.13876 17.65 1.2201 17.8735 1.35914C18.6328 1.83034 18.9806 2.97108 19.0772 3.83535C19.1814 4.76773 19.5279 9.16401 19.1749 10.8268V10.8272Z" stroke="var(--stroke-0, black)" stroke-width="0.356161" stroke-linecap="round" stroke-linejoin="round"/>
<path id="Vector_82" d="M21.0784 7.37718C20.0162 6.65675 19.3191 7.75101 19.3191 7.75101C19.2798 6.08698 19.1375 4.37687 19.077 3.83555C18.9805 2.97128 18.6327 1.83094 17.8734 1.35934C17.8734 1.35934 18.3294 0.822831 18.9845 0.923001C19.2854 0.968278 19.6284 1.14778 19.9882 1.57491C20.0807 1.6847 20.1669 1.82894 20.247 2.00204C20.7274 3.0366 20.9911 5.10932 21.0704 7.13356C21.0736 7.2149 21.0768 7.29624 21.0792 7.37677L21.0784 7.37718Z" stroke="var(--stroke-0, black)" stroke-width="0.356161" stroke-linecap="round" stroke-linejoin="round"/>
</g>
</svg>
