<svg preserveAspectRatio="none" width="100%" height="100%" overflow="visible" style="display: block;" viewBox="0 0 19.8123 18" fill="none" xmlns="http://www.w3.org/2000/svg">
<path id="Vector" d="M9.90606 9.5274L13.7248 13.3452L12.4513 14.6187L10.8061 12.9735V18H9.00606V12.9717L7.36086 14.6187L6.08736 13.3452L9.90606 9.5274ZM9.90606 1.99944e-08C11.4513 7.35929e-05 12.9427 0.568002 14.0966 1.59581C15.2505 2.62361 15.9865 4.03962 16.1647 5.5746C17.2845 5.87999 18.2614 6.56919 18.9247 7.52178C19.5879 8.47436 19.8953 9.62972 19.7931 10.786C19.6909 11.9422 19.1857 13.0257 18.3657 13.8472C17.5456 14.6687 16.463 15.1759 15.307 15.2802V13.4676C15.7211 13.4085 16.1193 13.2674 16.4784 13.0527C16.8374 12.8379 17.1501 12.5539 17.3982 12.217C17.6462 11.8801 17.8247 11.4972 17.9231 11.0906C18.0216 10.6839 18.0381 10.2618 17.9716 9.84876C17.9051 9.43572 17.757 9.04005 17.536 8.68486C17.315 8.32967 17.0254 8.02208 16.6841 7.78002C16.3429 7.53797 15.9569 7.36631 15.5486 7.27507C15.1403 7.18383 14.718 7.17483 14.3062 7.2486C14.4471 6.5924 14.4395 5.91297 14.2839 5.2601C14.1282 4.60722 13.8285 3.99743 13.4067 3.47538C12.9849 2.95333 12.4516 2.53225 11.846 2.24298C11.2403 1.9537 10.5777 1.80357 9.90651 1.80357C9.23534 1.80357 8.57266 1.9537 7.96703 2.24298C7.3614 2.53225 6.82814 2.95333 6.40632 3.47538C5.9845 3.99743 5.68479 4.60722 5.52916 5.2601C5.37353 5.91297 5.36591 6.5924 5.50686 7.2486C4.68575 7.0944 3.83701 7.27271 3.14737 7.74429C2.45772 8.21586 1.98365 8.94209 1.82946 9.7632C1.67526 10.5843 1.85356 11.433 2.32514 12.1227C2.79672 12.8123 3.52295 13.2864 4.34406 13.4406L4.50606 13.4676V15.2802C3.34996 15.1761 2.26722 14.669 1.44708 13.8476C0.626933 13.0261 0.121551 11.9426 0.0192637 10.7863C-0.0830239 9.63009 0.224288 8.47466 0.887489 7.522C1.55069 6.56934 2.52759 5.88005 3.64746 5.5746C3.82539 4.03954 4.56132 2.62342 5.71528 1.59558C6.86923 0.567738 8.36072 -0.000123032 9.90606 1.99944e-08V1.99944e-08Z" fill="var(--fill-0, #0A0D14)"/>
</svg>
