<svg preserveAspectRatio="none" width="100%" height="100%" overflow="visible" style="display: block;" viewBox="0 0 15 13.5" fill="none" xmlns="http://www.w3.org/2000/svg">
<path id="Vector" d="M5.871 1.5L4.371 3H1.5V12H13.5V3H10.629L9.129 1.5H5.871ZM5.25 0H9.75L11.25 1.5H14.25C14.4489 1.5 14.6397 1.57902 14.7803 1.71967C14.921 1.86032 15 2.05109 15 2.25V12.75C15 12.9489 14.921 13.1397 14.7803 13.2803C14.6397 13.421 14.4489 13.5 14.25 13.5H0.75C0.551088 13.5 0.360322 13.421 0.21967 13.2803C0.0790176 13.1397 0 12.9489 0 12.75V2.25C0 2.05109 0.0790176 1.86032 0.21967 1.71967C0.360322 1.57902 0.551088 1.5 0.75 1.5H3.75L5.25 0ZM7.5 11.25C6.40598 11.25 5.35677 10.8154 4.58318 10.0418C3.8096 9.26823 3.375 8.21902 3.375 7.125C3.375 6.03098 3.8096 4.98177 4.58318 4.20818C5.35677 3.4346 6.40598 3 7.5 3C8.59402 3 9.64323 3.4346 10.4168 4.20818C11.1904 4.98177 11.625 6.03098 11.625 7.125C11.625 8.21902 11.1904 9.26823 10.4168 10.0418C9.64323 10.8154 8.59402 11.25 7.5 11.25ZM7.5 9.75C8.19619 9.75 8.86387 9.47344 9.35616 8.98116C9.84844 8.48887 10.125 7.82119 10.125 7.125C10.125 6.42881 9.84844 5.76113 9.35616 5.26885C8.86387 4.77656 8.19619 4.5 7.5 4.5C6.80381 4.5 6.13613 4.77656 5.64385 5.26885C5.15156 5.76113 4.875 6.42881 4.875 7.125C4.875 7.82119 5.15156 8.48887 5.64385 8.98116C6.13613 9.47344 6.80381 9.75 7.5 9.75V9.75Z" fill="var(--fill-0, white)"/>
</svg>
