<svg preserveAspectRatio="none" width="100%" height="100%" overflow="visible" style="display: block;" viewBox="0 0 23.0105 20.975" fill="none" xmlns="http://www.w3.org/2000/svg">
<g id="Illustration">
<g id="Group">
<path id="Vector" d="M15.931 6.77104C15.1285 6.48784 14.5876 7.09559 14.5876 7.09559C14.4561 5.6642 14.0284 3.54836 13.518 2.22323C13.518 2.22323 13.537 1.79818 13.8017 1.78905C13.8728 1.7864 13.9615 1.81381 14.0726 1.88762C14.3606 2.07898 14.6707 2.62663 14.9597 3.338C15.3653 4.33714 15.729 5.65915 15.9307 6.77128L15.931 6.77104Z" fill="var(--fill-0, #6D1249)" stroke="var(--stroke-0, black)" stroke-width="0.213696" stroke-linecap="round" stroke-linejoin="round"/>
<path id="Vector_2" d="M15.9781 8.89961C15.8911 9.0126 15.7889 9.0352 15.6783 8.99385C15.3278 8.86331 14.8962 8.08992 14.6183 7.51871C14.6114 7.38624 14.601 7.2444 14.5873 7.09511C14.5873 7.09511 15.1282 6.48711 15.9307 6.77055C16.1182 7.80407 16.1661 8.65608 15.9783 8.89961H15.9781Z" fill="var(--fill-0, #F5D256)" stroke="var(--stroke-0, black)" stroke-width="0.213696" stroke-linecap="round" stroke-linejoin="round"/>
<path id="Vector_3" d="M14.9609 3.33788C14.9226 3.34221 14.8815 3.33668 14.8457 3.32418C14.6519 3.25758 14.5351 3.06261 14.456 2.87341C14.3771 2.68445 14.3149 2.47914 14.1694 2.3349C14.1024 2.2683 14.0206 2.2183 13.9485 2.15723C13.8293 2.05626 13.7768 1.9399 13.8028 1.78893C13.874 1.78628 13.9627 1.81369 14.0737 1.88749C14.3618 2.07886 14.6719 2.62651 14.9609 3.33788Z" fill="var(--fill-0, #961E6C)"/>
<path id="Vector_4" d="M15.9311 6.77045C15.1286 6.48725 14.5877 7.095 14.5877 7.095C14.4562 5.66361 14.0285 3.54777 13.5181 2.22264C13.5181 2.22264 13.5484 1.53867 14.0728 1.88678C14.7654 2.34669 15.5854 4.86593 15.9309 6.77021L15.9311 6.77045Z" stroke="var(--stroke-0, black)" stroke-width="0.213696" stroke-linecap="round" stroke-linejoin="round"/>
</g>
<path id="Vector_5" d="M14.3913 3.85812C14.6294 4.28869 14.9392 4.68825 15.0777 5.16041C15.1599 5.44024 15.1676 5.77225 14.977 5.99294C14.9522 6.02179 14.9159 6.0504 14.8796 6.03862C14.8282 6.02203 14.8318 5.94943 14.8383 5.89558C14.8597 5.72273 14.8008 5.54867 14.7154 5.39673C14.6301 5.24479 14.5188 5.10968 14.4221 4.96472C14.0978 4.47813 13.9492 3.89898 13.8062 3.3321C13.7516 3.11621 13.697 2.90009 13.6552 2.68131C13.6369 2.58539 13.5206 2.26132 13.6776 2.2481C13.8261 2.2356 13.8572 2.5527 13.8899 2.65295C13.9536 2.8484 14.0216 3.04241 14.0981 3.23305C14.1836 3.44678 14.2798 3.65641 14.3913 3.85787V3.85812Z" fill="var(--fill-0, #450832)"/>
<path id="Vector_6" d="M22.8884 20.8676H0.121654C0.121654 20.8676 -0.112264 16.8078 1.27946 15.3402C1.46386 15.1457 1.87712 14.9569 2.42164 14.7766C2.5856 14.7221 2.7611 14.6687 2.94597 14.616C4.43747 14.191 6.52758 13.821 7.81137 13.5496L8.59702 13.5267L9.11991 13.5114L15.0732 13.3373L15.3292 13.3299C17.0678 13.7724 20.4557 14.485 21.5161 15.1692C21.6046 15.2267 21.6774 15.2839 21.7313 15.3406C23.123 16.8083 22.8888 20.8681 22.8888 20.8681L22.8884 20.8676Z" fill="var(--fill-0, #E86F3A)" stroke="var(--stroke-0, black)" stroke-width="0.213696" stroke-linecap="round" stroke-linejoin="round"/>
<path id="Vector_7" d="M14.6178 8.18123C14.6012 8.38245 14.5652 8.52189 14.507 8.58199C14.1428 8.95655 13.6273 7.71027 13.3737 7.00467C13.3487 6.93423 13.3259 6.86932 13.3064 6.8121C13.2523 6.65415 13.221 6.55294 13.221 6.55294L12.9838 5.62088L12.6861 4.45321L12.6828 4.43951L12.6421 4.28012C12.5979 3.15068 12.458 1.99623 12.2065 1.34064C12.2053 1.33655 12.2039 1.33295 12.2022 1.32886C12.1976 1.31756 12.1933 1.3065 12.1887 1.29544C12.1755 1.26251 12.1618 1.23101 12.1479 1.20096C12.1967 1.09518 12.3231 0.904057 12.589 0.963198C12.6508 0.976901 12.7198 1.00407 12.7972 1.04878C13.0261 1.18077 13.2576 1.57311 13.4752 2.11427C13.4893 2.14961 13.5035 2.18544 13.5175 2.22174C13.7348 2.78574 13.937 3.4935 14.1079 4.23035C14.2709 4.93331 14.4051 5.66295 14.4964 6.32095C14.558 6.7621 14.5996 7.17103 14.6181 7.51746C14.6318 7.77806 14.6322 8.00357 14.6176 8.18099L14.6178 8.18123Z" fill="var(--fill-0, #6D1249)" stroke="var(--stroke-0, black)" stroke-width="0.213696" stroke-linecap="round" stroke-linejoin="round"/>
<path id="Vector_8" d="M13.4748 2.11512C13.4594 2.18123 13.4414 2.24662 13.4207 2.31129C13.325 2.33557 13.2219 2.29446 13.1483 2.22835C13.0748 2.16248 13.025 2.07497 12.9762 1.98915C12.8774 1.81461 12.7788 1.63983 12.68 1.46554C12.6341 1.38404 12.5872 1.3011 12.5654 1.20974C12.5459 1.128 12.5488 1.03713 12.5884 0.963803C12.6502 0.977506 12.7192 1.00467 12.7966 1.04939C13.0255 1.18137 13.257 1.57372 13.4746 2.11488L13.4748 2.11512Z" fill="var(--fill-0, #961E6C)"/>
<path id="Vector_9" d="M14.6176 8.18105C14.601 8.38227 14.5649 8.52171 14.5068 8.58181C14.1425 8.95637 13.6271 7.71009 13.3735 7.00449C13.3485 6.93405 13.3256 6.86914 13.3062 6.81192C13.2521 6.65397 13.2208 6.55276 13.2208 6.55276L12.9835 5.6207L12.6859 4.45303L12.6419 4.27994C12.5943 3.06539 12.4361 1.82176 12.1479 1.20102C12.2077 1.07072 12.3861 0.810839 12.7972 1.04884C13.041 1.18972 13.2876 1.62534 13.5175 2.2218C13.7348 2.7858 13.937 3.49356 14.1079 4.23041C14.2709 4.93337 14.4051 5.66301 14.4964 6.32101C14.558 6.76216 14.5996 7.17109 14.6181 7.51752C14.6318 7.77812 14.6322 8.00363 14.6176 8.18105Z" stroke="var(--stroke-0, black)" stroke-width="0.213696" stroke-linecap="round" stroke-linejoin="round"/>
<path id="Vector_10" d="M12.8704 4.34045C12.8401 4.40969 12.7704 4.48374 12.7017 4.45272C12.6944 4.4496 12.688 4.44551 12.6822 4.44046L12.6416 4.28107C12.5973 3.15163 12.4574 1.99719 12.2059 1.34159L12.1225 1.34905L12.0937 1.35145C12.1196 1.3238 12.1523 1.30577 12.1881 1.2964C12.2581 1.27861 12.3391 1.29375 12.4019 1.3327C12.4963 1.3916 12.5567 1.49209 12.6062 1.5921C12.9308 2.24553 12.9442 3.00402 12.951 3.73366C12.9529 3.93945 12.9534 4.15221 12.8702 4.34021L12.8704 4.34045Z" fill="var(--fill-0, #450832)"/>
<path id="Vector_11" d="M14.4967 6.32185C14.1851 6.57068 13.738 6.73271 13.3062 6.81277C13.3259 6.86999 13.3485 6.9349 13.3735 7.00534C13.3951 7.29984 13.4399 7.88932 13.5014 8.60141C13.5014 8.60141 13.5014 8.60189 13.5016 8.60309C13.6699 10.5576 13.9635 12.778 14.2476 13.0014C14.2476 13.0014 13.406 16.451 11.1415 16.451C8.87713 16.451 8.88675 13.2358 8.88675 13.2358C9.10216 13.0663 9.14399 12.9401 9.13173 12.1977C9.12259 11.6503 9.08389 11.124 9.06369 10.8795C9.05624 10.7889 9.05119 10.737 9.05119 10.737C8.54249 10.898 8.00373 10.9771 7.49887 10.8776C6.99786 10.7786 6.53027 10.504 6.15763 9.95924C5.8302 9.48083 5.71865 8.89447 5.75014 8.26147C5.78836 7.48784 6.04031 6.64496 6.37304 5.84561C6.73341 4.97869 7.18923 4.16298 7.57051 3.54249C7.5722 3.53984 7.73087 3.4694 7.98979 3.38743C8.37492 3.26554 8.98195 3.11865 9.62336 3.13187C9.57624 4.30146 9.62432 5.96869 10.2818 5.96749C10.4153 5.96725 10.516 5.66386 10.5879 5.24314C10.6449 4.90945 10.6836 4.50172 10.7064 4.11322C10.6848 4.50196 10.6468 4.91017 10.5905 5.2441C10.5905 5.2441 10.8377 7.09621 11.3221 6.86999C11.4029 6.83224 11.4627 6.69761 11.5048 6.49687C11.6555 6.98418 11.9087 7.49217 12.3044 7.4412C12.5638 7.40754 12.6915 6.0098 12.6491 4.50412C12.6612 4.48706 12.6734 4.47023 12.6857 4.45364C12.7419 4.37863 12.8028 4.30771 12.8682 4.24448C13.179 3.94469 13.5923 3.8192 14.1077 4.23102C14.1885 4.29545 14.2719 4.37334 14.3577 4.46566C14.4503 4.56519 14.5296 4.66135 14.5967 4.75439C15.1052 5.45446 14.9335 5.97326 14.4962 6.32161L14.4967 6.32185Z" fill="var(--fill-0, #94624B)" stroke="var(--stroke-0, black)" stroke-width="0.213696" stroke-linecap="round" stroke-linejoin="round"/>
<path id="Vector_12" d="M11.3605 9.59173C11.3624 10.6781 10.7251 11.7419 9.76612 12.2523C9.65385 12.312 9.52956 12.3661 9.40382 12.3483C9.29853 12.3334 9.21054 12.2716 9.1324 12.1968C9.12327 11.6494 9.08456 11.1231 9.06437 10.8786C9.15067 10.7969 9.24516 10.7226 9.33916 10.6495L11.3605 9.59173Z" fill="var(--fill-0, #663421)"/>
<path id="Vector_13" d="M7.99724 3.63163C7.91237 3.89392 7.77053 4.14466 7.67605 4.40575C7.28899 5.4734 7.10821 6.61486 7.14235 7.75007C7.16134 8.38812 7.24861 9.02424 7.40535 9.64305C7.47892 9.93443 7.56835 10.2272 7.56162 10.5278C7.55897 10.6448 7.53854 10.765 7.49887 10.8768C6.99786 10.7778 6.53026 10.5032 6.15763 9.95847C5.83019 9.48006 5.71865 8.8937 5.75014 8.2607C5.78836 7.48707 6.04031 6.64419 6.37304 5.84483C6.73341 4.97792 7.18923 4.16221 7.57051 3.54172C7.5722 3.53907 7.73087 3.46863 7.98979 3.38665C8.02344 3.45229 8.02777 3.53643 7.99724 3.63163Z" fill="var(--fill-0, #AD8679)"/>
<path id="Vector_14" d="M9.35438 3.87075C9.32721 4.50014 9.30052 5.13627 9.41736 5.75532C9.45463 5.95269 9.5229 6.1693 9.70008 6.26354C9.83255 6.33422 9.99458 6.31763 10.1369 6.36572C10.385 6.44962 10.5244 6.70614 10.6384 6.94198C10.7524 7.17782 10.8863 7.43554 11.1315 7.52737C11.2163 7.55911 11.3079 7.56776 11.3959 7.58916C11.6034 7.63964 11.7919 7.76442 11.9195 7.93559C11.97 8.00314 12.0114 8.07815 12.0717 8.13729C12.1321 8.19643 12.2181 8.23802 12.3001 8.21783C12.3802 8.19811 12.4369 8.12286 12.4585 8.04353C12.4802 7.96419 12.4725 7.87981 12.4638 7.79783C12.3559 6.77826 12.1087 5.77912 11.8462 4.78791C11.6926 4.20781 11.5169 3.60029 11.0882 3.18054C10.8302 2.92787 10.4744 2.75766 10.1145 2.78627C9.89842 2.80358 9.51737 2.91417 9.40198 3.1202C9.3599 3.19497 9.37697 3.28945 9.37553 3.37143C9.37265 3.53779 9.36159 3.70439 9.35438 3.87075Z" fill="var(--fill-0, #7C412E)"/>
<path id="Vector_15" d="M8.59259 15.7198C8.53465 16.1706 8.44835 16.6362 8.18294 17.0053C7.91728 17.3743 7.42373 17.6166 6.99748 17.4587C6.37939 17.23 6.22144 16.3432 5.6108 16.0956C4.85712 15.7898 4.00343 16.666 3.24566 16.3713C2.90981 16.2408 2.69513 15.9071 2.57324 15.5683C2.48164 15.3142 2.43116 15.0459 2.4213 14.7762C2.58526 14.7216 2.76076 14.6682 2.94563 14.6156C4.43713 14.1906 6.52724 13.8206 7.81102 13.5491L8.59668 13.5263C8.72482 14.2485 8.68611 14.9918 8.59235 15.7198H8.59259Z" fill="var(--fill-0, #49A2A6)" stroke="var(--stroke-0, black)" stroke-width="0.213696" stroke-linecap="round" stroke-linejoin="round"/>
<path id="Vector_16" d="M21.4612 15.1681C21.2686 15.789 20.8751 16.3451 20.3243 16.6898C19.8341 16.9966 19.1405 17.1115 18.7088 16.7269C18.3722 16.4271 18.3063 15.9342 18.0991 15.534C17.7527 14.8649 16.9475 14.4673 16.2059 14.599C15.9729 14.6404 15.7486 14.7279 15.5135 14.7519C15.2779 14.7759 15.0144 14.7214 14.8704 14.5336C14.6939 14.3033 14.761 13.973 14.8634 13.7016C14.9069 13.5859 14.9591 13.4628 15.0187 13.3361L15.275 13.3287C17.0134 13.7713 20.4015 14.4839 21.4614 15.1681H21.4612Z" fill="var(--fill-0, #49A2A6)" stroke="var(--stroke-0, black)" stroke-width="0.213696" stroke-linecap="round" stroke-linejoin="round"/>
<path id="Vector_17" d="M20.1236 20.8669H12.865C12.7724 20.5186 12.7698 20.1464 12.8712 19.8C13.0852 19.0696 13.7509 18.4931 14.5043 18.3861C15.2876 18.2748 16.0619 18.6318 16.8529 18.6547C17.3262 18.6684 17.8006 18.5616 18.271 18.6133C18.9973 18.6929 19.6673 19.1783 19.9625 19.8461C20.1034 20.1649 20.1556 20.5198 20.1234 20.8667L20.1236 20.8669Z" fill="var(--fill-0, #49A2A6)" stroke="var(--stroke-0, black)" stroke-width="0.213696" stroke-linecap="round" stroke-linejoin="round"/>
<path id="Vector_18" d="M8.10648 20.867H1.25675C1.39787 19.9991 2.47755 19.3139 3.24421 19.1493C4.2609 18.931 5.32014 19.1988 6.29091 19.5726C6.72605 19.7402 7.15758 19.9325 7.52565 20.2188C7.75524 20.3977 7.95959 20.6167 8.10648 20.867Z" fill="var(--fill-0, #49A2A6)" stroke="var(--stroke-0, black)" stroke-width="0.213696" stroke-linecap="round" stroke-linejoin="round"/>
<path id="Vector_19" d="M13.2459 5.92884C13.4025 5.85985 13.5736 5.82451 13.7446 5.82571C13.8318 5.82643 13.9225 5.83605 14.004 5.80479C14.0739 5.77787 14.1294 5.72378 14.1792 5.66776C14.2268 5.61415 14.272 5.55621 14.2941 5.48818C14.3162 5.42014 14.3114 5.3396 14.2662 5.28407C14.2275 5.23671 14.165 5.21387 14.1042 5.21026C14.0434 5.20666 13.9826 5.21964 13.9229 5.23262C13.7111 5.27878 13.4981 5.32518 13.2972 5.40644C13.1128 5.48072 12.8255 5.61415 12.7716 5.82932C12.7495 5.91803 12.7945 5.98726 12.8808 6.01443C13.0087 6.05458 13.1332 5.97861 13.2459 5.92884Z" fill="var(--fill-0, #663421)"/>
<path id="Vector_20" d="M14.5973 4.7537C14.5317 4.86838 14.423 4.96406 14.2961 4.94819C14.2091 4.93713 14.137 4.87511 14.0831 4.80563C14.0297 4.73615 13.9891 4.65706 13.9319 4.59046C13.8057 4.44357 13.5989 4.37049 13.4083 4.40583C13.2773 4.43011 13.1417 4.50079 13.0186 4.45006C12.9356 4.41593 12.8849 4.33347 12.8686 4.24355C13.1794 3.94376 13.5927 3.81827 14.1081 4.23009C14.1889 4.29452 14.2723 4.37241 14.3581 4.46473C14.4507 4.56426 14.53 4.66042 14.5971 4.75346L14.5973 4.7537Z" fill="var(--fill-0, #AD8679)"/>
<path id="Vector_21" d="M9.69592 2.07415C9.68102 2.22393 9.64351 2.6319 9.62332 3.13051C8.55061 3.10815 7.57455 3.53392 7.57023 3.54089C7.61494 3.46804 7.6587 3.39784 7.70101 3.33077C7.70149 3.33029 7.70173 3.32981 7.70197 3.32933C8.0496 2.77807 8.31045 2.42299 8.33328 2.39246C8.33401 2.39149 8.33449 2.39077 8.33449 2.39053H8.33473V2.39005C8.33473 2.39005 8.6499 2.2321 9.12687 2.13906C9.29804 2.10565 9.49013 2.08064 9.69568 2.07439L9.69592 2.07415Z" fill="var(--fill-0, #4C70F5)" stroke="var(--stroke-0, black)" stroke-width="0.213696" stroke-linecap="round" stroke-linejoin="round"/>
<path id="Vector_22" d="M7.70092 3.33147C7.65861 3.39854 7.61485 3.46874 7.57014 3.54159C7.2891 3.99909 6.96767 4.56212 6.67389 5.17372C6.38661 4.64146 5.83439 4.93259 5.83439 4.93259C5.91372 4.73642 5.97863 4.60299 5.97863 4.60299C6.22577 4.8446 6.7489 4.21497 7.08187 3.7493C7.08788 3.76108 7.09485 3.77142 7.10254 3.78079C7.20448 3.9034 7.4533 3.65194 7.70068 3.33099L7.70092 3.33147Z" fill="var(--fill-0, #6D1249)" stroke="var(--stroke-0, black)" stroke-width="0.213696" stroke-linecap="round" stroke-linejoin="round"/>
<path id="Vector_23" d="M6.37376 5.84466C6.04128 6.64402 5.78933 7.48689 5.75087 8.26029C5.42535 8.74928 5.09671 9.10725 4.93853 8.87381C4.56637 8.32544 5.54964 6.05286 5.54964 6.05286C5.5494 6.1394 5.55926 6.21874 5.58258 6.28701C5.6761 6.56228 6.04921 6.21994 6.37376 5.8449V5.84466Z" fill="var(--fill-0, #6D1249)" stroke="var(--stroke-0, black)" stroke-width="0.213696" stroke-linecap="round" stroke-linejoin="round"/>
<path id="Vector_24" d="M9.05118 10.7358C10.2693 10.3499 11.3156 9.49286 11.3156 9.49286" stroke="var(--stroke-0, black)" stroke-width="0.213696" stroke-linecap="round" stroke-linejoin="round"/>
<path id="Vector_25" d="M13.3068 6.81146C13.1287 6.84488 12.9534 6.86387 12.7909 6.8694" stroke="var(--stroke-0, black)" stroke-width="0.213696" stroke-linecap="round" stroke-linejoin="round"/>
<path id="Vector_26" d="M12.1669 5.5412C12.1669 5.5412 12.3282 4.95941 12.6501 4.5036" stroke="var(--stroke-0, black)" stroke-width="0.213696" stroke-linecap="round" stroke-linejoin="round"/>
<path id="Vector_27" d="M12.7968 5.80221C12.7968 5.80221 13.6082 4.86173 14.332 5.41924" stroke="var(--stroke-0, black)" stroke-width="0.213696" stroke-linecap="round" stroke-linejoin="round"/>
<path id="Vector_28" d="M13.6459 5.96702C13.6459 5.96702 13.6423 5.5778 13.5175 5.34076" stroke="var(--stroke-0, black)" stroke-width="0.213696" stroke-linecap="round" stroke-linejoin="round"/>
<path id="Vector_29" d="M15.2738 13.3286C15.2738 13.3286 14.2473 17.5788 11.0523 17.5788C8.09644 17.5788 7.75626 13.5483 7.75626 13.5483C8.35969 13.4207 8.78497 13.3149 8.88666 13.2348C8.88666 13.2348 8.87705 16.45 11.1415 16.45C13.4059 16.45 14.2475 13.0004 14.2475 13.0004C14.3449 13.0766 14.7281 13.1889 15.2741 13.3283L15.2738 13.3286Z" fill="var(--fill-0, #F5D256)" stroke="var(--stroke-0, black)" stroke-width="0.213696" stroke-linecap="round" stroke-linejoin="round"/>
<path id="Vector_30" d="M10.7066 4.11312C10.6838 4.50162 10.6449 4.90935 10.5881 5.24304C10.5162 5.66351 10.4155 5.96715 10.2821 5.96739C9.80944 5.96811 9.65174 5.10697 9.61808 4.18836C9.61808 4.18836 10.0261 3.7376 10.7066 4.11336V4.11312Z" fill="var(--fill-0, #F5D256)" stroke="var(--stroke-0, black)" stroke-width="0.213696" stroke-linecap="round" stroke-linejoin="round"/>
<path id="Vector_31" d="M10.7306 3.35078C10.7304 3.53613 10.7246 3.7513 10.7136 3.97704C10.7129 3.99195 10.7121 4.00709 10.7114 4.02224C10.7114 4.02344 10.7112 4.02464 10.7112 4.02608C10.7112 4.02945 10.7109 4.03282 10.7107 4.03594C10.7095 4.06167 10.708 4.08739 10.7064 4.11335C10.0255 3.73783 9.61779 4.18836 9.61779 4.18836C9.60457 3.82895 9.61034 3.46064 9.62356 3.13176C9.64375 2.63316 9.68126 2.22518 9.69616 2.07541C9.49037 2.08166 9.29853 2.10666 9.12736 2.14008C9.12736 2.14008 9.17207 1.85135 9.37233 1.65325C9.39854 1.62705 9.42739 1.60276 9.45912 1.58089C9.46537 1.57608 9.47186 1.57199 9.47835 1.56791C9.47883 1.56767 9.47907 1.56742 9.47955 1.56718C9.48749 1.56189 9.49542 1.55733 9.50384 1.55276C9.50937 1.54987 9.51489 1.54675 9.52018 1.54386C9.52547 1.54122 9.53076 1.53833 9.53629 1.53569C9.63245 1.48785 9.75098 1.46213 9.89546 1.47318C10.3068 1.50564 10.5059 1.79966 10.6097 2.18335H10.61C10.672 2.41198 10.7004 2.67234 10.7193 2.9279C10.7273 3.03368 10.7314 3.17961 10.7306 3.35078Z" fill="var(--fill-0, #6D1249)" stroke="var(--stroke-0, black)" stroke-width="0.213696" stroke-linecap="round" stroke-linejoin="round"/>
<path id="Vector_32" d="M9.70197 2.01263C9.70197 2.01263 9.6998 2.03427 9.69572 2.07418" stroke="var(--stroke-0, black)" stroke-width="0.213696" stroke-linecap="round" stroke-linejoin="round"/>
<path id="Vector_33" d="M11.505 6.49679C11.4627 6.69753 11.4031 6.83216 11.3223 6.8699C10.8381 7.09589 10.5908 5.24402 10.5908 5.24402C10.647 4.91009 10.685 4.50188 10.7066 4.11314C10.7081 4.08717 10.7095 4.06145 10.711 4.03572C10.7112 4.0326 10.7114 4.02923 10.7114 4.02587C10.7114 4.02466 10.7117 4.02346 10.7117 4.02202C10.7124 4.00688 10.7131 3.99173 10.7138 3.97682C10.7242 3.75156 10.7295 3.53664 10.7295 3.35128C10.7297 3.25632 10.7285 3.16905 10.7256 3.09188C10.7237 3.03033 10.7208 2.97552 10.7172 2.9284C10.6975 2.67285 10.6686 2.41248 10.6064 2.1841H10.6061C10.5011 1.80088 10.3018 1.50686 9.88996 1.47537C9.78827 1.46744 9.69956 1.47826 9.62239 1.50206C9.5921 1.51119 9.56349 1.52249 9.53656 1.53547C9.53103 1.53812 9.5255 1.541 9.52045 1.54365C9.51492 1.54653 9.50939 1.54966 9.50411 1.55254C9.49569 1.55711 9.48776 1.56168 9.47982 1.56697C9.47934 1.56721 9.4791 1.56745 9.47862 1.56769C9.47213 1.57177 9.46564 1.57586 9.45939 1.58067C9.42766 1.60207 9.39857 1.62611 9.37212 1.65183C9.37044 1.65351 9.369 1.65496 9.36731 1.65664C9.36731 1.6552 9.36659 1.64822 9.36587 1.63693C9.36275 1.57514 9.35986 1.38089 9.43703 1.18351C9.5118 0.99263 9.66085 0.800062 9.95559 0.721449C10.0419 0.698369 10.1409 0.685147 10.2542 0.684666C10.434 0.683945 10.59 0.732748 10.7242 0.81617C11.0466 1.01643 11.2456 1.41743 11.3548 1.81867V1.81915C11.4 1.98456 11.4295 2.1502 11.4466 2.30166C11.5091 2.86109 11.7171 5.49885 11.5053 6.49655L11.505 6.49679Z" fill="var(--fill-0, #6D1249)" stroke="var(--stroke-0, black)" stroke-width="0.213696" stroke-linecap="round" stroke-linejoin="round"/>
<path id="Vector_34" d="M7.70206 3.33036C8.00738 2.93393 8.31054 2.43147 8.33338 2.39349" stroke="var(--stroke-0, black)" stroke-width="0.213696" stroke-linecap="round" stroke-linejoin="round"/>
<path id="Vector_35" d="M9.36613 1.6369C9.36925 1.64435 9.37166 1.6494 9.37238 1.6518" stroke="var(--stroke-0, black)" stroke-width="0.213696" stroke-linecap="round" stroke-linejoin="round"/>
<path id="Vector_36" d="M9.62356 3.13051C9.64375 2.6319 9.68126 2.22393 9.69616 2.07415C9.49037 2.0804 9.29853 2.10541 9.12736 2.13882" stroke="var(--stroke-0, black)" stroke-width="0.213696" stroke-linecap="round" stroke-linejoin="round"/>
<path id="Vector_37" d="M12.3044 7.44128C11.9087 7.49225 11.6555 6.98403 11.5048 6.49696C11.5935 6.07865 11.6084 5.37208 11.5913 4.6511C11.5913 4.6511 12.0097 3.99454 12.647 4.4268C12.6477 4.45276 12.6484 4.47849 12.6491 4.50445C12.6915 6.00989 12.5638 7.40787 12.3044 7.44152V7.44128Z" fill="var(--fill-0, #F5D256)" stroke="var(--stroke-0, black)" stroke-width="0.213696" stroke-linecap="round" stroke-linejoin="round"/>
<path id="Vector_38" d="M12.6473 4.42654C12.3809 4.24575 12.1525 4.25537 11.9775 4.32797C11.7333 4.42846 11.5917 4.65084 11.5917 4.65084C11.5681 3.65242 11.4828 2.62636 11.4465 2.30156C11.4039 1.92028 11.2799 1.44931 11.0358 1.11442C11.0344 1.11202 11.0327 1.10962 11.0308 1.10745C11.0173 1.08894 11.0034 1.07139 10.9892 1.05408C10.912 0.959361 10.824 0.877863 10.724 0.816078C10.724 0.816078 10.958 0.54105 11.3037 0.54706C11.3318 0.5473 11.3609 0.549464 11.3907 0.554272C11.5712 0.581438 11.777 0.689141 11.9929 0.945417C12.0484 1.01129 12.1001 1.09784 12.1482 1.20169C12.1809 1.27189 12.2117 1.34979 12.2408 1.43465C12.4708 2.10275 12.6002 3.2031 12.6423 4.28061C12.6442 4.32941 12.6461 4.37821 12.6475 4.42654H12.6473Z" fill="var(--fill-0, #6D1249)" stroke="var(--stroke-0, black)" stroke-width="0.213696" stroke-linecap="round" stroke-linejoin="round"/>
<path id="Vector_39" d="M9.37249 1.65231C9.17223 1.85065 9.12751 2.13938 9.12751 2.13938C8.65054 2.23242 8.33537 2.39036 8.33537 2.39036C8.33537 2.39036 8.33536 2.3906 8.33512 2.39085C8.33512 2.39109 8.33464 2.39181 8.33392 2.39277C8.3183 2.41392 8.19016 2.58822 7.99855 2.87407C7.76031 2.27521 7.35642 2.49951 7.34464 2.50624C7.45427 2.25838 7.58673 2.00787 7.72857 1.7879C7.95095 1.44291 8.19689 1.17221 8.41446 1.10201C8.69045 1.01258 8.90225 1.09047 9.05515 1.2138C9.2405 1.36262 9.34027 1.57658 9.36552 1.63668C9.36624 1.64798 9.36696 1.65495 9.36696 1.6564C9.3684 1.65495 9.36984 1.65351 9.37177 1.65183C9.37201 1.65207 9.37225 1.65231 9.37225 1.65255L9.37249 1.65231Z" fill="var(--fill-0, #6D1249)" stroke="var(--stroke-0, black)" stroke-width="0.213696" stroke-linecap="round" stroke-linejoin="round"/>
<path id="Vector_40" d="M9.43745 1.18387C9.36028 1.38124 9.36317 1.57549 9.36629 1.63728C9.32013 1.52765 9.02612 0.904512 8.41524 1.10285C7.76349 1.31393 6.85835 3.31725 7.08337 3.75023C6.75041 4.2159 6.22728 4.84529 5.98014 4.60392C5.72362 4.3539 6.16477 2.88332 6.83287 1.79859C7.15117 1.28171 7.52092 0.852584 7.89139 0.685019C8.25513 0.520579 8.54289 0.508799 8.76671 0.570344C9.24344 0.701126 9.42976 1.16343 9.43769 1.18363L9.43745 1.18387Z" fill="var(--fill-0, #6D1249)" stroke="var(--stroke-0, black)" stroke-width="0.213696" stroke-linecap="round" stroke-linejoin="round"/>
<path id="Vector_41" d="M11.3902 0.553757C10.9972 0.494136 10.7236 0.815562 10.7236 0.815562C10.5892 0.7319 10.4334 0.683338 10.2536 0.684059C9.75426 0.686222 9.53332 0.936488 9.43644 1.18267C9.43644 1.16752 9.43932 0.295558 10.1057 0.142899C10.921 -0.0434181 11.3902 0.553517 11.3902 0.553517V0.553757Z" fill="var(--fill-0, #6D1249)" stroke="var(--stroke-0, black)" stroke-width="0.213696" stroke-linecap="round" stroke-linejoin="round"/>
<path id="Vector_42" d="M9.43644 1.18353L9.43724 1.18593" stroke="var(--stroke-0, black)" stroke-width="0.213696" stroke-linecap="round" stroke-linejoin="round"/>
<path id="Vector_43" d="M14.7683 10.1491C14.751 10.6417 14.6613 11.0343 14.4212 11.0384C13.7817 11.0487 13.5103 8.67686 13.5021 8.60257C13.5018 8.60137 13.5018 8.60089 13.5018 8.60089C13.4403 7.8888 13.3956 7.29932 13.3739 7.00482C13.6273 7.71042 14.143 8.9567 14.5072 8.58214C14.5654 8.52228 14.6015 8.3826 14.6181 8.18138C14.6181 8.18138 14.7976 9.31058 14.7683 10.1491Z" fill="var(--fill-0, #6D1249)" stroke="var(--stroke-0, black)" stroke-width="0.213696" stroke-linecap="round" stroke-linejoin="round"/>
<path id="Vector_44" d="M15.6429 11.5713C15.0174 11.5477 14.7678 10.1488 14.7678 10.1488C14.7972 9.31024 14.6176 8.18104 14.6176 8.18104C14.6323 8.00338 14.6318 7.77812 14.6181 7.51751C14.8962 8.08872 15.3278 8.86236 15.678 8.9929C15.6855 9.02584 16.2644 11.5944 15.6427 11.5713H15.6429Z" fill="var(--fill-0, #6D1249)" stroke="var(--stroke-0, black)" stroke-width="0.213696" stroke-linecap="round" stroke-linejoin="round"/>
<path id="Vector_45" d="M7.9165 5.8681C7.9165 5.8681 7.18686 6.99321 7.48256 7.17785C7.77802 7.36248 8.10137 7.05788 8.10137 7.05788" stroke="var(--stroke-0, black)" stroke-width="0.213696" stroke-linecap="round" stroke-linejoin="round"/>
<path id="Vector_46" d="M8.15575 8.16697C8.15575 8.16697 9.15754 8.50859 9.69557 7.76068C9.69557 7.76068 9.99945 8.8781 9.18086 9.02162C7.99877 9.22885 8.15575 8.16697 8.15575 8.16697Z" fill="var(--fill-0, white)" stroke="var(--stroke-0, black)" stroke-width="0.213696" stroke-linecap="round" stroke-linejoin="round"/>
<path id="Vector_47" d="M8.14298 15.1836C8.35021 15.0439 8.55721 14.9045 8.76444 14.7648" stroke="var(--stroke-0, black)" stroke-width="0.213696" stroke-linecap="round" stroke-linejoin="round"/>
<path id="Vector_48" d="M9.19913 16.8646C9.31886 16.7412 9.43858 16.6179 9.55806 16.4948" stroke="var(--stroke-0, black)" stroke-width="0.213696" stroke-linecap="round" stroke-linejoin="round"/>
<path id="Vector_49" d="M11.2192 17.4485L11.3165 16.8574" stroke="var(--stroke-0, black)" stroke-width="0.213696" stroke-linecap="round" stroke-linejoin="round"/>
<path id="Vector_50" d="M13.1503 16.7662C13.0568 16.6391 12.9636 16.5121 12.87 16.3849" stroke="var(--stroke-0, black)" stroke-width="0.213696" stroke-linecap="round" stroke-linejoin="round"/>
<path id="Vector_51" d="M14.3307 15.3137C14.1773 15.2355 14.0239 15.1574 13.8705 15.079" stroke="var(--stroke-0, black)" stroke-width="0.213696" stroke-linecap="round" stroke-linejoin="round"/>
<path id="Vector_52" d="M15.0795 13.7159C14.8699 13.6976 14.6602 13.6793 14.4506 13.6611" stroke="var(--stroke-0, black)" stroke-width="0.213696" stroke-linecap="round" stroke-linejoin="round"/>
<path id="Vector_53" d="M10.6464 5.57792C10.6464 5.57792 10.9589 4.92545 11.596 5.52143" stroke="var(--stroke-0, black)" stroke-width="0.213696" stroke-linecap="round" stroke-linejoin="round"/>
<path id="Vector_54" d="M10.7211 5.93607C10.8461 5.78341 11.1286 5.57354 11.5719 5.96997" stroke="var(--stroke-0, #F5D256)" stroke-width="0.213696" stroke-linecap="round" stroke-linejoin="round"/>
<path id="Vector_55" d="M12.6861 4.45386C12.6731 4.44424 12.6601 4.43511 12.6474 4.42669" stroke="var(--stroke-0, black)" stroke-width="0.213696" stroke-linecap="round" stroke-linejoin="round"/>
<path id="Vector_56" d="M6.6741 5.17316C6.56904 5.39145 6.46759 5.61623 6.37287 5.84414C6.04832 6.21917 5.6752 6.56176 5.58168 6.28625C5.5586 6.21821 5.54851 6.13888 5.54875 6.05209C5.54899 5.70494 5.70958 5.24047 5.83459 4.93179C5.83459 4.93179 6.38681 4.64041 6.6741 5.17292V5.17316Z" fill="var(--fill-0, #F5D256)" stroke="var(--stroke-0, black)" stroke-width="0.213696" stroke-linecap="round" stroke-linejoin="round"/>
<path id="Vector_57" d="M7.99806 2.8746C7.99806 2.8746 7.99806 2.87484 7.99782 2.87484C7.91079 3.0049 7.81078 3.15804 7.70212 3.33017C7.70188 3.33065 7.70164 3.33113 7.70116 3.33161C7.45378 3.65256 7.20495 3.90403 7.10302 3.78142C7.09533 3.77204 7.08835 3.76147 7.08234 3.74993C6.98041 3.55375 7.11071 3.03519 7.34391 2.50677H7.34415C7.35593 2.50004 7.75982 2.27574 7.99806 2.8746Z" fill="var(--fill-0, #F5D256)" stroke="var(--stroke-0, black)" stroke-width="0.213696" stroke-linecap="round" stroke-linejoin="round"/>
<path id="Vector_58" d="M7.99876 2.87396L7.99796 2.87476C7.99796 2.87476 7.99823 2.87449 7.99876 2.87396Z" fill="var(--fill-0, #F5D256)" stroke="var(--stroke-0, black)" stroke-width="0.213696" stroke-linecap="round" stroke-linejoin="round"/>
<path id="Vector_59" d="M6.07755 3.46296C6.07755 3.46296 6.61703 3.12351 6.98389 3.88344" stroke="var(--stroke-0, black)" stroke-width="0.213696" stroke-linecap="round" stroke-linejoin="round"/>
<path id="Vector_60" d="M5.06241 7.39659C5.06241 7.39659 5.62112 7.10281 5.81754 7.6697" stroke="var(--stroke-0, #F5D256)" stroke-width="0.213696" stroke-linecap="round" stroke-linejoin="round"/>
<g id="Vector_61">
<path d="M13.6962 9.73365C13.6957 9.73172 14.0619 9.16195 14.7679 9.64181Z" fill="var(--fill-0, #6D1249)"/>
<path d="M13.6962 9.73365C13.6957 9.73172 14.0619 9.16195 14.7679 9.64181" stroke="var(--stroke-0, black)" stroke-width="0.213696" stroke-linecap="round" stroke-linejoin="round"/>
</g>
<g id="Vector_62">
<path d="M13.6523 9.27735C13.6518 9.27542 14.0179 8.70566 14.724 9.18551Z" fill="var(--fill-0, #6D1249)"/>
<path d="M13.6523 9.27735C13.6518 9.27542 14.0179 8.70566 14.724 9.18551" stroke="var(--stroke-0, black)" stroke-width="0.213696" stroke-linecap="round" stroke-linejoin="round"/>
</g>
<path id="Vector_63" d="M11.0644 1.01654L11.0308 1.10741C11.0173 1.0889 11.0034 1.07135 10.9892 1.05404C11.0125 1.03889 11.0377 1.02615 11.0642 1.01678L11.0644 1.01654Z" fill="var(--fill-0, #450832)"/>
<path id="Vector_64" d="M11.9777 4.32733C11.7335 4.42782 11.5919 4.6502 11.5919 4.6502C11.5683 3.65178 11.483 2.62572 11.4467 2.30092C11.4041 1.91963 11.2801 1.44867 11.036 1.11378C11.1034 1.04719 11.2226 1.05032 11.3043 1.10152C11.3916 1.15634 11.4455 1.25082 11.4902 1.34361C11.7691 1.92036 11.8414 2.5721 11.9097 3.20943C11.9496 3.58086 11.9893 3.95518 11.9775 4.32733H11.9777Z" fill="var(--fill-0, #450832)"/>
<path id="Vector_65" d="M14.4964 6.32187C14.1849 6.5707 13.7377 6.73273 13.3059 6.81279C13.3257 6.87 13.3483 6.93492 13.3733 7.00536C13.3949 7.29986 13.4396 7.88934 13.5012 8.60143C13.5012 8.60143 13.5012 8.60191 13.5014 8.60311C13.6697 10.5576 13.9632 12.778 14.2474 13.0014C14.2474 13.0014 13.4057 16.451 11.1413 16.451C8.87689 16.451 8.88651 13.2358 8.88651 13.2358C9.31973 12.8954 9.05095 10.7367 9.05095 10.7367C8.03787 11.0579 6.90602 11.0529 6.15763 9.95902C5.83019 9.4806 5.71865 8.89425 5.75014 8.26125C5.78836 7.48762 6.04031 6.64474 6.37304 5.84538C6.73341 4.97847 7.18923 4.16276 7.57051 3.54227C7.57484 3.53529 8.55066 3.10953 9.6236 3.13189C9.57648 4.30148 9.62457 5.96871 10.2821 5.96751C10.4155 5.96727 10.5162 5.66387 10.5881 5.24316C10.6451 4.90947 10.6838 4.50174 10.7066 4.11324C10.685 4.50198 10.647 4.91019 10.5908 5.24412C10.5908 5.24412 10.8379 7.09623 11.3223 6.87001C11.4031 6.83226 11.463 6.69763 11.505 6.49689C11.6558 6.9842 11.9089 7.49218 12.3046 7.44122C12.564 7.40756 12.6917 6.00982 12.6494 4.50414C12.6614 4.48707 12.6737 4.47024 12.6859 4.45366C13.0098 4.0214 13.4841 3.73243 14.1082 4.23104C14.189 4.29547 14.2724 4.37336 14.3582 4.46568C15.1465 5.31384 14.9922 5.92688 14.4967 6.32163L14.4964 6.32187Z" stroke="var(--stroke-0, black)" stroke-width="0.213696" stroke-linecap="round" stroke-linejoin="round"/>
<path id="Vector_66" d="M11.5892 0.339968L11.5531 0.340929C11.5652 0.339968 11.5769 0.339487 11.5892 0.339968Z" fill="var(--fill-0, #961E6C)"/>
<path id="Vector_67" d="M12.2411 1.43488C12.2307 1.51278 12.2163 1.58995 12.1985 1.6664C12.1817 1.73828 12.1483 1.82242 12.0757 1.83468C12.023 1.84358 11.9716 1.80752 11.9437 1.76208C11.9158 1.71664 11.9062 1.66279 11.8937 1.61086C11.8367 1.37406 11.7093 1.15481 11.5321 0.987724C11.448 0.908629 11.3491 0.835545 11.3095 0.727121C11.2883 0.669663 11.2871 0.605714 11.3042 0.547054C11.3323 0.547295 11.3614 0.549459 11.3912 0.554267C11.5718 0.581433 11.7776 0.689136 11.9934 0.945412C12.049 1.01128 12.1007 1.09783 12.1487 1.20169C12.1814 1.27189 12.2122 1.34978 12.2413 1.43464L12.2411 1.43488Z" fill="var(--fill-0, #961E6C)"/>
<path id="Vector_68" d="M11.505 6.4965C11.4627 6.69724 11.403 6.83187 11.3223 6.86962C10.8381 7.0956 10.5907 5.24373 10.5907 5.24373C10.6469 4.9098 10.6849 4.50159 10.7066 4.11285C10.708 4.08688 10.7095 4.06116 10.7109 4.03544C10.7111 4.03231 10.7114 4.02895 10.7114 4.02558C10.7114 4.02438 10.7116 4.02318 10.7116 4.02173C10.7123 4.00659 10.7131 3.99144 10.7138 3.97654C10.7241 3.75127 10.7294 3.53635 10.7294 3.35099C10.7299 3.17982 10.7253 3.03389 10.7171 2.92811C10.6974 2.67256 10.6686 2.4122 10.6063 2.18381H10.6061C10.501 1.8006 10.3017 1.50658 9.8899 1.47508C9.74806 1.46403 9.6317 1.48927 9.5365 1.53495C9.53097 1.53759 9.52544 1.54048 9.52039 1.54312C9.51486 1.54601 9.50933 1.54913 9.50405 1.55202C9.49563 1.55658 9.4877 1.56115 9.47976 1.56644C9.47928 1.56668 9.47904 1.56692 9.47856 1.56716C9.47207 1.57125 9.46558 1.57534 9.45933 1.58014C9.4276 1.60154 9.39851 1.62558 9.37206 1.6513C9.37038 1.65299 9.36894 1.65443 9.36725 1.65611C9.36725 1.65467 9.36653 1.6477 9.36581 1.6364C9.36269 1.57461 9.3598 1.38036 9.43697 1.18299C9.53362 0.936569 9.75455 0.686063 10.2541 0.68414C10.4339 0.683418 10.59 0.732221 10.7241 0.815643C11.1797 1.09836 11.3884 1.78281 11.4463 2.30137C11.5088 2.8608 11.7168 5.49857 11.505 6.49626V6.4965Z" stroke="var(--stroke-0, black)" stroke-width="0.213696" stroke-linecap="round" stroke-linejoin="round"/>
<path id="Vector_69" d="M6.37376 5.84466C6.04128 6.64402 5.78933 7.48689 5.75087 8.26029C5.42535 8.74928 5.09671 9.10725 4.93853 8.87381C4.56637 8.32544 5.54964 6.05286 5.54964 6.05286C5.5494 6.1394 5.55926 6.21874 5.58258 6.28701C5.6761 6.56228 6.04921 6.21994 6.37376 5.8449V5.84466Z" stroke="var(--stroke-0, black)" stroke-width="0.213696" stroke-linecap="round" stroke-linejoin="round"/>
<path id="Vector_70" d="M14.7685 10.1487C14.7685 10.1487 15.3128 9.5491 15.8597 9.99987" stroke="var(--stroke-0, #F5D256)" stroke-width="0.213696" stroke-linecap="round" stroke-linejoin="round"/>
<path id="Vector_71" d="M11.3541 1.81877V1.81925C11.3541 1.87622 11.3488 1.93368 11.3385 1.99018C11.3334 2.01662 11.3252 2.04595 11.3014 2.05845C11.2728 2.0736 11.238 2.05605 11.212 2.03658C11.0488 1.91661 10.9536 1.72861 10.8492 1.55528C10.7444 1.38194 10.6115 1.20693 10.4179 1.14754C10.3415 1.12422 10.2605 1.12038 10.1821 1.10475C10.1037 1.08913 10.0237 1.05787 9.9751 0.994645C9.92173 0.924445 9.91716 0.824916 9.94697 0.741975C9.94938 0.735003 9.95226 0.728272 9.95515 0.72154C10.0415 0.698461 10.1405 0.685238 10.2537 0.684758C10.4336 0.684036 10.5896 0.732839 10.7237 0.816261C11.0461 1.01652 11.2452 1.41752 11.3543 1.81877H11.3541Z" fill="var(--fill-0, #961E6C)"/>
<path id="Vector_72" d="M8.76579 0.570344C8.75882 0.578758 8.75137 0.586691 8.74368 0.594144C8.67684 0.658093 8.58765 0.692231 8.50255 0.729254C8.01211 0.943218 7.58875 1.30912 7.30603 1.76325C7.25723 1.84163 7.20362 1.92961 7.11419 1.95269C6.99518 1.98371 6.90022 1.8974 6.83195 1.79859C7.15025 1.28171 7.52 0.852584 7.89047 0.685019C8.2542 0.520579 8.54197 0.508799 8.76579 0.570344Z" fill="var(--fill-0, #961E6C)"/>
<path id="Vector_73" d="M9.05525 1.21356C9.01077 1.34002 8.87253 1.42584 8.73935 1.4696C8.58453 1.52081 8.41335 1.54485 8.2893 1.65087C8.18545 1.73982 8.11501 1.88575 7.98038 1.91123C7.88205 1.93022 7.78637 1.8718 7.72843 1.7879C7.95081 1.44291 8.19675 1.17221 8.41432 1.10201C8.69031 1.01258 8.90211 1.09047 9.05501 1.2138L9.05525 1.21356Z" fill="var(--fill-0, #961E6C)"/>
<path id="Vector_74" d="M15.6429 11.5713C15.0174 11.5477 14.7678 10.1488 14.7678 10.1488C14.7972 9.31024 14.6176 8.18104 14.6176 8.18104C14.6323 8.00338 14.6318 7.77812 14.6181 7.51751C14.8962 8.08872 15.3278 8.86236 15.678 8.9929C15.6855 9.02584 16.2644 11.5944 15.6427 11.5713H15.6429Z" stroke="var(--stroke-0, black)" stroke-width="0.213696" stroke-linecap="round" stroke-linejoin="round"/>
<path id="Vector_75" d="M13.2431 6.49984C13.3723 6.49984 13.477 6.39511 13.477 6.26592C13.477 6.13673 13.3723 6.032 13.2431 6.032C13.1139 6.032 13.0092 6.13673 13.0092 6.26592C13.0092 6.39511 13.1139 6.49984 13.2431 6.49984Z" fill="var(--fill-0, #4C70F5)" stroke="var(--stroke-0, black)" stroke-width="0.213696" stroke-linecap="round" stroke-linejoin="round"/>
<path id="Vector_76" d="M13.6709 7.77851C13.9236 7.71496 14.0597 7.39038 13.9749 7.05353C13.8902 6.71669 13.6167 6.49514 13.3641 6.55869C13.1115 6.62225 12.9753 6.94683 13.0601 7.28367C13.1448 7.62051 13.4183 7.84206 13.6709 7.77851Z" fill="var(--fill-0, #4C70F5)" stroke="var(--stroke-0, black)" stroke-width="0.213696" stroke-linecap="round" stroke-linejoin="round"/>
<path id="Vector_77" d="M10.9786 2.97408C10.9702 3.02192 10.9594 3.07049 10.9308 3.10967C10.9022 3.14838 10.851 3.17458 10.8048 3.15992C10.7709 3.14934 10.7473 3.11977 10.7257 3.09212C10.7238 3.03058 10.7209 2.97577 10.7173 2.92864C10.6976 2.67309 10.6687 2.41273 10.6065 2.18434H10.6062C10.5012 1.80113 10.3019 1.50711 9.89005 1.47561C9.78836 1.46768 9.69964 1.4785 9.62247 1.5023C9.63065 1.46095 9.64868 1.42128 9.6744 1.38787L9.64964 1.39075C9.79941 1.24386 10.03 1.19458 10.2343 1.24194C10.4384 1.28978 10.6158 1.42585 10.7382 1.59606C10.8606 1.76651 10.932 1.96917 10.9721 2.1752C11.0231 2.43821 11.0253 2.71035 10.9786 2.97384V2.97408Z" fill="var(--fill-0, #450832)"/>
<path id="Vector_78" d="M8.79451 0.941196C8.64282 0.88446 8.47165 0.893595 8.31778 0.94384C8.16368 0.994086 8.02497 1.0828 7.89779 1.18305C7.48741 1.50688 7.18306 1.96245 7.04073 2.46539C7.02463 2.52212 7.01261 2.58944 7.05011 2.63512C7.09074 2.68464 7.17224 2.67959 7.22441 2.64209C7.27633 2.60458 7.30614 2.54472 7.33499 2.48751C7.50833 2.14252 7.71316 1.81364 7.94587 1.50568C8.03747 1.38475 8.13459 1.26575 8.25504 1.17343C8.37284 1.08352 8.5178 1.01837 8.6683 1.02005C8.75052 1.02077 8.81759 1.04674 8.89188 1.07727C8.92698 1.09169 8.9765 1.1179 9.0116 1.09866C8.97723 1.02462 8.86832 0.968603 8.79451 0.941196Z" fill="var(--fill-0, #450832)"/>
<path id="Vector_79" d="M9.37249 1.65241C9.17223 1.85074 9.12751 2.13947 9.12751 2.13947C8.65054 2.23251 8.33537 2.39046 8.33537 2.39046C8.33537 2.39046 8.33536 2.3907 8.33512 2.39094C8.33512 2.39118 8.33464 2.3919 8.33392 2.39286C8.3183 2.41402 8.19016 2.58832 7.99855 2.87416C7.76031 2.2753 7.35642 2.49961 7.34464 2.50634C7.62616 1.86877 8.05817 1.21751 8.4147 1.10211C9.02558 0.903772 9.3196 1.52691 9.36576 1.63654C9.36648 1.64784 9.3672 1.65481 9.3672 1.65625C9.36864 1.65481 9.37008 1.65337 9.37201 1.65168C9.37225 1.65192 9.37249 1.65216 9.37249 1.65241Z" stroke="var(--stroke-0, black)" stroke-width="0.213696" stroke-linecap="round" stroke-linejoin="round"/>
<path id="Vector_80" d="M9.43743 1.18387C9.36026 1.38125 9.36315 1.5755 9.36627 1.63728C9.32011 1.52766 9.02609 0.904518 8.41521 1.10286C7.76347 1.31393 6.85833 3.31726 7.08335 3.75024C6.75038 4.21591 6.22725 4.8453 5.98011 4.60393C5.60147 4.2349 6.74341 1.20431 7.89136 0.685025C9.02946 0.169829 9.42589 1.15406 9.43767 1.18363L9.43743 1.18387Z" stroke="var(--stroke-0, black)" stroke-width="0.213696" stroke-linecap="round" stroke-linejoin="round"/>
<path id="Vector_81" d="M11.505 6.4965C11.4627 6.69724 11.403 6.83187 11.3223 6.86962C10.8381 7.0956 10.5907 5.24373 10.5907 5.24373C10.6469 4.9098 10.6849 4.50159 10.7066 4.11285C10.708 4.08688 10.7095 4.06116 10.7109 4.03544C10.7111 4.03231 10.7114 4.02895 10.7114 4.02558C10.7114 4.02438 10.7116 4.02318 10.7116 4.02173C10.7123 4.00659 10.7131 3.99144 10.7138 3.97654C10.7241 3.75127 10.7294 3.53635 10.7294 3.35099C10.7299 3.17982 10.7253 3.03389 10.7171 2.92811C10.6974 2.67256 10.6686 2.4122 10.6063 2.18381H10.6061C10.501 1.8006 10.3017 1.50658 9.8899 1.47508C9.74806 1.46403 9.6317 1.48927 9.5365 1.53495C9.53097 1.53759 9.52544 1.54048 9.52039 1.54312C9.51486 1.54601 9.50933 1.54913 9.50405 1.55202C9.49563 1.55658 9.4877 1.56115 9.47976 1.56644C9.47928 1.56668 9.47904 1.56692 9.47856 1.56716C9.47207 1.57125 9.46558 1.57534 9.45933 1.58014C9.4276 1.60154 9.39851 1.62558 9.37206 1.6513C9.37038 1.65299 9.36894 1.65443 9.36725 1.65611C9.36725 1.65467 9.36653 1.6477 9.36581 1.6364C9.36269 1.57461 9.3598 1.38036 9.43697 1.18299C9.53362 0.936569 9.75455 0.686063 10.2541 0.68414C10.4339 0.683418 10.59 0.732221 10.7241 0.815643C11.1797 1.09836 11.3884 1.78281 11.4463 2.30137C11.5088 2.8608 11.7168 5.49857 11.505 6.49626V6.4965Z" stroke="var(--stroke-0, black)" stroke-width="0.213696" stroke-linecap="round" stroke-linejoin="round"/>
<path id="Vector_82" d="M12.6471 4.42644C12.0097 3.99419 11.5914 4.65074 11.5914 4.65074C11.5679 3.65233 11.4825 2.62626 11.4462 2.30147C11.3883 1.78291 11.1796 1.0987 10.724 0.815743C10.724 0.815743 10.9976 0.493836 11.3907 0.553938C11.5712 0.581104 11.777 0.688807 11.9929 0.945083C12.0484 1.01096 12.1001 1.0975 12.1482 1.20136C12.4365 1.82209 12.5947 3.06573 12.6423 4.28027C12.6442 4.32908 12.6461 4.37788 12.6475 4.4262L12.6471 4.42644Z" stroke="var(--stroke-0, black)" stroke-width="0.213696" stroke-linecap="round" stroke-linejoin="round"/>
</g>
</svg>
