<svg preserveAspectRatio="none" width="100%" height="100%" overflow="visible" style="display: block;" viewBox="0 0 22.7199 18.9" fill="none" xmlns="http://www.w3.org/2000/svg">
<path id="Vector" d="M11.36 0C17.0216 0 21.7319 4.074 22.7199 9.45C21.7329 14.826 17.0216 18.9 11.36 18.9C5.69835 18.9 0.98805 14.826 0 9.45C0.987 4.074 5.69835 0 11.36 0ZM11.36 16.8C13.5014 16.7995 15.5793 16.0722 17.2535 14.7369C18.9276 13.4017 20.099 11.5377 20.5758 9.45C20.0972 7.36397 18.9251 5.50201 17.2511 4.16853C15.5771 2.83505 13.5002 2.10895 11.36 2.10895C9.21973 2.10895 7.14282 2.83505 5.4688 4.16853C3.79477 5.50201 2.62266 7.36397 2.1441 9.45C2.6209 11.5377 3.79226 13.4017 5.46645 14.7369C7.14065 16.0722 9.21851 16.7995 11.36 16.8V16.8ZM11.36 14.175C10.1068 14.175 8.90498 13.6772 8.01887 12.7911C7.13276 11.905 6.63495 10.7031 6.63495 9.45C6.63495 8.19685 7.13276 6.99503 8.01887 6.10892C8.90498 5.22281 10.1068 4.725 11.36 4.725C12.6131 4.725 13.8149 5.22281 14.701 6.10892C15.5871 6.99503 16.085 8.19685 16.085 9.45C16.085 10.7031 15.5871 11.905 14.701 12.7911C13.8149 13.6772 12.6131 14.175 11.36 14.175ZM11.36 12.075C12.0561 12.075 12.7238 11.7984 13.2161 11.3062C13.7084 10.8139 13.985 10.1462 13.985 9.45C13.985 8.75381 13.7084 8.08613 13.2161 7.59385C12.7238 7.10156 12.0561 6.825 11.36 6.825C10.6638 6.825 9.99608 7.10156 9.5038 7.59385C9.01151 8.08613 8.73495 8.75381 8.73495 9.45C8.73495 10.1462 9.01151 10.8139 9.5038 11.3062C9.99608 11.7984 10.6638 12.075 11.36 12.075Z" fill="var(--fill-0, #525866)"/>
</svg>
