<svg width="23" height="19" viewBox="0 0 23 19" fill="none" xmlns="http://www.w3.org/2000/svg">
<g clip-path="url(#clip0_2484_12026)">
<path d="M0 3.98412C0 2.79881 0.339627 1.79004 1.0692 1.07129L2.32707 2.33225C0.93083 3.73192 2.15097 8.08225 6.13844 12.0795C10.1259 16.0768 14.4656 17.2999 15.8618 15.9002L17.1197 17.1612C14.7549 19.5318 9.38377 17.8421 4.88057 13.3405C1.76103 10.2007 0 6.65736 0 3.98412Z" fill="#009A46"/>
<path d="M7.93695 18.2457C6.75454 18.2457 5.74824 17.9052 5.03125 17.1739L6.28913 15.9129C7.68537 17.3126 12.0251 16.0895 16.0125 12.0922C20 8.09494 21.2201 3.74462 19.8239 2.34495L21.0818 1.08398C23.4466 3.4546 21.761 8.83891 17.2704 13.3532C14.1383 16.4804 10.5911 18.2457 7.93695 18.2457Z" fill="#FF5805"/>
<path d="M17.6719 11.55C16.9046 9.34335 15.3448 6.98535 13.2819 4.91737C8.77869 0.403116 3.40755 -1.27397 1.04274 1.08404C0.879217 1.26057 1.03016 1.67669 1.36979 2.01715C1.70942 2.35761 2.13709 2.50893 2.30062 2.345C3.69686 0.945331 8.03654 2.16847 12.024 6.16572C13.9108 8.05717 15.3197 10.1756 15.9989 12.1301C16.5901 13.845 16.5398 15.232 15.848 15.9256C15.6844 16.0895 15.8228 16.5056 16.175 16.8587C16.5272 17.2118 16.9423 17.3505 17.1058 17.1865C18.3134 15.9634 18.5147 13.9585 17.6719 11.55Z" fill="#F5AFCB"/>
<path d="M21.0701 1.08409C19.8626 -0.126439 17.8626 -0.328194 15.46 0.504042C13.2587 1.27323 10.9065 2.83683 8.84357 4.90481C4.34036 9.41906 2.66738 14.8034 5.0322 17.174C5.19572 17.3379 5.6234 17.1992 5.96303 16.8461C6.30265 16.4931 6.4536 16.0769 6.29007 15.913C4.89383 14.5133 6.11397 10.163 10.1014 6.16577C11.9883 4.27432 14.1015 2.86204 16.0386 2.18112C17.7493 1.58847 19.133 1.63891 19.8248 2.33244C19.9884 2.49637 20.4035 2.35766 20.7557 2.00459C21.1079 1.65152 21.2462 1.26062 21.0701 1.08409Z" fill="#FF9B00"/>
</g>
<defs>
<clipPath id="clip0_2484_12026">
<rect width="22.1387" height="18.2461" fill="white"/>
</clipPath>
</defs>
</svg>
